{
  "resolution": 480,
  "tempo_map": [
    {
      "beat": 0.0,
      "bpm": 72.00002880001152
    }
  ],
  "notes": [
    {
      "pitch": 76,
      "start_beat": 0.0,
      "duration_beat": 0.23541666666666666,
      "velocity": 33,
      "track": 0
    },
    {
      "pitch": 76,
      "start_beat": 0.0,
      "duration_beat": 0.23541666666666666,
      "velocity": 43,
      "track": 0
    },
    {
      "pitch": 80,
      "start_beat": 0.0,
      "duration_beat": 0.23541666666666666,
      "velocity": 43,
      "track": 0
    },
    {
      "pitch": 83,
      "start_beat": 0.0,
      "duration_beat": 0.23541666666666666,
      "velocity": 43,
      "track": 0
    },
    {
      "pitch": 76,
      "start_beat": 0.0,
      "duration_beat": 0.11770833333333333,
      "velocity": 33,
      "track": 0
    },
    {
      "pitch": 76,
      "start_beat": 0.0,
      "duration_beat": 0.125,
      "velocity": 13,
      "track": 0
    },
    {
      "pitch": 83,
      "start_beat": 0.125,
      "duration_beat": 0.11770833333333333,
      "velocity": 33,
      "track": 0
    },
    {
      "pitch": 88,
      "start_beat": 0.25,
      "duration_beat": 0.11770833333333333,
      "velocity": 33,
      "track": 0
    },
    {
      "pitch": 75,
      "start_beat": 0.25,
      "duration_beat": 0.23541666666666666,
      "velocity": 33,
      "track": 0
    },
    {
      "pitch": 75,
      "start_beat": 0.25,
      "duration_beat": 0.23541666666666666,
      "velocity": 43,
      "track": 0
    },
    {
      "pitch": 79,
      "start_beat": 0.25,
      "duration_beat": 0.23541666666666666,
      "velocity": 43,
      "track": 0
    },
    {
      "pitch": 82,
      "start_beat": 0.25,
      "duration_beat": 0.23541666666666666,
      "velocity": 43,
      "track": 0
    },
    {
      "pitch": 75,
      "start_beat": 0.25,
      "duration_beat": 0.11770833333333333,
      "velocity": 33,
      "track": 0
    },
    {
      "pitch": 75,
      "start_beat": 0.25,
      "duration_beat": 0.125,
      "velocity": 13,
      "track": 0
    },
    {
      "pitch": 82,
      "start_beat": 0.375,
      "duration_beat": 0.11770833333333333,
      "velocity": 33,
      "track": 0
    },
    {
      "pitch": 87,
      "start_beat": 0.5,
      "duration_beat": 0.11770833333333333,
      "velocity": 33,
      "track": 0
    },
    {
      "pitch": 76,
      "start_beat": 0.5,
      "duration_beat": 0.23541666666666672,
      "velocity": 33,
      "track": 0
    },
    {
      "pitch": 76,
      "start_beat": 0.5,
      "duration_beat": 0.23541666666666672,
      "velocity": 43,
      "track": 0
    },
    {
      "pitch": 80,
      "start_beat": 0.5,
      "duration_beat": 0.23541666666666672,
      "velocity": 43,
      "track": 0
    },
    {
      "pitch": 83,
      "start_beat": 0.5,
      "duration_beat": 0.23541666666666672,
      "velocity": 43,
      "track": 0
    },
    {
      "pitch": 76,
      "start_beat": 0.5,
      "duration_beat": 0.11770833333333336,
      "velocity": 33,
      "track": 0
    },
    {
      "pitch": 76,
      "start_beat": 0.5,
      "duration_beat": 0.125,
      "velocity": 13,
      "track": 0
    },
    {
      "pitch": 83,
      "start_beat": 0.625,
      "duration_beat": 0.11770833333333336,
      "velocity": 33,
      "track": 0
    },
    {
      "pitch": 88,
      "start_beat": 0.75,
      "duration_beat": 0.11770833333333336,
      "velocity": 33,
      "track": 0
    },
    {
      "pitch": 75,
      "start_beat": 0.75,
      "duration_beat": 0.23541666666666672,
      "velocity": 33,
      "track": 0
    },
    {
      "pitch": 75,
      "start_beat": 0.75,
      "duration_beat": 0.23541666666666672,
      "velocity": 43,
      "track": 0
    },
    {
      "pitch": 79,
      "start_beat": 0.75,
      "duration_beat": 0.23541666666666672,
      "velocity": 43,
      "track": 0
    },
    {
      "pitch": 82,
      "start_beat": 0.75,
      "duration_beat": 0.23541666666666672,
      "velocity": 43,
      "track": 0
    },
    {
      "pitch": 75,
      "start_beat": 0.75,
      "duration_beat": 0.11770833333333336,
      "velocity": 33,
      "track": 0
    },
    {
      "pitch": 75,
      "start_beat": 0.75,
      "duration_beat": 0.125,
      "velocity": 13,
      "track": 0
    },
    {
      "pitch": 82,
      "start_beat": 0.875,
      "duration_beat": 0.11770833333333336,
      "velocity": 33,
      "track": 0
    },
    {
      "pitch": 87,
      "start_beat": 1.0,
      "duration_beat": 0.11770833333333336,
      "velocity": 33,
      "track": 0
    },
    {
      "pitch": 76,
      "start_beat": 1.0,
      "duration_beat": 0.2354166666666666,
      "velocity": 33,
      "track": 0
    },
    {
      "pitch": 76,
      "start_beat": 1.0,
      "duration_beat": 0.2354166666666666,
      "velocity": 43,
      "track": 0
    },
    {
      "pitch": 80,
      "start_beat": 1.0,
      "duration_beat": 0.2354166666666666,
      "velocity": 43,
      "track": 0
    },
    {
      "pitch": 83,
      "start_beat": 1.0,
      "duration_beat": 0.2354166666666666,
      "velocity": 43,
      "track": 0
    },
    {
      "pitch": 76,
      "start_beat": 1.0,
      "duration_beat": 0.1177083333333333,
      "velocity": 33,
      "track": 0
    },
    {
      "pitch": 76,
      "start_beat": 1.0,
      "duration_beat": 0.125,
      "velocity": 13,
      "track": 0
    },
    {
      "pitch": 83,
      "start_beat": 1.125,
      "duration_beat": 0.1177083333333333,
      "velocity": 33,
      "track": 0
    },
    {
      "pitch": 88,
      "start_beat": 1.25,
      "duration_beat": 0.1177083333333333,
      "velocity": 33,
      "track": 0
    },
    {
      "pitch": 71,
      "start_beat": 1.25,
      "duration_beat": 0.2354166666666666,
      "velocity": 33,
      "track": 0
    },
    {
      "pitch": 71,
      "start_beat": 1.25,
      "duration_beat": 0.2354166666666666,
      "velocity": 43,
      "track": 0
    },
    {
      "pitch": 75,
      "start_beat": 1.25,
      "duration_beat": 0.2354166666666666,
      "velocity": 43,
      "track": 0
    },
    {
      "pitch": 78,
      "start_beat": 1.25,
      "duration_beat": 0.2354166666666666,
      "velocity": 43,
      "track": 0
    },
    {
      "pitch": 71,
      "start_beat": 1.25,
      "duration_beat": 0.1177083333333333,
      "velocity": 33,
      "track": 0
    },
    {
      "pitch": 71,
      "start_beat": 1.25,
      "duration_beat": 0.125,
      "velocity": 13,
      "track": 0
    },
    {
      "pitch": 78,
      "start_beat": 1.375,
      "duration_beat": 0.1177083333333333,
      "velocity": 33,
      "track": 0
    },
    {
      "pitch": 83,
      "start_beat": 1.5,
      "duration_beat": 0.1177083333333333,
      "velocity": 33,
      "track": 0
    },
    {
      "pitch": 74,
      "start_beat": 1.5,
      "duration_beat": 0.2354166666666666,
      "velocity": 33,
      "track": 0
    },
    {
      "pitch": 74,
      "start_beat": 1.5,
      "duration_beat": 0.2354166666666666,
      "velocity": 43,
      "track": 0
    },
    {
      "pitch": 78,
      "start_beat": 1.5,
      "duration_beat": 0.2354166666666666,
      "velocity": 43,
      "track": 0
    },
    {
      "pitch": 81,
      "start_beat": 1.5,
      "duration_beat": 0.2354166666666666,
      "velocity": 43,
      "track": 0
    },
    {
      "pitch": 74,
      "start_beat": 1.5,
      "duration_beat": 0.1177083333333333,
      "velocity": 33,
      "track": 0
    },
    {
      "pitch": 74,
      "start_beat": 1.5,
      "duration_beat": 0.125,
      "velocity": 13,
      "track": 0
    },
    {
      "pitch": 81,
      "start_beat": 1.625,
      "duration_beat": 0.1177083333333333,
      "velocity": 33,
      "track": 0
    },
    {
      "pitch": 86,
      "start_beat": 1.75,
      "duration_beat": 0.1177083333333333,
      "velocity": 33,
      "track": 0
    },
    {
      "pitch": 72,
      "start_beat": 1.75,
      "duration_beat": 0.2354166666666666,
      "velocity": 33,
      "track": 0
    },
    {
      "pitch": 72,
      "start_beat": 1.75,
      "duration_beat": 0.2354166666666666,
      "velocity": 43,
      "track": 0
    },
    {
      "pitch": 76,
      "start_beat": 1.75,
      "duration_beat": 0.2354166666666666,
      "velocity": 43,
      "track": 0
    },
    {
      "pitch": 79,
      "start_beat": 1.75,
      "duration_beat": 0.2354166666666666,
      "velocity": 43,
      "track": 0
    },
    {
      "pitch": 72,
      "start_beat": 1.75,
      "duration_beat": 0.1177083333333333,
      "velocity": 33,
      "track": 0
    },
    {
      "pitch": 72,
      "start_beat": 1.75,
      "duration_beat": 0.125,
      "velocity": 13,
      "track": 0
    },
    {
      "pitch": 79,
      "start_beat": 1.875,
      "duration_beat": 0.1177083333333333,
      "velocity": 33,
      "track": 0
    },
    {
      "pitch": 84,
      "start_beat": 2.0,
      "duration_beat": 0.1177083333333333,
      "velocity": 33,
      "track": 0
    },
    {
      "pitch": 69,
      "start_beat": 2.0,
      "duration_beat": 0.4729166666666669,
      "velocity": 33,
      "track": 0
    },
    {
      "pitch": 69,
      "start_beat": 2.0,
      "duration_beat": 0.4729166666666669,
      "velocity": 43,
      "track": 0
    },
    {
      "pitch": 73,
      "start_beat": 2.0,
      "duration_beat": 0.4729166666666669,
      "velocity": 43,
      "track": 0
    },
    {
      "pitch": 76,
      "start_beat": 2.0,
      "duration_beat": 0.4729166666666669,
      "velocity": 43,
      "track": 0
    },
    {
      "pitch": 69,
      "start_beat": 2.0,
      "duration_beat": 0.23645833333333344,
      "velocity": 33,
      "track": 0
    },
    {
      "pitch": 69,
      "start_beat": 2.0,
      "duration_beat": 0.125,
      "velocity": 13,
      "track": 0
    },
    {
      "pitch": 45,
      "start_beat": 2.0,
      "duration_beat": 0.2354166666666666,
      "velocity": 33,
      "track": 1
    },
    {
      "pitch": 45,
      "start_beat": 2.0,
      "duration_beat": 0.2354166666666666,
      "velocity": 43,
      "track": 1
    },
    {
      "pitch": 49,
      "start_beat": 2.0,
      "duration_beat": 0.2354166666666666,
      "velocity": 43,
      "track": 1
    },
    {
      "pitch": 52,
      "start_beat": 2.0,
      "duration_beat": 0.2354166666666666,
      "velocity": 43,
      "track": 1
    },
    {
      "pitch": 45,
      "start_beat": 2.0,
      "duration_beat": 0.1177083333333333,
      "velocity": 33,
      "track": 1
    },
    {
      "pitch": 45,
      "start_beat": 2.0,
      "duration_beat": 0.125,
      "velocity": 13,
      "track": 1
    },
    {
      "pitch": 76,
      "start_beat": 2.125,
      "duration_beat": 0.23645833333333344,
      "velocity": 33,
      "track": 0
    },
    {
      "pitch": 52,
      "start_beat": 2.125,
      "duration_beat": 0.1177083333333333,
      "velocity": 33,
      "track": 1
    },
    {
      "pitch": 81,
      "start_beat": 2.25,
      "duration_beat": 0.23645833333333344,
      "velocity": 33,
      "track": 0
    },
    {
      "pitch": 69,
      "start_beat": 2.25,
      "duration_beat": 0.125,
      "velocity": 13,
      "track": 0
    },
    {
      "pitch": 57,
      "start_beat": 2.25,
      "duration_beat": 0.1177083333333333,
      "velocity": 33,
      "track": 1
    },
    {
      "pitch": 52,
      "start_beat": 2.25,
      "duration_beat": 0.2354166666666666,
      "velocity": 33,
      "track": 1
    },
    {
      "pitch": 52,
      "start_beat": 2.25,
      "duration_beat": 0.2354166666666666,
      "velocity": 43,
      "track": 1
    },
    {
      "pitch": 56,
      "start_beat": 2.25,
      "duration_beat": 0.2354166666666666,
      "velocity": 43,
      "track": 1
    },
    {
      "pitch": 59,
      "start_beat": 2.25,
      "duration_beat": 0.2354166666666666,
      "velocity": 43,
      "track": 1
    },
    {
      "pitch": 52,
      "start_beat": 2.25,
      "duration_beat": 0.1177083333333333,
      "velocity": 33,
      "track": 1
    },
    {
      "pitch": 52,
      "start_beat": 2.25,
      "duration_beat": 0.125,
      "velocity": 13,
      "track": 1
    },
    {
      "pitch": 59,
      "start_beat": 2.375,
      "duration_beat": 0.1177083333333333,
      "velocity": 33,
      "track": 1
    },
    {
      "pitch": 64,
      "start_beat": 2.5,
      "duration_beat": 0.1177083333333333,
      "velocity": 33,
      "track": 1
    },
    {
      "pitch": 57,
      "start_beat": 2.5,
      "duration_beat": 0.2354166666666666,
      "velocity": 33,
      "track": 1
    },
    {
      "pitch": 57,
      "start_beat": 2.5,
      "duration_beat": 0.2354166666666666,
      "velocity": 43,
      "track": 1
    },
    {
      "pitch": 61,
      "start_beat": 2.5,
      "duration_beat": 0.2354166666666666,
      "velocity": 43,
      "track": 1
    },
    {
      "pitch": 64,
      "start_beat": 2.5,
      "duration_beat": 0.2354166666666666,
      "velocity": 43,
      "track": 1
    },
    {
      "pitch": 57,
      "start_beat": 2.5,
      "duration_beat": 0.1177083333333333,
      "velocity": 33,
      "track": 1
    },
    {
      "pitch": 57,
      "start_beat": 2.5,
      "duration_beat": 0.125,
      "velocity": 13,
      "track": 1
    },
    {
      "pitch": 64,
      "start_beat": 2.625,
      "duration_beat": 0.1177083333333333,
      "velocity": 33,
      "track": 1
    },
    {
      "pitch": 69,
      "start_beat": 2.75,
      "duration_beat": 0.1177083333333333,
      "velocity": 33,
      "track": 1
    },
    {
      "pitch": 60,
      "start_beat": 2.75,
      "duration_beat": 0.2354166666666666,
      "velocity": 33,
      "track": 0
    },
    {
      "pitch": 60,
      "start_beat": 2.75,
      "duration_beat": 0.2354166666666666,
      "velocity": 43,
      "track": 0
    },
    {
      "pitch": 64,
      "start_beat": 2.75,
      "duration_beat": 0.2354166666666666,
      "velocity": 43,
      "track": 0
    },
    {
      "pitch": 67,
      "start_beat": 2.75,
      "duration_beat": 0.2354166666666666,
      "velocity": 43,
      "track": 0
    },
    {
      "pitch": 60,
      "start_beat": 2.75,
      "duration_beat": 0.1177083333333333,
      "velocity": 33,
      "track": 0
    },
    {
      "pitch": 60,
      "start_beat": 2.75,
      "duration_beat": 0.125,
      "velocity": 13,
      "track": 0
    },
    {
      "pitch": 67,
      "start_beat": 2.875,
      "duration_beat": 0.1177083333333333,
      "velocity": 33,
      "track": 0
    },
    {
      "pitch": 72,
      "start_beat": 3.0,
      "duration_beat": 0.1177083333333333,
      "velocity": 33,
      "track": 0
    },
    {
      "pitch": 64,
      "start_beat": 3.0,
      "duration_beat": 0.2354166666666666,
      "velocity": 33,
      "track": 0
    },
    {
      "pitch": 64,
      "start_beat": 3.0,
      "duration_beat": 0.2354166666666666,
      "velocity": 43,
      "track": 0
    },
    {
      "pitch": 68,
      "start_beat": 3.0,
      "duration_beat": 0.2354166666666666,
      "velocity": 43,
      "track": 0
    },
    {
      "pitch": 71,
      "start_beat": 3.0,
      "duration_beat": 0.2354166666666666,
      "velocity": 43,
      "track": 0
    },
    {
      "pitch": 64,
      "start_beat": 3.0,
      "duration_beat": 0.1177083333333333,
      "velocity": 33,
      "track": 0
    },
    {
      "pitch": 64,
      "start_beat": 3.0,
      "duration_beat": 0.125,
      "velocity": 13,
      "track": 0
    },
    {
      "pitch": 71,
      "start_beat": 3.125,
      "duration_beat": 0.1177083333333333,
      "velocity": 33,
      "track": 0
    },
    {
      "pitch": 76,
      "start_beat": 3.25,
      "duration_beat": 0.1177083333333333,
      "velocity": 33,
      "track": 0
    },
    {
      "pitch": 69,
      "start_beat": 3.25,
      "duration_beat": 0.2354166666666666,
      "velocity": 33,
      "track": 0
    },
    {
      "pitch": 69,
      "start_beat": 3.25,
      "duration_beat": 0.2354166666666666,
      "velocity": 43,
      "track": 0
    },
    {
      "pitch": 73,
      "start_beat": 3.25,
      "duration_beat": 0.2354166666666666,
      "velocity": 43,
      "track": 0
    },
    {
      "pitch": 76,
      "start_beat": 3.25,
      "duration_beat": 0.2354166666666666,
      "velocity": 43,
      "track": 0
    },
    {
      "pitch": 69,
      "start_beat": 3.25,
      "duration_beat": 0.1177083333333333,
      "velocity": 33,
      "track": 0
    },
    {
      "pitch": 69,
      "start_beat": 3.25,
      "duration_beat": 0.125,
      "velocity": 13,
      "track": 0
    },
    {
      "pitch": 76,
      "start_beat": 3.375,
      "duration_beat": 0.1177083333333333,
      "velocity": 33,
      "track": 0
    },
    {
      "pitch": 81,
      "start_beat": 3.5,
      "duration_beat": 0.1177083333333333,
      "velocity": 33,
      "track": 0
    },
    {
      "pitch": 71,
      "start_beat": 3.5,
      "duration_beat": 0.4729166666666669,
      "velocity": 33,
      "track": 0
    },
    {
      "pitch": 71,
      "start_beat": 3.5,
      "duration_beat": 0.4729166666666669,
      "velocity": 43,
      "track": 0
    },
    {
      "pitch": 75,
      "start_beat": 3.5,
      "duration_beat": 0.4729166666666669,
      "velocity": 43,
      "track": 0
    },
    {
      "pitch": 78,
      "start_beat": 3.5,
      "duration_beat": 0.4729166666666669,
      "velocity": 43,
      "track": 0
    },
    {
      "pitch": 71,
      "start_beat": 3.5,
      "duration_beat": 0.23645833333333344,
      "velocity": 33,
      "track": 0
    },
    {
      "pitch": 71,
      "start_beat": 3.5,
      "duration_beat": 0.125,
      "velocity": 13,
      "track": 0
    },
    {
      "pitch": 40,
      "start_beat": 3.5,
      "duration_beat": 0.2354166666666666,
      "velocity": 33,
      "track": 1
    },
    {
      "pitch": 40,
      "start_beat": 3.5,
      "duration_beat": 0.2354166666666666,
      "velocity": 43,
      "track": 1
    },
    {
      "pitch": 44,
      "start_beat": 3.5,
      "duration_beat": 0.2354166666666666,
      "velocity": 43,
      "track": 1
    },
    {
      "pitch": 47,
      "start_beat": 3.5,
      "duration_beat": 0.2354166666666666,
      "velocity": 43,
      "track": 1
    },
    {
      "pitch": 40,
      "start_beat": 3.5,
      "duration_beat": 0.1177083333333333,
      "velocity": 33,
      "track": 1
    },
    {
      "pitch": 40,
      "start_beat": 3.5,
      "duration_beat": 0.125,
      "velocity": 13,
      "track": 1
    },
    {
      "pitch": 78,
      "start_beat": 3.625,
      "duration_beat": 0.23645833333333344,
      "velocity": 33,
      "track": 0
    },
    {
      "pitch": 47,
      "start_beat": 3.625,
      "duration_beat": 0.1177083333333333,
      "velocity": 33,
      "track": 1
    },
    {
      "pitch": 83,
      "start_beat": 3.75,
      "duration_beat": 0.23645833333333344,
      "velocity": 33,
      "track": 0
    },
    {
      "pitch": 71,
      "start_beat": 3.75,
      "duration_beat": 0.125,
      "velocity": 13,
      "track": 0
    },
    {
      "pitch": 52,
      "start_beat": 3.75,
      "duration_beat": 0.1177083333333333,
      "velocity": 33,
      "track": 1
    },
    {
      "pitch": 52,
      "start_beat": 3.75,
      "duration_beat": 0.2354166666666666,
      "velocity": 33,
      "track": 1
    },
    {
      "pitch": 52,
      "start_beat": 3.75,
      "duration_beat": 0.2354166666666666,
      "velocity": 43,
      "track": 1
    },
    {
      "pitch": 56,
      "start_beat": 3.75,
      "duration_beat": 0.2354166666666666,
      "velocity": 43,
      "track": 1
    },
    {
      "pitch": 59,
      "start_beat": 3.75,
      "duration_beat": 0.2354166666666666,
      "velocity": 43,
      "track": 1
    },
    {
      "pitch": 52,
      "start_beat": 3.75,
      "duration_beat": 0.1177083333333333,
      "velocity": 33,
      "track": 1
    },
    {
      "pitch": 52,
      "start_beat": 3.75,
      "duration_beat": 0.125,
      "velocity": 13,
      "track": 1
    },
    {
      "pitch": 59,
      "start_beat": 3.875,
      "duration_beat": 0.1177083333333333,
      "velocity": 33,
      "track": 1
    },
    {
      "pitch": 64,
      "start_beat": 4.0,
      "duration_beat": 0.1177083333333333,
      "velocity": 33,
      "track": 1
    },
    {
      "pitch": 56,
      "start_beat": 4.0,
      "duration_beat": 0.2354166666666666,
      "velocity": 33,
      "track": 1
    },
    {
      "pitch": 56,
      "start_beat": 4.0,
      "duration_beat": 0.2354166666666666,
      "velocity": 43,
      "track": 1
    },
    {
      "pitch": 60,
      "start_beat": 4.0,
      "duration_beat": 0.2354166666666666,
      "velocity": 43,
      "track": 1
    },
    {
      "pitch": 63,
      "start_beat": 4.0,
      "duration_beat": 0.2354166666666666,
      "velocity": 43,
      "track": 1
    },
    {
      "pitch": 56,
      "start_beat": 4.0,
      "duration_beat": 0.1177083333333333,
      "velocity": 33,
      "track": 1
    },
    {
      "pitch": 56,
      "start_beat": 4.0,
      "duration_beat": 0.125,
      "velocity": 13,
      "track": 1
    },
    {
      "pitch": 63,
      "start_beat": 4.125,
      "duration_beat": 0.1177083333333333,
      "velocity": 33,
      "track": 1
    },
    {
      "pitch": 68,
      "start_beat": 4.25,
      "duration_beat": 0.1177083333333333,
      "velocity": 33,
      "track": 1
    },
    {
      "pitch": 64,
      "start_beat": 4.25,
      "duration_beat": 0.2354166666666666,
      "velocity": 33,
      "track": 0
    },
    {
      "pitch": 64,
      "start_beat": 4.25,
      "duration_beat": 0.2354166666666666,
      "velocity": 43,
      "track": 0
    },
    {
      "pitch": 68,
      "start_beat": 4.25,
      "duration_beat": 0.2354166666666666,
      "velocity": 43,
      "track": 0
    },
    {
      "pitch": 71,
      "start_beat": 4.25,
      "duration_beat": 0.2354166666666666,
      "velocity": 43,
      "track": 0
    },
    {
      "pitch": 64,
      "start_beat": 4.25,
      "duration_beat": 0.1177083333333333,
      "velocity": 33,
      "track": 0
    },
    {
      "pitch": 64,
      "start_beat": 4.25,
      "duration_beat": 0.125,
      "velocity": 13,
      "track": 0
    },
    {
      "pitch": 71,
      "start_beat": 4.375,
      "duration_beat": 0.1177083333333333,
      "velocity": 33,
      "track": 0
    },
    {
      "pitch": 76,
      "start_beat": 4.5,
      "duration_beat": 0.1177083333333333,
      "velocity": 33,
      "track": 0
    },
    {
      "pitch": 68,
      "start_beat": 4.5,
      "duration_beat": 0.2354166666666666,
      "velocity": 33,
      "track": 0
    },
    {
      "pitch": 68,
      "start_beat": 4.5,
      "duration_beat": 0.2354166666666666,
      "velocity": 43,
      "track": 0
    },
    {
      "pitch": 72,
      "start_beat": 4.5,
      "duration_beat": 0.2354166666666666,
      "velocity": 43,
      "track": 0
    },
    {
      "pitch": 75,
      "start_beat": 4.5,
      "duration_beat": 0.2354166666666666,
      "velocity": 43,
      "track": 0
    },
    {
      "pitch": 68,
      "start_beat": 4.5,
      "duration_beat": 0.1177083333333333,
      "velocity": 33,
      "track": 0
    },
    {
      "pitch": 68,
      "start_beat": 4.5,
      "duration_beat": 0.125,
      "velocity": 13,
      "track": 0
    },
    {
      "pitch": 75,
      "start_beat": 4.625,
      "duration_beat": 0.1177083333333333,
      "velocity": 33,
      "track": 0
    },
    {
      "pitch": 80,
      "start_beat": 4.75,
      "duration_beat": 0.1177083333333333,
      "velocity": 33,
      "track": 0
    },
    {
      "pitch": 71,
      "start_beat": 4.75,
      "duration_beat": 0.2354166666666666,
      "velocity": 33,
      "track": 0
    },
    {
      "pitch": 71,
      "start_beat": 4.75,
      "duration_beat": 0.2354166666666666,
      "velocity": 43,
      "track": 0
    },
    {
      "pitch": 75,
      "start_beat": 4.75,
      "duration_beat": 0.2354166666666666,
      "velocity": 43,
      "track": 0
    },
    {
      "pitch": 78,
      "start_beat": 4.75,
      "duration_beat": 0.2354166666666666,
      "velocity": 43,
      "track": 0
    },
    {
      "pitch": 71,
      "start_beat": 4.75,
      "duration_beat": 0.1177083333333333,
      "velocity": 33,
      "track": 0
    },
    {
      "pitch": 71,
      "start_beat": 4.75,
      "duration_beat": 0.125,
      "velocity": 13,
      "track": 0
    },
    {
      "pitch": 78,
      "start_beat": 4.875,
      "duration_beat": 0.1177083333333333,
      "velocity": 33,
      "track": 0
    },
    {
      "pitch": 83,
      "start_beat": 5.0,
      "duration_beat": 0.1177083333333333,
      "velocity": 33,
      "track": 0
    },
    {
      "pitch": 72,
      "start_beat": 5.0,
      "duration_beat": 0.47291666666666643,
      "velocity": 33,
      "track": 0
    },
    {
      "pitch": 72,
      "start_beat": 5.0,
      "duration_beat": 0.47291666666666643,
      "velocity": 43,
      "track": 0
    },
    {
      "pitch": 76,
      "start_beat": 5.0,
      "duration_beat": 0.47291666666666643,
      "velocity": 43,
      "track": 0
    },
    {
      "pitch": 79,
      "start_beat": 5.0,
      "duration_beat": 0.47291666666666643,
      "velocity": 43,
      "track": 0
    },
    {
      "pitch": 72,
      "start_beat": 5.0,
      "duration_beat": 0.23645833333333321,
      "velocity": 33,
      "track": 0
    },
    {
      "pitch": 72,
      "start_beat": 5.0,
      "duration_beat": 0.125,
      "velocity": 13,
      "track": 0
    },
    {
      "pitch": 45,
      "start_beat": 5.0,
      "duration_beat": 0.2354166666666666,
      "velocity": 33,
      "track": 1
    },
    {
      "pitch": 45,
      "start_beat": 5.0,
      "duration_beat": 0.2354166666666666,
      "velocity": 43,
      "track": 1
    },
    {
      "pitch": 49,
      "start_beat": 5.0,
      "duration_beat": 0.2354166666666666,
      "velocity": 43,
      "track": 1
    },
    {
      "pitch": 52,
      "start_beat": 5.0,
      "duration_beat": 0.2354166666666666,
      "velocity": 43,
      "track": 1
    },
    {
      "pitch": 45,
      "start_beat": 5.0,
      "duration_beat": 0.1177083333333333,
      "velocity": 33,
      "track": 1
    },
    {
      "pitch": 45,
      "start_beat": 5.0,
      "duration_beat": 0.125,
      "velocity": 13,
      "track": 1
    },
    {
      "pitch": 79,
      "start_beat": 5.125,
      "duration_beat": 0.23645833333333321,
      "velocity": 33,
      "track": 0
    },
    {
      "pitch": 52,
      "start_beat": 5.125,
      "duration_beat": 0.1177083333333333,
      "velocity": 33,
      "track": 1
    },
    {
      "pitch": 84,
      "start_beat": 5.25,
      "duration_beat": 0.23645833333333321,
      "velocity": 33,
      "track": 0
    },
    {
      "pitch": 72,
      "start_beat": 5.25,
      "duration_beat": 0.125,
      "velocity": 13,
      "track": 0
    },
    {
      "pitch": 57,
      "start_beat": 5.25,
      "duration_beat": 0.1177083333333333,
      "velocity": 33,
      "track": 1
    },
    {
      "pitch": 52,
      "start_beat": 5.25,
      "duration_beat": 0.2354166666666666,
      "velocity": 33,
      "track": 1
    },
    {
      "pitch": 52,
      "start_beat": 5.25,
      "duration_beat": 0.2354166666666666,
      "velocity": 43,
      "track": 1
    },
    {
      "pitch": 56,
      "start_beat": 5.25,
      "duration_beat": 0.2354166666666666,
      "velocity": 43,
      "track": 1
    },
    {
      "pitch": 59,
      "start_beat": 5.25,
      "duration_beat": 0.2354166666666666,
      "velocity": 43,
      "track": 1
    },
    {
      "pitch": 52,
      "start_beat": 5.25,
      "duration_beat": 0.1177083333333333,
      "velocity": 33,
      "track": 1
    },
    {
      "pitch": 52,
      "start_beat": 5.25,
      "duration_beat": 0.125,
      "velocity": 13,
      "track": 1
    },
    {
      "pitch": 59,
      "start_beat": 5.375,
      "duration_beat": 0.1177083333333333,
      "velocity": 33,
      "track": 1
    },
    {
      "pitch": 64,
      "start_beat": 5.5,
      "duration_beat": 0.1177083333333333,
      "velocity": 33,
      "track": 1
    },
    {
      "pitch": 57,
      "start_beat": 5.5,
      "duration_beat": 0.2354166666666666,
      "velocity": 33,
      "track": 1
    },
    {
      "pitch": 57,
      "start_beat": 5.5,
      "duration_beat": 0.2354166666666666,
      "velocity": 43,
      "track": 1
    },
    {
      "pitch": 61,
      "start_beat": 5.5,
      "duration_beat": 0.2354166666666666,
      "velocity": 43,
      "track": 1
    },
    {
      "pitch": 64,
      "start_beat": 5.5,
      "duration_beat": 0.2354166666666666,
      "velocity": 43,
      "track": 1
    },
    {
      "pitch": 57,
      "start_beat": 5.5,
      "duration_beat": 0.1177083333333333,
      "velocity": 33,
      "track": 1
    },
    {
      "pitch": 57,
      "start_beat": 5.5,
      "duration_beat": 0.125,
      "velocity": 13,
      "track": 1
    },
    {
      "pitch": 64,
      "start_beat": 5.625,
      "duration_beat": 0.1177083333333333,
      "velocity": 33,
      "track": 1
    },
    {
      "pitch": 69,
      "start_beat": 5.75,
      "duration_beat": 0.1177083333333333,
      "velocity": 33,
      "track": 1
    },
    {
      "pitch": 64,
      "start_beat": 5.75,
      "duration_beat": 0.2354166666666666,
      "velocity": 33,
      "track": 0
    },
    {
      "pitch": 64,
      "start_beat": 5.75,
      "duration_beat": 0.2354166666666666,
      "velocity": 43,
      "track": 0
    },
    {
      "pitch": 68,
      "start_beat": 5.75,
      "duration_beat": 0.2354166666666666,
      "velocity": 43,
      "track": 0
    },
    {
      "pitch": 71,
      "start_beat": 5.75,
      "duration_beat": 0.2354166666666666,
      "velocity": 43,
      "track": 0
    },
    {
      "pitch": 64,
      "start_beat": 5.75,
      "duration_beat": 0.1177083333333333,
      "velocity": 33,
      "track": 0
    },
    {
      "pitch": 64,
      "start_beat": 5.75,
      "duration_beat": 0.125,
      "velocity": 13,
      "track": 0
    },
    {
      "pitch": 71,
      "start_beat": 5.875,
      "duration_beat": 0.1177083333333333,
      "velocity": 33,
      "track": 0
    },
    {
      "pitch": 76,
      "start_beat": 6.0,
      "duration_beat": 0.1177083333333333,
      "velocity": 33,
      "track": 0
    },
    {
      "pitch": 76,
      "start_beat": 6.0,
      "duration_beat": 0.2354166666666666,
      "velocity": 33,
      "track": 0
    },
    {
      "pitch": 76,
      "start_beat": 6.0,
      "duration_beat": 0.2354166666666666,
      "velocity": 43,
      "track": 0
    },
    {
      "pitch": 80,
      "start_beat": 6.0,
      "duration_beat": 0.2354166666666666,
      "velocity": 43,
      "track": 0
    },
    {
      "pitch": 83,
      "start_beat": 6.0,
      "duration_beat": 0.2354166666666666,
      "velocity": 43,
      "track": 0
    },
    {
      "pitch": 76,
      "start_beat": 6.0,
      "duration_beat": 0.1177083333333333,
      "velocity": 33,
      "track": 0
    },
    {
      "pitch": 76,
      "start_beat": 6.0,
      "duration_beat": 0.125,
      "velocity": 13,
      "track": 0
    },
    {
      "pitch": 83,
      "start_beat": 6.125,
      "duration_beat": 0.1177083333333333,
      "velocity": 33,
      "track": 0
    },
    {
      "pitch": 88,
      "start_beat": 6.25,
      "duration_beat": 0.1177083333333333,
      "velocity": 33,
      "track": 0
    },
    {
      "pitch": 75,
      "start_beat": 6.25,
      "duration_beat": 0.2354166666666666,
      "velocity": 33,
      "track": 0
    },
    {
      "pitch": 75,
      "start_beat": 6.25,
      "duration_beat": 0.2354166666666666,
      "velocity": 43,
      "track": 0
    },
    {
      "pitch": 79,
      "start_beat": 6.25,
      "duration_beat": 0.2354166666666666,
      "velocity": 43,
      "track": 0
    },
    {
      "pitch": 82,
      "start_beat": 6.25,
      "duration_beat": 0.2354166666666666,
      "velocity": 43,
      "track": 0
    },
    {
      "pitch": 75,
      "start_beat": 6.25,
      "duration_beat": 0.1177083333333333,
      "velocity": 33,
      "track": 0
    },
    {
      "pitch": 75,
      "start_beat": 6.25,
      "duration_beat": 0.125,
      "velocity": 13,
      "track": 0
    },
    {
      "pitch": 82,
      "start_beat": 6.375,
      "duration_beat": 0.1177083333333333,
      "velocity": 33,
      "track": 0
    },
    {
      "pitch": 87,
      "start_beat": 6.5,
      "duration_beat": 0.1177083333333333,
      "velocity": 33,
      "track": 0
    },
    {
      "pitch": 76,
      "start_beat": 6.5,
      "duration_beat": 0.2354166666666666,
      "velocity": 33,
      "track": 0
    },
    {
      "pitch": 76,
      "start_beat": 6.5,
      "duration_beat": 0.2354166666666666,
      "velocity": 43,
      "track": 0
    },
    {
      "pitch": 80,
      "start_beat": 6.5,
      "duration_beat": 0.2354166666666666,
      "velocity": 43,
      "track": 0
    },
    {
      "pitch": 83,
      "start_beat": 6.5,
      "duration_beat": 0.2354166666666666,
      "velocity": 43,
      "track": 0
    },
    {
      "pitch": 76,
      "start_beat": 6.5,
      "duration_beat": 0.1177083333333333,
      "velocity": 33,
      "track": 0
    },
    {
      "pitch": 76,
      "start_beat": 6.5,
      "duration_beat": 0.125,
      "velocity": 13,
      "track": 0
    },
    {
      "pitch": 83,
      "start_beat": 6.625,
      "duration_beat": 0.1177083333333333,
      "velocity": 33,
      "track": 0
    },
    {
      "pitch": 88,
      "start_beat": 6.75,
      "duration_beat": 0.1177083333333333,
      "velocity": 33,
      "track": 0
    },
    {
      "pitch": 75,
      "start_beat": 6.75,
      "duration_beat": 0.2354166666666666,
      "velocity": 33,
      "track": 0
    },
    {
      "pitch": 75,
      "start_beat": 6.75,
      "duration_beat": 0.2354166666666666,
      "velocity": 43,
      "track": 0
    },
    {
      "pitch": 79,
      "start_beat": 6.75,
      "duration_beat": 0.2354166666666666,
      "velocity": 43,
      "track": 0
    },
    {
      "pitch": 82,
      "start_beat": 6.75,
      "duration_beat": 0.2354166666666666,
      "velocity": 43,
      "track": 0
    },
    {
      "pitch": 75,
      "start_beat": 6.75,
      "duration_beat": 0.1177083333333333,
      "velocity": 33,
      "track": 0
    },
    {
      "pitch": 75,
      "start_beat": 6.75,
      "duration_beat": 0.125,
      "velocity": 13,
      "track": 0
    },
    {
      "pitch": 82,
      "start_beat": 6.875,
      "duration_beat": 0.1177083333333333,
      "velocity": 33,
      "track": 0
    },
    {
      "pitch": 87,
      "start_beat": 7.0,
      "duration_beat": 0.1177083333333333,
      "velocity": 33,
      "track": 0
    },
    {
      "pitch": 76,
      "start_beat": 7.0,
      "duration_beat": 0.2354166666666666,
      "velocity": 33,
      "track": 0
    },
    {
      "pitch": 76,
      "start_beat": 7.0,
      "duration_beat": 0.2354166666666666,
      "velocity": 43,
      "track": 0
    },
    {
      "pitch": 80,
      "start_beat": 7.0,
      "duration_beat": 0.2354166666666666,
      "velocity": 43,
      "track": 0
    },
    {
      "pitch": 83,
      "start_beat": 7.0,
      "duration_beat": 0.2354166666666666,
      "velocity": 43,
      "track": 0
    },
    {
      "pitch": 76,
      "start_beat": 7.0,
      "duration_beat": 0.1177083333333333,
      "velocity": 33,
      "track": 0
    },
    {
      "pitch": 76,
      "start_beat": 7.0,
      "duration_beat": 0.125,
      "velocity": 13,
      "track": 0
    },
    {
      "pitch": 83,
      "start_beat": 7.125,
      "duration_beat": 0.1177083333333333,
      "velocity": 33,
      "track": 0
    },
    {
      "pitch": 88,
      "start_beat": 7.25,
      "duration_beat": 0.1177083333333333,
      "velocity": 33,
      "track": 0
    },
    {
      "pitch": 71,
      "start_beat": 7.25,
      "duration_beat": 0.2354166666666666,
      "velocity": 33,
      "track": 0
    },
    {
      "pitch": 71,
      "start_beat": 7.25,
      "duration_beat": 0.2354166666666666,
      "velocity": 43,
      "track": 0
    },
    {
      "pitch": 75,
      "start_beat": 7.25,
      "duration_beat": 0.2354166666666666,
      "velocity": 43,
      "track": 0
    },
    {
      "pitch": 78,
      "start_beat": 7.25,
      "duration_beat": 0.2354166666666666,
      "velocity": 43,
      "track": 0
    },
    {
      "pitch": 71,
      "start_beat": 7.25,
      "duration_beat": 0.1177083333333333,
      "velocity": 33,
      "track": 0
    },
    {
      "pitch": 71,
      "start_beat": 7.25,
      "duration_beat": 0.125,
      "velocity": 13,
      "track": 0
    },
    {
      "pitch": 78,
      "start_beat": 7.375,
      "duration_beat": 0.1177083333333333,
      "velocity": 33,
      "track": 0
    },
    {
      "pitch": 83,
      "start_beat": 7.5,
      "duration_beat": 0.1177083333333333,
      "velocity": 33,
      "track": 0
    },
    {
      "pitch": 74,
      "start_beat": 7.5,
      "duration_beat": 0.2354166666666666,
      "velocity": 33,
      "track": 0
    },
    {
      "pitch": 74,
      "start_beat": 7.5,
      "duration_beat": 0.2354166666666666,
      "velocity": 43,
      "track": 0
    },
    {
      "pitch": 78,
      "start_beat": 7.5,
      "duration_beat": 0.2354166666666666,
      "velocity": 43,
      "track": 0
    },
    {
      "pitch": 81,
      "start_beat": 7.5,
      "duration_beat": 0.2354166666666666,
      "velocity": 43,
      "track": 0
    },
    {
      "pitch": 74,
      "start_beat": 7.5,
      "duration_beat": 0.1177083333333333,
      "velocity": 33,
      "track": 0
    },
    {
      "pitch": 74,
      "start_beat": 7.5,
      "duration_beat": 0.125,
      "velocity": 13,
      "track": 0
    },
    {
      "pitch": 81,
      "start_beat": 7.625,
      "duration_beat": 0.1177083333333333,
      "velocity": 33,
      "track": 0
    },
    {
      "pitch": 86,
      "start_beat": 7.75,
      "duration_beat": 0.1177083333333333,
      "velocity": 33,
      "track": 0
    },
    {
      "pitch": 72,
      "start_beat": 7.75,
      "duration_beat": 0.2354166666666666,
      "velocity": 33,
      "track": 0
    },
    {
      "pitch": 72,
      "start_beat": 7.75,
      "duration_beat": 0.2354166666666666,
      "velocity": 43,
      "track": 0
    },
    {
      "pitch": 76,
      "start_beat": 7.75,
      "duration_beat": 0.2354166666666666,
      "velocity": 43,
      "track": 0
    },
    {
      "pitch": 79,
      "start_beat": 7.75,
      "duration_beat": 0.2354166666666666,
      "velocity": 43,
      "track": 0
    },
    {
      "pitch": 72,
      "start_beat": 7.75,
      "duration_beat": 0.1177083333333333,
      "velocity": 33,
      "track": 0
    },
    {
      "pitch": 72,
      "start_beat": 7.75,
      "duration_beat": 0.125,
      "velocity": 13,
      "track": 0
    },
    {
      "pitch": 79,
      "start_beat": 7.875,
      "duration_beat": 0.1177083333333333,
      "velocity": 33,
      "track": 0
    },
    {
      "pitch": 84,
      "start_beat": 8.0,
      "duration_beat": 0.1177083333333333,
      "velocity": 33,
      "track": 0
    },
    {
      "pitch": 69,
      "start_beat": 8.0,
      "duration_beat": 0.47291666666666643,
      "velocity": 33,
      "track": 0
    },
    {
      "pitch": 69,
      "start_beat": 8.0,
      "duration_beat": 0.47291666666666643,
      "velocity": 43,
      "track": 0
    },
    {
      "pitch": 73,
      "start_beat": 8.0,
      "duration_beat": 0.47291666666666643,
      "velocity": 43,
      "track": 0
    },
    {
      "pitch": 76,
      "start_beat": 8.0,
      "duration_beat": 0.47291666666666643,
      "velocity": 43,
      "track": 0
    },
    {
      "pitch": 69,
      "start_beat": 8.0,
      "duration_beat": 0.23645833333333321,
      "velocity": 33,
      "track": 0
    },
    {
      "pitch": 69,
      "start_beat": 8.0,
      "duration_beat": 0.125,
      "velocity": 13,
      "track": 0
    },
    {
      "pitch": 45,
      "start_beat": 8.0,
      "duration_beat": 0.2354166666666675,
      "velocity": 33,
      "track": 1
    },
    {
      "pitch": 45,
      "start_beat": 8.0,
      "duration_beat": 0.2354166666666675,
      "velocity": 43,
      "track": 1
    },
    {
      "pitch": 49,
      "start_beat": 8.0,
      "duration_beat": 0.2354166666666675,
      "velocity": 43,
      "track": 1
    },
    {
      "pitch": 52,
      "start_beat": 8.0,
      "duration_beat": 0.2354166666666675,
      "velocity": 43,
      "track": 1
    },
    {
      "pitch": 45,
      "start_beat": 8.0,
      "duration_beat": 0.11770833333333375,
      "velocity": 33,
      "track": 1
    },
    {
      "pitch": 45,
      "start_beat": 8.0,
      "duration_beat": 0.125,
      "velocity": 13,
      "track": 1
    },
    {
      "pitch": 76,
      "start_beat": 8.125,
      "duration_beat": 0.23645833333333321,
      "velocity": 33,
      "track": 0
    },
    {
      "pitch": 52,
      "start_beat": 8.125,
      "duration_beat": 0.11770833333333375,
      "velocity": 33,
      "track": 1
    },
    {
      "pitch": 81,
      "start_beat": 8.25,
      "duration_beat": 0.23645833333333321,
      "velocity": 33,
      "track": 0
    },
    {
      "pitch": 69,
      "start_beat": 8.25,
      "duration_beat": 0.125,
      "velocity": 13,
      "track": 0
    },
    {
      "pitch": 57,
      "start_beat": 8.25,
      "duration_beat": 0.11770833333333375,
      "velocity": 33,
      "track": 1
    },
    {
      "pitch": 52,
      "start_beat": 8.25,
      "duration_beat": 0.2354166666666675,
      "velocity": 33,
      "track": 1
    },
    {
      "pitch": 52,
      "start_beat": 8.25,
      "duration_beat": 0.2354166666666675,
      "velocity": 43,
      "track": 1
    },
    {
      "pitch": 56,
      "start_beat": 8.25,
      "duration_beat": 0.2354166666666675,
      "velocity": 43,
      "track": 1
    },
    {
      "pitch": 59,
      "start_beat": 8.25,
      "duration_beat": 0.2354166666666675,
      "velocity": 43,
      "track": 1
    },
    {
      "pitch": 52,
      "start_beat": 8.25,
      "duration_beat": 0.11770833333333375,
      "velocity": 33,
      "track": 1
    },
    {
      "pitch": 52,
      "start_beat": 8.25,
      "duration_beat": 0.125,
      "velocity": 13,
      "track": 1
    },
    {
      "pitch": 59,
      "start_beat": 8.375,
      "duration_beat": 0.11770833333333375,
      "velocity": 33,
      "track": 1
    },
    {
      "pitch": 64,
      "start_beat": 8.5,
      "duration_beat": 0.11770833333333375,
      "velocity": 33,
      "track": 1
    },
    {
      "pitch": 57,
      "start_beat": 8.5,
      "duration_beat": 0.2354166666666675,
      "velocity": 33,
      "track": 1
    },
    {
      "pitch": 57,
      "start_beat": 8.5,
      "duration_beat": 0.2354166666666675,
      "velocity": 43,
      "track": 1
    },
    {
      "pitch": 61,
      "start_beat": 8.5,
      "duration_beat": 0.2354166666666675,
      "velocity": 43,
      "track": 1
    },
    {
      "pitch": 64,
      "start_beat": 8.5,
      "duration_beat": 0.2354166666666675,
      "velocity": 43,
      "track": 1
    },
    {
      "pitch": 57,
      "start_beat": 8.5,
      "duration_beat": 0.11770833333333375,
      "velocity": 33,
      "track": 1
    },
    {
      "pitch": 57,
      "start_beat": 8.5,
      "duration_beat": 0.125,
      "velocity": 13,
      "track": 1
    },
    {
      "pitch": 64,
      "start_beat": 8.625,
      "duration_beat": 0.11770833333333375,
      "velocity": 33,
      "track": 1
    },
    {
      "pitch": 69,
      "start_beat": 8.75,
      "duration_beat": 0.11770833333333375,
      "velocity": 33,
      "track": 1
    },
    {
      "pitch": 60,
      "start_beat": 8.75,
      "duration_beat": 0.2354166666666675,
      "velocity": 33,
      "track": 0
    },
    {
      "pitch": 60,
      "start_beat": 8.75,
      "duration_beat": 0.2354166666666675,
      "velocity": 43,
      "track": 0
    },
    {
      "pitch": 64,
      "start_beat": 8.75,
      "duration_beat": 0.2354166666666675,
      "velocity": 43,
      "track": 0
    },
    {
      "pitch": 67,
      "start_beat": 8.75,
      "duration_beat": 0.2354166666666675,
      "velocity": 43,
      "track": 0
    },
    {
      "pitch": 60,
      "start_beat": 8.75,
      "duration_beat": 0.11770833333333375,
      "velocity": 33,
      "track": 0
    },
    {
      "pitch": 60,
      "start_beat": 8.75,
      "duration_beat": 0.125,
      "velocity": 13,
      "track": 0
    },
    {
      "pitch": 67,
      "start_beat": 8.875,
      "duration_beat": 0.11770833333333375,
      "velocity": 33,
      "track": 0
    },
    {
      "pitch": 72,
      "start_beat": 9.0,
      "duration_beat": 0.11770833333333375,
      "velocity": 33,
      "track": 0
    },
    {
      "pitch": 64,
      "start_beat": 9.0,
      "duration_beat": 0.2354166666666675,
      "velocity": 33,
      "track": 0
    },
    {
      "pitch": 64,
      "start_beat": 9.0,
      "duration_beat": 0.2354166666666675,
      "velocity": 43,
      "track": 0
    },
    {
      "pitch": 68,
      "start_beat": 9.0,
      "duration_beat": 0.2354166666666675,
      "velocity": 43,
      "track": 0
    },
    {
      "pitch": 71,
      "start_beat": 9.0,
      "duration_beat": 0.2354166666666675,
      "velocity": 43,
      "track": 0
    },
    {
      "pitch": 64,
      "start_beat": 9.0,
      "duration_beat": 0.11770833333333375,
      "velocity": 33,
      "track": 0
    },
    {
      "pitch": 64,
      "start_beat": 9.0,
      "duration_beat": 0.125,
      "velocity": 13,
      "track": 0
    },
    {
      "pitch": 71,
      "start_beat": 9.125,
      "duration_beat": 0.11770833333333375,
      "velocity": 33,
      "track": 0
    },
    {
      "pitch": 76,
      "start_beat": 9.25,
      "duration_beat": 0.11770833333333375,
      "velocity": 33,
      "track": 0
    },
    {
      "pitch": 69,
      "start_beat": 9.25,
      "duration_beat": 0.2354166666666675,
      "velocity": 33,
      "track": 0
    },
    {
      "pitch": 69,
      "start_beat": 9.25,
      "duration_beat": 0.2354166666666675,
      "velocity": 43,
      "track": 0
    },
    {
      "pitch": 73,
      "start_beat": 9.25,
      "duration_beat": 0.2354166666666675,
      "velocity": 43,
      "track": 0
    },
    {
      "pitch": 76,
      "start_beat": 9.25,
      "duration_beat": 0.2354166666666675,
      "velocity": 43,
      "track": 0
    },
    {
      "pitch": 69,
      "start_beat": 9.25,
      "duration_beat": 0.11770833333333375,
      "velocity": 33,
      "track": 0
    },
    {
      "pitch": 69,
      "start_beat": 9.25,
      "duration_beat": 0.125,
      "velocity": 13,
      "track": 0
    },
    {
      "pitch": 76,
      "start_beat": 9.375,
      "duration_beat": 0.11770833333333375,
      "velocity": 33,
      "track": 0
    },
    {
      "pitch": 81,
      "start_beat": 9.5,
      "duration_beat": 0.11770833333333375,
      "velocity": 33,
      "track": 0
    },
    {
      "pitch": 71,
      "start_beat": 9.5,
      "duration_beat": 0.47291666666666643,
      "velocity": 33,
      "track": 0
    },
    {
      "pitch": 71,
      "start_beat": 9.5,
      "duration_beat": 0.47291666666666643,
      "velocity": 43,
      "track": 0
    },
    {
      "pitch": 75,
      "start_beat": 9.5,
      "duration_beat": 0.47291666666666643,
      "velocity": 43,
      "track": 0
    },
    {
      "pitch": 78,
      "start_beat": 9.5,
      "duration_beat": 0.47291666666666643,
      "velocity": 43,
      "track": 0
    },
    {
      "pitch": 71,
      "start_beat": 9.5,
      "duration_beat": 0.23645833333333321,
      "velocity": 33,
      "track": 0
    },
    {
      "pitch": 71,
      "start_beat": 9.5,
      "duration_beat": 0.125,
      "velocity": 13,
      "track": 0
    },
    {
      "pitch": 40,
      "start_beat": 9.5,
      "duration_beat": 0.2354166666666675,
      "velocity": 33,
      "track": 1
    },
    {
      "pitch": 40,
      "start_beat": 9.5,
      "duration_beat": 0.2354166666666675,
      "velocity": 43,
      "track": 1
    },
    {
      "pitch": 44,
      "start_beat": 9.5,
      "duration_beat": 0.2354166666666675,
      "velocity": 43,
      "track": 1
    },
    {
      "pitch": 47,
      "start_beat": 9.5,
      "duration_beat": 0.2354166666666675,
      "velocity": 43,
      "track": 1
    },
    {
      "pitch": 40,
      "start_beat": 9.5,
      "duration_beat": 0.11770833333333375,
      "velocity": 33,
      "track": 1
    },
    {
      "pitch": 40,
      "start_beat": 9.5,
      "duration_beat": 0.125,
      "velocity": 13,
      "track": 1
    },
    {
      "pitch": 78,
      "start_beat": 9.625,
      "duration_beat": 0.23645833333333321,
      "velocity": 33,
      "track": 0
    },
    {
      "pitch": 47,
      "start_beat": 9.625,
      "duration_beat": 0.11770833333333375,
      "velocity": 33,
      "track": 1
    },
    {
      "pitch": 83,
      "start_beat": 9.75,
      "duration_beat": 0.23645833333333321,
      "velocity": 33,
      "track": 0
    },
    {
      "pitch": 71,
      "start_beat": 9.75,
      "duration_beat": 0.125,
      "velocity": 13,
      "track": 0
    },
    {
      "pitch": 52,
      "start_beat": 9.75,
      "duration_beat": 0.11770833333333375,
      "velocity": 33,
      "track": 1
    },
    {
      "pitch": 52,
      "start_beat": 9.75,
      "duration_beat": 0.2354166666666675,
      "velocity": 33,
      "track": 1
    },
    {
      "pitch": 52,
      "start_beat": 9.75,
      "duration_beat": 0.2354166666666675,
      "velocity": 43,
      "track": 1
    },
    {
      "pitch": 56,
      "start_beat": 9.75,
      "duration_beat": 0.2354166666666675,
      "velocity": 43,
      "track": 1
    },
    {
      "pitch": 59,
      "start_beat": 9.75,
      "duration_beat": 0.2354166666666675,
      "velocity": 43,
      "track": 1
    },
    {
      "pitch": 52,
      "start_beat": 9.75,
      "duration_beat": 0.11770833333333375,
      "velocity": 33,
      "track": 1
    },
    {
      "pitch": 52,
      "start_beat": 9.75,
      "duration_beat": 0.125,
      "velocity": 13,
      "track": 1
    },
    {
      "pitch": 59,
      "start_beat": 9.875,
      "duration_beat": 0.11770833333333375,
      "velocity": 33,
      "track": 1
    },
    {
      "pitch": 64,
      "start_beat": 10.0,
      "duration_beat": 0.11770833333333375,
      "velocity": 33,
      "track": 1
    },
    {
      "pitch": 56,
      "start_beat": 10.0,
      "duration_beat": 0.2354166666666675,
      "velocity": 33,
      "track": 1
    },
    {
      "pitch": 56,
      "start_beat": 10.0,
      "duration_beat": 0.2354166666666675,
      "velocity": 43,
      "track": 1
    },
    {
      "pitch": 60,
      "start_beat": 10.0,
      "duration_beat": 0.2354166666666675,
      "velocity": 43,
      "track": 1
    },
    {
      "pitch": 63,
      "start_beat": 10.0,
      "duration_beat": 0.2354166666666675,
      "velocity": 43,
      "track": 1
    },
    {
      "pitch": 56,
      "start_beat": 10.0,
      "duration_beat": 0.11770833333333375,
      "velocity": 33,
      "track": 1
    },
    {
      "pitch": 56,
      "start_beat": 10.0,
      "duration_beat": 0.125,
      "velocity": 13,
      "track": 1
    },
    {
      "pitch": 63,
      "start_beat": 10.125,
      "duration_beat": 0.11770833333333375,
      "velocity": 33,
      "track": 1
    },
    {
      "pitch": 68,
      "start_beat": 10.25,
      "duration_beat": 0.11770833333333375,
      "velocity": 33,
      "track": 1
    },
    {
      "pitch": 62,
      "start_beat": 10.25,
      "duration_beat": 0.2354166666666675,
      "velocity": 33,
      "track": 0
    },
    {
      "pitch": 62,
      "start_beat": 10.25,
      "duration_beat": 0.2354166666666675,
      "velocity": 43,
      "track": 0
    },
    {
      "pitch": 66,
      "start_beat": 10.25,
      "duration_beat": 0.2354166666666675,
      "velocity": 43,
      "track": 0
    },
    {
      "pitch": 69,
      "start_beat": 10.25,
      "duration_beat": 0.2354166666666675,
      "velocity": 43,
      "track": 0
    },
    {
      "pitch": 62,
      "start_beat": 10.25,
      "duration_beat": 0.11770833333333375,
      "velocity": 33,
      "track": 0
    },
    {
      "pitch": 62,
      "start_beat": 10.25,
      "duration_beat": 0.125,
      "velocity": 13,
      "track": 0
    },
    {
      "pitch": 69,
      "start_beat": 10.375,
      "duration_beat": 0.11770833333333375,
      "velocity": 33,
      "track": 0
    },
    {
      "pitch": 74,
      "start_beat": 10.5,
      "duration_beat": 0.11770833333333375,
      "velocity": 33,
      "track": 0
    },
    {
      "pitch": 72,
      "start_beat": 10.5,
      "duration_beat": 0.2354166666666675,
      "velocity": 33,
      "track": 0
    },
    {
      "pitch": 72,
      "start_beat": 10.5,
      "duration_beat": 0.2354166666666675,
      "velocity": 43,
      "track": 0
    },
    {
      "pitch": 76,
      "start_beat": 10.5,
      "duration_beat": 0.2354166666666675,
      "velocity": 43,
      "track": 0
    },
    {
      "pitch": 79,
      "start_beat": 10.5,
      "duration_beat": 0.2354166666666675,
      "velocity": 43,
      "track": 0
    },
    {
      "pitch": 72,
      "start_beat": 10.5,
      "duration_beat": 0.11770833333333375,
      "velocity": 33,
      "track": 0
    },
    {
      "pitch": 72,
      "start_beat": 10.5,
      "duration_beat": 0.125,
      "velocity": 13,
      "track": 0
    },
    {
      "pitch": 79,
      "start_beat": 10.625,
      "duration_beat": 0.11770833333333375,
      "velocity": 33,
      "track": 0
    },
    {
      "pitch": 84,
      "start_beat": 10.75,
      "duration_beat": 0.11770833333333375,
      "velocity": 33,
      "track": 0
    },
    {
      "pitch": 71,
      "start_beat": 10.75,
      "duration_beat": 0.2354166666666675,
      "velocity": 33,
      "track": 0
    },
    {
      "pitch": 71,
      "start_beat": 10.75,
      "duration_beat": 0.2354166666666675,
      "velocity": 43,
      "track": 0
    },
    {
      "pitch": 75,
      "start_beat": 10.75,
      "duration_beat": 0.2354166666666675,
      "velocity": 43,
      "track": 0
    },
    {
      "pitch": 78,
      "start_beat": 10.75,
      "duration_beat": 0.2354166666666675,
      "velocity": 43,
      "track": 0
    },
    {
      "pitch": 71,
      "start_beat": 10.75,
      "duration_beat": 0.11770833333333375,
      "velocity": 33,
      "track": 0
    },
    {
      "pitch": 71,
      "start_beat": 10.75,
      "duration_beat": 0.125,
      "velocity": 13,
      "track": 0
    },
    {
      "pitch": 78,
      "start_beat": 10.875,
      "duration_beat": 0.11770833333333375,
      "velocity": 33,
      "track": 0
    },
    {
      "pitch": 83,
      "start_beat": 11.0,
      "duration_beat": 0.11770833333333375,
      "velocity": 33,
      "track": 0
    },
    {
      "pitch": 69,
      "start_beat": 11.0,
      "duration_beat": 0.9479166666666661,
      "velocity": 33,
      "track": 0
    },
    {
      "pitch": 69,
      "start_beat": 11.0,
      "duration_beat": 0.9479166666666661,
      "velocity": 43,
      "track": 0
    },
    {
      "pitch": 73,
      "start_beat": 11.0,
      "duration_beat": 0.9479166666666661,
      "velocity": 43,
      "track": 0
    },
    {
      "pitch": 76,
      "start_beat": 11.0,
      "duration_beat": 0.9479166666666661,
      "velocity": 43,
      "track": 0
    },
    {
      "pitch": 69,
      "start_beat": 11.0,
      "duration_beat": 0.47395833333333304,
      "velocity": 33,
      "track": 0
    },
    {
      "pitch": 69,
      "start_beat": 11.0,
      "duration_beat": 0.125,
      "velocity": 13,
      "track": 0
    },
    {
      "pitch": 45,
      "start_beat": 11.0,
      "duration_beat": 0.2354166666666675,
      "velocity": 33,
      "track": 1
    },
    {
      "pitch": 45,
      "start_beat": 11.0,
      "duration_beat": 0.2354166666666675,
      "velocity": 43,
      "track": 1
    },
    {
      "pitch": 49,
      "start_beat": 11.0,
      "duration_beat": 0.2354166666666675,
      "velocity": 43,
      "track": 1
    },
    {
      "pitch": 52,
      "start_beat": 11.0,
      "duration_beat": 0.2354166666666675,
      "velocity": 43,
      "track": 1
    },
    {
      "pitch": 45,
      "start_beat": 11.0,
      "duration_beat": 0.11770833333333375,
      "velocity": 33,
      "track": 1
    },
    {
      "pitch": 45,
      "start_beat": 11.0,
      "duration_beat": 0.125,
      "velocity": 13,
      "track": 1
    },
    {
      "pitch": 76,
      "start_beat": 11.125,
      "duration_beat": 0.47395833333333304,
      "velocity": 33,
      "track": 0
    },
    {
      "pitch": 52,
      "start_beat": 11.125,
      "duration_beat": 0.11770833333333375,
      "velocity": 33,
      "track": 1
    },
    {
      "pitch": 81,
      "start_beat": 11.25,
      "duration_beat": 0.47395833333333304,
      "velocity": 33,
      "track": 0
    },
    {
      "pitch": 69,
      "start_beat": 11.25,
      "duration_beat": 0.125,
      "velocity": 13,
      "track": 0
    },
    {
      "pitch": 57,
      "start_beat": 11.25,
      "duration_beat": 0.11770833333333375,
      "velocity": 33,
      "track": 1
    },
    {
      "pitch": 52,
      "start_beat": 11.25,
      "duration_beat": 0.2354166666666675,
      "velocity": 33,
      "track": 1
    },
    {
      "pitch": 52,
      "start_beat": 11.25,
      "duration_beat": 0.2354166666666675,
      "velocity": 43,
      "track": 1
    },
    {
      "pitch": 56,
      "start_beat": 11.25,
      "duration_beat": 0.2354166666666675,
      "velocity": 43,
      "track": 1
    },
    {
      "pitch": 59,
      "start_beat": 11.25,
      "duration_beat": 0.2354166666666675,
      "velocity": 43,
      "track": 1
    },
    {
      "pitch": 52,
      "start_beat": 11.25,
      "duration_beat": 0.11770833333333375,
      "velocity": 33,
      "track": 1
    },
    {
      "pitch": 52,
      "start_beat": 11.25,
      "duration_beat": 0.125,
      "velocity": 13,
      "track": 1
    },
    {
      "pitch": 59,
      "start_beat": 11.375,
      "duration_beat": 0.11770833333333375,
      "velocity": 33,
      "track": 1
    },
    {
      "pitch": 69,
      "start_beat": 11.5,
      "duration_beat": 0.125,
      "velocity": 13,
      "track": 0
    },
    {
      "pitch": 64,
      "start_beat": 11.5,
      "duration_beat": 0.11770833333333375,
      "velocity": 33,
      "track": 1
    },
    {
      "pitch": 57,
      "start_beat": 11.5,
      "duration_beat": 0.2354166666666675,
      "velocity": 33,
      "track": 1
    },
    {
      "pitch": 57,
      "start_beat": 11.5,
      "duration_beat": 0.2354166666666675,
      "velocity": 43,
      "track": 1
    },
    {
      "pitch": 61,
      "start_beat": 11.5,
      "duration_beat": 0.2354166666666675,
      "velocity": 43,
      "track": 1
    },
    {
      "pitch": 64,
      "start_beat": 11.5,
      "duration_beat": 0.2354166666666675,
      "velocity": 43,
      "track": 1
    },
    {
      "pitch": 57,
      "start_beat": 11.5,
      "duration_beat": 0.11770833333333375,
      "velocity": 33,
      "track": 1
    },
    {
      "pitch": 57,
      "start_beat": 11.5,
      "duration_beat": 0.125,
      "velocity": 13,
      "track": 1
    },
    {
      "pitch": 64,
      "start_beat": 11.625,
      "duration_beat": 0.11770833333333375,
      "velocity": 33,
      "track": 1
    },
    {
      "pitch": 69,
      "start_beat": 11.75,
      "duration_beat": 0.125,
      "velocity": 13,
      "track": 0
    },
    {
      "pitch": 69,
      "start_beat": 11.75,
      "duration_beat": 0.11770833333333375,
      "velocity": 33,
      "track": 1
    },
    {
      "pitch": 76,
      "start_beat": 12.0,
      "duration_beat": 0.2354166666666675,
      "velocity": 33,
      "track": 0
    },
    {
      "pitch": 76,
      "start_beat": 12.0,
      "duration_beat": 0.2354166666666675,
      "velocity": 43,
      "track": 0
    },
    {
      "pitch": 80,
      "start_beat": 12.0,
      "duration_beat": 0.2354166666666675,
      "velocity": 43,
      "track": 0
    },
    {
      "pitch": 83,
      "start_beat": 12.0,
      "duration_beat": 0.2354166666666675,
      "velocity": 43,
      "track": 0
    },
    {
      "pitch": 76,
      "start_beat": 12.0,
      "duration_beat": 0.11770833333333375,
      "velocity": 33,
      "track": 0
    },
    {
      "pitch": 76,
      "start_beat": 12.0,
      "duration_beat": 0.125,
      "velocity": 13,
      "track": 0
    },
    {
      "pitch": 83,
      "start_beat": 12.125,
      "duration_beat": 0.11770833333333375,
      "velocity": 33,
      "track": 0
    },
    {
      "pitch": 88,
      "start_beat": 12.25,
      "duration_beat": 0.11770833333333375,
      "velocity": 33,
      "track": 0
    },
    {
      "pitch": 75,
      "start_beat": 12.25,
      "duration_beat": 0.2354166666666675,
      "velocity": 33,
      "track": 0
    },
    {
      "pitch": 75,
      "start_beat": 12.25,
      "duration_beat": 0.2354166666666675,
      "velocity": 43,
      "track": 0
    },
    {
      "pitch": 79,
      "start_beat": 12.25,
      "duration_beat": 0.2354166666666675,
      "velocity": 43,
      "track": 0
    },
    {
      "pitch": 82,
      "start_beat": 12.25,
      "duration_beat": 0.2354166666666675,
      "velocity": 43,
      "track": 0
    },
    {
      "pitch": 75,
      "start_beat": 12.25,
      "duration_beat": 0.11770833333333375,
      "velocity": 33,
      "track": 0
    },
    {
      "pitch": 75,
      "start_beat": 12.25,
      "duration_beat": 0.125,
      "velocity": 13,
      "track": 0
    },
    {
      "pitch": 82,
      "start_beat": 12.375,
      "duration_beat": 0.11770833333333375,
      "velocity": 33,
      "track": 0
    },
    {
      "pitch": 87,
      "start_beat": 12.5,
      "duration_beat": 0.11770833333333375,
      "velocity": 33,
      "track": 0
    },
    {
      "pitch": 76,
      "start_beat": 12.5,
      "duration_beat": 0.2354166666666675,
      "velocity": 33,
      "track": 0
    },
    {
      "pitch": 76,
      "start_beat": 12.5,
      "duration_beat": 0.2354166666666675,
      "velocity": 43,
      "track": 0
    },
    {
      "pitch": 80,
      "start_beat": 12.5,
      "duration_beat": 0.2354166666666675,
      "velocity": 43,
      "track": 0
    },
    {
      "pitch": 83,
      "start_beat": 12.5,
      "duration_beat": 0.2354166666666675,
      "velocity": 43,
      "track": 0
    },
    {
      "pitch": 76,
      "start_beat": 12.5,
      "duration_beat": 0.11770833333333375,
      "velocity": 33,
      "track": 0
    },
    {
      "pitch": 76,
      "start_beat": 12.5,
      "duration_beat": 0.125,
      "velocity": 13,
      "track": 0
    },
    {
      "pitch": 83,
      "start_beat": 12.625,
      "duration_beat": 0.11770833333333375,
      "velocity": 33,
      "track": 0
    },
    {
      "pitch": 88,
      "start_beat": 12.75,
      "duration_beat": 0.11770833333333375,
      "velocity": 33,
      "track": 0
    },
    {
      "pitch": 75,
      "start_beat": 12.75,
      "duration_beat": 0.2354166666666675,
      "velocity": 33,
      "track": 0
    },
    {
      "pitch": 75,
      "start_beat": 12.75,
      "duration_beat": 0.2354166666666675,
      "velocity": 43,
      "track": 0
    },
    {
      "pitch": 79,
      "start_beat": 12.75,
      "duration_beat": 0.2354166666666675,
      "velocity": 43,
      "track": 0
    },
    {
      "pitch": 82,
      "start_beat": 12.75,
      "duration_beat": 0.2354166666666675,
      "velocity": 43,
      "track": 0
    },
    {
      "pitch": 75,
      "start_beat": 12.75,
      "duration_beat": 0.11770833333333375,
      "velocity": 33,
      "track": 0
    },
    {
      "pitch": 75,
      "start_beat": 12.75,
      "duration_beat": 0.125,
      "velocity": 13,
      "track": 0
    },
    {
      "pitch": 82,
      "start_beat": 12.875,
      "duration_beat": 0.11770833333333375,
      "velocity": 33,
      "track": 0
    },
    {
      "pitch": 87,
      "start_beat": 13.0,
      "duration_beat": 0.11770833333333375,
      "velocity": 33,
      "track": 0
    },
    {
      "pitch": 76,
      "start_beat": 13.0,
      "duration_beat": 0.2354166666666675,
      "velocity": 33,
      "track": 0
    },
    {
      "pitch": 76,
      "start_beat": 13.0,
      "duration_beat": 0.2354166666666675,
      "velocity": 43,
      "track": 0
    },
    {
      "pitch": 80,
      "start_beat": 13.0,
      "duration_beat": 0.2354166666666675,
      "velocity": 43,
      "track": 0
    },
    {
      "pitch": 83,
      "start_beat": 13.0,
      "duration_beat": 0.2354166666666675,
      "velocity": 43,
      "track": 0
    },
    {
      "pitch": 76,
      "start_beat": 13.0,
      "duration_beat": 0.11770833333333375,
      "velocity": 33,
      "track": 0
    },
    {
      "pitch": 76,
      "start_beat": 13.0,
      "duration_beat": 0.125,
      "velocity": 13,
      "track": 0
    },
    {
      "pitch": 83,
      "start_beat": 13.125,
      "duration_beat": 0.11770833333333375,
      "velocity": 33,
      "track": 0
    },
    {
      "pitch": 88,
      "start_beat": 13.25,
      "duration_beat": 0.11770833333333375,
      "velocity": 33,
      "track": 0
    },
    {
      "pitch": 71,
      "start_beat": 13.25,
      "duration_beat": 0.2354166666666675,
      "velocity": 33,
      "track": 0
    },
    {
      "pitch": 71,
      "start_beat": 13.25,
      "duration_beat": 0.2354166666666675,
      "velocity": 43,
      "track": 0
    },
    {
      "pitch": 75,
      "start_beat": 13.25,
      "duration_beat": 0.2354166666666675,
      "velocity": 43,
      "track": 0
    },
    {
      "pitch": 78,
      "start_beat": 13.25,
      "duration_beat": 0.2354166666666675,
      "velocity": 43,
      "track": 0
    },
    {
      "pitch": 71,
      "start_beat": 13.25,
      "duration_beat": 0.11770833333333375,
      "velocity": 33,
      "track": 0
    },
    {
      "pitch": 71,
      "start_beat": 13.25,
      "duration_beat": 0.125,
      "velocity": 13,
      "track": 0
    },
    {
      "pitch": 78,
      "start_beat": 13.375,
      "duration_beat": 0.11770833333333375,
      "velocity": 33,
      "track": 0
    },
    {
      "pitch": 83,
      "start_beat": 13.5,
      "duration_beat": 0.11770833333333375,
      "velocity": 33,
      "track": 0
    },
    {
      "pitch": 74,
      "start_beat": 13.5,
      "duration_beat": 0.2354166666666675,
      "velocity": 33,
      "track": 0
    },
    {
      "pitch": 74,
      "start_beat": 13.5,
      "duration_beat": 0.2354166666666675,
      "velocity": 43,
      "track": 0
    },
    {
      "pitch": 78,
      "start_beat": 13.5,
      "duration_beat": 0.2354166666666675,
      "velocity": 43,
      "track": 0
    },
    {
      "pitch": 81,
      "start_beat": 13.5,
      "duration_beat": 0.2354166666666675,
      "velocity": 43,
      "track": 0
    },
    {
      "pitch": 74,
      "start_beat": 13.5,
      "duration_beat": 0.11770833333333375,
      "velocity": 33,
      "track": 0
    },
    {
      "pitch": 74,
      "start_beat": 13.5,
      "duration_beat": 0.125,
      "velocity": 13,
      "track": 0
    },
    {
      "pitch": 81,
      "start_beat": 13.625,
      "duration_beat": 0.11770833333333375,
      "velocity": 33,
      "track": 0
    },
    {
      "pitch": 86,
      "start_beat": 13.75,
      "duration_beat": 0.11770833333333375,
      "velocity": 33,
      "track": 0
    },
    {
      "pitch": 72,
      "start_beat": 13.75,
      "duration_beat": 0.2354166666666675,
      "velocity": 33,
      "track": 0
    },
    {
      "pitch": 72,
      "start_beat": 13.75,
      "duration_beat": 0.2354166666666675,
      "velocity": 43,
      "track": 0
    },
    {
      "pitch": 76,
      "start_beat": 13.75,
      "duration_beat": 0.2354166666666675,
      "velocity": 43,
      "track": 0
    },
    {
      "pitch": 79,
      "start_beat": 13.75,
      "duration_beat": 0.2354166666666675,
      "velocity": 43,
      "track": 0
    },
    {
      "pitch": 72,
      "start_beat": 13.75,
      "duration_beat": 0.11770833333333375,
      "velocity": 33,
      "track": 0
    },
    {
      "pitch": 72,
      "start_beat": 13.75,
      "duration_beat": 0.125,
      "velocity": 13,
      "track": 0
    },
    {
      "pitch": 79,
      "start_beat": 13.875,
      "duration_beat": 0.11770833333333375,
      "velocity": 33,
      "track": 0
    },
    {
      "pitch": 84,
      "start_beat": 14.0,
      "duration_beat": 0.11770833333333375,
      "velocity": 33,
      "track": 0
    },
    {
      "pitch": 69,
      "start_beat": 14.0,
      "duration_beat": 0.47291666666666643,
      "velocity": 33,
      "track": 0
    },
    {
      "pitch": 69,
      "start_beat": 14.0,
      "duration_beat": 0.47291666666666643,
      "velocity": 43,
      "track": 0
    },
    {
      "pitch": 73,
      "start_beat": 14.0,
      "duration_beat": 0.47291666666666643,
      "velocity": 43,
      "track": 0
    },
    {
      "pitch": 76,
      "start_beat": 14.0,
      "duration_beat": 0.47291666666666643,
      "velocity": 43,
      "track": 0
    },
    {
      "pitch": 69,
      "start_beat": 14.0,
      "duration_beat": 0.23645833333333321,
      "velocity": 33,
      "track": 0
    },
    {
      "pitch": 69,
      "start_beat": 14.0,
      "duration_beat": 0.125,
      "velocity": 13,
      "track": 0
    },
    {
      "pitch": 45,
      "start_beat": 14.0,
      "duration_beat": 0.2354166666666675,
      "velocity": 33,
      "track": 1
    },
    {
      "pitch": 45,
      "start_beat": 14.0,
      "duration_beat": 0.2354166666666675,
      "velocity": 43,
      "track": 1
    },
    {
      "pitch": 49,
      "start_beat": 14.0,
      "duration_beat": 0.2354166666666675,
      "velocity": 43,
      "track": 1
    },
    {
      "pitch": 52,
      "start_beat": 14.0,
      "duration_beat": 0.2354166666666675,
      "velocity": 43,
      "track": 1
    },
    {
      "pitch": 45,
      "start_beat": 14.0,
      "duration_beat": 0.11770833333333375,
      "velocity": 33,
      "track": 1
    },
    {
      "pitch": 45,
      "start_beat": 14.0,
      "duration_beat": 0.125,
      "velocity": 13,
      "track": 1
    },
    {
      "pitch": 76,
      "start_beat": 14.125,
      "duration_beat": 0.23645833333333321,
      "velocity": 33,
      "track": 0
    },
    {
      "pitch": 52,
      "start_beat": 14.125,
      "duration_beat": 0.11770833333333375,
      "velocity": 33,
      "track": 1
    },
    {
      "pitch": 81,
      "start_beat": 14.25,
      "duration_beat": 0.23645833333333321,
      "velocity": 33,
      "track": 0
    },
    {
      "pitch": 69,
      "start_beat": 14.25,
      "duration_beat": 0.125,
      "velocity": 13,
      "track": 0
    },
    {
      "pitch": 57,
      "start_beat": 14.25,
      "duration_beat": 0.11770833333333375,
      "velocity": 33,
      "track": 1
    },
    {
      "pitch": 52,
      "start_beat": 14.25,
      "duration_beat": 0.2354166666666675,
      "velocity": 33,
      "track": 1
    },
    {
      "pitch": 52,
      "start_beat": 14.25,
      "duration_beat": 0.2354166666666675,
      "velocity": 43,
      "track": 1
    },
    {
      "pitch": 56,
      "start_beat": 14.25,
      "duration_beat": 0.2354166666666675,
      "velocity": 43,
      "track": 1
    },
    {
      "pitch": 59,
      "start_beat": 14.25,
      "duration_beat": 0.2354166666666675,
      "velocity": 43,
      "track": 1
    },
    {
      "pitch": 52,
      "start_beat": 14.25,
      "duration_beat": 0.11770833333333375,
      "velocity": 33,
      "track": 1
    },
    {
      "pitch": 52,
      "start_beat": 14.25,
      "duration_beat": 0.125,
      "velocity": 13,
      "track": 1
    },
    {
      "pitch": 59,
      "start_beat": 14.375,
      "duration_beat": 0.11770833333333375,
      "velocity": 33,
      "track": 1
    },
    {
      "pitch": 64,
      "start_beat": 14.5,
      "duration_beat": 0.11770833333333375,
      "velocity": 33,
      "track": 1
    },
    {
      "pitch": 57,
      "start_beat": 14.5,
      "duration_beat": 0.2354166666666675,
      "velocity": 33,
      "track": 1
    },
    {
      "pitch": 57,
      "start_beat": 14.5,
      "duration_beat": 0.2354166666666675,
      "velocity": 43,
      "track": 1
    },
    {
      "pitch": 61,
      "start_beat": 14.5,
      "duration_beat": 0.2354166666666675,
      "velocity": 43,
      "track": 1
    },
    {
      "pitch": 64,
      "start_beat": 14.5,
      "duration_beat": 0.2354166666666675,
      "velocity": 43,
      "track": 1
    },
    {
      "pitch": 57,
      "start_beat": 14.5,
      "duration_beat": 0.11770833333333375,
      "velocity": 33,
      "track": 1
    },
    {
      "pitch": 57,
      "start_beat": 14.5,
      "duration_beat": 0.125,
      "velocity": 13,
      "track": 1
    },
    {
      "pitch": 64,
      "start_beat": 14.625,
      "duration_beat": 0.11770833333333375,
      "velocity": 33,
      "track": 1
    },
    {
      "pitch": 69,
      "start_beat": 14.75,
      "duration_beat": 0.11770833333333375,
      "velocity": 33,
      "track": 1
    },
    {
      "pitch": 60,
      "start_beat": 14.75,
      "duration_beat": 0.2354166666666675,
      "velocity": 33,
      "track": 0
    },
    {
      "pitch": 60,
      "start_beat": 14.75,
      "duration_beat": 0.2354166666666675,
      "velocity": 43,
      "track": 0
    },
    {
      "pitch": 64,
      "start_beat": 14.75,
      "duration_beat": 0.2354166666666675,
      "velocity": 43,
      "track": 0
    },
    {
      "pitch": 67,
      "start_beat": 14.75,
      "duration_beat": 0.2354166666666675,
      "velocity": 43,
      "track": 0
    },
    {
      "pitch": 60,
      "start_beat": 14.75,
      "duration_beat": 0.11770833333333375,
      "velocity": 33,
      "track": 0
    },
    {
      "pitch": 60,
      "start_beat": 14.75,
      "duration_beat": 0.125,
      "velocity": 13,
      "track": 0
    },
    {
      "pitch": 67,
      "start_beat": 14.875,
      "duration_beat": 0.11770833333333375,
      "velocity": 33,
      "track": 0
    },
    {
      "pitch": 72,
      "start_beat": 15.0,
      "duration_beat": 0.11770833333333375,
      "velocity": 33,
      "track": 0
    },
    {
      "pitch": 64,
      "start_beat": 15.0,
      "duration_beat": 0.2354166666666675,
      "velocity": 33,
      "track": 0
    },
    {
      "pitch": 64,
      "start_beat": 15.0,
      "duration_beat": 0.2354166666666675,
      "velocity": 43,
      "track": 0
    },
    {
      "pitch": 68,
      "start_beat": 15.0,
      "duration_beat": 0.2354166666666675,
      "velocity": 43,
      "track": 0
    },
    {
      "pitch": 71,
      "start_beat": 15.0,
      "duration_beat": 0.2354166666666675,
      "velocity": 43,
      "track": 0
    },
    {
      "pitch": 64,
      "start_beat": 15.0,
      "duration_beat": 0.11770833333333375,
      "velocity": 33,
      "track": 0
    },
    {
      "pitch": 64,
      "start_beat": 15.0,
      "duration_beat": 0.125,
      "velocity": 13,
      "track": 0
    },
    {
      "pitch": 71,
      "start_beat": 15.125,
      "duration_beat": 0.11770833333333375,
      "velocity": 33,
      "track": 0
    },
    {
      "pitch": 76,
      "start_beat": 15.25,
      "duration_beat": 0.11770833333333375,
      "velocity": 33,
      "track": 0
    },
    {
      "pitch": 69,
      "start_beat": 15.25,
      "duration_beat": 0.2354166666666675,
      "velocity": 33,
      "track": 0
    },
    {
      "pitch": 69,
      "start_beat": 15.25,
      "duration_beat": 0.2354166666666675,
      "velocity": 43,
      "track": 0
    },
    {
      "pitch": 73,
      "start_beat": 15.25,
      "duration_beat": 0.2354166666666675,
      "velocity": 43,
      "track": 0
    },
    {
      "pitch": 76,
      "start_beat": 15.25,
      "duration_beat": 0.2354166666666675,
      "velocity": 43,
      "track": 0
    },
    {
      "pitch": 69,
      "start_beat": 15.25,
      "duration_beat": 0.11770833333333375,
      "velocity": 33,
      "track": 0
    }
  ]
}