{
  "resolution": 480,
  "tempo_map": [
    {
      "beat": 0.0,
      "bpm": 72.00002880001152
    },
    {
      "beat": 185.75,
      "bpm": 65.99999340000066
    },
    {
      "beat": 186.0,
      "bpm": 60.0
    },
    {
      "beat": 186.25,
      "bpm": 48.0
    }
  ],
  "notes": [
    {
      "pitch": 76,
      "start_beat": 0.0,
      "duration_beat": 0.23541666666666666,
      "velocity": 33,
      "track": 0
    },
    {
      "pitch": 76,
      "start_beat": 0.0,
      "duration_beat": 0.23541666666666666,
      "velocity": 43,
      "track": 0
    },
    {
      "pitch": 80,
      "start_beat": 0.0,
      "duration_beat": 0.23541666666666666,
      "velocity": 43,
      "track": 0
    },
    {
      "pitch": 83,
      "start_beat": 0.0,
      "duration_beat": 0.23541666666666666,
      "velocity": 43,
      "track": 0
    },
    {
      "pitch": 76,
      "start_beat": 0.0,
      "duration_beat": 0.11770833333333333,
      "velocity": 33,
      "track": 0
    },
    {
      "pitch": 76,
      "start_beat": 0.0,
      "duration_beat": 0.125,
      "velocity": 13,
      "track": 0
    },
    {
      "pitch": 83,
      "start_beat": 0.125,
      "duration_beat": 0.11770833333333333,
      "velocity": 33,
      "track": 0
    },
    {
      "pitch": 88,
      "start_beat": 0.25,
      "duration_beat": 0.11770833333333333,
      "velocity": 33,
      "track": 0
    },
    {
      "pitch": 75,
      "start_beat": 0.25,
      "duration_beat": 0.23541666666666666,
      "velocity": 33,
      "track": 0
    },
    {
      "pitch": 75,
      "start_beat": 0.25,
      "duration_beat": 0.23541666666666666,
      "velocity": 43,
      "track": 0
    },
    {
      "pitch": 79,
      "start_beat": 0.25,
      "duration_beat": 0.23541666666666666,
      "velocity": 43,
      "track": 0
    },
    {
      "pitch": 82,
      "start_beat": 0.25,
      "duration_beat": 0.23541666666666666,
      "velocity": 43,
      "track": 0
    },
    {
      "pitch": 75,
      "start_beat": 0.25,
      "duration_beat": 0.11770833333333333,
      "velocity": 33,
      "track": 0
    },
    {
      "pitch": 75,
      "start_beat": 0.25,
      "duration_beat": 0.125,
      "velocity": 13,
      "track": 0
    },
    {
      "pitch": 82,
      "start_beat": 0.375,
      "duration_beat": 0.11770833333333333,
      "velocity": 33,
      "track": 0
    },
    {
      "pitch": 87,
      "start_beat": 0.5,
      "duration_beat": 0.11770833333333333,
      "velocity": 33,
      "track": 0
    },
    {
      "pitch": 76,
      "start_beat": 0.5,
      "duration_beat": 0.23541666666666672,
      "velocity": 33,
      "track": 0
    },
    {
      "pitch": 76,
      "start_beat": 0.5,
      "duration_beat": 0.23541666666666672,
      "velocity": 43,
      "track": 0
    },
    {
      "pitch": 80,
      "start_beat": 0.5,
      "duration_beat": 0.23541666666666672,
      "velocity": 43,
      "track": 0
    },
    {
      "pitch": 83,
      "start_beat": 0.5,
      "duration_beat": 0.23541666666666672,
      "velocity": 43,
      "track": 0
    },
    {
      "pitch": 76,
      "start_beat": 0.5,
      "duration_beat": 0.11770833333333336,
      "velocity": 33,
      "track": 0
    },
    {
      "pitch": 76,
      "start_beat": 0.5,
      "duration_beat": 0.125,
      "velocity": 13,
      "track": 0
    },
    {
      "pitch": 83,
      "start_beat": 0.625,
      "duration_beat": 0.11770833333333336,
      "velocity": 33,
      "track": 0
    },
    {
      "pitch": 88,
      "start_beat": 0.75,
      "duration_beat": 0.11770833333333336,
      "velocity": 33,
      "track": 0
    },
    {
      "pitch": 75,
      "start_beat": 0.75,
      "duration_beat": 0.23541666666666672,
      "velocity": 33,
      "track": 0
    },
    {
      "pitch": 75,
      "start_beat": 0.75,
      "duration_beat": 0.23541666666666672,
      "velocity": 43,
      "track": 0
    },
    {
      "pitch": 79,
      "start_beat": 0.75,
      "duration_beat": 0.23541666666666672,
      "velocity": 43,
      "track": 0
    },
    {
      "pitch": 82,
      "start_beat": 0.75,
      "duration_beat": 0.23541666666666672,
      "velocity": 43,
      "track": 0
    },
    {
      "pitch": 75,
      "start_beat": 0.75,
      "duration_beat": 0.11770833333333336,
      "velocity": 33,
      "track": 0
    },
    {
      "pitch": 75,
      "start_beat": 0.75,
      "duration_beat": 0.125,
      "velocity": 13,
      "track": 0
    },
    {
      "pitch": 82,
      "start_beat": 0.875,
      "duration_beat": 0.11770833333333336,
      "velocity": 33,
      "track": 0
    },
    {
      "pitch": 87,
      "start_beat": 1.0,
      "duration_beat": 0.11770833333333336,
      "velocity": 33,
      "track": 0
    },
    {
      "pitch": 76,
      "start_beat": 1.0,
      "duration_beat": 0.2354166666666666,
      "velocity": 33,
      "track": 0
    },
    {
      "pitch": 76,
      "start_beat": 1.0,
      "duration_beat": 0.2354166666666666,
      "velocity": 43,
      "track": 0
    },
    {
      "pitch": 80,
      "start_beat": 1.0,
      "duration_beat": 0.2354166666666666,
      "velocity": 43,
      "track": 0
    },
    {
      "pitch": 83,
      "start_beat": 1.0,
      "duration_beat": 0.2354166666666666,
      "velocity": 43,
      "track": 0
    },
    {
      "pitch": 76,
      "start_beat": 1.0,
      "duration_beat": 0.1177083333333333,
      "velocity": 33,
      "track": 0
    },
    {
      "pitch": 76,
      "start_beat": 1.0,
      "duration_beat": 0.125,
      "velocity": 13,
      "track": 0
    },
    {
      "pitch": 83,
      "start_beat": 1.125,
      "duration_beat": 0.1177083333333333,
      "velocity": 33,
      "track": 0
    },
    {
      "pitch": 88,
      "start_beat": 1.25,
      "duration_beat": 0.1177083333333333,
      "velocity": 33,
      "track": 0
    },
    {
      "pitch": 71,
      "start_beat": 1.25,
      "duration_beat": 0.2354166666666666,
      "velocity": 33,
      "track": 0
    },
    {
      "pitch": 71,
      "start_beat": 1.25,
      "duration_beat": 0.2354166666666666,
      "velocity": 43,
      "track": 0
    },
    {
      "pitch": 75,
      "start_beat": 1.25,
      "duration_beat": 0.2354166666666666,
      "velocity": 43,
      "track": 0
    },
    {
      "pitch": 78,
      "start_beat": 1.25,
      "duration_beat": 0.2354166666666666,
      "velocity": 43,
      "track": 0
    },
    {
      "pitch": 71,
      "start_beat": 1.25,
      "duration_beat": 0.1177083333333333,
      "velocity": 33,
      "track": 0
    },
    {
      "pitch": 71,
      "start_beat": 1.25,
      "duration_beat": 0.125,
      "velocity": 13,
      "track": 0
    },
    {
      "pitch": 78,
      "start_beat": 1.375,
      "duration_beat": 0.1177083333333333,
      "velocity": 33,
      "track": 0
    },
    {
      "pitch": 83,
      "start_beat": 1.5,
      "duration_beat": 0.1177083333333333,
      "velocity": 33,
      "track": 0
    },
    {
      "pitch": 74,
      "start_beat": 1.5,
      "duration_beat": 0.2354166666666666,
      "velocity": 33,
      "track": 0
    },
    {
      "pitch": 74,
      "start_beat": 1.5,
      "duration_beat": 0.2354166666666666,
      "velocity": 43,
      "track": 0
    },
    {
      "pitch": 78,
      "start_beat": 1.5,
      "duration_beat": 0.2354166666666666,
      "velocity": 43,
      "track": 0
    },
    {
      "pitch": 81,
      "start_beat": 1.5,
      "duration_beat": 0.2354166666666666,
      "velocity": 43,
      "track": 0
    },
    {
      "pitch": 74,
      "start_beat": 1.5,
      "duration_beat": 0.1177083333333333,
      "velocity": 33,
      "track": 0
    },
    {
      "pitch": 74,
      "start_beat": 1.5,
      "duration_beat": 0.125,
      "velocity": 13,
      "track": 0
    },
    {
      "pitch": 81,
      "start_beat": 1.625,
      "duration_beat": 0.1177083333333333,
      "velocity": 33,
      "track": 0
    },
    {
      "pitch": 86,
      "start_beat": 1.75,
      "duration_beat": 0.1177083333333333,
      "velocity": 33,
      "track": 0
    },
    {
      "pitch": 72,
      "start_beat": 1.75,
      "duration_beat": 0.2354166666666666,
      "velocity": 33,
      "track": 0
    },
    {
      "pitch": 72,
      "start_beat": 1.75,
      "duration_beat": 0.2354166666666666,
      "velocity": 43,
      "track": 0
    },
    {
      "pitch": 76,
      "start_beat": 1.75,
      "duration_beat": 0.2354166666666666,
      "velocity": 43,
      "track": 0
    },
    {
      "pitch": 79,
      "start_beat": 1.75,
      "duration_beat": 0.2354166666666666,
      "velocity": 43,
      "track": 0
    },
    {
      "pitch": 72,
      "start_beat": 1.75,
      "duration_beat": 0.1177083333333333,
      "velocity": 33,
      "track": 0
    },
    {
      "pitch": 72,
      "start_beat": 1.75,
      "duration_beat": 0.125,
      "velocity": 13,
      "track": 0
    },
    {
      "pitch": 79,
      "start_beat": 1.875,
      "duration_beat": 0.1177083333333333,
      "velocity": 33,
      "track": 0
    },
    {
      "pitch": 84,
      "start_beat": 2.0,
      "duration_beat": 0.1177083333333333,
      "velocity": 33,
      "track": 0
    },
    {
      "pitch": 69,
      "start_beat": 2.0,
      "duration_beat": 0.4729166666666669,
      "velocity": 33,
      "track": 0
    },
    {
      "pitch": 69,
      "start_beat": 2.0,
      "duration_beat": 0.4729166666666669,
      "velocity": 43,
      "track": 0
    },
    {
      "pitch": 73,
      "start_beat": 2.0,
      "duration_beat": 0.4729166666666669,
      "velocity": 43,
      "track": 0
    },
    {
      "pitch": 76,
      "start_beat": 2.0,
      "duration_beat": 0.4729166666666669,
      "velocity": 43,
      "track": 0
    },
    {
      "pitch": 69,
      "start_beat": 2.0,
      "duration_beat": 0.23645833333333344,
      "velocity": 33,
      "track": 0
    },
    {
      "pitch": 69,
      "start_beat": 2.0,
      "duration_beat": 0.125,
      "velocity": 13,
      "track": 0
    },
    {
      "pitch": 45,
      "start_beat": 2.0,
      "duration_beat": 0.2354166666666666,
      "velocity": 33,
      "track": 1
    },
    {
      "pitch": 45,
      "start_beat": 2.0,
      "duration_beat": 0.2354166666666666,
      "velocity": 43,
      "track": 1
    },
    {
      "pitch": 49,
      "start_beat": 2.0,
      "duration_beat": 0.2354166666666666,
      "velocity": 43,
      "track": 1
    },
    {
      "pitch": 52,
      "start_beat": 2.0,
      "duration_beat": 0.2354166666666666,
      "velocity": 43,
      "track": 1
    },
    {
      "pitch": 45,
      "start_beat": 2.0,
      "duration_beat": 0.1177083333333333,
      "velocity": 33,
      "track": 1
    },
    {
      "pitch": 45,
      "start_beat": 2.0,
      "duration_beat": 0.125,
      "velocity": 13,
      "track": 1
    },
    {
      "pitch": 76,
      "start_beat": 2.125,
      "duration_beat": 0.23645833333333344,
      "velocity": 33,
      "track": 0
    },
    {
      "pitch": 52,
      "start_beat": 2.125,
      "duration_beat": 0.1177083333333333,
      "velocity": 33,
      "track": 1
    },
    {
      "pitch": 81,
      "start_beat": 2.25,
      "duration_beat": 0.23645833333333344,
      "velocity": 33,
      "track": 0
    },
    {
      "pitch": 69,
      "start_beat": 2.25,
      "duration_beat": 0.125,
      "velocity": 13,
      "track": 0
    },
    {
      "pitch": 57,
      "start_beat": 2.25,
      "duration_beat": 0.1177083333333333,
      "velocity": 33,
      "track": 1
    },
    {
      "pitch": 52,
      "start_beat": 2.25,
      "duration_beat": 0.2354166666666666,
      "velocity": 33,
      "track": 1
    },
    {
      "pitch": 52,
      "start_beat": 2.25,
      "duration_beat": 0.2354166666666666,
      "velocity": 43,
      "track": 1
    },
    {
      "pitch": 56,
      "start_beat": 2.25,
      "duration_beat": 0.2354166666666666,
      "velocity": 43,
      "track": 1
    },
    {
      "pitch": 59,
      "start_beat": 2.25,
      "duration_beat": 0.2354166666666666,
      "velocity": 43,
      "track": 1
    },
    {
      "pitch": 52,
      "start_beat": 2.25,
      "duration_beat": 0.1177083333333333,
      "velocity": 33,
      "track": 1
    },
    {
      "pitch": 52,
      "start_beat": 2.25,
      "duration_beat": 0.125,
      "velocity": 13,
      "track": 1
    },
    {
      "pitch": 59,
      "start_beat": 2.375,
      "duration_beat": 0.1177083333333333,
      "velocity": 33,
      "track": 1
    },
    {
      "pitch": 64,
      "start_beat": 2.5,
      "duration_beat": 0.1177083333333333,
      "velocity": 33,
      "track": 1
    },
    {
      "pitch": 57,
      "start_beat": 2.5,
      "duration_beat": 0.2354166666666666,
      "velocity": 33,
      "track": 1
    },
    {
      "pitch": 57,
      "start_beat": 2.5,
      "duration_beat": 0.2354166666666666,
      "velocity": 43,
      "track": 1
    },
    {
      "pitch": 61,
      "start_beat": 2.5,
      "duration_beat": 0.2354166666666666,
      "velocity": 43,
      "track": 1
    },
    {
      "pitch": 64,
      "start_beat": 2.5,
      "duration_beat": 0.2354166666666666,
      "velocity": 43,
      "track": 1
    },
    {
      "pitch": 57,
      "start_beat": 2.5,
      "duration_beat": 0.1177083333333333,
      "velocity": 33,
      "track": 1
    },
    {
      "pitch": 57,
      "start_beat": 2.5,
      "duration_beat": 0.125,
      "velocity": 13,
      "track": 1
    },
    {
      "pitch": 64,
      "start_beat": 2.625,
      "duration_beat": 0.1177083333333333,
      "velocity": 33,
      "track": 1
    },
    {
      "pitch": 69,
      "start_beat": 2.75,
      "duration_beat": 0.1177083333333333,
      "velocity": 33,
      "track": 1
    },
    {
      "pitch": 60,
      "start_beat": 2.75,
      "duration_beat": 0.2354166666666666,
      "velocity": 33,
      "track": 0
    },
    {
      "pitch": 60,
      "start_beat": 2.75,
      "duration_beat": 0.2354166666666666,
      "velocity": 43,
      "track": 0
    },
    {
      "pitch": 64,
      "start_beat": 2.75,
      "duration_beat": 0.2354166666666666,
      "velocity": 43,
      "track": 0
    },
    {
      "pitch": 67,
      "start_beat": 2.75,
      "duration_beat": 0.2354166666666666,
      "velocity": 43,
      "track": 0
    },
    {
      "pitch": 60,
      "start_beat": 2.75,
      "duration_beat": 0.1177083333333333,
      "velocity": 33,
      "track": 0
    },
    {
      "pitch": 60,
      "start_beat": 2.75,
      "duration_beat": 0.125,
      "velocity": 13,
      "track": 0
    },
    {
      "pitch": 67,
      "start_beat": 2.875,
      "duration_beat": 0.1177083333333333,
      "velocity": 33,
      "track": 0
    },
    {
      "pitch": 72,
      "start_beat": 3.0,
      "duration_beat": 0.1177083333333333,
      "velocity": 33,
      "track": 0
    },
    {
      "pitch": 64,
      "start_beat": 3.0,
      "duration_beat": 0.2354166666666666,
      "velocity": 33,
      "track": 0
    },
    {
      "pitch": 64,
      "start_beat": 3.0,
      "duration_beat": 0.2354166666666666,
      "velocity": 43,
      "track": 0
    },
    {
      "pitch": 68,
      "start_beat": 3.0,
      "duration_beat": 0.2354166666666666,
      "velocity": 43,
      "track": 0
    },
    {
      "pitch": 71,
      "start_beat": 3.0,
      "duration_beat": 0.2354166666666666,
      "velocity": 43,
      "track": 0
    },
    {
      "pitch": 64,
      "start_beat": 3.0,
      "duration_beat": 0.1177083333333333,
      "velocity": 33,
      "track": 0
    },
    {
      "pitch": 64,
      "start_beat": 3.0,
      "duration_beat": 0.125,
      "velocity": 13,
      "track": 0
    },
    {
      "pitch": 71,
      "start_beat": 3.125,
      "duration_beat": 0.1177083333333333,
      "velocity": 33,
      "track": 0
    },
    {
      "pitch": 76,
      "start_beat": 3.25,
      "duration_beat": 0.1177083333333333,
      "velocity": 33,
      "track": 0
    },
    {
      "pitch": 69,
      "start_beat": 3.25,
      "duration_beat": 0.2354166666666666,
      "velocity": 33,
      "track": 0
    },
    {
      "pitch": 69,
      "start_beat": 3.25,
      "duration_beat": 0.2354166666666666,
      "velocity": 43,
      "track": 0
    },
    {
      "pitch": 73,
      "start_beat": 3.25,
      "duration_beat": 0.2354166666666666,
      "velocity": 43,
      "track": 0
    },
    {
      "pitch": 76,
      "start_beat": 3.25,
      "duration_beat": 0.2354166666666666,
      "velocity": 43,
      "track": 0
    },
    {
      "pitch": 69,
      "start_beat": 3.25,
      "duration_beat": 0.1177083333333333,
      "velocity": 33,
      "track": 0
    },
    {
      "pitch": 69,
      "start_beat": 3.25,
      "duration_beat": 0.125,
      "velocity": 13,
      "track": 0
    },
    {
      "pitch": 76,
      "start_beat": 3.375,
      "duration_beat": 0.1177083333333333,
      "velocity": 33,
      "track": 0
    },
    {
      "pitch": 81,
      "start_beat": 3.5,
      "duration_beat": 0.1177083333333333,
      "velocity": 33,
      "track": 0
    },
    {
      "pitch": 71,
      "start_beat": 3.5,
      "duration_beat": 0.4729166666666669,
      "velocity": 33,
      "track": 0
    },
    {
      "pitch": 71,
      "start_beat": 3.5,
      "duration_beat": 0.4729166666666669,
      "velocity": 43,
      "track": 0
    },
    {
      "pitch": 75,
      "start_beat": 3.5,
      "duration_beat": 0.4729166666666669,
      "velocity": 43,
      "track": 0
    },
    {
      "pitch": 78,
      "start_beat": 3.5,
      "duration_beat": 0.4729166666666669,
      "velocity": 43,
      "track": 0
    },
    {
      "pitch": 71,
      "start_beat": 3.5,
      "duration_beat": 0.23645833333333344,
      "velocity": 33,
      "track": 0
    },
    {
      "pitch": 71,
      "start_beat": 3.5,
      "duration_beat": 0.125,
      "velocity": 13,
      "track": 0
    },
    {
      "pitch": 40,
      "start_beat": 3.5,
      "duration_beat": 0.2354166666666666,
      "velocity": 33,
      "track": 1
    },
    {
      "pitch": 40,
      "start_beat": 3.5,
      "duration_beat": 0.2354166666666666,
      "velocity": 43,
      "track": 1
    },
    {
      "pitch": 44,
      "start_beat": 3.5,
      "duration_beat": 0.2354166666666666,
      "velocity": 43,
      "track": 1
    },
    {
      "pitch": 47,
      "start_beat": 3.5,
      "duration_beat": 0.2354166666666666,
      "velocity": 43,
      "track": 1
    },
    {
      "pitch": 40,
      "start_beat": 3.5,
      "duration_beat": 0.1177083333333333,
      "velocity": 33,
      "track": 1
    },
    {
      "pitch": 40,
      "start_beat": 3.5,
      "duration_beat": 0.125,
      "velocity": 13,
      "track": 1
    },
    {
      "pitch": 78,
      "start_beat": 3.625,
      "duration_beat": 0.23645833333333344,
      "velocity": 33,
      "track": 0
    },
    {
      "pitch": 47,
      "start_beat": 3.625,
      "duration_beat": 0.1177083333333333,
      "velocity": 33,
      "track": 1
    },
    {
      "pitch": 83,
      "start_beat": 3.75,
      "duration_beat": 0.23645833333333344,
      "velocity": 33,
      "track": 0
    },
    {
      "pitch": 71,
      "start_beat": 3.75,
      "duration_beat": 0.125,
      "velocity": 13,
      "track": 0
    },
    {
      "pitch": 52,
      "start_beat": 3.75,
      "duration_beat": 0.1177083333333333,
      "velocity": 33,
      "track": 1
    },
    {
      "pitch": 52,
      "start_beat": 3.75,
      "duration_beat": 0.2354166666666666,
      "velocity": 33,
      "track": 1
    },
    {
      "pitch": 52,
      "start_beat": 3.75,
      "duration_beat": 0.2354166666666666,
      "velocity": 43,
      "track": 1
    },
    {
      "pitch": 56,
      "start_beat": 3.75,
      "duration_beat": 0.2354166666666666,
      "velocity": 43,
      "track": 1
    },
    {
      "pitch": 59,
      "start_beat": 3.75,
      "duration_beat": 0.2354166666666666,
      "velocity": 43,
      "track": 1
    },
    {
      "pitch": 52,
      "start_beat": 3.75,
      "duration_beat": 0.1177083333333333,
      "velocity": 33,
      "track": 1
    },
    {
      "pitch": 52,
      "start_beat": 3.75,
      "duration_beat": 0.125,
      "velocity": 13,
      "track": 1
    },
    {
      "pitch": 59,
      "start_beat": 3.875,
      "duration_beat": 0.1177083333333333,
      "velocity": 33,
      "track": 1
    },
    {
      "pitch": 64,
      "start_beat": 4.0,
      "duration_beat": 0.1177083333333333,
      "velocity": 33,
      "track": 1
    },
    {
      "pitch": 56,
      "start_beat": 4.0,
      "duration_beat": 0.2354166666666666,
      "velocity": 33,
      "track": 1
    },
    {
      "pitch": 56,
      "start_beat": 4.0,
      "duration_beat": 0.2354166666666666,
      "velocity": 43,
      "track": 1
    },
    {
      "pitch": 60,
      "start_beat": 4.0,
      "duration_beat": 0.2354166666666666,
      "velocity": 43,
      "track": 1
    },
    {
      "pitch": 63,
      "start_beat": 4.0,
      "duration_beat": 0.2354166666666666,
      "velocity": 43,
      "track": 1
    },
    {
      "pitch": 56,
      "start_beat": 4.0,
      "duration_beat": 0.1177083333333333,
      "velocity": 33,
      "track": 1
    },
    {
      "pitch": 56,
      "start_beat": 4.0,
      "duration_beat": 0.125,
      "velocity": 13,
      "track": 1
    },
    {
      "pitch": 63,
      "start_beat": 4.125,
      "duration_beat": 0.1177083333333333,
      "velocity": 33,
      "track": 1
    },
    {
      "pitch": 68,
      "start_beat": 4.25,
      "duration_beat": 0.1177083333333333,
      "velocity": 33,
      "track": 1
    },
    {
      "pitch": 64,
      "start_beat": 4.25,
      "duration_beat": 0.2354166666666666,
      "velocity": 33,
      "track": 0
    },
    {
      "pitch": 64,
      "start_beat": 4.25,
      "duration_beat": 0.2354166666666666,
      "velocity": 43,
      "track": 0
    },
    {
      "pitch": 68,
      "start_beat": 4.25,
      "duration_beat": 0.2354166666666666,
      "velocity": 43,
      "track": 0
    },
    {
      "pitch": 71,
      "start_beat": 4.25,
      "duration_beat": 0.2354166666666666,
      "velocity": 43,
      "track": 0
    },
    {
      "pitch": 64,
      "start_beat": 4.25,
      "duration_beat": 0.1177083333333333,
      "velocity": 33,
      "track": 0
    },
    {
      "pitch": 64,
      "start_beat": 4.25,
      "duration_beat": 0.125,
      "velocity": 13,
      "track": 0
    },
    {
      "pitch": 71,
      "start_beat": 4.375,
      "duration_beat": 0.1177083333333333,
      "velocity": 33,
      "track": 0
    },
    {
      "pitch": 76,
      "start_beat": 4.5,
      "duration_beat": 0.1177083333333333,
      "velocity": 33,
      "track": 0
    },
    {
      "pitch": 68,
      "start_beat": 4.5,
      "duration_beat": 0.2354166666666666,
      "velocity": 33,
      "track": 0
    },
    {
      "pitch": 68,
      "start_beat": 4.5,
      "duration_beat": 0.2354166666666666,
      "velocity": 43,
      "track": 0
    },
    {
      "pitch": 72,
      "start_beat": 4.5,
      "duration_beat": 0.2354166666666666,
      "velocity": 43,
      "track": 0
    },
    {
      "pitch": 75,
      "start_beat": 4.5,
      "duration_beat": 0.2354166666666666,
      "velocity": 43,
      "track": 0
    },
    {
      "pitch": 68,
      "start_beat": 4.5,
      "duration_beat": 0.1177083333333333,
      "velocity": 33,
      "track": 0
    },
    {
      "pitch": 68,
      "start_beat": 4.5,
      "duration_beat": 0.125,
      "velocity": 13,
      "track": 0
    },
    {
      "pitch": 75,
      "start_beat": 4.625,
      "duration_beat": 0.1177083333333333,
      "velocity": 33,
      "track": 0
    },
    {
      "pitch": 80,
      "start_beat": 4.75,
      "duration_beat": 0.1177083333333333,
      "velocity": 33,
      "track": 0
    },
    {
      "pitch": 71,
      "start_beat": 4.75,
      "duration_beat": 0.2354166666666666,
      "velocity": 33,
      "track": 0
    },
    {
      "pitch": 71,
      "start_beat": 4.75,
      "duration_beat": 0.2354166666666666,
      "velocity": 43,
      "track": 0
    },
    {
      "pitch": 75,
      "start_beat": 4.75,
      "duration_beat": 0.2354166666666666,
      "velocity": 43,
      "track": 0
    },
    {
      "pitch": 78,
      "start_beat": 4.75,
      "duration_beat": 0.2354166666666666,
      "velocity": 43,
      "track": 0
    },
    {
      "pitch": 71,
      "start_beat": 4.75,
      "duration_beat": 0.1177083333333333,
      "velocity": 33,
      "track": 0
    },
    {
      "pitch": 71,
      "start_beat": 4.75,
      "duration_beat": 0.125,
      "velocity": 13,
      "track": 0
    },
    {
      "pitch": 78,
      "start_beat": 4.875,
      "duration_beat": 0.1177083333333333,
      "velocity": 33,
      "track": 0
    },
    {
      "pitch": 83,
      "start_beat": 5.0,
      "duration_beat": 0.1177083333333333,
      "velocity": 33,
      "track": 0
    },
    {
      "pitch": 72,
      "start_beat": 5.0,
      "duration_beat": 0.47291666666666643,
      "velocity": 33,
      "track": 0
    },
    {
      "pitch": 72,
      "start_beat": 5.0,
      "duration_beat": 0.47291666666666643,
      "velocity": 43,
      "track": 0
    },
    {
      "pitch": 76,
      "start_beat": 5.0,
      "duration_beat": 0.47291666666666643,
      "velocity": 43,
      "track": 0
    },
    {
      "pitch": 79,
      "start_beat": 5.0,
      "duration_beat": 0.47291666666666643,
      "velocity": 43,
      "track": 0
    },
    {
      "pitch": 72,
      "start_beat": 5.0,
      "duration_beat": 0.23645833333333321,
      "velocity": 33,
      "track": 0
    },
    {
      "pitch": 72,
      "start_beat": 5.0,
      "duration_beat": 0.125,
      "velocity": 13,
      "track": 0
    },
    {
      "pitch": 45,
      "start_beat": 5.0,
      "duration_beat": 0.2354166666666666,
      "velocity": 33,
      "track": 1
    },
    {
      "pitch": 45,
      "start_beat": 5.0,
      "duration_beat": 0.2354166666666666,
      "velocity": 43,
      "track": 1
    },
    {
      "pitch": 49,
      "start_beat": 5.0,
      "duration_beat": 0.2354166666666666,
      "velocity": 43,
      "track": 1
    },
    {
      "pitch": 52,
      "start_beat": 5.0,
      "duration_beat": 0.2354166666666666,
      "velocity": 43,
      "track": 1
    },
    {
      "pitch": 45,
      "start_beat": 5.0,
      "duration_beat": 0.1177083333333333,
      "velocity": 33,
      "track": 1
    },
    {
      "pitch": 45,
      "start_beat": 5.0,
      "duration_beat": 0.125,
      "velocity": 13,
      "track": 1
    },
    {
      "pitch": 79,
      "start_beat": 5.125,
      "duration_beat": 0.23645833333333321,
      "velocity": 33,
      "track": 0
    },
    {
      "pitch": 52,
      "start_beat": 5.125,
      "duration_beat": 0.1177083333333333,
      "velocity": 33,
      "track": 1
    },
    {
      "pitch": 84,
      "start_beat": 5.25,
      "duration_beat": 0.23645833333333321,
      "velocity": 33,
      "track": 0
    },
    {
      "pitch": 72,
      "start_beat": 5.25,
      "duration_beat": 0.125,
      "velocity": 13,
      "track": 0
    },
    {
      "pitch": 57,
      "start_beat": 5.25,
      "duration_beat": 0.1177083333333333,
      "velocity": 33,
      "track": 1
    },
    {
      "pitch": 52,
      "start_beat": 5.25,
      "duration_beat": 0.2354166666666666,
      "velocity": 33,
      "track": 1
    },
    {
      "pitch": 52,
      "start_beat": 5.25,
      "duration_beat": 0.2354166666666666,
      "velocity": 43,
      "track": 1
    },
    {
      "pitch": 56,
      "start_beat": 5.25,
      "duration_beat": 0.2354166666666666,
      "velocity": 43,
      "track": 1
    },
    {
      "pitch": 59,
      "start_beat": 5.25,
      "duration_beat": 0.2354166666666666,
      "velocity": 43,
      "track": 1
    },
    {
      "pitch": 52,
      "start_beat": 5.25,
      "duration_beat": 0.1177083333333333,
      "velocity": 33,
      "track": 1
    },
    {
      "pitch": 52,
      "start_beat": 5.25,
      "duration_beat": 0.125,
      "velocity": 13,
      "track": 1
    },
    {
      "pitch": 59,
      "start_beat": 5.375,
      "duration_beat": 0.1177083333333333,
      "velocity": 33,
      "track": 1
    },
    {
      "pitch": 64,
      "start_beat": 5.5,
      "duration_beat": 0.1177083333333333,
      "velocity": 33,
      "track": 1
    },
    {
      "pitch": 57,
      "start_beat": 5.5,
      "duration_beat": 0.2354166666666666,
      "velocity": 33,
      "track": 1
    },
    {
      "pitch": 57,
      "start_beat": 5.5,
      "duration_beat": 0.2354166666666666,
      "velocity": 43,
      "track": 1
    },
    {
      "pitch": 61,
      "start_beat": 5.5,
      "duration_beat": 0.2354166666666666,
      "velocity": 43,
      "track": 1
    },
    {
      "pitch": 64,
      "start_beat": 5.5,
      "duration_beat": 0.2354166666666666,
      "velocity": 43,
      "track": 1
    },
    {
      "pitch": 57,
      "start_beat": 5.5,
      "duration_beat": 0.1177083333333333,
      "velocity": 33,
      "track": 1
    },
    {
      "pitch": 57,
      "start_beat": 5.5,
      "duration_beat": 0.125,
      "velocity": 13,
      "track": 1
    },
    {
      "pitch": 64,
      "start_beat": 5.625,
      "duration_beat": 0.1177083333333333,
      "velocity": 33,
      "track": 1
    },
    {
      "pitch": 69,
      "start_beat": 5.75,
      "duration_beat": 0.1177083333333333,
      "velocity": 33,
      "track": 1
    },
    {
      "pitch": 64,
      "start_beat": 5.75,
      "duration_beat": 0.2354166666666666,
      "velocity": 33,
      "track": 0
    },
    {
      "pitch": 64,
      "start_beat": 5.75,
      "duration_beat": 0.2354166666666666,
      "velocity": 43,
      "track": 0
    },
    {
      "pitch": 68,
      "start_beat": 5.75,
      "duration_beat": 0.2354166666666666,
      "velocity": 43,
      "track": 0
    },
    {
      "pitch": 71,
      "start_beat": 5.75,
      "duration_beat": 0.2354166666666666,
      "velocity": 43,
      "track": 0
    },
    {
      "pitch": 64,
      "start_beat": 5.75,
      "duration_beat": 0.1177083333333333,
      "velocity": 33,
      "track": 0
    },
    {
      "pitch": 64,
      "start_beat": 5.75,
      "duration_beat": 0.125,
      "velocity": 13,
      "track": 0
    },
    {
      "pitch": 71,
      "start_beat": 5.875,
      "duration_beat": 0.1177083333333333,
      "velocity": 33,
      "track": 0
    },
    {
      "pitch": 76,
      "start_beat": 6.0,
      "duration_beat": 0.1177083333333333,
      "velocity": 33,
      "track": 0
    },
    {
      "pitch": 76,
      "start_beat": 6.0,
      "duration_beat": 0.2354166666666666,
      "velocity": 33,
      "track": 0
    },
    {
      "pitch": 76,
      "start_beat": 6.0,
      "duration_beat": 0.2354166666666666,
      "velocity": 43,
      "track": 0
    },
    {
      "pitch": 80,
      "start_beat": 6.0,
      "duration_beat": 0.2354166666666666,
      "velocity": 43,
      "track": 0
    },
    {
      "pitch": 83,
      "start_beat": 6.0,
      "duration_beat": 0.2354166666666666,
      "velocity": 43,
      "track": 0
    },
    {
      "pitch": 76,
      "start_beat": 6.0,
      "duration_beat": 0.1177083333333333,
      "velocity": 33,
      "track": 0
    },
    {
      "pitch": 76,
      "start_beat": 6.0,
      "duration_beat": 0.125,
      "velocity": 13,
      "track": 0
    },
    {
      "pitch": 83,
      "start_beat": 6.125,
      "duration_beat": 0.1177083333333333,
      "velocity": 33,
      "track": 0
    },
    {
      "pitch": 88,
      "start_beat": 6.25,
      "duration_beat": 0.1177083333333333,
      "velocity": 33,
      "track": 0
    },
    {
      "pitch": 75,
      "start_beat": 6.25,
      "duration_beat": 0.2354166666666666,
      "velocity": 33,
      "track": 0
    },
    {
      "pitch": 75,
      "start_beat": 6.25,
      "duration_beat": 0.2354166666666666,
      "velocity": 43,
      "track": 0
    },
    {
      "pitch": 79,
      "start_beat": 6.25,
      "duration_beat": 0.2354166666666666,
      "velocity": 43,
      "track": 0
    },
    {
      "pitch": 82,
      "start_beat": 6.25,
      "duration_beat": 0.2354166666666666,
      "velocity": 43,
      "track": 0
    },
    {
      "pitch": 75,
      "start_beat": 6.25,
      "duration_beat": 0.1177083333333333,
      "velocity": 33,
      "track": 0
    },
    {
      "pitch": 75,
      "start_beat": 6.25,
      "duration_beat": 0.125,
      "velocity": 13,
      "track": 0
    },
    {
      "pitch": 82,
      "start_beat": 6.375,
      "duration_beat": 0.1177083333333333,
      "velocity": 33,
      "track": 0
    },
    {
      "pitch": 87,
      "start_beat": 6.5,
      "duration_beat": 0.1177083333333333,
      "velocity": 33,
      "track": 0
    },
    {
      "pitch": 76,
      "start_beat": 6.5,
      "duration_beat": 0.2354166666666666,
      "velocity": 33,
      "track": 0
    },
    {
      "pitch": 76,
      "start_beat": 6.5,
      "duration_beat": 0.2354166666666666,
      "velocity": 43,
      "track": 0
    },
    {
      "pitch": 80,
      "start_beat": 6.5,
      "duration_beat": 0.2354166666666666,
      "velocity": 43,
      "track": 0
    },
    {
      "pitch": 83,
      "start_beat": 6.5,
      "duration_beat": 0.2354166666666666,
      "velocity": 43,
      "track": 0
    },
    {
      "pitch": 76,
      "start_beat": 6.5,
      "duration_beat": 0.1177083333333333,
      "velocity": 33,
      "track": 0
    },
    {
      "pitch": 76,
      "start_beat": 6.5,
      "duration_beat": 0.125,
      "velocity": 13,
      "track": 0
    },
    {
      "pitch": 83,
      "start_beat": 6.625,
      "duration_beat": 0.1177083333333333,
      "velocity": 33,
      "track": 0
    },
    {
      "pitch": 88,
      "start_beat": 6.75,
      "duration_beat": 0.1177083333333333,
      "velocity": 33,
      "track": 0
    },
    {
      "pitch": 75,
      "start_beat": 6.75,
      "duration_beat": 0.2354166666666666,
      "velocity": 33,
      "track": 0
    },
    {
      "pitch": 75,
      "start_beat": 6.75,
      "duration_beat": 0.2354166666666666,
      "velocity": 43,
      "track": 0
    },
    {
      "pitch": 79,
      "start_beat": 6.75,
      "duration_beat": 0.2354166666666666,
      "velocity": 43,
      "track": 0
    },
    {
      "pitch": 82,
      "start_beat": 6.75,
      "duration_beat": 0.2354166666666666,
      "velocity": 43,
      "track": 0
    },
    {
      "pitch": 75,
      "start_beat": 6.75,
      "duration_beat": 0.1177083333333333,
      "velocity": 33,
      "track": 0
    },
    {
      "pitch": 75,
      "start_beat": 6.75,
      "duration_beat": 0.125,
      "velocity": 13,
      "track": 0
    },
    {
      "pitch": 82,
      "start_beat": 6.875,
      "duration_beat": 0.1177083333333333,
      "velocity": 33,
      "track": 0
    },
    {
      "pitch": 87,
      "start_beat": 7.0,
      "duration_beat": 0.1177083333333333,
      "velocity": 33,
      "track": 0
    },
    {
      "pitch": 76,
      "start_beat": 7.0,
      "duration_beat": 0.2354166666666666,
      "velocity": 33,
      "track": 0
    },
    {
      "pitch": 76,
      "start_beat": 7.0,
      "duration_beat": 0.2354166666666666,
      "velocity": 43,
      "track": 0
    },
    {
      "pitch": 80,
      "start_beat": 7.0,
      "duration_beat": 0.2354166666666666,
      "velocity": 43,
      "track": 0
    },
    {
      "pitch": 83,
      "start_beat": 7.0,
      "duration_beat": 0.2354166666666666,
      "velocity": 43,
      "track": 0
    },
    {
      "pitch": 76,
      "start_beat": 7.0,
      "duration_beat": 0.1177083333333333,
      "velocity": 33,
      "track": 0
    },
    {
      "pitch": 76,
      "start_beat": 7.0,
      "duration_beat": 0.125,
      "velocity": 13,
      "track": 0
    },
    {
      "pitch": 83,
      "start_beat": 7.125,
      "duration_beat": 0.1177083333333333,
      "velocity": 33,
      "track": 0
    },
    {
      "pitch": 88,
      "start_beat": 7.25,
      "duration_beat": 0.1177083333333333,
      "velocity": 33,
      "track": 0
    },
    {
      "pitch": 71,
      "start_beat": 7.25,
      "duration_beat": 0.2354166666666666,
      "velocity": 33,
      "track": 0
    },
    {
      "pitch": 71,
      "start_beat": 7.25,
      "duration_beat": 0.2354166666666666,
      "velocity": 43,
      "track": 0
    },
    {
      "pitch": 75,
      "start_beat": 7.25,
      "duration_beat": 0.2354166666666666,
      "velocity": 43,
      "track": 0
    },
    {
      "pitch": 78,
      "start_beat": 7.25,
      "duration_beat": 0.2354166666666666,
      "velocity": 43,
      "track": 0
    },
    {
      "pitch": 71,
      "start_beat": 7.25,
      "duration_beat": 0.1177083333333333,
      "velocity": 33,
      "track": 0
    },
    {
      "pitch": 71,
      "start_beat": 7.25,
      "duration_beat": 0.125,
      "velocity": 13,
      "track": 0
    },
    {
      "pitch": 78,
      "start_beat": 7.375,
      "duration_beat": 0.1177083333333333,
      "velocity": 33,
      "track": 0
    },
    {
      "pitch": 83,
      "start_beat": 7.5,
      "duration_beat": 0.1177083333333333,
      "velocity": 33,
      "track": 0
    },
    {
      "pitch": 74,
      "start_beat": 7.5,
      "duration_beat": 0.2354166666666666,
      "velocity": 33,
      "track": 0
    },
    {
      "pitch": 74,
      "start_beat": 7.5,
      "duration_beat": 0.2354166666666666,
      "velocity": 43,
      "track": 0
    },
    {
      "pitch": 78,
      "start_beat": 7.5,
      "duration_beat": 0.2354166666666666,
      "velocity": 43,
      "track": 0
    },
    {
      "pitch": 81,
      "start_beat": 7.5,
      "duration_beat": 0.2354166666666666,
      "velocity": 43,
      "track": 0
    },
    {
      "pitch": 74,
      "start_beat": 7.5,
      "duration_beat": 0.1177083333333333,
      "velocity": 33,
      "track": 0
    },
    {
      "pitch": 74,
      "start_beat": 7.5,
      "duration_beat": 0.125,
      "velocity": 13,
      "track": 0
    },
    {
      "pitch": 81,
      "start_beat": 7.625,
      "duration_beat": 0.1177083333333333,
      "velocity": 33,
      "track": 0
    },
    {
      "pitch": 86,
      "start_beat": 7.75,
      "duration_beat": 0.1177083333333333,
      "velocity": 33,
      "track": 0
    },
    {
      "pitch": 72,
      "start_beat": 7.75,
      "duration_beat": 0.2354166666666666,
      "velocity": 33,
      "track": 0
    },
    {
      "pitch": 72,
      "start_beat": 7.75,
      "duration_beat": 0.2354166666666666,
      "velocity": 43,
      "track": 0
    },
    {
      "pitch": 76,
      "start_beat": 7.75,
      "duration_beat": 0.2354166666666666,
      "velocity": 43,
      "track": 0
    },
    {
      "pitch": 79,
      "start_beat": 7.75,
      "duration_beat": 0.2354166666666666,
      "velocity": 43,
      "track": 0
    },
    {
      "pitch": 72,
      "start_beat": 7.75,
      "duration_beat": 0.1177083333333333,
      "velocity": 33,
      "track": 0
    },
    {
      "pitch": 72,
      "start_beat": 7.75,
      "duration_beat": 0.125,
      "velocity": 13,
      "track": 0
    },
    {
      "pitch": 79,
      "start_beat": 7.875,
      "duration_beat": 0.1177083333333333,
      "velocity": 33,
      "track": 0
    },
    {
      "pitch": 84,
      "start_beat": 8.0,
      "duration_beat": 0.1177083333333333,
      "velocity": 33,
      "track": 0
    },
    {
      "pitch": 69,
      "start_beat": 8.0,
      "duration_beat": 0.47291666666666643,
      "velocity": 33,
      "track": 0
    },
    {
      "pitch": 69,
      "start_beat": 8.0,
      "duration_beat": 0.47291666666666643,
      "velocity": 43,
      "track": 0
    },
    {
      "pitch": 73,
      "start_beat": 8.0,
      "duration_beat": 0.47291666666666643,
      "velocity": 43,
      "track": 0
    },
    {
      "pitch": 76,
      "start_beat": 8.0,
      "duration_beat": 0.47291666666666643,
      "velocity": 43,
      "track": 0
    },
    {
      "pitch": 69,
      "start_beat": 8.0,
      "duration_beat": 0.23645833333333321,
      "velocity": 33,
      "track": 0
    },
    {
      "pitch": 69,
      "start_beat": 8.0,
      "duration_beat": 0.125,
      "velocity": 13,
      "track": 0
    },
    {
      "pitch": 45,
      "start_beat": 8.0,
      "duration_beat": 0.2354166666666675,
      "velocity": 33,
      "track": 1
    },
    {
      "pitch": 45,
      "start_beat": 8.0,
      "duration_beat": 0.2354166666666675,
      "velocity": 43,
      "track": 1
    },
    {
      "pitch": 49,
      "start_beat": 8.0,
      "duration_beat": 0.2354166666666675,
      "velocity": 43,
      "track": 1
    },
    {
      "pitch": 52,
      "start_beat": 8.0,
      "duration_beat": 0.2354166666666675,
      "velocity": 43,
      "track": 1
    },
    {
      "pitch": 45,
      "start_beat": 8.0,
      "duration_beat": 0.11770833333333375,
      "velocity": 33,
      "track": 1
    },
    {
      "pitch": 45,
      "start_beat": 8.0,
      "duration_beat": 0.125,
      "velocity": 13,
      "track": 1
    },
    {
      "pitch": 76,
      "start_beat": 8.125,
      "duration_beat": 0.23645833333333321,
      "velocity": 33,
      "track": 0
    },
    {
      "pitch": 52,
      "start_beat": 8.125,
      "duration_beat": 0.11770833333333375,
      "velocity": 33,
      "track": 1
    },
    {
      "pitch": 81,
      "start_beat": 8.25,
      "duration_beat": 0.23645833333333321,
      "velocity": 33,
      "track": 0
    },
    {
      "pitch": 69,
      "start_beat": 8.25,
      "duration_beat": 0.125,
      "velocity": 13,
      "track": 0
    },
    {
      "pitch": 57,
      "start_beat": 8.25,
      "duration_beat": 0.11770833333333375,
      "velocity": 33,
      "track": 1
    },
    {
      "pitch": 52,
      "start_beat": 8.25,
      "duration_beat": 0.2354166666666675,
      "velocity": 33,
      "track": 1
    },
    {
      "pitch": 52,
      "start_beat": 8.25,
      "duration_beat": 0.2354166666666675,
      "velocity": 43,
      "track": 1
    },
    {
      "pitch": 56,
      "start_beat": 8.25,
      "duration_beat": 0.2354166666666675,
      "velocity": 43,
      "track": 1
    },
    {
      "pitch": 59,
      "start_beat": 8.25,
      "duration_beat": 0.2354166666666675,
      "velocity": 43,
      "track": 1
    },
    {
      "pitch": 52,
      "start_beat": 8.25,
      "duration_beat": 0.11770833333333375,
      "velocity": 33,
      "track": 1
    },
    {
      "pitch": 52,
      "start_beat": 8.25,
      "duration_beat": 0.125,
      "velocity": 13,
      "track": 1
    },
    {
      "pitch": 59,
      "start_beat": 8.375,
      "duration_beat": 0.11770833333333375,
      "velocity": 33,
      "track": 1
    },
    {
      "pitch": 64,
      "start_beat": 8.5,
      "duration_beat": 0.11770833333333375,
      "velocity": 33,
      "track": 1
    },
    {
      "pitch": 57,
      "start_beat": 8.5,
      "duration_beat": 0.2354166666666675,
      "velocity": 33,
      "track": 1
    },
    {
      "pitch": 57,
      "start_beat": 8.5,
      "duration_beat": 0.2354166666666675,
      "velocity": 43,
      "track": 1
    },
    {
      "pitch": 61,
      "start_beat": 8.5,
      "duration_beat": 0.2354166666666675,
      "velocity": 43,
      "track": 1
    },
    {
      "pitch": 64,
      "start_beat": 8.5,
      "duration_beat": 0.2354166666666675,
      "velocity": 43,
      "track": 1
    },
    {
      "pitch": 57,
      "start_beat": 8.5,
      "duration_beat": 0.11770833333333375,
      "velocity": 33,
      "track": 1
    },
    {
      "pitch": 57,
      "start_beat": 8.5,
      "duration_beat": 0.125,
      "velocity": 13,
      "track": 1
    },
    {
      "pitch": 64,
      "start_beat": 8.625,
      "duration_beat": 0.11770833333333375,
      "velocity": 33,
      "track": 1
    },
    {
      "pitch": 69,
      "start_beat": 8.75,
      "duration_beat": 0.11770833333333375,
      "velocity": 33,
      "track": 1
    },
    {
      "pitch": 60,
      "start_beat": 8.75,
      "duration_beat": 0.2354166666666675,
      "velocity": 33,
      "track": 0
    },
    {
      "pitch": 60,
      "start_beat": 8.75,
      "duration_beat": 0.2354166666666675,
      "velocity": 43,
      "track": 0
    },
    {
      "pitch": 64,
      "start_beat": 8.75,
      "duration_beat": 0.2354166666666675,
      "velocity": 43,
      "track": 0
    },
    {
      "pitch": 67,
      "start_beat": 8.75,
      "duration_beat": 0.2354166666666675,
      "velocity": 43,
      "track": 0
    },
    {
      "pitch": 60,
      "start_beat": 8.75,
      "duration_beat": 0.11770833333333375,
      "velocity": 33,
      "track": 0
    },
    {
      "pitch": 60,
      "start_beat": 8.75,
      "duration_beat": 0.125,
      "velocity": 13,
      "track": 0
    },
    {
      "pitch": 67,
      "start_beat": 8.875,
      "duration_beat": 0.11770833333333375,
      "velocity": 33,
      "track": 0
    },
    {
      "pitch": 72,
      "start_beat": 9.0,
      "duration_beat": 0.11770833333333375,
      "velocity": 33,
      "track": 0
    },
    {
      "pitch": 64,
      "start_beat": 9.0,
      "duration_beat": 0.2354166666666675,
      "velocity": 33,
      "track": 0
    },
    {
      "pitch": 64,
      "start_beat": 9.0,
      "duration_beat": 0.2354166666666675,
      "velocity": 43,
      "track": 0
    },
    {
      "pitch": 68,
      "start_beat": 9.0,
      "duration_beat": 0.2354166666666675,
      "velocity": 43,
      "track": 0
    },
    {
      "pitch": 71,
      "start_beat": 9.0,
      "duration_beat": 0.2354166666666675,
      "velocity": 43,
      "track": 0
    },
    {
      "pitch": 64,
      "start_beat": 9.0,
      "duration_beat": 0.11770833333333375,
      "velocity": 33,
      "track": 0
    },
    {
      "pitch": 64,
      "start_beat": 9.0,
      "duration_beat": 0.125,
      "velocity": 13,
      "track": 0
    },
    {
      "pitch": 71,
      "start_beat": 9.125,
      "duration_beat": 0.11770833333333375,
      "velocity": 33,
      "track": 0
    },
    {
      "pitch": 76,
      "start_beat": 9.25,
      "duration_beat": 0.11770833333333375,
      "velocity": 33,
      "track": 0
    },
    {
      "pitch": 69,
      "start_beat": 9.25,
      "duration_beat": 0.2354166666666675,
      "velocity": 33,
      "track": 0
    },
    {
      "pitch": 69,
      "start_beat": 9.25,
      "duration_beat": 0.2354166666666675,
      "velocity": 43,
      "track": 0
    },
    {
      "pitch": 73,
      "start_beat": 9.25,
      "duration_beat": 0.2354166666666675,
      "velocity": 43,
      "track": 0
    },
    {
      "pitch": 76,
      "start_beat": 9.25,
      "duration_beat": 0.2354166666666675,
      "velocity": 43,
      "track": 0
    },
    {
      "pitch": 69,
      "start_beat": 9.25,
      "duration_beat": 0.11770833333333375,
      "velocity": 33,
      "track": 0
    },
    {
      "pitch": 69,
      "start_beat": 9.25,
      "duration_beat": 0.125,
      "velocity": 13,
      "track": 0
    },
    {
      "pitch": 76,
      "start_beat": 9.375,
      "duration_beat": 0.11770833333333375,
      "velocity": 33,
      "track": 0
    },
    {
      "pitch": 81,
      "start_beat": 9.5,
      "duration_beat": 0.11770833333333375,
      "velocity": 33,
      "track": 0
    },
    {
      "pitch": 71,
      "start_beat": 9.5,
      "duration_beat": 0.47291666666666643,
      "velocity": 33,
      "track": 0
    },
    {
      "pitch": 71,
      "start_beat": 9.5,
      "duration_beat": 0.47291666666666643,
      "velocity": 43,
      "track": 0
    },
    {
      "pitch": 75,
      "start_beat": 9.5,
      "duration_beat": 0.47291666666666643,
      "velocity": 43,
      "track": 0
    },
    {
      "pitch": 78,
      "start_beat": 9.5,
      "duration_beat": 0.47291666666666643,
      "velocity": 43,
      "track": 0
    },
    {
      "pitch": 71,
      "start_beat": 9.5,
      "duration_beat": 0.23645833333333321,
      "velocity": 33,
      "track": 0
    },
    {
      "pitch": 71,
      "start_beat": 9.5,
      "duration_beat": 0.125,
      "velocity": 13,
      "track": 0
    },
    {
      "pitch": 40,
      "start_beat": 9.5,
      "duration_beat": 0.2354166666666675,
      "velocity": 33,
      "track": 1
    },
    {
      "pitch": 40,
      "start_beat": 9.5,
      "duration_beat": 0.2354166666666675,
      "velocity": 43,
      "track": 1
    },
    {
      "pitch": 44,
      "start_beat": 9.5,
      "duration_beat": 0.2354166666666675,
      "velocity": 43,
      "track": 1
    },
    {
      "pitch": 47,
      "start_beat": 9.5,
      "duration_beat": 0.2354166666666675,
      "velocity": 43,
      "track": 1
    },
    {
      "pitch": 40,
      "start_beat": 9.5,
      "duration_beat": 0.11770833333333375,
      "velocity": 33,
      "track": 1
    },
    {
      "pitch": 40,
      "start_beat": 9.5,
      "duration_beat": 0.125,
      "velocity": 13,
      "track": 1
    },
    {
      "pitch": 78,
      "start_beat": 9.625,
      "duration_beat": 0.23645833333333321,
      "velocity": 33,
      "track": 0
    },
    {
      "pitch": 47,
      "start_beat": 9.625,
      "duration_beat": 0.11770833333333375,
      "velocity": 33,
      "track": 1
    },
    {
      "pitch": 83,
      "start_beat": 9.75,
      "duration_beat": 0.23645833333333321,
      "velocity": 33,
      "track": 0
    },
    {
      "pitch": 71,
      "start_beat": 9.75,
      "duration_beat": 0.125,
      "velocity": 13,
      "track": 0
    },
    {
      "pitch": 52,
      "start_beat": 9.75,
      "duration_beat": 0.11770833333333375,
      "velocity": 33,
      "track": 1
    },
    {
      "pitch": 52,
      "start_beat": 9.75,
      "duration_beat": 0.2354166666666675,
      "velocity": 33,
      "track": 1
    },
    {
      "pitch": 52,
      "start_beat": 9.75,
      "duration_beat": 0.2354166666666675,
      "velocity": 43,
      "track": 1
    },
    {
      "pitch": 56,
      "start_beat": 9.75,
      "duration_beat": 0.2354166666666675,
      "velocity": 43,
      "track": 1
    },
    {
      "pitch": 59,
      "start_beat": 9.75,
      "duration_beat": 0.2354166666666675,
      "velocity": 43,
      "track": 1
    },
    {
      "pitch": 52,
      "start_beat": 9.75,
      "duration_beat": 0.11770833333333375,
      "velocity": 33,
      "track": 1
    },
    {
      "pitch": 52,
      "start_beat": 9.75,
      "duration_beat": 0.125,
      "velocity": 13,
      "track": 1
    },
    {
      "pitch": 59,
      "start_beat": 9.875,
      "duration_beat": 0.11770833333333375,
      "velocity": 33,
      "track": 1
    },
    {
      "pitch": 64,
      "start_beat": 10.0,
      "duration_beat": 0.11770833333333375,
      "velocity": 33,
      "track": 1
    },
    {
      "pitch": 56,
      "start_beat": 10.0,
      "duration_beat": 0.2354166666666675,
      "velocity": 33,
      "track": 1
    },
    {
      "pitch": 56,
      "start_beat": 10.0,
      "duration_beat": 0.2354166666666675,
      "velocity": 43,
      "track": 1
    },
    {
      "pitch": 60,
      "start_beat": 10.0,
      "duration_beat": 0.2354166666666675,
      "velocity": 43,
      "track": 1
    },
    {
      "pitch": 63,
      "start_beat": 10.0,
      "duration_beat": 0.2354166666666675,
      "velocity": 43,
      "track": 1
    },
    {
      "pitch": 56,
      "start_beat": 10.0,
      "duration_beat": 0.11770833333333375,
      "velocity": 33,
      "track": 1
    },
    {
      "pitch": 56,
      "start_beat": 10.0,
      "duration_beat": 0.125,
      "velocity": 13,
      "track": 1
    },
    {
      "pitch": 63,
      "start_beat": 10.125,
      "duration_beat": 0.11770833333333375,
      "velocity": 33,
      "track": 1
    },
    {
      "pitch": 68,
      "start_beat": 10.25,
      "duration_beat": 0.11770833333333375,
      "velocity": 33,
      "track": 1
    },
    {
      "pitch": 62,
      "start_beat": 10.25,
      "duration_beat": 0.2354166666666675,
      "velocity": 33,
      "track": 0
    },
    {
      "pitch": 62,
      "start_beat": 10.25,
      "duration_beat": 0.2354166666666675,
      "velocity": 43,
      "track": 0
    },
    {
      "pitch": 66,
      "start_beat": 10.25,
      "duration_beat": 0.2354166666666675,
      "velocity": 43,
      "track": 0
    },
    {
      "pitch": 69,
      "start_beat": 10.25,
      "duration_beat": 0.2354166666666675,
      "velocity": 43,
      "track": 0
    },
    {
      "pitch": 62,
      "start_beat": 10.25,
      "duration_beat": 0.11770833333333375,
      "velocity": 33,
      "track": 0
    },
    {
      "pitch": 62,
      "start_beat": 10.25,
      "duration_beat": 0.125,
      "velocity": 13,
      "track": 0
    },
    {
      "pitch": 69,
      "start_beat": 10.375,
      "duration_beat": 0.11770833333333375,
      "velocity": 33,
      "track": 0
    },
    {
      "pitch": 74,
      "start_beat": 10.5,
      "duration_beat": 0.11770833333333375,
      "velocity": 33,
      "track": 0
    },
    {
      "pitch": 72,
      "start_beat": 10.5,
      "duration_beat": 0.2354166666666675,
      "velocity": 33,
      "track": 0
    },
    {
      "pitch": 72,
      "start_beat": 10.5,
      "duration_beat": 0.2354166666666675,
      "velocity": 43,
      "track": 0
    },
    {
      "pitch": 76,
      "start_beat": 10.5,
      "duration_beat": 0.2354166666666675,
      "velocity": 43,
      "track": 0
    },
    {
      "pitch": 79,
      "start_beat": 10.5,
      "duration_beat": 0.2354166666666675,
      "velocity": 43,
      "track": 0
    },
    {
      "pitch": 72,
      "start_beat": 10.5,
      "duration_beat": 0.11770833333333375,
      "velocity": 33,
      "track": 0
    },
    {
      "pitch": 72,
      "start_beat": 10.5,
      "duration_beat": 0.125,
      "velocity": 13,
      "track": 0
    },
    {
      "pitch": 79,
      "start_beat": 10.625,
      "duration_beat": 0.11770833333333375,
      "velocity": 33,
      "track": 0
    },
    {
      "pitch": 84,
      "start_beat": 10.75,
      "duration_beat": 0.11770833333333375,
      "velocity": 33,
      "track": 0
    },
    {
      "pitch": 71,
      "start_beat": 10.75,
      "duration_beat": 0.2354166666666675,
      "velocity": 33,
      "track": 0
    },
    {
      "pitch": 71,
      "start_beat": 10.75,
      "duration_beat": 0.2354166666666675,
      "velocity": 43,
      "track": 0
    },
    {
      "pitch": 75,
      "start_beat": 10.75,
      "duration_beat": 0.2354166666666675,
      "velocity": 43,
      "track": 0
    },
    {
      "pitch": 78,
      "start_beat": 10.75,
      "duration_beat": 0.2354166666666675,
      "velocity": 43,
      "track": 0
    },
    {
      "pitch": 71,
      "start_beat": 10.75,
      "duration_beat": 0.11770833333333375,
      "velocity": 33,
      "track": 0
    },
    {
      "pitch": 71,
      "start_beat": 10.75,
      "duration_beat": 0.125,
      "velocity": 13,
      "track": 0
    },
    {
      "pitch": 78,
      "start_beat": 10.875,
      "duration_beat": 0.11770833333333375,
      "velocity": 33,
      "track": 0
    },
    {
      "pitch": 83,
      "start_beat": 11.0,
      "duration_beat": 0.11770833333333375,
      "velocity": 33,
      "track": 0
    },
    {
      "pitch": 69,
      "start_beat": 11.0,
      "duration_beat": 0.9479166666666661,
      "velocity": 33,
      "track": 0
    },
    {
      "pitch": 69,
      "start_beat": 11.0,
      "duration_beat": 0.9479166666666661,
      "velocity": 43,
      "track": 0
    },
    {
      "pitch": 73,
      "start_beat": 11.0,
      "duration_beat": 0.9479166666666661,
      "velocity": 43,
      "track": 0
    },
    {
      "pitch": 76,
      "start_beat": 11.0,
      "duration_beat": 0.9479166666666661,
      "velocity": 43,
      "track": 0
    },
    {
      "pitch": 69,
      "start_beat": 11.0,
      "duration_beat": 0.47395833333333304,
      "velocity": 33,
      "track": 0
    },
    {
      "pitch": 69,
      "start_beat": 11.0,
      "duration_beat": 0.125,
      "velocity": 13,
      "track": 0
    },
    {
      "pitch": 45,
      "start_beat": 11.0,
      "duration_beat": 0.2354166666666675,
      "velocity": 33,
      "track": 1
    },
    {
      "pitch": 45,
      "start_beat": 11.0,
      "duration_beat": 0.2354166666666675,
      "velocity": 43,
      "track": 1
    },
    {
      "pitch": 49,
      "start_beat": 11.0,
      "duration_beat": 0.2354166666666675,
      "velocity": 43,
      "track": 1
    },
    {
      "pitch": 52,
      "start_beat": 11.0,
      "duration_beat": 0.2354166666666675,
      "velocity": 43,
      "track": 1
    },
    {
      "pitch": 45,
      "start_beat": 11.0,
      "duration_beat": 0.11770833333333375,
      "velocity": 33,
      "track": 1
    },
    {
      "pitch": 45,
      "start_beat": 11.0,
      "duration_beat": 0.125,
      "velocity": 13,
      "track": 1
    },
    {
      "pitch": 76,
      "start_beat": 11.125,
      "duration_beat": 0.47395833333333304,
      "velocity": 33,
      "track": 0
    },
    {
      "pitch": 52,
      "start_beat": 11.125,
      "duration_beat": 0.11770833333333375,
      "velocity": 33,
      "track": 1
    },
    {
      "pitch": 81,
      "start_beat": 11.25,
      "duration_beat": 0.47395833333333304,
      "velocity": 33,
      "track": 0
    },
    {
      "pitch": 69,
      "start_beat": 11.25,
      "duration_beat": 0.125,
      "velocity": 13,
      "track": 0
    },
    {
      "pitch": 57,
      "start_beat": 11.25,
      "duration_beat": 0.11770833333333375,
      "velocity": 33,
      "track": 1
    },
    {
      "pitch": 52,
      "start_beat": 11.25,
      "duration_beat": 0.2354166666666675,
      "velocity": 33,
      "track": 1
    },
    {
      "pitch": 52,
      "start_beat": 11.25,
      "duration_beat": 0.2354166666666675,
      "velocity": 43,
      "track": 1
    },
    {
      "pitch": 56,
      "start_beat": 11.25,
      "duration_beat": 0.2354166666666675,
      "velocity": 43,
      "track": 1
    },
    {
      "pitch": 59,
      "start_beat": 11.25,
      "duration_beat": 0.2354166666666675,
      "velocity": 43,
      "track": 1
    },
    {
      "pitch": 52,
      "start_beat": 11.25,
      "duration_beat": 0.11770833333333375,
      "velocity": 33,
      "track": 1
    },
    {
      "pitch": 52,
      "start_beat": 11.25,
      "duration_beat": 0.125,
      "velocity": 13,
      "track": 1
    },
    {
      "pitch": 59,
      "start_beat": 11.375,
      "duration_beat": 0.11770833333333375,
      "velocity": 33,
      "track": 1
    },
    {
      "pitch": 69,
      "start_beat": 11.5,
      "duration_beat": 0.125,
      "velocity": 13,
      "track": 0
    },
    {
      "pitch": 64,
      "start_beat": 11.5,
      "duration_beat": 0.11770833333333375,
      "velocity": 33,
      "track": 1
    },
    {
      "pitch": 57,
      "start_beat": 11.5,
      "duration_beat": 0.2354166666666675,
      "velocity": 33,
      "track": 1
    },
    {
      "pitch": 57,
      "start_beat": 11.5,
      "duration_beat": 0.2354166666666675,
      "velocity": 43,
      "track": 1
    },
    {
      "pitch": 61,
      "start_beat": 11.5,
      "duration_beat": 0.2354166666666675,
      "velocity": 43,
      "track": 1
    },
    {
      "pitch": 64,
      "start_beat": 11.5,
      "duration_beat": 0.2354166666666675,
      "velocity": 43,
      "track": 1
    },
    {
      "pitch": 57,
      "start_beat": 11.5,
      "duration_beat": 0.11770833333333375,
      "velocity": 33,
      "track": 1
    },
    {
      "pitch": 57,
      "start_beat": 11.5,
      "duration_beat": 0.125,
      "velocity": 13,
      "track": 1
    },
    {
      "pitch": 64,
      "start_beat": 11.625,
      "duration_beat": 0.11770833333333375,
      "velocity": 33,
      "track": 1
    },
    {
      "pitch": 69,
      "start_beat": 11.75,
      "duration_beat": 0.125,
      "velocity": 13,
      "track": 0
    },
    {
      "pitch": 69,
      "start_beat": 11.75,
      "duration_beat": 0.11770833333333375,
      "velocity": 33,
      "track": 1
    },
    {
      "pitch": 76,
      "start_beat": 12.0,
      "duration_beat": 0.2354166666666675,
      "velocity": 33,
      "track": 0
    },
    {
      "pitch": 76,
      "start_beat": 12.0,
      "duration_beat": 0.2354166666666675,
      "velocity": 43,
      "track": 0
    },
    {
      "pitch": 80,
      "start_beat": 12.0,
      "duration_beat": 0.2354166666666675,
      "velocity": 43,
      "track": 0
    },
    {
      "pitch": 83,
      "start_beat": 12.0,
      "duration_beat": 0.2354166666666675,
      "velocity": 43,
      "track": 0
    },
    {
      "pitch": 76,
      "start_beat": 12.0,
      "duration_beat": 0.11770833333333375,
      "velocity": 33,
      "track": 0
    },
    {
      "pitch": 76,
      "start_beat": 12.0,
      "duration_beat": 0.125,
      "velocity": 13,
      "track": 0
    },
    {
      "pitch": 83,
      "start_beat": 12.125,
      "duration_beat": 0.11770833333333375,
      "velocity": 33,
      "track": 0
    },
    {
      "pitch": 88,
      "start_beat": 12.25,
      "duration_beat": 0.11770833333333375,
      "velocity": 33,
      "track": 0
    },
    {
      "pitch": 75,
      "start_beat": 12.25,
      "duration_beat": 0.2354166666666675,
      "velocity": 33,
      "track": 0
    },
    {
      "pitch": 75,
      "start_beat": 12.25,
      "duration_beat": 0.2354166666666675,
      "velocity": 43,
      "track": 0
    },
    {
      "pitch": 79,
      "start_beat": 12.25,
      "duration_beat": 0.2354166666666675,
      "velocity": 43,
      "track": 0
    },
    {
      "pitch": 82,
      "start_beat": 12.25,
      "duration_beat": 0.2354166666666675,
      "velocity": 43,
      "track": 0
    },
    {
      "pitch": 75,
      "start_beat": 12.25,
      "duration_beat": 0.11770833333333375,
      "velocity": 33,
      "track": 0
    },
    {
      "pitch": 75,
      "start_beat": 12.25,
      "duration_beat": 0.125,
      "velocity": 13,
      "track": 0
    },
    {
      "pitch": 82,
      "start_beat": 12.375,
      "duration_beat": 0.11770833333333375,
      "velocity": 33,
      "track": 0
    },
    {
      "pitch": 87,
      "start_beat": 12.5,
      "duration_beat": 0.11770833333333375,
      "velocity": 33,
      "track": 0
    },
    {
      "pitch": 76,
      "start_beat": 12.5,
      "duration_beat": 0.2354166666666675,
      "velocity": 33,
      "track": 0
    },
    {
      "pitch": 76,
      "start_beat": 12.5,
      "duration_beat": 0.2354166666666675,
      "velocity": 43,
      "track": 0
    },
    {
      "pitch": 80,
      "start_beat": 12.5,
      "duration_beat": 0.2354166666666675,
      "velocity": 43,
      "track": 0
    },
    {
      "pitch": 83,
      "start_beat": 12.5,
      "duration_beat": 0.2354166666666675,
      "velocity": 43,
      "track": 0
    },
    {
      "pitch": 76,
      "start_beat": 12.5,
      "duration_beat": 0.11770833333333375,
      "velocity": 33,
      "track": 0
    },
    {
      "pitch": 76,
      "start_beat": 12.5,
      "duration_beat": 0.125,
      "velocity": 13,
      "track": 0
    },
    {
      "pitch": 83,
      "start_beat": 12.625,
      "duration_beat": 0.11770833333333375,
      "velocity": 33,
      "track": 0
    },
    {
      "pitch": 88,
      "start_beat": 12.75,
      "duration_beat": 0.11770833333333375,
      "velocity": 33,
      "track": 0
    },
    {
      "pitch": 75,
      "start_beat": 12.75,
      "duration_beat": 0.2354166666666675,
      "velocity": 33,
      "track": 0
    },
    {
      "pitch": 75,
      "start_beat": 12.75,
      "duration_beat": 0.2354166666666675,
      "velocity": 43,
      "track": 0
    },
    {
      "pitch": 79,
      "start_beat": 12.75,
      "duration_beat": 0.2354166666666675,
      "velocity": 43,
      "track": 0
    },
    {
      "pitch": 82,
      "start_beat": 12.75,
      "duration_beat": 0.2354166666666675,
      "velocity": 43,
      "track": 0
    },
    {
      "pitch": 75,
      "start_beat": 12.75,
      "duration_beat": 0.11770833333333375,
      "velocity": 33,
      "track": 0
    },
    {
      "pitch": 75,
      "start_beat": 12.75,
      "duration_beat": 0.125,
      "velocity": 13,
      "track": 0
    },
    {
      "pitch": 82,
      "start_beat": 12.875,
      "duration_beat": 0.11770833333333375,
      "velocity": 33,
      "track": 0
    },
    {
      "pitch": 87,
      "start_beat": 13.0,
      "duration_beat": 0.11770833333333375,
      "velocity": 33,
      "track": 0
    },
    {
      "pitch": 76,
      "start_beat": 13.0,
      "duration_beat": 0.2354166666666675,
      "velocity": 33,
      "track": 0
    },
    {
      "pitch": 76,
      "start_beat": 13.0,
      "duration_beat": 0.2354166666666675,
      "velocity": 43,
      "track": 0
    },
    {
      "pitch": 80,
      "start_beat": 13.0,
      "duration_beat": 0.2354166666666675,
      "velocity": 43,
      "track": 0
    },
    {
      "pitch": 83,
      "start_beat": 13.0,
      "duration_beat": 0.2354166666666675,
      "velocity": 43,
      "track": 0
    },
    {
      "pitch": 76,
      "start_beat": 13.0,
      "duration_beat": 0.11770833333333375,
      "velocity": 33,
      "track": 0
    },
    {
      "pitch": 76,
      "start_beat": 13.0,
      "duration_beat": 0.125,
      "velocity": 13,
      "track": 0
    },
    {
      "pitch": 83,
      "start_beat": 13.125,
      "duration_beat": 0.11770833333333375,
      "velocity": 33,
      "track": 0
    },
    {
      "pitch": 88,
      "start_beat": 13.25,
      "duration_beat": 0.11770833333333375,
      "velocity": 33,
      "track": 0
    },
    {
      "pitch": 71,
      "start_beat": 13.25,
      "duration_beat": 0.2354166666666675,
      "velocity": 33,
      "track": 0
    },
    {
      "pitch": 71,
      "start_beat": 13.25,
      "duration_beat": 0.2354166666666675,
      "velocity": 43,
      "track": 0
    },
    {
      "pitch": 75,
      "start_beat": 13.25,
      "duration_beat": 0.2354166666666675,
      "velocity": 43,
      "track": 0
    },
    {
      "pitch": 78,
      "start_beat": 13.25,
      "duration_beat": 0.2354166666666675,
      "velocity": 43,
      "track": 0
    },
    {
      "pitch": 71,
      "start_beat": 13.25,
      "duration_beat": 0.11770833333333375,
      "velocity": 33,
      "track": 0
    },
    {
      "pitch": 71,
      "start_beat": 13.25,
      "duration_beat": 0.125,
      "velocity": 13,
      "track": 0
    },
    {
      "pitch": 78,
      "start_beat": 13.375,
      "duration_beat": 0.11770833333333375,
      "velocity": 33,
      "track": 0
    },
    {
      "pitch": 83,
      "start_beat": 13.5,
      "duration_beat": 0.11770833333333375,
      "velocity": 33,
      "track": 0
    },
    {
      "pitch": 74,
      "start_beat": 13.5,
      "duration_beat": 0.2354166666666675,
      "velocity": 33,
      "track": 0
    },
    {
      "pitch": 74,
      "start_beat": 13.5,
      "duration_beat": 0.2354166666666675,
      "velocity": 43,
      "track": 0
    },
    {
      "pitch": 78,
      "start_beat": 13.5,
      "duration_beat": 0.2354166666666675,
      "velocity": 43,
      "track": 0
    },
    {
      "pitch": 81,
      "start_beat": 13.5,
      "duration_beat": 0.2354166666666675,
      "velocity": 43,
      "track": 0
    },
    {
      "pitch": 74,
      "start_beat": 13.5,
      "duration_beat": 0.11770833333333375,
      "velocity": 33,
      "track": 0
    },
    {
      "pitch": 74,
      "start_beat": 13.5,
      "duration_beat": 0.125,
      "velocity": 13,
      "track": 0
    },
    {
      "pitch": 81,
      "start_beat": 13.625,
      "duration_beat": 0.11770833333333375,
      "velocity": 33,
      "track": 0
    },
    {
      "pitch": 86,
      "start_beat": 13.75,
      "duration_beat": 0.11770833333333375,
      "velocity": 33,
      "track": 0
    },
    {
      "pitch": 72,
      "start_beat": 13.75,
      "duration_beat": 0.2354166666666675,
      "velocity": 33,
      "track": 0
    },
    {
      "pitch": 72,
      "start_beat": 13.75,
      "duration_beat": 0.2354166666666675,
      "velocity": 43,
      "track": 0
    },
    {
      "pitch": 76,
      "start_beat": 13.75,
      "duration_beat": 0.2354166666666675,
      "velocity": 43,
      "track": 0
    },
    {
      "pitch": 79,
      "start_beat": 13.75,
      "duration_beat": 0.2354166666666675,
      "velocity": 43,
      "track": 0
    },
    {
      "pitch": 72,
      "start_beat": 13.75,
      "duration_beat": 0.11770833333333375,
      "velocity": 33,
      "track": 0
    },
    {
      "pitch": 72,
      "start_beat": 13.75,
      "duration_beat": 0.125,
      "velocity": 13,
      "track": 0
    },
    {
      "pitch": 79,
      "start_beat": 13.875,
      "duration_beat": 0.11770833333333375,
      "velocity": 33,
      "track": 0
    },
    {
      "pitch": 84,
      "start_beat": 14.0,
      "duration_beat": 0.11770833333333375,
      "velocity": 33,
      "track": 0
    },
    {
      "pitch": 69,
      "start_beat": 14.0,
      "duration_beat": 0.47291666666666643,
      "velocity": 33,
      "track": 0
    },
    {
      "pitch": 69,
      "start_beat": 14.0,
      "duration_beat": 0.47291666666666643,
      "velocity": 43,
      "track": 0
    },
    {
      "pitch": 73,
      "start_beat": 14.0,
      "duration_beat": 0.47291666666666643,
      "velocity": 43,
      "track": 0
    },
    {
      "pitch": 76,
      "start_beat": 14.0,
      "duration_beat": 0.47291666666666643,
      "velocity": 43,
      "track": 0
    },
    {
      "pitch": 69,
      "start_beat": 14.0,
      "duration_beat": 0.23645833333333321,
      "velocity": 33,
      "track": 0
    },
    {
      "pitch": 69,
      "start_beat": 14.0,
      "duration_beat": 0.125,
      "velocity": 13,
      "track": 0
    },
    {
      "pitch": 45,
      "start_beat": 14.0,
      "duration_beat": 0.2354166666666675,
      "velocity": 33,
      "track": 1
    },
    {
      "pitch": 45,
      "start_beat": 14.0,
      "duration_beat": 0.2354166666666675,
      "velocity": 43,
      "track": 1
    },
    {
      "pitch": 49,
      "start_beat": 14.0,
      "duration_beat": 0.2354166666666675,
      "velocity": 43,
      "track": 1
    },
    {
      "pitch": 52,
      "start_beat": 14.0,
      "duration_beat": 0.2354166666666675,
      "velocity": 43,
      "track": 1
    },
    {
      "pitch": 45,
      "start_beat": 14.0,
      "duration_beat": 0.11770833333333375,
      "velocity": 33,
      "track": 1
    },
    {
      "pitch": 45,
      "start_beat": 14.0,
      "duration_beat": 0.125,
      "velocity": 13,
      "track": 1
    },
    {
      "pitch": 76,
      "start_beat": 14.125,
      "duration_beat": 0.23645833333333321,
      "velocity": 33,
      "track": 0
    },
    {
      "pitch": 52,
      "start_beat": 14.125,
      "duration_beat": 0.11770833333333375,
      "velocity": 33,
      "track": 1
    },
    {
      "pitch": 81,
      "start_beat": 14.25,
      "duration_beat": 0.23645833333333321,
      "velocity": 33,
      "track": 0
    },
    {
      "pitch": 69,
      "start_beat": 14.25,
      "duration_beat": 0.125,
      "velocity": 13,
      "track": 0
    },
    {
      "pitch": 57,
      "start_beat": 14.25,
      "duration_beat": 0.11770833333333375,
      "velocity": 33,
      "track": 1
    },
    {
      "pitch": 52,
      "start_beat": 14.25,
      "duration_beat": 0.2354166666666675,
      "velocity": 33,
      "track": 1
    },
    {
      "pitch": 52,
      "start_beat": 14.25,
      "duration_beat": 0.2354166666666675,
      "velocity": 43,
      "track": 1
    },
    {
      "pitch": 56,
      "start_beat": 14.25,
      "duration_beat": 0.2354166666666675,
      "velocity": 43,
      "track": 1
    },
    {
      "pitch": 59,
      "start_beat": 14.25,
      "duration_beat": 0.2354166666666675,
      "velocity": 43,
      "track": 1
    },
    {
      "pitch": 52,
      "start_beat": 14.25,
      "duration_beat": 0.11770833333333375,
      "velocity": 33,
      "track": 1
    },
    {
      "pitch": 52,
      "start_beat": 14.25,
      "duration_beat": 0.125,
      "velocity": 13,
      "track": 1
    },
    {
      "pitch": 59,
      "start_beat": 14.375,
      "duration_beat": 0.11770833333333375,
      "velocity": 33,
      "track": 1
    },
    {
      "pitch": 64,
      "start_beat": 14.5,
      "duration_beat": 0.11770833333333375,
      "velocity": 33,
      "track": 1
    },
    {
      "pitch": 57,
      "start_beat": 14.5,
      "duration_beat": 0.2354166666666675,
      "velocity": 33,
      "track": 1
    },
    {
      "pitch": 57,
      "start_beat": 14.5,
      "duration_beat": 0.2354166666666675,
      "velocity": 43,
      "track": 1
    },
    {
      "pitch": 61,
      "start_beat": 14.5,
      "duration_beat": 0.2354166666666675,
      "velocity": 43,
      "track": 1
    },
    {
      "pitch": 64,
      "start_beat": 14.5,
      "duration_beat": 0.2354166666666675,
      "velocity": 43,
      "track": 1
    },
    {
      "pitch": 57,
      "start_beat": 14.5,
      "duration_beat": 0.11770833333333375,
      "velocity": 33,
      "track": 1
    },
    {
      "pitch": 57,
      "start_beat": 14.5,
      "duration_beat": 0.125,
      "velocity": 13,
      "track": 1
    },
    {
      "pitch": 64,
      "start_beat": 14.625,
      "duration_beat": 0.11770833333333375,
      "velocity": 33,
      "track": 1
    },
    {
      "pitch": 69,
      "start_beat": 14.75,
      "duration_beat": 0.11770833333333375,
      "velocity": 33,
      "track": 1
    },
    {
      "pitch": 60,
      "start_beat": 14.75,
      "duration_beat": 0.2354166666666675,
      "velocity": 33,
      "track": 0
    },
    {
      "pitch": 60,
      "start_beat": 14.75,
      "duration_beat": 0.2354166666666675,
      "velocity": 43,
      "track": 0
    },
    {
      "pitch": 64,
      "start_beat": 14.75,
      "duration_beat": 0.2354166666666675,
      "velocity": 43,
      "track": 0
    },
    {
      "pitch": 67,
      "start_beat": 14.75,
      "duration_beat": 0.2354166666666675,
      "velocity": 43,
      "track": 0
    },
    {
      "pitch": 60,
      "start_beat": 14.75,
      "duration_beat": 0.11770833333333375,
      "velocity": 33,
      "track": 0
    },
    {
      "pitch": 60,
      "start_beat": 14.75,
      "duration_beat": 0.125,
      "velocity": 13,
      "track": 0
    },
    {
      "pitch": 67,
      "start_beat": 14.875,
      "duration_beat": 0.11770833333333375,
      "velocity": 33,
      "track": 0
    },
    {
      "pitch": 72,
      "start_beat": 15.0,
      "duration_beat": 0.11770833333333375,
      "velocity": 33,
      "track": 0
    },
    {
      "pitch": 64,
      "start_beat": 15.0,
      "duration_beat": 0.2354166666666675,
      "velocity": 33,
      "track": 0
    },
    {
      "pitch": 64,
      "start_beat": 15.0,
      "duration_beat": 0.2354166666666675,
      "velocity": 43,
      "track": 0
    },
    {
      "pitch": 68,
      "start_beat": 15.0,
      "duration_beat": 0.2354166666666675,
      "velocity": 43,
      "track": 0
    },
    {
      "pitch": 71,
      "start_beat": 15.0,
      "duration_beat": 0.2354166666666675,
      "velocity": 43,
      "track": 0
    },
    {
      "pitch": 64,
      "start_beat": 15.0,
      "duration_beat": 0.11770833333333375,
      "velocity": 33,
      "track": 0
    },
    {
      "pitch": 64,
      "start_beat": 15.0,
      "duration_beat": 0.125,
      "velocity": 13,
      "track": 0
    },
    {
      "pitch": 71,
      "start_beat": 15.125,
      "duration_beat": 0.11770833333333375,
      "velocity": 33,
      "track": 0
    },
    {
      "pitch": 76,
      "start_beat": 15.25,
      "duration_beat": 0.11770833333333375,
      "velocity": 33,
      "track": 0
    },
    {
      "pitch": 69,
      "start_beat": 15.25,
      "duration_beat": 0.2354166666666675,
      "velocity": 33,
      "track": 0
    },
    {
      "pitch": 69,
      "start_beat": 15.25,
      "duration_beat": 0.2354166666666675,
      "velocity": 43,
      "track": 0
    },
    {
      "pitch": 73,
      "start_beat": 15.25,
      "duration_beat": 0.2354166666666675,
      "velocity": 43,
      "track": 0
    },
    {
      "pitch": 76,
      "start_beat": 15.25,
      "duration_beat": 0.2354166666666675,
      "velocity": 43,
      "track": 0
    },
    {
      "pitch": 69,
      "start_beat": 15.25,
      "duration_beat": 0.11770833333333375,
      "velocity": 33,
      "track": 0
    },
    {
      "pitch": 69,
      "start_beat": 15.25,
      "duration_beat": 0.125,
      "velocity": 13,
      "track": 0
    },
    {
      "pitch": 76,
      "start_beat": 15.375,
      "duration_beat": 0.11770833333333375,
      "velocity": 33,
      "track": 0
    },
    {
      "pitch": 81,
      "start_beat": 15.5,
      "duration_beat": 0.11770833333333375,
      "velocity": 33,
      "track": 0
    },
    {
      "pitch": 71,
      "start_beat": 15.5,
      "duration_beat": 0.47291666666666643,
      "velocity": 33,
      "track": 0
    },
    {
      "pitch": 71,
      "start_beat": 15.5,
      "duration_beat": 0.47291666666666643,
      "velocity": 43,
      "track": 0
    },
    {
      "pitch": 75,
      "start_beat": 15.5,
      "duration_beat": 0.47291666666666643,
      "velocity": 43,
      "track": 0
    },
    {
      "pitch": 78,
      "start_beat": 15.5,
      "duration_beat": 0.47291666666666643,
      "velocity": 43,
      "track": 0
    },
    {
      "pitch": 71,
      "start_beat": 15.5,
      "duration_beat": 0.23645833333333321,
      "velocity": 33,
      "track": 0
    },
    {
      "pitch": 71,
      "start_beat": 15.5,
      "duration_beat": 0.125,
      "velocity": 13,
      "track": 0
    },
    {
      "pitch": 40,
      "start_beat": 15.5,
      "duration_beat": 0.2354166666666675,
      "velocity": 33,
      "track": 1
    },
    {
      "pitch": 40,
      "start_beat": 15.5,
      "duration_beat": 0.2354166666666675,
      "velocity": 43,
      "track": 1
    },
    {
      "pitch": 44,
      "start_beat": 15.5,
      "duration_beat": 0.2354166666666675,
      "velocity": 43,
      "track": 1
    },
    {
      "pitch": 47,
      "start_beat": 15.5,
      "duration_beat": 0.2354166666666675,
      "velocity": 43,
      "track": 1
    },
    {
      "pitch": 40,
      "start_beat": 15.5,
      "duration_beat": 0.11770833333333375,
      "velocity": 33,
      "track": 1
    },
    {
      "pitch": 40,
      "start_beat": 15.5,
      "duration_beat": 0.125,
      "velocity": 13,
      "track": 1
    },
    {
      "pitch": 78,
      "start_beat": 15.625,
      "duration_beat": 0.23645833333333321,
      "velocity": 33,
      "track": 0
    },
    {
      "pitch": 47,
      "start_beat": 15.625,
      "duration_beat": 0.11770833333333375,
      "velocity": 33,
      "track": 1
    },
    {
      "pitch": 83,
      "start_beat": 15.75,
      "duration_beat": 0.23645833333333321,
      "velocity": 33,
      "track": 0
    },
    {
      "pitch": 71,
      "start_beat": 15.75,
      "duration_beat": 0.125,
      "velocity": 13,
      "track": 0
    },
    {
      "pitch": 52,
      "start_beat": 15.75,
      "duration_beat": 0.11770833333333375,
      "velocity": 33,
      "track": 1
    },
    {
      "pitch": 52,
      "start_beat": 15.75,
      "duration_beat": 0.2354166666666675,
      "velocity": 33,
      "track": 1
    },
    {
      "pitch": 52,
      "start_beat": 15.75,
      "duration_beat": 0.2354166666666675,
      "velocity": 43,
      "track": 1
    },
    {
      "pitch": 56,
      "start_beat": 15.75,
      "duration_beat": 0.2354166666666675,
      "velocity": 43,
      "track": 1
    },
    {
      "pitch": 59,
      "start_beat": 15.75,
      "duration_beat": 0.2354166666666675,
      "velocity": 43,
      "track": 1
    },
    {
      "pitch": 52,
      "start_beat": 15.75,
      "duration_beat": 0.11770833333333375,
      "velocity": 33,
      "track": 1
    },
    {
      "pitch": 52,
      "start_beat": 15.75,
      "duration_beat": 0.125,
      "velocity": 13,
      "track": 1
    },
    {
      "pitch": 59,
      "start_beat": 15.875,
      "duration_beat": 0.11770833333333375,
      "velocity": 33,
      "track": 1
    },
    {
      "pitch": 64,
      "start_beat": 16.0,
      "duration_beat": 0.11770833333333375,
      "velocity": 33,
      "track": 1
    },
    {
      "pitch": 56,
      "start_beat": 16.0,
      "duration_beat": 0.23541666666666572,
      "velocity": 33,
      "track": 1
    },
    {
      "pitch": 56,
      "start_beat": 16.0,
      "duration_beat": 0.23541666666666572,
      "velocity": 43,
      "track": 1
    },
    {
      "pitch": 60,
      "start_beat": 16.0,
      "duration_beat": 0.23541666666666572,
      "velocity": 43,
      "track": 1
    },
    {
      "pitch": 63,
      "start_beat": 16.0,
      "duration_beat": 0.23541666666666572,
      "velocity": 43,
      "track": 1
    },
    {
      "pitch": 56,
      "start_beat": 16.0,
      "duration_beat": 0.11770833333333286,
      "velocity": 33,
      "track": 1
    },
    {
      "pitch": 56,
      "start_beat": 16.0,
      "duration_beat": 0.125,
      "velocity": 13,
      "track": 1
    },
    {
      "pitch": 63,
      "start_beat": 16.125,
      "duration_beat": 0.11770833333333286,
      "velocity": 33,
      "track": 1
    },
    {
      "pitch": 68,
      "start_beat": 16.25,
      "duration_beat": 0.11770833333333286,
      "velocity": 33,
      "track": 1
    },
    {
      "pitch": 64,
      "start_beat": 16.25,
      "duration_beat": 0.23541666666666572,
      "velocity": 33,
      "track": 0
    },
    {
      "pitch": 64,
      "start_beat": 16.25,
      "duration_beat": 0.23541666666666572,
      "velocity": 43,
      "track": 0
    },
    {
      "pitch": 68,
      "start_beat": 16.25,
      "duration_beat": 0.23541666666666572,
      "velocity": 43,
      "track": 0
    },
    {
      "pitch": 71,
      "start_beat": 16.25,
      "duration_beat": 0.23541666666666572,
      "velocity": 43,
      "track": 0
    },
    {
      "pitch": 64,
      "start_beat": 16.25,
      "duration_beat": 0.11770833333333286,
      "velocity": 33,
      "track": 0
    },
    {
      "pitch": 64,
      "start_beat": 16.25,
      "duration_beat": 0.125,
      "velocity": 13,
      "track": 0
    },
    {
      "pitch": 71,
      "start_beat": 16.375,
      "duration_beat": 0.11770833333333286,
      "velocity": 33,
      "track": 0
    },
    {
      "pitch": 76,
      "start_beat": 16.5,
      "duration_beat": 0.11770833333333286,
      "velocity": 33,
      "track": 0
    },
    {
      "pitch": 68,
      "start_beat": 16.5,
      "duration_beat": 0.23541666666666572,
      "velocity": 33,
      "track": 0
    },
    {
      "pitch": 68,
      "start_beat": 16.5,
      "duration_beat": 0.23541666666666572,
      "velocity": 43,
      "track": 0
    },
    {
      "pitch": 72,
      "start_beat": 16.5,
      "duration_beat": 0.23541666666666572,
      "velocity": 43,
      "track": 0
    },
    {
      "pitch": 75,
      "start_beat": 16.5,
      "duration_beat": 0.23541666666666572,
      "velocity": 43,
      "track": 0
    },
    {
      "pitch": 68,
      "start_beat": 16.5,
      "duration_beat": 0.11770833333333286,
      "velocity": 33,
      "track": 0
    },
    {
      "pitch": 68,
      "start_beat": 16.5,
      "duration_beat": 0.125,
      "velocity": 13,
      "track": 0
    },
    {
      "pitch": 75,
      "start_beat": 16.625,
      "duration_beat": 0.11770833333333286,
      "velocity": 33,
      "track": 0
    },
    {
      "pitch": 80,
      "start_beat": 16.75,
      "duration_beat": 0.11770833333333286,
      "velocity": 33,
      "track": 0
    },
    {
      "pitch": 71,
      "start_beat": 16.75,
      "duration_beat": 0.23541666666666572,
      "velocity": 33,
      "track": 0
    },
    {
      "pitch": 71,
      "start_beat": 16.75,
      "duration_beat": 0.23541666666666572,
      "velocity": 43,
      "track": 0
    },
    {
      "pitch": 75,
      "start_beat": 16.75,
      "duration_beat": 0.23541666666666572,
      "velocity": 43,
      "track": 0
    },
    {
      "pitch": 78,
      "start_beat": 16.75,
      "duration_beat": 0.23541666666666572,
      "velocity": 43,
      "track": 0
    },
    {
      "pitch": 71,
      "start_beat": 16.75,
      "duration_beat": 0.11770833333333286,
      "velocity": 33,
      "track": 0
    },
    {
      "pitch": 71,
      "start_beat": 16.75,
      "duration_beat": 0.125,
      "velocity": 13,
      "track": 0
    },
    {
      "pitch": 78,
      "start_beat": 16.875,
      "duration_beat": 0.11770833333333286,
      "velocity": 33,
      "track": 0
    },
    {
      "pitch": 83,
      "start_beat": 17.0,
      "duration_beat": 0.11770833333333286,
      "velocity": 33,
      "track": 0
    },
    {
      "pitch": 72,
      "start_beat": 17.0,
      "duration_beat": 0.47291666666666643,
      "velocity": 33,
      "track": 0
    },
    {
      "pitch": 72,
      "start_beat": 17.0,
      "duration_beat": 0.47291666666666643,
      "velocity": 43,
      "track": 0
    },
    {
      "pitch": 76,
      "start_beat": 17.0,
      "duration_beat": 0.47291666666666643,
      "velocity": 43,
      "track": 0
    },
    {
      "pitch": 79,
      "start_beat": 17.0,
      "duration_beat": 0.47291666666666643,
      "velocity": 43,
      "track": 0
    },
    {
      "pitch": 72,
      "start_beat": 17.0,
      "duration_beat": 0.23645833333333321,
      "velocity": 33,
      "track": 0
    },
    {
      "pitch": 72,
      "start_beat": 17.0,
      "duration_beat": 0.125,
      "velocity": 13,
      "track": 0
    },
    {
      "pitch": 45,
      "start_beat": 17.0,
      "duration_beat": 0.23541666666666572,
      "velocity": 33,
      "track": 1
    },
    {
      "pitch": 45,
      "start_beat": 17.0,
      "duration_beat": 0.23541666666666572,
      "velocity": 43,
      "track": 1
    },
    {
      "pitch": 49,
      "start_beat": 17.0,
      "duration_beat": 0.23541666666666572,
      "velocity": 43,
      "track": 1
    },
    {
      "pitch": 52,
      "start_beat": 17.0,
      "duration_beat": 0.23541666666666572,
      "velocity": 43,
      "track": 1
    },
    {
      "pitch": 45,
      "start_beat": 17.0,
      "duration_beat": 0.11770833333333286,
      "velocity": 33,
      "track": 1
    },
    {
      "pitch": 45,
      "start_beat": 17.0,
      "duration_beat": 0.125,
      "velocity": 13,
      "track": 1
    },
    {
      "pitch": 79,
      "start_beat": 17.125,
      "duration_beat": 0.23645833333333321,
      "velocity": 33,
      "track": 0
    },
    {
      "pitch": 52,
      "start_beat": 17.125,
      "duration_beat": 0.11770833333333286,
      "velocity": 33,
      "track": 1
    },
    {
      "pitch": 84,
      "start_beat": 17.25,
      "duration_beat": 0.23645833333333321,
      "velocity": 33,
      "track": 0
    },
    {
      "pitch": 72,
      "start_beat": 17.25,
      "duration_beat": 0.125,
      "velocity": 13,
      "track": 0
    },
    {
      "pitch": 57,
      "start_beat": 17.25,
      "duration_beat": 0.11770833333333286,
      "velocity": 33,
      "track": 1
    },
    {
      "pitch": 52,
      "start_beat": 17.25,
      "duration_beat": 0.23541666666666572,
      "velocity": 33,
      "track": 1
    },
    {
      "pitch": 52,
      "start_beat": 17.25,
      "duration_beat": 0.23541666666666572,
      "velocity": 43,
      "track": 1
    },
    {
      "pitch": 56,
      "start_beat": 17.25,
      "duration_beat": 0.23541666666666572,
      "velocity": 43,
      "track": 1
    },
    {
      "pitch": 59,
      "start_beat": 17.25,
      "duration_beat": 0.23541666666666572,
      "velocity": 43,
      "track": 1
    },
    {
      "pitch": 52,
      "start_beat": 17.25,
      "duration_beat": 0.11770833333333286,
      "velocity": 33,
      "track": 1
    },
    {
      "pitch": 52,
      "start_beat": 17.25,
      "duration_beat": 0.125,
      "velocity": 13,
      "track": 1
    },
    {
      "pitch": 59,
      "start_beat": 17.375,
      "duration_beat": 0.11770833333333286,
      "velocity": 33,
      "track": 1
    },
    {
      "pitch": 64,
      "start_beat": 17.5,
      "duration_beat": 0.11770833333333286,
      "velocity": 33,
      "track": 1
    },
    {
      "pitch": 57,
      "start_beat": 17.5,
      "duration_beat": 0.23541666666666572,
      "velocity": 33,
      "track": 1
    },
    {
      "pitch": 57,
      "start_beat": 17.5,
      "duration_beat": 0.23541666666666572,
      "velocity": 43,
      "track": 1
    },
    {
      "pitch": 61,
      "start_beat": 17.5,
      "duration_beat": 0.23541666666666572,
      "velocity": 43,
      "track": 1
    },
    {
      "pitch": 64,
      "start_beat": 17.5,
      "duration_beat": 0.23541666666666572,
      "velocity": 43,
      "track": 1
    },
    {
      "pitch": 57,
      "start_beat": 17.5,
      "duration_beat": 0.11770833333333286,
      "velocity": 33,
      "track": 1
    },
    {
      "pitch": 57,
      "start_beat": 17.5,
      "duration_beat": 0.125,
      "velocity": 13,
      "track": 1
    },
    {
      "pitch": 64,
      "start_beat": 17.625,
      "duration_beat": 0.11770833333333286,
      "velocity": 33,
      "track": 1
    },
    {
      "pitch": 69,
      "start_beat": 17.75,
      "duration_beat": 0.11770833333333286,
      "velocity": 33,
      "track": 1
    },
    {
      "pitch": 64,
      "start_beat": 17.75,
      "duration_beat": 0.23541666666666572,
      "velocity": 33,
      "track": 0
    },
    {
      "pitch": 64,
      "start_beat": 17.75,
      "duration_beat": 0.23541666666666572,
      "velocity": 43,
      "track": 0
    },
    {
      "pitch": 68,
      "start_beat": 17.75,
      "duration_beat": 0.23541666666666572,
      "velocity": 43,
      "track": 0
    },
    {
      "pitch": 71,
      "start_beat": 17.75,
      "duration_beat": 0.23541666666666572,
      "velocity": 43,
      "track": 0
    },
    {
      "pitch": 64,
      "start_beat": 17.75,
      "duration_beat": 0.11770833333333286,
      "velocity": 33,
      "track": 0
    },
    {
      "pitch": 64,
      "start_beat": 17.75,
      "duration_beat": 0.125,
      "velocity": 13,
      "track": 0
    },
    {
      "pitch": 71,
      "start_beat": 17.875,
      "duration_beat": 0.11770833333333286,
      "velocity": 33,
      "track": 0
    },
    {
      "pitch": 76,
      "start_beat": 18.0,
      "duration_beat": 0.11770833333333286,
      "velocity": 33,
      "track": 0
    },
    {
      "pitch": 76,
      "start_beat": 18.0,
      "duration_beat": 0.23541666666666572,
      "velocity": 33,
      "track": 0
    },
    {
      "pitch": 76,
      "start_beat": 18.0,
      "duration_beat": 0.23541666666666572,
      "velocity": 43,
      "track": 0
    },
    {
      "pitch": 80,
      "start_beat": 18.0,
      "duration_beat": 0.23541666666666572,
      "velocity": 43,
      "track": 0
    },
    {
      "pitch": 83,
      "start_beat": 18.0,
      "duration_beat": 0.23541666666666572,
      "velocity": 43,
      "track": 0
    },
    {
      "pitch": 76,
      "start_beat": 18.0,
      "duration_beat": 0.11770833333333286,
      "velocity": 33,
      "track": 0
    },
    {
      "pitch": 76,
      "start_beat": 18.0,
      "duration_beat": 0.125,
      "velocity": 13,
      "track": 0
    },
    {
      "pitch": 83,
      "start_beat": 18.125,
      "duration_beat": 0.11770833333333286,
      "velocity": 33,
      "track": 0
    },
    {
      "pitch": 88,
      "start_beat": 18.25,
      "duration_beat": 0.11770833333333286,
      "velocity": 33,
      "track": 0
    },
    {
      "pitch": 75,
      "start_beat": 18.25,
      "duration_beat": 0.23541666666666572,
      "velocity": 33,
      "track": 0
    },
    {
      "pitch": 75,
      "start_beat": 18.25,
      "duration_beat": 0.23541666666666572,
      "velocity": 43,
      "track": 0
    },
    {
      "pitch": 79,
      "start_beat": 18.25,
      "duration_beat": 0.23541666666666572,
      "velocity": 43,
      "track": 0
    },
    {
      "pitch": 82,
      "start_beat": 18.25,
      "duration_beat": 0.23541666666666572,
      "velocity": 43,
      "track": 0
    },
    {
      "pitch": 75,
      "start_beat": 18.25,
      "duration_beat": 0.11770833333333286,
      "velocity": 33,
      "track": 0
    },
    {
      "pitch": 75,
      "start_beat": 18.25,
      "duration_beat": 0.125,
      "velocity": 13,
      "track": 0
    },
    {
      "pitch": 82,
      "start_beat": 18.375,
      "duration_beat": 0.11770833333333286,
      "velocity": 33,
      "track": 0
    },
    {
      "pitch": 87,
      "start_beat": 18.5,
      "duration_beat": 0.11770833333333286,
      "velocity": 33,
      "track": 0
    },
    {
      "pitch": 76,
      "start_beat": 18.5,
      "duration_beat": 0.23541666666666572,
      "velocity": 33,
      "track": 0
    },
    {
      "pitch": 76,
      "start_beat": 18.5,
      "duration_beat": 0.23541666666666572,
      "velocity": 43,
      "track": 0
    },
    {
      "pitch": 80,
      "start_beat": 18.5,
      "duration_beat": 0.23541666666666572,
      "velocity": 43,
      "track": 0
    },
    {
      "pitch": 83,
      "start_beat": 18.5,
      "duration_beat": 0.23541666666666572,
      "velocity": 43,
      "track": 0
    },
    {
      "pitch": 76,
      "start_beat": 18.5,
      "duration_beat": 0.11770833333333286,
      "velocity": 33,
      "track": 0
    },
    {
      "pitch": 76,
      "start_beat": 18.5,
      "duration_beat": 0.125,
      "velocity": 13,
      "track": 0
    },
    {
      "pitch": 83,
      "start_beat": 18.625,
      "duration_beat": 0.11770833333333286,
      "velocity": 33,
      "track": 0
    },
    {
      "pitch": 88,
      "start_beat": 18.75,
      "duration_beat": 0.11770833333333286,
      "velocity": 33,
      "track": 0
    },
    {
      "pitch": 75,
      "start_beat": 18.75,
      "duration_beat": 0.23541666666666572,
      "velocity": 33,
      "track": 0
    },
    {
      "pitch": 75,
      "start_beat": 18.75,
      "duration_beat": 0.23541666666666572,
      "velocity": 43,
      "track": 0
    },
    {
      "pitch": 79,
      "start_beat": 18.75,
      "duration_beat": 0.23541666666666572,
      "velocity": 43,
      "track": 0
    },
    {
      "pitch": 82,
      "start_beat": 18.75,
      "duration_beat": 0.23541666666666572,
      "velocity": 43,
      "track": 0
    },
    {
      "pitch": 75,
      "start_beat": 18.75,
      "duration_beat": 0.11770833333333286,
      "velocity": 33,
      "track": 0
    },
    {
      "pitch": 75,
      "start_beat": 18.75,
      "duration_beat": 0.125,
      "velocity": 13,
      "track": 0
    },
    {
      "pitch": 82,
      "start_beat": 18.875,
      "duration_beat": 0.11770833333333286,
      "velocity": 33,
      "track": 0
    },
    {
      "pitch": 87,
      "start_beat": 19.0,
      "duration_beat": 0.11770833333333286,
      "velocity": 33,
      "track": 0
    },
    {
      "pitch": 76,
      "start_beat": 19.0,
      "duration_beat": 0.23541666666666572,
      "velocity": 33,
      "track": 0
    },
    {
      "pitch": 76,
      "start_beat": 19.0,
      "duration_beat": 0.23541666666666572,
      "velocity": 43,
      "track": 0
    },
    {
      "pitch": 80,
      "start_beat": 19.0,
      "duration_beat": 0.23541666666666572,
      "velocity": 43,
      "track": 0
    },
    {
      "pitch": 83,
      "start_beat": 19.0,
      "duration_beat": 0.23541666666666572,
      "velocity": 43,
      "track": 0
    },
    {
      "pitch": 76,
      "start_beat": 19.0,
      "duration_beat": 0.11770833333333286,
      "velocity": 33,
      "track": 0
    },
    {
      "pitch": 76,
      "start_beat": 19.0,
      "duration_beat": 0.125,
      "velocity": 13,
      "track": 0
    },
    {
      "pitch": 83,
      "start_beat": 19.125,
      "duration_beat": 0.11770833333333286,
      "velocity": 33,
      "track": 0
    },
    {
      "pitch": 88,
      "start_beat": 19.25,
      "duration_beat": 0.11770833333333286,
      "velocity": 33,
      "track": 0
    },
    {
      "pitch": 71,
      "start_beat": 19.25,
      "duration_beat": 0.23541666666666572,
      "velocity": 33,
      "track": 0
    },
    {
      "pitch": 71,
      "start_beat": 19.25,
      "duration_beat": 0.23541666666666572,
      "velocity": 43,
      "track": 0
    },
    {
      "pitch": 75,
      "start_beat": 19.25,
      "duration_beat": 0.23541666666666572,
      "velocity": 43,
      "track": 0
    },
    {
      "pitch": 78,
      "start_beat": 19.25,
      "duration_beat": 0.23541666666666572,
      "velocity": 43,
      "track": 0
    },
    {
      "pitch": 71,
      "start_beat": 19.25,
      "duration_beat": 0.11770833333333286,
      "velocity": 33,
      "track": 0
    },
    {
      "pitch": 71,
      "start_beat": 19.25,
      "duration_beat": 0.125,
      "velocity": 13,
      "track": 0
    },
    {
      "pitch": 78,
      "start_beat": 19.375,
      "duration_beat": 0.11770833333333286,
      "velocity": 33,
      "track": 0
    },
    {
      "pitch": 83,
      "start_beat": 19.5,
      "duration_beat": 0.11770833333333286,
      "velocity": 33,
      "track": 0
    },
    {
      "pitch": 74,
      "start_beat": 19.5,
      "duration_beat": 0.23541666666666572,
      "velocity": 33,
      "track": 0
    },
    {
      "pitch": 74,
      "start_beat": 19.5,
      "duration_beat": 0.23541666666666572,
      "velocity": 43,
      "track": 0
    },
    {
      "pitch": 78,
      "start_beat": 19.5,
      "duration_beat": 0.23541666666666572,
      "velocity": 43,
      "track": 0
    },
    {
      "pitch": 81,
      "start_beat": 19.5,
      "duration_beat": 0.23541666666666572,
      "velocity": 43,
      "track": 0
    },
    {
      "pitch": 74,
      "start_beat": 19.5,
      "duration_beat": 0.11770833333333286,
      "velocity": 33,
      "track": 0
    },
    {
      "pitch": 74,
      "start_beat": 19.5,
      "duration_beat": 0.125,
      "velocity": 13,
      "track": 0
    },
    {
      "pitch": 81,
      "start_beat": 19.625,
      "duration_beat": 0.11770833333333286,
      "velocity": 33,
      "track": 0
    },
    {
      "pitch": 86,
      "start_beat": 19.75,
      "duration_beat": 0.11770833333333286,
      "velocity": 33,
      "track": 0
    },
    {
      "pitch": 72,
      "start_beat": 19.75,
      "duration_beat": 0.23541666666666572,
      "velocity": 33,
      "track": 0
    },
    {
      "pitch": 72,
      "start_beat": 19.75,
      "duration_beat": 0.23541666666666572,
      "velocity": 43,
      "track": 0
    },
    {
      "pitch": 76,
      "start_beat": 19.75,
      "duration_beat": 0.23541666666666572,
      "velocity": 43,
      "track": 0
    },
    {
      "pitch": 79,
      "start_beat": 19.75,
      "duration_beat": 0.23541666666666572,
      "velocity": 43,
      "track": 0
    },
    {
      "pitch": 72,
      "start_beat": 19.75,
      "duration_beat": 0.11770833333333286,
      "velocity": 33,
      "track": 0
    },
    {
      "pitch": 72,
      "start_beat": 19.75,
      "duration_beat": 0.125,
      "velocity": 13,
      "track": 0
    },
    {
      "pitch": 79,
      "start_beat": 19.875,
      "duration_beat": 0.11770833333333286,
      "velocity": 33,
      "track": 0
    },
    {
      "pitch": 84,
      "start_beat": 20.0,
      "duration_beat": 0.11770833333333286,
      "velocity": 33,
      "track": 0
    },
    {
      "pitch": 69,
      "start_beat": 20.0,
      "duration_beat": 0.47291666666666643,
      "velocity": 33,
      "track": 0
    },
    {
      "pitch": 69,
      "start_beat": 20.0,
      "duration_beat": 0.47291666666666643,
      "velocity": 43,
      "track": 0
    },
    {
      "pitch": 73,
      "start_beat": 20.0,
      "duration_beat": 0.47291666666666643,
      "velocity": 43,
      "track": 0
    },
    {
      "pitch": 76,
      "start_beat": 20.0,
      "duration_beat": 0.47291666666666643,
      "velocity": 43,
      "track": 0
    },
    {
      "pitch": 69,
      "start_beat": 20.0,
      "duration_beat": 0.23645833333333321,
      "velocity": 33,
      "track": 0
    },
    {
      "pitch": 69,
      "start_beat": 20.0,
      "duration_beat": 0.125,
      "velocity": 13,
      "track": 0
    },
    {
      "pitch": 45,
      "start_beat": 20.0,
      "duration_beat": 0.23541666666666572,
      "velocity": 33,
      "track": 1
    },
    {
      "pitch": 45,
      "start_beat": 20.0,
      "duration_beat": 0.23541666666666572,
      "velocity": 43,
      "track": 1
    },
    {
      "pitch": 49,
      "start_beat": 20.0,
      "duration_beat": 0.23541666666666572,
      "velocity": 43,
      "track": 1
    },
    {
      "pitch": 52,
      "start_beat": 20.0,
      "duration_beat": 0.23541666666666572,
      "velocity": 43,
      "track": 1
    },
    {
      "pitch": 45,
      "start_beat": 20.0,
      "duration_beat": 0.11770833333333286,
      "velocity": 33,
      "track": 1
    },
    {
      "pitch": 45,
      "start_beat": 20.0,
      "duration_beat": 0.125,
      "velocity": 13,
      "track": 1
    },
    {
      "pitch": 76,
      "start_beat": 20.125,
      "duration_beat": 0.23645833333333321,
      "velocity": 33,
      "track": 0
    },
    {
      "pitch": 52,
      "start_beat": 20.125,
      "duration_beat": 0.11770833333333286,
      "velocity": 33,
      "track": 1
    },
    {
      "pitch": 81,
      "start_beat": 20.25,
      "duration_beat": 0.23645833333333321,
      "velocity": 33,
      "track": 0
    },
    {
      "pitch": 69,
      "start_beat": 20.25,
      "duration_beat": 0.125,
      "velocity": 13,
      "track": 0
    },
    {
      "pitch": 57,
      "start_beat": 20.25,
      "duration_beat": 0.11770833333333286,
      "velocity": 33,
      "track": 1
    },
    {
      "pitch": 52,
      "start_beat": 20.25,
      "duration_beat": 0.23541666666666572,
      "velocity": 33,
      "track": 1
    },
    {
      "pitch": 52,
      "start_beat": 20.25,
      "duration_beat": 0.23541666666666572,
      "velocity": 43,
      "track": 1
    },
    {
      "pitch": 56,
      "start_beat": 20.25,
      "duration_beat": 0.23541666666666572,
      "velocity": 43,
      "track": 1
    },
    {
      "pitch": 59,
      "start_beat": 20.25,
      "duration_beat": 0.23541666666666572,
      "velocity": 43,
      "track": 1
    },
    {
      "pitch": 52,
      "start_beat": 20.25,
      "duration_beat": 0.11770833333333286,
      "velocity": 33,
      "track": 1
    },
    {
      "pitch": 52,
      "start_beat": 20.25,
      "duration_beat": 0.125,
      "velocity": 13,
      "track": 1
    },
    {
      "pitch": 59,
      "start_beat": 20.375,
      "duration_beat": 0.11770833333333286,
      "velocity": 33,
      "track": 1
    },
    {
      "pitch": 64,
      "start_beat": 20.5,
      "duration_beat": 0.11770833333333286,
      "velocity": 33,
      "track": 1
    },
    {
      "pitch": 57,
      "start_beat": 20.5,
      "duration_beat": 0.23541666666666572,
      "velocity": 33,
      "track": 1
    },
    {
      "pitch": 57,
      "start_beat": 20.5,
      "duration_beat": 0.23541666666666572,
      "velocity": 43,
      "track": 1
    },
    {
      "pitch": 61,
      "start_beat": 20.5,
      "duration_beat": 0.23541666666666572,
      "velocity": 43,
      "track": 1
    },
    {
      "pitch": 64,
      "start_beat": 20.5,
      "duration_beat": 0.23541666666666572,
      "velocity": 43,
      "track": 1
    },
    {
      "pitch": 57,
      "start_beat": 20.5,
      "duration_beat": 0.11770833333333286,
      "velocity": 33,
      "track": 1
    },
    {
      "pitch": 57,
      "start_beat": 20.5,
      "duration_beat": 0.125,
      "velocity": 13,
      "track": 1
    },
    {
      "pitch": 64,
      "start_beat": 20.625,
      "duration_beat": 0.11770833333333286,
      "velocity": 33,
      "track": 1
    },
    {
      "pitch": 69,
      "start_beat": 20.75,
      "duration_beat": 0.11770833333333286,
      "velocity": 33,
      "track": 1
    },
    {
      "pitch": 60,
      "start_beat": 20.75,
      "duration_beat": 0.23541666666666572,
      "velocity": 33,
      "track": 0
    },
    {
      "pitch": 60,
      "start_beat": 20.75,
      "duration_beat": 0.23541666666666572,
      "velocity": 43,
      "track": 0
    },
    {
      "pitch": 64,
      "start_beat": 20.75,
      "duration_beat": 0.23541666666666572,
      "velocity": 43,
      "track": 0
    },
    {
      "pitch": 67,
      "start_beat": 20.75,
      "duration_beat": 0.23541666666666572,
      "velocity": 43,
      "track": 0
    },
    {
      "pitch": 60,
      "start_beat": 20.75,
      "duration_beat": 0.11770833333333286,
      "velocity": 33,
      "track": 0
    },
    {
      "pitch": 60,
      "start_beat": 20.75,
      "duration_beat": 0.125,
      "velocity": 13,
      "track": 0
    },
    {
      "pitch": 67,
      "start_beat": 20.875,
      "duration_beat": 0.11770833333333286,
      "velocity": 33,
      "track": 0
    },
    {
      "pitch": 72,
      "start_beat": 21.0,
      "duration_beat": 0.11770833333333286,
      "velocity": 33,
      "track": 0
    },
    {
      "pitch": 64,
      "start_beat": 21.0,
      "duration_beat": 0.23541666666666572,
      "velocity": 33,
      "track": 0
    },
    {
      "pitch": 64,
      "start_beat": 21.0,
      "duration_beat": 0.23541666666666572,
      "velocity": 43,
      "track": 0
    },
    {
      "pitch": 68,
      "start_beat": 21.0,
      "duration_beat": 0.23541666666666572,
      "velocity": 43,
      "track": 0
    },
    {
      "pitch": 71,
      "start_beat": 21.0,
      "duration_beat": 0.23541666666666572,
      "velocity": 43,
      "track": 0
    },
    {
      "pitch": 64,
      "start_beat": 21.0,
      "duration_beat": 0.11770833333333286,
      "velocity": 33,
      "track": 0
    },
    {
      "pitch": 64,
      "start_beat": 21.0,
      "duration_beat": 0.125,
      "velocity": 13,
      "track": 0
    },
    {
      "pitch": 71,
      "start_beat": 21.125,
      "duration_beat": 0.11770833333333286,
      "velocity": 33,
      "track": 0
    },
    {
      "pitch": 76,
      "start_beat": 21.25,
      "duration_beat": 0.11770833333333286,
      "velocity": 33,
      "track": 0
    },
    {
      "pitch": 69,
      "start_beat": 21.25,
      "duration_beat": 0.23541666666666572,
      "velocity": 33,
      "track": 0
    },
    {
      "pitch": 69,
      "start_beat": 21.25,
      "duration_beat": 0.23541666666666572,
      "velocity": 43,
      "track": 0
    },
    {
      "pitch": 73,
      "start_beat": 21.25,
      "duration_beat": 0.23541666666666572,
      "velocity": 43,
      "track": 0
    },
    {
      "pitch": 76,
      "start_beat": 21.25,
      "duration_beat": 0.23541666666666572,
      "velocity": 43,
      "track": 0
    },
    {
      "pitch": 69,
      "start_beat": 21.25,
      "duration_beat": 0.11770833333333286,
      "velocity": 33,
      "track": 0
    },
    {
      "pitch": 69,
      "start_beat": 21.25,
      "duration_beat": 0.125,
      "velocity": 13,
      "track": 0
    },
    {
      "pitch": 76,
      "start_beat": 21.375,
      "duration_beat": 0.11770833333333286,
      "velocity": 33,
      "track": 0
    },
    {
      "pitch": 81,
      "start_beat": 21.5,
      "duration_beat": 0.11770833333333286,
      "velocity": 33,
      "track": 0
    },
    {
      "pitch": 71,
      "start_beat": 21.5,
      "duration_beat": 0.47291666666666643,
      "velocity": 33,
      "track": 0
    },
    {
      "pitch": 71,
      "start_beat": 21.5,
      "duration_beat": 0.47291666666666643,
      "velocity": 43,
      "track": 0
    },
    {
      "pitch": 75,
      "start_beat": 21.5,
      "duration_beat": 0.47291666666666643,
      "velocity": 43,
      "track": 0
    },
    {
      "pitch": 78,
      "start_beat": 21.5,
      "duration_beat": 0.47291666666666643,
      "velocity": 43,
      "track": 0
    },
    {
      "pitch": 71,
      "start_beat": 21.5,
      "duration_beat": 0.23645833333333321,
      "velocity": 33,
      "track": 0
    },
    {
      "pitch": 71,
      "start_beat": 21.5,
      "duration_beat": 0.125,
      "velocity": 13,
      "track": 0
    },
    {
      "pitch": 40,
      "start_beat": 21.5,
      "duration_beat": 0.23541666666666572,
      "velocity": 33,
      "track": 1
    },
    {
      "pitch": 40,
      "start_beat": 21.5,
      "duration_beat": 0.23541666666666572,
      "velocity": 43,
      "track": 1
    },
    {
      "pitch": 44,
      "start_beat": 21.5,
      "duration_beat": 0.23541666666666572,
      "velocity": 43,
      "track": 1
    },
    {
      "pitch": 47,
      "start_beat": 21.5,
      "duration_beat": 0.23541666666666572,
      "velocity": 43,
      "track": 1
    },
    {
      "pitch": 40,
      "start_beat": 21.5,
      "duration_beat": 0.11770833333333286,
      "velocity": 33,
      "track": 1
    },
    {
      "pitch": 40,
      "start_beat": 21.5,
      "duration_beat": 0.125,
      "velocity": 13,
      "track": 1
    },
    {
      "pitch": 78,
      "start_beat": 21.625,
      "duration_beat": 0.23645833333333321,
      "velocity": 33,
      "track": 0
    },
    {
      "pitch": 47,
      "start_beat": 21.625,
      "duration_beat": 0.11770833333333286,
      "velocity": 33,
      "track": 1
    },
    {
      "pitch": 83,
      "start_beat": 21.75,
      "duration_beat": 0.23645833333333321,
      "velocity": 33,
      "track": 0
    },
    {
      "pitch": 71,
      "start_beat": 21.75,
      "duration_beat": 0.125,
      "velocity": 13,
      "track": 0
    },
    {
      "pitch": 52,
      "start_beat": 21.75,
      "duration_beat": 0.11770833333333286,
      "velocity": 33,
      "track": 1
    },
    {
      "pitch": 52,
      "start_beat": 21.75,
      "duration_beat": 0.23541666666666572,
      "velocity": 33,
      "track": 1
    },
    {
      "pitch": 52,
      "start_beat": 21.75,
      "duration_beat": 0.23541666666666572,
      "velocity": 43,
      "track": 1
    },
    {
      "pitch": 56,
      "start_beat": 21.75,
      "duration_beat": 0.23541666666666572,
      "velocity": 43,
      "track": 1
    },
    {
      "pitch": 59,
      "start_beat": 21.75,
      "duration_beat": 0.23541666666666572,
      "velocity": 43,
      "track": 1
    },
    {
      "pitch": 52,
      "start_beat": 21.75,
      "duration_beat": 0.11770833333333286,
      "velocity": 33,
      "track": 1
    },
    {
      "pitch": 52,
      "start_beat": 21.75,
      "duration_beat": 0.125,
      "velocity": 13,
      "track": 1
    },
    {
      "pitch": 59,
      "start_beat": 21.875,
      "duration_beat": 0.11770833333333286,
      "velocity": 33,
      "track": 1
    },
    {
      "pitch": 64,
      "start_beat": 22.0,
      "duration_beat": 0.11770833333333286,
      "velocity": 33,
      "track": 1
    },
    {
      "pitch": 56,
      "start_beat": 22.0,
      "duration_beat": 0.23541666666666572,
      "velocity": 33,
      "track": 1
    },
    {
      "pitch": 56,
      "start_beat": 22.0,
      "duration_beat": 0.23541666666666572,
      "velocity": 43,
      "track": 1
    },
    {
      "pitch": 60,
      "start_beat": 22.0,
      "duration_beat": 0.23541666666666572,
      "velocity": 43,
      "track": 1
    },
    {
      "pitch": 63,
      "start_beat": 22.0,
      "duration_beat": 0.23541666666666572,
      "velocity": 43,
      "track": 1
    },
    {
      "pitch": 56,
      "start_beat": 22.0,
      "duration_beat": 0.11770833333333286,
      "velocity": 33,
      "track": 1
    },
    {
      "pitch": 56,
      "start_beat": 22.0,
      "duration_beat": 0.125,
      "velocity": 13,
      "track": 1
    },
    {
      "pitch": 63,
      "start_beat": 22.125,
      "duration_beat": 0.11770833333333286,
      "velocity": 33,
      "track": 1
    },
    {
      "pitch": 68,
      "start_beat": 22.25,
      "duration_beat": 0.11770833333333286,
      "velocity": 33,
      "track": 1
    },
    {
      "pitch": 62,
      "start_beat": 22.25,
      "duration_beat": 0.23541666666666572,
      "velocity": 33,
      "track": 0
    },
    {
      "pitch": 62,
      "start_beat": 22.25,
      "duration_beat": 0.23541666666666572,
      "velocity": 43,
      "track": 0
    },
    {
      "pitch": 66,
      "start_beat": 22.25,
      "duration_beat": 0.23541666666666572,
      "velocity": 43,
      "track": 0
    },
    {
      "pitch": 69,
      "start_beat": 22.25,
      "duration_beat": 0.23541666666666572,
      "velocity": 43,
      "track": 0
    },
    {
      "pitch": 62,
      "start_beat": 22.25,
      "duration_beat": 0.11770833333333286,
      "velocity": 33,
      "track": 0
    },
    {
      "pitch": 62,
      "start_beat": 22.25,
      "duration_beat": 0.125,
      "velocity": 13,
      "track": 0
    },
    {
      "pitch": 69,
      "start_beat": 22.375,
      "duration_beat": 0.11770833333333286,
      "velocity": 33,
      "track": 0
    },
    {
      "pitch": 74,
      "start_beat": 22.5,
      "duration_beat": 0.11770833333333286,
      "velocity": 33,
      "track": 0
    },
    {
      "pitch": 72,
      "start_beat": 22.5,
      "duration_beat": 0.23541666666666572,
      "velocity": 33,
      "track": 0
    },
    {
      "pitch": 72,
      "start_beat": 22.5,
      "duration_beat": 0.23541666666666572,
      "velocity": 43,
      "track": 0
    },
    {
      "pitch": 76,
      "start_beat": 22.5,
      "duration_beat": 0.23541666666666572,
      "velocity": 43,
      "track": 0
    },
    {
      "pitch": 79,
      "start_beat": 22.5,
      "duration_beat": 0.23541666666666572,
      "velocity": 43,
      "track": 0
    },
    {
      "pitch": 72,
      "start_beat": 22.5,
      "duration_beat": 0.11770833333333286,
      "velocity": 33,
      "track": 0
    },
    {
      "pitch": 72,
      "start_beat": 22.5,
      "duration_beat": 0.125,
      "velocity": 13,
      "track": 0
    },
    {
      "pitch": 79,
      "start_beat": 22.625,
      "duration_beat": 0.11770833333333286,
      "velocity": 33,
      "track": 0
    },
    {
      "pitch": 84,
      "start_beat": 22.75,
      "duration_beat": 0.11770833333333286,
      "velocity": 33,
      "track": 0
    },
    {
      "pitch": 71,
      "start_beat": 22.75,
      "duration_beat": 0.23541666666666572,
      "velocity": 33,
      "track": 0
    },
    {
      "pitch": 71,
      "start_beat": 22.75,
      "duration_beat": 0.23541666666666572,
      "velocity": 43,
      "track": 0
    },
    {
      "pitch": 75,
      "start_beat": 22.75,
      "duration_beat": 0.23541666666666572,
      "velocity": 43,
      "track": 0
    },
    {
      "pitch": 78,
      "start_beat": 22.75,
      "duration_beat": 0.23541666666666572,
      "velocity": 43,
      "track": 0
    },
    {
      "pitch": 71,
      "start_beat": 22.75,
      "duration_beat": 0.11770833333333286,
      "velocity": 33,
      "track": 0
    },
    {
      "pitch": 71,
      "start_beat": 22.75,
      "duration_beat": 0.125,
      "velocity": 13,
      "track": 0
    },
    {
      "pitch": 78,
      "start_beat": 22.875,
      "duration_beat": 0.11770833333333286,
      "velocity": 33,
      "track": 0
    },
    {
      "pitch": 83,
      "start_beat": 23.0,
      "duration_beat": 0.11770833333333286,
      "velocity": 33,
      "track": 0
    },
    {
      "pitch": 69,
      "start_beat": 23.0,
      "duration_beat": 0.47291666666666643,
      "velocity": 33,
      "track": 0
    },
    {
      "pitch": 69,
      "start_beat": 23.0,
      "duration_beat": 0.47291666666666643,
      "velocity": 43,
      "track": 0
    },
    {
      "pitch": 73,
      "start_beat": 23.0,
      "duration_beat": 0.47291666666666643,
      "velocity": 43,
      "track": 0
    },
    {
      "pitch": 76,
      "start_beat": 23.0,
      "duration_beat": 0.47291666666666643,
      "velocity": 43,
      "track": 0
    },
    {
      "pitch": 69,
      "start_beat": 23.0,
      "duration_beat": 0.23645833333333321,
      "velocity": 33,
      "track": 0
    },
    {
      "pitch": 69,
      "start_beat": 23.0,
      "duration_beat": 0.125,
      "velocity": 13,
      "track": 0
    },
    {
      "pitch": 45,
      "start_beat": 23.0,
      "duration_beat": 0.23541666666666572,
      "velocity": 33,
      "track": 1
    },
    {
      "pitch": 45,
      "start_beat": 23.0,
      "duration_beat": 0.23541666666666572,
      "velocity": 43,
      "track": 1
    },
    {
      "pitch": 49,
      "start_beat": 23.0,
      "duration_beat": 0.23541666666666572,
      "velocity": 43,
      "track": 1
    },
    {
      "pitch": 52,
      "start_beat": 23.0,
      "duration_beat": 0.23541666666666572,
      "velocity": 43,
      "track": 1
    },
    {
      "pitch": 45,
      "start_beat": 23.0,
      "duration_beat": 0.11770833333333286,
      "velocity": 33,
      "track": 1
    },
    {
      "pitch": 45,
      "start_beat": 23.0,
      "duration_beat": 0.125,
      "velocity": 13,
      "track": 1
    },
    {
      "pitch": 76,
      "start_beat": 23.125,
      "duration_beat": 0.23645833333333321,
      "velocity": 33,
      "track": 0
    },
    {
      "pitch": 52,
      "start_beat": 23.125,
      "duration_beat": 0.11770833333333286,
      "velocity": 33,
      "track": 1
    },
    {
      "pitch": 81,
      "start_beat": 23.25,
      "duration_beat": 0.23645833333333321,
      "velocity": 33,
      "track": 0
    },
    {
      "pitch": 69,
      "start_beat": 23.25,
      "duration_beat": 0.125,
      "velocity": 13,
      "track": 0
    },
    {
      "pitch": 57,
      "start_beat": 23.25,
      "duration_beat": 0.11770833333333286,
      "velocity": 33,
      "track": 1
    },
    {
      "pitch": 52,
      "start_beat": 23.25,
      "duration_beat": 0.23541666666666572,
      "velocity": 33,
      "track": 1
    },
    {
      "pitch": 52,
      "start_beat": 23.25,
      "duration_beat": 0.23541666666666572,
      "velocity": 43,
      "track": 1
    },
    {
      "pitch": 56,
      "start_beat": 23.25,
      "duration_beat": 0.23541666666666572,
      "velocity": 43,
      "track": 1
    },
    {
      "pitch": 59,
      "start_beat": 23.25,
      "duration_beat": 0.23541666666666572,
      "velocity": 43,
      "track": 1
    },
    {
      "pitch": 52,
      "start_beat": 23.25,
      "duration_beat": 0.11770833333333286,
      "velocity": 33,
      "track": 1
    },
    {
      "pitch": 52,
      "start_beat": 23.25,
      "duration_beat": 0.125,
      "velocity": 13,
      "track": 1
    },
    {
      "pitch": 59,
      "start_beat": 23.375,
      "duration_beat": 0.11770833333333286,
      "velocity": 33,
      "track": 1
    },
    {
      "pitch": 64,
      "start_beat": 23.5,
      "duration_beat": 0.11770833333333286,
      "velocity": 33,
      "track": 1
    },
    {
      "pitch": 57,
      "start_beat": 23.5,
      "duration_beat": 0.23541666666666572,
      "velocity": 33,
      "track": 1
    },
    {
      "pitch": 57,
      "start_beat": 23.5,
      "duration_beat": 0.23541666666666572,
      "velocity": 43,
      "track": 1
    },
    {
      "pitch": 61,
      "start_beat": 23.5,
      "duration_beat": 0.23541666666666572,
      "velocity": 43,
      "track": 1
    },
    {
      "pitch": 64,
      "start_beat": 23.5,
      "duration_beat": 0.23541666666666572,
      "velocity": 43,
      "track": 1
    },
    {
      "pitch": 57,
      "start_beat": 23.5,
      "duration_beat": 0.11770833333333286,
      "velocity": 33,
      "track": 1
    },
    {
      "pitch": 57,
      "start_beat": 23.5,
      "duration_beat": 0.125,
      "velocity": 13,
      "track": 1
    },
    {
      "pitch": 64,
      "start_beat": 23.625,
      "duration_beat": 0.11770833333333286,
      "velocity": 33,
      "track": 1
    },
    {
      "pitch": 69,
      "start_beat": 23.75,
      "duration_beat": 0.11770833333333286,
      "velocity": 33,
      "track": 1
    },
    {
      "pitch": 71,
      "start_beat": 23.75,
      "duration_beat": 0.23541666666666572,
      "velocity": 33,
      "track": 0
    },
    {
      "pitch": 71,
      "start_beat": 23.75,
      "duration_beat": 0.23541666666666572,
      "velocity": 43,
      "track": 0
    },
    {
      "pitch": 75,
      "start_beat": 23.75,
      "duration_beat": 0.23541666666666572,
      "velocity": 43,
      "track": 0
    },
    {
      "pitch": 78,
      "start_beat": 23.75,
      "duration_beat": 0.23541666666666572,
      "velocity": 43,
      "track": 0
    },
    {
      "pitch": 71,
      "start_beat": 23.75,
      "duration_beat": 0.11770833333333286,
      "velocity": 33,
      "track": 0
    },
    {
      "pitch": 71,
      "start_beat": 23.75,
      "duration_beat": 0.125,
      "velocity": 13,
      "track": 0
    },
    {
      "pitch": 78,
      "start_beat": 23.875,
      "duration_beat": 0.11770833333333286,
      "velocity": 33,
      "track": 0
    },
    {
      "pitch": 83,
      "start_beat": 24.0,
      "duration_beat": 0.11770833333333286,
      "velocity": 33,
      "track": 0
    },
    {
      "pitch": 72,
      "start_beat": 24.0,
      "duration_beat": 0.23541666666666572,
      "velocity": 33,
      "track": 0
    },
    {
      "pitch": 72,
      "start_beat": 24.0,
      "duration_beat": 0.23541666666666572,
      "velocity": 43,
      "track": 0
    },
    {
      "pitch": 76,
      "start_beat": 24.0,
      "duration_beat": 0.23541666666666572,
      "velocity": 43,
      "track": 0
    },
    {
      "pitch": 79,
      "start_beat": 24.0,
      "duration_beat": 0.23541666666666572,
      "velocity": 43,
      "track": 0
    },
    {
      "pitch": 72,
      "start_beat": 24.0,
      "duration_beat": 0.11770833333333286,
      "velocity": 33,
      "track": 0
    },
    {
      "pitch": 72,
      "start_beat": 24.0,
      "duration_beat": 0.125,
      "velocity": 13,
      "track": 0
    },
    {
      "pitch": 79,
      "start_beat": 24.125,
      "duration_beat": 0.11770833333333286,
      "velocity": 33,
      "track": 0
    },
    {
      "pitch": 84,
      "start_beat": 24.25,
      "duration_beat": 0.11770833333333286,
      "velocity": 33,
      "track": 0
    },
    {
      "pitch": 74,
      "start_beat": 24.25,
      "duration_beat": 0.23541666666666572,
      "velocity": 33,
      "track": 0
    },
    {
      "pitch": 74,
      "start_beat": 24.25,
      "duration_beat": 0.23541666666666572,
      "velocity": 43,
      "track": 0
    },
    {
      "pitch": 78,
      "start_beat": 24.25,
      "duration_beat": 0.23541666666666572,
      "velocity": 43,
      "track": 0
    },
    {
      "pitch": 81,
      "start_beat": 24.25,
      "duration_beat": 0.23541666666666572,
      "velocity": 43,
      "track": 0
    },
    {
      "pitch": 74,
      "start_beat": 24.25,
      "duration_beat": 0.11770833333333286,
      "velocity": 33,
      "track": 0
    },
    {
      "pitch": 74,
      "start_beat": 24.25,
      "duration_beat": 0.125,
      "velocity": 13,
      "track": 0
    },
    {
      "pitch": 81,
      "start_beat": 24.375,
      "duration_beat": 0.11770833333333286,
      "velocity": 33,
      "track": 0
    },
    {
      "pitch": 86,
      "start_beat": 24.5,
      "duration_beat": 0.11770833333333286,
      "velocity": 33,
      "track": 0
    },
    {
      "pitch": 76,
      "start_beat": 24.5,
      "duration_beat": 0.7104166666666671,
      "velocity": 33,
      "track": 0
    },
    {
      "pitch": 76,
      "start_beat": 24.5,
      "duration_beat": 0.7104166666666671,
      "velocity": 43,
      "track": 0
    },
    {
      "pitch": 80,
      "start_beat": 24.5,
      "duration_beat": 0.7104166666666671,
      "velocity": 43,
      "track": 0
    },
    {
      "pitch": 83,
      "start_beat": 24.5,
      "duration_beat": 0.7104166666666671,
      "velocity": 43,
      "track": 0
    },
    {
      "pitch": 76,
      "start_beat": 24.5,
      "duration_beat": 0.35520833333333357,
      "velocity": 33,
      "track": 0
    },
    {
      "pitch": 76,
      "start_beat": 24.5,
      "duration_beat": 0.125,
      "velocity": 13,
      "track": 0
    },
    {
      "pitch": 48,
      "start_beat": 24.5,
      "duration_beat": 0.23541666666666572,
      "velocity": 33,
      "track": 1
    },
    {
      "pitch": 48,
      "start_beat": 24.5,
      "duration_beat": 0.23541666666666572,
      "velocity": 43,
      "track": 1
    },
    {
      "pitch": 52,
      "start_beat": 24.5,
      "duration_beat": 0.23541666666666572,
      "velocity": 43,
      "track": 1
    },
    {
      "pitch": 55,
      "start_beat": 24.5,
      "duration_beat": 0.23541666666666572,
      "velocity": 43,
      "track": 1
    },
    {
      "pitch": 48,
      "start_beat": 24.5,
      "duration_beat": 0.11770833333333286,
      "velocity": 33,
      "track": 1
    },
    {
      "pitch": 48,
      "start_beat": 24.5,
      "duration_beat": 0.125,
      "velocity": 13,
      "track": 1
    },
    {
      "pitch": 83,
      "start_beat": 24.625,
      "duration_beat": 0.35520833333333357,
      "velocity": 33,
      "track": 0
    },
    {
      "pitch": 55,
      "start_beat": 24.625,
      "duration_beat": 0.11770833333333286,
      "velocity": 33,
      "track": 1
    },
    {
      "pitch": 88,
      "start_beat": 24.75,
      "duration_beat": 0.35520833333333357,
      "velocity": 33,
      "track": 0
    },
    {
      "pitch": 76,
      "start_beat": 24.75,
      "duration_beat": 0.125,
      "velocity": 13,
      "track": 0
    },
    {
      "pitch": 60,
      "start_beat": 24.75,
      "duration_beat": 0.11770833333333286,
      "velocity": 33,
      "track": 1
    },
    {
      "pitch": 55,
      "start_beat": 24.75,
      "duration_beat": 0.23541666666666572,
      "velocity": 33,
      "track": 1
    },
    {
      "pitch": 55,
      "start_beat": 24.75,
      "duration_beat": 0.23541666666666572,
      "velocity": 43,
      "track": 1
    },
    {
      "pitch": 59,
      "start_beat": 24.75,
      "duration_beat": 0.23541666666666572,
      "velocity": 43,
      "track": 1
    },
    {
      "pitch": 62,
      "start_beat": 24.75,
      "duration_beat": 0.23541666666666572,
      "velocity": 43,
      "track": 1
    },
    {
      "pitch": 55,
      "start_beat": 24.75,
      "duration_beat": 0.11770833333333286,
      "velocity": 33,
      "track": 1
    },
    {
      "pitch": 55,
      "start_beat": 24.75,
      "duration_beat": 0.125,
      "velocity": 13,
      "track": 1
    },
    {
      "pitch": 62,
      "start_beat": 24.875,
      "duration_beat": 0.11770833333333286,
      "velocity": 33,
      "track": 1
    },
    {
      "pitch": 76,
      "start_beat": 25.0,
      "duration_beat": 0.125,
      "velocity": 13,
      "track": 0
    },
    {
      "pitch": 67,
      "start_beat": 25.0,
      "duration_beat": 0.11770833333333286,
      "velocity": 33,
      "track": 1
    },
    {
      "pitch": 60,
      "start_beat": 25.0,
      "duration_beat": 0.23541666666666572,
      "velocity": 33,
      "track": 1
    },
    {
      "pitch": 60,
      "start_beat": 25.0,
      "duration_beat": 0.23541666666666572,
      "velocity": 43,
      "track": 1
    },
    {
      "pitch": 64,
      "start_beat": 25.0,
      "duration_beat": 0.23541666666666572,
      "velocity": 43,
      "track": 1
    },
    {
      "pitch": 67,
      "start_beat": 25.0,
      "duration_beat": 0.23541666666666572,
      "velocity": 43,
      "track": 1
    },
    {
      "pitch": 60,
      "start_beat": 25.0,
      "duration_beat": 0.11770833333333286,
      "velocity": 33,
      "track": 1
    },
    {
      "pitch": 60,
      "start_beat": 25.0,
      "duration_beat": 0.125,
      "velocity": 13,
      "track": 1
    },
    {
      "pitch": 67,
      "start_beat": 25.125,
      "duration_beat": 0.11770833333333286,
      "velocity": 33,
      "track": 1
    },
    {
      "pitch": 72,
      "start_beat": 25.25,
      "duration_beat": 0.11770833333333286,
      "velocity": 33,
      "track": 1
    },
    {
      "pitch": 67,
      "start_beat": 25.25,
      "duration_beat": 0.23541666666666572,
      "velocity": 33,
      "track": 0
    },
    {
      "pitch": 67,
      "start_beat": 25.25,
      "duration_beat": 0.23541666666666572,
      "velocity": 43,
      "track": 0
    },
    {
      "pitch": 71,
      "start_beat": 25.25,
      "duration_beat": 0.23541666666666572,
      "velocity": 43,
      "track": 0
    },
    {
      "pitch": 74,
      "start_beat": 25.25,
      "duration_beat": 0.23541666666666572,
      "velocity": 43,
      "track": 0
    },
    {
      "pitch": 67,
      "start_beat": 25.25,
      "duration_beat": 0.11770833333333286,
      "velocity": 33,
      "track": 0
    },
    {
      "pitch": 67,
      "start_beat": 25.25,
      "duration_beat": 0.125,
      "velocity": 13,
      "track": 0
    },
    {
      "pitch": 74,
      "start_beat": 25.375,
      "duration_beat": 0.11770833333333286,
      "velocity": 33,
      "track": 0
    },
    {
      "pitch": 79,
      "start_beat": 25.5,
      "duration_beat": 0.11770833333333286,
      "velocity": 33,
      "track": 0
    },
    {
      "pitch": 77,
      "start_beat": 25.5,
      "duration_beat": 0.23541666666666572,
      "velocity": 33,
      "track": 0
    },
    {
      "pitch": 77,
      "start_beat": 25.5,
      "duration_beat": 0.23541666666666572,
      "velocity": 43,
      "track": 0
    },
    {
      "pitch": 81,
      "start_beat": 25.5,
      "duration_beat": 0.23541666666666572,
      "velocity": 43,
      "track": 0
    },
    {
      "pitch": 84,
      "start_beat": 25.5,
      "duration_beat": 0.23541666666666572,
      "velocity": 43,
      "track": 0
    },
    {
      "pitch": 77,
      "start_beat": 25.5,
      "duration_beat": 0.11770833333333286,
      "velocity": 33,
      "track": 0
    },
    {
      "pitch": 77,
      "start_beat": 25.5,
      "duration_beat": 0.125,
      "velocity": 13,
      "track": 0
    },
    {
      "pitch": 84,
      "start_beat": 25.625,
      "duration_beat": 0.11770833333333286,
      "velocity": 33,
      "track": 0
    },
    {
      "pitch": 89,
      "start_beat": 25.75,
      "duration_beat": 0.11770833333333286,
      "velocity": 33,
      "track": 0
    },
    {
      "pitch": 76,
      "start_beat": 25.75,
      "duration_beat": 0.23541666666666572,
      "velocity": 33,
      "track": 0
    },
    {
      "pitch": 76,
      "start_beat": 25.75,
      "duration_beat": 0.23541666666666572,
      "velocity": 43,
      "track": 0
    },
    {
      "pitch": 80,
      "start_beat": 25.75,
      "duration_beat": 0.23541666666666572,
      "velocity": 43,
      "track": 0
    },
    {
      "pitch": 83,
      "start_beat": 25.75,
      "duration_beat": 0.23541666666666572,
      "velocity": 43,
      "track": 0
    },
    {
      "pitch": 76,
      "start_beat": 25.75,
      "duration_beat": 0.11770833333333286,
      "velocity": 33,
      "track": 0
    },
    {
      "pitch": 76,
      "start_beat": 25.75,
      "duration_beat": 0.125,
      "velocity": 13,
      "track": 0
    },
    {
      "pitch": 83,
      "start_beat": 25.875,
      "duration_beat": 0.11770833333333286,
      "velocity": 33,
      "track": 0
    },
    {
      "pitch": 88,
      "start_beat": 26.0,
      "duration_beat": 0.11770833333333286,
      "velocity": 33,
      "track": 0
    },
    {
      "pitch": 74,
      "start_beat": 26.0,
      "duration_beat": 0.7104166666666671,
      "velocity": 33,
      "track": 0
    },
    {
      "pitch": 74,
      "start_beat": 26.0,
      "duration_beat": 0.7104166666666671,
      "velocity": 43,
      "track": 0
    },
    {
      "pitch": 78,
      "start_beat": 26.0,
      "duration_beat": 0.7104166666666671,
      "velocity": 43,
      "track": 0
    },
    {
      "pitch": 81,
      "start_beat": 26.0,
      "duration_beat": 0.7104166666666671,
      "velocity": 43,
      "track": 0
    },
    {
      "pitch": 74,
      "start_beat": 26.0,
      "duration_beat": 0.35520833333333357,
      "velocity": 33,
      "track": 0
    },
    {
      "pitch": 74,
      "start_beat": 26.0,
      "duration_beat": 0.125,
      "velocity": 13,
      "track": 0
    },
    {
      "pitch": 43,
      "start_beat": 26.0,
      "duration_beat": 0.23541666666666572,
      "velocity": 33,
      "track": 1
    },
    {
      "pitch": 43,
      "start_beat": 26.0,
      "duration_beat": 0.23541666666666572,
      "velocity": 43,
      "track": 1
    },
    {
      "pitch": 47,
      "start_beat": 26.0,
      "duration_beat": 0.23541666666666572,
      "velocity": 43,
      "track": 1
    },
    {
      "pitch": 50,
      "start_beat": 26.0,
      "duration_beat": 0.23541666666666572,
      "velocity": 43,
      "track": 1
    },
    {
      "pitch": 43,
      "start_beat": 26.0,
      "duration_beat": 0.11770833333333286,
      "velocity": 33,
      "track": 1
    },
    {
      "pitch": 43,
      "start_beat": 26.0,
      "duration_beat": 0.125,
      "velocity": 13,
      "track": 1
    },
    {
      "pitch": 81,
      "start_beat": 26.125,
      "duration_beat": 0.35520833333333357,
      "velocity": 33,
      "track": 0
    },
    {
      "pitch": 50,
      "start_beat": 26.125,
      "duration_beat": 0.11770833333333286,
      "velocity": 33,
      "track": 1
    },
    {
      "pitch": 86,
      "start_beat": 26.25,
      "duration_beat": 0.35520833333333357,
      "velocity": 33,
      "track": 0
    },
    {
      "pitch": 74,
      "start_beat": 26.25,
      "duration_beat": 0.125,
      "velocity": 13,
      "track": 0
    },
    {
      "pitch": 55,
      "start_beat": 26.25,
      "duration_beat": 0.11770833333333286,
      "velocity": 33,
      "track": 1
    },
    {
      "pitch": 55,
      "start_beat": 26.25,
      "duration_beat": 0.23541666666666572,
      "velocity": 33,
      "track": 1
    },
    {
      "pitch": 55,
      "start_beat": 26.25,
      "duration_beat": 0.23541666666666572,
      "velocity": 43,
      "track": 1
    },
    {
      "pitch": 59,
      "start_beat": 26.25,
      "duration_beat": 0.23541666666666572,
      "velocity": 43,
      "track": 1
    },
    {
      "pitch": 62,
      "start_beat": 26.25,
      "duration_beat": 0.23541666666666572,
      "velocity": 43,
      "track": 1
    },
    {
      "pitch": 55,
      "start_beat": 26.25,
      "duration_beat": 0.11770833333333286,
      "velocity": 33,
      "track": 1
    },
    {
      "pitch": 55,
      "start_beat": 26.25,
      "duration_beat": 0.125,
      "velocity": 13,
      "track": 1
    },
    {
      "pitch": 62,
      "start_beat": 26.375,
      "duration_beat": 0.11770833333333286,
      "velocity": 33,
      "track": 1
    },
    {
      "pitch": 74,
      "start_beat": 26.5,
      "duration_beat": 0.125,
      "velocity": 13,
      "track": 0
    },
    {
      "pitch": 67,
      "start_beat": 26.5,
      "duration_beat": 0.11770833333333286,
      "velocity": 33,
      "track": 1
    },
    {
      "pitch": 59,
      "start_beat": 26.5,
      "duration_beat": 0.23541666666666572,
      "velocity": 33,
      "track": 1
    },
    {
      "pitch": 59,
      "start_beat": 26.5,
      "duration_beat": 0.23541666666666572,
      "velocity": 43,
      "track": 1
    },
    {
      "pitch": 63,
      "start_beat": 26.5,
      "duration_beat": 0.23541666666666572,
      "velocity": 43,
      "track": 1
    },
    {
      "pitch": 66,
      "start_beat": 26.5,
      "duration_beat": 0.23541666666666572,
      "velocity": 43,
      "track": 1
    },
    {
      "pitch": 59,
      "start_beat": 26.5,
      "duration_beat": 0.11770833333333286,
      "velocity": 33,
      "track": 1
    },
    {
      "pitch": 59,
      "start_beat": 26.5,
      "duration_beat": 0.125,
      "velocity": 13,
      "track": 1
    },
    {
      "pitch": 66,
      "start_beat": 26.625,
      "duration_beat": 0.11770833333333286,
      "velocity": 33,
      "track": 1
    },
    {
      "pitch": 71,
      "start_beat": 26.75,
      "duration_beat": 0.11770833333333286,
      "velocity": 33,
      "track": 1
    },
    {
      "pitch": 65,
      "start_beat": 26.75,
      "duration_beat": 0.23541666666666572,
      "velocity": 33,
      "track": 0
    },
    {
      "pitch": 65,
      "start_beat": 26.75,
      "duration_beat": 0.23541666666666572,
      "velocity": 43,
      "track": 0
    },
    {
      "pitch": 69,
      "start_beat": 26.75,
      "duration_beat": 0.23541666666666572,
      "velocity": 43,
      "track": 0
    },
    {
      "pitch": 72,
      "start_beat": 26.75,
      "duration_beat": 0.23541666666666572,
      "velocity": 43,
      "track": 0
    },
    {
      "pitch": 65,
      "start_beat": 26.75,
      "duration_beat": 0.11770833333333286,
      "velocity": 33,
      "track": 0
    },
    {
      "pitch": 65,
      "start_beat": 26.75,
      "duration_beat": 0.125,
      "velocity": 13,
      "track": 0
    },
    {
      "pitch": 72,
      "start_beat": 26.875,
      "duration_beat": 0.11770833333333286,
      "velocity": 33,
      "track": 0
    },
    {
      "pitch": 77,
      "start_beat": 27.0,
      "duration_beat": 0.11770833333333286,
      "velocity": 33,
      "track": 0
    },
    {
      "pitch": 76,
      "start_beat": 27.0,
      "duration_beat": 0.23541666666666572,
      "velocity": 33,
      "track": 0
    },
    {
      "pitch": 76,
      "start_beat": 27.0,
      "duration_beat": 0.23541666666666572,
      "velocity": 43,
      "track": 0
    },
    {
      "pitch": 80,
      "start_beat": 27.0,
      "duration_beat": 0.23541666666666572,
      "velocity": 43,
      "track": 0
    },
    {
      "pitch": 83,
      "start_beat": 27.0,
      "duration_beat": 0.23541666666666572,
      "velocity": 43,
      "track": 0
    },
    {
      "pitch": 76,
      "start_beat": 27.0,
      "duration_beat": 0.11770833333333286,
      "velocity": 33,
      "track": 0
    },
    {
      "pitch": 76,
      "start_beat": 27.0,
      "duration_beat": 0.125,
      "velocity": 13,
      "track": 0
    },
    {
      "pitch": 83,
      "start_beat": 27.125,
      "duration_beat": 0.11770833333333286,
      "velocity": 33,
      "track": 0
    },
    {
      "pitch": 88,
      "start_beat": 27.25,
      "duration_beat": 0.11770833333333286,
      "velocity": 33,
      "track": 0
    },
    {
      "pitch": 74,
      "start_beat": 27.25,
      "duration_beat": 0.23541666666666572,
      "velocity": 33,
      "track": 0
    },
    {
      "pitch": 74,
      "start_beat": 27.25,
      "duration_beat": 0.23541666666666572,
      "velocity": 43,
      "track": 0
    },
    {
      "pitch": 78,
      "start_beat": 27.25,
      "duration_beat": 0.23541666666666572,
      "velocity": 43,
      "track": 0
    },
    {
      "pitch": 81,
      "start_beat": 27.25,
      "duration_beat": 0.23541666666666572,
      "velocity": 43,
      "track": 0
    },
    {
      "pitch": 74,
      "start_beat": 27.25,
      "duration_beat": 0.11770833333333286,
      "velocity": 33,
      "track": 0
    },
    {
      "pitch": 74,
      "start_beat": 27.25,
      "duration_beat": 0.125,
      "velocity": 13,
      "track": 0
    },
    {
      "pitch": 81,
      "start_beat": 27.375,
      "duration_beat": 0.11770833333333286,
      "velocity": 33,
      "track": 0
    },
    {
      "pitch": 86,
      "start_beat": 27.5,
      "duration_beat": 0.11770833333333286,
      "velocity": 33,
      "track": 0
    },
    {
      "pitch": 72,
      "start_beat": 27.5,
      "duration_beat": 0.7104166666666671,
      "velocity": 33,
      "track": 0
    },
    {
      "pitch": 72,
      "start_beat": 27.5,
      "duration_beat": 0.7104166666666671,
      "velocity": 43,
      "track": 0
    },
    {
      "pitch": 76,
      "start_beat": 27.5,
      "duration_beat": 0.7104166666666671,
      "velocity": 43,
      "track": 0
    },
    {
      "pitch": 79,
      "start_beat": 27.5,
      "duration_beat": 0.7104166666666671,
      "velocity": 43,
      "track": 0
    },
    {
      "pitch": 72,
      "start_beat": 27.5,
      "duration_beat": 0.35520833333333357,
      "velocity": 33,
      "track": 0
    },
    {
      "pitch": 72,
      "start_beat": 27.5,
      "duration_beat": 0.125,
      "velocity": 13,
      "track": 0
    },
    {
      "pitch": 45,
      "start_beat": 27.5,
      "duration_beat": 0.23541666666666572,
      "velocity": 33,
      "track": 1
    },
    {
      "pitch": 45,
      "start_beat": 27.5,
      "duration_beat": 0.23541666666666572,
      "velocity": 43,
      "track": 1
    },
    {
      "pitch": 49,
      "start_beat": 27.5,
      "duration_beat": 0.23541666666666572,
      "velocity": 43,
      "track": 1
    },
    {
      "pitch": 52,
      "start_beat": 27.5,
      "duration_beat": 0.23541666666666572,
      "velocity": 43,
      "track": 1
    },
    {
      "pitch": 45,
      "start_beat": 27.5,
      "duration_beat": 0.11770833333333286,
      "velocity": 33,
      "track": 1
    },
    {
      "pitch": 45,
      "start_beat": 27.5,
      "duration_beat": 0.125,
      "velocity": 13,
      "track": 1
    },
    {
      "pitch": 79,
      "start_beat": 27.625,
      "duration_beat": 0.35520833333333357,
      "velocity": 33,
      "track": 0
    },
    {
      "pitch": 52,
      "start_beat": 27.625,
      "duration_beat": 0.11770833333333286,
      "velocity": 33,
      "track": 1
    },
    {
      "pitch": 84,
      "start_beat": 27.75,
      "duration_beat": 0.35520833333333357,
      "velocity": 33,
      "track": 0
    },
    {
      "pitch": 72,
      "start_beat": 27.75,
      "duration_beat": 0.125,
      "velocity": 13,
      "track": 0
    },
    {
      "pitch": 57,
      "start_beat": 27.75,
      "duration_beat": 0.11770833333333286,
      "velocity": 33,
      "track": 1
    },
    {
      "pitch": 52,
      "start_beat": 27.75,
      "duration_beat": 0.23541666666666572,
      "velocity": 33,
      "track": 1
    },
    {
      "pitch": 52,
      "start_beat": 27.75,
      "duration_beat": 0.23541666666666572,
      "velocity": 43,
      "track": 1
    },
    {
      "pitch": 56,
      "start_beat": 27.75,
      "duration_beat": 0.23541666666666572,
      "velocity": 43,
      "track": 1
    },
    {
      "pitch": 59,
      "start_beat": 27.75,
      "duration_beat": 0.23541666666666572,
      "velocity": 43,
      "track": 1
    },
    {
      "pitch": 52,
      "start_beat": 27.75,
      "duration_beat": 0.11770833333333286,
      "velocity": 33,
      "track": 1
    },
    {
      "pitch": 52,
      "start_beat": 27.75,
      "duration_beat": 0.125,
      "velocity": 13,
      "track": 1
    },
    {
      "pitch": 59,
      "start_beat": 27.875,
      "duration_beat": 0.11770833333333286,
      "velocity": 33,
      "track": 1
    },
    {
      "pitch": 72,
      "start_beat": 28.0,
      "duration_beat": 0.125,
      "velocity": 13,
      "track": 0
    },
    {
      "pitch": 64,
      "start_beat": 28.0,
      "duration_beat": 0.11770833333333286,
      "velocity": 33,
      "track": 1
    },
    {
      "pitch": 57,
      "start_beat": 28.0,
      "duration_beat": 0.23541666666666572,
      "velocity": 33,
      "track": 1
    },
    {
      "pitch": 57,
      "start_beat": 28.0,
      "duration_beat": 0.23541666666666572,
      "velocity": 43,
      "track": 1
    },
    {
      "pitch": 61,
      "start_beat": 28.0,
      "duration_beat": 0.23541666666666572,
      "velocity": 43,
      "track": 1
    },
    {
      "pitch": 64,
      "start_beat": 28.0,
      "duration_beat": 0.23541666666666572,
      "velocity": 43,
      "track": 1
    },
    {
      "pitch": 57,
      "start_beat": 28.0,
      "duration_beat": 0.11770833333333286,
      "velocity": 33,
      "track": 1
    },
    {
      "pitch": 57,
      "start_beat": 28.0,
      "duration_beat": 0.125,
      "velocity": 13,
      "track": 1
    },
    {
      "pitch": 64,
      "start_beat": 28.125,
      "duration_beat": 0.11770833333333286,
      "velocity": 33,
      "track": 1
    },
    {
      "pitch": 69,
      "start_beat": 28.25,
      "duration_beat": 0.11770833333333286,
      "velocity": 33,
      "track": 1
    },
    {
      "pitch": 64,
      "start_beat": 28.25,
      "duration_beat": 0.23541666666666572,
      "velocity": 33,
      "track": 0
    },
    {
      "pitch": 64,
      "start_beat": 28.25,
      "duration_beat": 0.23541666666666572,
      "velocity": 43,
      "track": 0
    },
    {
      "pitch": 68,
      "start_beat": 28.25,
      "duration_beat": 0.23541666666666572,
      "velocity": 43,
      "track": 0
    },
    {
      "pitch": 71,
      "start_beat": 28.25,
      "duration_beat": 0.23541666666666572,
      "velocity": 43,
      "track": 0
    },
    {
      "pitch": 64,
      "start_beat": 28.25,
      "duration_beat": 0.11770833333333286,
      "velocity": 33,
      "track": 0
    },
    {
      "pitch": 64,
      "start_beat": 28.25,
      "duration_beat": 0.125,
      "velocity": 13,
      "track": 0
    },
    {
      "pitch": 71,
      "start_beat": 28.375,
      "duration_beat": 0.11770833333333286,
      "velocity": 33,
      "track": 0
    },
    {
      "pitch": 76,
      "start_beat": 28.5,
      "duration_beat": 0.11770833333333286,
      "velocity": 33,
      "track": 0
    },
    {
      "pitch": 74,
      "start_beat": 28.5,
      "duration_beat": 0.23541666666666572,
      "velocity": 33,
      "track": 0
    },
    {
      "pitch": 74,
      "start_beat": 28.5,
      "duration_beat": 0.23541666666666572,
      "velocity": 43,
      "track": 0
    },
    {
      "pitch": 78,
      "start_beat": 28.5,
      "duration_beat": 0.23541666666666572,
      "velocity": 43,
      "track": 0
    },
    {
      "pitch": 81,
      "start_beat": 28.5,
      "duration_beat": 0.23541666666666572,
      "velocity": 43,
      "track": 0
    },
    {
      "pitch": 74,
      "start_beat": 28.5,
      "duration_beat": 0.11770833333333286,
      "velocity": 33,
      "track": 0
    },
    {
      "pitch": 74,
      "start_beat": 28.5,
      "duration_beat": 0.125,
      "velocity": 13,
      "track": 0
    },
    {
      "pitch": 81,
      "start_beat": 28.625,
      "duration_beat": 0.11770833333333286,
      "velocity": 33,
      "track": 0
    },
    {
      "pitch": 86,
      "start_beat": 28.75,
      "duration_beat": 0.11770833333333286,
      "velocity": 33,
      "track": 0
    },
    {
      "pitch": 72,
      "start_beat": 28.75,
      "duration_beat": 0.23541666666666572,
      "velocity": 33,
      "track": 0
    },
    {
      "pitch": 72,
      "start_beat": 28.75,
      "duration_beat": 0.23541666666666572,
      "velocity": 43,
      "track": 0
    },
    {
      "pitch": 76,
      "start_beat": 28.75,
      "duration_beat": 0.23541666666666572,
      "velocity": 43,
      "track": 0
    },
    {
      "pitch": 79,
      "start_beat": 28.75,
      "duration_beat": 0.23541666666666572,
      "velocity": 43,
      "track": 0
    },
    {
      "pitch": 72,
      "start_beat": 28.75,
      "duration_beat": 0.11770833333333286,
      "velocity": 33,
      "track": 0
    },
    {
      "pitch": 72,
      "start_beat": 28.75,
      "duration_beat": 0.125,
      "velocity": 13,
      "track": 0
    },
    {
      "pitch": 79,
      "start_beat": 28.875,
      "duration_beat": 0.11770833333333286,
      "velocity": 33,
      "track": 0
    },
    {
      "pitch": 84,
      "start_beat": 29.0,
      "duration_beat": 0.11770833333333286,
      "velocity": 33,
      "track": 0
    },
    {
      "pitch": 71,
      "start_beat": 29.0,
      "duration_beat": 0.47291666666666643,
      "velocity": 33,
      "track": 0
    },
    {
      "pitch": 71,
      "start_beat": 29.0,
      "duration_beat": 0.47291666666666643,
      "velocity": 43,
      "track": 0
    },
    {
      "pitch": 75,
      "start_beat": 29.0,
      "duration_beat": 0.47291666666666643,
      "velocity": 43,
      "track": 0
    },
    {
      "pitch": 78,
      "start_beat": 29.0,
      "duration_beat": 0.47291666666666643,
      "velocity": 43,
      "track": 0
    },
    {
      "pitch": 71,
      "start_beat": 29.0,
      "duration_beat": 0.23645833333333321,
      "velocity": 33,
      "track": 0
    },
    {
      "pitch": 71,
      "start_beat": 29.0,
      "duration_beat": 0.125,
      "velocity": 13,
      "track": 0
    },
    {
      "pitch": 40,
      "start_beat": 29.0,
      "duration_beat": 0.23541666666666572,
      "velocity": 33,
      "track": 1
    },
    {
      "pitch": 40,
      "start_beat": 29.0,
      "duration_beat": 0.23541666666666572,
      "velocity": 43,
      "track": 1
    },
    {
      "pitch": 44,
      "start_beat": 29.0,
      "duration_beat": 0.23541666666666572,
      "velocity": 43,
      "track": 1
    },
    {
      "pitch": 47,
      "start_beat": 29.0,
      "duration_beat": 0.23541666666666572,
      "velocity": 43,
      "track": 1
    },
    {
      "pitch": 40,
      "start_beat": 29.0,
      "duration_beat": 0.11770833333333286,
      "velocity": 33,
      "track": 1
    },
    {
      "pitch": 40,
      "start_beat": 29.0,
      "duration_beat": 0.125,
      "velocity": 13,
      "track": 1
    },
    {
      "pitch": 78,
      "start_beat": 29.125,
      "duration_beat": 0.23645833333333321,
      "velocity": 33,
      "track": 0
    },
    {
      "pitch": 47,
      "start_beat": 29.125,
      "duration_beat": 0.11770833333333286,
      "velocity": 33,
      "track": 1
    },
    {
      "pitch": 83,
      "start_beat": 29.25,
      "duration_beat": 0.23645833333333321,
      "velocity": 33,
      "track": 0
    },
    {
      "pitch": 71,
      "start_beat": 29.25,
      "duration_beat": 0.125,
      "velocity": 13,
      "track": 0
    },
    {
      "pitch": 52,
      "start_beat": 29.25,
      "duration_beat": 0.11770833333333286,
      "velocity": 33,
      "track": 1
    },
    {
      "pitch": 52,
      "start_beat": 29.25,
      "duration_beat": 0.23541666666666572,
      "velocity": 33,
      "track": 1
    },
    {
      "pitch": 52,
      "start_beat": 29.25,
      "duration_beat": 0.23541666666666572,
      "velocity": 43,
      "track": 1
    },
    {
      "pitch": 56,
      "start_beat": 29.25,
      "duration_beat": 0.23541666666666572,
      "velocity": 43,
      "track": 1
    },
    {
      "pitch": 59,
      "start_beat": 29.25,
      "duration_beat": 0.23541666666666572,
      "velocity": 43,
      "track": 1
    },
    {
      "pitch": 52,
      "start_beat": 29.25,
      "duration_beat": 0.11770833333333286,
      "velocity": 33,
      "track": 1
    },
    {
      "pitch": 52,
      "start_beat": 29.25,
      "duration_beat": 0.125,
      "velocity": 13,
      "track": 1
    },
    {
      "pitch": 59,
      "start_beat": 29.375,
      "duration_beat": 0.11770833333333286,
      "velocity": 33,
      "track": 1
    },
    {
      "pitch": 64,
      "start_beat": 29.5,
      "duration_beat": 0.11770833333333286,
      "velocity": 33,
      "track": 1
    },
    {
      "pitch": 64,
      "start_beat": 29.5,
      "duration_beat": 0.23541666666666572,
      "velocity": 33,
      "track": 1
    },
    {
      "pitch": 64,
      "start_beat": 29.5,
      "duration_beat": 0.23541666666666572,
      "velocity": 43,
      "track": 1
    },
    {
      "pitch": 68,
      "start_beat": 29.5,
      "duration_beat": 0.23541666666666572,
      "velocity": 43,
      "track": 1
    },
    {
      "pitch": 71,
      "start_beat": 29.5,
      "duration_beat": 0.23541666666666572,
      "velocity": 43,
      "track": 1
    },
    {
      "pitch": 64,
      "start_beat": 29.5,
      "duration_beat": 0.11770833333333286,
      "velocity": 33,
      "track": 1
    },
    {
      "pitch": 64,
      "start_beat": 29.5,
      "duration_beat": 0.125,
      "velocity": 13,
      "track": 1
    },
    {
      "pitch": 71,
      "start_beat": 29.625,
      "duration_beat": 0.11770833333333286,
      "velocity": 33,
      "track": 1
    },
    {
      "pitch": 76,
      "start_beat": 29.75,
      "duration_beat": 0.11770833333333286,
      "velocity": 33,
      "track": 1
    },
    {
      "pitch": 64,
      "start_beat": 29.75,
      "duration_beat": 0.247916666666665,
      "velocity": 33,
      "track": 0
    },
    {
      "pitch": 64,
      "start_beat": 29.75,
      "duration_beat": 0.247916666666665,
      "velocity": 43,
      "track": 0
    },
    {
      "pitch": 68,
      "start_beat": 29.75,
      "duration_beat": 0.247916666666665,
      "velocity": 43,
      "track": 0
    },
    {
      "pitch": 71,
      "start_beat": 29.75,
      "duration_beat": 0.247916666666665,
      "velocity": 43,
      "track": 0
    },
    {
      "pitch": 64,
      "start_beat": 29.75,
      "duration_beat": 0.1239583333333325,
      "velocity": 33,
      "track": 0
    },
    {
      "pitch": 64,
      "start_beat": 29.75,
      "duration_beat": 0.125,
      "velocity": 13,
      "track": 0
    },
    {
      "pitch": 71,
      "start_beat": 29.875,
      "duration_beat": 0.1239583333333325,
      "velocity": 33,
      "track": 0
    },
    {
      "pitch": 76,
      "start_beat": 30.0,
      "duration_beat": 0.1239583333333325,
      "velocity": 33,
      "track": 0
    },
    {
      "pitch": 76,
      "start_beat": 30.0,
      "duration_beat": 0.23541666666666572,
      "velocity": 33,
      "track": 0
    },
    {
      "pitch": 76,
      "start_beat": 30.0,
      "duration_beat": 0.23541666666666572,
      "velocity": 43,
      "track": 0
    },
    {
      "pitch": 80,
      "start_beat": 30.0,
      "duration_beat": 0.23541666666666572,
      "velocity": 43,
      "track": 0
    },
    {
      "pitch": 83,
      "start_beat": 30.0,
      "duration_beat": 0.23541666666666572,
      "velocity": 43,
      "track": 0
    },
    {
      "pitch": 76,
      "start_beat": 30.0,
      "duration_beat": 0.11770833333333286,
      "velocity": 33,
      "track": 0
    },
    {
      "pitch": 76,
      "start_beat": 30.0,
      "duration_beat": 0.125,
      "velocity": 13,
      "track": 0
    },
    {
      "pitch": 83,
      "start_beat": 30.125,
      "duration_beat": 0.11770833333333286,
      "velocity": 33,
      "track": 0
    },
    {
      "pitch": 88,
      "start_beat": 30.25,
      "duration_beat": 0.11770833333333286,
      "velocity": 33,
      "track": 0
    },
    {
      "pitch": 64,
      "start_beat": 30.25,
      "duration_beat": 0.247916666666665,
      "velocity": 33,
      "track": 1
    },
    {
      "pitch": 64,
      "start_beat": 30.25,
      "duration_beat": 0.247916666666665,
      "velocity": 43,
      "track": 1
    },
    {
      "pitch": 68,
      "start_beat": 30.25,
      "duration_beat": 0.247916666666665,
      "velocity": 43,
      "track": 1
    },
    {
      "pitch": 71,
      "start_beat": 30.25,
      "duration_beat": 0.247916666666665,
      "velocity": 43,
      "track": 1
    },
    {
      "pitch": 64,
      "start_beat": 30.25,
      "duration_beat": 0.1239583333333325,
      "velocity": 33,
      "track": 1
    },
    {
      "pitch": 64,
      "start_beat": 30.25,
      "duration_beat": 0.125,
      "velocity": 13,
      "track": 1
    },
    {
      "pitch": 71,
      "start_beat": 30.375,
      "duration_beat": 0.1239583333333325,
      "velocity": 33,
      "track": 1
    },
    {
      "pitch": 76,
      "start_beat": 30.5,
      "duration_beat": 0.1239583333333325,
      "velocity": 33,
      "track": 1
    },
    {
      "pitch": 76,
      "start_beat": 30.5,
      "duration_beat": 0.23541666666666572,
      "velocity": 33,
      "track": 1
    },
    {
      "pitch": 76,
      "start_beat": 30.5,
      "duration_beat": 0.23541666666666572,
      "velocity": 43,
      "track": 1
    },
    {
      "pitch": 80,
      "start_beat": 30.5,
      "duration_beat": 0.23541666666666572,
      "velocity": 43,
      "track": 1
    },
    {
      "pitch": 83,
      "start_beat": 30.5,
      "duration_beat": 0.23541666666666572,
      "velocity": 43,
      "track": 1
    },
    {
      "pitch": 76,
      "start_beat": 30.5,
      "duration_beat": 0.11770833333333286,
      "velocity": 33,
      "track": 1
    },
    {
      "pitch": 76,
      "start_beat": 30.5,
      "duration_beat": 0.125,
      "velocity": 13,
      "track": 1
    },
    {
      "pitch": 83,
      "start_beat": 30.625,
      "duration_beat": 0.11770833333333286,
      "velocity": 33,
      "track": 1
    },
    {
      "pitch": 88,
      "start_beat": 30.75,
      "duration_beat": 0.11770833333333286,
      "velocity": 33,
      "track": 1
    },
    {
      "pitch": 76,
      "start_beat": 30.75,
      "duration_beat": 0.247916666666665,
      "velocity": 33,
      "track": 0
    },
    {
      "pitch": 76,
      "start_beat": 30.75,
      "duration_beat": 0.247916666666665,
      "velocity": 43,
      "track": 0
    },
    {
      "pitch": 80,
      "start_beat": 30.75,
      "duration_beat": 0.247916666666665,
      "velocity": 43,
      "track": 0
    },
    {
      "pitch": 83,
      "start_beat": 30.75,
      "duration_beat": 0.247916666666665,
      "velocity": 43,
      "track": 0
    },
    {
      "pitch": 76,
      "start_beat": 30.75,
      "duration_beat": 0.1239583333333325,
      "velocity": 33,
      "track": 0
    },
    {
      "pitch": 76,
      "start_beat": 30.75,
      "duration_beat": 0.125,
      "velocity": 13,
      "track": 0
    },
    {
      "pitch": 83,
      "start_beat": 30.875,
      "duration_beat": 0.1239583333333325,
      "velocity": 33,
      "track": 0
    },
    {
      "pitch": 88,
      "start_beat": 31.0,
      "duration_beat": 0.1239583333333325,
      "velocity": 33,
      "track": 0
    },
    {
      "pitch": 88,
      "start_beat": 31.0,
      "duration_beat": 0.23541666666666572,
      "velocity": 33,
      "track": 0
    },
    {
      "pitch": 88,
      "start_beat": 31.0,
      "duration_beat": 0.23541666666666572,
      "velocity": 43,
      "track": 0
    },
    {
      "pitch": 92,
      "start_beat": 31.0,
      "duration_beat": 0.23541666666666572,
      "velocity": 43,
      "track": 0
    },
    {
      "pitch": 95,
      "start_beat": 31.0,
      "duration_beat": 0.23541666666666572,
      "velocity": 43,
      "track": 0
    },
    {
      "pitch": 88,
      "start_beat": 31.0,
      "duration_beat": 0.11770833333333286,
      "velocity": 33,
      "track": 0
    },
    {
      "pitch": 88,
      "start_beat": 31.0,
      "duration_beat": 0.125,
      "velocity": 13,
      "track": 0
    },
    {
      "pitch": 95,
      "start_beat": 31.125,
      "duration_beat": 0.11770833333333286,
      "velocity": 33,
      "track": 0
    },
    {
      "pitch": 100,
      "start_beat": 31.25,
      "duration_beat": 0.11770833333333286,
      "velocity": 33,
      "track": 0
    },
    {
      "pitch": 75,
      "start_beat": 31.25,
      "duration_beat": 0.247916666666665,
      "velocity": 33,
      "track": 1
    },
    {
      "pitch": 75,
      "start_beat": 31.25,
      "duration_beat": 0.247916666666665,
      "velocity": 43,
      "track": 1
    },
    {
      "pitch": 79,
      "start_beat": 31.25,
      "duration_beat": 0.247916666666665,
      "velocity": 43,
      "track": 1
    },
    {
      "pitch": 82,
      "start_beat": 31.25,
      "duration_beat": 0.247916666666665,
      "velocity": 43,
      "track": 1
    },
    {
      "pitch": 75,
      "start_beat": 31.25,
      "duration_beat": 0.1239583333333325,
      "velocity": 33,
      "track": 1
    },
    {
      "pitch": 75,
      "start_beat": 31.25,
      "duration_beat": 0.125,
      "velocity": 13,
      "track": 1
    },
    {
      "pitch": 82,
      "start_beat": 31.375,
      "duration_beat": 0.1239583333333325,
      "velocity": 33,
      "track": 1
    },
    {
      "pitch": 87,
      "start_beat": 31.5,
      "duration_beat": 0.1239583333333325,
      "velocity": 33,
      "track": 1
    },
    {
      "pitch": 76,
      "start_beat": 31.5,
      "duration_beat": 0.23541666666666572,
      "velocity": 33,
      "track": 1
    },
    {
      "pitch": 76,
      "start_beat": 31.5,
      "duration_beat": 0.23541666666666572,
      "velocity": 43,
      "track": 1
    },
    {
      "pitch": 80,
      "start_beat": 31.5,
      "duration_beat": 0.23541666666666572,
      "velocity": 43,
      "track": 1
    },
    {
      "pitch": 83,
      "start_beat": 31.5,
      "duration_beat": 0.23541666666666572,
      "velocity": 43,
      "track": 1
    },
    {
      "pitch": 76,
      "start_beat": 31.5,
      "duration_beat": 0.11770833333333286,
      "velocity": 33,
      "track": 1
    },
    {
      "pitch": 76,
      "start_beat": 31.5,
      "duration_beat": 0.125,
      "velocity": 13,
      "track": 1
    },
    {
      "pitch": 83,
      "start_beat": 31.625,
      "duration_beat": 0.11770833333333286,
      "velocity": 33,
      "track": 1
    },
    {
      "pitch": 88,
      "start_beat": 31.75,
      "duration_beat": 0.11770833333333286,
      "velocity": 33,
      "track": 1
    },
    {
      "pitch": 75,
      "start_beat": 31.75,
      "duration_beat": 0.247916666666665,
      "velocity": 33,
      "track": 0
    },
    {
      "pitch": 75,
      "start_beat": 31.75,
      "duration_beat": 0.247916666666665,
      "velocity": 43,
      "track": 0
    },
    {
      "pitch": 79,
      "start_beat": 31.75,
      "duration_beat": 0.247916666666665,
      "velocity": 43,
      "track": 0
    },
    {
      "pitch": 82,
      "start_beat": 31.75,
      "duration_beat": 0.247916666666665,
      "velocity": 43,
      "track": 0
    },
    {
      "pitch": 75,
      "start_beat": 31.75,
      "duration_beat": 0.1239583333333325,
      "velocity": 33,
      "track": 0
    },
    {
      "pitch": 75,
      "start_beat": 31.75,
      "duration_beat": 0.125,
      "velocity": 13,
      "track": 0
    },
    {
      "pitch": 82,
      "start_beat": 31.875,
      "duration_beat": 0.1239583333333325,
      "velocity": 33,
      "track": 0
    },
    {
      "pitch": 87,
      "start_beat": 32.0,
      "duration_beat": 0.1239583333333325,
      "velocity": 33,
      "track": 0
    },
    {
      "pitch": 76,
      "start_beat": 32.0,
      "duration_beat": 0.47291666666667,
      "velocity": 33,
      "track": 0
    },
    {
      "pitch": 76,
      "start_beat": 32.0,
      "duration_beat": 0.47291666666667,
      "velocity": 43,
      "track": 0
    },
    {
      "pitch": 80,
      "start_beat": 32.0,
      "duration_beat": 0.47291666666667,
      "velocity": 43,
      "track": 0
    },
    {
      "pitch": 83,
      "start_beat": 32.0,
      "duration_beat": 0.47291666666667,
      "velocity": 43,
      "track": 0
    },
    {
      "pitch": 76,
      "start_beat": 32.0,
      "duration_beat": 0.236458333333335,
      "velocity": 33,
      "track": 0
    },
    {
      "pitch": 76,
      "start_beat": 32.0,
      "duration_beat": 0.125,
      "velocity": 13,
      "track": 0
    },
    {
      "pitch": 83,
      "start_beat": 32.125,
      "duration_beat": 0.236458333333335,
      "velocity": 33,
      "track": 0
    },
    {
      "pitch": 88,
      "start_beat": 32.25,
      "duration_beat": 0.236458333333335,
      "velocity": 33,
      "track": 0
    },
    {
      "pitch": 76,
      "start_beat": 32.25,
      "duration_beat": 0.125,
      "velocity": 13,
      "track": 0
    },
    {
      "pitch": 75,
      "start_beat": 32.25,
      "duration_beat": 0.24791666666666856,
      "velocity": 33,
      "track": 1
    },
    {
      "pitch": 75,
      "start_beat": 32.25,
      "duration_beat": 0.24791666666666856,
      "velocity": 43,
      "track": 1
    },
    {
      "pitch": 79,
      "start_beat": 32.25,
      "duration_beat": 0.24791666666666856,
      "velocity": 43,
      "track": 1
    },
    {
      "pitch": 82,
      "start_beat": 32.25,
      "duration_beat": 0.24791666666666856,
      "velocity": 43,
      "track": 1
    },
    {
      "pitch": 75,
      "start_beat": 32.25,
      "duration_beat": 0.12395833333333428,
      "velocity": 33,
      "track": 1
    },
    {
      "pitch": 75,
      "start_beat": 32.25,
      "duration_beat": 0.125,
      "velocity": 13,
      "track": 1
    },
    {
      "pitch": 82,
      "start_beat": 32.375,
      "duration_beat": 0.12395833333333428,
      "velocity": 33,
      "track": 1
    },
    {
      "pitch": 87,
      "start_beat": 32.5,
      "duration_beat": 0.12395833333333428,
      "velocity": 33,
      "track": 1
    },
    {
      "pitch": 76,
      "start_beat": 32.5,
      "duration_beat": 0.23541666666666572,
      "velocity": 33,
      "track": 1
    },
    {
      "pitch": 76,
      "start_beat": 32.5,
      "duration_beat": 0.23541666666666572,
      "velocity": 43,
      "track": 1
    },
    {
      "pitch": 80,
      "start_beat": 32.5,
      "duration_beat": 0.23541666666666572,
      "velocity": 43,
      "track": 1
    },
    {
      "pitch": 83,
      "start_beat": 32.5,
      "duration_beat": 0.23541666666666572,
      "velocity": 43,
      "track": 1
    },
    {
      "pitch": 76,
      "start_beat": 32.5,
      "duration_beat": 0.11770833333333286,
      "velocity": 33,
      "track": 1
    },
    {
      "pitch": 76,
      "start_beat": 32.5,
      "duration_beat": 0.125,
      "velocity": 13,
      "track": 1
    },
    {
      "pitch": 83,
      "start_beat": 32.625,
      "duration_beat": 0.11770833333333286,
      "velocity": 33,
      "track": 1
    },
    {
      "pitch": 88,
      "start_beat": 32.75,
      "duration_beat": 0.11770833333333286,
      "velocity": 33,
      "track": 1
    },
    {
      "pitch": 75,
      "start_beat": 32.75,
      "duration_beat": 0.23541666666666572,
      "velocity": 33,
      "track": 0
    },
    {
      "pitch": 75,
      "start_beat": 32.75,
      "duration_beat": 0.23541666666666572,
      "velocity": 43,
      "track": 0
    },
    {
      "pitch": 79,
      "start_beat": 32.75,
      "duration_beat": 0.23541666666666572,
      "velocity": 43,
      "track": 0
    },
    {
      "pitch": 82,
      "start_beat": 32.75,
      "duration_beat": 0.23541666666666572,
      "velocity": 43,
      "track": 0
    },
    {
      "pitch": 75,
      "start_beat": 32.75,
      "duration_beat": 0.11770833333333286,
      "velocity": 33,
      "track": 0
    },
    {
      "pitch": 75,
      "start_beat": 32.75,
      "duration_beat": 0.125,
      "velocity": 13,
      "track": 0
    },
    {
      "pitch": 82,
      "start_beat": 32.875,
      "duration_beat": 0.11770833333333286,
      "velocity": 33,
      "track": 0
    },
    {
      "pitch": 87,
      "start_beat": 33.0,
      "duration_beat": 0.11770833333333286,
      "velocity": 33,
      "track": 0
    },
    {
      "pitch": 76,
      "start_beat": 33.0,
      "duration_beat": 0.23541666666666572,
      "velocity": 33,
      "track": 0
    },
    {
      "pitch": 76,
      "start_beat": 33.0,
      "duration_beat": 0.23541666666666572,
      "velocity": 43,
      "track": 0
    },
    {
      "pitch": 80,
      "start_beat": 33.0,
      "duration_beat": 0.23541666666666572,
      "velocity": 43,
      "track": 0
    },
    {
      "pitch": 83,
      "start_beat": 33.0,
      "duration_beat": 0.23541666666666572,
      "velocity": 43,
      "track": 0
    },
    {
      "pitch": 76,
      "start_beat": 33.0,
      "duration_beat": 0.11770833333333286,
      "velocity": 33,
      "track": 0
    },
    {
      "pitch": 76,
      "start_beat": 33.0,
      "duration_beat": 0.125,
      "velocity": 13,
      "track": 0
    },
    {
      "pitch": 83,
      "start_beat": 33.125,
      "duration_beat": 0.11770833333333286,
      "velocity": 33,
      "track": 0
    },
    {
      "pitch": 88,
      "start_beat": 33.25,
      "duration_beat": 0.11770833333333286,
      "velocity": 33,
      "track": 0
    },
    {
      "pitch": 75,
      "start_beat": 33.25,
      "duration_beat": 0.23541666666666572,
      "velocity": 33,
      "track": 0
    },
    {
      "pitch": 75,
      "start_beat": 33.25,
      "duration_beat": 0.23541666666666572,
      "velocity": 43,
      "track": 0
    },
    {
      "pitch": 79,
      "start_beat": 33.25,
      "duration_beat": 0.23541666666666572,
      "velocity": 43,
      "track": 0
    },
    {
      "pitch": 82,
      "start_beat": 33.25,
      "duration_beat": 0.23541666666666572,
      "velocity": 43,
      "track": 0
    },
    {
      "pitch": 75,
      "start_beat": 33.25,
      "duration_beat": 0.11770833333333286,
      "velocity": 33,
      "track": 0
    },
    {
      "pitch": 75,
      "start_beat": 33.25,
      "duration_beat": 0.125,
      "velocity": 13,
      "track": 0
    },
    {
      "pitch": 82,
      "start_beat": 33.375,
      "duration_beat": 0.11770833333333286,
      "velocity": 33,
      "track": 0
    },
    {
      "pitch": 87,
      "start_beat": 33.5,
      "duration_beat": 0.11770833333333286,
      "velocity": 33,
      "track": 0
    },
    {
      "pitch": 76,
      "start_beat": 33.5,
      "duration_beat": 0.23541666666666572,
      "velocity": 33,
      "track": 0
    },
    {
      "pitch": 76,
      "start_beat": 33.5,
      "duration_beat": 0.23541666666666572,
      "velocity": 43,
      "track": 0
    },
    {
      "pitch": 80,
      "start_beat": 33.5,
      "duration_beat": 0.23541666666666572,
      "velocity": 43,
      "track": 0
    },
    {
      "pitch": 83,
      "start_beat": 33.5,
      "duration_beat": 0.23541666666666572,
      "velocity": 43,
      "track": 0
    },
    {
      "pitch": 76,
      "start_beat": 33.5,
      "duration_beat": 0.11770833333333286,
      "velocity": 33,
      "track": 0
    },
    {
      "pitch": 76,
      "start_beat": 33.5,
      "duration_beat": 0.125,
      "velocity": 13,
      "track": 0
    },
    {
      "pitch": 83,
      "start_beat": 33.625,
      "duration_beat": 0.11770833333333286,
      "velocity": 33,
      "track": 0
    },
    {
      "pitch": 88,
      "start_beat": 33.75,
      "duration_beat": 0.11770833333333286,
      "velocity": 33,
      "track": 0
    },
    {
      "pitch": 75,
      "start_beat": 33.75,
      "duration_beat": 0.23541666666666572,
      "velocity": 33,
      "track": 0
    },
    {
      "pitch": 75,
      "start_beat": 33.75,
      "duration_beat": 0.23541666666666572,
      "velocity": 43,
      "track": 0
    },
    {
      "pitch": 79,
      "start_beat": 33.75,
      "duration_beat": 0.23541666666666572,
      "velocity": 43,
      "track": 0
    },
    {
      "pitch": 82,
      "start_beat": 33.75,
      "duration_beat": 0.23541666666666572,
      "velocity": 43,
      "track": 0
    },
    {
      "pitch": 75,
      "start_beat": 33.75,
      "duration_beat": 0.11770833333333286,
      "velocity": 33,
      "track": 0
    },
    {
      "pitch": 75,
      "start_beat": 33.75,
      "duration_beat": 0.125,
      "velocity": 13,
      "track": 0
    },
    {
      "pitch": 82,
      "start_beat": 33.875,
      "duration_beat": 0.11770833333333286,
      "velocity": 33,
      "track": 0
    },
    {
      "pitch": 87,
      "start_beat": 34.0,
      "duration_beat": 0.11770833333333286,
      "velocity": 33,
      "track": 0
    },
    {
      "pitch": 76,
      "start_beat": 34.0,
      "duration_beat": 0.23541666666666572,
      "velocity": 33,
      "track": 0
    },
    {
      "pitch": 76,
      "start_beat": 34.0,
      "duration_beat": 0.23541666666666572,
      "velocity": 43,
      "track": 0
    },
    {
      "pitch": 80,
      "start_beat": 34.0,
      "duration_beat": 0.23541666666666572,
      "velocity": 43,
      "track": 0
    },
    {
      "pitch": 83,
      "start_beat": 34.0,
      "duration_beat": 0.23541666666666572,
      "velocity": 43,
      "track": 0
    },
    {
      "pitch": 76,
      "start_beat": 34.0,
      "duration_beat": 0.11770833333333286,
      "velocity": 33,
      "track": 0
    },
    {
      "pitch": 76,
      "start_beat": 34.0,
      "duration_beat": 0.125,
      "velocity": 13,
      "track": 0
    },
    {
      "pitch": 83,
      "start_beat": 34.125,
      "duration_beat": 0.11770833333333286,
      "velocity": 33,
      "track": 0
    },
    {
      "pitch": 88,
      "start_beat": 34.25,
      "duration_beat": 0.11770833333333286,
      "velocity": 33,
      "track": 0
    },
    {
      "pitch": 71,
      "start_beat": 34.25,
      "duration_beat": 0.23541666666666572,
      "velocity": 33,
      "track": 0
    },
    {
      "pitch": 71,
      "start_beat": 34.25,
      "duration_beat": 0.23541666666666572,
      "velocity": 43,
      "track": 0
    },
    {
      "pitch": 75,
      "start_beat": 34.25,
      "duration_beat": 0.23541666666666572,
      "velocity": 43,
      "track": 0
    },
    {
      "pitch": 78,
      "start_beat": 34.25,
      "duration_beat": 0.23541666666666572,
      "velocity": 43,
      "track": 0
    },
    {
      "pitch": 71,
      "start_beat": 34.25,
      "duration_beat": 0.11770833333333286,
      "velocity": 33,
      "track": 0
    },
    {
      "pitch": 71,
      "start_beat": 34.25,
      "duration_beat": 0.125,
      "velocity": 13,
      "track": 0
    },
    {
      "pitch": 78,
      "start_beat": 34.375,
      "duration_beat": 0.11770833333333286,
      "velocity": 33,
      "track": 0
    },
    {
      "pitch": 83,
      "start_beat": 34.5,
      "duration_beat": 0.11770833333333286,
      "velocity": 33,
      "track": 0
    },
    {
      "pitch": 74,
      "start_beat": 34.5,
      "duration_beat": 0.23541666666666572,
      "velocity": 33,
      "track": 0
    },
    {
      "pitch": 74,
      "start_beat": 34.5,
      "duration_beat": 0.23541666666666572,
      "velocity": 43,
      "track": 0
    },
    {
      "pitch": 78,
      "start_beat": 34.5,
      "duration_beat": 0.23541666666666572,
      "velocity": 43,
      "track": 0
    },
    {
      "pitch": 81,
      "start_beat": 34.5,
      "duration_beat": 0.23541666666666572,
      "velocity": 43,
      "track": 0
    },
    {
      "pitch": 74,
      "start_beat": 34.5,
      "duration_beat": 0.11770833333333286,
      "velocity": 33,
      "track": 0
    },
    {
      "pitch": 74,
      "start_beat": 34.5,
      "duration_beat": 0.125,
      "velocity": 13,
      "track": 0
    },
    {
      "pitch": 81,
      "start_beat": 34.625,
      "duration_beat": 0.11770833333333286,
      "velocity": 33,
      "track": 0
    },
    {
      "pitch": 86,
      "start_beat": 34.75,
      "duration_beat": 0.11770833333333286,
      "velocity": 33,
      "track": 0
    },
    {
      "pitch": 72,
      "start_beat": 34.75,
      "duration_beat": 0.23541666666666572,
      "velocity": 33,
      "track": 0
    },
    {
      "pitch": 72,
      "start_beat": 34.75,
      "duration_beat": 0.23541666666666572,
      "velocity": 43,
      "track": 0
    },
    {
      "pitch": 76,
      "start_beat": 34.75,
      "duration_beat": 0.23541666666666572,
      "velocity": 43,
      "track": 0
    },
    {
      "pitch": 79,
      "start_beat": 34.75,
      "duration_beat": 0.23541666666666572,
      "velocity": 43,
      "track": 0
    },
    {
      "pitch": 72,
      "start_beat": 34.75,
      "duration_beat": 0.11770833333333286,
      "velocity": 33,
      "track": 0
    },
    {
      "pitch": 72,
      "start_beat": 34.75,
      "duration_beat": 0.125,
      "velocity": 13,
      "track": 0
    },
    {
      "pitch": 79,
      "start_beat": 34.875,
      "duration_beat": 0.11770833333333286,
      "velocity": 33,
      "track": 0
    },
    {
      "pitch": 84,
      "start_beat": 35.0,
      "duration_beat": 0.11770833333333286,
      "velocity": 33,
      "track": 0
    },
    {
      "pitch": 69,
      "start_beat": 35.0,
      "duration_beat": 0.47291666666667,
      "velocity": 33,
      "track": 0
    },
    {
      "pitch": 69,
      "start_beat": 35.0,
      "duration_beat": 0.47291666666667,
      "velocity": 43,
      "track": 0
    },
    {
      "pitch": 73,
      "start_beat": 35.0,
      "duration_beat": 0.47291666666667,
      "velocity": 43,
      "track": 0
    },
    {
      "pitch": 76,
      "start_beat": 35.0,
      "duration_beat": 0.47291666666667,
      "velocity": 43,
      "track": 0
    },
    {
      "pitch": 69,
      "start_beat": 35.0,
      "duration_beat": 0.236458333333335,
      "velocity": 33,
      "track": 0
    },
    {
      "pitch": 69,
      "start_beat": 35.0,
      "duration_beat": 0.125,
      "velocity": 13,
      "track": 0
    },
    {
      "pitch": 45,
      "start_beat": 35.0,
      "duration_beat": 0.23541666666666572,
      "velocity": 33,
      "track": 1
    },
    {
      "pitch": 45,
      "start_beat": 35.0,
      "duration_beat": 0.23541666666666572,
      "velocity": 43,
      "track": 1
    },
    {
      "pitch": 49,
      "start_beat": 35.0,
      "duration_beat": 0.23541666666666572,
      "velocity": 43,
      "track": 1
    },
    {
      "pitch": 52,
      "start_beat": 35.0,
      "duration_beat": 0.23541666666666572,
      "velocity": 43,
      "track": 1
    },
    {
      "pitch": 45,
      "start_beat": 35.0,
      "duration_beat": 0.11770833333333286,
      "velocity": 33,
      "track": 1
    },
    {
      "pitch": 45,
      "start_beat": 35.0,
      "duration_beat": 0.125,
      "velocity": 13,
      "track": 1
    },
    {
      "pitch": 76,
      "start_beat": 35.125,
      "duration_beat": 0.236458333333335,
      "velocity": 33,
      "track": 0
    },
    {
      "pitch": 52,
      "start_beat": 35.125,
      "duration_beat": 0.11770833333333286,
      "velocity": 33,
      "track": 1
    },
    {
      "pitch": 81,
      "start_beat": 35.25,
      "duration_beat": 0.236458333333335,
      "velocity": 33,
      "track": 0
    },
    {
      "pitch": 69,
      "start_beat": 35.25,
      "duration_beat": 0.125,
      "velocity": 13,
      "track": 0
    },
    {
      "pitch": 57,
      "start_beat": 35.25,
      "duration_beat": 0.11770833333333286,
      "velocity": 33,
      "track": 1
    },
    {
      "pitch": 52,
      "start_beat": 35.25,
      "duration_beat": 0.23541666666666572,
      "velocity": 33,
      "track": 1
    },
    {
      "pitch": 52,
      "start_beat": 35.25,
      "duration_beat": 0.23541666666666572,
      "velocity": 43,
      "track": 1
    },
    {
      "pitch": 56,
      "start_beat": 35.25,
      "duration_beat": 0.23541666666666572,
      "velocity": 43,
      "track": 1
    },
    {
      "pitch": 59,
      "start_beat": 35.25,
      "duration_beat": 0.23541666666666572,
      "velocity": 43,
      "track": 1
    },
    {
      "pitch": 52,
      "start_beat": 35.25,
      "duration_beat": 0.11770833333333286,
      "velocity": 33,
      "track": 1
    },
    {
      "pitch": 52,
      "start_beat": 35.25,
      "duration_beat": 0.125,
      "velocity": 13,
      "track": 1
    },
    {
      "pitch": 59,
      "start_beat": 35.375,
      "duration_beat": 0.11770833333333286,
      "velocity": 33,
      "track": 1
    },
    {
      "pitch": 64,
      "start_beat": 35.5,
      "duration_beat": 0.11770833333333286,
      "velocity": 33,
      "track": 1
    },
    {
      "pitch": 57,
      "start_beat": 35.5,
      "duration_beat": 0.23541666666666572,
      "velocity": 33,
      "track": 1
    },
    {
      "pitch": 57,
      "start_beat": 35.5,
      "duration_beat": 0.23541666666666572,
      "velocity": 43,
      "track": 1
    },
    {
      "pitch": 61,
      "start_beat": 35.5,
      "duration_beat": 0.23541666666666572,
      "velocity": 43,
      "track": 1
    },
    {
      "pitch": 64,
      "start_beat": 35.5,
      "duration_beat": 0.23541666666666572,
      "velocity": 43,
      "track": 1
    },
    {
      "pitch": 57,
      "start_beat": 35.5,
      "duration_beat": 0.11770833333333286,
      "velocity": 33,
      "track": 1
    },
    {
      "pitch": 57,
      "start_beat": 35.5,
      "duration_beat": 0.125,
      "velocity": 13,
      "track": 1
    },
    {
      "pitch": 64,
      "start_beat": 35.625,
      "duration_beat": 0.11770833333333286,
      "velocity": 33,
      "track": 1
    },
    {
      "pitch": 69,
      "start_beat": 35.75,
      "duration_beat": 0.11770833333333286,
      "velocity": 33,
      "track": 1
    },
    {
      "pitch": 60,
      "start_beat": 35.75,
      "duration_beat": 0.23541666666666572,
      "velocity": 33,
      "track": 0
    },
    {
      "pitch": 60,
      "start_beat": 35.75,
      "duration_beat": 0.23541666666666572,
      "velocity": 43,
      "track": 0
    },
    {
      "pitch": 64,
      "start_beat": 35.75,
      "duration_beat": 0.23541666666666572,
      "velocity": 43,
      "track": 0
    },
    {
      "pitch": 67,
      "start_beat": 35.75,
      "duration_beat": 0.23541666666666572,
      "velocity": 43,
      "track": 0
    },
    {
      "pitch": 60,
      "start_beat": 35.75,
      "duration_beat": 0.11770833333333286,
      "velocity": 33,
      "track": 0
    },
    {
      "pitch": 60,
      "start_beat": 35.75,
      "duration_beat": 0.125,
      "velocity": 13,
      "track": 0
    },
    {
      "pitch": 67,
      "start_beat": 35.875,
      "duration_beat": 0.11770833333333286,
      "velocity": 33,
      "track": 0
    },
    {
      "pitch": 72,
      "start_beat": 36.0,
      "duration_beat": 0.11770833333333286,
      "velocity": 33,
      "track": 0
    },
    {
      "pitch": 64,
      "start_beat": 36.0,
      "duration_beat": 0.23541666666666572,
      "velocity": 33,
      "track": 0
    },
    {
      "pitch": 64,
      "start_beat": 36.0,
      "duration_beat": 0.23541666666666572,
      "velocity": 43,
      "track": 0
    },
    {
      "pitch": 68,
      "start_beat": 36.0,
      "duration_beat": 0.23541666666666572,
      "velocity": 43,
      "track": 0
    },
    {
      "pitch": 71,
      "start_beat": 36.0,
      "duration_beat": 0.23541666666666572,
      "velocity": 43,
      "track": 0
    },
    {
      "pitch": 64,
      "start_beat": 36.0,
      "duration_beat": 0.11770833333333286,
      "velocity": 33,
      "track": 0
    },
    {
      "pitch": 64,
      "start_beat": 36.0,
      "duration_beat": 0.125,
      "velocity": 13,
      "track": 0
    },
    {
      "pitch": 71,
      "start_beat": 36.125,
      "duration_beat": 0.11770833333333286,
      "velocity": 33,
      "track": 0
    },
    {
      "pitch": 76,
      "start_beat": 36.25,
      "duration_beat": 0.11770833333333286,
      "velocity": 33,
      "track": 0
    },
    {
      "pitch": 69,
      "start_beat": 36.25,
      "duration_beat": 0.23541666666666572,
      "velocity": 33,
      "track": 0
    },
    {
      "pitch": 69,
      "start_beat": 36.25,
      "duration_beat": 0.23541666666666572,
      "velocity": 43,
      "track": 0
    },
    {
      "pitch": 73,
      "start_beat": 36.25,
      "duration_beat": 0.23541666666666572,
      "velocity": 43,
      "track": 0
    },
    {
      "pitch": 76,
      "start_beat": 36.25,
      "duration_beat": 0.23541666666666572,
      "velocity": 43,
      "track": 0
    },
    {
      "pitch": 69,
      "start_beat": 36.25,
      "duration_beat": 0.11770833333333286,
      "velocity": 33,
      "track": 0
    },
    {
      "pitch": 69,
      "start_beat": 36.25,
      "duration_beat": 0.125,
      "velocity": 13,
      "track": 0
    },
    {
      "pitch": 76,
      "start_beat": 36.375,
      "duration_beat": 0.11770833333333286,
      "velocity": 33,
      "track": 0
    },
    {
      "pitch": 81,
      "start_beat": 36.5,
      "duration_beat": 0.11770833333333286,
      "velocity": 33,
      "track": 0
    },
    {
      "pitch": 71,
      "start_beat": 36.5,
      "duration_beat": 0.47291666666667,
      "velocity": 33,
      "track": 0
    },
    {
      "pitch": 71,
      "start_beat": 36.5,
      "duration_beat": 0.47291666666667,
      "velocity": 43,
      "track": 0
    },
    {
      "pitch": 75,
      "start_beat": 36.5,
      "duration_beat": 0.47291666666667,
      "velocity": 43,
      "track": 0
    },
    {
      "pitch": 78,
      "start_beat": 36.5,
      "duration_beat": 0.47291666666667,
      "velocity": 43,
      "track": 0
    },
    {
      "pitch": 71,
      "start_beat": 36.5,
      "duration_beat": 0.236458333333335,
      "velocity": 33,
      "track": 0
    },
    {
      "pitch": 71,
      "start_beat": 36.5,
      "duration_beat": 0.125,
      "velocity": 13,
      "track": 0
    },
    {
      "pitch": 40,
      "start_beat": 36.5,
      "duration_beat": 0.23541666666666572,
      "velocity": 33,
      "track": 1
    },
    {
      "pitch": 40,
      "start_beat": 36.5,
      "duration_beat": 0.23541666666666572,
      "velocity": 43,
      "track": 1
    },
    {
      "pitch": 44,
      "start_beat": 36.5,
      "duration_beat": 0.23541666666666572,
      "velocity": 43,
      "track": 1
    },
    {
      "pitch": 47,
      "start_beat": 36.5,
      "duration_beat": 0.23541666666666572,
      "velocity": 43,
      "track": 1
    },
    {
      "pitch": 40,
      "start_beat": 36.5,
      "duration_beat": 0.11770833333333286,
      "velocity": 33,
      "track": 1
    },
    {
      "pitch": 40,
      "start_beat": 36.5,
      "duration_beat": 0.125,
      "velocity": 13,
      "track": 1
    },
    {
      "pitch": 78,
      "start_beat": 36.625,
      "duration_beat": 0.236458333333335,
      "velocity": 33,
      "track": 0
    },
    {
      "pitch": 47,
      "start_beat": 36.625,
      "duration_beat": 0.11770833333333286,
      "velocity": 33,
      "track": 1
    },
    {
      "pitch": 83,
      "start_beat": 36.75,
      "duration_beat": 0.236458333333335,
      "velocity": 33,
      "track": 0
    },
    {
      "pitch": 71,
      "start_beat": 36.75,
      "duration_beat": 0.125,
      "velocity": 13,
      "track": 0
    },
    {
      "pitch": 52,
      "start_beat": 36.75,
      "duration_beat": 0.11770833333333286,
      "velocity": 33,
      "track": 1
    },
    {
      "pitch": 52,
      "start_beat": 36.75,
      "duration_beat": 0.23541666666666572,
      "velocity": 33,
      "track": 1
    },
    {
      "pitch": 52,
      "start_beat": 36.75,
      "duration_beat": 0.23541666666666572,
      "velocity": 43,
      "track": 1
    },
    {
      "pitch": 56,
      "start_beat": 36.75,
      "duration_beat": 0.23541666666666572,
      "velocity": 43,
      "track": 1
    },
    {
      "pitch": 59,
      "start_beat": 36.75,
      "duration_beat": 0.23541666666666572,
      "velocity": 43,
      "track": 1
    },
    {
      "pitch": 52,
      "start_beat": 36.75,
      "duration_beat": 0.11770833333333286,
      "velocity": 33,
      "track": 1
    },
    {
      "pitch": 52,
      "start_beat": 36.75,
      "duration_beat": 0.125,
      "velocity": 13,
      "track": 1
    },
    {
      "pitch": 59,
      "start_beat": 36.875,
      "duration_beat": 0.11770833333333286,
      "velocity": 33,
      "track": 1
    },
    {
      "pitch": 64,
      "start_beat": 37.0,
      "duration_beat": 0.11770833333333286,
      "velocity": 33,
      "track": 1
    },
    {
      "pitch": 56,
      "start_beat": 37.0,
      "duration_beat": 0.23541666666666572,
      "velocity": 33,
      "track": 1
    },
    {
      "pitch": 56,
      "start_beat": 37.0,
      "duration_beat": 0.23541666666666572,
      "velocity": 43,
      "track": 1
    },
    {
      "pitch": 60,
      "start_beat": 37.0,
      "duration_beat": 0.23541666666666572,
      "velocity": 43,
      "track": 1
    },
    {
      "pitch": 63,
      "start_beat": 37.0,
      "duration_beat": 0.23541666666666572,
      "velocity": 43,
      "track": 1
    },
    {
      "pitch": 56,
      "start_beat": 37.0,
      "duration_beat": 0.11770833333333286,
      "velocity": 33,
      "track": 1
    },
    {
      "pitch": 56,
      "start_beat": 37.0,
      "duration_beat": 0.125,
      "velocity": 13,
      "track": 1
    },
    {
      "pitch": 63,
      "start_beat": 37.125,
      "duration_beat": 0.11770833333333286,
      "velocity": 33,
      "track": 1
    },
    {
      "pitch": 68,
      "start_beat": 37.25,
      "duration_beat": 0.11770833333333286,
      "velocity": 33,
      "track": 1
    },
    {
      "pitch": 64,
      "start_beat": 37.25,
      "duration_beat": 0.23541666666666572,
      "velocity": 33,
      "track": 0
    },
    {
      "pitch": 64,
      "start_beat": 37.25,
      "duration_beat": 0.23541666666666572,
      "velocity": 43,
      "track": 0
    },
    {
      "pitch": 68,
      "start_beat": 37.25,
      "duration_beat": 0.23541666666666572,
      "velocity": 43,
      "track": 0
    },
    {
      "pitch": 71,
      "start_beat": 37.25,
      "duration_beat": 0.23541666666666572,
      "velocity": 43,
      "track": 0
    },
    {
      "pitch": 64,
      "start_beat": 37.25,
      "duration_beat": 0.11770833333333286,
      "velocity": 33,
      "track": 0
    },
    {
      "pitch": 64,
      "start_beat": 37.25,
      "duration_beat": 0.125,
      "velocity": 13,
      "track": 0
    },
    {
      "pitch": 71,
      "start_beat": 37.375,
      "duration_beat": 0.11770833333333286,
      "velocity": 33,
      "track": 0
    },
    {
      "pitch": 76,
      "start_beat": 37.5,
      "duration_beat": 0.11770833333333286,
      "velocity": 33,
      "track": 0
    },
    {
      "pitch": 68,
      "start_beat": 37.5,
      "duration_beat": 0.23541666666666572,
      "velocity": 33,
      "track": 0
    },
    {
      "pitch": 68,
      "start_beat": 37.5,
      "duration_beat": 0.23541666666666572,
      "velocity": 43,
      "track": 0
    },
    {
      "pitch": 72,
      "start_beat": 37.5,
      "duration_beat": 0.23541666666666572,
      "velocity": 43,
      "track": 0
    },
    {
      "pitch": 75,
      "start_beat": 37.5,
      "duration_beat": 0.23541666666666572,
      "velocity": 43,
      "track": 0
    },
    {
      "pitch": 68,
      "start_beat": 37.5,
      "duration_beat": 0.11770833333333286,
      "velocity": 33,
      "track": 0
    },
    {
      "pitch": 68,
      "start_beat": 37.5,
      "duration_beat": 0.125,
      "velocity": 13,
      "track": 0
    },
    {
      "pitch": 75,
      "start_beat": 37.625,
      "duration_beat": 0.11770833333333286,
      "velocity": 33,
      "track": 0
    },
    {
      "pitch": 80,
      "start_beat": 37.75,
      "duration_beat": 0.11770833333333286,
      "velocity": 33,
      "track": 0
    },
    {
      "pitch": 71,
      "start_beat": 37.75,
      "duration_beat": 0.23541666666666572,
      "velocity": 33,
      "track": 0
    },
    {
      "pitch": 71,
      "start_beat": 37.75,
      "duration_beat": 0.23541666666666572,
      "velocity": 43,
      "track": 0
    },
    {
      "pitch": 75,
      "start_beat": 37.75,
      "duration_beat": 0.23541666666666572,
      "velocity": 43,
      "track": 0
    },
    {
      "pitch": 78,
      "start_beat": 37.75,
      "duration_beat": 0.23541666666666572,
      "velocity": 43,
      "track": 0
    },
    {
      "pitch": 71,
      "start_beat": 37.75,
      "duration_beat": 0.11770833333333286,
      "velocity": 33,
      "track": 0
    },
    {
      "pitch": 71,
      "start_beat": 37.75,
      "duration_beat": 0.125,
      "velocity": 13,
      "track": 0
    },
    {
      "pitch": 78,
      "start_beat": 37.875,
      "duration_beat": 0.11770833333333286,
      "velocity": 33,
      "track": 0
    },
    {
      "pitch": 83,
      "start_beat": 38.0,
      "duration_beat": 0.11770833333333286,
      "velocity": 33,
      "track": 0
    },
    {
      "pitch": 72,
      "start_beat": 38.0,
      "duration_beat": 0.47291666666667,
      "velocity": 33,
      "track": 0
    },
    {
      "pitch": 72,
      "start_beat": 38.0,
      "duration_beat": 0.47291666666667,
      "velocity": 43,
      "track": 0
    },
    {
      "pitch": 76,
      "start_beat": 38.0,
      "duration_beat": 0.47291666666667,
      "velocity": 43,
      "track": 0
    },
    {
      "pitch": 79,
      "start_beat": 38.0,
      "duration_beat": 0.47291666666667,
      "velocity": 43,
      "track": 0
    },
    {
      "pitch": 72,
      "start_beat": 38.0,
      "duration_beat": 0.236458333333335,
      "velocity": 33,
      "track": 0
    },
    {
      "pitch": 72,
      "start_beat": 38.0,
      "duration_beat": 0.125,
      "velocity": 13,
      "track": 0
    },
    {
      "pitch": 45,
      "start_beat": 38.0,
      "duration_beat": 0.23541666666666572,
      "velocity": 33,
      "track": 1
    },
    {
      "pitch": 45,
      "start_beat": 38.0,
      "duration_beat": 0.23541666666666572,
      "velocity": 43,
      "track": 1
    },
    {
      "pitch": 49,
      "start_beat": 38.0,
      "duration_beat": 0.23541666666666572,
      "velocity": 43,
      "track": 1
    },
    {
      "pitch": 52,
      "start_beat": 38.0,
      "duration_beat": 0.23541666666666572,
      "velocity": 43,
      "track": 1
    },
    {
      "pitch": 45,
      "start_beat": 38.0,
      "duration_beat": 0.11770833333333286,
      "velocity": 33,
      "track": 1
    },
    {
      "pitch": 45,
      "start_beat": 38.0,
      "duration_beat": 0.125,
      "velocity": 13,
      "track": 1
    },
    {
      "pitch": 79,
      "start_beat": 38.125,
      "duration_beat": 0.236458333333335,
      "velocity": 33,
      "track": 0
    },
    {
      "pitch": 52,
      "start_beat": 38.125,
      "duration_beat": 0.11770833333333286,
      "velocity": 33,
      "track": 1
    },
    {
      "pitch": 84,
      "start_beat": 38.25,
      "duration_beat": 0.236458333333335,
      "velocity": 33,
      "track": 0
    },
    {
      "pitch": 72,
      "start_beat": 38.25,
      "duration_beat": 0.125,
      "velocity": 13,
      "track": 0
    },
    {
      "pitch": 57,
      "start_beat": 38.25,
      "duration_beat": 0.11770833333333286,
      "velocity": 33,
      "track": 1
    },
    {
      "pitch": 52,
      "start_beat": 38.25,
      "duration_beat": 0.23541666666666572,
      "velocity": 33,
      "track": 1
    },
    {
      "pitch": 52,
      "start_beat": 38.25,
      "duration_beat": 0.23541666666666572,
      "velocity": 43,
      "track": 1
    },
    {
      "pitch": 56,
      "start_beat": 38.25,
      "duration_beat": 0.23541666666666572,
      "velocity": 43,
      "track": 1
    },
    {
      "pitch": 59,
      "start_beat": 38.25,
      "duration_beat": 0.23541666666666572,
      "velocity": 43,
      "track": 1
    },
    {
      "pitch": 52,
      "start_beat": 38.25,
      "duration_beat": 0.11770833333333286,
      "velocity": 33,
      "track": 1
    },
    {
      "pitch": 52,
      "start_beat": 38.25,
      "duration_beat": 0.125,
      "velocity": 13,
      "track": 1
    },
    {
      "pitch": 59,
      "start_beat": 38.375,
      "duration_beat": 0.11770833333333286,
      "velocity": 33,
      "track": 1
    },
    {
      "pitch": 64,
      "start_beat": 38.5,
      "duration_beat": 0.11770833333333286,
      "velocity": 33,
      "track": 1
    },
    {
      "pitch": 57,
      "start_beat": 38.5,
      "duration_beat": 0.23541666666666572,
      "velocity": 33,
      "track": 1
    },
    {
      "pitch": 57,
      "start_beat": 38.5,
      "duration_beat": 0.23541666666666572,
      "velocity": 43,
      "track": 1
    },
    {
      "pitch": 61,
      "start_beat": 38.5,
      "duration_beat": 0.23541666666666572,
      "velocity": 43,
      "track": 1
    },
    {
      "pitch": 64,
      "start_beat": 38.5,
      "duration_beat": 0.23541666666666572,
      "velocity": 43,
      "track": 1
    },
    {
      "pitch": 57,
      "start_beat": 38.5,
      "duration_beat": 0.11770833333333286,
      "velocity": 33,
      "track": 1
    },
    {
      "pitch": 57,
      "start_beat": 38.5,
      "duration_beat": 0.125,
      "velocity": 13,
      "track": 1
    },
    {
      "pitch": 64,
      "start_beat": 38.625,
      "duration_beat": 0.11770833333333286,
      "velocity": 33,
      "track": 1
    },
    {
      "pitch": 69,
      "start_beat": 38.75,
      "duration_beat": 0.11770833333333286,
      "velocity": 33,
      "track": 1
    },
    {
      "pitch": 64,
      "start_beat": 38.75,
      "duration_beat": 0.23541666666666572,
      "velocity": 33,
      "track": 0
    },
    {
      "pitch": 64,
      "start_beat": 38.75,
      "duration_beat": 0.23541666666666572,
      "velocity": 43,
      "track": 0
    },
    {
      "pitch": 68,
      "start_beat": 38.75,
      "duration_beat": 0.23541666666666572,
      "velocity": 43,
      "track": 0
    },
    {
      "pitch": 71,
      "start_beat": 38.75,
      "duration_beat": 0.23541666666666572,
      "velocity": 43,
      "track": 0
    },
    {
      "pitch": 64,
      "start_beat": 38.75,
      "duration_beat": 0.11770833333333286,
      "velocity": 33,
      "track": 0
    },
    {
      "pitch": 64,
      "start_beat": 38.75,
      "duration_beat": 0.125,
      "velocity": 13,
      "track": 0
    },
    {
      "pitch": 71,
      "start_beat": 38.875,
      "duration_beat": 0.11770833333333286,
      "velocity": 33,
      "track": 0
    },
    {
      "pitch": 76,
      "start_beat": 39.0,
      "duration_beat": 0.11770833333333286,
      "velocity": 33,
      "track": 0
    },
    {
      "pitch": 76,
      "start_beat": 39.0,
      "duration_beat": 0.23541666666666572,
      "velocity": 33,
      "track": 0
    },
    {
      "pitch": 76,
      "start_beat": 39.0,
      "duration_beat": 0.23541666666666572,
      "velocity": 43,
      "track": 0
    },
    {
      "pitch": 80,
      "start_beat": 39.0,
      "duration_beat": 0.23541666666666572,
      "velocity": 43,
      "track": 0
    },
    {
      "pitch": 83,
      "start_beat": 39.0,
      "duration_beat": 0.23541666666666572,
      "velocity": 43,
      "track": 0
    },
    {
      "pitch": 76,
      "start_beat": 39.0,
      "duration_beat": 0.11770833333333286,
      "velocity": 33,
      "track": 0
    },
    {
      "pitch": 76,
      "start_beat": 39.0,
      "duration_beat": 0.125,
      "velocity": 13,
      "track": 0
    },
    {
      "pitch": 83,
      "start_beat": 39.125,
      "duration_beat": 0.11770833333333286,
      "velocity": 33,
      "track": 0
    },
    {
      "pitch": 88,
      "start_beat": 39.25,
      "duration_beat": 0.11770833333333286,
      "velocity": 33,
      "track": 0
    },
    {
      "pitch": 75,
      "start_beat": 39.25,
      "duration_beat": 0.23541666666666572,
      "velocity": 33,
      "track": 0
    },
    {
      "pitch": 75,
      "start_beat": 39.25,
      "duration_beat": 0.23541666666666572,
      "velocity": 43,
      "track": 0
    },
    {
      "pitch": 79,
      "start_beat": 39.25,
      "duration_beat": 0.23541666666666572,
      "velocity": 43,
      "track": 0
    },
    {
      "pitch": 82,
      "start_beat": 39.25,
      "duration_beat": 0.23541666666666572,
      "velocity": 43,
      "track": 0
    },
    {
      "pitch": 75,
      "start_beat": 39.25,
      "duration_beat": 0.11770833333333286,
      "velocity": 33,
      "track": 0
    },
    {
      "pitch": 75,
      "start_beat": 39.25,
      "duration_beat": 0.125,
      "velocity": 13,
      "track": 0
    },
    {
      "pitch": 82,
      "start_beat": 39.375,
      "duration_beat": 0.11770833333333286,
      "velocity": 33,
      "track": 0
    },
    {
      "pitch": 87,
      "start_beat": 39.5,
      "duration_beat": 0.11770833333333286,
      "velocity": 33,
      "track": 0
    },
    {
      "pitch": 76,
      "start_beat": 39.5,
      "duration_beat": 0.23541666666666572,
      "velocity": 33,
      "track": 0
    },
    {
      "pitch": 76,
      "start_beat": 39.5,
      "duration_beat": 0.23541666666666572,
      "velocity": 43,
      "track": 0
    },
    {
      "pitch": 80,
      "start_beat": 39.5,
      "duration_beat": 0.23541666666666572,
      "velocity": 43,
      "track": 0
    },
    {
      "pitch": 83,
      "start_beat": 39.5,
      "duration_beat": 0.23541666666666572,
      "velocity": 43,
      "track": 0
    },
    {
      "pitch": 76,
      "start_beat": 39.5,
      "duration_beat": 0.11770833333333286,
      "velocity": 33,
      "track": 0
    },
    {
      "pitch": 76,
      "start_beat": 39.5,
      "duration_beat": 0.125,
      "velocity": 13,
      "track": 0
    },
    {
      "pitch": 83,
      "start_beat": 39.625,
      "duration_beat": 0.11770833333333286,
      "velocity": 33,
      "track": 0
    },
    {
      "pitch": 88,
      "start_beat": 39.75,
      "duration_beat": 0.11770833333333286,
      "velocity": 33,
      "track": 0
    },
    {
      "pitch": 75,
      "start_beat": 39.75,
      "duration_beat": 0.23541666666666572,
      "velocity": 33,
      "track": 0
    },
    {
      "pitch": 75,
      "start_beat": 39.75,
      "duration_beat": 0.23541666666666572,
      "velocity": 43,
      "track": 0
    },
    {
      "pitch": 79,
      "start_beat": 39.75,
      "duration_beat": 0.23541666666666572,
      "velocity": 43,
      "track": 0
    },
    {
      "pitch": 82,
      "start_beat": 39.75,
      "duration_beat": 0.23541666666666572,
      "velocity": 43,
      "track": 0
    },
    {
      "pitch": 75,
      "start_beat": 39.75,
      "duration_beat": 0.11770833333333286,
      "velocity": 33,
      "track": 0
    },
    {
      "pitch": 75,
      "start_beat": 39.75,
      "duration_beat": 0.125,
      "velocity": 13,
      "track": 0
    },
    {
      "pitch": 82,
      "start_beat": 39.875,
      "duration_beat": 0.11770833333333286,
      "velocity": 33,
      "track": 0
    },
    {
      "pitch": 87,
      "start_beat": 40.0,
      "duration_beat": 0.11770833333333286,
      "velocity": 33,
      "track": 0
    },
    {
      "pitch": 76,
      "start_beat": 40.0,
      "duration_beat": 0.23541666666666572,
      "velocity": 33,
      "track": 0
    },
    {
      "pitch": 76,
      "start_beat": 40.0,
      "duration_beat": 0.23541666666666572,
      "velocity": 43,
      "track": 0
    },
    {
      "pitch": 80,
      "start_beat": 40.0,
      "duration_beat": 0.23541666666666572,
      "velocity": 43,
      "track": 0
    },
    {
      "pitch": 83,
      "start_beat": 40.0,
      "duration_beat": 0.23541666666666572,
      "velocity": 43,
      "track": 0
    },
    {
      "pitch": 76,
      "start_beat": 40.0,
      "duration_beat": 0.11770833333333286,
      "velocity": 33,
      "track": 0
    },
    {
      "pitch": 76,
      "start_beat": 40.0,
      "duration_beat": 0.125,
      "velocity": 13,
      "track": 0
    },
    {
      "pitch": 83,
      "start_beat": 40.125,
      "duration_beat": 0.11770833333333286,
      "velocity": 33,
      "track": 0
    },
    {
      "pitch": 88,
      "start_beat": 40.25,
      "duration_beat": 0.11770833333333286,
      "velocity": 33,
      "track": 0
    },
    {
      "pitch": 71,
      "start_beat": 40.25,
      "duration_beat": 0.23541666666666572,
      "velocity": 33,
      "track": 0
    },
    {
      "pitch": 71,
      "start_beat": 40.25,
      "duration_beat": 0.23541666666666572,
      "velocity": 43,
      "track": 0
    },
    {
      "pitch": 75,
      "start_beat": 40.25,
      "duration_beat": 0.23541666666666572,
      "velocity": 43,
      "track": 0
    },
    {
      "pitch": 78,
      "start_beat": 40.25,
      "duration_beat": 0.23541666666666572,
      "velocity": 43,
      "track": 0
    },
    {
      "pitch": 71,
      "start_beat": 40.25,
      "duration_beat": 0.11770833333333286,
      "velocity": 33,
      "track": 0
    },
    {
      "pitch": 71,
      "start_beat": 40.25,
      "duration_beat": 0.125,
      "velocity": 13,
      "track": 0
    },
    {
      "pitch": 78,
      "start_beat": 40.375,
      "duration_beat": 0.11770833333333286,
      "velocity": 33,
      "track": 0
    },
    {
      "pitch": 83,
      "start_beat": 40.5,
      "duration_beat": 0.11770833333333286,
      "velocity": 33,
      "track": 0
    },
    {
      "pitch": 74,
      "start_beat": 40.5,
      "duration_beat": 0.23541666666666572,
      "velocity": 33,
      "track": 0
    },
    {
      "pitch": 74,
      "start_beat": 40.5,
      "duration_beat": 0.23541666666666572,
      "velocity": 43,
      "track": 0
    },
    {
      "pitch": 78,
      "start_beat": 40.5,
      "duration_beat": 0.23541666666666572,
      "velocity": 43,
      "track": 0
    },
    {
      "pitch": 81,
      "start_beat": 40.5,
      "duration_beat": 0.23541666666666572,
      "velocity": 43,
      "track": 0
    },
    {
      "pitch": 74,
      "start_beat": 40.5,
      "duration_beat": 0.11770833333333286,
      "velocity": 33,
      "track": 0
    },
    {
      "pitch": 74,
      "start_beat": 40.5,
      "duration_beat": 0.125,
      "velocity": 13,
      "track": 0
    },
    {
      "pitch": 81,
      "start_beat": 40.625,
      "duration_beat": 0.11770833333333286,
      "velocity": 33,
      "track": 0
    },
    {
      "pitch": 86,
      "start_beat": 40.75,
      "duration_beat": 0.11770833333333286,
      "velocity": 33,
      "track": 0
    },
    {
      "pitch": 72,
      "start_beat": 40.75,
      "duration_beat": 0.23541666666666572,
      "velocity": 33,
      "track": 0
    },
    {
      "pitch": 72,
      "start_beat": 40.75,
      "duration_beat": 0.23541666666666572,
      "velocity": 43,
      "track": 0
    },
    {
      "pitch": 76,
      "start_beat": 40.75,
      "duration_beat": 0.23541666666666572,
      "velocity": 43,
      "track": 0
    },
    {
      "pitch": 79,
      "start_beat": 40.75,
      "duration_beat": 0.23541666666666572,
      "velocity": 43,
      "track": 0
    },
    {
      "pitch": 72,
      "start_beat": 40.75,
      "duration_beat": 0.11770833333333286,
      "velocity": 33,
      "track": 0
    },
    {
      "pitch": 72,
      "start_beat": 40.75,
      "duration_beat": 0.125,
      "velocity": 13,
      "track": 0
    },
    {
      "pitch": 79,
      "start_beat": 40.875,
      "duration_beat": 0.11770833333333286,
      "velocity": 33,
      "track": 0
    },
    {
      "pitch": 84,
      "start_beat": 41.0,
      "duration_beat": 0.11770833333333286,
      "velocity": 33,
      "track": 0
    },
    {
      "pitch": 69,
      "start_beat": 41.0,
      "duration_beat": 0.47291666666667,
      "velocity": 33,
      "track": 0
    },
    {
      "pitch": 69,
      "start_beat": 41.0,
      "duration_beat": 0.47291666666667,
      "velocity": 43,
      "track": 0
    },
    {
      "pitch": 73,
      "start_beat": 41.0,
      "duration_beat": 0.47291666666667,
      "velocity": 43,
      "track": 0
    },
    {
      "pitch": 76,
      "start_beat": 41.0,
      "duration_beat": 0.47291666666667,
      "velocity": 43,
      "track": 0
    },
    {
      "pitch": 69,
      "start_beat": 41.0,
      "duration_beat": 0.236458333333335,
      "velocity": 33,
      "track": 0
    },
    {
      "pitch": 69,
      "start_beat": 41.0,
      "duration_beat": 0.125,
      "velocity": 13,
      "track": 0
    },
    {
      "pitch": 45,
      "start_beat": 41.0,
      "duration_beat": 0.23541666666666572,
      "velocity": 33,
      "track": 1
    },
    {
      "pitch": 45,
      "start_beat": 41.0,
      "duration_beat": 0.23541666666666572,
      "velocity": 43,
      "track": 1
    },
    {
      "pitch": 49,
      "start_beat": 41.0,
      "duration_beat": 0.23541666666666572,
      "velocity": 43,
      "track": 1
    },
    {
      "pitch": 52,
      "start_beat": 41.0,
      "duration_beat": 0.23541666666666572,
      "velocity": 43,
      "track": 1
    },
    {
      "pitch": 45,
      "start_beat": 41.0,
      "duration_beat": 0.11770833333333286,
      "velocity": 33,
      "track": 1
    },
    {
      "pitch": 45,
      "start_beat": 41.0,
      "duration_beat": 0.125,
      "velocity": 13,
      "track": 1
    },
    {
      "pitch": 76,
      "start_beat": 41.125,
      "duration_beat": 0.236458333333335,
      "velocity": 33,
      "track": 0
    },
    {
      "pitch": 52,
      "start_beat": 41.125,
      "duration_beat": 0.11770833333333286,
      "velocity": 33,
      "track": 1
    },
    {
      "pitch": 81,
      "start_beat": 41.25,
      "duration_beat": 0.236458333333335,
      "velocity": 33,
      "track": 0
    },
    {
      "pitch": 69,
      "start_beat": 41.25,
      "duration_beat": 0.125,
      "velocity": 13,
      "track": 0
    },
    {
      "pitch": 57,
      "start_beat": 41.25,
      "duration_beat": 0.11770833333333286,
      "velocity": 33,
      "track": 1
    },
    {
      "pitch": 52,
      "start_beat": 41.25,
      "duration_beat": 0.23541666666666572,
      "velocity": 33,
      "track": 1
    },
    {
      "pitch": 52,
      "start_beat": 41.25,
      "duration_beat": 0.23541666666666572,
      "velocity": 43,
      "track": 1
    },
    {
      "pitch": 56,
      "start_beat": 41.25,
      "duration_beat": 0.23541666666666572,
      "velocity": 43,
      "track": 1
    },
    {
      "pitch": 59,
      "start_beat": 41.25,
      "duration_beat": 0.23541666666666572,
      "velocity": 43,
      "track": 1
    },
    {
      "pitch": 52,
      "start_beat": 41.25,
      "duration_beat": 0.11770833333333286,
      "velocity": 33,
      "track": 1
    },
    {
      "pitch": 52,
      "start_beat": 41.25,
      "duration_beat": 0.125,
      "velocity": 13,
      "track": 1
    },
    {
      "pitch": 59,
      "start_beat": 41.375,
      "duration_beat": 0.11770833333333286,
      "velocity": 33,
      "track": 1
    },
    {
      "pitch": 64,
      "start_beat": 41.5,
      "duration_beat": 0.11770833333333286,
      "velocity": 33,
      "track": 1
    },
    {
      "pitch": 57,
      "start_beat": 41.5,
      "duration_beat": 0.23541666666666572,
      "velocity": 33,
      "track": 1
    },
    {
      "pitch": 57,
      "start_beat": 41.5,
      "duration_beat": 0.23541666666666572,
      "velocity": 43,
      "track": 1
    },
    {
      "pitch": 61,
      "start_beat": 41.5,
      "duration_beat": 0.23541666666666572,
      "velocity": 43,
      "track": 1
    },
    {
      "pitch": 64,
      "start_beat": 41.5,
      "duration_beat": 0.23541666666666572,
      "velocity": 43,
      "track": 1
    },
    {
      "pitch": 57,
      "start_beat": 41.5,
      "duration_beat": 0.11770833333333286,
      "velocity": 33,
      "track": 1
    },
    {
      "pitch": 57,
      "start_beat": 41.5,
      "duration_beat": 0.125,
      "velocity": 13,
      "track": 1
    },
    {
      "pitch": 64,
      "start_beat": 41.625,
      "duration_beat": 0.11770833333333286,
      "velocity": 33,
      "track": 1
    },
    {
      "pitch": 69,
      "start_beat": 41.75,
      "duration_beat": 0.11770833333333286,
      "velocity": 33,
      "track": 1
    },
    {
      "pitch": 60,
      "start_beat": 41.75,
      "duration_beat": 0.23541666666666572,
      "velocity": 33,
      "track": 0
    },
    {
      "pitch": 60,
      "start_beat": 41.75,
      "duration_beat": 0.23541666666666572,
      "velocity": 43,
      "track": 0
    },
    {
      "pitch": 64,
      "start_beat": 41.75,
      "duration_beat": 0.23541666666666572,
      "velocity": 43,
      "track": 0
    },
    {
      "pitch": 67,
      "start_beat": 41.75,
      "duration_beat": 0.23541666666666572,
      "velocity": 43,
      "track": 0
    },
    {
      "pitch": 60,
      "start_beat": 41.75,
      "duration_beat": 0.11770833333333286,
      "velocity": 33,
      "track": 0
    },
    {
      "pitch": 60,
      "start_beat": 41.75,
      "duration_beat": 0.125,
      "velocity": 13,
      "track": 0
    },
    {
      "pitch": 67,
      "start_beat": 41.875,
      "duration_beat": 0.11770833333333286,
      "velocity": 33,
      "track": 0
    },
    {
      "pitch": 72,
      "start_beat": 42.0,
      "duration_beat": 0.11770833333333286,
      "velocity": 33,
      "track": 0
    },
    {
      "pitch": 64,
      "start_beat": 42.0,
      "duration_beat": 0.23541666666666572,
      "velocity": 33,
      "track": 0
    },
    {
      "pitch": 64,
      "start_beat": 42.0,
      "duration_beat": 0.23541666666666572,
      "velocity": 43,
      "track": 0
    },
    {
      "pitch": 68,
      "start_beat": 42.0,
      "duration_beat": 0.23541666666666572,
      "velocity": 43,
      "track": 0
    },
    {
      "pitch": 71,
      "start_beat": 42.0,
      "duration_beat": 0.23541666666666572,
      "velocity": 43,
      "track": 0
    },
    {
      "pitch": 64,
      "start_beat": 42.0,
      "duration_beat": 0.11770833333333286,
      "velocity": 33,
      "track": 0
    },
    {
      "pitch": 64,
      "start_beat": 42.0,
      "duration_beat": 0.125,
      "velocity": 13,
      "track": 0
    },
    {
      "pitch": 71,
      "start_beat": 42.125,
      "duration_beat": 0.11770833333333286,
      "velocity": 33,
      "track": 0
    },
    {
      "pitch": 76,
      "start_beat": 42.25,
      "duration_beat": 0.11770833333333286,
      "velocity": 33,
      "track": 0
    },
    {
      "pitch": 69,
      "start_beat": 42.25,
      "duration_beat": 0.23541666666666572,
      "velocity": 33,
      "track": 0
    },
    {
      "pitch": 69,
      "start_beat": 42.25,
      "duration_beat": 0.23541666666666572,
      "velocity": 43,
      "track": 0
    },
    {
      "pitch": 73,
      "start_beat": 42.25,
      "duration_beat": 0.23541666666666572,
      "velocity": 43,
      "track": 0
    },
    {
      "pitch": 76,
      "start_beat": 42.25,
      "duration_beat": 0.23541666666666572,
      "velocity": 43,
      "track": 0
    },
    {
      "pitch": 69,
      "start_beat": 42.25,
      "duration_beat": 0.11770833333333286,
      "velocity": 33,
      "track": 0
    },
    {
      "pitch": 69,
      "start_beat": 42.25,
      "duration_beat": 0.125,
      "velocity": 13,
      "track": 0
    },
    {
      "pitch": 76,
      "start_beat": 42.375,
      "duration_beat": 0.11770833333333286,
      "velocity": 33,
      "track": 0
    },
    {
      "pitch": 81,
      "start_beat": 42.5,
      "duration_beat": 0.11770833333333286,
      "velocity": 33,
      "track": 0
    },
    {
      "pitch": 71,
      "start_beat": 42.5,
      "duration_beat": 0.47291666666667,
      "velocity": 33,
      "track": 0
    },
    {
      "pitch": 71,
      "start_beat": 42.5,
      "duration_beat": 0.47291666666667,
      "velocity": 43,
      "track": 0
    },
    {
      "pitch": 75,
      "start_beat": 42.5,
      "duration_beat": 0.47291666666667,
      "velocity": 43,
      "track": 0
    },
    {
      "pitch": 78,
      "start_beat": 42.5,
      "duration_beat": 0.47291666666667,
      "velocity": 43,
      "track": 0
    },
    {
      "pitch": 71,
      "start_beat": 42.5,
      "duration_beat": 0.236458333333335,
      "velocity": 33,
      "track": 0
    },
    {
      "pitch": 71,
      "start_beat": 42.5,
      "duration_beat": 0.125,
      "velocity": 13,
      "track": 0
    },
    {
      "pitch": 40,
      "start_beat": 42.5,
      "duration_beat": 0.23541666666666572,
      "velocity": 33,
      "track": 1
    },
    {
      "pitch": 40,
      "start_beat": 42.5,
      "duration_beat": 0.23541666666666572,
      "velocity": 43,
      "track": 1
    },
    {
      "pitch": 44,
      "start_beat": 42.5,
      "duration_beat": 0.23541666666666572,
      "velocity": 43,
      "track": 1
    },
    {
      "pitch": 47,
      "start_beat": 42.5,
      "duration_beat": 0.23541666666666572,
      "velocity": 43,
      "track": 1
    },
    {
      "pitch": 40,
      "start_beat": 42.5,
      "duration_beat": 0.11770833333333286,
      "velocity": 33,
      "track": 1
    },
    {
      "pitch": 40,
      "start_beat": 42.5,
      "duration_beat": 0.125,
      "velocity": 13,
      "track": 1
    },
    {
      "pitch": 78,
      "start_beat": 42.625,
      "duration_beat": 0.236458333333335,
      "velocity": 33,
      "track": 0
    },
    {
      "pitch": 47,
      "start_beat": 42.625,
      "duration_beat": 0.11770833333333286,
      "velocity": 33,
      "track": 1
    },
    {
      "pitch": 83,
      "start_beat": 42.75,
      "duration_beat": 0.236458333333335,
      "velocity": 33,
      "track": 0
    },
    {
      "pitch": 71,
      "start_beat": 42.75,
      "duration_beat": 0.125,
      "velocity": 13,
      "track": 0
    },
    {
      "pitch": 52,
      "start_beat": 42.75,
      "duration_beat": 0.11770833333333286,
      "velocity": 33,
      "track": 1
    },
    {
      "pitch": 52,
      "start_beat": 42.75,
      "duration_beat": 0.23541666666666572,
      "velocity": 33,
      "track": 1
    },
    {
      "pitch": 52,
      "start_beat": 42.75,
      "duration_beat": 0.23541666666666572,
      "velocity": 43,
      "track": 1
    },
    {
      "pitch": 56,
      "start_beat": 42.75,
      "duration_beat": 0.23541666666666572,
      "velocity": 43,
      "track": 1
    },
    {
      "pitch": 59,
      "start_beat": 42.75,
      "duration_beat": 0.23541666666666572,
      "velocity": 43,
      "track": 1
    },
    {
      "pitch": 52,
      "start_beat": 42.75,
      "duration_beat": 0.11770833333333286,
      "velocity": 33,
      "track": 1
    },
    {
      "pitch": 52,
      "start_beat": 42.75,
      "duration_beat": 0.125,
      "velocity": 13,
      "track": 1
    },
    {
      "pitch": 59,
      "start_beat": 42.875,
      "duration_beat": 0.11770833333333286,
      "velocity": 33,
      "track": 1
    },
    {
      "pitch": 64,
      "start_beat": 43.0,
      "duration_beat": 0.11770833333333286,
      "velocity": 33,
      "track": 1
    },
    {
      "pitch": 56,
      "start_beat": 43.0,
      "duration_beat": 0.23541666666666572,
      "velocity": 33,
      "track": 1
    },
    {
      "pitch": 56,
      "start_beat": 43.0,
      "duration_beat": 0.23541666666666572,
      "velocity": 43,
      "track": 1
    },
    {
      "pitch": 60,
      "start_beat": 43.0,
      "duration_beat": 0.23541666666666572,
      "velocity": 43,
      "track": 1
    },
    {
      "pitch": 63,
      "start_beat": 43.0,
      "duration_beat": 0.23541666666666572,
      "velocity": 43,
      "track": 1
    },
    {
      "pitch": 56,
      "start_beat": 43.0,
      "duration_beat": 0.11770833333333286,
      "velocity": 33,
      "track": 1
    },
    {
      "pitch": 56,
      "start_beat": 43.0,
      "duration_beat": 0.125,
      "velocity": 13,
      "track": 1
    },
    {
      "pitch": 63,
      "start_beat": 43.125,
      "duration_beat": 0.11770833333333286,
      "velocity": 33,
      "track": 1
    },
    {
      "pitch": 68,
      "start_beat": 43.25,
      "duration_beat": 0.11770833333333286,
      "velocity": 33,
      "track": 1
    },
    {
      "pitch": 62,
      "start_beat": 43.25,
      "duration_beat": 0.23541666666666572,
      "velocity": 33,
      "track": 0
    },
    {
      "pitch": 62,
      "start_beat": 43.25,
      "duration_beat": 0.23541666666666572,
      "velocity": 43,
      "track": 0
    },
    {
      "pitch": 66,
      "start_beat": 43.25,
      "duration_beat": 0.23541666666666572,
      "velocity": 43,
      "track": 0
    },
    {
      "pitch": 69,
      "start_beat": 43.25,
      "duration_beat": 0.23541666666666572,
      "velocity": 43,
      "track": 0
    },
    {
      "pitch": 62,
      "start_beat": 43.25,
      "duration_beat": 0.11770833333333286,
      "velocity": 33,
      "track": 0
    },
    {
      "pitch": 62,
      "start_beat": 43.25,
      "duration_beat": 0.125,
      "velocity": 13,
      "track": 0
    },
    {
      "pitch": 69,
      "start_beat": 43.375,
      "duration_beat": 0.11770833333333286,
      "velocity": 33,
      "track": 0
    },
    {
      "pitch": 74,
      "start_beat": 43.5,
      "duration_beat": 0.11770833333333286,
      "velocity": 33,
      "track": 0
    },
    {
      "pitch": 72,
      "start_beat": 43.5,
      "duration_beat": 0.23541666666666572,
      "velocity": 33,
      "track": 0
    },
    {
      "pitch": 72,
      "start_beat": 43.5,
      "duration_beat": 0.23541666666666572,
      "velocity": 43,
      "track": 0
    },
    {
      "pitch": 76,
      "start_beat": 43.5,
      "duration_beat": 0.23541666666666572,
      "velocity": 43,
      "track": 0
    },
    {
      "pitch": 79,
      "start_beat": 43.5,
      "duration_beat": 0.23541666666666572,
      "velocity": 43,
      "track": 0
    },
    {
      "pitch": 72,
      "start_beat": 43.5,
      "duration_beat": 0.11770833333333286,
      "velocity": 33,
      "track": 0
    },
    {
      "pitch": 72,
      "start_beat": 43.5,
      "duration_beat": 0.125,
      "velocity": 13,
      "track": 0
    },
    {
      "pitch": 79,
      "start_beat": 43.625,
      "duration_beat": 0.11770833333333286,
      "velocity": 33,
      "track": 0
    },
    {
      "pitch": 84,
      "start_beat": 43.75,
      "duration_beat": 0.11770833333333286,
      "velocity": 33,
      "track": 0
    },
    {
      "pitch": 71,
      "start_beat": 43.75,
      "duration_beat": 0.23541666666666572,
      "velocity": 33,
      "track": 0
    },
    {
      "pitch": 71,
      "start_beat": 43.75,
      "duration_beat": 0.23541666666666572,
      "velocity": 43,
      "track": 0
    },
    {
      "pitch": 75,
      "start_beat": 43.75,
      "duration_beat": 0.23541666666666572,
      "velocity": 43,
      "track": 0
    },
    {
      "pitch": 78,
      "start_beat": 43.75,
      "duration_beat": 0.23541666666666572,
      "velocity": 43,
      "track": 0
    },
    {
      "pitch": 71,
      "start_beat": 43.75,
      "duration_beat": 0.11770833333333286,
      "velocity": 33,
      "track": 0
    },
    {
      "pitch": 71,
      "start_beat": 43.75,
      "duration_beat": 0.125,
      "velocity": 13,
      "track": 0
    },
    {
      "pitch": 78,
      "start_beat": 43.875,
      "duration_beat": 0.11770833333333286,
      "velocity": 33,
      "track": 0
    },
    {
      "pitch": 83,
      "start_beat": 44.0,
      "duration_beat": 0.11770833333333286,
      "velocity": 33,
      "track": 0
    },
    {
      "pitch": 69,
      "start_beat": 44.0,
      "duration_beat": 0.47291666666667,
      "velocity": 33,
      "track": 0
    },
    {
      "pitch": 69,
      "start_beat": 44.0,
      "duration_beat": 0.47291666666667,
      "velocity": 43,
      "track": 0
    },
    {
      "pitch": 73,
      "start_beat": 44.0,
      "duration_beat": 0.47291666666667,
      "velocity": 43,
      "track": 0
    },
    {
      "pitch": 76,
      "start_beat": 44.0,
      "duration_beat": 0.47291666666667,
      "velocity": 43,
      "track": 0
    },
    {
      "pitch": 69,
      "start_beat": 44.0,
      "duration_beat": 0.236458333333335,
      "velocity": 33,
      "track": 0
    },
    {
      "pitch": 69,
      "start_beat": 44.0,
      "duration_beat": 0.125,
      "velocity": 13,
      "track": 0
    },
    {
      "pitch": 45,
      "start_beat": 44.0,
      "duration_beat": 0.23541666666666572,
      "velocity": 33,
      "track": 1
    },
    {
      "pitch": 45,
      "start_beat": 44.0,
      "duration_beat": 0.23541666666666572,
      "velocity": 43,
      "track": 1
    },
    {
      "pitch": 49,
      "start_beat": 44.0,
      "duration_beat": 0.23541666666666572,
      "velocity": 43,
      "track": 1
    },
    {
      "pitch": 52,
      "start_beat": 44.0,
      "duration_beat": 0.23541666666666572,
      "velocity": 43,
      "track": 1
    },
    {
      "pitch": 45,
      "start_beat": 44.0,
      "duration_beat": 0.11770833333333286,
      "velocity": 33,
      "track": 1
    },
    {
      "pitch": 45,
      "start_beat": 44.0,
      "duration_beat": 0.125,
      "velocity": 13,
      "track": 1
    },
    {
      "pitch": 76,
      "start_beat": 44.125,
      "duration_beat": 0.236458333333335,
      "velocity": 33,
      "track": 0
    },
    {
      "pitch": 52,
      "start_beat": 44.125,
      "duration_beat": 0.11770833333333286,
      "velocity": 33,
      "track": 1
    },
    {
      "pitch": 81,
      "start_beat": 44.25,
      "duration_beat": 0.236458333333335,
      "velocity": 33,
      "track": 0
    },
    {
      "pitch": 69,
      "start_beat": 44.25,
      "duration_beat": 0.125,
      "velocity": 13,
      "track": 0
    },
    {
      "pitch": 57,
      "start_beat": 44.25,
      "duration_beat": 0.11770833333333286,
      "velocity": 33,
      "track": 1
    },
    {
      "pitch": 52,
      "start_beat": 44.25,
      "duration_beat": 0.23541666666666572,
      "velocity": 33,
      "track": 1
    },
    {
      "pitch": 52,
      "start_beat": 44.25,
      "duration_beat": 0.23541666666666572,
      "velocity": 43,
      "track": 1
    },
    {
      "pitch": 56,
      "start_beat": 44.25,
      "duration_beat": 0.23541666666666572,
      "velocity": 43,
      "track": 1
    },
    {
      "pitch": 59,
      "start_beat": 44.25,
      "duration_beat": 0.23541666666666572,
      "velocity": 43,
      "track": 1
    },
    {
      "pitch": 52,
      "start_beat": 44.25,
      "duration_beat": 0.11770833333333286,
      "velocity": 33,
      "track": 1
    },
    {
      "pitch": 52,
      "start_beat": 44.25,
      "duration_beat": 0.125,
      "velocity": 13,
      "track": 1
    },
    {
      "pitch": 59,
      "start_beat": 44.375,
      "duration_beat": 0.11770833333333286,
      "velocity": 33,
      "track": 1
    },
    {
      "pitch": 64,
      "start_beat": 44.5,
      "duration_beat": 0.11770833333333286,
      "velocity": 33,
      "track": 1
    },
    {
      "pitch": 57,
      "start_beat": 44.5,
      "duration_beat": 0.23541666666666572,
      "velocity": 33,
      "track": 1
    },
    {
      "pitch": 57,
      "start_beat": 44.5,
      "duration_beat": 0.23541666666666572,
      "velocity": 43,
      "track": 1
    },
    {
      "pitch": 61,
      "start_beat": 44.5,
      "duration_beat": 0.23541666666666572,
      "velocity": 43,
      "track": 1
    },
    {
      "pitch": 64,
      "start_beat": 44.5,
      "duration_beat": 0.23541666666666572,
      "velocity": 43,
      "track": 1
    },
    {
      "pitch": 57,
      "start_beat": 44.5,
      "duration_beat": 0.11770833333333286,
      "velocity": 33,
      "track": 1
    },
    {
      "pitch": 57,
      "start_beat": 44.5,
      "duration_beat": 0.125,
      "velocity": 13,
      "track": 1
    },
    {
      "pitch": 64,
      "start_beat": 44.625,
      "duration_beat": 0.11770833333333286,
      "velocity": 33,
      "track": 1
    },
    {
      "pitch": 69,
      "start_beat": 44.75,
      "duration_beat": 0.11770833333333286,
      "velocity": 33,
      "track": 1
    },
    {
      "pitch": 71,
      "start_beat": 44.75,
      "duration_beat": 0.23541666666666572,
      "velocity": 33,
      "track": 0
    },
    {
      "pitch": 71,
      "start_beat": 44.75,
      "duration_beat": 0.23541666666666572,
      "velocity": 43,
      "track": 0
    },
    {
      "pitch": 75,
      "start_beat": 44.75,
      "duration_beat": 0.23541666666666572,
      "velocity": 43,
      "track": 0
    },
    {
      "pitch": 78,
      "start_beat": 44.75,
      "duration_beat": 0.23541666666666572,
      "velocity": 43,
      "track": 0
    },
    {
      "pitch": 71,
      "start_beat": 44.75,
      "duration_beat": 0.11770833333333286,
      "velocity": 33,
      "track": 0
    },
    {
      "pitch": 71,
      "start_beat": 44.75,
      "duration_beat": 0.125,
      "velocity": 13,
      "track": 0
    },
    {
      "pitch": 78,
      "start_beat": 44.875,
      "duration_beat": 0.11770833333333286,
      "velocity": 33,
      "track": 0
    },
    {
      "pitch": 83,
      "start_beat": 45.0,
      "duration_beat": 0.11770833333333286,
      "velocity": 33,
      "track": 0
    },
    {
      "pitch": 72,
      "start_beat": 45.0,
      "duration_beat": 0.23541666666666572,
      "velocity": 33,
      "track": 0
    },
    {
      "pitch": 72,
      "start_beat": 45.0,
      "duration_beat": 0.23541666666666572,
      "velocity": 43,
      "track": 0
    },
    {
      "pitch": 76,
      "start_beat": 45.0,
      "duration_beat": 0.23541666666666572,
      "velocity": 43,
      "track": 0
    },
    {
      "pitch": 79,
      "start_beat": 45.0,
      "duration_beat": 0.23541666666666572,
      "velocity": 43,
      "track": 0
    },
    {
      "pitch": 72,
      "start_beat": 45.0,
      "duration_beat": 0.11770833333333286,
      "velocity": 33,
      "track": 0
    },
    {
      "pitch": 72,
      "start_beat": 45.0,
      "duration_beat": 0.125,
      "velocity": 13,
      "track": 0
    },
    {
      "pitch": 79,
      "start_beat": 45.125,
      "duration_beat": 0.11770833333333286,
      "velocity": 33,
      "track": 0
    },
    {
      "pitch": 84,
      "start_beat": 45.25,
      "duration_beat": 0.11770833333333286,
      "velocity": 33,
      "track": 0
    },
    {
      "pitch": 74,
      "start_beat": 45.25,
      "duration_beat": 0.23541666666666572,
      "velocity": 33,
      "track": 0
    },
    {
      "pitch": 74,
      "start_beat": 45.25,
      "duration_beat": 0.23541666666666572,
      "velocity": 43,
      "track": 0
    },
    {
      "pitch": 78,
      "start_beat": 45.25,
      "duration_beat": 0.23541666666666572,
      "velocity": 43,
      "track": 0
    },
    {
      "pitch": 81,
      "start_beat": 45.25,
      "duration_beat": 0.23541666666666572,
      "velocity": 43,
      "track": 0
    },
    {
      "pitch": 74,
      "start_beat": 45.25,
      "duration_beat": 0.11770833333333286,
      "velocity": 33,
      "track": 0
    },
    {
      "pitch": 74,
      "start_beat": 45.25,
      "duration_beat": 0.125,
      "velocity": 13,
      "track": 0
    },
    {
      "pitch": 81,
      "start_beat": 45.375,
      "duration_beat": 0.11770833333333286,
      "velocity": 33,
      "track": 0
    },
    {
      "pitch": 86,
      "start_beat": 45.5,
      "duration_beat": 0.11770833333333286,
      "velocity": 33,
      "track": 0
    },
    {
      "pitch": 76,
      "start_beat": 45.5,
      "duration_beat": 0.7104166666666671,
      "velocity": 33,
      "track": 0
    },
    {
      "pitch": 76,
      "start_beat": 45.5,
      "duration_beat": 0.7104166666666671,
      "velocity": 43,
      "track": 0
    },
    {
      "pitch": 80,
      "start_beat": 45.5,
      "duration_beat": 0.7104166666666671,
      "velocity": 43,
      "track": 0
    },
    {
      "pitch": 83,
      "start_beat": 45.5,
      "duration_beat": 0.7104166666666671,
      "velocity": 43,
      "track": 0
    },
    {
      "pitch": 76,
      "start_beat": 45.5,
      "duration_beat": 0.35520833333333357,
      "velocity": 33,
      "track": 0
    },
    {
      "pitch": 76,
      "start_beat": 45.5,
      "duration_beat": 0.125,
      "velocity": 13,
      "track": 0
    },
    {
      "pitch": 48,
      "start_beat": 45.5,
      "duration_beat": 0.23541666666666572,
      "velocity": 33,
      "track": 1
    },
    {
      "pitch": 48,
      "start_beat": 45.5,
      "duration_beat": 0.23541666666666572,
      "velocity": 43,
      "track": 1
    },
    {
      "pitch": 52,
      "start_beat": 45.5,
      "duration_beat": 0.23541666666666572,
      "velocity": 43,
      "track": 1
    },
    {
      "pitch": 55,
      "start_beat": 45.5,
      "duration_beat": 0.23541666666666572,
      "velocity": 43,
      "track": 1
    },
    {
      "pitch": 48,
      "start_beat": 45.5,
      "duration_beat": 0.11770833333333286,
      "velocity": 33,
      "track": 1
    },
    {
      "pitch": 48,
      "start_beat": 45.5,
      "duration_beat": 0.125,
      "velocity": 13,
      "track": 1
    },
    {
      "pitch": 83,
      "start_beat": 45.625,
      "duration_beat": 0.35520833333333357,
      "velocity": 33,
      "track": 0
    },
    {
      "pitch": 55,
      "start_beat": 45.625,
      "duration_beat": 0.11770833333333286,
      "velocity": 33,
      "track": 1
    },
    {
      "pitch": 88,
      "start_beat": 45.75,
      "duration_beat": 0.35520833333333357,
      "velocity": 33,
      "track": 0
    },
    {
      "pitch": 76,
      "start_beat": 45.75,
      "duration_beat": 0.125,
      "velocity": 13,
      "track": 0
    },
    {
      "pitch": 60,
      "start_beat": 45.75,
      "duration_beat": 0.11770833333333286,
      "velocity": 33,
      "track": 1
    },
    {
      "pitch": 55,
      "start_beat": 45.75,
      "duration_beat": 0.23541666666666572,
      "velocity": 33,
      "track": 1
    },
    {
      "pitch": 55,
      "start_beat": 45.75,
      "duration_beat": 0.23541666666666572,
      "velocity": 43,
      "track": 1
    },
    {
      "pitch": 59,
      "start_beat": 45.75,
      "duration_beat": 0.23541666666666572,
      "velocity": 43,
      "track": 1
    },
    {
      "pitch": 62,
      "start_beat": 45.75,
      "duration_beat": 0.23541666666666572,
      "velocity": 43,
      "track": 1
    },
    {
      "pitch": 55,
      "start_beat": 45.75,
      "duration_beat": 0.11770833333333286,
      "velocity": 33,
      "track": 1
    },
    {
      "pitch": 55,
      "start_beat": 45.75,
      "duration_beat": 0.125,
      "velocity": 13,
      "track": 1
    },
    {
      "pitch": 62,
      "start_beat": 45.875,
      "duration_beat": 0.11770833333333286,
      "velocity": 33,
      "track": 1
    },
    {
      "pitch": 76,
      "start_beat": 46.0,
      "duration_beat": 0.125,
      "velocity": 13,
      "track": 0
    },
    {
      "pitch": 67,
      "start_beat": 46.0,
      "duration_beat": 0.11770833333333286,
      "velocity": 33,
      "track": 1
    },
    {
      "pitch": 60,
      "start_beat": 46.0,
      "duration_beat": 0.23541666666666572,
      "velocity": 33,
      "track": 1
    },
    {
      "pitch": 60,
      "start_beat": 46.0,
      "duration_beat": 0.23541666666666572,
      "velocity": 43,
      "track": 1
    },
    {
      "pitch": 64,
      "start_beat": 46.0,
      "duration_beat": 0.23541666666666572,
      "velocity": 43,
      "track": 1
    },
    {
      "pitch": 67,
      "start_beat": 46.0,
      "duration_beat": 0.23541666666666572,
      "velocity": 43,
      "track": 1
    },
    {
      "pitch": 60,
      "start_beat": 46.0,
      "duration_beat": 0.11770833333333286,
      "velocity": 33,
      "track": 1
    },
    {
      "pitch": 60,
      "start_beat": 46.0,
      "duration_beat": 0.125,
      "velocity": 13,
      "track": 1
    },
    {
      "pitch": 67,
      "start_beat": 46.125,
      "duration_beat": 0.11770833333333286,
      "velocity": 33,
      "track": 1
    },
    {
      "pitch": 72,
      "start_beat": 46.25,
      "duration_beat": 0.11770833333333286,
      "velocity": 33,
      "track": 1
    },
    {
      "pitch": 67,
      "start_beat": 46.25,
      "duration_beat": 0.23541666666666572,
      "velocity": 33,
      "track": 0
    },
    {
      "pitch": 67,
      "start_beat": 46.25,
      "duration_beat": 0.23541666666666572,
      "velocity": 43,
      "track": 0
    },
    {
      "pitch": 71,
      "start_beat": 46.25,
      "duration_beat": 0.23541666666666572,
      "velocity": 43,
      "track": 0
    },
    {
      "pitch": 74,
      "start_beat": 46.25,
      "duration_beat": 0.23541666666666572,
      "velocity": 43,
      "track": 0
    },
    {
      "pitch": 67,
      "start_beat": 46.25,
      "duration_beat": 0.11770833333333286,
      "velocity": 33,
      "track": 0
    },
    {
      "pitch": 67,
      "start_beat": 46.25,
      "duration_beat": 0.125,
      "velocity": 13,
      "track": 0
    },
    {
      "pitch": 74,
      "start_beat": 46.375,
      "duration_beat": 0.11770833333333286,
      "velocity": 33,
      "track": 0
    },
    {
      "pitch": 79,
      "start_beat": 46.5,
      "duration_beat": 0.11770833333333286,
      "velocity": 33,
      "track": 0
    },
    {
      "pitch": 77,
      "start_beat": 46.5,
      "duration_beat": 0.23541666666666572,
      "velocity": 33,
      "track": 0
    },
    {
      "pitch": 77,
      "start_beat": 46.5,
      "duration_beat": 0.23541666666666572,
      "velocity": 43,
      "track": 0
    },
    {
      "pitch": 81,
      "start_beat": 46.5,
      "duration_beat": 0.23541666666666572,
      "velocity": 43,
      "track": 0
    },
    {
      "pitch": 84,
      "start_beat": 46.5,
      "duration_beat": 0.23541666666666572,
      "velocity": 43,
      "track": 0
    },
    {
      "pitch": 77,
      "start_beat": 46.5,
      "duration_beat": 0.11770833333333286,
      "velocity": 33,
      "track": 0
    },
    {
      "pitch": 77,
      "start_beat": 46.5,
      "duration_beat": 0.125,
      "velocity": 13,
      "track": 0
    },
    {
      "pitch": 84,
      "start_beat": 46.625,
      "duration_beat": 0.11770833333333286,
      "velocity": 33,
      "track": 0
    },
    {
      "pitch": 89,
      "start_beat": 46.75,
      "duration_beat": 0.11770833333333286,
      "velocity": 33,
      "track": 0
    },
    {
      "pitch": 76,
      "start_beat": 46.75,
      "duration_beat": 0.23541666666666572,
      "velocity": 33,
      "track": 0
    },
    {
      "pitch": 76,
      "start_beat": 46.75,
      "duration_beat": 0.23541666666666572,
      "velocity": 43,
      "track": 0
    },
    {
      "pitch": 80,
      "start_beat": 46.75,
      "duration_beat": 0.23541666666666572,
      "velocity": 43,
      "track": 0
    },
    {
      "pitch": 83,
      "start_beat": 46.75,
      "duration_beat": 0.23541666666666572,
      "velocity": 43,
      "track": 0
    },
    {
      "pitch": 76,
      "start_beat": 46.75,
      "duration_beat": 0.11770833333333286,
      "velocity": 33,
      "track": 0
    },
    {
      "pitch": 76,
      "start_beat": 46.75,
      "duration_beat": 0.125,
      "velocity": 13,
      "track": 0
    },
    {
      "pitch": 83,
      "start_beat": 46.875,
      "duration_beat": 0.11770833333333286,
      "velocity": 33,
      "track": 0
    },
    {
      "pitch": 88,
      "start_beat": 47.0,
      "duration_beat": 0.11770833333333286,
      "velocity": 33,
      "track": 0
    },
    {
      "pitch": 74,
      "start_beat": 47.0,
      "duration_beat": 0.7104166666666671,
      "velocity": 33,
      "track": 0
    },
    {
      "pitch": 74,
      "start_beat": 47.0,
      "duration_beat": 0.7104166666666671,
      "velocity": 43,
      "track": 0
    },
    {
      "pitch": 78,
      "start_beat": 47.0,
      "duration_beat": 0.7104166666666671,
      "velocity": 43,
      "track": 0
    },
    {
      "pitch": 81,
      "start_beat": 47.0,
      "duration_beat": 0.7104166666666671,
      "velocity": 43,
      "track": 0
    },
    {
      "pitch": 74,
      "start_beat": 47.0,
      "duration_beat": 0.35520833333333357,
      "velocity": 33,
      "track": 0
    },
    {
      "pitch": 74,
      "start_beat": 47.0,
      "duration_beat": 0.125,
      "velocity": 13,
      "track": 0
    },
    {
      "pitch": 43,
      "start_beat": 47.0,
      "duration_beat": 0.23541666666666572,
      "velocity": 33,
      "track": 1
    },
    {
      "pitch": 43,
      "start_beat": 47.0,
      "duration_beat": 0.23541666666666572,
      "velocity": 43,
      "track": 1
    },
    {
      "pitch": 47,
      "start_beat": 47.0,
      "duration_beat": 0.23541666666666572,
      "velocity": 43,
      "track": 1
    },
    {
      "pitch": 50,
      "start_beat": 47.0,
      "duration_beat": 0.23541666666666572,
      "velocity": 43,
      "track": 1
    },
    {
      "pitch": 43,
      "start_beat": 47.0,
      "duration_beat": 0.11770833333333286,
      "velocity": 33,
      "track": 1
    },
    {
      "pitch": 43,
      "start_beat": 47.0,
      "duration_beat": 0.125,
      "velocity": 13,
      "track": 1
    },
    {
      "pitch": 81,
      "start_beat": 47.125,
      "duration_beat": 0.35520833333333357,
      "velocity": 33,
      "track": 0
    },
    {
      "pitch": 50,
      "start_beat": 47.125,
      "duration_beat": 0.11770833333333286,
      "velocity": 33,
      "track": 1
    },
    {
      "pitch": 86,
      "start_beat": 47.25,
      "duration_beat": 0.35520833333333357,
      "velocity": 33,
      "track": 0
    },
    {
      "pitch": 74,
      "start_beat": 47.25,
      "duration_beat": 0.125,
      "velocity": 13,
      "track": 0
    },
    {
      "pitch": 55,
      "start_beat": 47.25,
      "duration_beat": 0.11770833333333286,
      "velocity": 33,
      "track": 1
    },
    {
      "pitch": 55,
      "start_beat": 47.25,
      "duration_beat": 0.23541666666666572,
      "velocity": 33,
      "track": 1
    },
    {
      "pitch": 55,
      "start_beat": 47.25,
      "duration_beat": 0.23541666666666572,
      "velocity": 43,
      "track": 1
    },
    {
      "pitch": 59,
      "start_beat": 47.25,
      "duration_beat": 0.23541666666666572,
      "velocity": 43,
      "track": 1
    },
    {
      "pitch": 62,
      "start_beat": 47.25,
      "duration_beat": 0.23541666666666572,
      "velocity": 43,
      "track": 1
    },
    {
      "pitch": 55,
      "start_beat": 47.25,
      "duration_beat": 0.11770833333333286,
      "velocity": 33,
      "track": 1
    },
    {
      "pitch": 55,
      "start_beat": 47.25,
      "duration_beat": 0.125,
      "velocity": 13,
      "track": 1
    },
    {
      "pitch": 62,
      "start_beat": 47.375,
      "duration_beat": 0.11770833333333286,
      "velocity": 33,
      "track": 1
    },
    {
      "pitch": 74,
      "start_beat": 47.5,
      "duration_beat": 0.125,
      "velocity": 13,
      "track": 0
    },
    {
      "pitch": 67,
      "start_beat": 47.5,
      "duration_beat": 0.11770833333333286,
      "velocity": 33,
      "track": 1
    },
    {
      "pitch": 59,
      "start_beat": 47.5,
      "duration_beat": 0.23541666666666572,
      "velocity": 33,
      "track": 1
    },
    {
      "pitch": 59,
      "start_beat": 47.5,
      "duration_beat": 0.23541666666666572,
      "velocity": 43,
      "track": 1
    },
    {
      "pitch": 63,
      "start_beat": 47.5,
      "duration_beat": 0.23541666666666572,
      "velocity": 43,
      "track": 1
    },
    {
      "pitch": 66,
      "start_beat": 47.5,
      "duration_beat": 0.23541666666666572,
      "velocity": 43,
      "track": 1
    },
    {
      "pitch": 59,
      "start_beat": 47.5,
      "duration_beat": 0.11770833333333286,
      "velocity": 33,
      "track": 1
    },
    {
      "pitch": 59,
      "start_beat": 47.5,
      "duration_beat": 0.125,
      "velocity": 13,
      "track": 1
    },
    {
      "pitch": 66,
      "start_beat": 47.625,
      "duration_beat": 0.11770833333333286,
      "velocity": 33,
      "track": 1
    },
    {
      "pitch": 71,
      "start_beat": 47.75,
      "duration_beat": 0.11770833333333286,
      "velocity": 33,
      "track": 1
    },
    {
      "pitch": 65,
      "start_beat": 47.75,
      "duration_beat": 0.23541666666666572,
      "velocity": 33,
      "track": 0
    },
    {
      "pitch": 65,
      "start_beat": 47.75,
      "duration_beat": 0.23541666666666572,
      "velocity": 43,
      "track": 0
    },
    {
      "pitch": 69,
      "start_beat": 47.75,
      "duration_beat": 0.23541666666666572,
      "velocity": 43,
      "track": 0
    },
    {
      "pitch": 72,
      "start_beat": 47.75,
      "duration_beat": 0.23541666666666572,
      "velocity": 43,
      "track": 0
    },
    {
      "pitch": 65,
      "start_beat": 47.75,
      "duration_beat": 0.11770833333333286,
      "velocity": 33,
      "track": 0
    },
    {
      "pitch": 65,
      "start_beat": 47.75,
      "duration_beat": 0.125,
      "velocity": 13,
      "track": 0
    },
    {
      "pitch": 72,
      "start_beat": 47.875,
      "duration_beat": 0.11770833333333286,
      "velocity": 33,
      "track": 0
    },
    {
      "pitch": 77,
      "start_beat": 48.0,
      "duration_beat": 0.11770833333333286,
      "velocity": 33,
      "track": 0
    },
    {
      "pitch": 76,
      "start_beat": 48.0,
      "duration_beat": 0.23541666666666572,
      "velocity": 33,
      "track": 0
    },
    {
      "pitch": 76,
      "start_beat": 48.0,
      "duration_beat": 0.23541666666666572,
      "velocity": 43,
      "track": 0
    },
    {
      "pitch": 80,
      "start_beat": 48.0,
      "duration_beat": 0.23541666666666572,
      "velocity": 43,
      "track": 0
    },
    {
      "pitch": 83,
      "start_beat": 48.0,
      "duration_beat": 0.23541666666666572,
      "velocity": 43,
      "track": 0
    },
    {
      "pitch": 76,
      "start_beat": 48.0,
      "duration_beat": 0.11770833333333286,
      "velocity": 33,
      "track": 0
    },
    {
      "pitch": 76,
      "start_beat": 48.0,
      "duration_beat": 0.125,
      "velocity": 13,
      "track": 0
    },
    {
      "pitch": 83,
      "start_beat": 48.125,
      "duration_beat": 0.11770833333333286,
      "velocity": 33,
      "track": 0
    },
    {
      "pitch": 88,
      "start_beat": 48.25,
      "duration_beat": 0.11770833333333286,
      "velocity": 33,
      "track": 0
    },
    {
      "pitch": 74,
      "start_beat": 48.25,
      "duration_beat": 0.23541666666666572,
      "velocity": 33,
      "track": 0
    },
    {
      "pitch": 74,
      "start_beat": 48.25,
      "duration_beat": 0.23541666666666572,
      "velocity": 43,
      "track": 0
    },
    {
      "pitch": 78,
      "start_beat": 48.25,
      "duration_beat": 0.23541666666666572,
      "velocity": 43,
      "track": 0
    },
    {
      "pitch": 81,
      "start_beat": 48.25,
      "duration_beat": 0.23541666666666572,
      "velocity": 43,
      "track": 0
    },
    {
      "pitch": 74,
      "start_beat": 48.25,
      "duration_beat": 0.11770833333333286,
      "velocity": 33,
      "track": 0
    },
    {
      "pitch": 74,
      "start_beat": 48.25,
      "duration_beat": 0.125,
      "velocity": 13,
      "track": 0
    },
    {
      "pitch": 81,
      "start_beat": 48.375,
      "duration_beat": 0.11770833333333286,
      "velocity": 33,
      "track": 0
    },
    {
      "pitch": 86,
      "start_beat": 48.5,
      "duration_beat": 0.11770833333333286,
      "velocity": 33,
      "track": 0
    },
    {
      "pitch": 72,
      "start_beat": 48.5,
      "duration_beat": 0.7104166666666671,
      "velocity": 33,
      "track": 0
    },
    {
      "pitch": 72,
      "start_beat": 48.5,
      "duration_beat": 0.7104166666666671,
      "velocity": 43,
      "track": 0
    },
    {
      "pitch": 76,
      "start_beat": 48.5,
      "duration_beat": 0.7104166666666671,
      "velocity": 43,
      "track": 0
    },
    {
      "pitch": 79,
      "start_beat": 48.5,
      "duration_beat": 0.7104166666666671,
      "velocity": 43,
      "track": 0
    },
    {
      "pitch": 72,
      "start_beat": 48.5,
      "duration_beat": 0.35520833333333357,
      "velocity": 33,
      "track": 0
    },
    {
      "pitch": 72,
      "start_beat": 48.5,
      "duration_beat": 0.125,
      "velocity": 13,
      "track": 0
    },
    {
      "pitch": 45,
      "start_beat": 48.5,
      "duration_beat": 0.23541666666666572,
      "velocity": 33,
      "track": 1
    },
    {
      "pitch": 45,
      "start_beat": 48.5,
      "duration_beat": 0.23541666666666572,
      "velocity": 43,
      "track": 1
    },
    {
      "pitch": 49,
      "start_beat": 48.5,
      "duration_beat": 0.23541666666666572,
      "velocity": 43,
      "track": 1
    },
    {
      "pitch": 52,
      "start_beat": 48.5,
      "duration_beat": 0.23541666666666572,
      "velocity": 43,
      "track": 1
    },
    {
      "pitch": 45,
      "start_beat": 48.5,
      "duration_beat": 0.11770833333333286,
      "velocity": 33,
      "track": 1
    },
    {
      "pitch": 45,
      "start_beat": 48.5,
      "duration_beat": 0.125,
      "velocity": 13,
      "track": 1
    },
    {
      "pitch": 79,
      "start_beat": 48.625,
      "duration_beat": 0.35520833333333357,
      "velocity": 33,
      "track": 0
    },
    {
      "pitch": 52,
      "start_beat": 48.625,
      "duration_beat": 0.11770833333333286,
      "velocity": 33,
      "track": 1
    },
    {
      "pitch": 84,
      "start_beat": 48.75,
      "duration_beat": 0.35520833333333357,
      "velocity": 33,
      "track": 0
    },
    {
      "pitch": 72,
      "start_beat": 48.75,
      "duration_beat": 0.125,
      "velocity": 13,
      "track": 0
    },
    {
      "pitch": 57,
      "start_beat": 48.75,
      "duration_beat": 0.11770833333333286,
      "velocity": 33,
      "track": 1
    },
    {
      "pitch": 52,
      "start_beat": 48.75,
      "duration_beat": 0.23541666666666572,
      "velocity": 33,
      "track": 1
    },
    {
      "pitch": 52,
      "start_beat": 48.75,
      "duration_beat": 0.23541666666666572,
      "velocity": 43,
      "track": 1
    },
    {
      "pitch": 56,
      "start_beat": 48.75,
      "duration_beat": 0.23541666666666572,
      "velocity": 43,
      "track": 1
    },
    {
      "pitch": 59,
      "start_beat": 48.75,
      "duration_beat": 0.23541666666666572,
      "velocity": 43,
      "track": 1
    },
    {
      "pitch": 52,
      "start_beat": 48.75,
      "duration_beat": 0.11770833333333286,
      "velocity": 33,
      "track": 1
    },
    {
      "pitch": 52,
      "start_beat": 48.75,
      "duration_beat": 0.125,
      "velocity": 13,
      "track": 1
    },
    {
      "pitch": 59,
      "start_beat": 48.875,
      "duration_beat": 0.11770833333333286,
      "velocity": 33,
      "track": 1
    },
    {
      "pitch": 72,
      "start_beat": 49.0,
      "duration_beat": 0.125,
      "velocity": 13,
      "track": 0
    },
    {
      "pitch": 64,
      "start_beat": 49.0,
      "duration_beat": 0.11770833333333286,
      "velocity": 33,
      "track": 1
    },
    {
      "pitch": 57,
      "start_beat": 49.0,
      "duration_beat": 0.23541666666666572,
      "velocity": 33,
      "track": 1
    },
    {
      "pitch": 57,
      "start_beat": 49.0,
      "duration_beat": 0.23541666666666572,
      "velocity": 43,
      "track": 1
    },
    {
      "pitch": 61,
      "start_beat": 49.0,
      "duration_beat": 0.23541666666666572,
      "velocity": 43,
      "track": 1
    },
    {
      "pitch": 64,
      "start_beat": 49.0,
      "duration_beat": 0.23541666666666572,
      "velocity": 43,
      "track": 1
    },
    {
      "pitch": 57,
      "start_beat": 49.0,
      "duration_beat": 0.11770833333333286,
      "velocity": 33,
      "track": 1
    },
    {
      "pitch": 57,
      "start_beat": 49.0,
      "duration_beat": 0.125,
      "velocity": 13,
      "track": 1
    },
    {
      "pitch": 64,
      "start_beat": 49.125,
      "duration_beat": 0.11770833333333286,
      "velocity": 33,
      "track": 1
    },
    {
      "pitch": 69,
      "start_beat": 49.25,
      "duration_beat": 0.11770833333333286,
      "velocity": 33,
      "track": 1
    },
    {
      "pitch": 64,
      "start_beat": 49.25,
      "duration_beat": 0.23541666666666572,
      "velocity": 33,
      "track": 0
    },
    {
      "pitch": 64,
      "start_beat": 49.25,
      "duration_beat": 0.23541666666666572,
      "velocity": 43,
      "track": 0
    },
    {
      "pitch": 68,
      "start_beat": 49.25,
      "duration_beat": 0.23541666666666572,
      "velocity": 43,
      "track": 0
    },
    {
      "pitch": 71,
      "start_beat": 49.25,
      "duration_beat": 0.23541666666666572,
      "velocity": 43,
      "track": 0
    },
    {
      "pitch": 64,
      "start_beat": 49.25,
      "duration_beat": 0.11770833333333286,
      "velocity": 33,
      "track": 0
    },
    {
      "pitch": 64,
      "start_beat": 49.25,
      "duration_beat": 0.125,
      "velocity": 13,
      "track": 0
    },
    {
      "pitch": 71,
      "start_beat": 49.375,
      "duration_beat": 0.11770833333333286,
      "velocity": 33,
      "track": 0
    },
    {
      "pitch": 76,
      "start_beat": 49.5,
      "duration_beat": 0.11770833333333286,
      "velocity": 33,
      "track": 0
    },
    {
      "pitch": 74,
      "start_beat": 49.5,
      "duration_beat": 0.23541666666666572,
      "velocity": 33,
      "track": 0
    },
    {
      "pitch": 74,
      "start_beat": 49.5,
      "duration_beat": 0.23541666666666572,
      "velocity": 43,
      "track": 0
    },
    {
      "pitch": 78,
      "start_beat": 49.5,
      "duration_beat": 0.23541666666666572,
      "velocity": 43,
      "track": 0
    },
    {
      "pitch": 81,
      "start_beat": 49.5,
      "duration_beat": 0.23541666666666572,
      "velocity": 43,
      "track": 0
    },
    {
      "pitch": 74,
      "start_beat": 49.5,
      "duration_beat": 0.11770833333333286,
      "velocity": 33,
      "track": 0
    },
    {
      "pitch": 74,
      "start_beat": 49.5,
      "duration_beat": 0.125,
      "velocity": 13,
      "track": 0
    },
    {
      "pitch": 81,
      "start_beat": 49.625,
      "duration_beat": 0.11770833333333286,
      "velocity": 33,
      "track": 0
    },
    {
      "pitch": 86,
      "start_beat": 49.75,
      "duration_beat": 0.11770833333333286,
      "velocity": 33,
      "track": 0
    },
    {
      "pitch": 72,
      "start_beat": 49.75,
      "duration_beat": 0.23541666666666572,
      "velocity": 33,
      "track": 0
    },
    {
      "pitch": 72,
      "start_beat": 49.75,
      "duration_beat": 0.23541666666666572,
      "velocity": 43,
      "track": 0
    },
    {
      "pitch": 76,
      "start_beat": 49.75,
      "duration_beat": 0.23541666666666572,
      "velocity": 43,
      "track": 0
    },
    {
      "pitch": 79,
      "start_beat": 49.75,
      "duration_beat": 0.23541666666666572,
      "velocity": 43,
      "track": 0
    },
    {
      "pitch": 72,
      "start_beat": 49.75,
      "duration_beat": 0.11770833333333286,
      "velocity": 33,
      "track": 0
    },
    {
      "pitch": 72,
      "start_beat": 49.75,
      "duration_beat": 0.125,
      "velocity": 13,
      "track": 0
    },
    {
      "pitch": 79,
      "start_beat": 49.875,
      "duration_beat": 0.11770833333333286,
      "velocity": 33,
      "track": 0
    },
    {
      "pitch": 84,
      "start_beat": 50.0,
      "duration_beat": 0.11770833333333286,
      "velocity": 33,
      "track": 0
    },
    {
      "pitch": 71,
      "start_beat": 50.0,
      "duration_beat": 0.47291666666667,
      "velocity": 33,
      "track": 0
    },
    {
      "pitch": 71,
      "start_beat": 50.0,
      "duration_beat": 0.47291666666667,
      "velocity": 43,
      "track": 0
    },
    {
      "pitch": 75,
      "start_beat": 50.0,
      "duration_beat": 0.47291666666667,
      "velocity": 43,
      "track": 0
    },
    {
      "pitch": 78,
      "start_beat": 50.0,
      "duration_beat": 0.47291666666667,
      "velocity": 43,
      "track": 0
    },
    {
      "pitch": 71,
      "start_beat": 50.0,
      "duration_beat": 0.236458333333335,
      "velocity": 33,
      "track": 0
    },
    {
      "pitch": 71,
      "start_beat": 50.0,
      "duration_beat": 0.125,
      "velocity": 13,
      "track": 0
    },
    {
      "pitch": 40,
      "start_beat": 50.0,
      "duration_beat": 0.23541666666666572,
      "velocity": 33,
      "track": 1
    },
    {
      "pitch": 40,
      "start_beat": 50.0,
      "duration_beat": 0.23541666666666572,
      "velocity": 43,
      "track": 1
    },
    {
      "pitch": 44,
      "start_beat": 50.0,
      "duration_beat": 0.23541666666666572,
      "velocity": 43,
      "track": 1
    },
    {
      "pitch": 47,
      "start_beat": 50.0,
      "duration_beat": 0.23541666666666572,
      "velocity": 43,
      "track": 1
    },
    {
      "pitch": 40,
      "start_beat": 50.0,
      "duration_beat": 0.11770833333333286,
      "velocity": 33,
      "track": 1
    },
    {
      "pitch": 40,
      "start_beat": 50.0,
      "duration_beat": 0.125,
      "velocity": 13,
      "track": 1
    },
    {
      "pitch": 78,
      "start_beat": 50.125,
      "duration_beat": 0.236458333333335,
      "velocity": 33,
      "track": 0
    },
    {
      "pitch": 47,
      "start_beat": 50.125,
      "duration_beat": 0.11770833333333286,
      "velocity": 33,
      "track": 1
    },
    {
      "pitch": 83,
      "start_beat": 50.25,
      "duration_beat": 0.236458333333335,
      "velocity": 33,
      "track": 0
    },
    {
      "pitch": 71,
      "start_beat": 50.25,
      "duration_beat": 0.125,
      "velocity": 13,
      "track": 0
    },
    {
      "pitch": 52,
      "start_beat": 50.25,
      "duration_beat": 0.11770833333333286,
      "velocity": 33,
      "track": 1
    },
    {
      "pitch": 52,
      "start_beat": 50.25,
      "duration_beat": 0.23541666666666572,
      "velocity": 33,
      "track": 1
    },
    {
      "pitch": 52,
      "start_beat": 50.25,
      "duration_beat": 0.23541666666666572,
      "velocity": 43,
      "track": 1
    },
    {
      "pitch": 56,
      "start_beat": 50.25,
      "duration_beat": 0.23541666666666572,
      "velocity": 43,
      "track": 1
    },
    {
      "pitch": 59,
      "start_beat": 50.25,
      "duration_beat": 0.23541666666666572,
      "velocity": 43,
      "track": 1
    },
    {
      "pitch": 52,
      "start_beat": 50.25,
      "duration_beat": 0.11770833333333286,
      "velocity": 33,
      "track": 1
    },
    {
      "pitch": 52,
      "start_beat": 50.25,
      "duration_beat": 0.125,
      "velocity": 13,
      "track": 1
    },
    {
      "pitch": 59,
      "start_beat": 50.375,
      "duration_beat": 0.11770833333333286,
      "velocity": 33,
      "track": 1
    },
    {
      "pitch": 64,
      "start_beat": 50.5,
      "duration_beat": 0.11770833333333286,
      "velocity": 33,
      "track": 1
    },
    {
      "pitch": 64,
      "start_beat": 50.5,
      "duration_beat": 0.23541666666666572,
      "velocity": 33,
      "track": 1
    },
    {
      "pitch": 64,
      "start_beat": 50.5,
      "duration_beat": 0.23541666666666572,
      "velocity": 43,
      "track": 1
    },
    {
      "pitch": 68,
      "start_beat": 50.5,
      "duration_beat": 0.23541666666666572,
      "velocity": 43,
      "track": 1
    },
    {
      "pitch": 71,
      "start_beat": 50.5,
      "duration_beat": 0.23541666666666572,
      "velocity": 43,
      "track": 1
    },
    {
      "pitch": 64,
      "start_beat": 50.5,
      "duration_beat": 0.11770833333333286,
      "velocity": 33,
      "track": 1
    },
    {
      "pitch": 64,
      "start_beat": 50.5,
      "duration_beat": 0.125,
      "velocity": 13,
      "track": 1
    },
    {
      "pitch": 71,
      "start_beat": 50.625,
      "duration_beat": 0.11770833333333286,
      "velocity": 33,
      "track": 1
    },
    {
      "pitch": 76,
      "start_beat": 50.75,
      "duration_beat": 0.11770833333333286,
      "velocity": 33,
      "track": 1
    },
    {
      "pitch": 64,
      "start_beat": 50.75,
      "duration_beat": 0.24791666666666856,
      "velocity": 33,
      "track": 0
    },
    {
      "pitch": 64,
      "start_beat": 50.75,
      "duration_beat": 0.24791666666666856,
      "velocity": 43,
      "track": 0
    },
    {
      "pitch": 68,
      "start_beat": 50.75,
      "duration_beat": 0.24791666666666856,
      "velocity": 43,
      "track": 0
    },
    {
      "pitch": 71,
      "start_beat": 50.75,
      "duration_beat": 0.24791666666666856,
      "velocity": 43,
      "track": 0
    },
    {
      "pitch": 64,
      "start_beat": 50.75,
      "duration_beat": 0.12395833333333428,
      "velocity": 33,
      "track": 0
    },
    {
      "pitch": 64,
      "start_beat": 50.75,
      "duration_beat": 0.125,
      "velocity": 13,
      "track": 0
    },
    {
      "pitch": 71,
      "start_beat": 50.875,
      "duration_beat": 0.12395833333333428,
      "velocity": 33,
      "track": 0
    },
    {
      "pitch": 76,
      "start_beat": 51.0,
      "duration_beat": 0.12395833333333428,
      "velocity": 33,
      "track": 0
    },
    {
      "pitch": 76,
      "start_beat": 51.0,
      "duration_beat": 0.23541666666666572,
      "velocity": 33,
      "track": 0
    },
    {
      "pitch": 76,
      "start_beat": 51.0,
      "duration_beat": 0.23541666666666572,
      "velocity": 43,
      "track": 0
    },
    {
      "pitch": 80,
      "start_beat": 51.0,
      "duration_beat": 0.23541666666666572,
      "velocity": 43,
      "track": 0
    },
    {
      "pitch": 83,
      "start_beat": 51.0,
      "duration_beat": 0.23541666666666572,
      "velocity": 43,
      "track": 0
    },
    {
      "pitch": 76,
      "start_beat": 51.0,
      "duration_beat": 0.11770833333333286,
      "velocity": 33,
      "track": 0
    },
    {
      "pitch": 76,
      "start_beat": 51.0,
      "duration_beat": 0.125,
      "velocity": 13,
      "track": 0
    },
    {
      "pitch": 83,
      "start_beat": 51.125,
      "duration_beat": 0.11770833333333286,
      "velocity": 33,
      "track": 0
    },
    {
      "pitch": 88,
      "start_beat": 51.25,
      "duration_beat": 0.11770833333333286,
      "velocity": 33,
      "track": 0
    },
    {
      "pitch": 64,
      "start_beat": 51.25,
      "duration_beat": 0.24791666666666856,
      "velocity": 33,
      "track": 1
    },
    {
      "pitch": 64,
      "start_beat": 51.25,
      "duration_beat": 0.24791666666666856,
      "velocity": 43,
      "track": 1
    },
    {
      "pitch": 68,
      "start_beat": 51.25,
      "duration_beat": 0.24791666666666856,
      "velocity": 43,
      "track": 1
    },
    {
      "pitch": 71,
      "start_beat": 51.25,
      "duration_beat": 0.24791666666666856,
      "velocity": 43,
      "track": 1
    },
    {
      "pitch": 64,
      "start_beat": 51.25,
      "duration_beat": 0.12395833333333428,
      "velocity": 33,
      "track": 1
    },
    {
      "pitch": 64,
      "start_beat": 51.25,
      "duration_beat": 0.125,
      "velocity": 13,
      "track": 1
    },
    {
      "pitch": 71,
      "start_beat": 51.375,
      "duration_beat": 0.12395833333333428,
      "velocity": 33,
      "track": 1
    },
    {
      "pitch": 76,
      "start_beat": 51.5,
      "duration_beat": 0.12395833333333428,
      "velocity": 33,
      "track": 1
    },
    {
      "pitch": 76,
      "start_beat": 51.5,
      "duration_beat": 0.23541666666666572,
      "velocity": 33,
      "track": 1
    },
    {
      "pitch": 76,
      "start_beat": 51.5,
      "duration_beat": 0.23541666666666572,
      "velocity": 43,
      "track": 1
    },
    {
      "pitch": 80,
      "start_beat": 51.5,
      "duration_beat": 0.23541666666666572,
      "velocity": 43,
      "track": 1
    },
    {
      "pitch": 83,
      "start_beat": 51.5,
      "duration_beat": 0.23541666666666572,
      "velocity": 43,
      "track": 1
    },
    {
      "pitch": 76,
      "start_beat": 51.5,
      "duration_beat": 0.11770833333333286,
      "velocity": 33,
      "track": 1
    },
    {
      "pitch": 76,
      "start_beat": 51.5,
      "duration_beat": 0.125,
      "velocity": 13,
      "track": 1
    },
    {
      "pitch": 83,
      "start_beat": 51.625,
      "duration_beat": 0.11770833333333286,
      "velocity": 33,
      "track": 1
    },
    {
      "pitch": 88,
      "start_beat": 51.75,
      "duration_beat": 0.11770833333333286,
      "velocity": 33,
      "track": 1
    },
    {
      "pitch": 76,
      "start_beat": 51.75,
      "duration_beat": 0.24791666666666856,
      "velocity": 33,
      "track": 0
    },
    {
      "pitch": 76,
      "start_beat": 51.75,
      "duration_beat": 0.24791666666666856,
      "velocity": 43,
      "track": 0
    },
    {
      "pitch": 80,
      "start_beat": 51.75,
      "duration_beat": 0.24791666666666856,
      "velocity": 43,
      "track": 0
    },
    {
      "pitch": 83,
      "start_beat": 51.75,
      "duration_beat": 0.24791666666666856,
      "velocity": 43,
      "track": 0
    },
    {
      "pitch": 76,
      "start_beat": 51.75,
      "duration_beat": 0.12395833333333428,
      "velocity": 33,
      "track": 0
    },
    {
      "pitch": 76,
      "start_beat": 51.75,
      "duration_beat": 0.125,
      "velocity": 13,
      "track": 0
    },
    {
      "pitch": 83,
      "start_beat": 51.875,
      "duration_beat": 0.12395833333333428,
      "velocity": 33,
      "track": 0
    },
    {
      "pitch": 88,
      "start_beat": 52.0,
      "duration_beat": 0.12395833333333428,
      "velocity": 33,
      "track": 0
    },
    {
      "pitch": 88,
      "start_beat": 52.0,
      "duration_beat": 0.23541666666666572,
      "velocity": 33,
      "track": 0
    },
    {
      "pitch": 88,
      "start_beat": 52.0,
      "duration_beat": 0.23541666666666572,
      "velocity": 43,
      "track": 0
    },
    {
      "pitch": 92,
      "start_beat": 52.0,
      "duration_beat": 0.23541666666666572,
      "velocity": 43,
      "track": 0
    },
    {
      "pitch": 95,
      "start_beat": 52.0,
      "duration_beat": 0.23541666666666572,
      "velocity": 43,
      "track": 0
    },
    {
      "pitch": 88,
      "start_beat": 52.0,
      "duration_beat": 0.11770833333333286,
      "velocity": 33,
      "track": 0
    },
    {
      "pitch": 88,
      "start_beat": 52.0,
      "duration_beat": 0.125,
      "velocity": 13,
      "track": 0
    },
    {
      "pitch": 95,
      "start_beat": 52.125,
      "duration_beat": 0.11770833333333286,
      "velocity": 33,
      "track": 0
    },
    {
      "pitch": 100,
      "start_beat": 52.25,
      "duration_beat": 0.11770833333333286,
      "velocity": 33,
      "track": 0
    },
    {
      "pitch": 75,
      "start_beat": 52.25,
      "duration_beat": 0.24791666666666856,
      "velocity": 33,
      "track": 1
    },
    {
      "pitch": 75,
      "start_beat": 52.25,
      "duration_beat": 0.24791666666666856,
      "velocity": 43,
      "track": 1
    },
    {
      "pitch": 79,
      "start_beat": 52.25,
      "duration_beat": 0.24791666666666856,
      "velocity": 43,
      "track": 1
    },
    {
      "pitch": 82,
      "start_beat": 52.25,
      "duration_beat": 0.24791666666666856,
      "velocity": 43,
      "track": 1
    },
    {
      "pitch": 75,
      "start_beat": 52.25,
      "duration_beat": 0.12395833333333428,
      "velocity": 33,
      "track": 1
    },
    {
      "pitch": 75,
      "start_beat": 52.25,
      "duration_beat": 0.125,
      "velocity": 13,
      "track": 1
    },
    {
      "pitch": 82,
      "start_beat": 52.375,
      "duration_beat": 0.12395833333333428,
      "velocity": 33,
      "track": 1
    },
    {
      "pitch": 87,
      "start_beat": 52.5,
      "duration_beat": 0.12395833333333428,
      "velocity": 33,
      "track": 1
    },
    {
      "pitch": 76,
      "start_beat": 52.5,
      "duration_beat": 0.23541666666666572,
      "velocity": 33,
      "track": 1
    },
    {
      "pitch": 76,
      "start_beat": 52.5,
      "duration_beat": 0.23541666666666572,
      "velocity": 43,
      "track": 1
    },
    {
      "pitch": 80,
      "start_beat": 52.5,
      "duration_beat": 0.23541666666666572,
      "velocity": 43,
      "track": 1
    },
    {
      "pitch": 83,
      "start_beat": 52.5,
      "duration_beat": 0.23541666666666572,
      "velocity": 43,
      "track": 1
    },
    {
      "pitch": 76,
      "start_beat": 52.5,
      "duration_beat": 0.11770833333333286,
      "velocity": 33,
      "track": 1
    },
    {
      "pitch": 76,
      "start_beat": 52.5,
      "duration_beat": 0.125,
      "velocity": 13,
      "track": 1
    },
    {
      "pitch": 83,
      "start_beat": 52.625,
      "duration_beat": 0.11770833333333286,
      "velocity": 33,
      "track": 1
    },
    {
      "pitch": 88,
      "start_beat": 52.75,
      "duration_beat": 0.11770833333333286,
      "velocity": 33,
      "track": 1
    },
    {
      "pitch": 75,
      "start_beat": 52.75,
      "duration_beat": 0.24791666666666856,
      "velocity": 33,
      "track": 0
    },
    {
      "pitch": 75,
      "start_beat": 52.75,
      "duration_beat": 0.24791666666666856,
      "velocity": 43,
      "track": 0
    },
    {
      "pitch": 79,
      "start_beat": 52.75,
      "duration_beat": 0.24791666666666856,
      "velocity": 43,
      "track": 0
    },
    {
      "pitch": 82,
      "start_beat": 52.75,
      "duration_beat": 0.24791666666666856,
      "velocity": 43,
      "track": 0
    },
    {
      "pitch": 75,
      "start_beat": 52.75,
      "duration_beat": 0.12395833333333428,
      "velocity": 33,
      "track": 0
    },
    {
      "pitch": 75,
      "start_beat": 52.75,
      "duration_beat": 0.125,
      "velocity": 13,
      "track": 0
    },
    {
      "pitch": 82,
      "start_beat": 52.875,
      "duration_beat": 0.12395833333333428,
      "velocity": 33,
      "track": 0
    },
    {
      "pitch": 87,
      "start_beat": 53.0,
      "duration_beat": 0.12395833333333428,
      "velocity": 33,
      "track": 0
    },
    {
      "pitch": 76,
      "start_beat": 53.0,
      "duration_beat": 0.47291666666667,
      "velocity": 33,
      "track": 0
    },
    {
      "pitch": 76,
      "start_beat": 53.0,
      "duration_beat": 0.47291666666667,
      "velocity": 43,
      "track": 0
    },
    {
      "pitch": 80,
      "start_beat": 53.0,
      "duration_beat": 0.47291666666667,
      "velocity": 43,
      "track": 0
    },
    {
      "pitch": 83,
      "start_beat": 53.0,
      "duration_beat": 0.47291666666667,
      "velocity": 43,
      "track": 0
    },
    {
      "pitch": 76,
      "start_beat": 53.0,
      "duration_beat": 0.236458333333335,
      "velocity": 33,
      "track": 0
    },
    {
      "pitch": 76,
      "start_beat": 53.0,
      "duration_beat": 0.125,
      "velocity": 13,
      "track": 0
    },
    {
      "pitch": 83,
      "start_beat": 53.125,
      "duration_beat": 0.236458333333335,
      "velocity": 33,
      "track": 0
    },
    {
      "pitch": 88,
      "start_beat": 53.25,
      "duration_beat": 0.236458333333335,
      "velocity": 33,
      "track": 0
    },
    {
      "pitch": 76,
      "start_beat": 53.25,
      "duration_beat": 0.125,
      "velocity": 13,
      "track": 0
    },
    {
      "pitch": 75,
      "start_beat": 53.25,
      "duration_beat": 0.24791666666666856,
      "velocity": 33,
      "track": 1
    },
    {
      "pitch": 75,
      "start_beat": 53.25,
      "duration_beat": 0.24791666666666856,
      "velocity": 43,
      "track": 1
    },
    {
      "pitch": 79,
      "start_beat": 53.25,
      "duration_beat": 0.24791666666666856,
      "velocity": 43,
      "track": 1
    },
    {
      "pitch": 82,
      "start_beat": 53.25,
      "duration_beat": 0.24791666666666856,
      "velocity": 43,
      "track": 1
    },
    {
      "pitch": 75,
      "start_beat": 53.25,
      "duration_beat": 0.12395833333333428,
      "velocity": 33,
      "track": 1
    },
    {
      "pitch": 75,
      "start_beat": 53.25,
      "duration_beat": 0.125,
      "velocity": 13,
      "track": 1
    },
    {
      "pitch": 82,
      "start_beat": 53.375,
      "duration_beat": 0.12395833333333428,
      "velocity": 33,
      "track": 1
    },
    {
      "pitch": 87,
      "start_beat": 53.5,
      "duration_beat": 0.12395833333333428,
      "velocity": 33,
      "track": 1
    },
    {
      "pitch": 76,
      "start_beat": 53.5,
      "duration_beat": 0.23541666666666572,
      "velocity": 33,
      "track": 1
    },
    {
      "pitch": 76,
      "start_beat": 53.5,
      "duration_beat": 0.23541666666666572,
      "velocity": 43,
      "track": 1
    },
    {
      "pitch": 80,
      "start_beat": 53.5,
      "duration_beat": 0.23541666666666572,
      "velocity": 43,
      "track": 1
    },
    {
      "pitch": 83,
      "start_beat": 53.5,
      "duration_beat": 0.23541666666666572,
      "velocity": 43,
      "track": 1
    },
    {
      "pitch": 76,
      "start_beat": 53.5,
      "duration_beat": 0.11770833333333286,
      "velocity": 33,
      "track": 1
    },
    {
      "pitch": 76,
      "start_beat": 53.5,
      "duration_beat": 0.125,
      "velocity": 13,
      "track": 1
    },
    {
      "pitch": 83,
      "start_beat": 53.625,
      "duration_beat": 0.11770833333333286,
      "velocity": 33,
      "track": 1
    },
    {
      "pitch": 88,
      "start_beat": 53.75,
      "duration_beat": 0.11770833333333286,
      "velocity": 33,
      "track": 1
    },
    {
      "pitch": 75,
      "start_beat": 53.75,
      "duration_beat": 0.23541666666666572,
      "velocity": 33,
      "track": 0
    },
    {
      "pitch": 75,
      "start_beat": 53.75,
      "duration_beat": 0.23541666666666572,
      "velocity": 43,
      "track": 0
    },
    {
      "pitch": 79,
      "start_beat": 53.75,
      "duration_beat": 0.23541666666666572,
      "velocity": 43,
      "track": 0
    },
    {
      "pitch": 82,
      "start_beat": 53.75,
      "duration_beat": 0.23541666666666572,
      "velocity": 43,
      "track": 0
    },
    {
      "pitch": 75,
      "start_beat": 53.75,
      "duration_beat": 0.11770833333333286,
      "velocity": 33,
      "track": 0
    },
    {
      "pitch": 75,
      "start_beat": 53.75,
      "duration_beat": 0.125,
      "velocity": 13,
      "track": 0
    },
    {
      "pitch": 82,
      "start_beat": 53.875,
      "duration_beat": 0.11770833333333286,
      "velocity": 33,
      "track": 0
    },
    {
      "pitch": 87,
      "start_beat": 54.0,
      "duration_beat": 0.11770833333333286,
      "velocity": 33,
      "track": 0
    },
    {
      "pitch": 76,
      "start_beat": 54.0,
      "duration_beat": 0.23541666666666572,
      "velocity": 33,
      "track": 0
    },
    {
      "pitch": 76,
      "start_beat": 54.0,
      "duration_beat": 0.23541666666666572,
      "velocity": 43,
      "track": 0
    },
    {
      "pitch": 80,
      "start_beat": 54.0,
      "duration_beat": 0.23541666666666572,
      "velocity": 43,
      "track": 0
    },
    {
      "pitch": 83,
      "start_beat": 54.0,
      "duration_beat": 0.23541666666666572,
      "velocity": 43,
      "track": 0
    },
    {
      "pitch": 76,
      "start_beat": 54.0,
      "duration_beat": 0.11770833333333286,
      "velocity": 33,
      "track": 0
    },
    {
      "pitch": 76,
      "start_beat": 54.0,
      "duration_beat": 0.125,
      "velocity": 13,
      "track": 0
    },
    {
      "pitch": 83,
      "start_beat": 54.125,
      "duration_beat": 0.11770833333333286,
      "velocity": 33,
      "track": 0
    },
    {
      "pitch": 88,
      "start_beat": 54.25,
      "duration_beat": 0.11770833333333286,
      "velocity": 33,
      "track": 0
    },
    {
      "pitch": 75,
      "start_beat": 54.25,
      "duration_beat": 0.23541666666666572,
      "velocity": 33,
      "track": 0
    },
    {
      "pitch": 75,
      "start_beat": 54.25,
      "duration_beat": 0.23541666666666572,
      "velocity": 43,
      "track": 0
    },
    {
      "pitch": 79,
      "start_beat": 54.25,
      "duration_beat": 0.23541666666666572,
      "velocity": 43,
      "track": 0
    },
    {
      "pitch": 82,
      "start_beat": 54.25,
      "duration_beat": 0.23541666666666572,
      "velocity": 43,
      "track": 0
    },
    {
      "pitch": 75,
      "start_beat": 54.25,
      "duration_beat": 0.11770833333333286,
      "velocity": 33,
      "track": 0
    },
    {
      "pitch": 75,
      "start_beat": 54.25,
      "duration_beat": 0.125,
      "velocity": 13,
      "track": 0
    },
    {
      "pitch": 82,
      "start_beat": 54.375,
      "duration_beat": 0.11770833333333286,
      "velocity": 33,
      "track": 0
    },
    {
      "pitch": 87,
      "start_beat": 54.5,
      "duration_beat": 0.11770833333333286,
      "velocity": 33,
      "track": 0
    },
    {
      "pitch": 76,
      "start_beat": 54.5,
      "duration_beat": 0.23541666666666572,
      "velocity": 33,
      "track": 0
    },
    {
      "pitch": 76,
      "start_beat": 54.5,
      "duration_beat": 0.23541666666666572,
      "velocity": 43,
      "track": 0
    },
    {
      "pitch": 80,
      "start_beat": 54.5,
      "duration_beat": 0.23541666666666572,
      "velocity": 43,
      "track": 0
    },
    {
      "pitch": 83,
      "start_beat": 54.5,
      "duration_beat": 0.23541666666666572,
      "velocity": 43,
      "track": 0
    },
    {
      "pitch": 76,
      "start_beat": 54.5,
      "duration_beat": 0.11770833333333286,
      "velocity": 33,
      "track": 0
    },
    {
      "pitch": 76,
      "start_beat": 54.5,
      "duration_beat": 0.125,
      "velocity": 13,
      "track": 0
    },
    {
      "pitch": 83,
      "start_beat": 54.625,
      "duration_beat": 0.11770833333333286,
      "velocity": 33,
      "track": 0
    },
    {
      "pitch": 88,
      "start_beat": 54.75,
      "duration_beat": 0.11770833333333286,
      "velocity": 33,
      "track": 0
    },
    {
      "pitch": 75,
      "start_beat": 54.75,
      "duration_beat": 0.23541666666666572,
      "velocity": 33,
      "track": 0
    },
    {
      "pitch": 75,
      "start_beat": 54.75,
      "duration_beat": 0.23541666666666572,
      "velocity": 43,
      "track": 0
    },
    {
      "pitch": 79,
      "start_beat": 54.75,
      "duration_beat": 0.23541666666666572,
      "velocity": 43,
      "track": 0
    },
    {
      "pitch": 82,
      "start_beat": 54.75,
      "duration_beat": 0.23541666666666572,
      "velocity": 43,
      "track": 0
    },
    {
      "pitch": 75,
      "start_beat": 54.75,
      "duration_beat": 0.11770833333333286,
      "velocity": 33,
      "track": 0
    },
    {
      "pitch": 75,
      "start_beat": 54.75,
      "duration_beat": 0.125,
      "velocity": 13,
      "track": 0
    },
    {
      "pitch": 82,
      "start_beat": 54.875,
      "duration_beat": 0.11770833333333286,
      "velocity": 33,
      "track": 0
    },
    {
      "pitch": 87,
      "start_beat": 55.0,
      "duration_beat": 0.11770833333333286,
      "velocity": 33,
      "track": 0
    },
    {
      "pitch": 76,
      "start_beat": 55.0,
      "duration_beat": 0.23541666666666572,
      "velocity": 33,
      "track": 0
    },
    {
      "pitch": 76,
      "start_beat": 55.0,
      "duration_beat": 0.23541666666666572,
      "velocity": 43,
      "track": 0
    },
    {
      "pitch": 80,
      "start_beat": 55.0,
      "duration_beat": 0.23541666666666572,
      "velocity": 43,
      "track": 0
    },
    {
      "pitch": 83,
      "start_beat": 55.0,
      "duration_beat": 0.23541666666666572,
      "velocity": 43,
      "track": 0
    },
    {
      "pitch": 76,
      "start_beat": 55.0,
      "duration_beat": 0.11770833333333286,
      "velocity": 33,
      "track": 0
    },
    {
      "pitch": 76,
      "start_beat": 55.0,
      "duration_beat": 0.125,
      "velocity": 13,
      "track": 0
    },
    {
      "pitch": 83,
      "start_beat": 55.125,
      "duration_beat": 0.11770833333333286,
      "velocity": 33,
      "track": 0
    },
    {
      "pitch": 88,
      "start_beat": 55.25,
      "duration_beat": 0.11770833333333286,
      "velocity": 33,
      "track": 0
    },
    {
      "pitch": 71,
      "start_beat": 55.25,
      "duration_beat": 0.23541666666666572,
      "velocity": 33,
      "track": 0
    },
    {
      "pitch": 71,
      "start_beat": 55.25,
      "duration_beat": 0.23541666666666572,
      "velocity": 43,
      "track": 0
    },
    {
      "pitch": 75,
      "start_beat": 55.25,
      "duration_beat": 0.23541666666666572,
      "velocity": 43,
      "track": 0
    },
    {
      "pitch": 78,
      "start_beat": 55.25,
      "duration_beat": 0.23541666666666572,
      "velocity": 43,
      "track": 0
    },
    {
      "pitch": 71,
      "start_beat": 55.25,
      "duration_beat": 0.11770833333333286,
      "velocity": 33,
      "track": 0
    },
    {
      "pitch": 71,
      "start_beat": 55.25,
      "duration_beat": 0.125,
      "velocity": 13,
      "track": 0
    },
    {
      "pitch": 78,
      "start_beat": 55.375,
      "duration_beat": 0.11770833333333286,
      "velocity": 33,
      "track": 0
    },
    {
      "pitch": 83,
      "start_beat": 55.5,
      "duration_beat": 0.11770833333333286,
      "velocity": 33,
      "track": 0
    },
    {
      "pitch": 74,
      "start_beat": 55.5,
      "duration_beat": 0.23541666666666572,
      "velocity": 33,
      "track": 0
    },
    {
      "pitch": 74,
      "start_beat": 55.5,
      "duration_beat": 0.23541666666666572,
      "velocity": 43,
      "track": 0
    },
    {
      "pitch": 78,
      "start_beat": 55.5,
      "duration_beat": 0.23541666666666572,
      "velocity": 43,
      "track": 0
    },
    {
      "pitch": 81,
      "start_beat": 55.5,
      "duration_beat": 0.23541666666666572,
      "velocity": 43,
      "track": 0
    },
    {
      "pitch": 74,
      "start_beat": 55.5,
      "duration_beat": 0.11770833333333286,
      "velocity": 33,
      "track": 0
    },
    {
      "pitch": 74,
      "start_beat": 55.5,
      "duration_beat": 0.125,
      "velocity": 13,
      "track": 0
    },
    {
      "pitch": 81,
      "start_beat": 55.625,
      "duration_beat": 0.11770833333333286,
      "velocity": 33,
      "track": 0
    },
    {
      "pitch": 86,
      "start_beat": 55.75,
      "duration_beat": 0.11770833333333286,
      "velocity": 33,
      "track": 0
    },
    {
      "pitch": 72,
      "start_beat": 55.75,
      "duration_beat": 0.23541666666666572,
      "velocity": 33,
      "track": 0
    },
    {
      "pitch": 72,
      "start_beat": 55.75,
      "duration_beat": 0.23541666666666572,
      "velocity": 43,
      "track": 0
    },
    {
      "pitch": 76,
      "start_beat": 55.75,
      "duration_beat": 0.23541666666666572,
      "velocity": 43,
      "track": 0
    },
    {
      "pitch": 79,
      "start_beat": 55.75,
      "duration_beat": 0.23541666666666572,
      "velocity": 43,
      "track": 0
    },
    {
      "pitch": 72,
      "start_beat": 55.75,
      "duration_beat": 0.11770833333333286,
      "velocity": 33,
      "track": 0
    },
    {
      "pitch": 72,
      "start_beat": 55.75,
      "duration_beat": 0.125,
      "velocity": 13,
      "track": 0
    },
    {
      "pitch": 79,
      "start_beat": 55.875,
      "duration_beat": 0.11770833333333286,
      "velocity": 33,
      "track": 0
    },
    {
      "pitch": 84,
      "start_beat": 56.0,
      "duration_beat": 0.11770833333333286,
      "velocity": 33,
      "track": 0
    },
    {
      "pitch": 69,
      "start_beat": 56.0,
      "duration_beat": 0.47291666666667,
      "velocity": 33,
      "track": 0
    },
    {
      "pitch": 69,
      "start_beat": 56.0,
      "duration_beat": 0.47291666666667,
      "velocity": 43,
      "track": 0
    },
    {
      "pitch": 73,
      "start_beat": 56.0,
      "duration_beat": 0.47291666666667,
      "velocity": 43,
      "track": 0
    },
    {
      "pitch": 76,
      "start_beat": 56.0,
      "duration_beat": 0.47291666666667,
      "velocity": 43,
      "track": 0
    },
    {
      "pitch": 69,
      "start_beat": 56.0,
      "duration_beat": 0.236458333333335,
      "velocity": 33,
      "track": 0
    },
    {
      "pitch": 69,
      "start_beat": 56.0,
      "duration_beat": 0.125,
      "velocity": 13,
      "track": 0
    },
    {
      "pitch": 45,
      "start_beat": 56.0,
      "duration_beat": 0.23541666666666572,
      "velocity": 33,
      "track": 1
    },
    {
      "pitch": 45,
      "start_beat": 56.0,
      "duration_beat": 0.23541666666666572,
      "velocity": 43,
      "track": 1
    },
    {
      "pitch": 49,
      "start_beat": 56.0,
      "duration_beat": 0.23541666666666572,
      "velocity": 43,
      "track": 1
    },
    {
      "pitch": 52,
      "start_beat": 56.0,
      "duration_beat": 0.23541666666666572,
      "velocity": 43,
      "track": 1
    },
    {
      "pitch": 45,
      "start_beat": 56.0,
      "duration_beat": 0.11770833333333286,
      "velocity": 33,
      "track": 1
    },
    {
      "pitch": 45,
      "start_beat": 56.0,
      "duration_beat": 0.125,
      "velocity": 13,
      "track": 1
    },
    {
      "pitch": 76,
      "start_beat": 56.125,
      "duration_beat": 0.236458333333335,
      "velocity": 33,
      "track": 0
    },
    {
      "pitch": 52,
      "start_beat": 56.125,
      "duration_beat": 0.11770833333333286,
      "velocity": 33,
      "track": 1
    },
    {
      "pitch": 81,
      "start_beat": 56.25,
      "duration_beat": 0.236458333333335,
      "velocity": 33,
      "track": 0
    },
    {
      "pitch": 69,
      "start_beat": 56.25,
      "duration_beat": 0.125,
      "velocity": 13,
      "track": 0
    },
    {
      "pitch": 57,
      "start_beat": 56.25,
      "duration_beat": 0.11770833333333286,
      "velocity": 33,
      "track": 1
    },
    {
      "pitch": 52,
      "start_beat": 56.25,
      "duration_beat": 0.23541666666666572,
      "velocity": 33,
      "track": 1
    },
    {
      "pitch": 52,
      "start_beat": 56.25,
      "duration_beat": 0.23541666666666572,
      "velocity": 43,
      "track": 1
    },
    {
      "pitch": 56,
      "start_beat": 56.25,
      "duration_beat": 0.23541666666666572,
      "velocity": 43,
      "track": 1
    },
    {
      "pitch": 59,
      "start_beat": 56.25,
      "duration_beat": 0.23541666666666572,
      "velocity": 43,
      "track": 1
    },
    {
      "pitch": 52,
      "start_beat": 56.25,
      "duration_beat": 0.11770833333333286,
      "velocity": 33,
      "track": 1
    },
    {
      "pitch": 52,
      "start_beat": 56.25,
      "duration_beat": 0.125,
      "velocity": 13,
      "track": 1
    },
    {
      "pitch": 59,
      "start_beat": 56.375,
      "duration_beat": 0.11770833333333286,
      "velocity": 33,
      "track": 1
    },
    {
      "pitch": 64,
      "start_beat": 56.5,
      "duration_beat": 0.11770833333333286,
      "velocity": 33,
      "track": 1
    },
    {
      "pitch": 57,
      "start_beat": 56.5,
      "duration_beat": 0.23541666666666572,
      "velocity": 33,
      "track": 1
    },
    {
      "pitch": 57,
      "start_beat": 56.5,
      "duration_beat": 0.23541666666666572,
      "velocity": 43,
      "track": 1
    },
    {
      "pitch": 61,
      "start_beat": 56.5,
      "duration_beat": 0.23541666666666572,
      "velocity": 43,
      "track": 1
    },
    {
      "pitch": 64,
      "start_beat": 56.5,
      "duration_beat": 0.23541666666666572,
      "velocity": 43,
      "track": 1
    },
    {
      "pitch": 57,
      "start_beat": 56.5,
      "duration_beat": 0.11770833333333286,
      "velocity": 33,
      "track": 1
    },
    {
      "pitch": 57,
      "start_beat": 56.5,
      "duration_beat": 0.125,
      "velocity": 13,
      "track": 1
    },
    {
      "pitch": 64,
      "start_beat": 56.625,
      "duration_beat": 0.11770833333333286,
      "velocity": 33,
      "track": 1
    },
    {
      "pitch": 69,
      "start_beat": 56.75,
      "duration_beat": 0.11770833333333286,
      "velocity": 33,
      "track": 1
    },
    {
      "pitch": 60,
      "start_beat": 56.75,
      "duration_beat": 0.23541666666666572,
      "velocity": 33,
      "track": 0
    },
    {
      "pitch": 60,
      "start_beat": 56.75,
      "duration_beat": 0.23541666666666572,
      "velocity": 43,
      "track": 0
    },
    {
      "pitch": 64,
      "start_beat": 56.75,
      "duration_beat": 0.23541666666666572,
      "velocity": 43,
      "track": 0
    },
    {
      "pitch": 67,
      "start_beat": 56.75,
      "duration_beat": 0.23541666666666572,
      "velocity": 43,
      "track": 0
    },
    {
      "pitch": 60,
      "start_beat": 56.75,
      "duration_beat": 0.11770833333333286,
      "velocity": 33,
      "track": 0
    },
    {
      "pitch": 60,
      "start_beat": 56.75,
      "duration_beat": 0.125,
      "velocity": 13,
      "track": 0
    },
    {
      "pitch": 67,
      "start_beat": 56.875,
      "duration_beat": 0.11770833333333286,
      "velocity": 33,
      "track": 0
    },
    {
      "pitch": 72,
      "start_beat": 57.0,
      "duration_beat": 0.11770833333333286,
      "velocity": 33,
      "track": 0
    },
    {
      "pitch": 64,
      "start_beat": 57.0,
      "duration_beat": 0.23541666666666572,
      "velocity": 33,
      "track": 0
    },
    {
      "pitch": 64,
      "start_beat": 57.0,
      "duration_beat": 0.23541666666666572,
      "velocity": 43,
      "track": 0
    },
    {
      "pitch": 68,
      "start_beat": 57.0,
      "duration_beat": 0.23541666666666572,
      "velocity": 43,
      "track": 0
    },
    {
      "pitch": 71,
      "start_beat": 57.0,
      "duration_beat": 0.23541666666666572,
      "velocity": 43,
      "track": 0
    },
    {
      "pitch": 64,
      "start_beat": 57.0,
      "duration_beat": 0.11770833333333286,
      "velocity": 33,
      "track": 0
    },
    {
      "pitch": 64,
      "start_beat": 57.0,
      "duration_beat": 0.125,
      "velocity": 13,
      "track": 0
    },
    {
      "pitch": 71,
      "start_beat": 57.125,
      "duration_beat": 0.11770833333333286,
      "velocity": 33,
      "track": 0
    },
    {
      "pitch": 76,
      "start_beat": 57.25,
      "duration_beat": 0.11770833333333286,
      "velocity": 33,
      "track": 0
    },
    {
      "pitch": 69,
      "start_beat": 57.25,
      "duration_beat": 0.23541666666666572,
      "velocity": 33,
      "track": 0
    },
    {
      "pitch": 69,
      "start_beat": 57.25,
      "duration_beat": 0.23541666666666572,
      "velocity": 43,
      "track": 0
    },
    {
      "pitch": 73,
      "start_beat": 57.25,
      "duration_beat": 0.23541666666666572,
      "velocity": 43,
      "track": 0
    },
    {
      "pitch": 76,
      "start_beat": 57.25,
      "duration_beat": 0.23541666666666572,
      "velocity": 43,
      "track": 0
    },
    {
      "pitch": 69,
      "start_beat": 57.25,
      "duration_beat": 0.11770833333333286,
      "velocity": 33,
      "track": 0
    },
    {
      "pitch": 69,
      "start_beat": 57.25,
      "duration_beat": 0.125,
      "velocity": 13,
      "track": 0
    },
    {
      "pitch": 76,
      "start_beat": 57.375,
      "duration_beat": 0.11770833333333286,
      "velocity": 33,
      "track": 0
    },
    {
      "pitch": 81,
      "start_beat": 57.5,
      "duration_beat": 0.11770833333333286,
      "velocity": 33,
      "track": 0
    },
    {
      "pitch": 71,
      "start_beat": 57.5,
      "duration_beat": 0.47291666666667,
      "velocity": 33,
      "track": 0
    },
    {
      "pitch": 71,
      "start_beat": 57.5,
      "duration_beat": 0.47291666666667,
      "velocity": 43,
      "track": 0
    },
    {
      "pitch": 75,
      "start_beat": 57.5,
      "duration_beat": 0.47291666666667,
      "velocity": 43,
      "track": 0
    },
    {
      "pitch": 78,
      "start_beat": 57.5,
      "duration_beat": 0.47291666666667,
      "velocity": 43,
      "track": 0
    },
    {
      "pitch": 71,
      "start_beat": 57.5,
      "duration_beat": 0.236458333333335,
      "velocity": 33,
      "track": 0
    },
    {
      "pitch": 71,
      "start_beat": 57.5,
      "duration_beat": 0.125,
      "velocity": 13,
      "track": 0
    },
    {
      "pitch": 40,
      "start_beat": 57.5,
      "duration_beat": 0.23541666666666572,
      "velocity": 33,
      "track": 1
    },
    {
      "pitch": 40,
      "start_beat": 57.5,
      "duration_beat": 0.23541666666666572,
      "velocity": 43,
      "track": 1
    },
    {
      "pitch": 44,
      "start_beat": 57.5,
      "duration_beat": 0.23541666666666572,
      "velocity": 43,
      "track": 1
    },
    {
      "pitch": 47,
      "start_beat": 57.5,
      "duration_beat": 0.23541666666666572,
      "velocity": 43,
      "track": 1
    },
    {
      "pitch": 40,
      "start_beat": 57.5,
      "duration_beat": 0.11770833333333286,
      "velocity": 33,
      "track": 1
    },
    {
      "pitch": 40,
      "start_beat": 57.5,
      "duration_beat": 0.125,
      "velocity": 13,
      "track": 1
    },
    {
      "pitch": 78,
      "start_beat": 57.625,
      "duration_beat": 0.236458333333335,
      "velocity": 33,
      "track": 0
    },
    {
      "pitch": 47,
      "start_beat": 57.625,
      "duration_beat": 0.11770833333333286,
      "velocity": 33,
      "track": 1
    },
    {
      "pitch": 83,
      "start_beat": 57.75,
      "duration_beat": 0.236458333333335,
      "velocity": 33,
      "track": 0
    },
    {
      "pitch": 71,
      "start_beat": 57.75,
      "duration_beat": 0.125,
      "velocity": 13,
      "track": 0
    },
    {
      "pitch": 52,
      "start_beat": 57.75,
      "duration_beat": 0.11770833333333286,
      "velocity": 33,
      "track": 1
    },
    {
      "pitch": 52,
      "start_beat": 57.75,
      "duration_beat": 0.23541666666666572,
      "velocity": 33,
      "track": 1
    },
    {
      "pitch": 52,
      "start_beat": 57.75,
      "duration_beat": 0.23541666666666572,
      "velocity": 43,
      "track": 1
    },
    {
      "pitch": 56,
      "start_beat": 57.75,
      "duration_beat": 0.23541666666666572,
      "velocity": 43,
      "track": 1
    },
    {
      "pitch": 59,
      "start_beat": 57.75,
      "duration_beat": 0.23541666666666572,
      "velocity": 43,
      "track": 1
    },
    {
      "pitch": 52,
      "start_beat": 57.75,
      "duration_beat": 0.11770833333333286,
      "velocity": 33,
      "track": 1
    },
    {
      "pitch": 52,
      "start_beat": 57.75,
      "duration_beat": 0.125,
      "velocity": 13,
      "track": 1
    },
    {
      "pitch": 59,
      "start_beat": 57.875,
      "duration_beat": 0.11770833333333286,
      "velocity": 33,
      "track": 1
    },
    {
      "pitch": 64,
      "start_beat": 58.0,
      "duration_beat": 0.11770833333333286,
      "velocity": 33,
      "track": 1
    },
    {
      "pitch": 56,
      "start_beat": 58.0,
      "duration_beat": 0.23541666666666572,
      "velocity": 33,
      "track": 1
    },
    {
      "pitch": 56,
      "start_beat": 58.0,
      "duration_beat": 0.23541666666666572,
      "velocity": 43,
      "track": 1
    },
    {
      "pitch": 60,
      "start_beat": 58.0,
      "duration_beat": 0.23541666666666572,
      "velocity": 43,
      "track": 1
    },
    {
      "pitch": 63,
      "start_beat": 58.0,
      "duration_beat": 0.23541666666666572,
      "velocity": 43,
      "track": 1
    },
    {
      "pitch": 56,
      "start_beat": 58.0,
      "duration_beat": 0.11770833333333286,
      "velocity": 33,
      "track": 1
    },
    {
      "pitch": 56,
      "start_beat": 58.0,
      "duration_beat": 0.125,
      "velocity": 13,
      "track": 1
    },
    {
      "pitch": 63,
      "start_beat": 58.125,
      "duration_beat": 0.11770833333333286,
      "velocity": 33,
      "track": 1
    },
    {
      "pitch": 68,
      "start_beat": 58.25,
      "duration_beat": 0.11770833333333286,
      "velocity": 33,
      "track": 1
    },
    {
      "pitch": 64,
      "start_beat": 58.25,
      "duration_beat": 0.23541666666666572,
      "velocity": 33,
      "track": 0
    },
    {
      "pitch": 64,
      "start_beat": 58.25,
      "duration_beat": 0.23541666666666572,
      "velocity": 43,
      "track": 0
    },
    {
      "pitch": 68,
      "start_beat": 58.25,
      "duration_beat": 0.23541666666666572,
      "velocity": 43,
      "track": 0
    },
    {
      "pitch": 71,
      "start_beat": 58.25,
      "duration_beat": 0.23541666666666572,
      "velocity": 43,
      "track": 0
    },
    {
      "pitch": 64,
      "start_beat": 58.25,
      "duration_beat": 0.11770833333333286,
      "velocity": 33,
      "track": 0
    },
    {
      "pitch": 64,
      "start_beat": 58.25,
      "duration_beat": 0.125,
      "velocity": 13,
      "track": 0
    },
    {
      "pitch": 71,
      "start_beat": 58.375,
      "duration_beat": 0.11770833333333286,
      "velocity": 33,
      "track": 0
    },
    {
      "pitch": 76,
      "start_beat": 58.5,
      "duration_beat": 0.11770833333333286,
      "velocity": 33,
      "track": 0
    },
    {
      "pitch": 68,
      "start_beat": 58.5,
      "duration_beat": 0.23541666666666572,
      "velocity": 33,
      "track": 0
    },
    {
      "pitch": 68,
      "start_beat": 58.5,
      "duration_beat": 0.23541666666666572,
      "velocity": 43,
      "track": 0
    },
    {
      "pitch": 72,
      "start_beat": 58.5,
      "duration_beat": 0.23541666666666572,
      "velocity": 43,
      "track": 0
    },
    {
      "pitch": 75,
      "start_beat": 58.5,
      "duration_beat": 0.23541666666666572,
      "velocity": 43,
      "track": 0
    },
    {
      "pitch": 68,
      "start_beat": 58.5,
      "duration_beat": 0.11770833333333286,
      "velocity": 33,
      "track": 0
    },
    {
      "pitch": 68,
      "start_beat": 58.5,
      "duration_beat": 0.125,
      "velocity": 13,
      "track": 0
    },
    {
      "pitch": 75,
      "start_beat": 58.625,
      "duration_beat": 0.11770833333333286,
      "velocity": 33,
      "track": 0
    },
    {
      "pitch": 80,
      "start_beat": 58.75,
      "duration_beat": 0.11770833333333286,
      "velocity": 33,
      "track": 0
    },
    {
      "pitch": 71,
      "start_beat": 58.75,
      "duration_beat": 0.23541666666666572,
      "velocity": 33,
      "track": 0
    },
    {
      "pitch": 71,
      "start_beat": 58.75,
      "duration_beat": 0.23541666666666572,
      "velocity": 43,
      "track": 0
    },
    {
      "pitch": 75,
      "start_beat": 58.75,
      "duration_beat": 0.23541666666666572,
      "velocity": 43,
      "track": 0
    },
    {
      "pitch": 78,
      "start_beat": 58.75,
      "duration_beat": 0.23541666666666572,
      "velocity": 43,
      "track": 0
    },
    {
      "pitch": 71,
      "start_beat": 58.75,
      "duration_beat": 0.11770833333333286,
      "velocity": 33,
      "track": 0
    },
    {
      "pitch": 71,
      "start_beat": 58.75,
      "duration_beat": 0.125,
      "velocity": 13,
      "track": 0
    },
    {
      "pitch": 78,
      "start_beat": 58.875,
      "duration_beat": 0.11770833333333286,
      "velocity": 33,
      "track": 0
    },
    {
      "pitch": 83,
      "start_beat": 59.0,
      "duration_beat": 0.11770833333333286,
      "velocity": 33,
      "track": 0
    },
    {
      "pitch": 72,
      "start_beat": 59.0,
      "duration_beat": 0.47291666666667,
      "velocity": 33,
      "track": 0
    },
    {
      "pitch": 72,
      "start_beat": 59.0,
      "duration_beat": 0.47291666666667,
      "velocity": 43,
      "track": 0
    },
    {
      "pitch": 76,
      "start_beat": 59.0,
      "duration_beat": 0.47291666666667,
      "velocity": 43,
      "track": 0
    },
    {
      "pitch": 79,
      "start_beat": 59.0,
      "duration_beat": 0.47291666666667,
      "velocity": 43,
      "track": 0
    },
    {
      "pitch": 72,
      "start_beat": 59.0,
      "duration_beat": 0.236458333333335,
      "velocity": 33,
      "track": 0
    },
    {
      "pitch": 72,
      "start_beat": 59.0,
      "duration_beat": 0.125,
      "velocity": 13,
      "track": 0
    },
    {
      "pitch": 45,
      "start_beat": 59.0,
      "duration_beat": 0.23541666666666572,
      "velocity": 33,
      "track": 1
    },
    {
      "pitch": 45,
      "start_beat": 59.0,
      "duration_beat": 0.23541666666666572,
      "velocity": 43,
      "track": 1
    },
    {
      "pitch": 49,
      "start_beat": 59.0,
      "duration_beat": 0.23541666666666572,
      "velocity": 43,
      "track": 1
    },
    {
      "pitch": 52,
      "start_beat": 59.0,
      "duration_beat": 0.23541666666666572,
      "velocity": 43,
      "track": 1
    },
    {
      "pitch": 45,
      "start_beat": 59.0,
      "duration_beat": 0.11770833333333286,
      "velocity": 33,
      "track": 1
    },
    {
      "pitch": 45,
      "start_beat": 59.0,
      "duration_beat": 0.125,
      "velocity": 13,
      "track": 1
    },
    {
      "pitch": 79,
      "start_beat": 59.125,
      "duration_beat": 0.236458333333335,
      "velocity": 33,
      "track": 0
    },
    {
      "pitch": 52,
      "start_beat": 59.125,
      "duration_beat": 0.11770833333333286,
      "velocity": 33,
      "track": 1
    },
    {
      "pitch": 84,
      "start_beat": 59.25,
      "duration_beat": 0.236458333333335,
      "velocity": 33,
      "track": 0
    },
    {
      "pitch": 72,
      "start_beat": 59.25,
      "duration_beat": 0.125,
      "velocity": 13,
      "track": 0
    },
    {
      "pitch": 57,
      "start_beat": 59.25,
      "duration_beat": 0.11770833333333286,
      "velocity": 33,
      "track": 1
    },
    {
      "pitch": 52,
      "start_beat": 59.25,
      "duration_beat": 0.23541666666666572,
      "velocity": 33,
      "track": 1
    },
    {
      "pitch": 52,
      "start_beat": 59.25,
      "duration_beat": 0.23541666666666572,
      "velocity": 43,
      "track": 1
    },
    {
      "pitch": 56,
      "start_beat": 59.25,
      "duration_beat": 0.23541666666666572,
      "velocity": 43,
      "track": 1
    },
    {
      "pitch": 59,
      "start_beat": 59.25,
      "duration_beat": 0.23541666666666572,
      "velocity": 43,
      "track": 1
    },
    {
      "pitch": 52,
      "start_beat": 59.25,
      "duration_beat": 0.11770833333333286,
      "velocity": 33,
      "track": 1
    },
    {
      "pitch": 52,
      "start_beat": 59.25,
      "duration_beat": 0.125,
      "velocity": 13,
      "track": 1
    },
    {
      "pitch": 59,
      "start_beat": 59.375,
      "duration_beat": 0.11770833333333286,
      "velocity": 33,
      "track": 1
    },
    {
      "pitch": 64,
      "start_beat": 59.5,
      "duration_beat": 0.11770833333333286,
      "velocity": 33,
      "track": 1
    },
    {
      "pitch": 57,
      "start_beat": 59.5,
      "duration_beat": 0.23541666666666572,
      "velocity": 33,
      "track": 1
    },
    {
      "pitch": 57,
      "start_beat": 59.5,
      "duration_beat": 0.23541666666666572,
      "velocity": 43,
      "track": 1
    },
    {
      "pitch": 61,
      "start_beat": 59.5,
      "duration_beat": 0.23541666666666572,
      "velocity": 43,
      "track": 1
    },
    {
      "pitch": 64,
      "start_beat": 59.5,
      "duration_beat": 0.23541666666666572,
      "velocity": 43,
      "track": 1
    },
    {
      "pitch": 57,
      "start_beat": 59.5,
      "duration_beat": 0.11770833333333286,
      "velocity": 33,
      "track": 1
    },
    {
      "pitch": 57,
      "start_beat": 59.5,
      "duration_beat": 0.125,
      "velocity": 13,
      "track": 1
    },
    {
      "pitch": 64,
      "start_beat": 59.625,
      "duration_beat": 0.11770833333333286,
      "velocity": 33,
      "track": 1
    },
    {
      "pitch": 69,
      "start_beat": 59.75,
      "duration_beat": 0.11770833333333286,
      "velocity": 33,
      "track": 1
    },
    {
      "pitch": 64,
      "start_beat": 59.75,
      "duration_beat": 0.23541666666666572,
      "velocity": 33,
      "track": 0
    },
    {
      "pitch": 64,
      "start_beat": 59.75,
      "duration_beat": 0.23541666666666572,
      "velocity": 43,
      "track": 0
    },
    {
      "pitch": 68,
      "start_beat": 59.75,
      "duration_beat": 0.23541666666666572,
      "velocity": 43,
      "track": 0
    },
    {
      "pitch": 71,
      "start_beat": 59.75,
      "duration_beat": 0.23541666666666572,
      "velocity": 43,
      "track": 0
    },
    {
      "pitch": 64,
      "start_beat": 59.75,
      "duration_beat": 0.11770833333333286,
      "velocity": 33,
      "track": 0
    },
    {
      "pitch": 64,
      "start_beat": 59.75,
      "duration_beat": 0.125,
      "velocity": 13,
      "track": 0
    },
    {
      "pitch": 71,
      "start_beat": 59.875,
      "duration_beat": 0.11770833333333286,
      "velocity": 33,
      "track": 0
    },
    {
      "pitch": 76,
      "start_beat": 60.0,
      "duration_beat": 0.11770833333333286,
      "velocity": 33,
      "track": 0
    },
    {
      "pitch": 76,
      "start_beat": 60.0,
      "duration_beat": 0.23541666666666572,
      "velocity": 33,
      "track": 0
    },
    {
      "pitch": 76,
      "start_beat": 60.0,
      "duration_beat": 0.23541666666666572,
      "velocity": 43,
      "track": 0
    },
    {
      "pitch": 80,
      "start_beat": 60.0,
      "duration_beat": 0.23541666666666572,
      "velocity": 43,
      "track": 0
    },
    {
      "pitch": 83,
      "start_beat": 60.0,
      "duration_beat": 0.23541666666666572,
      "velocity": 43,
      "track": 0
    },
    {
      "pitch": 76,
      "start_beat": 60.0,
      "duration_beat": 0.11770833333333286,
      "velocity": 33,
      "track": 0
    },
    {
      "pitch": 76,
      "start_beat": 60.0,
      "duration_beat": 0.125,
      "velocity": 13,
      "track": 0
    },
    {
      "pitch": 83,
      "start_beat": 60.125,
      "duration_beat": 0.11770833333333286,
      "velocity": 33,
      "track": 0
    },
    {
      "pitch": 88,
      "start_beat": 60.25,
      "duration_beat": 0.11770833333333286,
      "velocity": 33,
      "track": 0
    },
    {
      "pitch": 75,
      "start_beat": 60.25,
      "duration_beat": 0.23541666666666572,
      "velocity": 33,
      "track": 0
    },
    {
      "pitch": 75,
      "start_beat": 60.25,
      "duration_beat": 0.23541666666666572,
      "velocity": 43,
      "track": 0
    },
    {
      "pitch": 79,
      "start_beat": 60.25,
      "duration_beat": 0.23541666666666572,
      "velocity": 43,
      "track": 0
    },
    {
      "pitch": 82,
      "start_beat": 60.25,
      "duration_beat": 0.23541666666666572,
      "velocity": 43,
      "track": 0
    },
    {
      "pitch": 75,
      "start_beat": 60.25,
      "duration_beat": 0.11770833333333286,
      "velocity": 33,
      "track": 0
    },
    {
      "pitch": 75,
      "start_beat": 60.25,
      "duration_beat": 0.125,
      "velocity": 13,
      "track": 0
    },
    {
      "pitch": 82,
      "start_beat": 60.375,
      "duration_beat": 0.11770833333333286,
      "velocity": 33,
      "track": 0
    },
    {
      "pitch": 87,
      "start_beat": 60.5,
      "duration_beat": 0.11770833333333286,
      "velocity": 33,
      "track": 0
    },
    {
      "pitch": 76,
      "start_beat": 60.5,
      "duration_beat": 0.23541666666666572,
      "velocity": 33,
      "track": 0
    },
    {
      "pitch": 76,
      "start_beat": 60.5,
      "duration_beat": 0.23541666666666572,
      "velocity": 43,
      "track": 0
    },
    {
      "pitch": 80,
      "start_beat": 60.5,
      "duration_beat": 0.23541666666666572,
      "velocity": 43,
      "track": 0
    },
    {
      "pitch": 83,
      "start_beat": 60.5,
      "duration_beat": 0.23541666666666572,
      "velocity": 43,
      "track": 0
    },
    {
      "pitch": 76,
      "start_beat": 60.5,
      "duration_beat": 0.11770833333333286,
      "velocity": 33,
      "track": 0
    },
    {
      "pitch": 76,
      "start_beat": 60.5,
      "duration_beat": 0.125,
      "velocity": 13,
      "track": 0
    },
    {
      "pitch": 83,
      "start_beat": 60.625,
      "duration_beat": 0.11770833333333286,
      "velocity": 33,
      "track": 0
    },
    {
      "pitch": 88,
      "start_beat": 60.75,
      "duration_beat": 0.11770833333333286,
      "velocity": 33,
      "track": 0
    },
    {
      "pitch": 75,
      "start_beat": 60.75,
      "duration_beat": 0.23541666666666572,
      "velocity": 33,
      "track": 0
    },
    {
      "pitch": 75,
      "start_beat": 60.75,
      "duration_beat": 0.23541666666666572,
      "velocity": 43,
      "track": 0
    },
    {
      "pitch": 79,
      "start_beat": 60.75,
      "duration_beat": 0.23541666666666572,
      "velocity": 43,
      "track": 0
    },
    {
      "pitch": 82,
      "start_beat": 60.75,
      "duration_beat": 0.23541666666666572,
      "velocity": 43,
      "track": 0
    },
    {
      "pitch": 75,
      "start_beat": 60.75,
      "duration_beat": 0.11770833333333286,
      "velocity": 33,
      "track": 0
    },
    {
      "pitch": 75,
      "start_beat": 60.75,
      "duration_beat": 0.125,
      "velocity": 13,
      "track": 0
    },
    {
      "pitch": 82,
      "start_beat": 60.875,
      "duration_beat": 0.11770833333333286,
      "velocity": 33,
      "track": 0
    },
    {
      "pitch": 87,
      "start_beat": 61.0,
      "duration_beat": 0.11770833333333286,
      "velocity": 33,
      "track": 0
    },
    {
      "pitch": 76,
      "start_beat": 61.0,
      "duration_beat": 0.23541666666666572,
      "velocity": 33,
      "track": 0
    },
    {
      "pitch": 76,
      "start_beat": 61.0,
      "duration_beat": 0.23541666666666572,
      "velocity": 43,
      "track": 0
    },
    {
      "pitch": 80,
      "start_beat": 61.0,
      "duration_beat": 0.23541666666666572,
      "velocity": 43,
      "track": 0
    },
    {
      "pitch": 83,
      "start_beat": 61.0,
      "duration_beat": 0.23541666666666572,
      "velocity": 43,
      "track": 0
    },
    {
      "pitch": 76,
      "start_beat": 61.0,
      "duration_beat": 0.11770833333333286,
      "velocity": 33,
      "track": 0
    },
    {
      "pitch": 76,
      "start_beat": 61.0,
      "duration_beat": 0.125,
      "velocity": 13,
      "track": 0
    },
    {
      "pitch": 83,
      "start_beat": 61.125,
      "duration_beat": 0.11770833333333286,
      "velocity": 33,
      "track": 0
    },
    {
      "pitch": 88,
      "start_beat": 61.25,
      "duration_beat": 0.11770833333333286,
      "velocity": 33,
      "track": 0
    },
    {
      "pitch": 71,
      "start_beat": 61.25,
      "duration_beat": 0.23541666666666572,
      "velocity": 33,
      "track": 0
    },
    {
      "pitch": 71,
      "start_beat": 61.25,
      "duration_beat": 0.23541666666666572,
      "velocity": 43,
      "track": 0
    },
    {
      "pitch": 75,
      "start_beat": 61.25,
      "duration_beat": 0.23541666666666572,
      "velocity": 43,
      "track": 0
    },
    {
      "pitch": 78,
      "start_beat": 61.25,
      "duration_beat": 0.23541666666666572,
      "velocity": 43,
      "track": 0
    },
    {
      "pitch": 71,
      "start_beat": 61.25,
      "duration_beat": 0.11770833333333286,
      "velocity": 33,
      "track": 0
    },
    {
      "pitch": 71,
      "start_beat": 61.25,
      "duration_beat": 0.125,
      "velocity": 13,
      "track": 0
    },
    {
      "pitch": 78,
      "start_beat": 61.375,
      "duration_beat": 0.11770833333333286,
      "velocity": 33,
      "track": 0
    },
    {
      "pitch": 83,
      "start_beat": 61.5,
      "duration_beat": 0.11770833333333286,
      "velocity": 33,
      "track": 0
    },
    {
      "pitch": 74,
      "start_beat": 61.5,
      "duration_beat": 0.23541666666666572,
      "velocity": 33,
      "track": 0
    },
    {
      "pitch": 74,
      "start_beat": 61.5,
      "duration_beat": 0.23541666666666572,
      "velocity": 43,
      "track": 0
    },
    {
      "pitch": 78,
      "start_beat": 61.5,
      "duration_beat": 0.23541666666666572,
      "velocity": 43,
      "track": 0
    },
    {
      "pitch": 81,
      "start_beat": 61.5,
      "duration_beat": 0.23541666666666572,
      "velocity": 43,
      "track": 0
    },
    {
      "pitch": 74,
      "start_beat": 61.5,
      "duration_beat": 0.11770833333333286,
      "velocity": 33,
      "track": 0
    },
    {
      "pitch": 74,
      "start_beat": 61.5,
      "duration_beat": 0.125,
      "velocity": 13,
      "track": 0
    },
    {
      "pitch": 81,
      "start_beat": 61.625,
      "duration_beat": 0.11770833333333286,
      "velocity": 33,
      "track": 0
    },
    {
      "pitch": 86,
      "start_beat": 61.75,
      "duration_beat": 0.11770833333333286,
      "velocity": 33,
      "track": 0
    },
    {
      "pitch": 72,
      "start_beat": 61.75,
      "duration_beat": 0.23541666666666572,
      "velocity": 33,
      "track": 0
    },
    {
      "pitch": 72,
      "start_beat": 61.75,
      "duration_beat": 0.23541666666666572,
      "velocity": 43,
      "track": 0
    },
    {
      "pitch": 76,
      "start_beat": 61.75,
      "duration_beat": 0.23541666666666572,
      "velocity": 43,
      "track": 0
    },
    {
      "pitch": 79,
      "start_beat": 61.75,
      "duration_beat": 0.23541666666666572,
      "velocity": 43,
      "track": 0
    },
    {
      "pitch": 72,
      "start_beat": 61.75,
      "duration_beat": 0.11770833333333286,
      "velocity": 33,
      "track": 0
    },
    {
      "pitch": 72,
      "start_beat": 61.75,
      "duration_beat": 0.125,
      "velocity": 13,
      "track": 0
    },
    {
      "pitch": 79,
      "start_beat": 61.875,
      "duration_beat": 0.11770833333333286,
      "velocity": 33,
      "track": 0
    },
    {
      "pitch": 84,
      "start_beat": 62.0,
      "duration_beat": 0.11770833333333286,
      "velocity": 33,
      "track": 0
    },
    {
      "pitch": 69,
      "start_beat": 62.0,
      "duration_beat": 0.47291666666667,
      "velocity": 33,
      "track": 0
    },
    {
      "pitch": 69,
      "start_beat": 62.0,
      "duration_beat": 0.47291666666667,
      "velocity": 43,
      "track": 0
    },
    {
      "pitch": 73,
      "start_beat": 62.0,
      "duration_beat": 0.47291666666667,
      "velocity": 43,
      "track": 0
    },
    {
      "pitch": 76,
      "start_beat": 62.0,
      "duration_beat": 0.47291666666667,
      "velocity": 43,
      "track": 0
    },
    {
      "pitch": 69,
      "start_beat": 62.0,
      "duration_beat": 0.236458333333335,
      "velocity": 33,
      "track": 0
    },
    {
      "pitch": 69,
      "start_beat": 62.0,
      "duration_beat": 0.125,
      "velocity": 13,
      "track": 0
    },
    {
      "pitch": 45,
      "start_beat": 62.0,
      "duration_beat": 0.23541666666666572,
      "velocity": 33,
      "track": 1
    },
    {
      "pitch": 45,
      "start_beat": 62.0,
      "duration_beat": 0.23541666666666572,
      "velocity": 43,
      "track": 1
    },
    {
      "pitch": 49,
      "start_beat": 62.0,
      "duration_beat": 0.23541666666666572,
      "velocity": 43,
      "track": 1
    },
    {
      "pitch": 52,
      "start_beat": 62.0,
      "duration_beat": 0.23541666666666572,
      "velocity": 43,
      "track": 1
    },
    {
      "pitch": 45,
      "start_beat": 62.0,
      "duration_beat": 0.11770833333333286,
      "velocity": 33,
      "track": 1
    },
    {
      "pitch": 45,
      "start_beat": 62.0,
      "duration_beat": 0.125,
      "velocity": 13,
      "track": 1
    },
    {
      "pitch": 76,
      "start_beat": 62.125,
      "duration_beat": 0.236458333333335,
      "velocity": 33,
      "track": 0
    },
    {
      "pitch": 52,
      "start_beat": 62.125,
      "duration_beat": 0.11770833333333286,
      "velocity": 33,
      "track": 1
    },
    {
      "pitch": 81,
      "start_beat": 62.25,
      "duration_beat": 0.236458333333335,
      "velocity": 33,
      "track": 0
    },
    {
      "pitch": 69,
      "start_beat": 62.25,
      "duration_beat": 0.125,
      "velocity": 13,
      "track": 0
    },
    {
      "pitch": 57,
      "start_beat": 62.25,
      "duration_beat": 0.11770833333333286,
      "velocity": 33,
      "track": 1
    },
    {
      "pitch": 52,
      "start_beat": 62.25,
      "duration_beat": 0.23541666666666572,
      "velocity": 33,
      "track": 1
    },
    {
      "pitch": 52,
      "start_beat": 62.25,
      "duration_beat": 0.23541666666666572,
      "velocity": 43,
      "track": 1
    },
    {
      "pitch": 56,
      "start_beat": 62.25,
      "duration_beat": 0.23541666666666572,
      "velocity": 43,
      "track": 1
    },
    {
      "pitch": 59,
      "start_beat": 62.25,
      "duration_beat": 0.23541666666666572,
      "velocity": 43,
      "track": 1
    },
    {
      "pitch": 52,
      "start_beat": 62.25,
      "duration_beat": 0.11770833333333286,
      "velocity": 33,
      "track": 1
    },
    {
      "pitch": 52,
      "start_beat": 62.25,
      "duration_beat": 0.125,
      "velocity": 13,
      "track": 1
    },
    {
      "pitch": 59,
      "start_beat": 62.375,
      "duration_beat": 0.11770833333333286,
      "velocity": 33,
      "track": 1
    },
    {
      "pitch": 64,
      "start_beat": 62.5,
      "duration_beat": 0.11770833333333286,
      "velocity": 33,
      "track": 1
    },
    {
      "pitch": 57,
      "start_beat": 62.5,
      "duration_beat": 0.23541666666666572,
      "velocity": 33,
      "track": 1
    },
    {
      "pitch": 57,
      "start_beat": 62.5,
      "duration_beat": 0.23541666666666572,
      "velocity": 43,
      "track": 1
    },
    {
      "pitch": 61,
      "start_beat": 62.5,
      "duration_beat": 0.23541666666666572,
      "velocity": 43,
      "track": 1
    },
    {
      "pitch": 64,
      "start_beat": 62.5,
      "duration_beat": 0.23541666666666572,
      "velocity": 43,
      "track": 1
    },
    {
      "pitch": 57,
      "start_beat": 62.5,
      "duration_beat": 0.11770833333333286,
      "velocity": 33,
      "track": 1
    },
    {
      "pitch": 57,
      "start_beat": 62.5,
      "duration_beat": 0.125,
      "velocity": 13,
      "track": 1
    },
    {
      "pitch": 64,
      "start_beat": 62.625,
      "duration_beat": 0.11770833333333286,
      "velocity": 33,
      "track": 1
    },
    {
      "pitch": 69,
      "start_beat": 62.75,
      "duration_beat": 0.11770833333333286,
      "velocity": 33,
      "track": 1
    },
    {
      "pitch": 60,
      "start_beat": 62.75,
      "duration_beat": 0.23541666666666572,
      "velocity": 33,
      "track": 0
    },
    {
      "pitch": 60,
      "start_beat": 62.75,
      "duration_beat": 0.23541666666666572,
      "velocity": 43,
      "track": 0
    },
    {
      "pitch": 64,
      "start_beat": 62.75,
      "duration_beat": 0.23541666666666572,
      "velocity": 43,
      "track": 0
    },
    {
      "pitch": 67,
      "start_beat": 62.75,
      "duration_beat": 0.23541666666666572,
      "velocity": 43,
      "track": 0
    },
    {
      "pitch": 60,
      "start_beat": 62.75,
      "duration_beat": 0.11770833333333286,
      "velocity": 33,
      "track": 0
    },
    {
      "pitch": 60,
      "start_beat": 62.75,
      "duration_beat": 0.125,
      "velocity": 13,
      "track": 0
    },
    {
      "pitch": 67,
      "start_beat": 62.875,
      "duration_beat": 0.11770833333333286,
      "velocity": 33,
      "track": 0
    },
    {
      "pitch": 72,
      "start_beat": 63.0,
      "duration_beat": 0.11770833333333286,
      "velocity": 33,
      "track": 0
    },
    {
      "pitch": 64,
      "start_beat": 63.0,
      "duration_beat": 0.23541666666666572,
      "velocity": 33,
      "track": 0
    },
    {
      "pitch": 64,
      "start_beat": 63.0,
      "duration_beat": 0.23541666666666572,
      "velocity": 43,
      "track": 0
    },
    {
      "pitch": 68,
      "start_beat": 63.0,
      "duration_beat": 0.23541666666666572,
      "velocity": 43,
      "track": 0
    },
    {
      "pitch": 71,
      "start_beat": 63.0,
      "duration_beat": 0.23541666666666572,
      "velocity": 43,
      "track": 0
    },
    {
      "pitch": 64,
      "start_beat": 63.0,
      "duration_beat": 0.11770833333333286,
      "velocity": 33,
      "track": 0
    },
    {
      "pitch": 64,
      "start_beat": 63.0,
      "duration_beat": 0.125,
      "velocity": 13,
      "track": 0
    },
    {
      "pitch": 71,
      "start_beat": 63.125,
      "duration_beat": 0.11770833333333286,
      "velocity": 33,
      "track": 0
    },
    {
      "pitch": 76,
      "start_beat": 63.25,
      "duration_beat": 0.11770833333333286,
      "velocity": 33,
      "track": 0
    },
    {
      "pitch": 69,
      "start_beat": 63.25,
      "duration_beat": 0.23541666666666572,
      "velocity": 33,
      "track": 0
    },
    {
      "pitch": 69,
      "start_beat": 63.25,
      "duration_beat": 0.23541666666666572,
      "velocity": 43,
      "track": 0
    },
    {
      "pitch": 73,
      "start_beat": 63.25,
      "duration_beat": 0.23541666666666572,
      "velocity": 43,
      "track": 0
    },
    {
      "pitch": 76,
      "start_beat": 63.25,
      "duration_beat": 0.23541666666666572,
      "velocity": 43,
      "track": 0
    },
    {
      "pitch": 69,
      "start_beat": 63.25,
      "duration_beat": 0.11770833333333286,
      "velocity": 33,
      "track": 0
    },
    {
      "pitch": 69,
      "start_beat": 63.25,
      "duration_beat": 0.125,
      "velocity": 13,
      "track": 0
    },
    {
      "pitch": 76,
      "start_beat": 63.375,
      "duration_beat": 0.11770833333333286,
      "velocity": 33,
      "track": 0
    },
    {
      "pitch": 81,
      "start_beat": 63.5,
      "duration_beat": 0.11770833333333286,
      "velocity": 33,
      "track": 0
    },
    {
      "pitch": 71,
      "start_beat": 63.5,
      "duration_beat": 0.47291666666667,
      "velocity": 33,
      "track": 0
    },
    {
      "pitch": 71,
      "start_beat": 63.5,
      "duration_beat": 0.47291666666667,
      "velocity": 43,
      "track": 0
    },
    {
      "pitch": 75,
      "start_beat": 63.5,
      "duration_beat": 0.47291666666667,
      "velocity": 43,
      "track": 0
    },
    {
      "pitch": 78,
      "start_beat": 63.5,
      "duration_beat": 0.47291666666667,
      "velocity": 43,
      "track": 0
    },
    {
      "pitch": 71,
      "start_beat": 63.5,
      "duration_beat": 0.236458333333335,
      "velocity": 33,
      "track": 0
    },
    {
      "pitch": 71,
      "start_beat": 63.5,
      "duration_beat": 0.125,
      "velocity": 13,
      "track": 0
    },
    {
      "pitch": 40,
      "start_beat": 63.5,
      "duration_beat": 0.23541666666666572,
      "velocity": 33,
      "track": 1
    },
    {
      "pitch": 40,
      "start_beat": 63.5,
      "duration_beat": 0.23541666666666572,
      "velocity": 43,
      "track": 1
    },
    {
      "pitch": 44,
      "start_beat": 63.5,
      "duration_beat": 0.23541666666666572,
      "velocity": 43,
      "track": 1
    },
    {
      "pitch": 47,
      "start_beat": 63.5,
      "duration_beat": 0.23541666666666572,
      "velocity": 43,
      "track": 1
    },
    {
      "pitch": 40,
      "start_beat": 63.5,
      "duration_beat": 0.11770833333333286,
      "velocity": 33,
      "track": 1
    },
    {
      "pitch": 40,
      "start_beat": 63.5,
      "duration_beat": 0.125,
      "velocity": 13,
      "track": 1
    },
    {
      "pitch": 78,
      "start_beat": 63.625,
      "duration_beat": 0.236458333333335,
      "velocity": 33,
      "track": 0
    },
    {
      "pitch": 47,
      "start_beat": 63.625,
      "duration_beat": 0.11770833333333286,
      "velocity": 33,
      "track": 1
    },
    {
      "pitch": 83,
      "start_beat": 63.75,
      "duration_beat": 0.236458333333335,
      "velocity": 33,
      "track": 0
    },
    {
      "pitch": 71,
      "start_beat": 63.75,
      "duration_beat": 0.125,
      "velocity": 13,
      "track": 0
    },
    {
      "pitch": 52,
      "start_beat": 63.75,
      "duration_beat": 0.11770833333333286,
      "velocity": 33,
      "track": 1
    },
    {
      "pitch": 52,
      "start_beat": 63.75,
      "duration_beat": 0.23541666666666572,
      "velocity": 33,
      "track": 1
    },
    {
      "pitch": 52,
      "start_beat": 63.75,
      "duration_beat": 0.23541666666666572,
      "velocity": 43,
      "track": 1
    },
    {
      "pitch": 56,
      "start_beat": 63.75,
      "duration_beat": 0.23541666666666572,
      "velocity": 43,
      "track": 1
    },
    {
      "pitch": 59,
      "start_beat": 63.75,
      "duration_beat": 0.23541666666666572,
      "velocity": 43,
      "track": 1
    },
    {
      "pitch": 52,
      "start_beat": 63.75,
      "duration_beat": 0.11770833333333286,
      "velocity": 33,
      "track": 1
    },
    {
      "pitch": 52,
      "start_beat": 63.75,
      "duration_beat": 0.125,
      "velocity": 13,
      "track": 1
    },
    {
      "pitch": 59,
      "start_beat": 63.875,
      "duration_beat": 0.11770833333333286,
      "velocity": 33,
      "track": 1
    },
    {
      "pitch": 64,
      "start_beat": 64.0,
      "duration_beat": 0.11770833333333286,
      "velocity": 33,
      "track": 1
    },
    {
      "pitch": 56,
      "start_beat": 64.0,
      "duration_beat": 0.23541666666666572,
      "velocity": 33,
      "track": 1
    },
    {
      "pitch": 56,
      "start_beat": 64.0,
      "duration_beat": 0.23541666666666572,
      "velocity": 43,
      "track": 1
    },
    {
      "pitch": 60,
      "start_beat": 64.0,
      "duration_beat": 0.23541666666666572,
      "velocity": 43,
      "track": 1
    },
    {
      "pitch": 63,
      "start_beat": 64.0,
      "duration_beat": 0.23541666666666572,
      "velocity": 43,
      "track": 1
    },
    {
      "pitch": 56,
      "start_beat": 64.0,
      "duration_beat": 0.11770833333333286,
      "velocity": 33,
      "track": 1
    },
    {
      "pitch": 56,
      "start_beat": 64.0,
      "duration_beat": 0.125,
      "velocity": 13,
      "track": 1
    },
    {
      "pitch": 63,
      "start_beat": 64.125,
      "duration_beat": 0.11770833333333286,
      "velocity": 33,
      "track": 1
    },
    {
      "pitch": 68,
      "start_beat": 64.25,
      "duration_beat": 0.11770833333333286,
      "velocity": 33,
      "track": 1
    },
    {
      "pitch": 62,
      "start_beat": 64.25,
      "duration_beat": 0.23541666666666572,
      "velocity": 33,
      "track": 0
    },
    {
      "pitch": 62,
      "start_beat": 64.25,
      "duration_beat": 0.23541666666666572,
      "velocity": 43,
      "track": 0
    },
    {
      "pitch": 66,
      "start_beat": 64.25,
      "duration_beat": 0.23541666666666572,
      "velocity": 43,
      "track": 0
    },
    {
      "pitch": 69,
      "start_beat": 64.25,
      "duration_beat": 0.23541666666666572,
      "velocity": 43,
      "track": 0
    },
    {
      "pitch": 62,
      "start_beat": 64.25,
      "duration_beat": 0.11770833333333286,
      "velocity": 33,
      "track": 0
    },
    {
      "pitch": 62,
      "start_beat": 64.25,
      "duration_beat": 0.125,
      "velocity": 13,
      "track": 0
    },
    {
      "pitch": 69,
      "start_beat": 64.375,
      "duration_beat": 0.11770833333333286,
      "velocity": 33,
      "track": 0
    },
    {
      "pitch": 74,
      "start_beat": 64.5,
      "duration_beat": 0.11770833333333286,
      "velocity": 33,
      "track": 0
    },
    {
      "pitch": 72,
      "start_beat": 64.5,
      "duration_beat": 0.23541666666666572,
      "velocity": 33,
      "track": 0
    },
    {
      "pitch": 72,
      "start_beat": 64.5,
      "duration_beat": 0.23541666666666572,
      "velocity": 43,
      "track": 0
    },
    {
      "pitch": 76,
      "start_beat": 64.5,
      "duration_beat": 0.23541666666666572,
      "velocity": 43,
      "track": 0
    },
    {
      "pitch": 79,
      "start_beat": 64.5,
      "duration_beat": 0.23541666666666572,
      "velocity": 43,
      "track": 0
    },
    {
      "pitch": 72,
      "start_beat": 64.5,
      "duration_beat": 0.11770833333333286,
      "velocity": 33,
      "track": 0
    },
    {
      "pitch": 72,
      "start_beat": 64.5,
      "duration_beat": 0.125,
      "velocity": 13,
      "track": 0
    },
    {
      "pitch": 79,
      "start_beat": 64.625,
      "duration_beat": 0.11770833333333286,
      "velocity": 33,
      "track": 0
    },
    {
      "pitch": 84,
      "start_beat": 64.75,
      "duration_beat": 0.11770833333333286,
      "velocity": 33,
      "track": 0
    },
    {
      "pitch": 71,
      "start_beat": 64.75,
      "duration_beat": 0.23541666666666572,
      "velocity": 33,
      "track": 0
    },
    {
      "pitch": 71,
      "start_beat": 64.75,
      "duration_beat": 0.23541666666666572,
      "velocity": 43,
      "track": 0
    },
    {
      "pitch": 75,
      "start_beat": 64.75,
      "duration_beat": 0.23541666666666572,
      "velocity": 43,
      "track": 0
    },
    {
      "pitch": 78,
      "start_beat": 64.75,
      "duration_beat": 0.23541666666666572,
      "velocity": 43,
      "track": 0
    },
    {
      "pitch": 71,
      "start_beat": 64.75,
      "duration_beat": 0.11770833333333286,
      "velocity": 33,
      "track": 0
    },
    {
      "pitch": 71,
      "start_beat": 64.75,
      "duration_beat": 0.125,
      "velocity": 13,
      "track": 0
    },
    {
      "pitch": 78,
      "start_beat": 64.875,
      "duration_beat": 0.11770833333333286,
      "velocity": 33,
      "track": 0
    },
    {
      "pitch": 83,
      "start_beat": 65.0,
      "duration_beat": 0.11770833333333286,
      "velocity": 33,
      "track": 0
    },
    {
      "pitch": 69,
      "start_beat": 65.0,
      "duration_beat": 0.23541666666666572,
      "velocity": 33,
      "track": 0
    },
    {
      "pitch": 69,
      "start_beat": 65.0,
      "duration_beat": 0.23541666666666572,
      "velocity": 43,
      "track": 0
    },
    {
      "pitch": 73,
      "start_beat": 65.0,
      "duration_beat": 0.23541666666666572,
      "velocity": 43,
      "track": 0
    },
    {
      "pitch": 76,
      "start_beat": 65.0,
      "duration_beat": 0.23541666666666572,
      "velocity": 43,
      "track": 0
    },
    {
      "pitch": 69,
      "start_beat": 65.0,
      "duration_beat": 0.11770833333333286,
      "velocity": 33,
      "track": 0
    },
    {
      "pitch": 69,
      "start_beat": 65.0,
      "duration_beat": 0.125,
      "velocity": 13,
      "track": 0
    },
    {
      "pitch": 45,
      "start_beat": 65.0,
      "duration_beat": 0.23541666666666572,
      "velocity": 33,
      "track": 1
    },
    {
      "pitch": 45,
      "start_beat": 65.0,
      "duration_beat": 0.23541666666666572,
      "velocity": 43,
      "track": 1
    },
    {
      "pitch": 49,
      "start_beat": 65.0,
      "duration_beat": 0.23541666666666572,
      "velocity": 43,
      "track": 1
    },
    {
      "pitch": 52,
      "start_beat": 65.0,
      "duration_beat": 0.23541666666666572,
      "velocity": 43,
      "track": 1
    },
    {
      "pitch": 45,
      "start_beat": 65.0,
      "duration_beat": 0.11770833333333286,
      "velocity": 33,
      "track": 1
    },
    {
      "pitch": 45,
      "start_beat": 65.0,
      "duration_beat": 0.125,
      "velocity": 13,
      "track": 1
    },
    {
      "pitch": 76,
      "start_beat": 65.125,
      "duration_beat": 0.11770833333333286,
      "velocity": 33,
      "track": 0
    },
    {
      "pitch": 52,
      "start_beat": 65.125,
      "duration_beat": 0.11770833333333286,
      "velocity": 33,
      "track": 1
    },
    {
      "pitch": 81,
      "start_beat": 65.25,
      "duration_beat": 0.11770833333333286,
      "velocity": 33,
      "track": 0
    },
    {
      "pitch": 57,
      "start_beat": 65.25,
      "duration_beat": 0.11770833333333286,
      "velocity": 33,
      "track": 1
    },
    {
      "pitch": 52,
      "start_beat": 65.25,
      "duration_beat": 0.23541666666666572,
      "velocity": 33,
      "track": 1
    },
    {
      "pitch": 52,
      "start_beat": 65.25,
      "duration_beat": 0.23541666666666572,
      "velocity": 43,
      "track": 1
    },
    {
      "pitch": 56,
      "start_beat": 65.25,
      "duration_beat": 0.23541666666666572,
      "velocity": 43,
      "track": 1
    },
    {
      "pitch": 59,
      "start_beat": 65.25,
      "duration_beat": 0.23541666666666572,
      "velocity": 43,
      "track": 1
    },
    {
      "pitch": 52,
      "start_beat": 65.25,
      "duration_beat": 0.11770833333333286,
      "velocity": 33,
      "track": 1
    },
    {
      "pitch": 52,
      "start_beat": 65.25,
      "duration_beat": 0.125,
      "velocity": 13,
      "track": 1
    },
    {
      "pitch": 59,
      "start_beat": 65.375,
      "duration_beat": 0.11770833333333286,
      "velocity": 33,
      "track": 1
    },
    {
      "pitch": 64,
      "start_beat": 65.5,
      "duration_beat": 0.11770833333333286,
      "velocity": 33,
      "track": 1
    },
    {
      "pitch": 57,
      "start_beat": 65.5,
      "duration_beat": 0.23541666666666572,
      "velocity": 33,
      "track": 1
    },
    {
      "pitch": 57,
      "start_beat": 65.5,
      "duration_beat": 0.23541666666666572,
      "velocity": 43,
      "track": 1
    },
    {
      "pitch": 61,
      "start_beat": 65.5,
      "duration_beat": 0.23541666666666572,
      "velocity": 43,
      "track": 1
    },
    {
      "pitch": 64,
      "start_beat": 65.5,
      "duration_beat": 0.23541666666666572,
      "velocity": 43,
      "track": 1
    },
    {
      "pitch": 57,
      "start_beat": 65.5,
      "duration_beat": 0.11770833333333286,
      "velocity": 33,
      "track": 1
    },
    {
      "pitch": 57,
      "start_beat": 65.5,
      "duration_beat": 0.125,
      "velocity": 13,
      "track": 1
    },
    {
      "pitch": 64,
      "start_beat": 65.625,
      "duration_beat": 0.11770833333333286,
      "velocity": 33,
      "track": 1
    },
    {
      "pitch": 69,
      "start_beat": 65.75,
      "duration_beat": 0.11770833333333286,
      "velocity": 33,
      "track": 1
    },
    {
      "pitch": 64,
      "start_beat": 65.75,
      "duration_beat": 0.23541666666666572,
      "velocity": 33,
      "track": 0
    },
    {
      "pitch": 64,
      "start_beat": 65.75,
      "duration_beat": 0.23541666666666572,
      "velocity": 43,
      "track": 0
    },
    {
      "pitch": 68,
      "start_beat": 65.75,
      "duration_beat": 0.23541666666666572,
      "velocity": 43,
      "track": 0
    },
    {
      "pitch": 71,
      "start_beat": 65.75,
      "duration_beat": 0.23541666666666572,
      "velocity": 43,
      "track": 0
    },
    {
      "pitch": 64,
      "start_beat": 65.75,
      "duration_beat": 0.11770833333333286,
      "velocity": 33,
      "track": 0
    },
    {
      "pitch": 64,
      "start_beat": 65.75,
      "duration_beat": 0.125,
      "velocity": 13,
      "track": 0
    },
    {
      "pitch": 72,
      "start_beat": 65.75,
      "duration_beat": 0.23541666666666572,
      "velocity": 33,
      "track": 0
    },
    {
      "pitch": 72,
      "start_beat": 65.75,
      "duration_beat": 0.23541666666666572,
      "velocity": 43,
      "track": 0
    },
    {
      "pitch": 76,
      "start_beat": 65.75,
      "duration_beat": 0.23541666666666572,
      "velocity": 43,
      "track": 0
    },
    {
      "pitch": 79,
      "start_beat": 65.75,
      "duration_beat": 0.23541666666666572,
      "velocity": 43,
      "track": 0
    },
    {
      "pitch": 72,
      "start_beat": 65.75,
      "duration_beat": 0.11770833333333286,
      "velocity": 33,
      "track": 0
    },
    {
      "pitch": 72,
      "start_beat": 65.75,
      "duration_beat": 0.125,
      "velocity": 13,
      "track": 0
    },
    {
      "pitch": 58,
      "start_beat": 65.75,
      "duration_beat": 0.23541666666666572,
      "velocity": 33,
      "track": 1
    },
    {
      "pitch": 58,
      "start_beat": 65.75,
      "duration_beat": 0.23541666666666572,
      "velocity": 43,
      "track": 1
    },
    {
      "pitch": 62,
      "start_beat": 65.75,
      "duration_beat": 0.23541666666666572,
      "velocity": 43,
      "track": 1
    },
    {
      "pitch": 65,
      "start_beat": 65.75,
      "duration_beat": 0.23541666666666572,
      "velocity": 43,
      "track": 1
    },
    {
      "pitch": 58,
      "start_beat": 65.75,
      "duration_beat": 0.11770833333333286,
      "velocity": 33,
      "track": 1
    },
    {
      "pitch": 58,
      "start_beat": 65.75,
      "duration_beat": 0.125,
      "velocity": 13,
      "track": 1
    },
    {
      "pitch": 60,
      "start_beat": 65.75,
      "duration_beat": 0.23541666666666572,
      "velocity": 33,
      "track": 1
    },
    {
      "pitch": 60,
      "start_beat": 65.75,
      "duration_beat": 0.23541666666666572,
      "velocity": 43,
      "track": 1
    },
    {
      "pitch": 64,
      "start_beat": 65.75,
      "duration_beat": 0.23541666666666572,
      "velocity": 43,
      "track": 1
    },
    {
      "pitch": 67,
      "start_beat": 65.75,
      "duration_beat": 0.23541666666666572,
      "velocity": 43,
      "track": 1
    },
    {
      "pitch": 60,
      "start_beat": 65.75,
      "duration_beat": 0.11770833333333286,
      "velocity": 33,
      "track": 1
    },
    {
      "pitch": 60,
      "start_beat": 65.75,
      "duration_beat": 0.125,
      "velocity": 13,
      "track": 1
    },
    {
      "pitch": 71,
      "start_beat": 65.875,
      "duration_beat": 0.11770833333333286,
      "velocity": 33,
      "track": 0
    },
    {
      "pitch": 79,
      "start_beat": 65.875,
      "duration_beat": 0.11770833333333286,
      "velocity": 33,
      "track": 0
    },
    {
      "pitch": 65,
      "start_beat": 65.875,
      "duration_beat": 0.11770833333333286,
      "velocity": 33,
      "track": 1
    },
    {
      "pitch": 67,
      "start_beat": 65.875,
      "duration_beat": 0.11770833333333286,
      "velocity": 33,
      "track": 1
    },
    {
      "pitch": 76,
      "start_beat": 66.0,
      "duration_beat": 0.11770833333333286,
      "velocity": 33,
      "track": 0
    },
    {
      "pitch": 84,
      "start_beat": 66.0,
      "duration_beat": 0.11770833333333286,
      "velocity": 33,
      "track": 0
    },
    {
      "pitch": 70,
      "start_beat": 66.0,
      "duration_beat": 0.11770833333333286,
      "velocity": 33,
      "track": 1
    },
    {
      "pitch": 72,
      "start_beat": 66.0,
      "duration_beat": 0.11770833333333286,
      "velocity": 33,
      "track": 1
    },
    {
      "pitch": 65,
      "start_beat": 66.0,
      "duration_beat": 0.23541666666666572,
      "velocity": 33,
      "track": 0
    },
    {
      "pitch": 65,
      "start_beat": 66.0,
      "duration_beat": 0.23541666666666572,
      "velocity": 43,
      "track": 0
    },
    {
      "pitch": 69,
      "start_beat": 66.0,
      "duration_beat": 0.23541666666666572,
      "velocity": 43,
      "track": 0
    },
    {
      "pitch": 72,
      "start_beat": 66.0,
      "duration_beat": 0.23541666666666572,
      "velocity": 43,
      "track": 0
    },
    {
      "pitch": 65,
      "start_beat": 66.0,
      "duration_beat": 0.11770833333333286,
      "velocity": 33,
      "track": 0
    },
    {
      "pitch": 65,
      "start_beat": 66.0,
      "duration_beat": 0.125,
      "velocity": 13,
      "track": 0
    },
    {
      "pitch": 72,
      "start_beat": 66.0,
      "duration_beat": 0.23541666666666572,
      "velocity": 33,
      "track": 0
    },
    {
      "pitch": 72,
      "start_beat": 66.0,
      "duration_beat": 0.23541666666666572,
      "velocity": 43,
      "track": 0
    },
    {
      "pitch": 76,
      "start_beat": 66.0,
      "duration_beat": 0.23541666666666572,
      "velocity": 43,
      "track": 0
    },
    {
      "pitch": 79,
      "start_beat": 66.0,
      "duration_beat": 0.23541666666666572,
      "velocity": 43,
      "track": 0
    },
    {
      "pitch": 72,
      "start_beat": 66.0,
      "duration_beat": 0.11770833333333286,
      "velocity": 33,
      "track": 0
    },
    {
      "pitch": 72,
      "start_beat": 66.0,
      "duration_beat": 0.125,
      "velocity": 13,
      "track": 0
    },
    {
      "pitch": 57,
      "start_beat": 66.0,
      "duration_beat": 0.23541666666666572,
      "velocity": 33,
      "track": 1
    },
    {
      "pitch": 57,
      "start_beat": 66.0,
      "duration_beat": 0.23541666666666572,
      "velocity": 43,
      "track": 1
    },
    {
      "pitch": 61,
      "start_beat": 66.0,
      "duration_beat": 0.23541666666666572,
      "velocity": 43,
      "track": 1
    },
    {
      "pitch": 64,
      "start_beat": 66.0,
      "duration_beat": 0.23541666666666572,
      "velocity": 43,
      "track": 1
    },
    {
      "pitch": 57,
      "start_beat": 66.0,
      "duration_beat": 0.11770833333333286,
      "velocity": 33,
      "track": 1
    },
    {
      "pitch": 57,
      "start_beat": 66.0,
      "duration_beat": 0.125,
      "velocity": 13,
      "track": 1
    },
    {
      "pitch": 60,
      "start_beat": 66.0,
      "duration_beat": 0.23541666666666572,
      "velocity": 33,
      "track": 1
    },
    {
      "pitch": 60,
      "start_beat": 66.0,
      "duration_beat": 0.23541666666666572,
      "velocity": 43,
      "track": 1
    },
    {
      "pitch": 64,
      "start_beat": 66.0,
      "duration_beat": 0.23541666666666572,
      "velocity": 43,
      "track": 1
    },
    {
      "pitch": 67,
      "start_beat": 66.0,
      "duration_beat": 0.23541666666666572,
      "velocity": 43,
      "track": 1
    },
    {
      "pitch": 60,
      "start_beat": 66.0,
      "duration_beat": 0.11770833333333286,
      "velocity": 33,
      "track": 1
    },
    {
      "pitch": 60,
      "start_beat": 66.0,
      "duration_beat": 0.125,
      "velocity": 13,
      "track": 1
    },
    {
      "pitch": 72,
      "start_beat": 66.125,
      "duration_beat": 0.11770833333333286,
      "velocity": 33,
      "track": 0
    },
    {
      "pitch": 79,
      "start_beat": 66.125,
      "duration_beat": 0.11770833333333286,
      "velocity": 33,
      "track": 0
    },
    {
      "pitch": 64,
      "start_beat": 66.125,
      "duration_beat": 0.11770833333333286,
      "velocity": 33,
      "track": 1
    },
    {
      "pitch": 67,
      "start_beat": 66.125,
      "duration_beat": 0.11770833333333286,
      "velocity": 33,
      "track": 1
    },
    {
      "pitch": 77,
      "start_beat": 66.25,
      "duration_beat": 0.11770833333333286,
      "velocity": 33,
      "track": 0
    },
    {
      "pitch": 84,
      "start_beat": 66.25,
      "duration_beat": 0.11770833333333286,
      "velocity": 33,
      "track": 0
    },
    {
      "pitch": 69,
      "start_beat": 66.25,
      "duration_beat": 0.11770833333333286,
      "velocity": 33,
      "track": 1
    },
    {
      "pitch": 72,
      "start_beat": 66.25,
      "duration_beat": 0.11770833333333286,
      "velocity": 33,
      "track": 1
    },
    {
      "pitch": 64,
      "start_beat": 66.25,
      "duration_beat": 0.11666666666666003,
      "velocity": 33,
      "track": 0
    },
    {
      "pitch": 64,
      "start_beat": 66.25,
      "duration_beat": 0.11666666666666003,
      "velocity": 43,
      "track": 0
    },
    {
      "pitch": 68,
      "start_beat": 66.25,
      "duration_beat": 0.11666666666666003,
      "velocity": 43,
      "track": 0
    },
    {
      "pitch": 71,
      "start_beat": 66.25,
      "duration_beat": 0.11666666666666003,
      "velocity": 43,
      "track": 0
    },
    {
      "pitch": 64,
      "start_beat": 66.25,
      "duration_beat": 0.05833333333333002,
      "velocity": 33,
      "track": 0
    },
    {
      "pitch": 64,
      "start_beat": 66.25,
      "duration_beat": 0.125,
      "velocity": 13,
      "track": 0
    },
    {
      "pitch": 67,
      "start_beat": 66.25,
      "duration_beat": 0.11666666666666003,
      "velocity": 33,
      "track": 0
    },
    {
      "pitch": 67,
      "start_beat": 66.25,
      "duration_beat": 0.11666666666666003,
      "velocity": 43,
      "track": 0
    },
    {
      "pitch": 71,
      "start_beat": 66.25,
      "duration_beat": 0.11666666666666003,
      "velocity": 43,
      "track": 0
    },
    {
      "pitch": 74,
      "start_beat": 66.25,
      "duration_beat": 0.11666666666666003,
      "velocity": 43,
      "track": 0
    },
    {
      "pitch": 67,
      "start_beat": 66.25,
      "duration_beat": 0.05833333333333002,
      "velocity": 33,
      "track": 0
    },
    {
      "pitch": 67,
      "start_beat": 66.25,
      "duration_beat": 0.125,
      "velocity": 13,
      "track": 0
    },
    {
      "pitch": 72,
      "start_beat": 66.25,
      "duration_beat": 0.11666666666666003,
      "velocity": 33,
      "track": 0
    },
    {
      "pitch": 72,
      "start_beat": 66.25,
      "duration_beat": 0.11666666666666003,
      "velocity": 43,
      "track": 0
    },
    {
      "pitch": 76,
      "start_beat": 66.25,
      "duration_beat": 0.11666666666666003,
      "velocity": 43,
      "track": 0
    },
    {
      "pitch": 79,
      "start_beat": 66.25,
      "duration_beat": 0.11666666666666003,
      "velocity": 43,
      "track": 0
    },
    {
      "pitch": 72,
      "start_beat": 66.25,
      "duration_beat": 0.05833333333333002,
      "velocity": 33,
      "track": 0
    },
    {
      "pitch": 72,
      "start_beat": 66.25,
      "duration_beat": 0.125,
      "velocity": 13,
      "track": 0
    },
    {
      "pitch": 55,
      "start_beat": 66.25,
      "duration_beat": 0.23541666666666572,
      "velocity": 33,
      "track": 1
    },
    {
      "pitch": 55,
      "start_beat": 66.25,
      "duration_beat": 0.23541666666666572,
      "velocity": 43,
      "track": 1
    },
    {
      "pitch": 59,
      "start_beat": 66.25,
      "duration_beat": 0.23541666666666572,
      "velocity": 43,
      "track": 1
    },
    {
      "pitch": 62,
      "start_beat": 66.25,
      "duration_beat": 0.23541666666666572,
      "velocity": 43,
      "track": 1
    },
    {
      "pitch": 55,
      "start_beat": 66.25,
      "duration_beat": 0.11770833333333286,
      "velocity": 33,
      "track": 1
    },
    {
      "pitch": 55,
      "start_beat": 66.25,
      "duration_beat": 0.125,
      "velocity": 13,
      "track": 1
    },
    {
      "pitch": 58,
      "start_beat": 66.25,
      "duration_beat": 0.23541666666666572,
      "velocity": 33,
      "track": 1
    },
    {
      "pitch": 58,
      "start_beat": 66.25,
      "duration_beat": 0.23541666666666572,
      "velocity": 43,
      "track": 1
    },
    {
      "pitch": 62,
      "start_beat": 66.25,
      "duration_beat": 0.23541666666666572,
      "velocity": 43,
      "track": 1
    },
    {
      "pitch": 65,
      "start_beat": 66.25,
      "duration_beat": 0.23541666666666572,
      "velocity": 43,
      "track": 1
    },
    {
      "pitch": 58,
      "start_beat": 66.25,
      "duration_beat": 0.11770833333333286,
      "velocity": 33,
      "track": 1
    },
    {
      "pitch": 58,
      "start_beat": 66.25,
      "duration_beat": 0.125,
      "velocity": 13,
      "track": 1
    },
    {
      "pitch": 60,
      "start_beat": 66.25,
      "duration_beat": 0.23541666666666572,
      "velocity": 33,
      "track": 1
    },
    {
      "pitch": 60,
      "start_beat": 66.25,
      "duration_beat": 0.23541666666666572,
      "velocity": 43,
      "track": 1
    },
    {
      "pitch": 64,
      "start_beat": 66.25,
      "duration_beat": 0.23541666666666572,
      "velocity": 43,
      "track": 1
    },
    {
      "pitch": 67,
      "start_beat": 66.25,
      "duration_beat": 0.23541666666666572,
      "velocity": 43,
      "track": 1
    },
    {
      "pitch": 60,
      "start_beat": 66.25,
      "duration_beat": 0.11770833333333286,
      "velocity": 33,
      "track": 1
    },
    {
      "pitch": 60,
      "start_beat": 66.25,
      "duration_beat": 0.125,
      "velocity": 13,
      "track": 1
    },
    {
      "pitch": 71,
      "start_beat": 66.375,
      "duration_beat": 0.05833333333333002,
      "velocity": 33,
      "track": 0
    },
    {
      "pitch": 74,
      "start_beat": 66.375,
      "duration_beat": 0.05833333333333002,
      "velocity": 33,
      "track": 0
    },
    {
      "pitch": 79,
      "start_beat": 66.375,
      "duration_beat": 0.05833333333333002,
      "velocity": 33,
      "track": 0
    },
    {
      "pitch": 62,
      "start_beat": 66.375,
      "duration_beat": 0.11770833333333286,
      "velocity": 33,
      "track": 1
    },
    {
      "pitch": 65,
      "start_beat": 66.375,
      "duration_beat": 0.11770833333333286,
      "velocity": 33,
      "track": 1
    },
    {
      "pitch": 67,
      "start_beat": 66.375,
      "duration_beat": 0.11770833333333286,
      "velocity": 33,
      "track": 1
    },
    {
      "pitch": 65,
      "start_beat": 66.375,
      "duration_beat": 0.06041666666666856,
      "velocity": 33,
      "track": 0
    },
    {
      "pitch": 65,
      "start_beat": 66.375,
      "duration_beat": 0.06041666666666856,
      "velocity": 43,
      "track": 0
    },
    {
      "pitch": 69,
      "start_beat": 66.375,
      "duration_beat": 0.06041666666666856,
      "velocity": 43,
      "track": 0
    },
    {
      "pitch": 72,
      "start_beat": 66.375,
      "duration_beat": 0.06041666666666856,
      "velocity": 43,
      "track": 0
    },
    {
      "pitch": 65,
      "start_beat": 66.375,
      "duration_beat": 0.03020833333333428,
      "velocity": 33,
      "track": 0
    },
    {
      "pitch": 65,
      "start_beat": 66.375,
      "duration_beat": 0.125,
      "velocity": 13,
      "track": 0
    },
    {
      "pitch": 69,
      "start_beat": 66.4375,
      "duration_beat": 0.06041666666666856,
      "velocity": 33,
      "track": 0
    },
    {
      "pitch": 69,
      "start_beat": 66.4375,
      "duration_beat": 0.06041666666666856,
      "velocity": 43,
      "track": 0
    },
    {
      "pitch": 73,
      "start_beat": 66.4375,
      "duration_beat": 0.06041666666666856,
      "velocity": 43,
      "track": 0
    },
    {
      "pitch": 76,
      "start_beat": 66.4375,
      "duration_beat": 0.06041666666666856,
      "velocity": 43,
      "track": 0
    },
    {
      "pitch": 69,
      "start_beat": 66.4375,
      "duration_beat": 0.03020833333333428,
      "velocity": 33,
      "track": 0
    },
    {
      "pitch": 69,
      "start_beat": 66.4375,
      "duration_beat": 0.125,
      "velocity": 13,
      "track": 0
    },
    {
      "pitch": 76,
      "start_beat": 66.5,
      "duration_beat": 0.05833333333333002,
      "velocity": 33,
      "track": 0
    },
    {
      "pitch": 79,
      "start_beat": 66.5,
      "duration_beat": 0.05833333333333002,
      "velocity": 33,
      "track": 0
    },
    {
      "pitch": 84,
      "start_beat": 66.5,
      "duration_beat": 0.05833333333333002,
      "velocity": 33,
      "track": 0
    },
    {
      "pitch": 67,
      "start_beat": 66.5,
      "duration_beat": 0.11770833333333286,
      "velocity": 33,
      "track": 1
    },
    {
      "pitch": 70,
      "start_beat": 66.5,
      "duration_beat": 0.11770833333333286,
      "velocity": 33,
      "track": 1
    },
    {
      "pitch": 72,
      "start_beat": 66.5,
      "duration_beat": 0.11770833333333286,
      "velocity": 33,
      "track": 1
    },
    {
      "pitch": 72,
      "start_beat": 66.5,
      "duration_beat": 0.03020833333333428,
      "velocity": 33,
      "track": 0
    },
    {
      "pitch": 72,
      "start_beat": 66.5,
      "duration_beat": 0.9479166666666714,
      "velocity": 33,
      "track": 0
    },
    {
      "pitch": 72,
      "start_beat": 66.5,
      "duration_beat": 0.9479166666666714,
      "velocity": 43,
      "track": 0
    },
    {
      "pitch": 76,
      "start_beat": 66.5,
      "duration_beat": 0.9479166666666714,
      "velocity": 43,
      "track": 0
    },
    {
      "pitch": 79,
      "start_beat": 66.5,
      "duration_beat": 0.9479166666666714,
      "velocity": 43,
      "track": 0
    },
    {
      "pitch": 72,
      "start_beat": 66.5,
      "duration_beat": 0.4739583333333357,
      "velocity": 33,
      "track": 0
    },
    {
      "pitch": 72,
      "start_beat": 66.5,
      "duration_beat": 0.125,
      "velocity": 13,
      "track": 0
    },
    {
      "pitch": 53,
      "start_beat": 66.5,
      "duration_beat": 0.23541666666666572,
      "velocity": 33,
      "track": 1
    },
    {
      "pitch": 53,
      "start_beat": 66.5,
      "duration_beat": 0.23541666666666572,
      "velocity": 43,
      "track": 1
    },
    {
      "pitch": 57,
      "start_beat": 66.5,
      "duration_beat": 0.23541666666666572,
      "velocity": 43,
      "track": 1
    },
    {
      "pitch": 60,
      "start_beat": 66.5,
      "duration_beat": 0.23541666666666572,
      "velocity": 43,
      "track": 1
    },
    {
      "pitch": 53,
      "start_beat": 66.5,
      "duration_beat": 0.11770833333333286,
      "velocity": 33,
      "track": 1
    },
    {
      "pitch": 53,
      "start_beat": 66.5,
      "duration_beat": 0.125,
      "velocity": 13,
      "track": 1
    },
    {
      "pitch": 76,
      "start_beat": 66.5625,
      "duration_beat": 0.03020833333333428,
      "velocity": 33,
      "track": 0
    },
    {
      "pitch": 77,
      "start_beat": 66.625,
      "duration_beat": 0.03020833333333428,
      "velocity": 33,
      "track": 0
    },
    {
      "pitch": 79,
      "start_beat": 66.625,
      "duration_beat": 0.4739583333333357,
      "velocity": 33,
      "track": 0
    },
    {
      "pitch": 60,
      "start_beat": 66.625,
      "duration_beat": 0.11770833333333286,
      "velocity": 33,
      "track": 1
    },
    {
      "pitch": 81,
      "start_beat": 66.6875,
      "duration_beat": 0.03020833333333428,
      "velocity": 33,
      "track": 0
    },
    {
      "pitch": 84,
      "start_beat": 66.75,
      "duration_beat": 0.4739583333333357,
      "velocity": 33,
      "track": 0
    },
    {
      "pitch": 72,
      "start_beat": 66.75,
      "duration_beat": 0.125,
      "velocity": 13,
      "track": 0
    },
    {
      "pitch": 65,
      "start_beat": 66.75,
      "duration_beat": 0.11770833333333286,
      "velocity": 33,
      "track": 1
    },
    {
      "pitch": 57,
      "start_beat": 66.75,
      "duration_beat": 0.23541666666666572,
      "velocity": 33,
      "track": 1
    },
    {
      "pitch": 57,
      "start_beat": 66.75,
      "duration_beat": 0.23541666666666572,
      "velocity": 43,
      "track": 1
    },
    {
      "pitch": 61,
      "start_beat": 66.75,
      "duration_beat": 0.23541666666666572,
      "velocity": 43,
      "track": 1
    },
    {
      "pitch": 64,
      "start_beat": 66.75,
      "duration_beat": 0.23541666666666572,
      "velocity": 43,
      "track": 1
    },
    {
      "pitch": 57,
      "start_beat": 66.75,
      "duration_beat": 0.11770833333333286,
      "velocity": 33,
      "track": 1
    },
    {
      "pitch": 57,
      "start_beat": 66.75,
      "duration_beat": 0.125,
      "velocity": 13,
      "track": 1
    },
    {
      "pitch": 64,
      "start_beat": 66.875,
      "duration_beat": 0.11770833333333286,
      "velocity": 33,
      "track": 1
    },
    {
      "pitch": 72,
      "start_beat": 67.0,
      "duration_beat": 0.125,
      "velocity": 13,
      "track": 0
    },
    {
      "pitch": 69,
      "start_beat": 67.0,
      "duration_beat": 0.11770833333333286,
      "velocity": 33,
      "track": 1
    },
    {
      "pitch": 60,
      "start_beat": 67.0,
      "duration_beat": 0.23541666666666572,
      "velocity": 33,
      "track": 1
    },
    {
      "pitch": 60,
      "start_beat": 67.0,
      "duration_beat": 0.23541666666666572,
      "velocity": 43,
      "track": 1
    },
    {
      "pitch": 64,
      "start_beat": 67.0,
      "duration_beat": 0.23541666666666572,
      "velocity": 43,
      "track": 1
    },
    {
      "pitch": 67,
      "start_beat": 67.0,
      "duration_beat": 0.23541666666666572,
      "velocity": 43,
      "track": 1
    },
    {
      "pitch": 60,
      "start_beat": 67.0,
      "duration_beat": 0.11770833333333286,
      "velocity": 33,
      "track": 1
    },
    {
      "pitch": 60,
      "start_beat": 67.0,
      "duration_beat": 0.125,
      "velocity": 13,
      "track": 1
    },
    {
      "pitch": 67,
      "start_beat": 67.125,
      "duration_beat": 0.11770833333333286,
      "velocity": 33,
      "track": 1
    },
    {
      "pitch": 72,
      "start_beat": 67.25,
      "duration_beat": 0.125,
      "velocity": 13,
      "track": 0
    },
    {
      "pitch": 72,
      "start_beat": 67.25,
      "duration_beat": 0.11770833333333286,
      "velocity": 33,
      "track": 1
    },
    {
      "pitch": 57,
      "start_beat": 67.25,
      "duration_beat": 0.23541666666666572,
      "velocity": 33,
      "track": 1
    },
    {
      "pitch": 57,
      "start_beat": 67.25,
      "duration_beat": 0.23541666666666572,
      "velocity": 43,
      "track": 1
    },
    {
      "pitch": 61,
      "start_beat": 67.25,
      "duration_beat": 0.23541666666666572,
      "velocity": 43,
      "track": 1
    },
    {
      "pitch": 64,
      "start_beat": 67.25,
      "duration_beat": 0.23541666666666572,
      "velocity": 43,
      "track": 1
    },
    {
      "pitch": 57,
      "start_beat": 67.25,
      "duration_beat": 0.11770833333333286,
      "velocity": 33,
      "track": 1
    },
    {
      "pitch": 57,
      "start_beat": 67.25,
      "duration_beat": 0.125,
      "velocity": 13,
      "track": 1
    },
    {
      "pitch": 64,
      "start_beat": 67.375,
      "duration_beat": 0.11770833333333286,
      "velocity": 33,
      "track": 1
    },
    {
      "pitch": 69,
      "start_beat": 67.5,
      "duration_beat": 0.11770833333333286,
      "velocity": 33,
      "track": 1
    },
    {
      "pitch": 77,
      "start_beat": 67.5,
      "duration_beat": 0.3541666666666714,
      "velocity": 33,
      "track": 0
    },
    {
      "pitch": 77,
      "start_beat": 67.5,
      "duration_beat": 0.3541666666666714,
      "velocity": 43,
      "track": 0
    },
    {
      "pitch": 81,
      "start_beat": 67.5,
      "duration_beat": 0.3541666666666714,
      "velocity": 43,
      "track": 0
    },
    {
      "pitch": 84,
      "start_beat": 67.5,
      "duration_beat": 0.3541666666666714,
      "velocity": 43,
      "track": 0
    },
    {
      "pitch": 77,
      "start_beat": 67.5,
      "duration_beat": 0.1770833333333357,
      "velocity": 33,
      "track": 0
    },
    {
      "pitch": 77,
      "start_beat": 67.5,
      "duration_beat": 0.125,
      "velocity": 13,
      "track": 0
    },
    {
      "pitch": 60,
      "start_beat": 67.5,
      "duration_beat": 0.23541666666666572,
      "velocity": 33,
      "track": 1
    },
    {
      "pitch": 60,
      "start_beat": 67.5,
      "duration_beat": 0.23541666666666572,
      "velocity": 43,
      "track": 1
    },
    {
      "pitch": 64,
      "start_beat": 67.5,
      "duration_beat": 0.23541666666666572,
      "velocity": 43,
      "track": 1
    },
    {
      "pitch": 67,
      "start_beat": 67.5,
      "duration_beat": 0.23541666666666572,
      "velocity": 43,
      "track": 1
    },
    {
      "pitch": 60,
      "start_beat": 67.5,
      "duration_beat": 0.11770833333333286,
      "velocity": 33,
      "track": 1
    },
    {
      "pitch": 60,
      "start_beat": 67.5,
      "duration_beat": 0.125,
      "velocity": 13,
      "track": 1
    },
    {
      "pitch": 84,
      "start_beat": 67.625,
      "duration_beat": 0.1770833333333357,
      "velocity": 33,
      "track": 0
    },
    {
      "pitch": 67,
      "start_beat": 67.625,
      "duration_beat": 0.11770833333333286,
      "velocity": 33,
      "track": 1
    },
    {
      "pitch": 89,
      "start_beat": 67.75,
      "duration_beat": 0.1770833333333357,
      "velocity": 33,
      "track": 0
    },
    {
      "pitch": 77,
      "start_beat": 67.75,
      "duration_beat": 0.125,
      "velocity": 13,
      "track": 0
    },
    {
      "pitch": 72,
      "start_beat": 67.75,
      "duration_beat": 0.11770833333333286,
      "velocity": 33,
      "track": 1
    },
    {
      "pitch": 57,
      "start_beat": 67.75,
      "duration_beat": 0.23541666666666572,
      "velocity": 33,
      "track": 1
    },
    {
      "pitch": 57,
      "start_beat": 67.75,
      "duration_beat": 0.23541666666666572,
      "velocity": 43,
      "track": 1
    },
    {
      "pitch": 61,
      "start_beat": 67.75,
      "duration_beat": 0.23541666666666572,
      "velocity": 43,
      "track": 1
    },
    {
      "pitch": 64,
      "start_beat": 67.75,
      "duration_beat": 0.23541666666666572,
      "velocity": 43,
      "track": 1
    },
    {
      "pitch": 57,
      "start_beat": 67.75,
      "duration_beat": 0.11770833333333286,
      "velocity": 33,
      "track": 1
    },
    {
      "pitch": 57,
      "start_beat": 67.75,
      "duration_beat": 0.125,
      "velocity": 13,
      "track": 1
    },
    {
      "pitch": 64,
      "start_beat": 67.875,
      "duration_beat": 0.11770833333333286,
      "velocity": 33,
      "track": 1
    },
    {
      "pitch": 76,
      "start_beat": 67.875,
      "duration_beat": 0.11666666666666003,
      "velocity": 33,
      "track": 0
    },
    {
      "pitch": 76,
      "start_beat": 67.875,
      "duration_beat": 0.11666666666666003,
      "velocity": 43,
      "track": 0
    },
    {
      "pitch": 80,
      "start_beat": 67.875,
      "duration_beat": 0.11666666666666003,
      "velocity": 43,
      "track": 0
    },
    {
      "pitch": 83,
      "start_beat": 67.875,
      "duration_beat": 0.11666666666666003,
      "velocity": 43,
      "track": 0
    },
    {
      "pitch": 76,
      "start_beat": 67.875,
      "duration_beat": 0.05833333333333002,
      "velocity": 33,
      "track": 0
    },
    {
      "pitch": 76,
      "start_beat": 67.875,
      "duration_beat": 0.125,
      "velocity": 13,
      "track": 0
    },
    {
      "pitch": 69,
      "start_beat": 68.0,
      "duration_beat": 0.11770833333333286,
      "velocity": 33,
      "track": 1
    },
    {
      "pitch": 83,
      "start_beat": 68.0,
      "duration_beat": 0.05833333333333002,
      "velocity": 33,
      "track": 0
    },
    {
      "pitch": 76,
      "start_beat": 68.0,
      "duration_beat": 0.49791666666666856,
      "velocity": 33,
      "track": 0
    },
    {
      "pitch": 76,
      "start_beat": 68.0,
      "duration_beat": 0.49791666666666856,
      "velocity": 43,
      "track": 0
    },
    {
      "pitch": 80,
      "start_beat": 68.0,
      "duration_beat": 0.49791666666666856,
      "velocity": 43,
      "track": 0
    },
    {
      "pitch": 83,
      "start_beat": 68.0,
      "duration_beat": 0.49791666666666856,
      "velocity": 43,
      "track": 0
    },
    {
      "pitch": 76,
      "start_beat": 68.0,
      "duration_beat": 0.24895833333333428,
      "velocity": 33,
      "track": 0
    },
    {
      "pitch": 76,
      "start_beat": 68.0,
      "duration_beat": 0.125,
      "velocity": 13,
      "track": 0
    },
    {
      "pitch": 53,
      "start_beat": 68.0,
      "duration_beat": 0.23541666666666572,
      "velocity": 33,
      "track": 1
    },
    {
      "pitch": 53,
      "start_beat": 68.0,
      "duration_beat": 0.23541666666666572,
      "velocity": 43,
      "track": 1
    },
    {
      "pitch": 57,
      "start_beat": 68.0,
      "duration_beat": 0.23541666666666572,
      "velocity": 43,
      "track": 1
    },
    {
      "pitch": 60,
      "start_beat": 68.0,
      "duration_beat": 0.23541666666666572,
      "velocity": 43,
      "track": 1
    },
    {
      "pitch": 53,
      "start_beat": 68.0,
      "duration_beat": 0.11770833333333286,
      "velocity": 33,
      "track": 1
    },
    {
      "pitch": 53,
      "start_beat": 68.0,
      "duration_beat": 0.125,
      "velocity": 13,
      "track": 1
    },
    {
      "pitch": 88,
      "start_beat": 68.125,
      "duration_beat": 0.05833333333333002,
      "velocity": 33,
      "track": 0
    },
    {
      "pitch": 83,
      "start_beat": 68.125,
      "duration_beat": 0.24895833333333428,
      "velocity": 33,
      "track": 0
    },
    {
      "pitch": 60,
      "start_beat": 68.125,
      "duration_beat": 0.11770833333333286,
      "velocity": 33,
      "track": 1
    },
    {
      "pitch": 88,
      "start_beat": 68.25,
      "duration_beat": 0.24895833333333428,
      "velocity": 33,
      "track": 0
    },
    {
      "pitch": 76,
      "start_beat": 68.25,
      "duration_beat": 0.125,
      "velocity": 13,
      "track": 0
    },
    {
      "pitch": 65,
      "start_beat": 68.25,
      "duration_beat": 0.11770833333333286,
      "velocity": 33,
      "track": 1
    },
    {
      "pitch": 58,
      "start_beat": 68.25,
      "duration_beat": 0.23541666666666572,
      "velocity": 33,
      "track": 1
    },
    {
      "pitch": 58,
      "start_beat": 68.25,
      "duration_beat": 0.23541666666666572,
      "velocity": 43,
      "track": 1
    },
    {
      "pitch": 62,
      "start_beat": 68.25,
      "duration_beat": 0.23541666666666572,
      "velocity": 43,
      "track": 1
    },
    {
      "pitch": 65,
      "start_beat": 68.25,
      "duration_beat": 0.23541666666666572,
      "velocity": 43,
      "track": 1
    },
    {
      "pitch": 58,
      "start_beat": 68.25,
      "duration_beat": 0.11770833333333286,
      "velocity": 33,
      "track": 1
    },
    {
      "pitch": 58,
      "start_beat": 68.25,
      "duration_beat": 0.125,
      "velocity": 13,
      "track": 1
    },
    {
      "pitch": 65,
      "start_beat": 68.375,
      "duration_beat": 0.11770833333333286,
      "velocity": 33,
      "track": 1
    },
    {
      "pitch": 70,
      "start_beat": 68.5,
      "duration_beat": 0.11770833333333286,
      "velocity": 33,
      "track": 1
    },
    {
      "pitch": 74,
      "start_beat": 68.5,
      "duration_beat": 0.4729166666666629,
      "velocity": 33,
      "track": 0
    },
    {
      "pitch": 74,
      "start_beat": 68.5,
      "duration_beat": 0.4729166666666629,
      "velocity": 43,
      "track": 0
    },
    {
      "pitch": 78,
      "start_beat": 68.5,
      "duration_beat": 0.4729166666666629,
      "velocity": 43,
      "track": 0
    },
    {
      "pitch": 81,
      "start_beat": 68.5,
      "duration_beat": 0.4729166666666629,
      "velocity": 43,
      "track": 0
    },
    {
      "pitch": 74,
      "start_beat": 68.5,
      "duration_beat": 0.23645833333333144,
      "velocity": 33,
      "track": 0
    },
    {
      "pitch": 74,
      "start_beat": 68.5,
      "duration_beat": 0.125,
      "velocity": 13,
      "track": 0
    },
    {
      "pitch": 62,
      "start_beat": 68.5,
      "duration_beat": 0.23541666666666572,
      "velocity": 33,
      "track": 1
    },
    {
      "pitch": 62,
      "start_beat": 68.5,
      "duration_beat": 0.23541666666666572,
      "velocity": 43,
      "track": 1
    },
    {
      "pitch": 66,
      "start_beat": 68.5,
      "duration_beat": 0.23541666666666572,
      "velocity": 43,
      "track": 1
    },
    {
      "pitch": 69,
      "start_beat": 68.5,
      "duration_beat": 0.23541666666666572,
      "velocity": 43,
      "track": 1
    },
    {
      "pitch": 62,
      "start_beat": 68.5,
      "duration_beat": 0.11770833333333286,
      "velocity": 33,
      "track": 1
    },
    {
      "pitch": 62,
      "start_beat": 68.5,
      "duration_beat": 0.125,
      "velocity": 13,
      "track": 1
    },
    {
      "pitch": 81,
      "start_beat": 68.625,
      "duration_beat": 0.23645833333333144,
      "velocity": 33,
      "track": 0
    },
    {
      "pitch": 69,
      "start_beat": 68.625,
      "duration_beat": 0.11770833333333286,
      "velocity": 33,
      "track": 1
    },
    {
      "pitch": 86,
      "start_beat": 68.75,
      "duration_beat": 0.23645833333333144,
      "velocity": 33,
      "track": 0
    },
    {
      "pitch": 74,
      "start_beat": 68.75,
      "duration_beat": 0.125,
      "velocity": 13,
      "track": 0
    },
    {
      "pitch": 74,
      "start_beat": 68.75,
      "duration_beat": 0.11770833333333286,
      "velocity": 33,
      "track": 1
    },
    {
      "pitch": 58,
      "start_beat": 68.75,
      "duration_beat": 0.23541666666666572,
      "velocity": 33,
      "track": 1
    },
    {
      "pitch": 58,
      "start_beat": 68.75,
      "duration_beat": 0.23541666666666572,
      "velocity": 43,
      "track": 1
    },
    {
      "pitch": 62,
      "start_beat": 68.75,
      "duration_beat": 0.23541666666666572,
      "velocity": 43,
      "track": 1
    },
    {
      "pitch": 65,
      "start_beat": 68.75,
      "duration_beat": 0.23541666666666572,
      "velocity": 43,
      "track": 1
    },
    {
      "pitch": 58,
      "start_beat": 68.75,
      "duration_beat": 0.11770833333333286,
      "velocity": 33,
      "track": 1
    },
    {
      "pitch": 58,
      "start_beat": 68.75,
      "duration_beat": 0.125,
      "velocity": 13,
      "track": 1
    },
    {
      "pitch": 65,
      "start_beat": 68.875,
      "duration_beat": 0.11770833333333286,
      "velocity": 33,
      "track": 1
    },
    {
      "pitch": 70,
      "start_beat": 69.0,
      "duration_beat": 0.11770833333333286,
      "velocity": 33,
      "track": 1
    },
    {
      "pitch": 82,
      "start_beat": 69.0,
      "duration_beat": 0.3541666666666714,
      "velocity": 33,
      "track": 0
    },
    {
      "pitch": 82,
      "start_beat": 69.0,
      "duration_beat": 0.3541666666666714,
      "velocity": 43,
      "track": 0
    },
    {
      "pitch": 86,
      "start_beat": 69.0,
      "duration_beat": 0.3541666666666714,
      "velocity": 43,
      "track": 0
    },
    {
      "pitch": 89,
      "start_beat": 69.0,
      "duration_beat": 0.3541666666666714,
      "velocity": 43,
      "track": 0
    },
    {
      "pitch": 82,
      "start_beat": 69.0,
      "duration_beat": 0.1770833333333357,
      "velocity": 33,
      "track": 0
    },
    {
      "pitch": 82,
      "start_beat": 69.0,
      "duration_beat": 0.125,
      "velocity": 13,
      "track": 0
    },
    {
      "pitch": 62,
      "start_beat": 69.0,
      "duration_beat": 0.23541666666666572,
      "velocity": 33,
      "track": 1
    },
    {
      "pitch": 62,
      "start_beat": 69.0,
      "duration_beat": 0.23541666666666572,
      "velocity": 43,
      "track": 1
    },
    {
      "pitch": 66,
      "start_beat": 69.0,
      "duration_beat": 0.23541666666666572,
      "velocity": 43,
      "track": 1
    },
    {
      "pitch": 69,
      "start_beat": 69.0,
      "duration_beat": 0.23541666666666572,
      "velocity": 43,
      "track": 1
    },
    {
      "pitch": 62,
      "start_beat": 69.0,
      "duration_beat": 0.11770833333333286,
      "velocity": 33,
      "track": 1
    },
    {
      "pitch": 62,
      "start_beat": 69.0,
      "duration_beat": 0.125,
      "velocity": 13,
      "track": 1
    },
    {
      "pitch": 89,
      "start_beat": 69.125,
      "duration_beat": 0.1770833333333357,
      "velocity": 33,
      "track": 0
    },
    {
      "pitch": 69,
      "start_beat": 69.125,
      "duration_beat": 0.11770833333333286,
      "velocity": 33,
      "track": 1
    },
    {
      "pitch": 94,
      "start_beat": 69.25,
      "duration_beat": 0.1770833333333357,
      "velocity": 33,
      "track": 0
    },
    {
      "pitch": 82,
      "start_beat": 69.25,
      "duration_beat": 0.125,
      "velocity": 13,
      "track": 0
    },
    {
      "pitch": 74,
      "start_beat": 69.25,
      "duration_beat": 0.11770833333333286,
      "velocity": 33,
      "track": 1
    },
    {
      "pitch": 58,
      "start_beat": 69.25,
      "duration_beat": 0.23541666666666572,
      "velocity": 33,
      "track": 1
    },
    {
      "pitch": 58,
      "start_beat": 69.25,
      "duration_beat": 0.23541666666666572,
      "velocity": 43,
      "track": 1
    },
    {
      "pitch": 62,
      "start_beat": 69.25,
      "duration_beat": 0.23541666666666572,
      "velocity": 43,
      "track": 1
    },
    {
      "pitch": 65,
      "start_beat": 69.25,
      "duration_beat": 0.23541666666666572,
      "velocity": 43,
      "track": 1
    },
    {
      "pitch": 58,
      "start_beat": 69.25,
      "duration_beat": 0.11770833333333286,
      "velocity": 33,
      "track": 1
    },
    {
      "pitch": 58,
      "start_beat": 69.25,
      "duration_beat": 0.125,
      "velocity": 13,
      "track": 1
    },
    {
      "pitch": 65,
      "start_beat": 69.375,
      "duration_beat": 0.11770833333333286,
      "velocity": 33,
      "track": 1
    },
    {
      "pitch": 81,
      "start_beat": 69.375,
      "duration_beat": 0.11666666666666003,
      "velocity": 33,
      "track": 0
    },
    {
      "pitch": 81,
      "start_beat": 69.375,
      "duration_beat": 0.11666666666666003,
      "velocity": 43,
      "track": 0
    },
    {
      "pitch": 85,
      "start_beat": 69.375,
      "duration_beat": 0.11666666666666003,
      "velocity": 43,
      "track": 0
    },
    {
      "pitch": 88,
      "start_beat": 69.375,
      "duration_beat": 0.11666666666666003,
      "velocity": 43,
      "track": 0
    },
    {
      "pitch": 81,
      "start_beat": 69.375,
      "duration_beat": 0.05833333333333002,
      "velocity": 33,
      "track": 0
    },
    {
      "pitch": 81,
      "start_beat": 69.375,
      "duration_beat": 0.125,
      "velocity": 13,
      "track": 0
    },
    {
      "pitch": 70,
      "start_beat": 69.5,
      "duration_beat": 0.11770833333333286,
      "velocity": 33,
      "track": 1
    },
    {
      "pitch": 88,
      "start_beat": 69.5,
      "duration_beat": 0.05833333333333002,
      "velocity": 33,
      "track": 0
    },
    {
      "pitch": 81,
      "start_beat": 69.5,
      "duration_beat": 0.24791666666666856,
      "velocity": 33,
      "track": 0
    },
    {
      "pitch": 81,
      "start_beat": 69.5,
      "duration_beat": 0.24791666666666856,
      "velocity": 43,
      "track": 0
    },
    {
      "pitch": 85,
      "start_beat": 69.5,
      "duration_beat": 0.24791666666666856,
      "velocity": 43,
      "track": 0
    },
    {
      "pitch": 88,
      "start_beat": 69.5,
      "duration_beat": 0.24791666666666856,
      "velocity": 43,
      "track": 0
    },
    {
      "pitch": 81,
      "start_beat": 69.5,
      "duration_beat": 0.12395833333333428,
      "velocity": 33,
      "track": 0
    },
    {
      "pitch": 81,
      "start_beat": 69.5,
      "duration_beat": 0.125,
      "velocity": 13,
      "track": 0
    },
    {
      "pitch": 53,
      "start_beat": 69.5,
      "duration_beat": 0.23541666666666572,
      "velocity": 33,
      "track": 1
    },
    {
      "pitch": 53,
      "start_beat": 69.5,
      "duration_beat": 0.23541666666666572,
      "velocity": 43,
      "track": 1
    },
    {
      "pitch": 57,
      "start_beat": 69.5,
      "duration_beat": 0.23541666666666572,
      "velocity": 43,
      "track": 1
    },
    {
      "pitch": 60,
      "start_beat": 69.5,
      "duration_beat": 0.23541666666666572,
      "velocity": 43,
      "track": 1
    },
    {
      "pitch": 53,
      "start_beat": 69.5,
      "duration_beat": 0.11770833333333286,
      "velocity": 33,
      "track": 1
    },
    {
      "pitch": 53,
      "start_beat": 69.5,
      "duration_beat": 0.125,
      "velocity": 13,
      "track": 1
    },
    {
      "pitch": 93,
      "start_beat": 69.625,
      "duration_beat": 0.05833333333333002,
      "velocity": 33,
      "track": 0
    },
    {
      "pitch": 88,
      "start_beat": 69.625,
      "duration_beat": 0.12395833333333428,
      "velocity": 33,
      "track": 0
    },
    {
      "pitch": 60,
      "start_beat": 69.625,
      "duration_beat": 0.11770833333333286,
      "velocity": 33,
      "track": 1
    },
    {
      "pitch": 93,
      "start_beat": 69.75,
      "duration_beat": 0.12395833333333428,
      "velocity": 33,
      "track": 0
    },
    {
      "pitch": 65,
      "start_beat": 69.75,
      "duration_beat": 0.11770833333333286,
      "velocity": 33,
      "track": 1
    },
    {
      "pitch": 79,
      "start_beat": 69.75,
      "duration_beat": 0.24791666666666856,
      "velocity": 33,
      "track": 0
    },
    {
      "pitch": 79,
      "start_beat": 69.75,
      "duration_beat": 0.24791666666666856,
      "velocity": 43,
      "track": 0
    },
    {
      "pitch": 83,
      "start_beat": 69.75,
      "duration_beat": 0.24791666666666856,
      "velocity": 43,
      "track": 0
    },
    {
      "pitch": 86,
      "start_beat": 69.75,
      "duration_beat": 0.24791666666666856,
      "velocity": 43,
      "track": 0
    },
    {
      "pitch": 79,
      "start_beat": 69.75,
      "duration_beat": 0.12395833333333428,
      "velocity": 33,
      "track": 0
    },
    {
      "pitch": 79,
      "start_beat": 69.75,
      "duration_beat": 0.125,
      "velocity": 13,
      "track": 0
    },
    {
      "pitch": 64,
      "start_beat": 69.75,
      "duration_beat": 0.23541666666666572,
      "velocity": 33,
      "track": 1
    },
    {
      "pitch": 64,
      "start_beat": 69.75,
      "duration_beat": 0.23541666666666572,
      "velocity": 43,
      "track": 1
    },
    {
      "pitch": 68,
      "start_beat": 69.75,
      "duration_beat": 0.23541666666666572,
      "velocity": 43,
      "track": 1
    },
    {
      "pitch": 71,
      "start_beat": 69.75,
      "duration_beat": 0.23541666666666572,
      "velocity": 43,
      "track": 1
    },
    {
      "pitch": 64,
      "start_beat": 69.75,
      "duration_beat": 0.11770833333333286,
      "velocity": 33,
      "track": 1
    },
    {
      "pitch": 64,
      "start_beat": 69.75,
      "duration_beat": 0.125,
      "velocity": 13,
      "track": 1
    },
    {
      "pitch": 86,
      "start_beat": 69.875,
      "duration_beat": 0.12395833333333428,
      "velocity": 33,
      "track": 0
    },
    {
      "pitch": 71,
      "start_beat": 69.875,
      "duration_beat": 0.11770833333333286,
      "velocity": 33,
      "track": 1
    },
    {
      "pitch": 91,
      "start_beat": 70.0,
      "duration_beat": 0.12395833333333428,
      "velocity": 33,
      "track": 0
    },
    {
      "pitch": 76,
      "start_beat": 70.0,
      "duration_beat": 0.11770833333333286,
      "velocity": 33,
      "track": 1
    },
    {
      "pitch": 77,
      "start_beat": 70.0,
      "duration_beat": 0.24791666666666856,
      "velocity": 33,
      "track": 0
    },
    {
      "pitch": 77,
      "start_beat": 70.0,
      "duration_beat": 0.24791666666666856,
      "velocity": 43,
      "track": 0
    },
    {
      "pitch": 81,
      "start_beat": 70.0,
      "duration_beat": 0.24791666666666856,
      "velocity": 43,
      "track": 0
    },
    {
      "pitch": 84,
      "start_beat": 70.0,
      "duration_beat": 0.24791666666666856,
      "velocity": 43,
      "track": 0
    },
    {
      "pitch": 77,
      "start_beat": 70.0,
      "duration_beat": 0.12395833333333428,
      "velocity": 33,
      "track": 0
    },
    {
      "pitch": 77,
      "start_beat": 70.0,
      "duration_beat": 0.125,
      "velocity": 13,
      "track": 0
    },
    {
      "pitch": 53,
      "start_beat": 70.0,
      "duration_beat": 0.23541666666666572,
      "velocity": 33,
      "track": 1
    },
    {
      "pitch": 53,
      "start_beat": 70.0,
      "duration_beat": 0.23541666666666572,
      "velocity": 43,
      "track": 1
    },
    {
      "pitch": 57,
      "start_beat": 70.0,
      "duration_beat": 0.23541666666666572,
      "velocity": 43,
      "track": 1
    },
    {
      "pitch": 60,
      "start_beat": 70.0,
      "duration_beat": 0.23541666666666572,
      "velocity": 43,
      "track": 1
    },
    {
      "pitch": 53,
      "start_beat": 70.0,
      "duration_beat": 0.11770833333333286,
      "velocity": 33,
      "track": 1
    },
    {
      "pitch": 53,
      "start_beat": 70.0,
      "duration_beat": 0.125,
      "velocity": 13,
      "track": 1
    },
    {
      "pitch": 55,
      "start_beat": 70.0,
      "duration_beat": 0.23541666666666572,
      "velocity": 33,
      "track": 1
    },
    {
      "pitch": 55,
      "start_beat": 70.0,
      "duration_beat": 0.23541666666666572,
      "velocity": 43,
      "track": 1
    },
    {
      "pitch": 59,
      "start_beat": 70.0,
      "duration_beat": 0.23541666666666572,
      "velocity": 43,
      "track": 1
    },
    {
      "pitch": 62,
      "start_beat": 70.0,
      "duration_beat": 0.23541666666666572,
      "velocity": 43,
      "track": 1
    },
    {
      "pitch": 55,
      "start_beat": 70.0,
      "duration_beat": 0.11770833333333286,
      "velocity": 33,
      "track": 1
    },
    {
      "pitch": 55,
      "start_beat": 70.0,
      "duration_beat": 0.125,
      "velocity": 13,
      "track": 1
    },
    {
      "pitch": 58,
      "start_beat": 70.0,
      "duration_beat": 0.23541666666666572,
      "velocity": 33,
      "track": 1
    },
    {
      "pitch": 58,
      "start_beat": 70.0,
      "duration_beat": 0.23541666666666572,
      "velocity": 43,
      "track": 1
    },
    {
      "pitch": 62,
      "start_beat": 70.0,
      "duration_beat": 0.23541666666666572,
      "velocity": 43,
      "track": 1
    },
    {
      "pitch": 65,
      "start_beat": 70.0,
      "duration_beat": 0.23541666666666572,
      "velocity": 43,
      "track": 1
    },
    {
      "pitch": 58,
      "start_beat": 70.0,
      "duration_beat": 0.11770833333333286,
      "velocity": 33,
      "track": 1
    },
    {
      "pitch": 58,
      "start_beat": 70.0,
      "duration_beat": 0.125,
      "velocity": 13,
      "track": 1
    },
    {
      "pitch": 84,
      "start_beat": 70.125,
      "duration_beat": 0.12395833333333428,
      "velocity": 33,
      "track": 0
    },
    {
      "pitch": 60,
      "start_beat": 70.125,
      "duration_beat": 0.11770833333333286,
      "velocity": 33,
      "track": 1
    },
    {
      "pitch": 62,
      "start_beat": 70.125,
      "duration_beat": 0.11770833333333286,
      "velocity": 33,
      "track": 1
    },
    {
      "pitch": 65,
      "start_beat": 70.125,
      "duration_beat": 0.11770833333333286,
      "velocity": 33,
      "track": 1
    },
    {
      "pitch": 89,
      "start_beat": 70.25,
      "duration_beat": 0.12395833333333428,
      "velocity": 33,
      "track": 0
    },
    {
      "pitch": 65,
      "start_beat": 70.25,
      "duration_beat": 0.11770833333333286,
      "velocity": 33,
      "track": 1
    },
    {
      "pitch": 67,
      "start_beat": 70.25,
      "duration_beat": 0.11770833333333286,
      "velocity": 33,
      "track": 1
    },
    {
      "pitch": 70,
      "start_beat": 70.25,
      "duration_beat": 0.11770833333333286,
      "velocity": 33,
      "track": 1
    },
    {
      "pitch": 76,
      "start_beat": 70.25,
      "duration_beat": 0.24791666666666856,
      "velocity": 33,
      "track": 0
    },
    {
      "pitch": 76,
      "start_beat": 70.25,
      "duration_beat": 0.24791666666666856,
      "velocity": 43,
      "track": 0
    },
    {
      "pitch": 80,
      "start_beat": 70.25,
      "duration_beat": 0.24791666666666856,
      "velocity": 43,
      "track": 0
    },
    {
      "pitch": 83,
      "start_beat": 70.25,
      "duration_beat": 0.24791666666666856,
      "velocity": 43,
      "track": 0
    },
    {
      "pitch": 76,
      "start_beat": 70.25,
      "duration_beat": 0.12395833333333428,
      "velocity": 33,
      "track": 0
    },
    {
      "pitch": 76,
      "start_beat": 70.25,
      "duration_beat": 0.125,
      "velocity": 13,
      "track": 0
    },
    {
      "pitch": 64,
      "start_beat": 70.25,
      "duration_beat": 0.23541666666666572,
      "velocity": 33,
      "track": 1
    },
    {
      "pitch": 64,
      "start_beat": 70.25,
      "duration_beat": 0.23541666666666572,
      "velocity": 43,
      "track": 1
    },
    {
      "pitch": 68,
      "start_beat": 70.25,
      "duration_beat": 0.23541666666666572,
      "velocity": 43,
      "track": 1
    },
    {
      "pitch": 71,
      "start_beat": 70.25,
      "duration_beat": 0.23541666666666572,
      "velocity": 43,
      "track": 1
    },
    {
      "pitch": 64,
      "start_beat": 70.25,
      "duration_beat": 0.11770833333333286,
      "velocity": 33,
      "track": 1
    },
    {
      "pitch": 64,
      "start_beat": 70.25,
      "duration_beat": 0.125,
      "velocity": 13,
      "track": 1
    },
    {
      "pitch": 83,
      "start_beat": 70.375,
      "duration_beat": 0.12395833333333428,
      "velocity": 33,
      "track": 0
    },
    {
      "pitch": 71,
      "start_beat": 70.375,
      "duration_beat": 0.11770833333333286,
      "velocity": 33,
      "track": 1
    },
    {
      "pitch": 88,
      "start_beat": 70.5,
      "duration_beat": 0.12395833333333428,
      "velocity": 33,
      "track": 0
    },
    {
      "pitch": 76,
      "start_beat": 70.5,
      "duration_beat": 0.11770833333333286,
      "velocity": 33,
      "track": 1
    },
    {
      "pitch": 74,
      "start_beat": 70.5,
      "duration_beat": 0.24791666666666856,
      "velocity": 33,
      "track": 0
    },
    {
      "pitch": 74,
      "start_beat": 70.5,
      "duration_beat": 0.24791666666666856,
      "velocity": 43,
      "track": 0
    },
    {
      "pitch": 78,
      "start_beat": 70.5,
      "duration_beat": 0.24791666666666856,
      "velocity": 43,
      "track": 0
    },
    {
      "pitch": 81,
      "start_beat": 70.5,
      "duration_beat": 0.24791666666666856,
      "velocity": 43,
      "track": 0
    },
    {
      "pitch": 74,
      "start_beat": 70.5,
      "duration_beat": 0.12395833333333428,
      "velocity": 33,
      "track": 0
    },
    {
      "pitch": 74,
      "start_beat": 70.5,
      "duration_beat": 0.125,
      "velocity": 13,
      "track": 0
    },
    {
      "pitch": 53,
      "start_beat": 70.5,
      "duration_beat": 0.23541666666666572,
      "velocity": 33,
      "track": 1
    },
    {
      "pitch": 53,
      "start_beat": 70.5,
      "duration_beat": 0.23541666666666572,
      "velocity": 43,
      "track": 1
    },
    {
      "pitch": 57,
      "start_beat": 70.5,
      "duration_beat": 0.23541666666666572,
      "velocity": 43,
      "track": 1
    },
    {
      "pitch": 60,
      "start_beat": 70.5,
      "duration_beat": 0.23541666666666572,
      "velocity": 43,
      "track": 1
    },
    {
      "pitch": 53,
      "start_beat": 70.5,
      "duration_beat": 0.11770833333333286,
      "velocity": 33,
      "track": 1
    },
    {
      "pitch": 53,
      "start_beat": 70.5,
      "duration_beat": 0.125,
      "velocity": 13,
      "track": 1
    },
    {
      "pitch": 55,
      "start_beat": 70.5,
      "duration_beat": 0.23541666666666572,
      "velocity": 33,
      "track": 1
    },
    {
      "pitch": 55,
      "start_beat": 70.5,
      "duration_beat": 0.23541666666666572,
      "velocity": 43,
      "track": 1
    },
    {
      "pitch": 59,
      "start_beat": 70.5,
      "duration_beat": 0.23541666666666572,
      "velocity": 43,
      "track": 1
    },
    {
      "pitch": 62,
      "start_beat": 70.5,
      "duration_beat": 0.23541666666666572,
      "velocity": 43,
      "track": 1
    },
    {
      "pitch": 55,
      "start_beat": 70.5,
      "duration_beat": 0.11770833333333286,
      "velocity": 33,
      "track": 1
    },
    {
      "pitch": 55,
      "start_beat": 70.5,
      "duration_beat": 0.125,
      "velocity": 13,
      "track": 1
    },
    {
      "pitch": 58,
      "start_beat": 70.5,
      "duration_beat": 0.23541666666666572,
      "velocity": 33,
      "track": 1
    },
    {
      "pitch": 58,
      "start_beat": 70.5,
      "duration_beat": 0.23541666666666572,
      "velocity": 43,
      "track": 1
    },
    {
      "pitch": 62,
      "start_beat": 70.5,
      "duration_beat": 0.23541666666666572,
      "velocity": 43,
      "track": 1
    },
    {
      "pitch": 65,
      "start_beat": 70.5,
      "duration_beat": 0.23541666666666572,
      "velocity": 43,
      "track": 1
    },
    {
      "pitch": 58,
      "start_beat": 70.5,
      "duration_beat": 0.11770833333333286,
      "velocity": 33,
      "track": 1
    },
    {
      "pitch": 58,
      "start_beat": 70.5,
      "duration_beat": 0.125,
      "velocity": 13,
      "track": 1
    },
    {
      "pitch": 81,
      "start_beat": 70.625,
      "duration_beat": 0.12395833333333428,
      "velocity": 33,
      "track": 0
    },
    {
      "pitch": 60,
      "start_beat": 70.625,
      "duration_beat": 0.11770833333333286,
      "velocity": 33,
      "track": 1
    },
    {
      "pitch": 62,
      "start_beat": 70.625,
      "duration_beat": 0.11770833333333286,
      "velocity": 33,
      "track": 1
    },
    {
      "pitch": 65,
      "start_beat": 70.625,
      "duration_beat": 0.11770833333333286,
      "velocity": 33,
      "track": 1
    },
    {
      "pitch": 86,
      "start_beat": 70.75,
      "duration_beat": 0.12395833333333428,
      "velocity": 33,
      "track": 0
    },
    {
      "pitch": 65,
      "start_beat": 70.75,
      "duration_beat": 0.11770833333333286,
      "velocity": 33,
      "track": 1
    },
    {
      "pitch": 67,
      "start_beat": 70.75,
      "duration_beat": 0.11770833333333286,
      "velocity": 33,
      "track": 1
    },
    {
      "pitch": 70,
      "start_beat": 70.75,
      "duration_beat": 0.11770833333333286,
      "velocity": 33,
      "track": 1
    },
    {
      "pitch": 72,
      "start_beat": 70.75,
      "duration_beat": 0.23541666666666572,
      "velocity": 33,
      "track": 0
    },
    {
      "pitch": 72,
      "start_beat": 70.75,
      "duration_beat": 0.23541666666666572,
      "velocity": 43,
      "track": 0
    },
    {
      "pitch": 76,
      "start_beat": 70.75,
      "duration_beat": 0.23541666666666572,
      "velocity": 43,
      "track": 0
    },
    {
      "pitch": 79,
      "start_beat": 70.75,
      "duration_beat": 0.23541666666666572,
      "velocity": 43,
      "track": 0
    },
    {
      "pitch": 72,
      "start_beat": 70.75,
      "duration_beat": 0.11770833333333286,
      "velocity": 33,
      "track": 0
    },
    {
      "pitch": 72,
      "start_beat": 70.75,
      "duration_beat": 0.125,
      "velocity": 13,
      "track": 0
    },
    {
      "pitch": 64,
      "start_beat": 70.75,
      "duration_beat": 0.23541666666666572,
      "velocity": 33,
      "track": 1
    },
    {
      "pitch": 64,
      "start_beat": 70.75,
      "duration_beat": 0.23541666666666572,
      "velocity": 43,
      "track": 1
    },
    {
      "pitch": 68,
      "start_beat": 70.75,
      "duration_beat": 0.23541666666666572,
      "velocity": 43,
      "track": 1
    },
    {
      "pitch": 71,
      "start_beat": 70.75,
      "duration_beat": 0.23541666666666572,
      "velocity": 43,
      "track": 1
    },
    {
      "pitch": 64,
      "start_beat": 70.75,
      "duration_beat": 0.11770833333333286,
      "velocity": 33,
      "track": 1
    },
    {
      "pitch": 64,
      "start_beat": 70.75,
      "duration_beat": 0.125,
      "velocity": 13,
      "track": 1
    },
    {
      "pitch": 79,
      "start_beat": 70.875,
      "duration_beat": 0.11770833333333286,
      "velocity": 33,
      "track": 0
    },
    {
      "pitch": 71,
      "start_beat": 70.875,
      "duration_beat": 0.11770833333333286,
      "velocity": 33,
      "track": 1
    },
    {
      "pitch": 84,
      "start_beat": 71.0,
      "duration_beat": 0.11770833333333286,
      "velocity": 33,
      "track": 0
    },
    {
      "pitch": 76,
      "start_beat": 71.0,
      "duration_beat": 0.11770833333333286,
      "velocity": 33,
      "track": 1
    },
    {
      "pitch": 70,
      "start_beat": 71.0,
      "duration_beat": 0.4729166666666629,
      "velocity": 33,
      "track": 0
    },
    {
      "pitch": 70,
      "start_beat": 71.0,
      "duration_beat": 0.4729166666666629,
      "velocity": 43,
      "track": 0
    },
    {
      "pitch": 74,
      "start_beat": 71.0,
      "duration_beat": 0.4729166666666629,
      "velocity": 43,
      "track": 0
    },
    {
      "pitch": 77,
      "start_beat": 71.0,
      "duration_beat": 0.4729166666666629,
      "velocity": 43,
      "track": 0
    },
    {
      "pitch": 70,
      "start_beat": 71.0,
      "duration_beat": 0.23645833333333144,
      "velocity": 33,
      "track": 0
    },
    {
      "pitch": 70,
      "start_beat": 71.0,
      "duration_beat": 0.125,
      "velocity": 13,
      "track": 0
    },
    {
      "pitch": 53,
      "start_beat": 71.0,
      "duration_beat": 0.23541666666666572,
      "velocity": 33,
      "track": 1
    },
    {
      "pitch": 53,
      "start_beat": 71.0,
      "duration_beat": 0.23541666666666572,
      "velocity": 43,
      "track": 1
    },
    {
      "pitch": 57,
      "start_beat": 71.0,
      "duration_beat": 0.23541666666666572,
      "velocity": 43,
      "track": 1
    },
    {
      "pitch": 60,
      "start_beat": 71.0,
      "duration_beat": 0.23541666666666572,
      "velocity": 43,
      "track": 1
    },
    {
      "pitch": 53,
      "start_beat": 71.0,
      "duration_beat": 0.11770833333333286,
      "velocity": 33,
      "track": 1
    },
    {
      "pitch": 53,
      "start_beat": 71.0,
      "duration_beat": 0.125,
      "velocity": 13,
      "track": 1
    },
    {
      "pitch": 77,
      "start_beat": 71.125,
      "duration_beat": 0.23645833333333144,
      "velocity": 33,
      "track": 0
    },
    {
      "pitch": 60,
      "start_beat": 71.125,
      "duration_beat": 0.11770833333333286,
      "velocity": 33,
      "track": 1
    },
    {
      "pitch": 82,
      "start_beat": 71.25,
      "duration_beat": 0.23645833333333144,
      "velocity": 33,
      "track": 0
    },
    {
      "pitch": 70,
      "start_beat": 71.25,
      "duration_beat": 0.125,
      "velocity": 13,
      "track": 0
    },
    {
      "pitch": 65,
      "start_beat": 71.25,
      "duration_beat": 0.11770833333333286,
      "velocity": 33,
      "track": 1
    },
    {
      "pitch": 57,
      "start_beat": 71.25,
      "duration_beat": 0.23541666666666572,
      "velocity": 33,
      "track": 1
    },
    {
      "pitch": 57,
      "start_beat": 71.25,
      "duration_beat": 0.23541666666666572,
      "velocity": 43,
      "track": 1
    },
    {
      "pitch": 61,
      "start_beat": 71.25,
      "duration_beat": 0.23541666666666572,
      "velocity": 43,
      "track": 1
    },
    {
      "pitch": 64,
      "start_beat": 71.25,
      "duration_beat": 0.23541666666666572,
      "velocity": 43,
      "track": 1
    },
    {
      "pitch": 57,
      "start_beat": 71.25,
      "duration_beat": 0.11770833333333286,
      "velocity": 33,
      "track": 1
    },
    {
      "pitch": 57,
      "start_beat": 71.25,
      "duration_beat": 0.125,
      "velocity": 13,
      "track": 1
    },
    {
      "pitch": 64,
      "start_beat": 71.375,
      "duration_beat": 0.11770833333333286,
      "velocity": 33,
      "track": 1
    },
    {
      "pitch": 69,
      "start_beat": 71.5,
      "duration_beat": 0.11770833333333286,
      "velocity": 33,
      "track": 1
    },
    {
      "pitch": 69,
      "start_beat": 71.5,
      "duration_beat": 0.4729166666666629,
      "velocity": 33,
      "track": 0
    },
    {
      "pitch": 69,
      "start_beat": 71.5,
      "duration_beat": 0.4729166666666629,
      "velocity": 43,
      "track": 0
    },
    {
      "pitch": 73,
      "start_beat": 71.5,
      "duration_beat": 0.4729166666666629,
      "velocity": 43,
      "track": 0
    },
    {
      "pitch": 76,
      "start_beat": 71.5,
      "duration_beat": 0.4729166666666629,
      "velocity": 43,
      "track": 0
    },
    {
      "pitch": 69,
      "start_beat": 71.5,
      "duration_beat": 0.23645833333333144,
      "velocity": 33,
      "track": 0
    },
    {
      "pitch": 69,
      "start_beat": 71.5,
      "duration_beat": 0.125,
      "velocity": 13,
      "track": 0
    },
    {
      "pitch": 70,
      "start_beat": 71.5,
      "duration_beat": 0.49791666666666856,
      "velocity": 33,
      "track": 0
    },
    {
      "pitch": 70,
      "start_beat": 71.5,
      "duration_beat": 0.49791666666666856,
      "velocity": 43,
      "track": 0
    },
    {
      "pitch": 74,
      "start_beat": 71.5,
      "duration_beat": 0.49791666666666856,
      "velocity": 43,
      "track": 0
    },
    {
      "pitch": 77,
      "start_beat": 71.5,
      "duration_beat": 0.49791666666666856,
      "velocity": 43,
      "track": 0
    },
    {
      "pitch": 70,
      "start_beat": 71.5,
      "duration_beat": 0.24895833333333428,
      "velocity": 33,
      "track": 0
    },
    {
      "pitch": 70,
      "start_beat": 71.5,
      "duration_beat": 0.125,
      "velocity": 13,
      "track": 0
    },
    {
      "pitch": 60,
      "start_beat": 71.5,
      "duration_beat": 0.23541666666666572,
      "velocity": 33,
      "track": 1
    },
    {
      "pitch": 60,
      "start_beat": 71.5,
      "duration_beat": 0.23541666666666572,
      "velocity": 43,
      "track": 1
    },
    {
      "pitch": 64,
      "start_beat": 71.5,
      "duration_beat": 0.23541666666666572,
      "velocity": 43,
      "track": 1
    },
    {
      "pitch": 67,
      "start_beat": 71.5,
      "duration_beat": 0.23541666666666572,
      "velocity": 43,
      "track": 1
    },
    {
      "pitch": 60,
      "start_beat": 71.5,
      "duration_beat": 0.11770833333333286,
      "velocity": 33,
      "track": 1
    },
    {
      "pitch": 60,
      "start_beat": 71.5,
      "duration_beat": 0.125,
      "velocity": 13,
      "track": 1
    },
    {
      "pitch": 76,
      "start_beat": 71.625,
      "duration_beat": 0.23645833333333144,
      "velocity": 33,
      "track": 0
    },
    {
      "pitch": 77,
      "start_beat": 71.625,
      "duration_beat": 0.24895833333333428,
      "velocity": 33,
      "track": 0
    },
    {
      "pitch": 67,
      "start_beat": 71.625,
      "duration_beat": 0.11770833333333286,
      "velocity": 33,
      "track": 1
    },
    {
      "pitch": 81,
      "start_beat": 71.75,
      "duration_beat": 0.23645833333333144,
      "velocity": 33,
      "track": 0
    },
    {
      "pitch": 69,
      "start_beat": 71.75,
      "duration_beat": 0.125,
      "velocity": 13,
      "track": 0
    },
    {
      "pitch": 82,
      "start_beat": 71.75,
      "duration_beat": 0.24895833333333428,
      "velocity": 33,
      "track": 0
    },
    {
      "pitch": 70,
      "start_beat": 71.75,
      "duration_beat": 0.125,
      "velocity": 13,
      "track": 0
    },
    {
      "pitch": 72,
      "start_beat": 71.75,
      "duration_beat": 0.11770833333333286,
      "velocity": 33,
      "track": 1
    },
    {
      "pitch": 57,
      "start_beat": 71.75,
      "duration_beat": 0.23541666666666572,
      "velocity": 33,
      "track": 1
    },
    {
      "pitch": 57,
      "start_beat": 71.75,
      "duration_beat": 0.23541666666666572,
      "velocity": 43,
      "track": 1
    },
    {
      "pitch": 61,
      "start_beat": 71.75,
      "duration_beat": 0.23541666666666572,
      "velocity": 43,
      "track": 1
    },
    {
      "pitch": 64,
      "start_beat": 71.75,
      "duration_beat": 0.23541666666666572,
      "velocity": 43,
      "track": 1
    },
    {
      "pitch": 57,
      "start_beat": 71.75,
      "duration_beat": 0.11770833333333286,
      "velocity": 33,
      "track": 1
    },
    {
      "pitch": 57,
      "start_beat": 71.75,
      "duration_beat": 0.125,
      "velocity": 13,
      "track": 1
    },
    {
      "pitch": 64,
      "start_beat": 71.875,
      "duration_beat": 0.11770833333333286,
      "velocity": 33,
      "track": 1
    },
    {
      "pitch": 69,
      "start_beat": 72.0,
      "duration_beat": 0.11770833333333286,
      "velocity": 33,
      "track": 1
    },
    {
      "pitch": 69,
      "start_beat": 72.0,
      "duration_beat": 0.11666666666666003,
      "velocity": 33,
      "track": 0
    },
    {
      "pitch": 69,
      "start_beat": 72.0,
      "duration_beat": 0.11666666666666003,
      "velocity": 43,
      "track": 0
    },
    {
      "pitch": 73,
      "start_beat": 72.0,
      "duration_beat": 0.11666666666666003,
      "velocity": 43,
      "track": 0
    },
    {
      "pitch": 76,
      "start_beat": 72.0,
      "duration_beat": 0.11666666666666003,
      "velocity": 43,
      "track": 0
    },
    {
      "pitch": 69,
      "start_beat": 72.0,
      "duration_beat": 0.05833333333333002,
      "velocity": 33,
      "track": 0
    },
    {
      "pitch": 69,
      "start_beat": 72.0,
      "duration_beat": 0.125,
      "velocity": 13,
      "track": 0
    },
    {
      "pitch": 60,
      "start_beat": 72.0,
      "duration_beat": 0.23541666666666572,
      "velocity": 33,
      "track": 1
    },
    {
      "pitch": 60,
      "start_beat": 72.0,
      "duration_beat": 0.23541666666666572,
      "velocity": 43,
      "track": 1
    },
    {
      "pitch": 64,
      "start_beat": 72.0,
      "duration_beat": 0.23541666666666572,
      "velocity": 43,
      "track": 1
    },
    {
      "pitch": 67,
      "start_beat": 72.0,
      "duration_beat": 0.23541666666666572,
      "velocity": 43,
      "track": 1
    },
    {
      "pitch": 60,
      "start_beat": 72.0,
      "duration_beat": 0.11770833333333286,
      "velocity": 33,
      "track": 1
    },
    {
      "pitch": 60,
      "start_beat": 72.0,
      "duration_beat": 0.125,
      "velocity": 13,
      "track": 1
    },
    {
      "pitch": 76,
      "start_beat": 72.125,
      "duration_beat": 0.05833333333333002,
      "velocity": 33,
      "track": 0
    },
    {
      "pitch": 67,
      "start_beat": 72.125,
      "duration_beat": 0.11770833333333286,
      "velocity": 33,
      "track": 1
    },
    {
      "pitch": 67,
      "start_beat": 72.125,
      "duration_beat": 0.11666666666666003,
      "velocity": 33,
      "track": 0
    },
    {
      "pitch": 67,
      "start_beat": 72.125,
      "duration_beat": 0.11666666666666003,
      "velocity": 43,
      "track": 0
    },
    {
      "pitch": 71,
      "start_beat": 72.125,
      "duration_beat": 0.11666666666666003,
      "velocity": 43,
      "track": 0
    },
    {
      "pitch": 74,
      "start_beat": 72.125,
      "duration_beat": 0.11666666666666003,
      "velocity": 43,
      "track": 0
    },
    {
      "pitch": 67,
      "start_beat": 72.125,
      "duration_beat": 0.05833333333333002,
      "velocity": 33,
      "track": 0
    },
    {
      "pitch": 67,
      "start_beat": 72.125,
      "duration_beat": 0.125,
      "velocity": 13,
      "track": 0
    },
    {
      "pitch": 81,
      "start_beat": 72.25,
      "duration_beat": 0.05833333333333002,
      "velocity": 33,
      "track": 0
    },
    {
      "pitch": 72,
      "start_beat": 72.25,
      "duration_beat": 0.11770833333333286,
      "velocity": 33,
      "track": 1
    },
    {
      "pitch": 74,
      "start_beat": 72.25,
      "duration_beat": 0.05833333333333002,
      "velocity": 33,
      "track": 0
    },
    {
      "pitch": 69,
      "start_beat": 72.25,
      "duration_beat": 0.11666666666666003,
      "velocity": 33,
      "track": 0
    },
    {
      "pitch": 69,
      "start_beat": 72.25,
      "duration_beat": 0.11666666666666003,
      "velocity": 43,
      "track": 0
    },
    {
      "pitch": 73,
      "start_beat": 72.25,
      "duration_beat": 0.11666666666666003,
      "velocity": 43,
      "track": 0
    },
    {
      "pitch": 76,
      "start_beat": 72.25,
      "duration_beat": 0.11666666666666003,
      "velocity": 43,
      "track": 0
    },
    {
      "pitch": 69,
      "start_beat": 72.25,
      "duration_beat": 0.05833333333333002,
      "velocity": 33,
      "track": 0
    },
    {
      "pitch": 69,
      "start_beat": 72.25,
      "duration_beat": 0.125,
      "velocity": 13,
      "track": 0
    },
    {
      "pitch": 57,
      "start_beat": 72.25,
      "duration_beat": 0.23541666666666572,
      "velocity": 33,
      "track": 1
    },
    {
      "pitch": 57,
      "start_beat": 72.25,
      "duration_beat": 0.23541666666666572,
      "velocity": 43,
      "track": 1
    },
    {
      "pitch": 61,
      "start_beat": 72.25,
      "duration_beat": 0.23541666666666572,
      "velocity": 43,
      "track": 1
    },
    {
      "pitch": 64,
      "start_beat": 72.25,
      "duration_beat": 0.23541666666666572,
      "velocity": 43,
      "track": 1
    },
    {
      "pitch": 57,
      "start_beat": 72.25,
      "duration_beat": 0.11770833333333286,
      "velocity": 33,
      "track": 1
    },
    {
      "pitch": 57,
      "start_beat": 72.25,
      "duration_beat": 0.125,
      "velocity": 13,
      "track": 1
    },
    {
      "pitch": 79,
      "start_beat": 72.375,
      "duration_beat": 0.05833333333333002,
      "velocity": 33,
      "track": 0
    },
    {
      "pitch": 76,
      "start_beat": 72.375,
      "duration_beat": 0.05833333333333002,
      "velocity": 33,
      "track": 0
    },
    {
      "pitch": 64,
      "start_beat": 72.375,
      "duration_beat": 0.11770833333333286,
      "velocity": 33,
      "track": 1
    },
    {
      "pitch": 70,
      "start_beat": 72.375,
      "duration_beat": 0.11666666666666003,
      "velocity": 33,
      "track": 0
    },
    {
      "pitch": 70,
      "start_beat": 72.375,
      "duration_beat": 0.11666666666666003,
      "velocity": 43,
      "track": 0
    },
    {
      "pitch": 74,
      "start_beat": 72.375,
      "duration_beat": 0.11666666666666003,
      "velocity": 43,
      "track": 0
    },
    {
      "pitch": 77,
      "start_beat": 72.375,
      "duration_beat": 0.11666666666666003,
      "velocity": 43,
      "track": 0
    },
    {
      "pitch": 70,
      "start_beat": 72.375,
      "duration_beat": 0.05833333333333002,
      "velocity": 33,
      "track": 0
    },
    {
      "pitch": 70,
      "start_beat": 72.375,
      "duration_beat": 0.125,
      "velocity": 13,
      "track": 0
    },
    {
      "pitch": 81,
      "start_beat": 72.5,
      "duration_beat": 0.05833333333333002,
      "velocity": 33,
      "track": 0
    },
    {
      "pitch": 69,
      "start_beat": 72.5,
      "duration_beat": 0.11770833333333286,
      "velocity": 33,
      "track": 1
    },
    {
      "pitch": 77,
      "start_beat": 72.5,
      "duration_beat": 0.05833333333333002,
      "velocity": 33,
      "track": 0
    },
    {
      "pitch": 72,
      "start_beat": 72.5,
      "duration_beat": 0.9479166666666714,
      "velocity": 33,
      "track": 0
    },
    {
      "pitch": 72,
      "start_beat": 72.5,
      "duration_beat": 0.9479166666666714,
      "velocity": 43,
      "track": 0
    },
    {
      "pitch": 76,
      "start_beat": 72.5,
      "duration_beat": 0.9479166666666714,
      "velocity": 43,
      "track": 0
    },
    {
      "pitch": 79,
      "start_beat": 72.5,
      "duration_beat": 0.9479166666666714,
      "velocity": 43,
      "track": 0
    },
    {
      "pitch": 72,
      "start_beat": 72.5,
      "duration_beat": 0.4739583333333357,
      "velocity": 33,
      "track": 0
    },
    {
      "pitch": 72,
      "start_beat": 72.5,
      "duration_beat": 0.125,
      "velocity": 13,
      "track": 0
    },
    {
      "pitch": 53,
      "start_beat": 72.5,
      "duration_beat": 0.23541666666666572,
      "velocity": 33,
      "track": 1
    },
    {
      "pitch": 53,
      "start_beat": 72.5,
      "duration_beat": 0.23541666666666572,
      "velocity": 43,
      "track": 1
    },
    {
      "pitch": 57,
      "start_beat": 72.5,
      "duration_beat": 0.23541666666666572,
      "velocity": 43,
      "track": 1
    },
    {
      "pitch": 60,
      "start_beat": 72.5,
      "duration_beat": 0.23541666666666572,
      "velocity": 43,
      "track": 1
    },
    {
      "pitch": 53,
      "start_beat": 72.5,
      "duration_beat": 0.11770833333333286,
      "velocity": 33,
      "track": 1
    },
    {
      "pitch": 53,
      "start_beat": 72.5,
      "duration_beat": 0.125,
      "velocity": 13,
      "track": 1
    },
    {
      "pitch": 82,
      "start_beat": 72.625,
      "duration_beat": 0.05833333333333002,
      "velocity": 33,
      "track": 0
    },
    {
      "pitch": 79,
      "start_beat": 72.625,
      "duration_beat": 0.4739583333333357,
      "velocity": 33,
      "track": 0
    },
    {
      "pitch": 60,
      "start_beat": 72.625,
      "duration_beat": 0.11770833333333286,
      "velocity": 33,
      "track": 1
    },
    {
      "pitch": 84,
      "start_beat": 72.75,
      "duration_beat": 0.4739583333333357,
      "velocity": 33,
      "track": 0
    },
    {
      "pitch": 72,
      "start_beat": 72.75,
      "duration_beat": 0.125,
      "velocity": 13,
      "track": 0
    },
    {
      "pitch": 65,
      "start_beat": 72.75,
      "duration_beat": 0.11770833333333286,
      "velocity": 33,
      "track": 1
    },
    {
      "pitch": 57,
      "start_beat": 72.75,
      "duration_beat": 0.23541666666666572,
      "velocity": 33,
      "track": 1
    },
    {
      "pitch": 57,
      "start_beat": 72.75,
      "duration_beat": 0.23541666666666572,
      "velocity": 43,
      "track": 1
    },
    {
      "pitch": 61,
      "start_beat": 72.75,
      "duration_beat": 0.23541666666666572,
      "velocity": 43,
      "track": 1
    },
    {
      "pitch": 64,
      "start_beat": 72.75,
      "duration_beat": 0.23541666666666572,
      "velocity": 43,
      "track": 1
    },
    {
      "pitch": 57,
      "start_beat": 72.75,
      "duration_beat": 0.11770833333333286,
      "velocity": 33,
      "track": 1
    },
    {
      "pitch": 57,
      "start_beat": 72.75,
      "duration_beat": 0.125,
      "velocity": 13,
      "track": 1
    },
    {
      "pitch": 64,
      "start_beat": 72.875,
      "duration_beat": 0.11770833333333286,
      "velocity": 33,
      "track": 1
    },
    {
      "pitch": 72,
      "start_beat": 73.0,
      "duration_beat": 0.125,
      "velocity": 13,
      "track": 0
    },
    {
      "pitch": 69,
      "start_beat": 73.0,
      "duration_beat": 0.11770833333333286,
      "velocity": 33,
      "track": 1
    },
    {
      "pitch": 60,
      "start_beat": 73.0,
      "duration_beat": 0.23541666666666572,
      "velocity": 33,
      "track": 1
    },
    {
      "pitch": 60,
      "start_beat": 73.0,
      "duration_beat": 0.23541666666666572,
      "velocity": 43,
      "track": 1
    },
    {
      "pitch": 64,
      "start_beat": 73.0,
      "duration_beat": 0.23541666666666572,
      "velocity": 43,
      "track": 1
    },
    {
      "pitch": 67,
      "start_beat": 73.0,
      "duration_beat": 0.23541666666666572,
      "velocity": 43,
      "track": 1
    },
    {
      "pitch": 60,
      "start_beat": 73.0,
      "duration_beat": 0.11770833333333286,
      "velocity": 33,
      "track": 1
    },
    {
      "pitch": 60,
      "start_beat": 73.0,
      "duration_beat": 0.125,
      "velocity": 13,
      "track": 1
    },
    {
      "pitch": 67,
      "start_beat": 73.125,
      "duration_beat": 0.11770833333333286,
      "velocity": 33,
      "track": 1
    },
    {
      "pitch": 72,
      "start_beat": 73.25,
      "duration_beat": 0.125,
      "velocity": 13,
      "track": 0
    },
    {
      "pitch": 72,
      "start_beat": 73.25,
      "duration_beat": 0.11770833333333286,
      "velocity": 33,
      "track": 1
    },
    {
      "pitch": 57,
      "start_beat": 73.25,
      "duration_beat": 0.23541666666666572,
      "velocity": 33,
      "track": 1
    },
    {
      "pitch": 57,
      "start_beat": 73.25,
      "duration_beat": 0.23541666666666572,
      "velocity": 43,
      "track": 1
    },
    {
      "pitch": 61,
      "start_beat": 73.25,
      "duration_beat": 0.23541666666666572,
      "velocity": 43,
      "track": 1
    },
    {
      "pitch": 64,
      "start_beat": 73.25,
      "duration_beat": 0.23541666666666572,
      "velocity": 43,
      "track": 1
    },
    {
      "pitch": 57,
      "start_beat": 73.25,
      "duration_beat": 0.11770833333333286,
      "velocity": 33,
      "track": 1
    },
    {
      "pitch": 57,
      "start_beat": 73.25,
      "duration_beat": 0.125,
      "velocity": 13,
      "track": 1
    },
    {
      "pitch": 64,
      "start_beat": 73.375,
      "duration_beat": 0.11770833333333286,
      "velocity": 33,
      "track": 1
    },
    {
      "pitch": 69,
      "start_beat": 73.5,
      "duration_beat": 0.11770833333333286,
      "velocity": 33,
      "track": 1
    },
    {
      "pitch": 74,
      "start_beat": 73.5,
      "duration_beat": 0.23541666666666572,
      "velocity": 33,
      "track": 0
    },
    {
      "pitch": 74,
      "start_beat": 73.5,
      "duration_beat": 0.23541666666666572,
      "velocity": 43,
      "track": 0
    },
    {
      "pitch": 78,
      "start_beat": 73.5,
      "duration_beat": 0.23541666666666572,
      "velocity": 43,
      "track": 0
    },
    {
      "pitch": 81,
      "start_beat": 73.5,
      "duration_beat": 0.23541666666666572,
      "velocity": 43,
      "track": 0
    },
    {
      "pitch": 74,
      "start_beat": 73.5,
      "duration_beat": 0.11770833333333286,
      "velocity": 33,
      "track": 0
    },
    {
      "pitch": 74,
      "start_beat": 73.5,
      "duration_beat": 0.125,
      "velocity": 13,
      "track": 0
    },
    {
      "pitch": 60,
      "start_beat": 73.5,
      "duration_beat": 0.23541666666666572,
      "velocity": 33,
      "track": 1
    },
    {
      "pitch": 60,
      "start_beat": 73.5,
      "duration_beat": 0.23541666666666572,
      "velocity": 43,
      "track": 1
    },
    {
      "pitch": 64,
      "start_beat": 73.5,
      "duration_beat": 0.23541666666666572,
      "velocity": 43,
      "track": 1
    },
    {
      "pitch": 67,
      "start_beat": 73.5,
      "duration_beat": 0.23541666666666572,
      "velocity": 43,
      "track": 1
    },
    {
      "pitch": 60,
      "start_beat": 73.5,
      "duration_beat": 0.11770833333333286,
      "velocity": 33,
      "track": 1
    },
    {
      "pitch": 60,
      "start_beat": 73.5,
      "duration_beat": 0.125,
      "velocity": 13,
      "track": 1
    },
    {
      "pitch": 81,
      "start_beat": 73.625,
      "duration_beat": 0.11770833333333286,
      "velocity": 33,
      "track": 0
    },
    {
      "pitch": 67,
      "start_beat": 73.625,
      "duration_beat": 0.11770833333333286,
      "velocity": 33,
      "track": 1
    },
    {
      "pitch": 86,
      "start_beat": 73.75,
      "duration_beat": 0.11770833333333286,
      "velocity": 33,
      "track": 0
    },
    {
      "pitch": 72,
      "start_beat": 73.75,
      "duration_beat": 0.11770833333333286,
      "velocity": 33,
      "track": 1
    },
    {
      "pitch": 75,
      "start_beat": 73.75,
      "duration_beat": 0.23541666666666572,
      "velocity": 33,
      "track": 0
    },
    {
      "pitch": 75,
      "start_beat": 73.75,
      "duration_beat": 0.23541666666666572,
      "velocity": 43,
      "track": 0
    },
    {
      "pitch": 79,
      "start_beat": 73.75,
      "duration_beat": 0.23541666666666572,
      "velocity": 43,
      "track": 0
    },
    {
      "pitch": 82,
      "start_beat": 73.75,
      "duration_beat": 0.23541666666666572,
      "velocity": 43,
      "track": 0
    },
    {
      "pitch": 75,
      "start_beat": 73.75,
      "duration_beat": 0.11770833333333286,
      "velocity": 33,
      "track": 0
    },
    {
      "pitch": 75,
      "start_beat": 73.75,
      "duration_beat": 0.125,
      "velocity": 13,
      "track": 0
    },
    {
      "pitch": 57,
      "start_beat": 73.75,
      "duration_beat": 0.23541666666666572,
      "velocity": 33,
      "track": 1
    },
    {
      "pitch": 57,
      "start_beat": 73.75,
      "duration_beat": 0.23541666666666572,
      "velocity": 43,
      "track": 1
    },
    {
      "pitch": 61,
      "start_beat": 73.75,
      "duration_beat": 0.23541666666666572,
      "velocity": 43,
      "track": 1
    },
    {
      "pitch": 64,
      "start_beat": 73.75,
      "duration_beat": 0.23541666666666572,
      "velocity": 43,
      "track": 1
    },
    {
      "pitch": 57,
      "start_beat": 73.75,
      "duration_beat": 0.11770833333333286,
      "velocity": 33,
      "track": 1
    },
    {
      "pitch": 57,
      "start_beat": 73.75,
      "duration_beat": 0.125,
      "velocity": 13,
      "track": 1
    },
    {
      "pitch": 82,
      "start_beat": 73.875,
      "duration_beat": 0.11770833333333286,
      "velocity": 33,
      "track": 0
    },
    {
      "pitch": 64,
      "start_beat": 73.875,
      "duration_beat": 0.11770833333333286,
      "velocity": 33,
      "track": 1
    },
    {
      "pitch": 87,
      "start_beat": 74.0,
      "duration_beat": 0.11770833333333286,
      "velocity": 33,
      "track": 0
    },
    {
      "pitch": 69,
      "start_beat": 74.0,
      "duration_beat": 0.11770833333333286,
      "velocity": 33,
      "track": 1
    },
    {
      "pitch": 76,
      "start_beat": 74.0,
      "duration_beat": 0.71041666666666,
      "velocity": 33,
      "track": 0
    },
    {
      "pitch": 76,
      "start_beat": 74.0,
      "duration_beat": 0.71041666666666,
      "velocity": 43,
      "track": 0
    },
    {
      "pitch": 80,
      "start_beat": 74.0,
      "duration_beat": 0.71041666666666,
      "velocity": 43,
      "track": 0
    },
    {
      "pitch": 83,
      "start_beat": 74.0,
      "duration_beat": 0.71041666666666,
      "velocity": 43,
      "track": 0
    },
    {
      "pitch": 76,
      "start_beat": 74.0,
      "duration_beat": 0.35520833333333,
      "velocity": 33,
      "track": 0
    },
    {
      "pitch": 76,
      "start_beat": 74.0,
      "duration_beat": 0.125,
      "velocity": 13,
      "track": 0
    },
    {
      "pitch": 52,
      "start_beat": 74.0,
      "duration_beat": 0.23541666666666572,
      "velocity": 33,
      "track": 1
    },
    {
      "pitch": 52,
      "start_beat": 74.0,
      "duration_beat": 0.23541666666666572,
      "velocity": 43,
      "track": 1
    },
    {
      "pitch": 56,
      "start_beat": 74.0,
      "duration_beat": 0.23541666666666572,
      "velocity": 43,
      "track": 1
    },
    {
      "pitch": 59,
      "start_beat": 74.0,
      "duration_beat": 0.23541666666666572,
      "velocity": 43,
      "track": 1
    },
    {
      "pitch": 52,
      "start_beat": 74.0,
      "duration_beat": 0.11770833333333286,
      "velocity": 33,
      "track": 1
    },
    {
      "pitch": 52,
      "start_beat": 74.0,
      "duration_beat": 0.125,
      "velocity": 13,
      "track": 1
    },
    {
      "pitch": 83,
      "start_beat": 74.125,
      "duration_beat": 0.35520833333333,
      "velocity": 33,
      "track": 0
    },
    {
      "pitch": 59,
      "start_beat": 74.125,
      "duration_beat": 0.11770833333333286,
      "velocity": 33,
      "track": 1
    },
    {
      "pitch": 88,
      "start_beat": 74.25,
      "duration_beat": 0.35520833333333,
      "velocity": 33,
      "track": 0
    },
    {
      "pitch": 76,
      "start_beat": 74.25,
      "duration_beat": 0.125,
      "velocity": 13,
      "track": 0
    },
    {
      "pitch": 64,
      "start_beat": 74.25,
      "duration_beat": 0.11770833333333286,
      "velocity": 33,
      "track": 1
    },
    {
      "pitch": 57,
      "start_beat": 74.25,
      "duration_beat": 0.23541666666666572,
      "velocity": 33,
      "track": 1
    },
    {
      "pitch": 57,
      "start_beat": 74.25,
      "duration_beat": 0.23541666666666572,
      "velocity": 43,
      "track": 1
    },
    {
      "pitch": 61,
      "start_beat": 74.25,
      "duration_beat": 0.23541666666666572,
      "velocity": 43,
      "track": 1
    },
    {
      "pitch": 64,
      "start_beat": 74.25,
      "duration_beat": 0.23541666666666572,
      "velocity": 43,
      "track": 1
    },
    {
      "pitch": 57,
      "start_beat": 74.25,
      "duration_beat": 0.11770833333333286,
      "velocity": 33,
      "track": 1
    },
    {
      "pitch": 57,
      "start_beat": 74.25,
      "duration_beat": 0.125,
      "velocity": 13,
      "track": 1
    },
    {
      "pitch": 64,
      "start_beat": 74.375,
      "duration_beat": 0.11770833333333286,
      "velocity": 33,
      "track": 1
    },
    {
      "pitch": 76,
      "start_beat": 74.5,
      "duration_beat": 0.125,
      "velocity": 13,
      "track": 0
    },
    {
      "pitch": 69,
      "start_beat": 74.5,
      "duration_beat": 0.11770833333333286,
      "velocity": 33,
      "track": 1
    },
    {
      "pitch": 60,
      "start_beat": 74.5,
      "duration_beat": 0.23541666666666572,
      "velocity": 33,
      "track": 1
    },
    {
      "pitch": 60,
      "start_beat": 74.5,
      "duration_beat": 0.23541666666666572,
      "velocity": 43,
      "track": 1
    },
    {
      "pitch": 64,
      "start_beat": 74.5,
      "duration_beat": 0.23541666666666572,
      "velocity": 43,
      "track": 1
    },
    {
      "pitch": 67,
      "start_beat": 74.5,
      "duration_beat": 0.23541666666666572,
      "velocity": 43,
      "track": 1
    },
    {
      "pitch": 60,
      "start_beat": 74.5,
      "duration_beat": 0.11770833333333286,
      "velocity": 33,
      "track": 1
    },
    {
      "pitch": 60,
      "start_beat": 74.5,
      "duration_beat": 0.125,
      "velocity": 13,
      "track": 1
    },
    {
      "pitch": 67,
      "start_beat": 74.625,
      "duration_beat": 0.11770833333333286,
      "velocity": 33,
      "track": 1
    },
    {
      "pitch": 72,
      "start_beat": 74.75,
      "duration_beat": 0.11770833333333286,
      "velocity": 33,
      "track": 1
    },
    {
      "pitch": 76,
      "start_beat": 74.75,
      "duration_beat": 0.23541666666666572,
      "velocity": 33,
      "track": 0
    },
    {
      "pitch": 76,
      "start_beat": 74.75,
      "duration_beat": 0.23541666666666572,
      "velocity": 43,
      "track": 0
    },
    {
      "pitch": 80,
      "start_beat": 74.75,
      "duration_beat": 0.23541666666666572,
      "velocity": 43,
      "track": 0
    },
    {
      "pitch": 83,
      "start_beat": 74.75,
      "duration_beat": 0.23541666666666572,
      "velocity": 43,
      "track": 0
    },
    {
      "pitch": 76,
      "start_beat": 74.75,
      "duration_beat": 0.11770833333333286,
      "velocity": 33,
      "track": 0
    },
    {
      "pitch": 76,
      "start_beat": 74.75,
      "duration_beat": 0.125,
      "velocity": 13,
      "track": 0
    },
    {
      "pitch": 57,
      "start_beat": 74.75,
      "duration_beat": 0.23541666666666572,
      "velocity": 33,
      "track": 1
    },
    {
      "pitch": 57,
      "start_beat": 74.75,
      "duration_beat": 0.23541666666666572,
      "velocity": 43,
      "track": 1
    },
    {
      "pitch": 61,
      "start_beat": 74.75,
      "duration_beat": 0.23541666666666572,
      "velocity": 43,
      "track": 1
    },
    {
      "pitch": 64,
      "start_beat": 74.75,
      "duration_beat": 0.23541666666666572,
      "velocity": 43,
      "track": 1
    },
    {
      "pitch": 57,
      "start_beat": 74.75,
      "duration_beat": 0.11770833333333286,
      "velocity": 33,
      "track": 1
    },
    {
      "pitch": 57,
      "start_beat": 74.75,
      "duration_beat": 0.125,
      "velocity": 13,
      "track": 1
    },
    {
      "pitch": 83,
      "start_beat": 74.875,
      "duration_beat": 0.11770833333333286,
      "velocity": 33,
      "track": 0
    },
    {
      "pitch": 64,
      "start_beat": 74.875,
      "duration_beat": 0.11770833333333286,
      "velocity": 33,
      "track": 1
    },
    {
      "pitch": 88,
      "start_beat": 75.0,
      "duration_beat": 0.11770833333333286,
      "velocity": 33,
      "track": 0
    },
    {
      "pitch": 69,
      "start_beat": 75.0,
      "duration_beat": 0.11770833333333286,
      "velocity": 33,
      "track": 1
    },
    {
      "pitch": 77,
      "start_beat": 75.0,
      "duration_beat": 0.23541666666666572,
      "velocity": 33,
      "track": 0
    },
    {
      "pitch": 77,
      "start_beat": 75.0,
      "duration_beat": 0.23541666666666572,
      "velocity": 43,
      "track": 0
    },
    {
      "pitch": 81,
      "start_beat": 75.0,
      "duration_beat": 0.23541666666666572,
      "velocity": 43,
      "track": 0
    },
    {
      "pitch": 84,
      "start_beat": 75.0,
      "duration_beat": 0.23541666666666572,
      "velocity": 43,
      "track": 0
    },
    {
      "pitch": 77,
      "start_beat": 75.0,
      "duration_beat": 0.11770833333333286,
      "velocity": 33,
      "track": 0
    },
    {
      "pitch": 77,
      "start_beat": 75.0,
      "duration_beat": 0.125,
      "velocity": 13,
      "track": 0
    },
    {
      "pitch": 50,
      "start_beat": 75.0,
      "duration_beat": 0.23541666666666572,
      "velocity": 33,
      "track": 1
    },
    {
      "pitch": 50,
      "start_beat": 75.0,
      "duration_beat": 0.23541666666666572,
      "velocity": 43,
      "track": 1
    },
    {
      "pitch": 54,
      "start_beat": 75.0,
      "duration_beat": 0.23541666666666572,
      "velocity": 43,
      "track": 1
    },
    {
      "pitch": 57,
      "start_beat": 75.0,
      "duration_beat": 0.23541666666666572,
      "velocity": 43,
      "track": 1
    },
    {
      "pitch": 50,
      "start_beat": 75.0,
      "duration_beat": 0.11770833333333286,
      "velocity": 33,
      "track": 1
    },
    {
      "pitch": 50,
      "start_beat": 75.0,
      "duration_beat": 0.125,
      "velocity": 13,
      "track": 1
    },
    {
      "pitch": 62,
      "start_beat": 75.0,
      "duration_beat": 0.23541666666666572,
      "velocity": 33,
      "track": 1
    },
    {
      "pitch": 62,
      "start_beat": 75.0,
      "duration_beat": 0.23541666666666572,
      "velocity": 43,
      "track": 1
    },
    {
      "pitch": 66,
      "start_beat": 75.0,
      "duration_beat": 0.23541666666666572,
      "velocity": 43,
      "track": 1
    },
    {
      "pitch": 69,
      "start_beat": 75.0,
      "duration_beat": 0.23541666666666572,
      "velocity": 43,
      "track": 1
    },
    {
      "pitch": 62,
      "start_beat": 75.0,
      "duration_beat": 0.11770833333333286,
      "velocity": 33,
      "track": 1
    },
    {
      "pitch": 62,
      "start_beat": 75.0,
      "duration_beat": 0.125,
      "velocity": 13,
      "track": 1
    },
    {
      "pitch": 84,
      "start_beat": 75.125,
      "duration_beat": 0.11770833333333286,
      "velocity": 33,
      "track": 0
    },
    {
      "pitch": 57,
      "start_beat": 75.125,
      "duration_beat": 0.11770833333333286,
      "velocity": 33,
      "track": 1
    },
    {
      "pitch": 69,
      "start_beat": 75.125,
      "duration_beat": 0.11770833333333286,
      "velocity": 33,
      "track": 1
    },
    {
      "pitch": 89,
      "start_beat": 75.25,
      "duration_beat": 0.11770833333333286,
      "velocity": 33,
      "track": 0
    },
    {
      "pitch": 62,
      "start_beat": 75.25,
      "duration_beat": 0.11770833333333286,
      "velocity": 33,
      "track": 1
    },
    {
      "pitch": 74,
      "start_beat": 75.25,
      "duration_beat": 0.11770833333333286,
      "velocity": 33,
      "track": 1
    },
    {
      "pitch": 69,
      "start_beat": 75.25,
      "duration_beat": 0.23541666666666572,
      "velocity": 33,
      "track": 0
    },
    {
      "pitch": 69,
      "start_beat": 75.25,
      "duration_beat": 0.23541666666666572,
      "velocity": 43,
      "track": 0
    },
    {
      "pitch": 73,
      "start_beat": 75.25,
      "duration_beat": 0.23541666666666572,
      "velocity": 43,
      "track": 0
    },
    {
      "pitch": 76,
      "start_beat": 75.25,
      "duration_beat": 0.23541666666666572,
      "velocity": 43,
      "track": 0
    },
    {
      "pitch": 69,
      "start_beat": 75.25,
      "duration_beat": 0.11770833333333286,
      "velocity": 33,
      "track": 0
    },
    {
      "pitch": 69,
      "start_beat": 75.25,
      "duration_beat": 0.125,
      "velocity": 13,
      "track": 0
    },
    {
      "pitch": 53,
      "start_beat": 75.25,
      "duration_beat": 0.23541666666666572,
      "velocity": 33,
      "track": 1
    },
    {
      "pitch": 53,
      "start_beat": 75.25,
      "duration_beat": 0.23541666666666572,
      "velocity": 43,
      "track": 1
    },
    {
      "pitch": 57,
      "start_beat": 75.25,
      "duration_beat": 0.23541666666666572,
      "velocity": 43,
      "track": 1
    },
    {
      "pitch": 60,
      "start_beat": 75.25,
      "duration_beat": 0.23541666666666572,
      "velocity": 43,
      "track": 1
    },
    {
      "pitch": 53,
      "start_beat": 75.25,
      "duration_beat": 0.11770833333333286,
      "velocity": 33,
      "track": 1
    },
    {
      "pitch": 53,
      "start_beat": 75.25,
      "duration_beat": 0.125,
      "velocity": 13,
      "track": 1
    },
    {
      "pitch": 76,
      "start_beat": 75.375,
      "duration_beat": 0.11770833333333286,
      "velocity": 33,
      "track": 0
    },
    {
      "pitch": 60,
      "start_beat": 75.375,
      "duration_beat": 0.11770833333333286,
      "velocity": 33,
      "track": 1
    },
    {
      "pitch": 81,
      "start_beat": 75.5,
      "duration_beat": 0.11770833333333286,
      "velocity": 33,
      "track": 0
    },
    {
      "pitch": 65,
      "start_beat": 75.5,
      "duration_beat": 0.11770833333333286,
      "velocity": 33,
      "track": 1
    },
    {
      "pitch": 72,
      "start_beat": 75.5,
      "duration_beat": 0.9479166666666714,
      "velocity": 33,
      "track": 0
    },
    {
      "pitch": 72,
      "start_beat": 75.5,
      "duration_beat": 0.9479166666666714,
      "velocity": 43,
      "track": 0
    },
    {
      "pitch": 76,
      "start_beat": 75.5,
      "duration_beat": 0.9479166666666714,
      "velocity": 43,
      "track": 0
    },
    {
      "pitch": 79,
      "start_beat": 75.5,
      "duration_beat": 0.9479166666666714,
      "velocity": 43,
      "track": 0
    },
    {
      "pitch": 72,
      "start_beat": 75.5,
      "duration_beat": 0.4739583333333357,
      "velocity": 33,
      "track": 0
    },
    {
      "pitch": 72,
      "start_beat": 75.5,
      "duration_beat": 0.125,
      "velocity": 13,
      "track": 0
    },
    {
      "pitch": 55,
      "start_beat": 75.5,
      "duration_beat": 0.23541666666666572,
      "velocity": 33,
      "track": 1
    },
    {
      "pitch": 55,
      "start_beat": 75.5,
      "duration_beat": 0.23541666666666572,
      "velocity": 43,
      "track": 1
    },
    {
      "pitch": 59,
      "start_beat": 75.5,
      "duration_beat": 0.23541666666666572,
      "velocity": 43,
      "track": 1
    },
    {
      "pitch": 62,
      "start_beat": 75.5,
      "duration_beat": 0.23541666666666572,
      "velocity": 43,
      "track": 1
    },
    {
      "pitch": 55,
      "start_beat": 75.5,
      "duration_beat": 0.11770833333333286,
      "velocity": 33,
      "track": 1
    },
    {
      "pitch": 55,
      "start_beat": 75.5,
      "duration_beat": 0.125,
      "velocity": 13,
      "track": 1
    },
    {
      "pitch": 79,
      "start_beat": 75.625,
      "duration_beat": 0.4739583333333357,
      "velocity": 33,
      "track": 0
    },
    {
      "pitch": 62,
      "start_beat": 75.625,
      "duration_beat": 0.11770833333333286,
      "velocity": 33,
      "track": 1
    },
    {
      "pitch": 84,
      "start_beat": 75.75,
      "duration_beat": 0.4739583333333357,
      "velocity": 33,
      "track": 0
    },
    {
      "pitch": 72,
      "start_beat": 75.75,
      "duration_beat": 0.125,
      "velocity": 13,
      "track": 0
    },
    {
      "pitch": 67,
      "start_beat": 75.75,
      "duration_beat": 0.11770833333333286,
      "velocity": 33,
      "track": 1
    },
    {
      "pitch": 64,
      "start_beat": 75.75,
      "duration_beat": 0.23541666666666572,
      "velocity": 33,
      "track": 1
    },
    {
      "pitch": 64,
      "start_beat": 75.75,
      "duration_beat": 0.23541666666666572,
      "velocity": 43,
      "track": 1
    },
    {
      "pitch": 68,
      "start_beat": 75.75,
      "duration_beat": 0.23541666666666572,
      "velocity": 43,
      "track": 1
    },
    {
      "pitch": 71,
      "start_beat": 75.75,
      "duration_beat": 0.23541666666666572,
      "velocity": 43,
      "track": 1
    },
    {
      "pitch": 64,
      "start_beat": 75.75,
      "duration_beat": 0.11770833333333286,
      "velocity": 33,
      "track": 1
    },
    {
      "pitch": 64,
      "start_beat": 75.75,
      "duration_beat": 0.125,
      "velocity": 13,
      "track": 1
    },
    {
      "pitch": 71,
      "start_beat": 75.875,
      "duration_beat": 0.11770833333333286,
      "velocity": 33,
      "track": 1
    },
    {
      "pitch": 72,
      "start_beat": 76.0,
      "duration_beat": 0.125,
      "velocity": 13,
      "track": 0
    },
    {
      "pitch": 76,
      "start_beat": 76.0,
      "duration_beat": 0.11770833333333286,
      "velocity": 33,
      "track": 1
    },
    {
      "pitch": 55,
      "start_beat": 76.0,
      "duration_beat": 0.23541666666666572,
      "velocity": 33,
      "track": 1
    },
    {
      "pitch": 55,
      "start_beat": 76.0,
      "duration_beat": 0.23541666666666572,
      "velocity": 43,
      "track": 1
    },
    {
      "pitch": 59,
      "start_beat": 76.0,
      "duration_beat": 0.23541666666666572,
      "velocity": 43,
      "track": 1
    },
    {
      "pitch": 62,
      "start_beat": 76.0,
      "duration_beat": 0.23541666666666572,
      "velocity": 43,
      "track": 1
    },
    {
      "pitch": 55,
      "start_beat": 76.0,
      "duration_beat": 0.11770833333333286,
      "velocity": 33,
      "track": 1
    },
    {
      "pitch": 55,
      "start_beat": 76.0,
      "duration_beat": 0.125,
      "velocity": 13,
      "track": 1
    },
    {
      "pitch": 62,
      "start_beat": 76.125,
      "duration_beat": 0.11770833333333286,
      "velocity": 33,
      "track": 1
    },
    {
      "pitch": 72,
      "start_beat": 76.25,
      "duration_beat": 0.125,
      "velocity": 13,
      "track": 0
    },
    {
      "pitch": 67,
      "start_beat": 76.25,
      "duration_beat": 0.11770833333333286,
      "velocity": 33,
      "track": 1
    },
    {
      "pitch": 65,
      "start_beat": 76.25,
      "duration_beat": 0.23541666666666572,
      "velocity": 33,
      "track": 1
    },
    {
      "pitch": 65,
      "start_beat": 76.25,
      "duration_beat": 0.23541666666666572,
      "velocity": 43,
      "track": 1
    },
    {
      "pitch": 69,
      "start_beat": 76.25,
      "duration_beat": 0.23541666666666572,
      "velocity": 43,
      "track": 1
    },
    {
      "pitch": 72,
      "start_beat": 76.25,
      "duration_beat": 0.23541666666666572,
      "velocity": 43,
      "track": 1
    },
    {
      "pitch": 65,
      "start_beat": 76.25,
      "duration_beat": 0.11770833333333286,
      "velocity": 33,
      "track": 1
    },
    {
      "pitch": 65,
      "start_beat": 76.25,
      "duration_beat": 0.125,
      "velocity": 13,
      "track": 1
    },
    {
      "pitch": 72,
      "start_beat": 76.375,
      "duration_beat": 0.11770833333333286,
      "velocity": 33,
      "track": 1
    },
    {
      "pitch": 77,
      "start_beat": 76.5,
      "duration_beat": 0.11770833333333286,
      "velocity": 33,
      "track": 1
    },
    {
      "pitch": 74,
      "start_beat": 76.5,
      "duration_beat": 0.3541666666666714,
      "velocity": 33,
      "track": 0
    },
    {
      "pitch": 74,
      "start_beat": 76.5,
      "duration_beat": 0.3541666666666714,
      "velocity": 43,
      "track": 0
    },
    {
      "pitch": 78,
      "start_beat": 76.5,
      "duration_beat": 0.3541666666666714,
      "velocity": 43,
      "track": 0
    },
    {
      "pitch": 81,
      "start_beat": 76.5,
      "duration_beat": 0.3541666666666714,
      "velocity": 43,
      "track": 0
    },
    {
      "pitch": 74,
      "start_beat": 76.5,
      "duration_beat": 0.1770833333333357,
      "velocity": 33,
      "track": 0
    },
    {
      "pitch": 74,
      "start_beat": 76.5,
      "duration_beat": 0.125,
      "velocity": 13,
      "track": 0
    },
    {
      "pitch": 55,
      "start_beat": 76.5,
      "duration_beat": 0.23541666666666572,
      "velocity": 33,
      "track": 1
    },
    {
      "pitch": 55,
      "start_beat": 76.5,
      "duration_beat": 0.23541666666666572,
      "velocity": 43,
      "track": 1
    },
    {
      "pitch": 59,
      "start_beat": 76.5,
      "duration_beat": 0.23541666666666572,
      "velocity": 43,
      "track": 1
    },
    {
      "pitch": 62,
      "start_beat": 76.5,
      "duration_beat": 0.23541666666666572,
      "velocity": 43,
      "track": 1
    },
    {
      "pitch": 55,
      "start_beat": 76.5,
      "duration_beat": 0.11770833333333286,
      "velocity": 33,
      "track": 1
    },
    {
      "pitch": 55,
      "start_beat": 76.5,
      "duration_beat": 0.125,
      "velocity": 13,
      "track": 1
    },
    {
      "pitch": 81,
      "start_beat": 76.625,
      "duration_beat": 0.1770833333333357,
      "velocity": 33,
      "track": 0
    },
    {
      "pitch": 62,
      "start_beat": 76.625,
      "duration_beat": 0.11770833333333286,
      "velocity": 33,
      "track": 1
    },
    {
      "pitch": 86,
      "start_beat": 76.75,
      "duration_beat": 0.1770833333333357,
      "velocity": 33,
      "track": 0
    },
    {
      "pitch": 74,
      "start_beat": 76.75,
      "duration_beat": 0.125,
      "velocity": 13,
      "track": 0
    },
    {
      "pitch": 67,
      "start_beat": 76.75,
      "duration_beat": 0.11770833333333286,
      "velocity": 33,
      "track": 1
    },
    {
      "pitch": 65,
      "start_beat": 76.75,
      "duration_beat": 0.23541666666666572,
      "velocity": 33,
      "track": 1
    },
    {
      "pitch": 65,
      "start_beat": 76.75,
      "duration_beat": 0.23541666666666572,
      "velocity": 43,
      "track": 1
    },
    {
      "pitch": 69,
      "start_beat": 76.75,
      "duration_beat": 0.23541666666666572,
      "velocity": 43,
      "track": 1
    },
    {
      "pitch": 72,
      "start_beat": 76.75,
      "duration_beat": 0.23541666666666572,
      "velocity": 43,
      "track": 1
    },
    {
      "pitch": 65,
      "start_beat": 76.75,
      "duration_beat": 0.11770833333333286,
      "velocity": 33,
      "track": 1
    },
    {
      "pitch": 65,
      "start_beat": 76.75,
      "duration_beat": 0.125,
      "velocity": 13,
      "track": 1
    },
    {
      "pitch": 72,
      "start_beat": 76.875,
      "duration_beat": 0.11770833333333286,
      "velocity": 33,
      "track": 1
    },
    {
      "pitch": 71,
      "start_beat": 76.875,
      "duration_beat": 0.11666666666666003,
      "velocity": 33,
      "track": 0
    },
    {
      "pitch": 71,
      "start_beat": 76.875,
      "duration_beat": 0.11666666666666003,
      "velocity": 43,
      "track": 0
    },
    {
      "pitch": 75,
      "start_beat": 76.875,
      "duration_beat": 0.11666666666666003,
      "velocity": 43,
      "track": 0
    },
    {
      "pitch": 78,
      "start_beat": 76.875,
      "duration_beat": 0.11666666666666003,
      "velocity": 43,
      "track": 0
    },
    {
      "pitch": 71,
      "start_beat": 76.875,
      "duration_beat": 0.05833333333333002,
      "velocity": 33,
      "track": 0
    },
    {
      "pitch": 71,
      "start_beat": 76.875,
      "duration_beat": 0.125,
      "velocity": 13,
      "track": 0
    },
    {
      "pitch": 77,
      "start_beat": 77.0,
      "duration_beat": 0.11770833333333286,
      "velocity": 33,
      "track": 1
    },
    {
      "pitch": 78,
      "start_beat": 77.0,
      "duration_beat": 0.05833333333333002,
      "velocity": 33,
      "track": 0
    },
    {
      "pitch": 72,
      "start_beat": 77.0,
      "duration_beat": 0.11666666666666003,
      "velocity": 33,
      "track": 0
    },
    {
      "pitch": 72,
      "start_beat": 77.0,
      "duration_beat": 0.11666666666666003,
      "velocity": 43,
      "track": 0
    },
    {
      "pitch": 76,
      "start_beat": 77.0,
      "duration_beat": 0.11666666666666003,
      "velocity": 43,
      "track": 0
    },
    {
      "pitch": 79,
      "start_beat": 77.0,
      "duration_beat": 0.11666666666666003,
      "velocity": 43,
      "track": 0
    },
    {
      "pitch": 72,
      "start_beat": 77.0,
      "duration_beat": 0.05833333333333002,
      "velocity": 33,
      "track": 0
    },
    {
      "pitch": 72,
      "start_beat": 77.0,
      "duration_beat": 0.125,
      "velocity": 13,
      "track": 0
    },
    {
      "pitch": 60,
      "start_beat": 77.0,
      "duration_beat": 0.4729166666666629,
      "velocity": 33,
      "track": 1
    },
    {
      "pitch": 60,
      "start_beat": 77.0,
      "duration_beat": 0.4729166666666629,
      "velocity": 43,
      "track": 1
    },
    {
      "pitch": 64,
      "start_beat": 77.0,
      "duration_beat": 0.4729166666666629,
      "velocity": 43,
      "track": 1
    },
    {
      "pitch": 67,
      "start_beat": 77.0,
      "duration_beat": 0.4729166666666629,
      "velocity": 43,
      "track": 1
    },
    {
      "pitch": 60,
      "start_beat": 77.0,
      "duration_beat": 0.23645833333333144,
      "velocity": 33,
      "track": 1
    },
    {
      "pitch": 60,
      "start_beat": 77.0,
      "duration_beat": 0.125,
      "velocity": 13,
      "track": 1
    },
    {
      "pitch": 64,
      "start_beat": 77.0,
      "duration_beat": 0.4729166666666629,
      "velocity": 33,
      "track": 1
    },
    {
      "pitch": 64,
      "start_beat": 77.0,
      "duration_beat": 0.4729166666666629,
      "velocity": 43,
      "track": 1
    },
    {
      "pitch": 68,
      "start_beat": 77.0,
      "duration_beat": 0.4729166666666629,
      "velocity": 43,
      "track": 1
    },
    {
      "pitch": 71,
      "start_beat": 77.0,
      "duration_beat": 0.4729166666666629,
      "velocity": 43,
      "track": 1
    },
    {
      "pitch": 64,
      "start_beat": 77.0,
      "duration_beat": 0.23645833333333144,
      "velocity": 33,
      "track": 1
    },
    {
      "pitch": 64,
      "start_beat": 77.0,
      "duration_beat": 0.125,
      "velocity": 13,
      "track": 1
    },
    {
      "pitch": 83,
      "start_beat": 77.125,
      "duration_beat": 0.05833333333333002,
      "velocity": 33,
      "track": 0
    },
    {
      "pitch": 79,
      "start_beat": 77.125,
      "duration_beat": 0.05833333333333002,
      "velocity": 33,
      "track": 0
    },
    {
      "pitch": 67,
      "start_beat": 77.125,
      "duration_beat": 0.23645833333333144,
      "velocity": 33,
      "track": 1
    },
    {
      "pitch": 71,
      "start_beat": 77.125,
      "duration_beat": 0.23645833333333144,
      "velocity": 33,
      "track": 1
    },
    {
      "pitch": 79,
      "start_beat": 77.125,
      "duration_beat": 0.11666666666666003,
      "velocity": 33,
      "track": 0
    },
    {
      "pitch": 79,
      "start_beat": 77.125,
      "duration_beat": 0.11666666666666003,
      "velocity": 43,
      "track": 0
    },
    {
      "pitch": 83,
      "start_beat": 77.125,
      "duration_beat": 0.11666666666666003,
      "velocity": 43,
      "track": 0
    },
    {
      "pitch": 86,
      "start_beat": 77.125,
      "duration_beat": 0.11666666666666003,
      "velocity": 43,
      "track": 0
    },
    {
      "pitch": 79,
      "start_beat": 77.125,
      "duration_beat": 0.05833333333333002,
      "velocity": 33,
      "track": 0
    },
    {
      "pitch": 79,
      "start_beat": 77.125,
      "duration_beat": 0.125,
      "velocity": 13,
      "track": 0
    },
    {
      "pitch": 84,
      "start_beat": 77.25,
      "duration_beat": 0.05833333333333002,
      "velocity": 33,
      "track": 0
    },
    {
      "pitch": 72,
      "start_beat": 77.25,
      "duration_beat": 0.23645833333333144,
      "velocity": 33,
      "track": 1
    },
    {
      "pitch": 60,
      "start_beat": 77.25,
      "duration_beat": 0.125,
      "velocity": 13,
      "track": 1
    },
    {
      "pitch": 76,
      "start_beat": 77.25,
      "duration_beat": 0.23645833333333144,
      "velocity": 33,
      "track": 1
    },
    {
      "pitch": 64,
      "start_beat": 77.25,
      "duration_beat": 0.125,
      "velocity": 13,
      "track": 1
    },
    {
      "pitch": 86,
      "start_beat": 77.25,
      "duration_beat": 0.05833333333333002,
      "velocity": 33,
      "track": 0
    },
    {
      "pitch": 67,
      "start_beat": 77.25,
      "duration_beat": 0.11666666666666003,
      "velocity": 33,
      "track": 0
    },
    {
      "pitch": 67,
      "start_beat": 77.25,
      "duration_beat": 0.11666666666666003,
      "velocity": 43,
      "track": 0
    },
    {
      "pitch": 71,
      "start_beat": 77.25,
      "duration_beat": 0.11666666666666003,
      "velocity": 43,
      "track": 0
    },
    {
      "pitch": 74,
      "start_beat": 77.25,
      "duration_beat": 0.11666666666666003,
      "velocity": 43,
      "track": 0
    },
    {
      "pitch": 67,
      "start_beat": 77.25,
      "duration_beat": 0.05833333333333002,
      "velocity": 33,
      "track": 0
    },
    {
      "pitch": 67,
      "start_beat": 77.25,
      "duration_beat": 0.125,
      "velocity": 13,
      "track": 0
    },
    {
      "pitch": 91,
      "start_beat": 77.375,
      "duration_beat": 0.05833333333333002,
      "velocity": 33,
      "track": 0
    },
    {
      "pitch": 74,
      "start_beat": 77.375,
      "duration_beat": 0.05833333333333002,
      "velocity": 33,
      "track": 0
    },
    {
      "pitch": 79,
      "start_beat": 77.375,
      "duration_beat": 0.11666666666666003,
      "velocity": 33,
      "track": 0
    },
    {
      "pitch": 79,
      "start_beat": 77.375,
      "duration_beat": 0.11666666666666003,
      "velocity": 43,
      "track": 0
    },
    {
      "pitch": 83,
      "start_beat": 77.375,
      "duration_beat": 0.11666666666666003,
      "velocity": 43,
      "track": 0
    },
    {
      "pitch": 86,
      "start_beat": 77.375,
      "duration_beat": 0.11666666666666003,
      "velocity": 43,
      "track": 0
    },
    {
      "pitch": 79,
      "start_beat": 77.375,
      "duration_beat": 0.05833333333333002,
      "velocity": 33,
      "track": 0
    },
    {
      "pitch": 79,
      "start_beat": 77.375,
      "duration_beat": 0.125,
      "velocity": 13,
      "track": 0
    },
    {
      "pitch": 79,
      "start_beat": 77.5,
      "duration_beat": 0.05833333333333002,
      "velocity": 33,
      "track": 0
    },
    {
      "pitch": 86,
      "start_beat": 77.5,
      "duration_beat": 0.05833333333333002,
      "velocity": 33,
      "track": 0
    },
    {
      "pitch": 69,
      "start_beat": 77.5,
      "duration_beat": 0.11666666666666003,
      "velocity": 33,
      "track": 0
    },
    {
      "pitch": 69,
      "start_beat": 77.5,
      "duration_beat": 0.11666666666666003,
      "velocity": 43,
      "track": 0
    },
    {
      "pitch": 73,
      "start_beat": 77.5,
      "duration_beat": 0.11666666666666003,
      "velocity": 43,
      "track": 0
    },
    {
      "pitch": 76,
      "start_beat": 77.5,
      "duration_beat": 0.11666666666666003,
      "velocity": 43,
      "track": 0
    },
    {
      "pitch": 69,
      "start_beat": 77.5,
      "duration_beat": 0.05833333333333002,
      "velocity": 33,
      "track": 0
    },
    {
      "pitch": 69,
      "start_beat": 77.5,
      "duration_beat": 0.125,
      "velocity": 13,
      "track": 0
    },
    {
      "pitch": 91,
      "start_beat": 77.625,
      "duration_beat": 0.05833333333333002,
      "velocity": 33,
      "track": 0
    },
    {
      "pitch": 76,
      "start_beat": 77.625,
      "duration_beat": 0.05833333333333002,
      "velocity": 33,
      "track": 0
    },
    {
      "pitch": 79,
      "start_beat": 77.625,
      "duration_beat": 0.11666666666666003,
      "velocity": 33,
      "track": 0
    },
    {
      "pitch": 79,
      "start_beat": 77.625,
      "duration_beat": 0.11666666666666003,
      "velocity": 43,
      "track": 0
    },
    {
      "pitch": 83,
      "start_beat": 77.625,
      "duration_beat": 0.11666666666666003,
      "velocity": 43,
      "track": 0
    },
    {
      "pitch": 86,
      "start_beat": 77.625,
      "duration_beat": 0.11666666666666003,
      "velocity": 43,
      "track": 0
    },
    {
      "pitch": 79,
      "start_beat": 77.625,
      "duration_beat": 0.05833333333333002,
      "velocity": 33,
      "track": 0
    },
    {
      "pitch": 79,
      "start_beat": 77.625,
      "duration_beat": 0.125,
      "velocity": 13,
      "track": 0
    },
    {
      "pitch": 81,
      "start_beat": 77.75,
      "duration_beat": 0.05833333333333002,
      "velocity": 33,
      "track": 0
    },
    {
      "pitch": 86,
      "start_beat": 77.75,
      "duration_beat": 0.05833333333333002,
      "velocity": 33,
      "track": 0
    },
    {
      "pitch": 71,
      "start_beat": 77.75,
      "duration_beat": 0.11666666666666003,
      "velocity": 33,
      "track": 0
    },
    {
      "pitch": 71,
      "start_beat": 77.75,
      "duration_beat": 0.11666666666666003,
      "velocity": 43,
      "track": 0
    },
    {
      "pitch": 75,
      "start_beat": 77.75,
      "duration_beat": 0.11666666666666003,
      "velocity": 43,
      "track": 0
    },
    {
      "pitch": 78,
      "start_beat": 77.75,
      "duration_beat": 0.11666666666666003,
      "velocity": 43,
      "track": 0
    },
    {
      "pitch": 71,
      "start_beat": 77.75,
      "duration_beat": 0.05833333333333002,
      "velocity": 33,
      "track": 0
    },
    {
      "pitch": 71,
      "start_beat": 77.75,
      "duration_beat": 0.125,
      "velocity": 13,
      "track": 0
    },
    {
      "pitch": 65,
      "start_beat": 77.75,
      "duration_beat": 0.23541666666666572,
      "velocity": 33,
      "track": 1
    },
    {
      "pitch": 65,
      "start_beat": 77.75,
      "duration_beat": 0.23541666666666572,
      "velocity": 43,
      "track": 1
    },
    {
      "pitch": 69,
      "start_beat": 77.75,
      "duration_beat": 0.23541666666666572,
      "velocity": 43,
      "track": 1
    },
    {
      "pitch": 72,
      "start_beat": 77.75,
      "duration_beat": 0.23541666666666572,
      "velocity": 43,
      "track": 1
    },
    {
      "pitch": 65,
      "start_beat": 77.75,
      "duration_beat": 0.11770833333333286,
      "velocity": 33,
      "track": 1
    },
    {
      "pitch": 65,
      "start_beat": 77.75,
      "duration_beat": 0.125,
      "velocity": 13,
      "track": 1
    },
    {
      "pitch": 67,
      "start_beat": 77.75,
      "duration_beat": 0.23541666666666572,
      "velocity": 33,
      "track": 1
    },
    {
      "pitch": 67,
      "start_beat": 77.75,
      "duration_beat": 0.23541666666666572,
      "velocity": 43,
      "track": 1
    },
    {
      "pitch": 71,
      "start_beat": 77.75,
      "duration_beat": 0.23541666666666572,
      "velocity": 43,
      "track": 1
    },
    {
      "pitch": 74,
      "start_beat": 77.75,
      "duration_beat": 0.23541666666666572,
      "velocity": 43,
      "track": 1
    },
    {
      "pitch": 67,
      "start_beat": 77.75,
      "duration_beat": 0.11770833333333286,
      "velocity": 33,
      "track": 1
    },
    {
      "pitch": 67,
      "start_beat": 77.75,
      "duration_beat": 0.125,
      "velocity": 13,
      "track": 1
    },
    {
      "pitch": 91,
      "start_beat": 77.875,
      "duration_beat": 0.05833333333333002,
      "velocity": 33,
      "track": 0
    },
    {
      "pitch": 78,
      "start_beat": 77.875,
      "duration_beat": 0.05833333333333002,
      "velocity": 33,
      "track": 0
    },
    {
      "pitch": 72,
      "start_beat": 77.875,
      "duration_beat": 0.11770833333333286,
      "velocity": 33,
      "track": 1
    },
    {
      "pitch": 74,
      "start_beat": 77.875,
      "duration_beat": 0.11770833333333286,
      "velocity": 33,
      "track": 1
    },
    {
      "pitch": 79,
      "start_beat": 77.875,
      "duration_beat": 0.11666666666666003,
      "velocity": 33,
      "track": 0
    },
    {
      "pitch": 79,
      "start_beat": 77.875,
      "duration_beat": 0.11666666666666003,
      "velocity": 43,
      "track": 0
    },
    {
      "pitch": 83,
      "start_beat": 77.875,
      "duration_beat": 0.11666666666666003,
      "velocity": 43,
      "track": 0
    },
    {
      "pitch": 86,
      "start_beat": 77.875,
      "duration_beat": 0.11666666666666003,
      "velocity": 43,
      "track": 0
    },
    {
      "pitch": 79,
      "start_beat": 77.875,
      "duration_beat": 0.05833333333333002,
      "velocity": 33,
      "track": 0
    },
    {
      "pitch": 79,
      "start_beat": 77.875,
      "duration_beat": 0.125,
      "velocity": 13,
      "track": 0
    },
    {
      "pitch": 83,
      "start_beat": 78.0,
      "duration_beat": 0.05833333333333002,
      "velocity": 33,
      "track": 0
    },
    {
      "pitch": 77,
      "start_beat": 78.0,
      "duration_beat": 0.11770833333333286,
      "velocity": 33,
      "track": 1
    },
    {
      "pitch": 79,
      "start_beat": 78.0,
      "duration_beat": 0.11770833333333286,
      "velocity": 33,
      "track": 1
    },
    {
      "pitch": 86,
      "start_beat": 78.0,
      "duration_beat": 0.05833333333333002,
      "velocity": 33,
      "track": 0
    },
    {
      "pitch": 72,
      "start_beat": 78.0,
      "duration_beat": 0.11666666666666003,
      "velocity": 33,
      "track": 0
    },
    {
      "pitch": 72,
      "start_beat": 78.0,
      "duration_beat": 0.11666666666666003,
      "velocity": 43,
      "track": 0
    },
    {
      "pitch": 76,
      "start_beat": 78.0,
      "duration_beat": 0.11666666666666003,
      "velocity": 43,
      "track": 0
    },
    {
      "pitch": 79,
      "start_beat": 78.0,
      "duration_beat": 0.11666666666666003,
      "velocity": 43,
      "track": 0
    },
    {
      "pitch": 72,
      "start_beat": 78.0,
      "duration_beat": 0.05833333333333002,
      "velocity": 33,
      "track": 0
    },
    {
      "pitch": 72,
      "start_beat": 78.0,
      "duration_beat": 0.125,
      "velocity": 13,
      "track": 0
    },
    {
      "pitch": 64,
      "start_beat": 78.0,
      "duration_beat": 0.23541666666666572,
      "velocity": 33,
      "track": 1
    },
    {
      "pitch": 64,
      "start_beat": 78.0,
      "duration_beat": 0.23541666666666572,
      "velocity": 43,
      "track": 1
    },
    {
      "pitch": 68,
      "start_beat": 78.0,
      "duration_beat": 0.23541666666666572,
      "velocity": 43,
      "track": 1
    },
    {
      "pitch": 71,
      "start_beat": 78.0,
      "duration_beat": 0.23541666666666572,
      "velocity": 43,
      "track": 1
    },
    {
      "pitch": 64,
      "start_beat": 78.0,
      "duration_beat": 0.11770833333333286,
      "velocity": 33,
      "track": 1
    },
    {
      "pitch": 64,
      "start_beat": 78.0,
      "duration_beat": 0.125,
      "velocity": 13,
      "track": 1
    },
    {
      "pitch": 67,
      "start_beat": 78.0,
      "duration_beat": 0.23541666666666572,
      "velocity": 33,
      "track": 1
    },
    {
      "pitch": 67,
      "start_beat": 78.0,
      "duration_beat": 0.23541666666666572,
      "velocity": 43,
      "track": 1
    },
    {
      "pitch": 71,
      "start_beat": 78.0,
      "duration_beat": 0.23541666666666572,
      "velocity": 43,
      "track": 1
    },
    {
      "pitch": 74,
      "start_beat": 78.0,
      "duration_beat": 0.23541666666666572,
      "velocity": 43,
      "track": 1
    },
    {
      "pitch": 67,
      "start_beat": 78.0,
      "duration_beat": 0.11770833333333286,
      "velocity": 33,
      "track": 1
    },
    {
      "pitch": 67,
      "start_beat": 78.0,
      "duration_beat": 0.125,
      "velocity": 13,
      "track": 1
    },
    {
      "pitch": 91,
      "start_beat": 78.125,
      "duration_beat": 0.05833333333333002,
      "velocity": 33,
      "track": 0
    },
    {
      "pitch": 79,
      "start_beat": 78.125,
      "duration_beat": 0.05833333333333002,
      "velocity": 33,
      "track": 0
    },
    {
      "pitch": 71,
      "start_beat": 78.125,
      "duration_beat": 0.11770833333333286,
      "velocity": 33,
      "track": 1
    },
    {
      "pitch": 74,
      "start_beat": 78.125,
      "duration_beat": 0.11770833333333286,
      "velocity": 33,
      "track": 1
    },
    {
      "pitch": 79,
      "start_beat": 78.125,
      "duration_beat": 0.11666666666666003,
      "velocity": 33,
      "track": 0
    },
    {
      "pitch": 79,
      "start_beat": 78.125,
      "duration_beat": 0.11666666666666003,
      "velocity": 43,
      "track": 0
    },
    {
      "pitch": 83,
      "start_beat": 78.125,
      "duration_beat": 0.11666666666666003,
      "velocity": 43,
      "track": 0
    },
    {
      "pitch": 86,
      "start_beat": 78.125,
      "duration_beat": 0.11666666666666003,
      "velocity": 43,
      "track": 0
    },
    {
      "pitch": 79,
      "start_beat": 78.125,
      "duration_beat": 0.05833333333333002,
      "velocity": 33,
      "track": 0
    },
    {
      "pitch": 79,
      "start_beat": 78.125,
      "duration_beat": 0.125,
      "velocity": 13,
      "track": 0
    },
    {
      "pitch": 84,
      "start_beat": 78.25,
      "duration_beat": 0.05833333333333002,
      "velocity": 33,
      "track": 0
    },
    {
      "pitch": 76,
      "start_beat": 78.25,
      "duration_beat": 0.11770833333333286,
      "velocity": 33,
      "track": 1
    },
    {
      "pitch": 79,
      "start_beat": 78.25,
      "duration_beat": 0.11770833333333286,
      "velocity": 33,
      "track": 1
    },
    {
      "pitch": 86,
      "start_beat": 78.25,
      "duration_beat": 0.05833333333333002,
      "velocity": 33,
      "track": 0
    },
    {
      "pitch": 74,
      "start_beat": 78.25,
      "duration_beat": 0.11666666666666003,
      "velocity": 33,
      "track": 0
    },
    {
      "pitch": 74,
      "start_beat": 78.25,
      "duration_beat": 0.11666666666666003,
      "velocity": 43,
      "track": 0
    },
    {
      "pitch": 78,
      "start_beat": 78.25,
      "duration_beat": 0.11666666666666003,
      "velocity": 43,
      "track": 0
    },
    {
      "pitch": 81,
      "start_beat": 78.25,
      "duration_beat": 0.11666666666666003,
      "velocity": 43,
      "track": 0
    },
    {
      "pitch": 74,
      "start_beat": 78.25,
      "duration_beat": 0.05833333333333002,
      "velocity": 33,
      "track": 0
    },
    {
      "pitch": 74,
      "start_beat": 78.25,
      "duration_beat": 0.125,
      "velocity": 13,
      "track": 0
    },
    {
      "pitch": 62,
      "start_beat": 78.25,
      "duration_beat": 0.23541666666666572,
      "velocity": 33,
      "track": 1
    },
    {
      "pitch": 62,
      "start_beat": 78.25,
      "duration_beat": 0.23541666666666572,
      "velocity": 43,
      "track": 1
    },
    {
      "pitch": 66,
      "start_beat": 78.25,
      "duration_beat": 0.23541666666666572,
      "velocity": 43,
      "track": 1
    },
    {
      "pitch": 69,
      "start_beat": 78.25,
      "duration_beat": 0.23541666666666572,
      "velocity": 43,
      "track": 1
    },
    {
      "pitch": 62,
      "start_beat": 78.25,
      "duration_beat": 0.11770833333333286,
      "velocity": 33,
      "track": 1
    },
    {
      "pitch": 62,
      "start_beat": 78.25,
      "duration_beat": 0.125,
      "velocity": 13,
      "track": 1
    },
    {
      "pitch": 65,
      "start_beat": 78.25,
      "duration_beat": 0.23541666666666572,
      "velocity": 33,
      "track": 1
    },
    {
      "pitch": 65,
      "start_beat": 78.25,
      "duration_beat": 0.23541666666666572,
      "velocity": 43,
      "track": 1
    },
    {
      "pitch": 69,
      "start_beat": 78.25,
      "duration_beat": 0.23541666666666572,
      "velocity": 43,
      "track": 1
    },
    {
      "pitch": 72,
      "start_beat": 78.25,
      "duration_beat": 0.23541666666666572,
      "velocity": 43,
      "track": 1
    },
    {
      "pitch": 65,
      "start_beat": 78.25,
      "duration_beat": 0.11770833333333286,
      "velocity": 33,
      "track": 1
    },
    {
      "pitch": 65,
      "start_beat": 78.25,
      "duration_beat": 0.125,
      "velocity": 13,
      "track": 1
    },
    {
      "pitch": 67,
      "start_beat": 78.25,
      "duration_beat": 0.23541666666666572,
      "velocity": 33,
      "track": 1
    },
    {
      "pitch": 67,
      "start_beat": 78.25,
      "duration_beat": 0.23541666666666572,
      "velocity": 43,
      "track": 1
    },
    {
      "pitch": 71,
      "start_beat": 78.25,
      "duration_beat": 0.23541666666666572,
      "velocity": 43,
      "track": 1
    },
    {
      "pitch": 74,
      "start_beat": 78.25,
      "duration_beat": 0.23541666666666572,
      "velocity": 43,
      "track": 1
    },
    {
      "pitch": 67,
      "start_beat": 78.25,
      "duration_beat": 0.11770833333333286,
      "velocity": 33,
      "track": 1
    },
    {
      "pitch": 67,
      "start_beat": 78.25,
      "duration_beat": 0.125,
      "velocity": 13,
      "track": 1
    },
    {
      "pitch": 91,
      "start_beat": 78.375,
      "duration_beat": 0.05833333333333002,
      "velocity": 33,
      "track": 0
    },
    {
      "pitch": 81,
      "start_beat": 78.375,
      "duration_beat": 0.05833333333333002,
      "velocity": 33,
      "track": 0
    },
    {
      "pitch": 69,
      "start_beat": 78.375,
      "duration_beat": 0.11770833333333286,
      "velocity": 33,
      "track": 1
    },
    {
      "pitch": 72,
      "start_beat": 78.375,
      "duration_beat": 0.11770833333333286,
      "velocity": 33,
      "track": 1
    },
    {
      "pitch": 74,
      "start_beat": 78.375,
      "duration_beat": 0.11770833333333286,
      "velocity": 33,
      "track": 1
    },
    {
      "pitch": 79,
      "start_beat": 78.375,
      "duration_beat": 0.11666666666666003,
      "velocity": 33,
      "track": 0
    },
    {
      "pitch": 79,
      "start_beat": 78.375,
      "duration_beat": 0.11666666666666003,
      "velocity": 43,
      "track": 0
    },
    {
      "pitch": 83,
      "start_beat": 78.375,
      "duration_beat": 0.11666666666666003,
      "velocity": 43,
      "track": 0
    },
    {
      "pitch": 86,
      "start_beat": 78.375,
      "duration_beat": 0.11666666666666003,
      "velocity": 43,
      "track": 0
    },
    {
      "pitch": 79,
      "start_beat": 78.375,
      "duration_beat": 0.05833333333333002,
      "velocity": 33,
      "track": 0
    },
    {
      "pitch": 79,
      "start_beat": 78.375,
      "duration_beat": 0.125,
      "velocity": 13,
      "track": 0
    },
    {
      "pitch": 86,
      "start_beat": 78.5,
      "duration_beat": 0.05833333333333002,
      "velocity": 33,
      "track": 0
    },
    {
      "pitch": 74,
      "start_beat": 78.5,
      "duration_beat": 0.11770833333333286,
      "velocity": 33,
      "track": 1
    },
    {
      "pitch": 77,
      "start_beat": 78.5,
      "duration_beat": 0.11770833333333286,
      "velocity": 33,
      "track": 1
    },
    {
      "pitch": 79,
      "start_beat": 78.5,
      "duration_beat": 0.11770833333333286,
      "velocity": 33,
      "track": 1
    },
    {
      "pitch": 86,
      "start_beat": 78.5,
      "duration_beat": 0.05833333333333002,
      "velocity": 33,
      "track": 0
    },
    {
      "pitch": 76,
      "start_beat": 78.5,
      "duration_beat": 0.11666666666666003,
      "velocity": 33,
      "track": 0
    },
    {
      "pitch": 76,
      "start_beat": 78.5,
      "duration_beat": 0.11666666666666003,
      "velocity": 43,
      "track": 0
    },
    {
      "pitch": 80,
      "start_beat": 78.5,
      "duration_beat": 0.11666666666666003,
      "velocity": 43,
      "track": 0
    },
    {
      "pitch": 83,
      "start_beat": 78.5,
      "duration_beat": 0.11666666666666003,
      "velocity": 43,
      "track": 0
    },
    {
      "pitch": 76,
      "start_beat": 78.5,
      "duration_beat": 0.05833333333333002,
      "velocity": 33,
      "track": 0
    },
    {
      "pitch": 76,
      "start_beat": 78.5,
      "duration_beat": 0.125,
      "velocity": 13,
      "track": 0
    },
    {
      "pitch": 60,
      "start_beat": 78.5,
      "duration_beat": 0.4729166666666629,
      "velocity": 33,
      "track": 1
    },
    {
      "pitch": 60,
      "start_beat": 78.5,
      "duration_beat": 0.4729166666666629,
      "velocity": 43,
      "track": 1
    },
    {
      "pitch": 64,
      "start_beat": 78.5,
      "duration_beat": 0.4729166666666629,
      "velocity": 43,
      "track": 1
    },
    {
      "pitch": 67,
      "start_beat": 78.5,
      "duration_beat": 0.4729166666666629,
      "velocity": 43,
      "track": 1
    },
    {
      "pitch": 60,
      "start_beat": 78.5,
      "duration_beat": 0.23645833333333144,
      "velocity": 33,
      "track": 1
    },
    {
      "pitch": 60,
      "start_beat": 78.5,
      "duration_beat": 0.125,
      "velocity": 13,
      "track": 1
    },
    {
      "pitch": 64,
      "start_beat": 78.5,
      "duration_beat": 0.4729166666666629,
      "velocity": 33,
      "track": 1
    },
    {
      "pitch": 64,
      "start_beat": 78.5,
      "duration_beat": 0.4729166666666629,
      "velocity": 43,
      "track": 1
    },
    {
      "pitch": 68,
      "start_beat": 78.5,
      "duration_beat": 0.4729166666666629,
      "velocity": 43,
      "track": 1
    },
    {
      "pitch": 71,
      "start_beat": 78.5,
      "duration_beat": 0.4729166666666629,
      "velocity": 43,
      "track": 1
    },
    {
      "pitch": 64,
      "start_beat": 78.5,
      "duration_beat": 0.23645833333333144,
      "velocity": 33,
      "track": 1
    },
    {
      "pitch": 64,
      "start_beat": 78.5,
      "duration_beat": 0.125,
      "velocity": 13,
      "track": 1
    },
    {
      "pitch": 67,
      "start_beat": 78.5,
      "duration_beat": 0.4729166666666629,
      "velocity": 33,
      "track": 1
    },
    {
      "pitch": 67,
      "start_beat": 78.5,
      "duration_beat": 0.4729166666666629,
      "velocity": 43,
      "track": 1
    },
    {
      "pitch": 71,
      "start_beat": 78.5,
      "duration_beat": 0.4729166666666629,
      "velocity": 43,
      "track": 1
    },
    {
      "pitch": 74,
      "start_beat": 78.5,
      "duration_beat": 0.4729166666666629,
      "velocity": 43,
      "track": 1
    },
    {
      "pitch": 67,
      "start_beat": 78.5,
      "duration_beat": 0.23645833333333144,
      "velocity": 33,
      "track": 1
    },
    {
      "pitch": 67,
      "start_beat": 78.5,
      "duration_beat": 0.125,
      "velocity": 13,
      "track": 1
    },
    {
      "pitch": 91,
      "start_beat": 78.625,
      "duration_beat": 0.05833333333333002,
      "velocity": 33,
      "track": 0
    },
    {
      "pitch": 83,
      "start_beat": 78.625,
      "duration_beat": 0.05833333333333002,
      "velocity": 33,
      "track": 0
    },
    {
      "pitch": 67,
      "start_beat": 78.625,
      "duration_beat": 0.23645833333333144,
      "velocity": 33,
      "track": 1
    },
    {
      "pitch": 71,
      "start_beat": 78.625,
      "duration_beat": 0.23645833333333144,
      "velocity": 33,
      "track": 1
    },
    {
      "pitch": 74,
      "start_beat": 78.625,
      "duration_beat": 0.23645833333333144,
      "velocity": 33,
      "track": 1
    },
    {
      "pitch": 79,
      "start_beat": 78.625,
      "duration_beat": 0.11666666666666003,
      "velocity": 33,
      "track": 0
    },
    {
      "pitch": 79,
      "start_beat": 78.625,
      "duration_beat": 0.11666666666666003,
      "velocity": 43,
      "track": 0
    },
    {
      "pitch": 83,
      "start_beat": 78.625,
      "duration_beat": 0.11666666666666003,
      "velocity": 43,
      "track": 0
    },
    {
      "pitch": 86,
      "start_beat": 78.625,
      "duration_beat": 0.11666666666666003,
      "velocity": 43,
      "track": 0
    },
    {
      "pitch": 79,
      "start_beat": 78.625,
      "duration_beat": 0.05833333333333002,
      "velocity": 33,
      "track": 0
    },
    {
      "pitch": 79,
      "start_beat": 78.625,
      "duration_beat": 0.125,
      "velocity": 13,
      "track": 0
    },
    {
      "pitch": 88,
      "start_beat": 78.75,
      "duration_beat": 0.05833333333333002,
      "velocity": 33,
      "track": 0
    },
    {
      "pitch": 72,
      "start_beat": 78.75,
      "duration_beat": 0.23645833333333144,
      "velocity": 33,
      "track": 1
    },
    {
      "pitch": 60,
      "start_beat": 78.75,
      "duration_beat": 0.125,
      "velocity": 13,
      "track": 1
    },
    {
      "pitch": 76,
      "start_beat": 78.75,
      "duration_beat": 0.23645833333333144,
      "velocity": 33,
      "track": 1
    },
    {
      "pitch": 64,
      "start_beat": 78.75,
      "duration_beat": 0.125,
      "velocity": 13,
      "track": 1
    },
    {
      "pitch": 79,
      "start_beat": 78.75,
      "duration_beat": 0.23645833333333144,
      "velocity": 33,
      "track": 1
    },
    {
      "pitch": 67,
      "start_beat": 78.75,
      "duration_beat": 0.125,
      "velocity": 13,
      "track": 1
    },
    {
      "pitch": 86,
      "start_beat": 78.75,
      "duration_beat": 0.05833333333333002,
      "velocity": 33,
      "track": 0
    },
    {
      "pitch": 84,
      "start_beat": 78.75,
      "duration_beat": 0.11666666666666003,
      "velocity": 33,
      "track": 0
    },
    {
      "pitch": 84,
      "start_beat": 78.75,
      "duration_beat": 0.11666666666666003,
      "velocity": 43,
      "track": 0
    },
    {
      "pitch": 88,
      "start_beat": 78.75,
      "duration_beat": 0.11666666666666003,
      "velocity": 43,
      "track": 0
    },
    {
      "pitch": 91,
      "start_beat": 78.75,
      "duration_beat": 0.11666666666666003,
      "velocity": 43,
      "track": 0
    },
    {
      "pitch": 84,
      "start_beat": 78.75,
      "duration_beat": 0.05833333333333002,
      "velocity": 33,
      "track": 0
    },
    {
      "pitch": 84,
      "start_beat": 78.75,
      "duration_beat": 0.125,
      "velocity": 13,
      "track": 0
    },
    {
      "pitch": 91,
      "start_beat": 78.875,
      "duration_beat": 0.05833333333333002,
      "velocity": 33,
      "track": 0
    },
    {
      "pitch": 91,
      "start_beat": 78.875,
      "duration_beat": 0.05833333333333002,
      "velocity": 33,
      "track": 0
    },
    {
      "pitch": 83,
      "start_beat": 78.875,
      "duration_beat": 0.11666666666666003,
      "velocity": 33,
      "track": 0
    },
    {
      "pitch": 83,
      "start_beat": 78.875,
      "duration_beat": 0.11666666666666003,
      "velocity": 43,
      "track": 0
    },
    {
      "pitch": 87,
      "start_beat": 78.875,
      "duration_beat": 0.11666666666666003,
      "velocity": 43,
      "track": 0
    },
    {
      "pitch": 90,
      "start_beat": 78.875,
      "duration_beat": 0.11666666666666003,
      "velocity": 43,
      "track": 0
    },
    {
      "pitch": 83,
      "start_beat": 78.875,
      "duration_beat": 0.05833333333333002,
      "velocity": 33,
      "track": 0
    },
    {
      "pitch": 83,
      "start_beat": 78.875,
      "duration_beat": 0.125,
      "velocity": 13,
      "track": 0
    },
    {
      "pitch": 96,
      "start_beat": 79.0,
      "duration_beat": 0.05833333333333002,
      "velocity": 33,
      "track": 0
    },
    {
      "pitch": 90,
      "start_beat": 79.0,
      "duration_beat": 0.05833333333333002,
      "velocity": 33,
      "track": 0
    },
    {
      "pitch": 81,
      "start_beat": 79.0,
      "duration_beat": 0.11666666666666003,
      "velocity": 33,
      "track": 0
    },
    {
      "pitch": 81,
      "start_beat": 79.0,
      "duration_beat": 0.11666666666666003,
      "velocity": 43,
      "track": 0
    },
    {
      "pitch": 85,
      "start_beat": 79.0,
      "duration_beat": 0.11666666666666003,
      "velocity": 43,
      "track": 0
    },
    {
      "pitch": 88,
      "start_beat": 79.0,
      "duration_beat": 0.11666666666666003,
      "velocity": 43,
      "track": 0
    },
    {
      "pitch": 81,
      "start_beat": 79.0,
      "duration_beat": 0.05833333333333002,
      "velocity": 33,
      "track": 0
    },
    {
      "pitch": 81,
      "start_beat": 79.0,
      "duration_beat": 0.125,
      "velocity": 13,
      "track": 0
    },
    {
      "pitch": 53,
      "start_beat": 79.0,
      "duration_beat": 0.4729166666666629,
      "velocity": 33,
      "track": 1
    },
    {
      "pitch": 53,
      "start_beat": 79.0,
      "duration_beat": 0.4729166666666629,
      "velocity": 43,
      "track": 1
    },
    {
      "pitch": 57,
      "start_beat": 79.0,
      "duration_beat": 0.4729166666666629,
      "velocity": 43,
      "track": 1
    },
    {
      "pitch": 60,
      "start_beat": 79.0,
      "duration_beat": 0.4729166666666629,
      "velocity": 43,
      "track": 1
    },
    {
      "pitch": 53,
      "start_beat": 79.0,
      "duration_beat": 0.23645833333333144,
      "velocity": 33,
      "track": 1
    },
    {
      "pitch": 53,
      "start_beat": 79.0,
      "duration_beat": 0.125,
      "velocity": 13,
      "track": 1
    },
    {
      "pitch": 57,
      "start_beat": 79.0,
      "duration_beat": 0.4729166666666629,
      "velocity": 33,
      "track": 1
    },
    {
      "pitch": 57,
      "start_beat": 79.0,
      "duration_beat": 0.4729166666666629,
      "velocity": 43,
      "track": 1
    },
    {
      "pitch": 61,
      "start_beat": 79.0,
      "duration_beat": 0.4729166666666629,
      "velocity": 43,
      "track": 1
    },
    {
      "pitch": 64,
      "start_beat": 79.0,
      "duration_beat": 0.4729166666666629,
      "velocity": 43,
      "track": 1
    },
    {
      "pitch": 57,
      "start_beat": 79.0,
      "duration_beat": 0.23645833333333144,
      "velocity": 33,
      "track": 1
    },
    {
      "pitch": 57,
      "start_beat": 79.0,
      "duration_beat": 0.125,
      "velocity": 13,
      "track": 1
    },
    {
      "pitch": 95,
      "start_beat": 79.125,
      "duration_beat": 0.05833333333333002,
      "velocity": 33,
      "track": 0
    },
    {
      "pitch": 88,
      "start_beat": 79.125,
      "duration_beat": 0.05833333333333002,
      "velocity": 33,
      "track": 0
    },
    {
      "pitch": 60,
      "start_beat": 79.125,
      "duration_beat": 0.23645833333333144,
      "velocity": 33,
      "track": 1
    },
    {
      "pitch": 64,
      "start_beat": 79.125,
      "duration_beat": 0.23645833333333144,
      "velocity": 33,
      "track": 1
    },
    {
      "pitch": 79,
      "start_beat": 79.125,
      "duration_beat": 0.11666666666666003,
      "velocity": 33,
      "track": 0
    },
    {
      "pitch": 79,
      "start_beat": 79.125,
      "duration_beat": 0.11666666666666003,
      "velocity": 43,
      "track": 0
    },
    {
      "pitch": 83,
      "start_beat": 79.125,
      "duration_beat": 0.11666666666666003,
      "velocity": 43,
      "track": 0
    },
    {
      "pitch": 86,
      "start_beat": 79.125,
      "duration_beat": 0.11666666666666003,
      "velocity": 43,
      "track": 0
    },
    {
      "pitch": 79,
      "start_beat": 79.125,
      "duration_beat": 0.05833333333333002,
      "velocity": 33,
      "track": 0
    },
    {
      "pitch": 79,
      "start_beat": 79.125,
      "duration_beat": 0.125,
      "velocity": 13,
      "track": 0
    },
    {
      "pitch": 93,
      "start_beat": 79.25,
      "duration_beat": 0.05833333333333002,
      "velocity": 33,
      "track": 0
    },
    {
      "pitch": 65,
      "start_beat": 79.25,
      "duration_beat": 0.23645833333333144,
      "velocity": 33,
      "track": 1
    },
    {
      "pitch": 53,
      "start_beat": 79.25,
      "duration_beat": 0.125,
      "velocity": 13,
      "track": 1
    },
    {
      "pitch": 69,
      "start_beat": 79.25,
      "duration_beat": 0.23645833333333144,
      "velocity": 33,
      "track": 1
    },
    {
      "pitch": 57,
      "start_beat": 79.25,
      "duration_beat": 0.125,
      "velocity": 13,
      "track": 1
    },
    {
      "pitch": 86,
      "start_beat": 79.25,
      "duration_beat": 0.05833333333333002,
      "velocity": 33,
      "track": 0
    },
    {
      "pitch": 77,
      "start_beat": 79.25,
      "duration_beat": 0.11666666666666003,
      "velocity": 33,
      "track": 0
    },
    {
      "pitch": 77,
      "start_beat": 79.25,
      "duration_beat": 0.11666666666666003,
      "velocity": 43,
      "track": 0
    },
    {
      "pitch": 81,
      "start_beat": 79.25,
      "duration_beat": 0.11666666666666003,
      "velocity": 43,
      "track": 0
    },
    {
      "pitch": 84,
      "start_beat": 79.25,
      "duration_beat": 0.11666666666666003,
      "velocity": 43,
      "track": 0
    },
    {
      "pitch": 77,
      "start_beat": 79.25,
      "duration_beat": 0.05833333333333002,
      "velocity": 33,
      "track": 0
    },
    {
      "pitch": 77,
      "start_beat": 79.25,
      "duration_beat": 0.125,
      "velocity": 13,
      "track": 0
    },
    {
      "pitch": 91,
      "start_beat": 79.375,
      "duration_beat": 0.05833333333333002,
      "velocity": 33,
      "track": 0
    },
    {
      "pitch": 84,
      "start_beat": 79.375,
      "duration_beat": 0.05833333333333002,
      "velocity": 33,
      "track": 0
    },
    {
      "pitch": 76,
      "start_beat": 79.375,
      "duration_beat": 0.11666666666666003,
      "velocity": 33,
      "track": 0
    },
    {
      "pitch": 76,
      "start_beat": 79.375,
      "duration_beat": 0.11666666666666003,
      "velocity": 43,
      "track": 0
    },
    {
      "pitch": 80,
      "start_beat": 79.375,
      "duration_beat": 0.11666666666666003,
      "velocity": 43,
      "track": 0
    },
    {
      "pitch": 83,
      "start_beat": 79.375,
      "duration_beat": 0.11666666666666003,
      "velocity": 43,
      "track": 0
    },
    {
      "pitch": 76,
      "start_beat": 79.375,
      "duration_beat": 0.05833333333333002,
      "velocity": 33,
      "track": 0
    },
    {
      "pitch": 76,
      "start_beat": 79.375,
      "duration_beat": 0.125,
      "velocity": 13,
      "track": 0
    },
    {
      "pitch": 89,
      "start_beat": 79.5,
      "duration_beat": 0.05833333333333002,
      "velocity": 33,
      "track": 0
    },
    {
      "pitch": 83,
      "start_beat": 79.5,
      "duration_beat": 0.05833333333333002,
      "velocity": 33,
      "track": 0
    },
    {
      "pitch": 74,
      "start_beat": 79.5,
      "duration_beat": 0.11666666666666003,
      "velocity": 33,
      "track": 0
    },
    {
      "pitch": 74,
      "start_beat": 79.5,
      "duration_beat": 0.11666666666666003,
      "velocity": 43,
      "track": 0
    },
    {
      "pitch": 78,
      "start_beat": 79.5,
      "duration_beat": 0.11666666666666003,
      "velocity": 43,
      "track": 0
    },
    {
      "pitch": 81,
      "start_beat": 79.5,
      "duration_beat": 0.11666666666666003,
      "velocity": 43,
      "track": 0
    },
    {
      "pitch": 74,
      "start_beat": 79.5,
      "duration_beat": 0.05833333333333002,
      "velocity": 33,
      "track": 0
    },
    {
      "pitch": 74,
      "start_beat": 79.5,
      "duration_beat": 0.125,
      "velocity": 13,
      "track": 0
    },
    {
      "pitch": 55,
      "start_beat": 79.5,
      "duration_beat": 0.4729166666666629,
      "velocity": 33,
      "track": 1
    },
    {
      "pitch": 55,
      "start_beat": 79.5,
      "duration_beat": 0.4729166666666629,
      "velocity": 43,
      "track": 1
    },
    {
      "pitch": 59,
      "start_beat": 79.5,
      "duration_beat": 0.4729166666666629,
      "velocity": 43,
      "track": 1
    },
    {
      "pitch": 62,
      "start_beat": 79.5,
      "duration_beat": 0.4729166666666629,
      "velocity": 43,
      "track": 1
    },
    {
      "pitch": 55,
      "start_beat": 79.5,
      "duration_beat": 0.23645833333333144,
      "velocity": 33,
      "track": 1
    },
    {
      "pitch": 55,
      "start_beat": 79.5,
      "duration_beat": 0.125,
      "velocity": 13,
      "track": 1
    },
    {
      "pitch": 59,
      "start_beat": 79.5,
      "duration_beat": 0.4729166666666629,
      "velocity": 33,
      "track": 1
    },
    {
      "pitch": 59,
      "start_beat": 79.5,
      "duration_beat": 0.4729166666666629,
      "velocity": 43,
      "track": 1
    },
    {
      "pitch": 63,
      "start_beat": 79.5,
      "duration_beat": 0.4729166666666629,
      "velocity": 43,
      "track": 1
    },
    {
      "pitch": 66,
      "start_beat": 79.5,
      "duration_beat": 0.4729166666666629,
      "velocity": 43,
      "track": 1
    },
    {
      "pitch": 59,
      "start_beat": 79.5,
      "duration_beat": 0.23645833333333144,
      "velocity": 33,
      "track": 1
    },
    {
      "pitch": 59,
      "start_beat": 79.5,
      "duration_beat": 0.125,
      "velocity": 13,
      "track": 1
    },
    {
      "pitch": 88,
      "start_beat": 79.625,
      "duration_beat": 0.05833333333333002,
      "velocity": 33,
      "track": 0
    },
    {
      "pitch": 81,
      "start_beat": 79.625,
      "duration_beat": 0.05833333333333002,
      "velocity": 33,
      "track": 0
    },
    {
      "pitch": 62,
      "start_beat": 79.625,
      "duration_beat": 0.23645833333333144,
      "velocity": 33,
      "track": 1
    },
    {
      "pitch": 66,
      "start_beat": 79.625,
      "duration_beat": 0.23645833333333144,
      "velocity": 33,
      "track": 1
    },
    {
      "pitch": 79,
      "start_beat": 79.625,
      "duration_beat": 0.11666666666666003,
      "velocity": 33,
      "track": 0
    },
    {
      "pitch": 79,
      "start_beat": 79.625,
      "duration_beat": 0.11666666666666003,
      "velocity": 43,
      "track": 0
    },
    {
      "pitch": 83,
      "start_beat": 79.625,
      "duration_beat": 0.11666666666666003,
      "velocity": 43,
      "track": 0
    },
    {
      "pitch": 86,
      "start_beat": 79.625,
      "duration_beat": 0.11666666666666003,
      "velocity": 43,
      "track": 0
    },
    {
      "pitch": 79,
      "start_beat": 79.625,
      "duration_beat": 0.05833333333333002,
      "velocity": 33,
      "track": 0
    },
    {
      "pitch": 79,
      "start_beat": 79.625,
      "duration_beat": 0.125,
      "velocity": 13,
      "track": 0
    },
    {
      "pitch": 86,
      "start_beat": 79.75,
      "duration_beat": 0.05833333333333002,
      "velocity": 33,
      "track": 0
    },
    {
      "pitch": 67,
      "start_beat": 79.75,
      "duration_beat": 0.23645833333333144,
      "velocity": 33,
      "track": 1
    },
    {
      "pitch": 55,
      "start_beat": 79.75,
      "duration_beat": 0.125,
      "velocity": 13,
      "track": 1
    },
    {
      "pitch": 71,
      "start_beat": 79.75,
      "duration_beat": 0.23645833333333144,
      "velocity": 33,
      "track": 1
    },
    {
      "pitch": 59,
      "start_beat": 79.75,
      "duration_beat": 0.125,
      "velocity": 13,
      "track": 1
    },
    {
      "pitch": 86,
      "start_beat": 79.75,
      "duration_beat": 0.05833333333333002,
      "velocity": 33,
      "track": 0
    },
    {
      "pitch": 77,
      "start_beat": 79.75,
      "duration_beat": 0.11666666666666003,
      "velocity": 33,
      "track": 0
    },
    {
      "pitch": 77,
      "start_beat": 79.75,
      "duration_beat": 0.11666666666666003,
      "velocity": 43,
      "track": 0
    },
    {
      "pitch": 81,
      "start_beat": 79.75,
      "duration_beat": 0.11666666666666003,
      "velocity": 43,
      "track": 0
    },
    {
      "pitch": 84,
      "start_beat": 79.75,
      "duration_beat": 0.11666666666666003,
      "velocity": 43,
      "track": 0
    },
    {
      "pitch": 77,
      "start_beat": 79.75,
      "duration_beat": 0.05833333333333002,
      "velocity": 33,
      "track": 0
    },
    {
      "pitch": 77,
      "start_beat": 79.75,
      "duration_beat": 0.125,
      "velocity": 13,
      "track": 0
    },
    {
      "pitch": 91,
      "start_beat": 79.875,
      "duration_beat": 0.05833333333333002,
      "velocity": 33,
      "track": 0
    },
    {
      "pitch": 84,
      "start_beat": 79.875,
      "duration_beat": 0.05833333333333002,
      "velocity": 33,
      "track": 0
    },
    {
      "pitch": 74,
      "start_beat": 79.875,
      "duration_beat": 0.11666666666666003,
      "velocity": 33,
      "track": 0
    },
    {
      "pitch": 74,
      "start_beat": 79.875,
      "duration_beat": 0.11666666666666003,
      "velocity": 43,
      "track": 0
    },
    {
      "pitch": 78,
      "start_beat": 79.875,
      "duration_beat": 0.11666666666666003,
      "velocity": 43,
      "track": 0
    },
    {
      "pitch": 81,
      "start_beat": 79.875,
      "duration_beat": 0.11666666666666003,
      "velocity": 43,
      "track": 0
    },
    {
      "pitch": 74,
      "start_beat": 79.875,
      "duration_beat": 0.05833333333333002,
      "velocity": 33,
      "track": 0
    },
    {
      "pitch": 74,
      "start_beat": 79.875,
      "duration_beat": 0.125,
      "velocity": 13,
      "track": 0
    },
    {
      "pitch": 89,
      "start_beat": 80.0,
      "duration_beat": 0.05833333333333002,
      "velocity": 33,
      "track": 0
    },
    {
      "pitch": 81,
      "start_beat": 80.0,
      "duration_beat": 0.05833333333333002,
      "velocity": 33,
      "track": 0
    },
    {
      "pitch": 72,
      "start_beat": 80.0,
      "duration_beat": 0.11666666666666003,
      "velocity": 33,
      "track": 0
    },
    {
      "pitch": 72,
      "start_beat": 80.0,
      "duration_beat": 0.11666666666666003,
      "velocity": 43,
      "track": 0
    },
    {
      "pitch": 76,
      "start_beat": 80.0,
      "duration_beat": 0.11666666666666003,
      "velocity": 43,
      "track": 0
    },
    {
      "pitch": 79,
      "start_beat": 80.0,
      "duration_beat": 0.11666666666666003,
      "velocity": 43,
      "track": 0
    },
    {
      "pitch": 72,
      "start_beat": 80.0,
      "duration_beat": 0.05833333333333002,
      "velocity": 33,
      "track": 0
    },
    {
      "pitch": 72,
      "start_beat": 80.0,
      "duration_beat": 0.125,
      "velocity": 13,
      "track": 0
    },
    {
      "pitch": 60,
      "start_beat": 80.0,
      "duration_beat": 0.4729166666666629,
      "velocity": 33,
      "track": 1
    },
    {
      "pitch": 60,
      "start_beat": 80.0,
      "duration_beat": 0.4729166666666629,
      "velocity": 43,
      "track": 1
    },
    {
      "pitch": 64,
      "start_beat": 80.0,
      "duration_beat": 0.4729166666666629,
      "velocity": 43,
      "track": 1
    },
    {
      "pitch": 67,
      "start_beat": 80.0,
      "duration_beat": 0.4729166666666629,
      "velocity": 43,
      "track": 1
    },
    {
      "pitch": 60,
      "start_beat": 80.0,
      "duration_beat": 0.23645833333333144,
      "velocity": 33,
      "track": 1
    },
    {
      "pitch": 60,
      "start_beat": 80.0,
      "duration_beat": 0.125,
      "velocity": 13,
      "track": 1
    },
    {
      "pitch": 86,
      "start_beat": 80.125,
      "duration_beat": 0.05833333333333002,
      "velocity": 33,
      "track": 0
    },
    {
      "pitch": 79,
      "start_beat": 80.125,
      "duration_beat": 0.05833333333333002,
      "velocity": 33,
      "track": 0
    },
    {
      "pitch": 67,
      "start_beat": 80.125,
      "duration_beat": 0.23645833333333144,
      "velocity": 33,
      "track": 1
    },
    {
      "pitch": 79,
      "start_beat": 80.125,
      "duration_beat": 0.11666666666666003,
      "velocity": 33,
      "track": 0
    },
    {
      "pitch": 79,
      "start_beat": 80.125,
      "duration_beat": 0.11666666666666003,
      "velocity": 43,
      "track": 0
    },
    {
      "pitch": 83,
      "start_beat": 80.125,
      "duration_beat": 0.11666666666666003,
      "velocity": 43,
      "track": 0
    },
    {
      "pitch": 86,
      "start_beat": 80.125,
      "duration_beat": 0.11666666666666003,
      "velocity": 43,
      "track": 0
    },
    {
      "pitch": 79,
      "start_beat": 80.125,
      "duration_beat": 0.05833333333333002,
      "velocity": 33,
      "track": 0
    },
    {
      "pitch": 79,
      "start_beat": 80.125,
      "duration_beat": 0.125,
      "velocity": 13,
      "track": 0
    },
    {
      "pitch": 84,
      "start_beat": 80.25,
      "duration_beat": 0.05833333333333002,
      "velocity": 33,
      "track": 0
    },
    {
      "pitch": 72,
      "start_beat": 80.25,
      "duration_beat": 0.23645833333333144,
      "velocity": 33,
      "track": 1
    },
    {
      "pitch": 60,
      "start_beat": 80.25,
      "duration_beat": 0.125,
      "velocity": 13,
      "track": 1
    },
    {
      "pitch": 86,
      "start_beat": 80.25,
      "duration_beat": 0.05833333333333002,
      "velocity": 33,
      "track": 0
    },
    {
      "pitch": 67,
      "start_beat": 80.25,
      "duration_beat": 0.11666666666666003,
      "velocity": 33,
      "track": 0
    },
    {
      "pitch": 67,
      "start_beat": 80.25,
      "duration_beat": 0.11666666666666003,
      "velocity": 43,
      "track": 0
    },
    {
      "pitch": 71,
      "start_beat": 80.25,
      "duration_beat": 0.11666666666666003,
      "velocity": 43,
      "track": 0
    },
    {
      "pitch": 74,
      "start_beat": 80.25,
      "duration_beat": 0.11666666666666003,
      "velocity": 43,
      "track": 0
    },
    {
      "pitch": 67,
      "start_beat": 80.25,
      "duration_beat": 0.05833333333333002,
      "velocity": 33,
      "track": 0
    },
    {
      "pitch": 67,
      "start_beat": 80.25,
      "duration_beat": 0.125,
      "velocity": 13,
      "track": 0
    },
    {
      "pitch": 91,
      "start_beat": 80.375,
      "duration_beat": 0.05833333333333002,
      "velocity": 33,
      "track": 0
    },
    {
      "pitch": 74,
      "start_beat": 80.375,
      "duration_beat": 0.05833333333333002,
      "velocity": 33,
      "track": 0
    },
    {
      "pitch": 79,
      "start_beat": 80.375,
      "duration_beat": 0.11666666666666003,
      "velocity": 33,
      "track": 0
    },
    {
      "pitch": 79,
      "start_beat": 80.375,
      "duration_beat": 0.11666666666666003,
      "velocity": 43,
      "track": 0
    },
    {
      "pitch": 83,
      "start_beat": 80.375,
      "duration_beat": 0.11666666666666003,
      "velocity": 43,
      "track": 0
    },
    {
      "pitch": 86,
      "start_beat": 80.375,
      "duration_beat": 0.11666666666666003,
      "velocity": 43,
      "track": 0
    },
    {
      "pitch": 79,
      "start_beat": 80.375,
      "duration_beat": 0.05833333333333002,
      "velocity": 33,
      "track": 0
    },
    {
      "pitch": 79,
      "start_beat": 80.375,
      "duration_beat": 0.125,
      "velocity": 13,
      "track": 0
    },
    {
      "pitch": 79,
      "start_beat": 80.5,
      "duration_beat": 0.05833333333333002,
      "velocity": 33,
      "track": 0
    },
    {
      "pitch": 86,
      "start_beat": 80.5,
      "duration_beat": 0.05833333333333002,
      "velocity": 33,
      "track": 0
    },
    {
      "pitch": 69,
      "start_beat": 80.5,
      "duration_beat": 0.11666666666666003,
      "velocity": 33,
      "track": 0
    },
    {
      "pitch": 69,
      "start_beat": 80.5,
      "duration_beat": 0.11666666666666003,
      "velocity": 43,
      "track": 0
    },
    {
      "pitch": 73,
      "start_beat": 80.5,
      "duration_beat": 0.11666666666666003,
      "velocity": 43,
      "track": 0
    },
    {
      "pitch": 76,
      "start_beat": 80.5,
      "duration_beat": 0.11666666666666003,
      "velocity": 43,
      "track": 0
    },
    {
      "pitch": 69,
      "start_beat": 80.5,
      "duration_beat": 0.05833333333333002,
      "velocity": 33,
      "track": 0
    },
    {
      "pitch": 69,
      "start_beat": 80.5,
      "duration_beat": 0.125,
      "velocity": 13,
      "track": 0
    },
    {
      "pitch": 91,
      "start_beat": 80.625,
      "duration_beat": 0.05833333333333002,
      "velocity": 33,
      "track": 0
    },
    {
      "pitch": 76,
      "start_beat": 80.625,
      "duration_beat": 0.05833333333333002,
      "velocity": 33,
      "track": 0
    },
    {
      "pitch": 79,
      "start_beat": 80.625,
      "duration_beat": 0.11666666666666003,
      "velocity": 33,
      "track": 0
    },
    {
      "pitch": 79,
      "start_beat": 80.625,
      "duration_beat": 0.11666666666666003,
      "velocity": 43,
      "track": 0
    },
    {
      "pitch": 83,
      "start_beat": 80.625,
      "duration_beat": 0.11666666666666003,
      "velocity": 43,
      "track": 0
    },
    {
      "pitch": 86,
      "start_beat": 80.625,
      "duration_beat": 0.11666666666666003,
      "velocity": 43,
      "track": 0
    },
    {
      "pitch": 79,
      "start_beat": 80.625,
      "duration_beat": 0.05833333333333002,
      "velocity": 33,
      "track": 0
    },
    {
      "pitch": 79,
      "start_beat": 80.625,
      "duration_beat": 0.125,
      "velocity": 13,
      "track": 0
    },
    {
      "pitch": 81,
      "start_beat": 80.75,
      "duration_beat": 0.05833333333333002,
      "velocity": 33,
      "track": 0
    },
    {
      "pitch": 86,
      "start_beat": 80.75,
      "duration_beat": 0.05833333333333002,
      "velocity": 33,
      "track": 0
    },
    {
      "pitch": 71,
      "start_beat": 80.75,
      "duration_beat": 0.11666666666666003,
      "velocity": 33,
      "track": 0
    },
    {
      "pitch": 71,
      "start_beat": 80.75,
      "duration_beat": 0.11666666666666003,
      "velocity": 43,
      "track": 0
    },
    {
      "pitch": 75,
      "start_beat": 80.75,
      "duration_beat": 0.11666666666666003,
      "velocity": 43,
      "track": 0
    },
    {
      "pitch": 78,
      "start_beat": 80.75,
      "duration_beat": 0.11666666666666003,
      "velocity": 43,
      "track": 0
    },
    {
      "pitch": 71,
      "start_beat": 80.75,
      "duration_beat": 0.05833333333333002,
      "velocity": 33,
      "track": 0
    },
    {
      "pitch": 71,
      "start_beat": 80.75,
      "duration_beat": 0.125,
      "velocity": 13,
      "track": 0
    },
    {
      "pitch": 65,
      "start_beat": 80.75,
      "duration_beat": 0.23541666666666572,
      "velocity": 33,
      "track": 1
    },
    {
      "pitch": 65,
      "start_beat": 80.75,
      "duration_beat": 0.23541666666666572,
      "velocity": 43,
      "track": 1
    },
    {
      "pitch": 69,
      "start_beat": 80.75,
      "duration_beat": 0.23541666666666572,
      "velocity": 43,
      "track": 1
    },
    {
      "pitch": 72,
      "start_beat": 80.75,
      "duration_beat": 0.23541666666666572,
      "velocity": 43,
      "track": 1
    },
    {
      "pitch": 65,
      "start_beat": 80.75,
      "duration_beat": 0.11770833333333286,
      "velocity": 33,
      "track": 1
    },
    {
      "pitch": 65,
      "start_beat": 80.75,
      "duration_beat": 0.125,
      "velocity": 13,
      "track": 1
    },
    {
      "pitch": 67,
      "start_beat": 80.75,
      "duration_beat": 0.23541666666666572,
      "velocity": 33,
      "track": 1
    },
    {
      "pitch": 67,
      "start_beat": 80.75,
      "duration_beat": 0.23541666666666572,
      "velocity": 43,
      "track": 1
    },
    {
      "pitch": 71,
      "start_beat": 80.75,
      "duration_beat": 0.23541666666666572,
      "velocity": 43,
      "track": 1
    },
    {
      "pitch": 74,
      "start_beat": 80.75,
      "duration_beat": 0.23541666666666572,
      "velocity": 43,
      "track": 1
    },
    {
      "pitch": 67,
      "start_beat": 80.75,
      "duration_beat": 0.11770833333333286,
      "velocity": 33,
      "track": 1
    },
    {
      "pitch": 67,
      "start_beat": 80.75,
      "duration_beat": 0.125,
      "velocity": 13,
      "track": 1
    },
    {
      "pitch": 91,
      "start_beat": 80.875,
      "duration_beat": 0.05833333333333002,
      "velocity": 33,
      "track": 0
    },
    {
      "pitch": 78,
      "start_beat": 80.875,
      "duration_beat": 0.05833333333333002,
      "velocity": 33,
      "track": 0
    },
    {
      "pitch": 72,
      "start_beat": 80.875,
      "duration_beat": 0.11770833333333286,
      "velocity": 33,
      "track": 1
    },
    {
      "pitch": 74,
      "start_beat": 80.875,
      "duration_beat": 0.11770833333333286,
      "velocity": 33,
      "track": 1
    },
    {
      "pitch": 79,
      "start_beat": 80.875,
      "duration_beat": 0.11666666666666003,
      "velocity": 33,
      "track": 0
    },
    {
      "pitch": 79,
      "start_beat": 80.875,
      "duration_beat": 0.11666666666666003,
      "velocity": 43,
      "track": 0
    },
    {
      "pitch": 83,
      "start_beat": 80.875,
      "duration_beat": 0.11666666666666003,
      "velocity": 43,
      "track": 0
    },
    {
      "pitch": 86,
      "start_beat": 80.875,
      "duration_beat": 0.11666666666666003,
      "velocity": 43,
      "track": 0
    },
    {
      "pitch": 79,
      "start_beat": 80.875,
      "duration_beat": 0.05833333333333002,
      "velocity": 33,
      "track": 0
    },
    {
      "pitch": 79,
      "start_beat": 80.875,
      "duration_beat": 0.125,
      "velocity": 13,
      "track": 0
    },
    {
      "pitch": 83,
      "start_beat": 81.0,
      "duration_beat": 0.05833333333333002,
      "velocity": 33,
      "track": 0
    },
    {
      "pitch": 77,
      "start_beat": 81.0,
      "duration_beat": 0.11770833333333286,
      "velocity": 33,
      "track": 1
    },
    {
      "pitch": 79,
      "start_beat": 81.0,
      "duration_beat": 0.11770833333333286,
      "velocity": 33,
      "track": 1
    },
    {
      "pitch": 86,
      "start_beat": 81.0,
      "duration_beat": 0.05833333333333002,
      "velocity": 33,
      "track": 0
    },
    {
      "pitch": 72,
      "start_beat": 81.0,
      "duration_beat": 0.11666666666666003,
      "velocity": 33,
      "track": 0
    },
    {
      "pitch": 72,
      "start_beat": 81.0,
      "duration_beat": 0.11666666666666003,
      "velocity": 43,
      "track": 0
    },
    {
      "pitch": 76,
      "start_beat": 81.0,
      "duration_beat": 0.11666666666666003,
      "velocity": 43,
      "track": 0
    },
    {
      "pitch": 79,
      "start_beat": 81.0,
      "duration_beat": 0.11666666666666003,
      "velocity": 43,
      "track": 0
    },
    {
      "pitch": 72,
      "start_beat": 81.0,
      "duration_beat": 0.05833333333333002,
      "velocity": 33,
      "track": 0
    },
    {
      "pitch": 72,
      "start_beat": 81.0,
      "duration_beat": 0.125,
      "velocity": 13,
      "track": 0
    },
    {
      "pitch": 64,
      "start_beat": 81.0,
      "duration_beat": 0.23541666666666572,
      "velocity": 33,
      "track": 1
    },
    {
      "pitch": 64,
      "start_beat": 81.0,
      "duration_beat": 0.23541666666666572,
      "velocity": 43,
      "track": 1
    },
    {
      "pitch": 68,
      "start_beat": 81.0,
      "duration_beat": 0.23541666666666572,
      "velocity": 43,
      "track": 1
    },
    {
      "pitch": 71,
      "start_beat": 81.0,
      "duration_beat": 0.23541666666666572,
      "velocity": 43,
      "track": 1
    },
    {
      "pitch": 64,
      "start_beat": 81.0,
      "duration_beat": 0.11770833333333286,
      "velocity": 33,
      "track": 1
    },
    {
      "pitch": 64,
      "start_beat": 81.0,
      "duration_beat": 0.125,
      "velocity": 13,
      "track": 1
    },
    {
      "pitch": 67,
      "start_beat": 81.0,
      "duration_beat": 0.23541666666666572,
      "velocity": 33,
      "track": 1
    },
    {
      "pitch": 67,
      "start_beat": 81.0,
      "duration_beat": 0.23541666666666572,
      "velocity": 43,
      "track": 1
    },
    {
      "pitch": 71,
      "start_beat": 81.0,
      "duration_beat": 0.23541666666666572,
      "velocity": 43,
      "track": 1
    },
    {
      "pitch": 74,
      "start_beat": 81.0,
      "duration_beat": 0.23541666666666572,
      "velocity": 43,
      "track": 1
    },
    {
      "pitch": 67,
      "start_beat": 81.0,
      "duration_beat": 0.11770833333333286,
      "velocity": 33,
      "track": 1
    },
    {
      "pitch": 67,
      "start_beat": 81.0,
      "duration_beat": 0.125,
      "velocity": 13,
      "track": 1
    },
    {
      "pitch": 91,
      "start_beat": 81.125,
      "duration_beat": 0.05833333333333002,
      "velocity": 33,
      "track": 0
    },
    {
      "pitch": 79,
      "start_beat": 81.125,
      "duration_beat": 0.05833333333333002,
      "velocity": 33,
      "track": 0
    },
    {
      "pitch": 71,
      "start_beat": 81.125,
      "duration_beat": 0.11770833333333286,
      "velocity": 33,
      "track": 1
    },
    {
      "pitch": 74,
      "start_beat": 81.125,
      "duration_beat": 0.11770833333333286,
      "velocity": 33,
      "track": 1
    },
    {
      "pitch": 79,
      "start_beat": 81.125,
      "duration_beat": 0.11666666666666003,
      "velocity": 33,
      "track": 0
    },
    {
      "pitch": 79,
      "start_beat": 81.125,
      "duration_beat": 0.11666666666666003,
      "velocity": 43,
      "track": 0
    },
    {
      "pitch": 83,
      "start_beat": 81.125,
      "duration_beat": 0.11666666666666003,
      "velocity": 43,
      "track": 0
    },
    {
      "pitch": 86,
      "start_beat": 81.125,
      "duration_beat": 0.11666666666666003,
      "velocity": 43,
      "track": 0
    },
    {
      "pitch": 79,
      "start_beat": 81.125,
      "duration_beat": 0.05833333333333002,
      "velocity": 33,
      "track": 0
    },
    {
      "pitch": 79,
      "start_beat": 81.125,
      "duration_beat": 0.125,
      "velocity": 13,
      "track": 0
    },
    {
      "pitch": 84,
      "start_beat": 81.25,
      "duration_beat": 0.05833333333333002,
      "velocity": 33,
      "track": 0
    },
    {
      "pitch": 76,
      "start_beat": 81.25,
      "duration_beat": 0.11770833333333286,
      "velocity": 33,
      "track": 1
    },
    {
      "pitch": 79,
      "start_beat": 81.25,
      "duration_beat": 0.11770833333333286,
      "velocity": 33,
      "track": 1
    },
    {
      "pitch": 86,
      "start_beat": 81.25,
      "duration_beat": 0.05833333333333002,
      "velocity": 33,
      "track": 0
    },
    {
      "pitch": 74,
      "start_beat": 81.25,
      "duration_beat": 0.11666666666666003,
      "velocity": 33,
      "track": 0
    },
    {
      "pitch": 74,
      "start_beat": 81.25,
      "duration_beat": 0.11666666666666003,
      "velocity": 43,
      "track": 0
    },
    {
      "pitch": 78,
      "start_beat": 81.25,
      "duration_beat": 0.11666666666666003,
      "velocity": 43,
      "track": 0
    },
    {
      "pitch": 81,
      "start_beat": 81.25,
      "duration_beat": 0.11666666666666003,
      "velocity": 43,
      "track": 0
    },
    {
      "pitch": 74,
      "start_beat": 81.25,
      "duration_beat": 0.05833333333333002,
      "velocity": 33,
      "track": 0
    },
    {
      "pitch": 74,
      "start_beat": 81.25,
      "duration_beat": 0.125,
      "velocity": 13,
      "track": 0
    },
    {
      "pitch": 62,
      "start_beat": 81.25,
      "duration_beat": 0.23541666666666572,
      "velocity": 33,
      "track": 1
    },
    {
      "pitch": 62,
      "start_beat": 81.25,
      "duration_beat": 0.23541666666666572,
      "velocity": 43,
      "track": 1
    },
    {
      "pitch": 66,
      "start_beat": 81.25,
      "duration_beat": 0.23541666666666572,
      "velocity": 43,
      "track": 1
    },
    {
      "pitch": 69,
      "start_beat": 81.25,
      "duration_beat": 0.23541666666666572,
      "velocity": 43,
      "track": 1
    },
    {
      "pitch": 62,
      "start_beat": 81.25,
      "duration_beat": 0.11770833333333286,
      "velocity": 33,
      "track": 1
    },
    {
      "pitch": 62,
      "start_beat": 81.25,
      "duration_beat": 0.125,
      "velocity": 13,
      "track": 1
    },
    {
      "pitch": 65,
      "start_beat": 81.25,
      "duration_beat": 0.23541666666666572,
      "velocity": 33,
      "track": 1
    },
    {
      "pitch": 65,
      "start_beat": 81.25,
      "duration_beat": 0.23541666666666572,
      "velocity": 43,
      "track": 1
    },
    {
      "pitch": 69,
      "start_beat": 81.25,
      "duration_beat": 0.23541666666666572,
      "velocity": 43,
      "track": 1
    },
    {
      "pitch": 72,
      "start_beat": 81.25,
      "duration_beat": 0.23541666666666572,
      "velocity": 43,
      "track": 1
    },
    {
      "pitch": 65,
      "start_beat": 81.25,
      "duration_beat": 0.11770833333333286,
      "velocity": 33,
      "track": 1
    },
    {
      "pitch": 65,
      "start_beat": 81.25,
      "duration_beat": 0.125,
      "velocity": 13,
      "track": 1
    },
    {
      "pitch": 67,
      "start_beat": 81.25,
      "duration_beat": 0.23541666666666572,
      "velocity": 33,
      "track": 1
    },
    {
      "pitch": 67,
      "start_beat": 81.25,
      "duration_beat": 0.23541666666666572,
      "velocity": 43,
      "track": 1
    },
    {
      "pitch": 71,
      "start_beat": 81.25,
      "duration_beat": 0.23541666666666572,
      "velocity": 43,
      "track": 1
    },
    {
      "pitch": 74,
      "start_beat": 81.25,
      "duration_beat": 0.23541666666666572,
      "velocity": 43,
      "track": 1
    },
    {
      "pitch": 67,
      "start_beat": 81.25,
      "duration_beat": 0.11770833333333286,
      "velocity": 33,
      "track": 1
    },
    {
      "pitch": 67,
      "start_beat": 81.25,
      "duration_beat": 0.125,
      "velocity": 13,
      "track": 1
    },
    {
      "pitch": 91,
      "start_beat": 81.375,
      "duration_beat": 0.05833333333333002,
      "velocity": 33,
      "track": 0
    },
    {
      "pitch": 81,
      "start_beat": 81.375,
      "duration_beat": 0.05833333333333002,
      "velocity": 33,
      "track": 0
    },
    {
      "pitch": 69,
      "start_beat": 81.375,
      "duration_beat": 0.11770833333333286,
      "velocity": 33,
      "track": 1
    },
    {
      "pitch": 72,
      "start_beat": 81.375,
      "duration_beat": 0.11770833333333286,
      "velocity": 33,
      "track": 1
    },
    {
      "pitch": 74,
      "start_beat": 81.375,
      "duration_beat": 0.11770833333333286,
      "velocity": 33,
      "track": 1
    },
    {
      "pitch": 79,
      "start_beat": 81.375,
      "duration_beat": 0.11666666666666003,
      "velocity": 33,
      "track": 0
    },
    {
      "pitch": 79,
      "start_beat": 81.375,
      "duration_beat": 0.11666666666666003,
      "velocity": 43,
      "track": 0
    },
    {
      "pitch": 83,
      "start_beat": 81.375,
      "duration_beat": 0.11666666666666003,
      "velocity": 43,
      "track": 0
    },
    {
      "pitch": 86,
      "start_beat": 81.375,
      "duration_beat": 0.11666666666666003,
      "velocity": 43,
      "track": 0
    },
    {
      "pitch": 79,
      "start_beat": 81.375,
      "duration_beat": 0.05833333333333002,
      "velocity": 33,
      "track": 0
    },
    {
      "pitch": 79,
      "start_beat": 81.375,
      "duration_beat": 0.125,
      "velocity": 13,
      "track": 0
    },
    {
      "pitch": 86,
      "start_beat": 81.5,
      "duration_beat": 0.05833333333333002,
      "velocity": 33,
      "track": 0
    },
    {
      "pitch": 74,
      "start_beat": 81.5,
      "duration_beat": 0.11770833333333286,
      "velocity": 33,
      "track": 1
    },
    {
      "pitch": 77,
      "start_beat": 81.5,
      "duration_beat": 0.11770833333333286,
      "velocity": 33,
      "track": 1
    },
    {
      "pitch": 79,
      "start_beat": 81.5,
      "duration_beat": 0.11770833333333286,
      "velocity": 33,
      "track": 1
    },
    {
      "pitch": 86,
      "start_beat": 81.5,
      "duration_beat": 0.05833333333333002,
      "velocity": 33,
      "track": 0
    },
    {
      "pitch": 76,
      "start_beat": 81.5,
      "duration_beat": 0.11666666666666003,
      "velocity": 33,
      "track": 0
    },
    {
      "pitch": 76,
      "start_beat": 81.5,
      "duration_beat": 0.11666666666666003,
      "velocity": 43,
      "track": 0
    },
    {
      "pitch": 80,
      "start_beat": 81.5,
      "duration_beat": 0.11666666666666003,
      "velocity": 43,
      "track": 0
    },
    {
      "pitch": 83,
      "start_beat": 81.5,
      "duration_beat": 0.11666666666666003,
      "velocity": 43,
      "track": 0
    },
    {
      "pitch": 76,
      "start_beat": 81.5,
      "duration_beat": 0.05833333333333002,
      "velocity": 33,
      "track": 0
    },
    {
      "pitch": 76,
      "start_beat": 81.5,
      "duration_beat": 0.125,
      "velocity": 13,
      "track": 0
    },
    {
      "pitch": 60,
      "start_beat": 81.5,
      "duration_beat": 0.4729166666666629,
      "velocity": 33,
      "track": 1
    },
    {
      "pitch": 60,
      "start_beat": 81.5,
      "duration_beat": 0.4729166666666629,
      "velocity": 43,
      "track": 1
    },
    {
      "pitch": 64,
      "start_beat": 81.5,
      "duration_beat": 0.4729166666666629,
      "velocity": 43,
      "track": 1
    },
    {
      "pitch": 67,
      "start_beat": 81.5,
      "duration_beat": 0.4729166666666629,
      "velocity": 43,
      "track": 1
    },
    {
      "pitch": 60,
      "start_beat": 81.5,
      "duration_beat": 0.23645833333333144,
      "velocity": 33,
      "track": 1
    },
    {
      "pitch": 60,
      "start_beat": 81.5,
      "duration_beat": 0.125,
      "velocity": 13,
      "track": 1
    },
    {
      "pitch": 64,
      "start_beat": 81.5,
      "duration_beat": 0.4729166666666629,
      "velocity": 33,
      "track": 1
    },
    {
      "pitch": 64,
      "start_beat": 81.5,
      "duration_beat": 0.4729166666666629,
      "velocity": 43,
      "track": 1
    },
    {
      "pitch": 68,
      "start_beat": 81.5,
      "duration_beat": 0.4729166666666629,
      "velocity": 43,
      "track": 1
    },
    {
      "pitch": 71,
      "start_beat": 81.5,
      "duration_beat": 0.4729166666666629,
      "velocity": 43,
      "track": 1
    },
    {
      "pitch": 64,
      "start_beat": 81.5,
      "duration_beat": 0.23645833333333144,
      "velocity": 33,
      "track": 1
    },
    {
      "pitch": 64,
      "start_beat": 81.5,
      "duration_beat": 0.125,
      "velocity": 13,
      "track": 1
    },
    {
      "pitch": 91,
      "start_beat": 81.625,
      "duration_beat": 0.05833333333333002,
      "velocity": 33,
      "track": 0
    },
    {
      "pitch": 83,
      "start_beat": 81.625,
      "duration_beat": 0.05833333333333002,
      "velocity": 33,
      "track": 0
    },
    {
      "pitch": 67,
      "start_beat": 81.625,
      "duration_beat": 0.23645833333333144,
      "velocity": 33,
      "track": 1
    },
    {
      "pitch": 71,
      "start_beat": 81.625,
      "duration_beat": 0.23645833333333144,
      "velocity": 33,
      "track": 1
    },
    {
      "pitch": 79,
      "start_beat": 81.625,
      "duration_beat": 0.11666666666666003,
      "velocity": 33,
      "track": 0
    },
    {
      "pitch": 79,
      "start_beat": 81.625,
      "duration_beat": 0.11666666666666003,
      "velocity": 43,
      "track": 0
    },
    {
      "pitch": 83,
      "start_beat": 81.625,
      "duration_beat": 0.11666666666666003,
      "velocity": 43,
      "track": 0
    },
    {
      "pitch": 86,
      "start_beat": 81.625,
      "duration_beat": 0.11666666666666003,
      "velocity": 43,
      "track": 0
    },
    {
      "pitch": 79,
      "start_beat": 81.625,
      "duration_beat": 0.05833333333333002,
      "velocity": 33,
      "track": 0
    },
    {
      "pitch": 79,
      "start_beat": 81.625,
      "duration_beat": 0.125,
      "velocity": 13,
      "track": 0
    },
    {
      "pitch": 88,
      "start_beat": 81.75,
      "duration_beat": 0.05833333333333002,
      "velocity": 33,
      "track": 0
    },
    {
      "pitch": 72,
      "start_beat": 81.75,
      "duration_beat": 0.23645833333333144,
      "velocity": 33,
      "track": 1
    },
    {
      "pitch": 60,
      "start_beat": 81.75,
      "duration_beat": 0.125,
      "velocity": 13,
      "track": 1
    },
    {
      "pitch": 76,
      "start_beat": 81.75,
      "duration_beat": 0.23645833333333144,
      "velocity": 33,
      "track": 1
    },
    {
      "pitch": 64,
      "start_beat": 81.75,
      "duration_beat": 0.125,
      "velocity": 13,
      "track": 1
    },
    {
      "pitch": 86,
      "start_beat": 81.75,
      "duration_beat": 0.05833333333333002,
      "velocity": 33,
      "track": 0
    },
    {
      "pitch": 84,
      "start_beat": 81.75,
      "duration_beat": 0.11666666666666003,
      "velocity": 33,
      "track": 0
    },
    {
      "pitch": 84,
      "start_beat": 81.75,
      "duration_beat": 0.11666666666666003,
      "velocity": 43,
      "track": 0
    },
    {
      "pitch": 88,
      "start_beat": 81.75,
      "duration_beat": 0.11666666666666003,
      "velocity": 43,
      "track": 0
    },
    {
      "pitch": 91,
      "start_beat": 81.75,
      "duration_beat": 0.11666666666666003,
      "velocity": 43,
      "track": 0
    },
    {
      "pitch": 84,
      "start_beat": 81.75,
      "duration_beat": 0.05833333333333002,
      "velocity": 33,
      "track": 0
    },
    {
      "pitch": 84,
      "start_beat": 81.75,
      "duration_beat": 0.125,
      "velocity": 13,
      "track": 0
    },
    {
      "pitch": 91,
      "start_beat": 81.875,
      "duration_beat": 0.05833333333333002,
      "velocity": 33,
      "track": 0
    },
    {
      "pitch": 91,
      "start_beat": 81.875,
      "duration_beat": 0.05833333333333002,
      "velocity": 33,
      "track": 0
    },
    {
      "pitch": 83,
      "start_beat": 81.875,
      "duration_beat": 0.11666666666666003,
      "velocity": 33,
      "track": 0
    },
    {
      "pitch": 83,
      "start_beat": 81.875,
      "duration_beat": 0.11666666666666003,
      "velocity": 43,
      "track": 0
    },
    {
      "pitch": 87,
      "start_beat": 81.875,
      "duration_beat": 0.11666666666666003,
      "velocity": 43,
      "track": 0
    },
    {
      "pitch": 90,
      "start_beat": 81.875,
      "duration_beat": 0.11666666666666003,
      "velocity": 43,
      "track": 0
    },
    {
      "pitch": 83,
      "start_beat": 81.875,
      "duration_beat": 0.05833333333333002,
      "velocity": 33,
      "track": 0
    },
    {
      "pitch": 83,
      "start_beat": 81.875,
      "duration_beat": 0.125,
      "velocity": 13,
      "track": 0
    },
    {
      "pitch": 96,
      "start_beat": 82.0,
      "duration_beat": 0.05833333333333002,
      "velocity": 33,
      "track": 0
    },
    {
      "pitch": 90,
      "start_beat": 82.0,
      "duration_beat": 0.05833333333333002,
      "velocity": 33,
      "track": 0
    },
    {
      "pitch": 81,
      "start_beat": 82.0,
      "duration_beat": 0.11666666666666003,
      "velocity": 33,
      "track": 0
    },
    {
      "pitch": 81,
      "start_beat": 82.0,
      "duration_beat": 0.11666666666666003,
      "velocity": 43,
      "track": 0
    },
    {
      "pitch": 85,
      "start_beat": 82.0,
      "duration_beat": 0.11666666666666003,
      "velocity": 43,
      "track": 0
    },
    {
      "pitch": 88,
      "start_beat": 82.0,
      "duration_beat": 0.11666666666666003,
      "velocity": 43,
      "track": 0
    },
    {
      "pitch": 81,
      "start_beat": 82.0,
      "duration_beat": 0.05833333333333002,
      "velocity": 33,
      "track": 0
    },
    {
      "pitch": 81,
      "start_beat": 82.0,
      "duration_beat": 0.125,
      "velocity": 13,
      "track": 0
    },
    {
      "pitch": 53,
      "start_beat": 82.0,
      "duration_beat": 0.4729166666666629,
      "velocity": 33,
      "track": 1
    },
    {
      "pitch": 53,
      "start_beat": 82.0,
      "duration_beat": 0.4729166666666629,
      "velocity": 43,
      "track": 1
    },
    {
      "pitch": 57,
      "start_beat": 82.0,
      "duration_beat": 0.4729166666666629,
      "velocity": 43,
      "track": 1
    },
    {
      "pitch": 60,
      "start_beat": 82.0,
      "duration_beat": 0.4729166666666629,
      "velocity": 43,
      "track": 1
    },
    {
      "pitch": 53,
      "start_beat": 82.0,
      "duration_beat": 0.23645833333333144,
      "velocity": 33,
      "track": 1
    },
    {
      "pitch": 53,
      "start_beat": 82.0,
      "duration_beat": 0.125,
      "velocity": 13,
      "track": 1
    },
    {
      "pitch": 57,
      "start_beat": 82.0,
      "duration_beat": 0.4729166666666629,
      "velocity": 33,
      "track": 1
    },
    {
      "pitch": 57,
      "start_beat": 82.0,
      "duration_beat": 0.4729166666666629,
      "velocity": 43,
      "track": 1
    },
    {
      "pitch": 61,
      "start_beat": 82.0,
      "duration_beat": 0.4729166666666629,
      "velocity": 43,
      "track": 1
    },
    {
      "pitch": 64,
      "start_beat": 82.0,
      "duration_beat": 0.4729166666666629,
      "velocity": 43,
      "track": 1
    },
    {
      "pitch": 57,
      "start_beat": 82.0,
      "duration_beat": 0.23645833333333144,
      "velocity": 33,
      "track": 1
    },
    {
      "pitch": 57,
      "start_beat": 82.0,
      "duration_beat": 0.125,
      "velocity": 13,
      "track": 1
    },
    {
      "pitch": 95,
      "start_beat": 82.125,
      "duration_beat": 0.05833333333333002,
      "velocity": 33,
      "track": 0
    },
    {
      "pitch": 88,
      "start_beat": 82.125,
      "duration_beat": 0.05833333333333002,
      "velocity": 33,
      "track": 0
    },
    {
      "pitch": 60,
      "start_beat": 82.125,
      "duration_beat": 0.23645833333333144,
      "velocity": 33,
      "track": 1
    },
    {
      "pitch": 64,
      "start_beat": 82.125,
      "duration_beat": 0.23645833333333144,
      "velocity": 33,
      "track": 1
    },
    {
      "pitch": 79,
      "start_beat": 82.125,
      "duration_beat": 0.11666666666666003,
      "velocity": 33,
      "track": 0
    },
    {
      "pitch": 79,
      "start_beat": 82.125,
      "duration_beat": 0.11666666666666003,
      "velocity": 43,
      "track": 0
    },
    {
      "pitch": 83,
      "start_beat": 82.125,
      "duration_beat": 0.11666666666666003,
      "velocity": 43,
      "track": 0
    },
    {
      "pitch": 86,
      "start_beat": 82.125,
      "duration_beat": 0.11666666666666003,
      "velocity": 43,
      "track": 0
    },
    {
      "pitch": 79,
      "start_beat": 82.125,
      "duration_beat": 0.05833333333333002,
      "velocity": 33,
      "track": 0
    },
    {
      "pitch": 79,
      "start_beat": 82.125,
      "duration_beat": 0.125,
      "velocity": 13,
      "track": 0
    },
    {
      "pitch": 93,
      "start_beat": 82.25,
      "duration_beat": 0.05833333333333002,
      "velocity": 33,
      "track": 0
    },
    {
      "pitch": 65,
      "start_beat": 82.25,
      "duration_beat": 0.23645833333333144,
      "velocity": 33,
      "track": 1
    },
    {
      "pitch": 53,
      "start_beat": 82.25,
      "duration_beat": 0.125,
      "velocity": 13,
      "track": 1
    },
    {
      "pitch": 69,
      "start_beat": 82.25,
      "duration_beat": 0.23645833333333144,
      "velocity": 33,
      "track": 1
    },
    {
      "pitch": 57,
      "start_beat": 82.25,
      "duration_beat": 0.125,
      "velocity": 13,
      "track": 1
    },
    {
      "pitch": 86,
      "start_beat": 82.25,
      "duration_beat": 0.05833333333333002,
      "velocity": 33,
      "track": 0
    },
    {
      "pitch": 77,
      "start_beat": 82.25,
      "duration_beat": 0.11666666666666003,
      "velocity": 33,
      "track": 0
    },
    {
      "pitch": 77,
      "start_beat": 82.25,
      "duration_beat": 0.11666666666666003,
      "velocity": 43,
      "track": 0
    },
    {
      "pitch": 81,
      "start_beat": 82.25,
      "duration_beat": 0.11666666666666003,
      "velocity": 43,
      "track": 0
    },
    {
      "pitch": 84,
      "start_beat": 82.25,
      "duration_beat": 0.11666666666666003,
      "velocity": 43,
      "track": 0
    },
    {
      "pitch": 77,
      "start_beat": 82.25,
      "duration_beat": 0.05833333333333002,
      "velocity": 33,
      "track": 0
    },
    {
      "pitch": 77,
      "start_beat": 82.25,
      "duration_beat": 0.125,
      "velocity": 13,
      "track": 0
    },
    {
      "pitch": 91,
      "start_beat": 82.375,
      "duration_beat": 0.05833333333333002,
      "velocity": 33,
      "track": 0
    },
    {
      "pitch": 84,
      "start_beat": 82.375,
      "duration_beat": 0.05833333333333002,
      "velocity": 33,
      "track": 0
    },
    {
      "pitch": 76,
      "start_beat": 82.375,
      "duration_beat": 0.11666666666666003,
      "velocity": 33,
      "track": 0
    },
    {
      "pitch": 76,
      "start_beat": 82.375,
      "duration_beat": 0.11666666666666003,
      "velocity": 43,
      "track": 0
    },
    {
      "pitch": 80,
      "start_beat": 82.375,
      "duration_beat": 0.11666666666666003,
      "velocity": 43,
      "track": 0
    },
    {
      "pitch": 83,
      "start_beat": 82.375,
      "duration_beat": 0.11666666666666003,
      "velocity": 43,
      "track": 0
    },
    {
      "pitch": 76,
      "start_beat": 82.375,
      "duration_beat": 0.05833333333333002,
      "velocity": 33,
      "track": 0
    },
    {
      "pitch": 76,
      "start_beat": 82.375,
      "duration_beat": 0.125,
      "velocity": 13,
      "track": 0
    },
    {
      "pitch": 89,
      "start_beat": 82.5,
      "duration_beat": 0.05833333333333002,
      "velocity": 33,
      "track": 0
    },
    {
      "pitch": 83,
      "start_beat": 82.5,
      "duration_beat": 0.05833333333333002,
      "velocity": 33,
      "track": 0
    },
    {
      "pitch": 74,
      "start_beat": 82.5,
      "duration_beat": 0.11666666666666003,
      "velocity": 33,
      "track": 0
    },
    {
      "pitch": 74,
      "start_beat": 82.5,
      "duration_beat": 0.11666666666666003,
      "velocity": 43,
      "track": 0
    },
    {
      "pitch": 78,
      "start_beat": 82.5,
      "duration_beat": 0.11666666666666003,
      "velocity": 43,
      "track": 0
    },
    {
      "pitch": 81,
      "start_beat": 82.5,
      "duration_beat": 0.11666666666666003,
      "velocity": 43,
      "track": 0
    },
    {
      "pitch": 74,
      "start_beat": 82.5,
      "duration_beat": 0.05833333333333002,
      "velocity": 33,
      "track": 0
    },
    {
      "pitch": 74,
      "start_beat": 82.5,
      "duration_beat": 0.125,
      "velocity": 13,
      "track": 0
    },
    {
      "pitch": 55,
      "start_beat": 82.5,
      "duration_beat": 0.4729166666666629,
      "velocity": 33,
      "track": 1
    },
    {
      "pitch": 55,
      "start_beat": 82.5,
      "duration_beat": 0.4729166666666629,
      "velocity": 43,
      "track": 1
    },
    {
      "pitch": 59,
      "start_beat": 82.5,
      "duration_beat": 0.4729166666666629,
      "velocity": 43,
      "track": 1
    },
    {
      "pitch": 62,
      "start_beat": 82.5,
      "duration_beat": 0.4729166666666629,
      "velocity": 43,
      "track": 1
    },
    {
      "pitch": 55,
      "start_beat": 82.5,
      "duration_beat": 0.23645833333333144,
      "velocity": 33,
      "track": 1
    },
    {
      "pitch": 55,
      "start_beat": 82.5,
      "duration_beat": 0.125,
      "velocity": 13,
      "track": 1
    },
    {
      "pitch": 59,
      "start_beat": 82.5,
      "duration_beat": 0.4729166666666629,
      "velocity": 33,
      "track": 1
    },
    {
      "pitch": 59,
      "start_beat": 82.5,
      "duration_beat": 0.4729166666666629,
      "velocity": 43,
      "track": 1
    },
    {
      "pitch": 63,
      "start_beat": 82.5,
      "duration_beat": 0.4729166666666629,
      "velocity": 43,
      "track": 1
    },
    {
      "pitch": 66,
      "start_beat": 82.5,
      "duration_beat": 0.4729166666666629,
      "velocity": 43,
      "track": 1
    },
    {
      "pitch": 59,
      "start_beat": 82.5,
      "duration_beat": 0.23645833333333144,
      "velocity": 33,
      "track": 1
    },
    {
      "pitch": 59,
      "start_beat": 82.5,
      "duration_beat": 0.125,
      "velocity": 13,
      "track": 1
    },
    {
      "pitch": 88,
      "start_beat": 82.625,
      "duration_beat": 0.05833333333333002,
      "velocity": 33,
      "track": 0
    },
    {
      "pitch": 81,
      "start_beat": 82.625,
      "duration_beat": 0.05833333333333002,
      "velocity": 33,
      "track": 0
    },
    {
      "pitch": 62,
      "start_beat": 82.625,
      "duration_beat": 0.23645833333333144,
      "velocity": 33,
      "track": 1
    },
    {
      "pitch": 66,
      "start_beat": 82.625,
      "duration_beat": 0.23645833333333144,
      "velocity": 33,
      "track": 1
    },
    {
      "pitch": 79,
      "start_beat": 82.625,
      "duration_beat": 0.11666666666666003,
      "velocity": 33,
      "track": 0
    },
    {
      "pitch": 79,
      "start_beat": 82.625,
      "duration_beat": 0.11666666666666003,
      "velocity": 43,
      "track": 0
    },
    {
      "pitch": 83,
      "start_beat": 82.625,
      "duration_beat": 0.11666666666666003,
      "velocity": 43,
      "track": 0
    },
    {
      "pitch": 86,
      "start_beat": 82.625,
      "duration_beat": 0.11666666666666003,
      "velocity": 43,
      "track": 0
    },
    {
      "pitch": 79,
      "start_beat": 82.625,
      "duration_beat": 0.05833333333333002,
      "velocity": 33,
      "track": 0
    },
    {
      "pitch": 79,
      "start_beat": 82.625,
      "duration_beat": 0.125,
      "velocity": 13,
      "track": 0
    },
    {
      "pitch": 86,
      "start_beat": 82.75,
      "duration_beat": 0.05833333333333002,
      "velocity": 33,
      "track": 0
    },
    {
      "pitch": 67,
      "start_beat": 82.75,
      "duration_beat": 0.23645833333333144,
      "velocity": 33,
      "track": 1
    },
    {
      "pitch": 55,
      "start_beat": 82.75,
      "duration_beat": 0.125,
      "velocity": 13,
      "track": 1
    },
    {
      "pitch": 71,
      "start_beat": 82.75,
      "duration_beat": 0.23645833333333144,
      "velocity": 33,
      "track": 1
    },
    {
      "pitch": 59,
      "start_beat": 82.75,
      "duration_beat": 0.125,
      "velocity": 13,
      "track": 1
    },
    {
      "pitch": 86,
      "start_beat": 82.75,
      "duration_beat": 0.05833333333333002,
      "velocity": 33,
      "track": 0
    },
    {
      "pitch": 77,
      "start_beat": 82.75,
      "duration_beat": 0.11666666666666003,
      "velocity": 33,
      "track": 0
    },
    {
      "pitch": 77,
      "start_beat": 82.75,
      "duration_beat": 0.11666666666666003,
      "velocity": 43,
      "track": 0
    },
    {
      "pitch": 81,
      "start_beat": 82.75,
      "duration_beat": 0.11666666666666003,
      "velocity": 43,
      "track": 0
    },
    {
      "pitch": 84,
      "start_beat": 82.75,
      "duration_beat": 0.11666666666666003,
      "velocity": 43,
      "track": 0
    },
    {
      "pitch": 77,
      "start_beat": 82.75,
      "duration_beat": 0.05833333333333002,
      "velocity": 33,
      "track": 0
    },
    {
      "pitch": 77,
      "start_beat": 82.75,
      "duration_beat": 0.125,
      "velocity": 13,
      "track": 0
    },
    {
      "pitch": 91,
      "start_beat": 82.875,
      "duration_beat": 0.05833333333333002,
      "velocity": 33,
      "track": 0
    },
    {
      "pitch": 84,
      "start_beat": 82.875,
      "duration_beat": 0.05833333333333002,
      "velocity": 33,
      "track": 0
    },
    {
      "pitch": 74,
      "start_beat": 82.875,
      "duration_beat": 0.11666666666666003,
      "velocity": 33,
      "track": 0
    },
    {
      "pitch": 74,
      "start_beat": 82.875,
      "duration_beat": 0.11666666666666003,
      "velocity": 43,
      "track": 0
    },
    {
      "pitch": 78,
      "start_beat": 82.875,
      "duration_beat": 0.11666666666666003,
      "velocity": 43,
      "track": 0
    },
    {
      "pitch": 81,
      "start_beat": 82.875,
      "duration_beat": 0.11666666666666003,
      "velocity": 43,
      "track": 0
    },
    {
      "pitch": 74,
      "start_beat": 82.875,
      "duration_beat": 0.05833333333333002,
      "velocity": 33,
      "track": 0
    },
    {
      "pitch": 74,
      "start_beat": 82.875,
      "duration_beat": 0.125,
      "velocity": 13,
      "track": 0
    },
    {
      "pitch": 89,
      "start_beat": 83.0,
      "duration_beat": 0.05833333333333002,
      "velocity": 33,
      "track": 0
    },
    {
      "pitch": 81,
      "start_beat": 83.0,
      "duration_beat": 0.05833333333333002,
      "velocity": 33,
      "track": 0
    },
    {
      "pitch": 76,
      "start_beat": 83.0,
      "duration_beat": 0.11666666666666003,
      "velocity": 33,
      "track": 0
    },
    {
      "pitch": 76,
      "start_beat": 83.0,
      "duration_beat": 0.11666666666666003,
      "velocity": 43,
      "track": 0
    },
    {
      "pitch": 80,
      "start_beat": 83.0,
      "duration_beat": 0.11666666666666003,
      "velocity": 43,
      "track": 0
    },
    {
      "pitch": 83,
      "start_beat": 83.0,
      "duration_beat": 0.11666666666666003,
      "velocity": 43,
      "track": 0
    },
    {
      "pitch": 76,
      "start_beat": 83.0,
      "duration_beat": 0.05833333333333002,
      "velocity": 33,
      "track": 0
    },
    {
      "pitch": 76,
      "start_beat": 83.0,
      "duration_beat": 0.125,
      "velocity": 13,
      "track": 0
    },
    {
      "pitch": 56,
      "start_beat": 83.0,
      "duration_beat": 0.4729166666666629,
      "velocity": 33,
      "track": 1
    },
    {
      "pitch": 56,
      "start_beat": 83.0,
      "duration_beat": 0.4729166666666629,
      "velocity": 43,
      "track": 1
    },
    {
      "pitch": 60,
      "start_beat": 83.0,
      "duration_beat": 0.4729166666666629,
      "velocity": 43,
      "track": 1
    },
    {
      "pitch": 63,
      "start_beat": 83.0,
      "duration_beat": 0.4729166666666629,
      "velocity": 43,
      "track": 1
    },
    {
      "pitch": 56,
      "start_beat": 83.0,
      "duration_beat": 0.23645833333333144,
      "velocity": 33,
      "track": 1
    },
    {
      "pitch": 56,
      "start_beat": 83.0,
      "duration_beat": 0.125,
      "velocity": 13,
      "track": 1
    },
    {
      "pitch": 59,
      "start_beat": 83.0,
      "duration_beat": 0.4729166666666629,
      "velocity": 33,
      "track": 1
    },
    {
      "pitch": 59,
      "start_beat": 83.0,
      "duration_beat": 0.4729166666666629,
      "velocity": 43,
      "track": 1
    },
    {
      "pitch": 63,
      "start_beat": 83.0,
      "duration_beat": 0.4729166666666629,
      "velocity": 43,
      "track": 1
    },
    {
      "pitch": 66,
      "start_beat": 83.0,
      "duration_beat": 0.4729166666666629,
      "velocity": 43,
      "track": 1
    },
    {
      "pitch": 59,
      "start_beat": 83.0,
      "duration_beat": 0.23645833333333144,
      "velocity": 33,
      "track": 1
    },
    {
      "pitch": 59,
      "start_beat": 83.0,
      "duration_beat": 0.125,
      "velocity": 13,
      "track": 1
    },
    {
      "pitch": 86,
      "start_beat": 83.125,
      "duration_beat": 0.05833333333333002,
      "velocity": 33,
      "track": 0
    },
    {
      "pitch": 83,
      "start_beat": 83.125,
      "duration_beat": 0.05833333333333002,
      "velocity": 33,
      "track": 0
    },
    {
      "pitch": 63,
      "start_beat": 83.125,
      "duration_beat": 0.23645833333333144,
      "velocity": 33,
      "track": 1
    },
    {
      "pitch": 66,
      "start_beat": 83.125,
      "duration_beat": 0.23645833333333144,
      "velocity": 33,
      "track": 1
    },
    {
      "pitch": 77,
      "start_beat": 83.125,
      "duration_beat": 0.11666666666666003,
      "velocity": 33,
      "track": 0
    },
    {
      "pitch": 77,
      "start_beat": 83.125,
      "duration_beat": 0.11666666666666003,
      "velocity": 43,
      "track": 0
    },
    {
      "pitch": 81,
      "start_beat": 83.125,
      "duration_beat": 0.11666666666666003,
      "velocity": 43,
      "track": 0
    },
    {
      "pitch": 84,
      "start_beat": 83.125,
      "duration_beat": 0.11666666666666003,
      "velocity": 43,
      "track": 0
    },
    {
      "pitch": 77,
      "start_beat": 83.125,
      "duration_beat": 0.05833333333333002,
      "velocity": 33,
      "track": 0
    },
    {
      "pitch": 77,
      "start_beat": 83.125,
      "duration_beat": 0.125,
      "velocity": 13,
      "track": 0
    },
    {
      "pitch": 88,
      "start_beat": 83.25,
      "duration_beat": 0.05833333333333002,
      "velocity": 33,
      "track": 0
    },
    {
      "pitch": 68,
      "start_beat": 83.25,
      "duration_beat": 0.23645833333333144,
      "velocity": 33,
      "track": 1
    },
    {
      "pitch": 56,
      "start_beat": 83.25,
      "duration_beat": 0.125,
      "velocity": 13,
      "track": 1
    },
    {
      "pitch": 71,
      "start_beat": 83.25,
      "duration_beat": 0.23645833333333144,
      "velocity": 33,
      "track": 1
    },
    {
      "pitch": 59,
      "start_beat": 83.25,
      "duration_beat": 0.125,
      "velocity": 13,
      "track": 1
    },
    {
      "pitch": 84,
      "start_beat": 83.25,
      "duration_beat": 0.05833333333333002,
      "velocity": 33,
      "track": 0
    },
    {
      "pitch": 76,
      "start_beat": 83.25,
      "duration_beat": 0.11666666666666003,
      "velocity": 33,
      "track": 0
    },
    {
      "pitch": 76,
      "start_beat": 83.25,
      "duration_beat": 0.11666666666666003,
      "velocity": 43,
      "track": 0
    },
    {
      "pitch": 80,
      "start_beat": 83.25,
      "duration_beat": 0.11666666666666003,
      "velocity": 43,
      "track": 0
    },
    {
      "pitch": 83,
      "start_beat": 83.25,
      "duration_beat": 0.11666666666666003,
      "velocity": 43,
      "track": 0
    },
    {
      "pitch": 76,
      "start_beat": 83.25,
      "duration_beat": 0.05833333333333002,
      "velocity": 33,
      "track": 0
    },
    {
      "pitch": 76,
      "start_beat": 83.25,
      "duration_beat": 0.125,
      "velocity": 13,
      "track": 0
    },
    {
      "pitch": 89,
      "start_beat": 83.375,
      "duration_beat": 0.05833333333333002,
      "velocity": 33,
      "track": 0
    },
    {
      "pitch": 83,
      "start_beat": 83.375,
      "duration_beat": 0.05833333333333002,
      "velocity": 33,
      "track": 0
    },
    {
      "pitch": 75,
      "start_beat": 83.375,
      "duration_beat": 0.11666666666666003,
      "velocity": 33,
      "track": 0
    },
    {
      "pitch": 75,
      "start_beat": 83.375,
      "duration_beat": 0.11666666666666003,
      "velocity": 43,
      "track": 0
    },
    {
      "pitch": 79,
      "start_beat": 83.375,
      "duration_beat": 0.11666666666666003,
      "velocity": 43,
      "track": 0
    },
    {
      "pitch": 82,
      "start_beat": 83.375,
      "duration_beat": 0.11666666666666003,
      "velocity": 43,
      "track": 0
    },
    {
      "pitch": 75,
      "start_beat": 83.375,
      "duration_beat": 0.05833333333333002,
      "velocity": 33,
      "track": 0
    },
    {
      "pitch": 75,
      "start_beat": 83.375,
      "duration_beat": 0.125,
      "velocity": 13,
      "track": 0
    },
    {
      "pitch": 88,
      "start_beat": 83.5,
      "duration_beat": 0.05833333333333002,
      "velocity": 33,
      "track": 0
    },
    {
      "pitch": 82,
      "start_beat": 83.5,
      "duration_beat": 0.05833333333333002,
      "velocity": 33,
      "track": 0
    },
    {
      "pitch": 76,
      "start_beat": 83.5,
      "duration_beat": 0.11666666666666003,
      "velocity": 33,
      "track": 0
    },
    {
      "pitch": 76,
      "start_beat": 83.5,
      "duration_beat": 0.11666666666666003,
      "velocity": 43,
      "track": 0
    },
    {
      "pitch": 80,
      "start_beat": 83.5,
      "duration_beat": 0.11666666666666003,
      "velocity": 43,
      "track": 0
    },
    {
      "pitch": 83,
      "start_beat": 83.5,
      "duration_beat": 0.11666666666666003,
      "velocity": 43,
      "track": 0
    },
    {
      "pitch": 76,
      "start_beat": 83.5,
      "duration_beat": 0.05833333333333002,
      "velocity": 33,
      "track": 0
    },
    {
      "pitch": 76,
      "start_beat": 83.5,
      "duration_beat": 0.125,
      "velocity": 13,
      "track": 0
    },
    {
      "pitch": 87,
      "start_beat": 83.625,
      "duration_beat": 0.05833333333333002,
      "velocity": 33,
      "track": 0
    },
    {
      "pitch": 83,
      "start_beat": 83.625,
      "duration_beat": 0.05833333333333002,
      "velocity": 33,
      "track": 0
    },
    {
      "pitch": 71,
      "start_beat": 83.625,
      "duration_beat": 0.11666666666666003,
      "velocity": 33,
      "track": 0
    },
    {
      "pitch": 71,
      "start_beat": 83.625,
      "duration_beat": 0.11666666666666003,
      "velocity": 43,
      "track": 0
    },
    {
      "pitch": 75,
      "start_beat": 83.625,
      "duration_beat": 0.11666666666666003,
      "velocity": 43,
      "track": 0
    },
    {
      "pitch": 78,
      "start_beat": 83.625,
      "duration_beat": 0.11666666666666003,
      "velocity": 43,
      "track": 0
    },
    {
      "pitch": 71,
      "start_beat": 83.625,
      "duration_beat": 0.05833333333333002,
      "velocity": 33,
      "track": 0
    },
    {
      "pitch": 71,
      "start_beat": 83.625,
      "duration_beat": 0.125,
      "velocity": 13,
      "track": 0
    },
    {
      "pitch": 88,
      "start_beat": 83.75,
      "duration_beat": 0.05833333333333002,
      "velocity": 33,
      "track": 0
    },
    {
      "pitch": 78,
      "start_beat": 83.75,
      "duration_beat": 0.05833333333333002,
      "velocity": 33,
      "track": 0
    },
    {
      "pitch": 76,
      "start_beat": 83.75,
      "duration_beat": 0.11666666666666003,
      "velocity": 33,
      "track": 0
    },
    {
      "pitch": 76,
      "start_beat": 83.75,
      "duration_beat": 0.11666666666666003,
      "velocity": 43,
      "track": 0
    },
    {
      "pitch": 80,
      "start_beat": 83.75,
      "duration_beat": 0.11666666666666003,
      "velocity": 43,
      "track": 0
    },
    {
      "pitch": 83,
      "start_beat": 83.75,
      "duration_beat": 0.11666666666666003,
      "velocity": 43,
      "track": 0
    },
    {
      "pitch": 76,
      "start_beat": 83.75,
      "duration_beat": 0.05833333333333002,
      "velocity": 33,
      "track": 0
    },
    {
      "pitch": 76,
      "start_beat": 83.75,
      "duration_beat": 0.125,
      "velocity": 13,
      "track": 0
    },
    {
      "pitch": 83,
      "start_beat": 83.875,
      "duration_beat": 0.05833333333333002,
      "velocity": 33,
      "track": 0
    },
    {
      "pitch": 83,
      "start_beat": 83.875,
      "duration_beat": 0.05833333333333002,
      "velocity": 33,
      "track": 0
    },
    {
      "pitch": 75,
      "start_beat": 83.875,
      "duration_beat": 0.11666666666666003,
      "velocity": 33,
      "track": 0
    },
    {
      "pitch": 75,
      "start_beat": 83.875,
      "duration_beat": 0.11666666666666003,
      "velocity": 43,
      "track": 0
    },
    {
      "pitch": 79,
      "start_beat": 83.875,
      "duration_beat": 0.11666666666666003,
      "velocity": 43,
      "track": 0
    },
    {
      "pitch": 82,
      "start_beat": 83.875,
      "duration_beat": 0.11666666666666003,
      "velocity": 43,
      "track": 0
    },
    {
      "pitch": 75,
      "start_beat": 83.875,
      "duration_beat": 0.05833333333333002,
      "velocity": 33,
      "track": 0
    },
    {
      "pitch": 75,
      "start_beat": 83.875,
      "duration_beat": 0.125,
      "velocity": 13,
      "track": 0
    },
    {
      "pitch": 88,
      "start_beat": 84.0,
      "duration_beat": 0.05833333333333002,
      "velocity": 33,
      "track": 0
    },
    {
      "pitch": 82,
      "start_beat": 84.0,
      "duration_beat": 0.05833333333333002,
      "velocity": 33,
      "track": 0
    },
    {
      "pitch": 76,
      "start_beat": 84.0,
      "duration_beat": 0.11666666666666003,
      "velocity": 33,
      "track": 0
    },
    {
      "pitch": 76,
      "start_beat": 84.0,
      "duration_beat": 0.11666666666666003,
      "velocity": 43,
      "track": 0
    },
    {
      "pitch": 80,
      "start_beat": 84.0,
      "duration_beat": 0.11666666666666003,
      "velocity": 43,
      "track": 0
    },
    {
      "pitch": 83,
      "start_beat": 84.0,
      "duration_beat": 0.11666666666666003,
      "velocity": 43,
      "track": 0
    },
    {
      "pitch": 76,
      "start_beat": 84.0,
      "duration_beat": 0.05833333333333002,
      "velocity": 33,
      "track": 0
    },
    {
      "pitch": 76,
      "start_beat": 84.0,
      "duration_beat": 0.125,
      "velocity": 13,
      "track": 0
    },
    {
      "pitch": 87,
      "start_beat": 84.125,
      "duration_beat": 0.05833333333333002,
      "velocity": 33,
      "track": 0
    },
    {
      "pitch": 83,
      "start_beat": 84.125,
      "duration_beat": 0.05833333333333002,
      "velocity": 33,
      "track": 0
    },
    {
      "pitch": 71,
      "start_beat": 84.125,
      "duration_beat": 0.11666666666666003,
      "velocity": 33,
      "track": 0
    },
    {
      "pitch": 71,
      "start_beat": 84.125,
      "duration_beat": 0.11666666666666003,
      "velocity": 43,
      "track": 0
    },
    {
      "pitch": 75,
      "start_beat": 84.125,
      "duration_beat": 0.11666666666666003,
      "velocity": 43,
      "track": 0
    },
    {
      "pitch": 78,
      "start_beat": 84.125,
      "duration_beat": 0.11666666666666003,
      "velocity": 43,
      "track": 0
    },
    {
      "pitch": 71,
      "start_beat": 84.125,
      "duration_beat": 0.05833333333333002,
      "velocity": 33,
      "track": 0
    },
    {
      "pitch": 71,
      "start_beat": 84.125,
      "duration_beat": 0.125,
      "velocity": 13,
      "track": 0
    },
    {
      "pitch": 88,
      "start_beat": 84.25,
      "duration_beat": 0.05833333333333002,
      "velocity": 33,
      "track": 0
    },
    {
      "pitch": 78,
      "start_beat": 84.25,
      "duration_beat": 0.05833333333333002,
      "velocity": 33,
      "track": 0
    },
    {
      "pitch": 76,
      "start_beat": 84.25,
      "duration_beat": 0.11666666666666003,
      "velocity": 33,
      "track": 0
    },
    {
      "pitch": 76,
      "start_beat": 84.25,
      "duration_beat": 0.11666666666666003,
      "velocity": 43,
      "track": 0
    },
    {
      "pitch": 80,
      "start_beat": 84.25,
      "duration_beat": 0.11666666666666003,
      "velocity": 43,
      "track": 0
    },
    {
      "pitch": 83,
      "start_beat": 84.25,
      "duration_beat": 0.11666666666666003,
      "velocity": 43,
      "track": 0
    },
    {
      "pitch": 76,
      "start_beat": 84.25,
      "duration_beat": 0.05833333333333002,
      "velocity": 33,
      "track": 0
    },
    {
      "pitch": 76,
      "start_beat": 84.25,
      "duration_beat": 0.125,
      "velocity": 13,
      "track": 0
    },
    {
      "pitch": 83,
      "start_beat": 84.375,
      "duration_beat": 0.05833333333333002,
      "velocity": 33,
      "track": 0
    },
    {
      "pitch": 83,
      "start_beat": 84.375,
      "duration_beat": 0.05833333333333002,
      "velocity": 33,
      "track": 0
    },
    {
      "pitch": 75,
      "start_beat": 84.375,
      "duration_beat": 0.11666666666666003,
      "velocity": 33,
      "track": 0
    },
    {
      "pitch": 75,
      "start_beat": 84.375,
      "duration_beat": 0.11666666666666003,
      "velocity": 43,
      "track": 0
    },
    {
      "pitch": 79,
      "start_beat": 84.375,
      "duration_beat": 0.11666666666666003,
      "velocity": 43,
      "track": 0
    },
    {
      "pitch": 82,
      "start_beat": 84.375,
      "duration_beat": 0.11666666666666003,
      "velocity": 43,
      "track": 0
    },
    {
      "pitch": 75,
      "start_beat": 84.375,
      "duration_beat": 0.05833333333333002,
      "velocity": 33,
      "track": 0
    },
    {
      "pitch": 75,
      "start_beat": 84.375,
      "duration_beat": 0.125,
      "velocity": 13,
      "track": 0
    },
    {
      "pitch": 88,
      "start_beat": 84.5,
      "duration_beat": 0.05833333333333002,
      "velocity": 33,
      "track": 0
    },
    {
      "pitch": 82,
      "start_beat": 84.5,
      "duration_beat": 0.05833333333333002,
      "velocity": 33,
      "track": 0
    },
    {
      "pitch": 76,
      "start_beat": 84.5,
      "duration_beat": 0.71041666666666,
      "velocity": 33,
      "track": 0
    },
    {
      "pitch": 76,
      "start_beat": 84.5,
      "duration_beat": 0.71041666666666,
      "velocity": 43,
      "track": 0
    },
    {
      "pitch": 80,
      "start_beat": 84.5,
      "duration_beat": 0.71041666666666,
      "velocity": 43,
      "track": 0
    },
    {
      "pitch": 83,
      "start_beat": 84.5,
      "duration_beat": 0.71041666666666,
      "velocity": 43,
      "track": 0
    },
    {
      "pitch": 76,
      "start_beat": 84.5,
      "duration_beat": 0.35520833333333,
      "velocity": 33,
      "track": 0
    },
    {
      "pitch": 76,
      "start_beat": 84.5,
      "duration_beat": 0.125,
      "velocity": 13,
      "track": 0
    },
    {
      "pitch": 87,
      "start_beat": 84.625,
      "duration_beat": 0.05833333333333002,
      "velocity": 33,
      "track": 0
    },
    {
      "pitch": 83,
      "start_beat": 84.625,
      "duration_beat": 0.35520833333333,
      "velocity": 33,
      "track": 0
    },
    {
      "pitch": 88,
      "start_beat": 84.75,
      "duration_beat": 0.35520833333333,
      "velocity": 33,
      "track": 0
    },
    {
      "pitch": 76,
      "start_beat": 84.75,
      "duration_beat": 0.125,
      "velocity": 13,
      "track": 0
    },
    {
      "pitch": 76,
      "start_beat": 85.0,
      "duration_beat": 0.125,
      "velocity": 13,
      "track": 0
    },
    {
      "pitch": 71,
      "start_beat": 85.25,
      "duration_beat": 0.23541666666666572,
      "velocity": 33,
      "track": 0
    },
    {
      "pitch": 71,
      "start_beat": 85.25,
      "duration_beat": 0.23541666666666572,
      "velocity": 43,
      "track": 0
    },
    {
      "pitch": 75,
      "start_beat": 85.25,
      "duration_beat": 0.23541666666666572,
      "velocity": 43,
      "track": 0
    },
    {
      "pitch": 78,
      "start_beat": 85.25,
      "duration_beat": 0.23541666666666572,
      "velocity": 43,
      "track": 0
    },
    {
      "pitch": 71,
      "start_beat": 85.25,
      "duration_beat": 0.11770833333333286,
      "velocity": 33,
      "track": 0
    },
    {
      "pitch": 71,
      "start_beat": 85.25,
      "duration_beat": 0.125,
      "velocity": 13,
      "track": 0
    },
    {
      "pitch": 78,
      "start_beat": 85.375,
      "duration_beat": 0.11770833333333286,
      "velocity": 33,
      "track": 0
    },
    {
      "pitch": 83,
      "start_beat": 85.5,
      "duration_beat": 0.11770833333333286,
      "velocity": 33,
      "track": 0
    },
    {
      "pitch": 76,
      "start_beat": 85.5,
      "duration_beat": 0.23541666666666572,
      "velocity": 33,
      "track": 0
    },
    {
      "pitch": 76,
      "start_beat": 85.5,
      "duration_beat": 0.23541666666666572,
      "velocity": 43,
      "track": 0
    },
    {
      "pitch": 80,
      "start_beat": 85.5,
      "duration_beat": 0.23541666666666572,
      "velocity": 43,
      "track": 0
    },
    {
      "pitch": 83,
      "start_beat": 85.5,
      "duration_beat": 0.23541666666666572,
      "velocity": 43,
      "track": 0
    },
    {
      "pitch": 76,
      "start_beat": 85.5,
      "duration_beat": 0.11770833333333286,
      "velocity": 33,
      "track": 0
    },
    {
      "pitch": 76,
      "start_beat": 85.5,
      "duration_beat": 0.125,
      "velocity": 13,
      "track": 0
    },
    {
      "pitch": 83,
      "start_beat": 85.625,
      "duration_beat": 0.11770833333333286,
      "velocity": 33,
      "track": 0
    },
    {
      "pitch": 88,
      "start_beat": 85.75,
      "duration_beat": 0.11770833333333286,
      "velocity": 33,
      "track": 0
    },
    {
      "pitch": 75,
      "start_beat": 85.75,
      "duration_beat": 0.23541666666666572,
      "velocity": 33,
      "track": 0
    },
    {
      "pitch": 75,
      "start_beat": 85.75,
      "duration_beat": 0.23541666666666572,
      "velocity": 43,
      "track": 0
    },
    {
      "pitch": 79,
      "start_beat": 85.75,
      "duration_beat": 0.23541666666666572,
      "velocity": 43,
      "track": 0
    },
    {
      "pitch": 82,
      "start_beat": 85.75,
      "duration_beat": 0.23541666666666572,
      "velocity": 43,
      "track": 0
    },
    {
      "pitch": 75,
      "start_beat": 85.75,
      "duration_beat": 0.11770833333333286,
      "velocity": 33,
      "track": 0
    },
    {
      "pitch": 75,
      "start_beat": 85.75,
      "duration_beat": 0.125,
      "velocity": 13,
      "track": 0
    },
    {
      "pitch": 82,
      "start_beat": 85.875,
      "duration_beat": 0.11770833333333286,
      "velocity": 33,
      "track": 0
    },
    {
      "pitch": 87,
      "start_beat": 86.0,
      "duration_beat": 0.11770833333333286,
      "velocity": 33,
      "track": 0
    },
    {
      "pitch": 76,
      "start_beat": 86.0,
      "duration_beat": 0.71041666666666,
      "velocity": 33,
      "track": 0
    },
    {
      "pitch": 76,
      "start_beat": 86.0,
      "duration_beat": 0.71041666666666,
      "velocity": 43,
      "track": 0
    },
    {
      "pitch": 80,
      "start_beat": 86.0,
      "duration_beat": 0.71041666666666,
      "velocity": 43,
      "track": 0
    },
    {
      "pitch": 83,
      "start_beat": 86.0,
      "duration_beat": 0.71041666666666,
      "velocity": 43,
      "track": 0
    },
    {
      "pitch": 76,
      "start_beat": 86.0,
      "duration_beat": 0.35520833333333,
      "velocity": 33,
      "track": 0
    },
    {
      "pitch": 76,
      "start_beat": 86.0,
      "duration_beat": 0.125,
      "velocity": 13,
      "track": 0
    },
    {
      "pitch": 83,
      "start_beat": 86.125,
      "duration_beat": 0.35520833333333,
      "velocity": 33,
      "track": 0
    },
    {
      "pitch": 88,
      "start_beat": 86.25,
      "duration_beat": 0.35520833333333,
      "velocity": 33,
      "track": 0
    },
    {
      "pitch": 76,
      "start_beat": 86.25,
      "duration_beat": 0.125,
      "velocity": 13,
      "track": 0
    },
    {
      "pitch": 76,
      "start_beat": 86.5,
      "duration_beat": 0.125,
      "velocity": 13,
      "track": 0
    },
    {
      "pitch": 71,
      "start_beat": 86.75,
      "duration_beat": 0.24791666666666856,
      "velocity": 33,
      "track": 0
    },
    {
      "pitch": 71,
      "start_beat": 86.75,
      "duration_beat": 0.24791666666666856,
      "velocity": 43,
      "track": 0
    },
    {
      "pitch": 75,
      "start_beat": 86.75,
      "duration_beat": 0.24791666666666856,
      "velocity": 43,
      "track": 0
    },
    {
      "pitch": 78,
      "start_beat": 86.75,
      "duration_beat": 0.24791666666666856,
      "velocity": 43,
      "track": 0
    },
    {
      "pitch": 71,
      "start_beat": 86.75,
      "duration_beat": 0.12395833333333428,
      "velocity": 33,
      "track": 0
    },
    {
      "pitch": 71,
      "start_beat": 86.75,
      "duration_beat": 0.125,
      "velocity": 13,
      "track": 0
    },
    {
      "pitch": 78,
      "start_beat": 86.875,
      "duration_beat": 0.12395833333333428,
      "velocity": 33,
      "track": 0
    },
    {
      "pitch": 83,
      "start_beat": 87.0,
      "duration_beat": 0.12395833333333428,
      "velocity": 33,
      "track": 0
    },
    {
      "pitch": 76,
      "start_beat": 87.0,
      "duration_beat": 0.23541666666666572,
      "velocity": 33,
      "track": 0
    },
    {
      "pitch": 76,
      "start_beat": 87.0,
      "duration_beat": 0.23541666666666572,
      "velocity": 43,
      "track": 0
    },
    {
      "pitch": 80,
      "start_beat": 87.0,
      "duration_beat": 0.23541666666666572,
      "velocity": 43,
      "track": 0
    },
    {
      "pitch": 83,
      "start_beat": 87.0,
      "duration_beat": 0.23541666666666572,
      "velocity": 43,
      "track": 0
    },
    {
      "pitch": 76,
      "start_beat": 87.0,
      "duration_beat": 0.11770833333333286,
      "velocity": 33,
      "track": 0
    },
    {
      "pitch": 76,
      "start_beat": 87.0,
      "duration_beat": 0.125,
      "velocity": 13,
      "track": 0
    },
    {
      "pitch": 83,
      "start_beat": 87.125,
      "duration_beat": 0.11770833333333286,
      "velocity": 33,
      "track": 0
    },
    {
      "pitch": 88,
      "start_beat": 87.25,
      "duration_beat": 0.11770833333333286,
      "velocity": 33,
      "track": 0
    },
    {
      "pitch": 75,
      "start_beat": 87.25,
      "duration_beat": 0.24791666666666856,
      "velocity": 33,
      "track": 0
    },
    {
      "pitch": 75,
      "start_beat": 87.25,
      "duration_beat": 0.24791666666666856,
      "velocity": 43,
      "track": 0
    },
    {
      "pitch": 79,
      "start_beat": 87.25,
      "duration_beat": 0.24791666666666856,
      "velocity": 43,
      "track": 0
    },
    {
      "pitch": 82,
      "start_beat": 87.25,
      "duration_beat": 0.24791666666666856,
      "velocity": 43,
      "track": 0
    },
    {
      "pitch": 75,
      "start_beat": 87.25,
      "duration_beat": 0.12395833333333428,
      "velocity": 33,
      "track": 0
    },
    {
      "pitch": 75,
      "start_beat": 87.25,
      "duration_beat": 0.125,
      "velocity": 13,
      "track": 0
    },
    {
      "pitch": 82,
      "start_beat": 87.375,
      "duration_beat": 0.12395833333333428,
      "velocity": 33,
      "track": 0
    },
    {
      "pitch": 87,
      "start_beat": 87.5,
      "duration_beat": 0.12395833333333428,
      "velocity": 33,
      "track": 0
    },
    {
      "pitch": 76,
      "start_beat": 87.5,
      "duration_beat": 0.23541666666666572,
      "velocity": 33,
      "track": 0
    },
    {
      "pitch": 76,
      "start_beat": 87.5,
      "duration_beat": 0.23541666666666572,
      "velocity": 43,
      "track": 0
    },
    {
      "pitch": 80,
      "start_beat": 87.5,
      "duration_beat": 0.23541666666666572,
      "velocity": 43,
      "track": 0
    },
    {
      "pitch": 83,
      "start_beat": 87.5,
      "duration_beat": 0.23541666666666572,
      "velocity": 43,
      "track": 0
    },
    {
      "pitch": 76,
      "start_beat": 87.5,
      "duration_beat": 0.11770833333333286,
      "velocity": 33,
      "track": 0
    },
    {
      "pitch": 76,
      "start_beat": 87.5,
      "duration_beat": 0.125,
      "velocity": 13,
      "track": 0
    },
    {
      "pitch": 83,
      "start_beat": 87.625,
      "duration_beat": 0.11770833333333286,
      "velocity": 33,
      "track": 0
    },
    {
      "pitch": 88,
      "start_beat": 87.75,
      "duration_beat": 0.11770833333333286,
      "velocity": 33,
      "track": 0
    },
    {
      "pitch": 75,
      "start_beat": 87.75,
      "duration_beat": 0.24791666666666856,
      "velocity": 33,
      "track": 0
    },
    {
      "pitch": 75,
      "start_beat": 87.75,
      "duration_beat": 0.24791666666666856,
      "velocity": 43,
      "track": 0
    },
    {
      "pitch": 79,
      "start_beat": 87.75,
      "duration_beat": 0.24791666666666856,
      "velocity": 43,
      "track": 0
    },
    {
      "pitch": 82,
      "start_beat": 87.75,
      "duration_beat": 0.24791666666666856,
      "velocity": 43,
      "track": 0
    },
    {
      "pitch": 75,
      "start_beat": 87.75,
      "duration_beat": 0.12395833333333428,
      "velocity": 33,
      "track": 0
    },
    {
      "pitch": 75,
      "start_beat": 87.75,
      "duration_beat": 0.125,
      "velocity": 13,
      "track": 0
    },
    {
      "pitch": 82,
      "start_beat": 87.875,
      "duration_beat": 0.12395833333333428,
      "velocity": 33,
      "track": 0
    },
    {
      "pitch": 87,
      "start_beat": 88.0,
      "duration_beat": 0.12395833333333428,
      "velocity": 33,
      "track": 0
    },
    {
      "pitch": 76,
      "start_beat": 88.0,
      "duration_beat": 0.23541666666666572,
      "velocity": 33,
      "track": 0
    },
    {
      "pitch": 76,
      "start_beat": 88.0,
      "duration_beat": 0.23541666666666572,
      "velocity": 43,
      "track": 0
    },
    {
      "pitch": 80,
      "start_beat": 88.0,
      "duration_beat": 0.23541666666666572,
      "velocity": 43,
      "track": 0
    },
    {
      "pitch": 83,
      "start_beat": 88.0,
      "duration_beat": 0.23541666666666572,
      "velocity": 43,
      "track": 0
    },
    {
      "pitch": 76,
      "start_beat": 88.0,
      "duration_beat": 0.11770833333333286,
      "velocity": 33,
      "track": 0
    },
    {
      "pitch": 76,
      "start_beat": 88.0,
      "duration_beat": 0.125,
      "velocity": 13,
      "track": 0
    },
    {
      "pitch": 83,
      "start_beat": 88.125,
      "duration_beat": 0.11770833333333286,
      "velocity": 33,
      "track": 0
    },
    {
      "pitch": 88,
      "start_beat": 88.25,
      "duration_beat": 0.11770833333333286,
      "velocity": 33,
      "track": 0
    },
    {
      "pitch": 75,
      "start_beat": 88.25,
      "duration_beat": 0.24791666666666856,
      "velocity": 33,
      "track": 0
    },
    {
      "pitch": 75,
      "start_beat": 88.25,
      "duration_beat": 0.24791666666666856,
      "velocity": 43,
      "track": 0
    },
    {
      "pitch": 79,
      "start_beat": 88.25,
      "duration_beat": 0.24791666666666856,
      "velocity": 43,
      "track": 0
    },
    {
      "pitch": 82,
      "start_beat": 88.25,
      "duration_beat": 0.24791666666666856,
      "velocity": 43,
      "track": 0
    },
    {
      "pitch": 75,
      "start_beat": 88.25,
      "duration_beat": 0.12395833333333428,
      "velocity": 33,
      "track": 0
    },
    {
      "pitch": 75,
      "start_beat": 88.25,
      "duration_beat": 0.125,
      "velocity": 13,
      "track": 0
    },
    {
      "pitch": 82,
      "start_beat": 88.375,
      "duration_beat": 0.12395833333333428,
      "velocity": 33,
      "track": 0
    },
    {
      "pitch": 87,
      "start_beat": 88.5,
      "duration_beat": 0.12395833333333428,
      "velocity": 33,
      "track": 0
    },
    {
      "pitch": 76,
      "start_beat": 88.5,
      "duration_beat": 0.23541666666666572,
      "velocity": 33,
      "track": 0
    },
    {
      "pitch": 76,
      "start_beat": 88.5,
      "duration_beat": 0.23541666666666572,
      "velocity": 43,
      "track": 0
    },
    {
      "pitch": 80,
      "start_beat": 88.5,
      "duration_beat": 0.23541666666666572,
      "velocity": 43,
      "track": 0
    },
    {
      "pitch": 83,
      "start_beat": 88.5,
      "duration_beat": 0.23541666666666572,
      "velocity": 43,
      "track": 0
    },
    {
      "pitch": 76,
      "start_beat": 88.5,
      "duration_beat": 0.11770833333333286,
      "velocity": 33,
      "track": 0
    },
    {
      "pitch": 76,
      "start_beat": 88.5,
      "duration_beat": 0.125,
      "velocity": 13,
      "track": 0
    },
    {
      "pitch": 83,
      "start_beat": 88.625,
      "duration_beat": 0.11770833333333286,
      "velocity": 33,
      "track": 0
    },
    {
      "pitch": 88,
      "start_beat": 88.75,
      "duration_beat": 0.11770833333333286,
      "velocity": 33,
      "track": 0
    },
    {
      "pitch": 75,
      "start_beat": 88.75,
      "duration_beat": 0.24791666666666856,
      "velocity": 33,
      "track": 0
    },
    {
      "pitch": 75,
      "start_beat": 88.75,
      "duration_beat": 0.24791666666666856,
      "velocity": 43,
      "track": 0
    },
    {
      "pitch": 79,
      "start_beat": 88.75,
      "duration_beat": 0.24791666666666856,
      "velocity": 43,
      "track": 0
    },
    {
      "pitch": 82,
      "start_beat": 88.75,
      "duration_beat": 0.24791666666666856,
      "velocity": 43,
      "track": 0
    },
    {
      "pitch": 75,
      "start_beat": 88.75,
      "duration_beat": 0.12395833333333428,
      "velocity": 33,
      "track": 0
    },
    {
      "pitch": 75,
      "start_beat": 88.75,
      "duration_beat": 0.125,
      "velocity": 13,
      "track": 0
    },
    {
      "pitch": 82,
      "start_beat": 88.875,
      "duration_beat": 0.12395833333333428,
      "velocity": 33,
      "track": 0
    },
    {
      "pitch": 87,
      "start_beat": 89.0,
      "duration_beat": 0.12395833333333428,
      "velocity": 33,
      "track": 0
    },
    {
      "pitch": 76,
      "start_beat": 89.0,
      "duration_beat": 0.23541666666666572,
      "velocity": 33,
      "track": 0
    },
    {
      "pitch": 76,
      "start_beat": 89.0,
      "duration_beat": 0.23541666666666572,
      "velocity": 43,
      "track": 0
    },
    {
      "pitch": 80,
      "start_beat": 89.0,
      "duration_beat": 0.23541666666666572,
      "velocity": 43,
      "track": 0
    },
    {
      "pitch": 83,
      "start_beat": 89.0,
      "duration_beat": 0.23541666666666572,
      "velocity": 43,
      "track": 0
    },
    {
      "pitch": 76,
      "start_beat": 89.0,
      "duration_beat": 0.11770833333333286,
      "velocity": 33,
      "track": 0
    },
    {
      "pitch": 76,
      "start_beat": 89.0,
      "duration_beat": 0.125,
      "velocity": 13,
      "track": 0
    },
    {
      "pitch": 83,
      "start_beat": 89.125,
      "duration_beat": 0.11770833333333286,
      "velocity": 33,
      "track": 0
    },
    {
      "pitch": 88,
      "start_beat": 89.25,
      "duration_beat": 0.11770833333333286,
      "velocity": 33,
      "track": 0
    },
    {
      "pitch": 75,
      "start_beat": 89.25,
      "duration_beat": 0.23541666666666572,
      "velocity": 33,
      "track": 0
    },
    {
      "pitch": 75,
      "start_beat": 89.25,
      "duration_beat": 0.23541666666666572,
      "velocity": 43,
      "track": 0
    },
    {
      "pitch": 79,
      "start_beat": 89.25,
      "duration_beat": 0.23541666666666572,
      "velocity": 43,
      "track": 0
    },
    {
      "pitch": 82,
      "start_beat": 89.25,
      "duration_beat": 0.23541666666666572,
      "velocity": 43,
      "track": 0
    },
    {
      "pitch": 75,
      "start_beat": 89.25,
      "duration_beat": 0.11770833333333286,
      "velocity": 33,
      "track": 0
    },
    {
      "pitch": 75,
      "start_beat": 89.25,
      "duration_beat": 0.125,
      "velocity": 13,
      "track": 0
    },
    {
      "pitch": 82,
      "start_beat": 89.375,
      "duration_beat": 0.11770833333333286,
      "velocity": 33,
      "track": 0
    },
    {
      "pitch": 87,
      "start_beat": 89.5,
      "duration_beat": 0.11770833333333286,
      "velocity": 33,
      "track": 0
    },
    {
      "pitch": 76,
      "start_beat": 89.5,
      "duration_beat": 0.23541666666666572,
      "velocity": 33,
      "track": 0
    },
    {
      "pitch": 76,
      "start_beat": 89.5,
      "duration_beat": 0.23541666666666572,
      "velocity": 43,
      "track": 0
    },
    {
      "pitch": 80,
      "start_beat": 89.5,
      "duration_beat": 0.23541666666666572,
      "velocity": 43,
      "track": 0
    },
    {
      "pitch": 83,
      "start_beat": 89.5,
      "duration_beat": 0.23541666666666572,
      "velocity": 43,
      "track": 0
    },
    {
      "pitch": 76,
      "start_beat": 89.5,
      "duration_beat": 0.11770833333333286,
      "velocity": 33,
      "track": 0
    },
    {
      "pitch": 76,
      "start_beat": 89.5,
      "duration_beat": 0.125,
      "velocity": 13,
      "track": 0
    },
    {
      "pitch": 83,
      "start_beat": 89.625,
      "duration_beat": 0.11770833333333286,
      "velocity": 33,
      "track": 0
    },
    {
      "pitch": 88,
      "start_beat": 89.75,
      "duration_beat": 0.11770833333333286,
      "velocity": 33,
      "track": 0
    },
    {
      "pitch": 71,
      "start_beat": 89.75,
      "duration_beat": 0.23541666666666572,
      "velocity": 33,
      "track": 0
    },
    {
      "pitch": 71,
      "start_beat": 89.75,
      "duration_beat": 0.23541666666666572,
      "velocity": 43,
      "track": 0
    },
    {
      "pitch": 75,
      "start_beat": 89.75,
      "duration_beat": 0.23541666666666572,
      "velocity": 43,
      "track": 0
    },
    {
      "pitch": 78,
      "start_beat": 89.75,
      "duration_beat": 0.23541666666666572,
      "velocity": 43,
      "track": 0
    },
    {
      "pitch": 71,
      "start_beat": 89.75,
      "duration_beat": 0.11770833333333286,
      "velocity": 33,
      "track": 0
    },
    {
      "pitch": 71,
      "start_beat": 89.75,
      "duration_beat": 0.125,
      "velocity": 13,
      "track": 0
    },
    {
      "pitch": 78,
      "start_beat": 89.875,
      "duration_beat": 0.11770833333333286,
      "velocity": 33,
      "track": 0
    },
    {
      "pitch": 83,
      "start_beat": 90.0,
      "duration_beat": 0.11770833333333286,
      "velocity": 33,
      "track": 0
    },
    {
      "pitch": 74,
      "start_beat": 90.0,
      "duration_beat": 0.23541666666666572,
      "velocity": 33,
      "track": 0
    },
    {
      "pitch": 74,
      "start_beat": 90.0,
      "duration_beat": 0.23541666666666572,
      "velocity": 43,
      "track": 0
    },
    {
      "pitch": 78,
      "start_beat": 90.0,
      "duration_beat": 0.23541666666666572,
      "velocity": 43,
      "track": 0
    },
    {
      "pitch": 81,
      "start_beat": 90.0,
      "duration_beat": 0.23541666666666572,
      "velocity": 43,
      "track": 0
    },
    {
      "pitch": 74,
      "start_beat": 90.0,
      "duration_beat": 0.11770833333333286,
      "velocity": 33,
      "track": 0
    },
    {
      "pitch": 74,
      "start_beat": 90.0,
      "duration_beat": 0.125,
      "velocity": 13,
      "track": 0
    },
    {
      "pitch": 81,
      "start_beat": 90.125,
      "duration_beat": 0.11770833333333286,
      "velocity": 33,
      "track": 0
    },
    {
      "pitch": 86,
      "start_beat": 90.25,
      "duration_beat": 0.11770833333333286,
      "velocity": 33,
      "track": 0
    },
    {
      "pitch": 72,
      "start_beat": 90.25,
      "duration_beat": 0.23541666666666572,
      "velocity": 33,
      "track": 0
    },
    {
      "pitch": 72,
      "start_beat": 90.25,
      "duration_beat": 0.23541666666666572,
      "velocity": 43,
      "track": 0
    },
    {
      "pitch": 76,
      "start_beat": 90.25,
      "duration_beat": 0.23541666666666572,
      "velocity": 43,
      "track": 0
    },
    {
      "pitch": 79,
      "start_beat": 90.25,
      "duration_beat": 0.23541666666666572,
      "velocity": 43,
      "track": 0
    },
    {
      "pitch": 72,
      "start_beat": 90.25,
      "duration_beat": 0.11770833333333286,
      "velocity": 33,
      "track": 0
    },
    {
      "pitch": 72,
      "start_beat": 90.25,
      "duration_beat": 0.125,
      "velocity": 13,
      "track": 0
    },
    {
      "pitch": 79,
      "start_beat": 90.375,
      "duration_beat": 0.11770833333333286,
      "velocity": 33,
      "track": 0
    },
    {
      "pitch": 84,
      "start_beat": 90.5,
      "duration_beat": 0.11770833333333286,
      "velocity": 33,
      "track": 0
    },
    {
      "pitch": 69,
      "start_beat": 90.5,
      "duration_beat": 0.4729166666666629,
      "velocity": 33,
      "track": 0
    },
    {
      "pitch": 69,
      "start_beat": 90.5,
      "duration_beat": 0.4729166666666629,
      "velocity": 43,
      "track": 0
    },
    {
      "pitch": 73,
      "start_beat": 90.5,
      "duration_beat": 0.4729166666666629,
      "velocity": 43,
      "track": 0
    },
    {
      "pitch": 76,
      "start_beat": 90.5,
      "duration_beat": 0.4729166666666629,
      "velocity": 43,
      "track": 0
    },
    {
      "pitch": 69,
      "start_beat": 90.5,
      "duration_beat": 0.23645833333333144,
      "velocity": 33,
      "track": 0
    },
    {
      "pitch": 69,
      "start_beat": 90.5,
      "duration_beat": 0.125,
      "velocity": 13,
      "track": 0
    },
    {
      "pitch": 45,
      "start_beat": 90.5,
      "duration_beat": 0.23541666666666572,
      "velocity": 33,
      "track": 1
    },
    {
      "pitch": 45,
      "start_beat": 90.5,
      "duration_beat": 0.23541666666666572,
      "velocity": 43,
      "track": 1
    },
    {
      "pitch": 49,
      "start_beat": 90.5,
      "duration_beat": 0.23541666666666572,
      "velocity": 43,
      "track": 1
    },
    {
      "pitch": 52,
      "start_beat": 90.5,
      "duration_beat": 0.23541666666666572,
      "velocity": 43,
      "track": 1
    },
    {
      "pitch": 45,
      "start_beat": 90.5,
      "duration_beat": 0.11770833333333286,
      "velocity": 33,
      "track": 1
    },
    {
      "pitch": 45,
      "start_beat": 90.5,
      "duration_beat": 0.125,
      "velocity": 13,
      "track": 1
    },
    {
      "pitch": 76,
      "start_beat": 90.625,
      "duration_beat": 0.23645833333333144,
      "velocity": 33,
      "track": 0
    },
    {
      "pitch": 52,
      "start_beat": 90.625,
      "duration_beat": 0.11770833333333286,
      "velocity": 33,
      "track": 1
    },
    {
      "pitch": 81,
      "start_beat": 90.75,
      "duration_beat": 0.23645833333333144,
      "velocity": 33,
      "track": 0
    },
    {
      "pitch": 69,
      "start_beat": 90.75,
      "duration_beat": 0.125,
      "velocity": 13,
      "track": 0
    },
    {
      "pitch": 57,
      "start_beat": 90.75,
      "duration_beat": 0.11770833333333286,
      "velocity": 33,
      "track": 1
    },
    {
      "pitch": 52,
      "start_beat": 90.75,
      "duration_beat": 0.23541666666666572,
      "velocity": 33,
      "track": 1
    },
    {
      "pitch": 52,
      "start_beat": 90.75,
      "duration_beat": 0.23541666666666572,
      "velocity": 43,
      "track": 1
    },
    {
      "pitch": 56,
      "start_beat": 90.75,
      "duration_beat": 0.23541666666666572,
      "velocity": 43,
      "track": 1
    },
    {
      "pitch": 59,
      "start_beat": 90.75,
      "duration_beat": 0.23541666666666572,
      "velocity": 43,
      "track": 1
    },
    {
      "pitch": 52,
      "start_beat": 90.75,
      "duration_beat": 0.11770833333333286,
      "velocity": 33,
      "track": 1
    },
    {
      "pitch": 52,
      "start_beat": 90.75,
      "duration_beat": 0.125,
      "velocity": 13,
      "track": 1
    },
    {
      "pitch": 59,
      "start_beat": 90.875,
      "duration_beat": 0.11770833333333286,
      "velocity": 33,
      "track": 1
    },
    {
      "pitch": 64,
      "start_beat": 91.0,
      "duration_beat": 0.11770833333333286,
      "velocity": 33,
      "track": 1
    },
    {
      "pitch": 57,
      "start_beat": 91.0,
      "duration_beat": 0.23541666666666572,
      "velocity": 33,
      "track": 1
    },
    {
      "pitch": 57,
      "start_beat": 91.0,
      "duration_beat": 0.23541666666666572,
      "velocity": 43,
      "track": 1
    },
    {
      "pitch": 61,
      "start_beat": 91.0,
      "duration_beat": 0.23541666666666572,
      "velocity": 43,
      "track": 1
    },
    {
      "pitch": 64,
      "start_beat": 91.0,
      "duration_beat": 0.23541666666666572,
      "velocity": 43,
      "track": 1
    },
    {
      "pitch": 57,
      "start_beat": 91.0,
      "duration_beat": 0.11770833333333286,
      "velocity": 33,
      "track": 1
    },
    {
      "pitch": 57,
      "start_beat": 91.0,
      "duration_beat": 0.125,
      "velocity": 13,
      "track": 1
    },
    {
      "pitch": 64,
      "start_beat": 91.125,
      "duration_beat": 0.11770833333333286,
      "velocity": 33,
      "track": 1
    },
    {
      "pitch": 69,
      "start_beat": 91.25,
      "duration_beat": 0.11770833333333286,
      "velocity": 33,
      "track": 1
    },
    {
      "pitch": 60,
      "start_beat": 91.25,
      "duration_beat": 0.23541666666666572,
      "velocity": 33,
      "track": 0
    },
    {
      "pitch": 60,
      "start_beat": 91.25,
      "duration_beat": 0.23541666666666572,
      "velocity": 43,
      "track": 0
    },
    {
      "pitch": 64,
      "start_beat": 91.25,
      "duration_beat": 0.23541666666666572,
      "velocity": 43,
      "track": 0
    },
    {
      "pitch": 67,
      "start_beat": 91.25,
      "duration_beat": 0.23541666666666572,
      "velocity": 43,
      "track": 0
    },
    {
      "pitch": 60,
      "start_beat": 91.25,
      "duration_beat": 0.11770833333333286,
      "velocity": 33,
      "track": 0
    },
    {
      "pitch": 60,
      "start_beat": 91.25,
      "duration_beat": 0.125,
      "velocity": 13,
      "track": 0
    },
    {
      "pitch": 67,
      "start_beat": 91.375,
      "duration_beat": 0.11770833333333286,
      "velocity": 33,
      "track": 0
    },
    {
      "pitch": 72,
      "start_beat": 91.5,
      "duration_beat": 0.11770833333333286,
      "velocity": 33,
      "track": 0
    },
    {
      "pitch": 64,
      "start_beat": 91.5,
      "duration_beat": 0.23541666666666572,
      "velocity": 33,
      "track": 0
    },
    {
      "pitch": 64,
      "start_beat": 91.5,
      "duration_beat": 0.23541666666666572,
      "velocity": 43,
      "track": 0
    },
    {
      "pitch": 68,
      "start_beat": 91.5,
      "duration_beat": 0.23541666666666572,
      "velocity": 43,
      "track": 0
    },
    {
      "pitch": 71,
      "start_beat": 91.5,
      "duration_beat": 0.23541666666666572,
      "velocity": 43,
      "track": 0
    },
    {
      "pitch": 64,
      "start_beat": 91.5,
      "duration_beat": 0.11770833333333286,
      "velocity": 33,
      "track": 0
    },
    {
      "pitch": 64,
      "start_beat": 91.5,
      "duration_beat": 0.125,
      "velocity": 13,
      "track": 0
    },
    {
      "pitch": 71,
      "start_beat": 91.625,
      "duration_beat": 0.11770833333333286,
      "velocity": 33,
      "track": 0
    },
    {
      "pitch": 76,
      "start_beat": 91.75,
      "duration_beat": 0.11770833333333286,
      "velocity": 33,
      "track": 0
    },
    {
      "pitch": 69,
      "start_beat": 91.75,
      "duration_beat": 0.23541666666666572,
      "velocity": 33,
      "track": 0
    },
    {
      "pitch": 69,
      "start_beat": 91.75,
      "duration_beat": 0.23541666666666572,
      "velocity": 43,
      "track": 0
    },
    {
      "pitch": 73,
      "start_beat": 91.75,
      "duration_beat": 0.23541666666666572,
      "velocity": 43,
      "track": 0
    },
    {
      "pitch": 76,
      "start_beat": 91.75,
      "duration_beat": 0.23541666666666572,
      "velocity": 43,
      "track": 0
    },
    {
      "pitch": 69,
      "start_beat": 91.75,
      "duration_beat": 0.11770833333333286,
      "velocity": 33,
      "track": 0
    },
    {
      "pitch": 69,
      "start_beat": 91.75,
      "duration_beat": 0.125,
      "velocity": 13,
      "track": 0
    },
    {
      "pitch": 76,
      "start_beat": 91.875,
      "duration_beat": 0.11770833333333286,
      "velocity": 33,
      "track": 0
    },
    {
      "pitch": 81,
      "start_beat": 92.0,
      "duration_beat": 0.11770833333333286,
      "velocity": 33,
      "track": 0
    },
    {
      "pitch": 71,
      "start_beat": 92.0,
      "duration_beat": 0.4729166666666629,
      "velocity": 33,
      "track": 0
    },
    {
      "pitch": 71,
      "start_beat": 92.0,
      "duration_beat": 0.4729166666666629,
      "velocity": 43,
      "track": 0
    },
    {
      "pitch": 75,
      "start_beat": 92.0,
      "duration_beat": 0.4729166666666629,
      "velocity": 43,
      "track": 0
    },
    {
      "pitch": 78,
      "start_beat": 92.0,
      "duration_beat": 0.4729166666666629,
      "velocity": 43,
      "track": 0
    },
    {
      "pitch": 71,
      "start_beat": 92.0,
      "duration_beat": 0.23645833333333144,
      "velocity": 33,
      "track": 0
    },
    {
      "pitch": 71,
      "start_beat": 92.0,
      "duration_beat": 0.125,
      "velocity": 13,
      "track": 0
    },
    {
      "pitch": 40,
      "start_beat": 92.0,
      "duration_beat": 0.23541666666666572,
      "velocity": 33,
      "track": 1
    },
    {
      "pitch": 40,
      "start_beat": 92.0,
      "duration_beat": 0.23541666666666572,
      "velocity": 43,
      "track": 1
    },
    {
      "pitch": 44,
      "start_beat": 92.0,
      "duration_beat": 0.23541666666666572,
      "velocity": 43,
      "track": 1
    },
    {
      "pitch": 47,
      "start_beat": 92.0,
      "duration_beat": 0.23541666666666572,
      "velocity": 43,
      "track": 1
    },
    {
      "pitch": 40,
      "start_beat": 92.0,
      "duration_beat": 0.11770833333333286,
      "velocity": 33,
      "track": 1
    },
    {
      "pitch": 40,
      "start_beat": 92.0,
      "duration_beat": 0.125,
      "velocity": 13,
      "track": 1
    },
    {
      "pitch": 78,
      "start_beat": 92.125,
      "duration_beat": 0.23645833333333144,
      "velocity": 33,
      "track": 0
    },
    {
      "pitch": 47,
      "start_beat": 92.125,
      "duration_beat": 0.11770833333333286,
      "velocity": 33,
      "track": 1
    },
    {
      "pitch": 83,
      "start_beat": 92.25,
      "duration_beat": 0.23645833333333144,
      "velocity": 33,
      "track": 0
    },
    {
      "pitch": 71,
      "start_beat": 92.25,
      "duration_beat": 0.125,
      "velocity": 13,
      "track": 0
    },
    {
      "pitch": 52,
      "start_beat": 92.25,
      "duration_beat": 0.11770833333333286,
      "velocity": 33,
      "track": 1
    },
    {
      "pitch": 52,
      "start_beat": 92.25,
      "duration_beat": 0.23541666666666572,
      "velocity": 33,
      "track": 1
    },
    {
      "pitch": 52,
      "start_beat": 92.25,
      "duration_beat": 0.23541666666666572,
      "velocity": 43,
      "track": 1
    },
    {
      "pitch": 56,
      "start_beat": 92.25,
      "duration_beat": 0.23541666666666572,
      "velocity": 43,
      "track": 1
    },
    {
      "pitch": 59,
      "start_beat": 92.25,
      "duration_beat": 0.23541666666666572,
      "velocity": 43,
      "track": 1
    },
    {
      "pitch": 52,
      "start_beat": 92.25,
      "duration_beat": 0.11770833333333286,
      "velocity": 33,
      "track": 1
    },
    {
      "pitch": 52,
      "start_beat": 92.25,
      "duration_beat": 0.125,
      "velocity": 13,
      "track": 1
    },
    {
      "pitch": 59,
      "start_beat": 92.375,
      "duration_beat": 0.11770833333333286,
      "velocity": 33,
      "track": 1
    },
    {
      "pitch": 64,
      "start_beat": 92.5,
      "duration_beat": 0.11770833333333286,
      "velocity": 33,
      "track": 1
    },
    {
      "pitch": 56,
      "start_beat": 92.5,
      "duration_beat": 0.23541666666666572,
      "velocity": 33,
      "track": 1
    },
    {
      "pitch": 56,
      "start_beat": 92.5,
      "duration_beat": 0.23541666666666572,
      "velocity": 43,
      "track": 1
    },
    {
      "pitch": 60,
      "start_beat": 92.5,
      "duration_beat": 0.23541666666666572,
      "velocity": 43,
      "track": 1
    },
    {
      "pitch": 63,
      "start_beat": 92.5,
      "duration_beat": 0.23541666666666572,
      "velocity": 43,
      "track": 1
    },
    {
      "pitch": 56,
      "start_beat": 92.5,
      "duration_beat": 0.11770833333333286,
      "velocity": 33,
      "track": 1
    },
    {
      "pitch": 56,
      "start_beat": 92.5,
      "duration_beat": 0.125,
      "velocity": 13,
      "track": 1
    },
    {
      "pitch": 63,
      "start_beat": 92.625,
      "duration_beat": 0.11770833333333286,
      "velocity": 33,
      "track": 1
    },
    {
      "pitch": 68,
      "start_beat": 92.75,
      "duration_beat": 0.11770833333333286,
      "velocity": 33,
      "track": 1
    },
    {
      "pitch": 64,
      "start_beat": 92.75,
      "duration_beat": 0.23541666666666572,
      "velocity": 33,
      "track": 0
    },
    {
      "pitch": 64,
      "start_beat": 92.75,
      "duration_beat": 0.23541666666666572,
      "velocity": 43,
      "track": 0
    },
    {
      "pitch": 68,
      "start_beat": 92.75,
      "duration_beat": 0.23541666666666572,
      "velocity": 43,
      "track": 0
    },
    {
      "pitch": 71,
      "start_beat": 92.75,
      "duration_beat": 0.23541666666666572,
      "velocity": 43,
      "track": 0
    },
    {
      "pitch": 64,
      "start_beat": 92.75,
      "duration_beat": 0.11770833333333286,
      "velocity": 33,
      "track": 0
    },
    {
      "pitch": 64,
      "start_beat": 92.75,
      "duration_beat": 0.125,
      "velocity": 13,
      "track": 0
    },
    {
      "pitch": 71,
      "start_beat": 92.875,
      "duration_beat": 0.11770833333333286,
      "velocity": 33,
      "track": 0
    },
    {
      "pitch": 76,
      "start_beat": 93.0,
      "duration_beat": 0.11770833333333286,
      "velocity": 33,
      "track": 0
    },
    {
      "pitch": 68,
      "start_beat": 93.0,
      "duration_beat": 0.23541666666666572,
      "velocity": 33,
      "track": 0
    },
    {
      "pitch": 68,
      "start_beat": 93.0,
      "duration_beat": 0.23541666666666572,
      "velocity": 43,
      "track": 0
    },
    {
      "pitch": 72,
      "start_beat": 93.0,
      "duration_beat": 0.23541666666666572,
      "velocity": 43,
      "track": 0
    },
    {
      "pitch": 75,
      "start_beat": 93.0,
      "duration_beat": 0.23541666666666572,
      "velocity": 43,
      "track": 0
    },
    {
      "pitch": 68,
      "start_beat": 93.0,
      "duration_beat": 0.11770833333333286,
      "velocity": 33,
      "track": 0
    },
    {
      "pitch": 68,
      "start_beat": 93.0,
      "duration_beat": 0.125,
      "velocity": 13,
      "track": 0
    },
    {
      "pitch": 75,
      "start_beat": 93.125,
      "duration_beat": 0.11770833333333286,
      "velocity": 33,
      "track": 0
    },
    {
      "pitch": 80,
      "start_beat": 93.25,
      "duration_beat": 0.11770833333333286,
      "velocity": 33,
      "track": 0
    },
    {
      "pitch": 71,
      "start_beat": 93.25,
      "duration_beat": 0.23541666666666572,
      "velocity": 33,
      "track": 0
    },
    {
      "pitch": 71,
      "start_beat": 93.25,
      "duration_beat": 0.23541666666666572,
      "velocity": 43,
      "track": 0
    },
    {
      "pitch": 75,
      "start_beat": 93.25,
      "duration_beat": 0.23541666666666572,
      "velocity": 43,
      "track": 0
    },
    {
      "pitch": 78,
      "start_beat": 93.25,
      "duration_beat": 0.23541666666666572,
      "velocity": 43,
      "track": 0
    },
    {
      "pitch": 71,
      "start_beat": 93.25,
      "duration_beat": 0.11770833333333286,
      "velocity": 33,
      "track": 0
    },
    {
      "pitch": 71,
      "start_beat": 93.25,
      "duration_beat": 0.125,
      "velocity": 13,
      "track": 0
    },
    {
      "pitch": 78,
      "start_beat": 93.375,
      "duration_beat": 0.11770833333333286,
      "velocity": 33,
      "track": 0
    },
    {
      "pitch": 83,
      "start_beat": 93.5,
      "duration_beat": 0.11770833333333286,
      "velocity": 33,
      "track": 0
    },
    {
      "pitch": 72,
      "start_beat": 93.5,
      "duration_beat": 0.4729166666666629,
      "velocity": 33,
      "track": 0
    },
    {
      "pitch": 72,
      "start_beat": 93.5,
      "duration_beat": 0.4729166666666629,
      "velocity": 43,
      "track": 0
    },
    {
      "pitch": 76,
      "start_beat": 93.5,
      "duration_beat": 0.4729166666666629,
      "velocity": 43,
      "track": 0
    },
    {
      "pitch": 79,
      "start_beat": 93.5,
      "duration_beat": 0.4729166666666629,
      "velocity": 43,
      "track": 0
    },
    {
      "pitch": 72,
      "start_beat": 93.5,
      "duration_beat": 0.23645833333333144,
      "velocity": 33,
      "track": 0
    },
    {
      "pitch": 72,
      "start_beat": 93.5,
      "duration_beat": 0.125,
      "velocity": 13,
      "track": 0
    },
    {
      "pitch": 45,
      "start_beat": 93.5,
      "duration_beat": 0.23541666666666572,
      "velocity": 33,
      "track": 1
    },
    {
      "pitch": 45,
      "start_beat": 93.5,
      "duration_beat": 0.23541666666666572,
      "velocity": 43,
      "track": 1
    },
    {
      "pitch": 49,
      "start_beat": 93.5,
      "duration_beat": 0.23541666666666572,
      "velocity": 43,
      "track": 1
    },
    {
      "pitch": 52,
      "start_beat": 93.5,
      "duration_beat": 0.23541666666666572,
      "velocity": 43,
      "track": 1
    },
    {
      "pitch": 45,
      "start_beat": 93.5,
      "duration_beat": 0.11770833333333286,
      "velocity": 33,
      "track": 1
    },
    {
      "pitch": 45,
      "start_beat": 93.5,
      "duration_beat": 0.125,
      "velocity": 13,
      "track": 1
    },
    {
      "pitch": 79,
      "start_beat": 93.625,
      "duration_beat": 0.23645833333333144,
      "velocity": 33,
      "track": 0
    },
    {
      "pitch": 52,
      "start_beat": 93.625,
      "duration_beat": 0.11770833333333286,
      "velocity": 33,
      "track": 1
    },
    {
      "pitch": 84,
      "start_beat": 93.75,
      "duration_beat": 0.23645833333333144,
      "velocity": 33,
      "track": 0
    },
    {
      "pitch": 72,
      "start_beat": 93.75,
      "duration_beat": 0.125,
      "velocity": 13,
      "track": 0
    },
    {
      "pitch": 57,
      "start_beat": 93.75,
      "duration_beat": 0.11770833333333286,
      "velocity": 33,
      "track": 1
    },
    {
      "pitch": 52,
      "start_beat": 93.75,
      "duration_beat": 0.23541666666666572,
      "velocity": 33,
      "track": 1
    },
    {
      "pitch": 52,
      "start_beat": 93.75,
      "duration_beat": 0.23541666666666572,
      "velocity": 43,
      "track": 1
    },
    {
      "pitch": 56,
      "start_beat": 93.75,
      "duration_beat": 0.23541666666666572,
      "velocity": 43,
      "track": 1
    },
    {
      "pitch": 59,
      "start_beat": 93.75,
      "duration_beat": 0.23541666666666572,
      "velocity": 43,
      "track": 1
    },
    {
      "pitch": 52,
      "start_beat": 93.75,
      "duration_beat": 0.11770833333333286,
      "velocity": 33,
      "track": 1
    },
    {
      "pitch": 52,
      "start_beat": 93.75,
      "duration_beat": 0.125,
      "velocity": 13,
      "track": 1
    },
    {
      "pitch": 59,
      "start_beat": 93.875,
      "duration_beat": 0.11770833333333286,
      "velocity": 33,
      "track": 1
    },
    {
      "pitch": 64,
      "start_beat": 94.0,
      "duration_beat": 0.11770833333333286,
      "velocity": 33,
      "track": 1
    },
    {
      "pitch": 57,
      "start_beat": 94.0,
      "duration_beat": 0.23541666666666572,
      "velocity": 33,
      "track": 1
    },
    {
      "pitch": 57,
      "start_beat": 94.0,
      "duration_beat": 0.23541666666666572,
      "velocity": 43,
      "track": 1
    },
    {
      "pitch": 61,
      "start_beat": 94.0,
      "duration_beat": 0.23541666666666572,
      "velocity": 43,
      "track": 1
    },
    {
      "pitch": 64,
      "start_beat": 94.0,
      "duration_beat": 0.23541666666666572,
      "velocity": 43,
      "track": 1
    },
    {
      "pitch": 57,
      "start_beat": 94.0,
      "duration_beat": 0.11770833333333286,
      "velocity": 33,
      "track": 1
    },
    {
      "pitch": 57,
      "start_beat": 94.0,
      "duration_beat": 0.125,
      "velocity": 13,
      "track": 1
    },
    {
      "pitch": 64,
      "start_beat": 94.125,
      "duration_beat": 0.11770833333333286,
      "velocity": 33,
      "track": 1
    },
    {
      "pitch": 69,
      "start_beat": 94.25,
      "duration_beat": 0.11770833333333286,
      "velocity": 33,
      "track": 1
    },
    {
      "pitch": 64,
      "start_beat": 94.25,
      "duration_beat": 0.23541666666666572,
      "velocity": 33,
      "track": 0
    },
    {
      "pitch": 64,
      "start_beat": 94.25,
      "duration_beat": 0.23541666666666572,
      "velocity": 43,
      "track": 0
    },
    {
      "pitch": 68,
      "start_beat": 94.25,
      "duration_beat": 0.23541666666666572,
      "velocity": 43,
      "track": 0
    },
    {
      "pitch": 71,
      "start_beat": 94.25,
      "duration_beat": 0.23541666666666572,
      "velocity": 43,
      "track": 0
    },
    {
      "pitch": 64,
      "start_beat": 94.25,
      "duration_beat": 0.11770833333333286,
      "velocity": 33,
      "track": 0
    },
    {
      "pitch": 64,
      "start_beat": 94.25,
      "duration_beat": 0.125,
      "velocity": 13,
      "track": 0
    },
    {
      "pitch": 71,
      "start_beat": 94.375,
      "duration_beat": 0.11770833333333286,
      "velocity": 33,
      "track": 0
    },
    {
      "pitch": 76,
      "start_beat": 94.5,
      "duration_beat": 0.11770833333333286,
      "velocity": 33,
      "track": 0
    },
    {
      "pitch": 76,
      "start_beat": 94.5,
      "duration_beat": 0.23541666666666572,
      "velocity": 33,
      "track": 0
    },
    {
      "pitch": 76,
      "start_beat": 94.5,
      "duration_beat": 0.23541666666666572,
      "velocity": 43,
      "track": 0
    },
    {
      "pitch": 80,
      "start_beat": 94.5,
      "duration_beat": 0.23541666666666572,
      "velocity": 43,
      "track": 0
    },
    {
      "pitch": 83,
      "start_beat": 94.5,
      "duration_beat": 0.23541666666666572,
      "velocity": 43,
      "track": 0
    },
    {
      "pitch": 76,
      "start_beat": 94.5,
      "duration_beat": 0.11770833333333286,
      "velocity": 33,
      "track": 0
    },
    {
      "pitch": 76,
      "start_beat": 94.5,
      "duration_beat": 0.125,
      "velocity": 13,
      "track": 0
    },
    {
      "pitch": 83,
      "start_beat": 94.625,
      "duration_beat": 0.11770833333333286,
      "velocity": 33,
      "track": 0
    },
    {
      "pitch": 88,
      "start_beat": 94.75,
      "duration_beat": 0.11770833333333286,
      "velocity": 33,
      "track": 0
    },
    {
      "pitch": 75,
      "start_beat": 94.75,
      "duration_beat": 0.23541666666666572,
      "velocity": 33,
      "track": 0
    },
    {
      "pitch": 75,
      "start_beat": 94.75,
      "duration_beat": 0.23541666666666572,
      "velocity": 43,
      "track": 0
    },
    {
      "pitch": 79,
      "start_beat": 94.75,
      "duration_beat": 0.23541666666666572,
      "velocity": 43,
      "track": 0
    },
    {
      "pitch": 82,
      "start_beat": 94.75,
      "duration_beat": 0.23541666666666572,
      "velocity": 43,
      "track": 0
    },
    {
      "pitch": 75,
      "start_beat": 94.75,
      "duration_beat": 0.11770833333333286,
      "velocity": 33,
      "track": 0
    },
    {
      "pitch": 75,
      "start_beat": 94.75,
      "duration_beat": 0.125,
      "velocity": 13,
      "track": 0
    },
    {
      "pitch": 82,
      "start_beat": 94.875,
      "duration_beat": 0.11770833333333286,
      "velocity": 33,
      "track": 0
    },
    {
      "pitch": 87,
      "start_beat": 95.0,
      "duration_beat": 0.11770833333333286,
      "velocity": 33,
      "track": 0
    },
    {
      "pitch": 76,
      "start_beat": 95.0,
      "duration_beat": 0.23541666666666572,
      "velocity": 33,
      "track": 0
    },
    {
      "pitch": 76,
      "start_beat": 95.0,
      "duration_beat": 0.23541666666666572,
      "velocity": 43,
      "track": 0
    },
    {
      "pitch": 80,
      "start_beat": 95.0,
      "duration_beat": 0.23541666666666572,
      "velocity": 43,
      "track": 0
    },
    {
      "pitch": 83,
      "start_beat": 95.0,
      "duration_beat": 0.23541666666666572,
      "velocity": 43,
      "track": 0
    },
    {
      "pitch": 76,
      "start_beat": 95.0,
      "duration_beat": 0.11770833333333286,
      "velocity": 33,
      "track": 0
    },
    {
      "pitch": 76,
      "start_beat": 95.0,
      "duration_beat": 0.125,
      "velocity": 13,
      "track": 0
    },
    {
      "pitch": 83,
      "start_beat": 95.125,
      "duration_beat": 0.11770833333333286,
      "velocity": 33,
      "track": 0
    },
    {
      "pitch": 88,
      "start_beat": 95.25,
      "duration_beat": 0.11770833333333286,
      "velocity": 33,
      "track": 0
    },
    {
      "pitch": 75,
      "start_beat": 95.25,
      "duration_beat": 0.23541666666666572,
      "velocity": 33,
      "track": 0
    },
    {
      "pitch": 75,
      "start_beat": 95.25,
      "duration_beat": 0.23541666666666572,
      "velocity": 43,
      "track": 0
    },
    {
      "pitch": 79,
      "start_beat": 95.25,
      "duration_beat": 0.23541666666666572,
      "velocity": 43,
      "track": 0
    },
    {
      "pitch": 82,
      "start_beat": 95.25,
      "duration_beat": 0.23541666666666572,
      "velocity": 43,
      "track": 0
    },
    {
      "pitch": 75,
      "start_beat": 95.25,
      "duration_beat": 0.11770833333333286,
      "velocity": 33,
      "track": 0
    },
    {
      "pitch": 75,
      "start_beat": 95.25,
      "duration_beat": 0.125,
      "velocity": 13,
      "track": 0
    },
    {
      "pitch": 82,
      "start_beat": 95.375,
      "duration_beat": 0.11770833333333286,
      "velocity": 33,
      "track": 0
    },
    {
      "pitch": 87,
      "start_beat": 95.5,
      "duration_beat": 0.11770833333333286,
      "velocity": 33,
      "track": 0
    },
    {
      "pitch": 76,
      "start_beat": 95.5,
      "duration_beat": 0.23541666666666572,
      "velocity": 33,
      "track": 0
    },
    {
      "pitch": 76,
      "start_beat": 95.5,
      "duration_beat": 0.23541666666666572,
      "velocity": 43,
      "track": 0
    },
    {
      "pitch": 80,
      "start_beat": 95.5,
      "duration_beat": 0.23541666666666572,
      "velocity": 43,
      "track": 0
    },
    {
      "pitch": 83,
      "start_beat": 95.5,
      "duration_beat": 0.23541666666666572,
      "velocity": 43,
      "track": 0
    },
    {
      "pitch": 76,
      "start_beat": 95.5,
      "duration_beat": 0.11770833333333286,
      "velocity": 33,
      "track": 0
    },
    {
      "pitch": 76,
      "start_beat": 95.5,
      "duration_beat": 0.125,
      "velocity": 13,
      "track": 0
    },
    {
      "pitch": 83,
      "start_beat": 95.625,
      "duration_beat": 0.11770833333333286,
      "velocity": 33,
      "track": 0
    },
    {
      "pitch": 88,
      "start_beat": 95.75,
      "duration_beat": 0.11770833333333286,
      "velocity": 33,
      "track": 0
    },
    {
      "pitch": 71,
      "start_beat": 95.75,
      "duration_beat": 0.23541666666666572,
      "velocity": 33,
      "track": 0
    },
    {
      "pitch": 71,
      "start_beat": 95.75,
      "duration_beat": 0.23541666666666572,
      "velocity": 43,
      "track": 0
    },
    {
      "pitch": 75,
      "start_beat": 95.75,
      "duration_beat": 0.23541666666666572,
      "velocity": 43,
      "track": 0
    },
    {
      "pitch": 78,
      "start_beat": 95.75,
      "duration_beat": 0.23541666666666572,
      "velocity": 43,
      "track": 0
    },
    {
      "pitch": 71,
      "start_beat": 95.75,
      "duration_beat": 0.11770833333333286,
      "velocity": 33,
      "track": 0
    },
    {
      "pitch": 71,
      "start_beat": 95.75,
      "duration_beat": 0.125,
      "velocity": 13,
      "track": 0
    },
    {
      "pitch": 78,
      "start_beat": 95.875,
      "duration_beat": 0.11770833333333286,
      "velocity": 33,
      "track": 0
    },
    {
      "pitch": 83,
      "start_beat": 96.0,
      "duration_beat": 0.11770833333333286,
      "velocity": 33,
      "track": 0
    },
    {
      "pitch": 74,
      "start_beat": 96.0,
      "duration_beat": 0.23541666666666572,
      "velocity": 33,
      "track": 0
    },
    {
      "pitch": 74,
      "start_beat": 96.0,
      "duration_beat": 0.23541666666666572,
      "velocity": 43,
      "track": 0
    },
    {
      "pitch": 78,
      "start_beat": 96.0,
      "duration_beat": 0.23541666666666572,
      "velocity": 43,
      "track": 0
    },
    {
      "pitch": 81,
      "start_beat": 96.0,
      "duration_beat": 0.23541666666666572,
      "velocity": 43,
      "track": 0
    },
    {
      "pitch": 74,
      "start_beat": 96.0,
      "duration_beat": 0.11770833333333286,
      "velocity": 33,
      "track": 0
    },
    {
      "pitch": 74,
      "start_beat": 96.0,
      "duration_beat": 0.125,
      "velocity": 13,
      "track": 0
    },
    {
      "pitch": 81,
      "start_beat": 96.125,
      "duration_beat": 0.11770833333333286,
      "velocity": 33,
      "track": 0
    },
    {
      "pitch": 86,
      "start_beat": 96.25,
      "duration_beat": 0.11770833333333286,
      "velocity": 33,
      "track": 0
    },
    {
      "pitch": 72,
      "start_beat": 96.25,
      "duration_beat": 0.23541666666666572,
      "velocity": 33,
      "track": 0
    },
    {
      "pitch": 72,
      "start_beat": 96.25,
      "duration_beat": 0.23541666666666572,
      "velocity": 43,
      "track": 0
    },
    {
      "pitch": 76,
      "start_beat": 96.25,
      "duration_beat": 0.23541666666666572,
      "velocity": 43,
      "track": 0
    },
    {
      "pitch": 79,
      "start_beat": 96.25,
      "duration_beat": 0.23541666666666572,
      "velocity": 43,
      "track": 0
    },
    {
      "pitch": 72,
      "start_beat": 96.25,
      "duration_beat": 0.11770833333333286,
      "velocity": 33,
      "track": 0
    },
    {
      "pitch": 72,
      "start_beat": 96.25,
      "duration_beat": 0.125,
      "velocity": 13,
      "track": 0
    },
    {
      "pitch": 79,
      "start_beat": 96.375,
      "duration_beat": 0.11770833333333286,
      "velocity": 33,
      "track": 0
    },
    {
      "pitch": 84,
      "start_beat": 96.5,
      "duration_beat": 0.11770833333333286,
      "velocity": 33,
      "track": 0
    },
    {
      "pitch": 69,
      "start_beat": 96.5,
      "duration_beat": 0.4729166666666629,
      "velocity": 33,
      "track": 0
    },
    {
      "pitch": 69,
      "start_beat": 96.5,
      "duration_beat": 0.4729166666666629,
      "velocity": 43,
      "track": 0
    },
    {
      "pitch": 73,
      "start_beat": 96.5,
      "duration_beat": 0.4729166666666629,
      "velocity": 43,
      "track": 0
    },
    {
      "pitch": 76,
      "start_beat": 96.5,
      "duration_beat": 0.4729166666666629,
      "velocity": 43,
      "track": 0
    },
    {
      "pitch": 69,
      "start_beat": 96.5,
      "duration_beat": 0.23645833333333144,
      "velocity": 33,
      "track": 0
    },
    {
      "pitch": 69,
      "start_beat": 96.5,
      "duration_beat": 0.125,
      "velocity": 13,
      "track": 0
    },
    {
      "pitch": 45,
      "start_beat": 96.5,
      "duration_beat": 0.23541666666666572,
      "velocity": 33,
      "track": 1
    },
    {
      "pitch": 45,
      "start_beat": 96.5,
      "duration_beat": 0.23541666666666572,
      "velocity": 43,
      "track": 1
    },
    {
      "pitch": 49,
      "start_beat": 96.5,
      "duration_beat": 0.23541666666666572,
      "velocity": 43,
      "track": 1
    },
    {
      "pitch": 52,
      "start_beat": 96.5,
      "duration_beat": 0.23541666666666572,
      "velocity": 43,
      "track": 1
    },
    {
      "pitch": 45,
      "start_beat": 96.5,
      "duration_beat": 0.11770833333333286,
      "velocity": 33,
      "track": 1
    },
    {
      "pitch": 45,
      "start_beat": 96.5,
      "duration_beat": 0.125,
      "velocity": 13,
      "track": 1
    },
    {
      "pitch": 76,
      "start_beat": 96.625,
      "duration_beat": 0.23645833333333144,
      "velocity": 33,
      "track": 0
    },
    {
      "pitch": 52,
      "start_beat": 96.625,
      "duration_beat": 0.11770833333333286,
      "velocity": 33,
      "track": 1
    },
    {
      "pitch": 81,
      "start_beat": 96.75,
      "duration_beat": 0.23645833333333144,
      "velocity": 33,
      "track": 0
    },
    {
      "pitch": 69,
      "start_beat": 96.75,
      "duration_beat": 0.125,
      "velocity": 13,
      "track": 0
    },
    {
      "pitch": 57,
      "start_beat": 96.75,
      "duration_beat": 0.11770833333333286,
      "velocity": 33,
      "track": 1
    },
    {
      "pitch": 52,
      "start_beat": 96.75,
      "duration_beat": 0.23541666666666572,
      "velocity": 33,
      "track": 1
    },
    {
      "pitch": 52,
      "start_beat": 96.75,
      "duration_beat": 0.23541666666666572,
      "velocity": 43,
      "track": 1
    },
    {
      "pitch": 56,
      "start_beat": 96.75,
      "duration_beat": 0.23541666666666572,
      "velocity": 43,
      "track": 1
    },
    {
      "pitch": 59,
      "start_beat": 96.75,
      "duration_beat": 0.23541666666666572,
      "velocity": 43,
      "track": 1
    },
    {
      "pitch": 52,
      "start_beat": 96.75,
      "duration_beat": 0.11770833333333286,
      "velocity": 33,
      "track": 1
    },
    {
      "pitch": 52,
      "start_beat": 96.75,
      "duration_beat": 0.125,
      "velocity": 13,
      "track": 1
    },
    {
      "pitch": 59,
      "start_beat": 96.875,
      "duration_beat": 0.11770833333333286,
      "velocity": 33,
      "track": 1
    },
    {
      "pitch": 64,
      "start_beat": 97.0,
      "duration_beat": 0.11770833333333286,
      "velocity": 33,
      "track": 1
    },
    {
      "pitch": 57,
      "start_beat": 97.0,
      "duration_beat": 0.23541666666666572,
      "velocity": 33,
      "track": 1
    },
    {
      "pitch": 57,
      "start_beat": 97.0,
      "duration_beat": 0.23541666666666572,
      "velocity": 43,
      "track": 1
    },
    {
      "pitch": 61,
      "start_beat": 97.0,
      "duration_beat": 0.23541666666666572,
      "velocity": 43,
      "track": 1
    },
    {
      "pitch": 64,
      "start_beat": 97.0,
      "duration_beat": 0.23541666666666572,
      "velocity": 43,
      "track": 1
    },
    {
      "pitch": 57,
      "start_beat": 97.0,
      "duration_beat": 0.11770833333333286,
      "velocity": 33,
      "track": 1
    },
    {
      "pitch": 57,
      "start_beat": 97.0,
      "duration_beat": 0.125,
      "velocity": 13,
      "track": 1
    },
    {
      "pitch": 64,
      "start_beat": 97.125,
      "duration_beat": 0.11770833333333286,
      "velocity": 33,
      "track": 1
    },
    {
      "pitch": 69,
      "start_beat": 97.25,
      "duration_beat": 0.11770833333333286,
      "velocity": 33,
      "track": 1
    },
    {
      "pitch": 60,
      "start_beat": 97.25,
      "duration_beat": 0.23541666666666572,
      "velocity": 33,
      "track": 0
    },
    {
      "pitch": 60,
      "start_beat": 97.25,
      "duration_beat": 0.23541666666666572,
      "velocity": 43,
      "track": 0
    },
    {
      "pitch": 64,
      "start_beat": 97.25,
      "duration_beat": 0.23541666666666572,
      "velocity": 43,
      "track": 0
    },
    {
      "pitch": 67,
      "start_beat": 97.25,
      "duration_beat": 0.23541666666666572,
      "velocity": 43,
      "track": 0
    },
    {
      "pitch": 60,
      "start_beat": 97.25,
      "duration_beat": 0.11770833333333286,
      "velocity": 33,
      "track": 0
    },
    {
      "pitch": 60,
      "start_beat": 97.25,
      "duration_beat": 0.125,
      "velocity": 13,
      "track": 0
    },
    {
      "pitch": 67,
      "start_beat": 97.375,
      "duration_beat": 0.11770833333333286,
      "velocity": 33,
      "track": 0
    },
    {
      "pitch": 72,
      "start_beat": 97.5,
      "duration_beat": 0.11770833333333286,
      "velocity": 33,
      "track": 0
    },
    {
      "pitch": 64,
      "start_beat": 97.5,
      "duration_beat": 0.23541666666666572,
      "velocity": 33,
      "track": 0
    },
    {
      "pitch": 64,
      "start_beat": 97.5,
      "duration_beat": 0.23541666666666572,
      "velocity": 43,
      "track": 0
    },
    {
      "pitch": 68,
      "start_beat": 97.5,
      "duration_beat": 0.23541666666666572,
      "velocity": 43,
      "track": 0
    },
    {
      "pitch": 71,
      "start_beat": 97.5,
      "duration_beat": 0.23541666666666572,
      "velocity": 43,
      "track": 0
    },
    {
      "pitch": 64,
      "start_beat": 97.5,
      "duration_beat": 0.11770833333333286,
      "velocity": 33,
      "track": 0
    },
    {
      "pitch": 64,
      "start_beat": 97.5,
      "duration_beat": 0.125,
      "velocity": 13,
      "track": 0
    },
    {
      "pitch": 71,
      "start_beat": 97.625,
      "duration_beat": 0.11770833333333286,
      "velocity": 33,
      "track": 0
    },
    {
      "pitch": 76,
      "start_beat": 97.75,
      "duration_beat": 0.11770833333333286,
      "velocity": 33,
      "track": 0
    },
    {
      "pitch": 69,
      "start_beat": 97.75,
      "duration_beat": 0.23541666666666572,
      "velocity": 33,
      "track": 0
    },
    {
      "pitch": 69,
      "start_beat": 97.75,
      "duration_beat": 0.23541666666666572,
      "velocity": 43,
      "track": 0
    },
    {
      "pitch": 73,
      "start_beat": 97.75,
      "duration_beat": 0.23541666666666572,
      "velocity": 43,
      "track": 0
    },
    {
      "pitch": 76,
      "start_beat": 97.75,
      "duration_beat": 0.23541666666666572,
      "velocity": 43,
      "track": 0
    },
    {
      "pitch": 69,
      "start_beat": 97.75,
      "duration_beat": 0.11770833333333286,
      "velocity": 33,
      "track": 0
    },
    {
      "pitch": 69,
      "start_beat": 97.75,
      "duration_beat": 0.125,
      "velocity": 13,
      "track": 0
    },
    {
      "pitch": 76,
      "start_beat": 97.875,
      "duration_beat": 0.11770833333333286,
      "velocity": 33,
      "track": 0
    },
    {
      "pitch": 81,
      "start_beat": 98.0,
      "duration_beat": 0.11770833333333286,
      "velocity": 33,
      "track": 0
    },
    {
      "pitch": 71,
      "start_beat": 98.0,
      "duration_beat": 0.4729166666666629,
      "velocity": 33,
      "track": 0
    },
    {
      "pitch": 71,
      "start_beat": 98.0,
      "duration_beat": 0.4729166666666629,
      "velocity": 43,
      "track": 0
    },
    {
      "pitch": 75,
      "start_beat": 98.0,
      "duration_beat": 0.4729166666666629,
      "velocity": 43,
      "track": 0
    },
    {
      "pitch": 78,
      "start_beat": 98.0,
      "duration_beat": 0.4729166666666629,
      "velocity": 43,
      "track": 0
    },
    {
      "pitch": 71,
      "start_beat": 98.0,
      "duration_beat": 0.23645833333333144,
      "velocity": 33,
      "track": 0
    },
    {
      "pitch": 71,
      "start_beat": 98.0,
      "duration_beat": 0.125,
      "velocity": 13,
      "track": 0
    },
    {
      "pitch": 40,
      "start_beat": 98.0,
      "duration_beat": 0.23541666666666572,
      "velocity": 33,
      "track": 1
    },
    {
      "pitch": 40,
      "start_beat": 98.0,
      "duration_beat": 0.23541666666666572,
      "velocity": 43,
      "track": 1
    },
    {
      "pitch": 44,
      "start_beat": 98.0,
      "duration_beat": 0.23541666666666572,
      "velocity": 43,
      "track": 1
    },
    {
      "pitch": 47,
      "start_beat": 98.0,
      "duration_beat": 0.23541666666666572,
      "velocity": 43,
      "track": 1
    },
    {
      "pitch": 40,
      "start_beat": 98.0,
      "duration_beat": 0.11770833333333286,
      "velocity": 33,
      "track": 1
    },
    {
      "pitch": 40,
      "start_beat": 98.0,
      "duration_beat": 0.125,
      "velocity": 13,
      "track": 1
    },
    {
      "pitch": 78,
      "start_beat": 98.125,
      "duration_beat": 0.23645833333333144,
      "velocity": 33,
      "track": 0
    },
    {
      "pitch": 47,
      "start_beat": 98.125,
      "duration_beat": 0.11770833333333286,
      "velocity": 33,
      "track": 1
    },
    {
      "pitch": 83,
      "start_beat": 98.25,
      "duration_beat": 0.23645833333333144,
      "velocity": 33,
      "track": 0
    },
    {
      "pitch": 71,
      "start_beat": 98.25,
      "duration_beat": 0.125,
      "velocity": 13,
      "track": 0
    },
    {
      "pitch": 52,
      "start_beat": 98.25,
      "duration_beat": 0.11770833333333286,
      "velocity": 33,
      "track": 1
    },
    {
      "pitch": 52,
      "start_beat": 98.25,
      "duration_beat": 0.23541666666666572,
      "velocity": 33,
      "track": 1
    },
    {
      "pitch": 52,
      "start_beat": 98.25,
      "duration_beat": 0.23541666666666572,
      "velocity": 43,
      "track": 1
    },
    {
      "pitch": 56,
      "start_beat": 98.25,
      "duration_beat": 0.23541666666666572,
      "velocity": 43,
      "track": 1
    },
    {
      "pitch": 59,
      "start_beat": 98.25,
      "duration_beat": 0.23541666666666572,
      "velocity": 43,
      "track": 1
    },
    {
      "pitch": 52,
      "start_beat": 98.25,
      "duration_beat": 0.11770833333333286,
      "velocity": 33,
      "track": 1
    },
    {
      "pitch": 52,
      "start_beat": 98.25,
      "duration_beat": 0.125,
      "velocity": 13,
      "track": 1
    },
    {
      "pitch": 59,
      "start_beat": 98.375,
      "duration_beat": 0.11770833333333286,
      "velocity": 33,
      "track": 1
    },
    {
      "pitch": 64,
      "start_beat": 98.5,
      "duration_beat": 0.11770833333333286,
      "velocity": 33,
      "track": 1
    },
    {
      "pitch": 56,
      "start_beat": 98.5,
      "duration_beat": 0.23541666666666572,
      "velocity": 33,
      "track": 1
    },
    {
      "pitch": 56,
      "start_beat": 98.5,
      "duration_beat": 0.23541666666666572,
      "velocity": 43,
      "track": 1
    },
    {
      "pitch": 60,
      "start_beat": 98.5,
      "duration_beat": 0.23541666666666572,
      "velocity": 43,
      "track": 1
    },
    {
      "pitch": 63,
      "start_beat": 98.5,
      "duration_beat": 0.23541666666666572,
      "velocity": 43,
      "track": 1
    },
    {
      "pitch": 56,
      "start_beat": 98.5,
      "duration_beat": 0.11770833333333286,
      "velocity": 33,
      "track": 1
    },
    {
      "pitch": 56,
      "start_beat": 98.5,
      "duration_beat": 0.125,
      "velocity": 13,
      "track": 1
    },
    {
      "pitch": 63,
      "start_beat": 98.625,
      "duration_beat": 0.11770833333333286,
      "velocity": 33,
      "track": 1
    },
    {
      "pitch": 68,
      "start_beat": 98.75,
      "duration_beat": 0.11770833333333286,
      "velocity": 33,
      "track": 1
    },
    {
      "pitch": 62,
      "start_beat": 98.75,
      "duration_beat": 0.23541666666666572,
      "velocity": 33,
      "track": 0
    },
    {
      "pitch": 62,
      "start_beat": 98.75,
      "duration_beat": 0.23541666666666572,
      "velocity": 43,
      "track": 0
    },
    {
      "pitch": 66,
      "start_beat": 98.75,
      "duration_beat": 0.23541666666666572,
      "velocity": 43,
      "track": 0
    },
    {
      "pitch": 69,
      "start_beat": 98.75,
      "duration_beat": 0.23541666666666572,
      "velocity": 43,
      "track": 0
    },
    {
      "pitch": 62,
      "start_beat": 98.75,
      "duration_beat": 0.11770833333333286,
      "velocity": 33,
      "track": 0
    },
    {
      "pitch": 62,
      "start_beat": 98.75,
      "duration_beat": 0.125,
      "velocity": 13,
      "track": 0
    },
    {
      "pitch": 69,
      "start_beat": 98.875,
      "duration_beat": 0.11770833333333286,
      "velocity": 33,
      "track": 0
    },
    {
      "pitch": 74,
      "start_beat": 99.0,
      "duration_beat": 0.11770833333333286,
      "velocity": 33,
      "track": 0
    },
    {
      "pitch": 72,
      "start_beat": 99.0,
      "duration_beat": 0.23541666666666572,
      "velocity": 33,
      "track": 0
    },
    {
      "pitch": 72,
      "start_beat": 99.0,
      "duration_beat": 0.23541666666666572,
      "velocity": 43,
      "track": 0
    },
    {
      "pitch": 76,
      "start_beat": 99.0,
      "duration_beat": 0.23541666666666572,
      "velocity": 43,
      "track": 0
    },
    {
      "pitch": 79,
      "start_beat": 99.0,
      "duration_beat": 0.23541666666666572,
      "velocity": 43,
      "track": 0
    },
    {
      "pitch": 72,
      "start_beat": 99.0,
      "duration_beat": 0.11770833333333286,
      "velocity": 33,
      "track": 0
    },
    {
      "pitch": 72,
      "start_beat": 99.0,
      "duration_beat": 0.125,
      "velocity": 13,
      "track": 0
    },
    {
      "pitch": 79,
      "start_beat": 99.125,
      "duration_beat": 0.11770833333333286,
      "velocity": 33,
      "track": 0
    },
    {
      "pitch": 84,
      "start_beat": 99.25,
      "duration_beat": 0.11770833333333286,
      "velocity": 33,
      "track": 0
    },
    {
      "pitch": 71,
      "start_beat": 99.25,
      "duration_beat": 0.23541666666666572,
      "velocity": 33,
      "track": 0
    },
    {
      "pitch": 71,
      "start_beat": 99.25,
      "duration_beat": 0.23541666666666572,
      "velocity": 43,
      "track": 0
    },
    {
      "pitch": 75,
      "start_beat": 99.25,
      "duration_beat": 0.23541666666666572,
      "velocity": 43,
      "track": 0
    },
    {
      "pitch": 78,
      "start_beat": 99.25,
      "duration_beat": 0.23541666666666572,
      "velocity": 43,
      "track": 0
    },
    {
      "pitch": 71,
      "start_beat": 99.25,
      "duration_beat": 0.11770833333333286,
      "velocity": 33,
      "track": 0
    },
    {
      "pitch": 71,
      "start_beat": 99.25,
      "duration_beat": 0.125,
      "velocity": 13,
      "track": 0
    },
    {
      "pitch": 78,
      "start_beat": 99.375,
      "duration_beat": 0.11770833333333286,
      "velocity": 33,
      "track": 0
    },
    {
      "pitch": 83,
      "start_beat": 99.5,
      "duration_beat": 0.11770833333333286,
      "velocity": 33,
      "track": 0
    },
    {
      "pitch": 69,
      "start_beat": 99.5,
      "duration_beat": 0.4729166666666629,
      "velocity": 33,
      "track": 0
    },
    {
      "pitch": 69,
      "start_beat": 99.5,
      "duration_beat": 0.4729166666666629,
      "velocity": 43,
      "track": 0
    },
    {
      "pitch": 73,
      "start_beat": 99.5,
      "duration_beat": 0.4729166666666629,
      "velocity": 43,
      "track": 0
    },
    {
      "pitch": 76,
      "start_beat": 99.5,
      "duration_beat": 0.4729166666666629,
      "velocity": 43,
      "track": 0
    },
    {
      "pitch": 69,
      "start_beat": 99.5,
      "duration_beat": 0.23645833333333144,
      "velocity": 33,
      "track": 0
    },
    {
      "pitch": 69,
      "start_beat": 99.5,
      "duration_beat": 0.125,
      "velocity": 13,
      "track": 0
    },
    {
      "pitch": 45,
      "start_beat": 99.5,
      "duration_beat": 0.23541666666666572,
      "velocity": 33,
      "track": 1
    },
    {
      "pitch": 45,
      "start_beat": 99.5,
      "duration_beat": 0.23541666666666572,
      "velocity": 43,
      "track": 1
    },
    {
      "pitch": 49,
      "start_beat": 99.5,
      "duration_beat": 0.23541666666666572,
      "velocity": 43,
      "track": 1
    },
    {
      "pitch": 52,
      "start_beat": 99.5,
      "duration_beat": 0.23541666666666572,
      "velocity": 43,
      "track": 1
    },
    {
      "pitch": 45,
      "start_beat": 99.5,
      "duration_beat": 0.11770833333333286,
      "velocity": 33,
      "track": 1
    },
    {
      "pitch": 45,
      "start_beat": 99.5,
      "duration_beat": 0.125,
      "velocity": 13,
      "track": 1
    },
    {
      "pitch": 76,
      "start_beat": 99.625,
      "duration_beat": 0.23645833333333144,
      "velocity": 33,
      "track": 0
    },
    {
      "pitch": 52,
      "start_beat": 99.625,
      "duration_beat": 0.11770833333333286,
      "velocity": 33,
      "track": 1
    },
    {
      "pitch": 81,
      "start_beat": 99.75,
      "duration_beat": 0.23645833333333144,
      "velocity": 33,
      "track": 0
    },
    {
      "pitch": 69,
      "start_beat": 99.75,
      "duration_beat": 0.125,
      "velocity": 13,
      "track": 0
    },
    {
      "pitch": 57,
      "start_beat": 99.75,
      "duration_beat": 0.11770833333333286,
      "velocity": 33,
      "track": 1
    },
    {
      "pitch": 52,
      "start_beat": 99.75,
      "duration_beat": 0.23541666666666572,
      "velocity": 33,
      "track": 1
    },
    {
      "pitch": 52,
      "start_beat": 99.75,
      "duration_beat": 0.23541666666666572,
      "velocity": 43,
      "track": 1
    },
    {
      "pitch": 56,
      "start_beat": 99.75,
      "duration_beat": 0.23541666666666572,
      "velocity": 43,
      "track": 1
    },
    {
      "pitch": 59,
      "start_beat": 99.75,
      "duration_beat": 0.23541666666666572,
      "velocity": 43,
      "track": 1
    },
    {
      "pitch": 52,
      "start_beat": 99.75,
      "duration_beat": 0.11770833333333286,
      "velocity": 33,
      "track": 1
    },
    {
      "pitch": 52,
      "start_beat": 99.75,
      "duration_beat": 0.125,
      "velocity": 13,
      "track": 1
    },
    {
      "pitch": 59,
      "start_beat": 99.875,
      "duration_beat": 0.11770833333333286,
      "velocity": 33,
      "track": 1
    },
    {
      "pitch": 64,
      "start_beat": 100.0,
      "duration_beat": 0.11770833333333286,
      "velocity": 33,
      "track": 1
    },
    {
      "pitch": 57,
      "start_beat": 100.0,
      "duration_beat": 0.23541666666666572,
      "velocity": 33,
      "track": 1
    },
    {
      "pitch": 57,
      "start_beat": 100.0,
      "duration_beat": 0.23541666666666572,
      "velocity": 43,
      "track": 1
    },
    {
      "pitch": 61,
      "start_beat": 100.0,
      "duration_beat": 0.23541666666666572,
      "velocity": 43,
      "track": 1
    },
    {
      "pitch": 64,
      "start_beat": 100.0,
      "duration_beat": 0.23541666666666572,
      "velocity": 43,
      "track": 1
    },
    {
      "pitch": 57,
      "start_beat": 100.0,
      "duration_beat": 0.11770833333333286,
      "velocity": 33,
      "track": 1
    },
    {
      "pitch": 57,
      "start_beat": 100.0,
      "duration_beat": 0.125,
      "velocity": 13,
      "track": 1
    },
    {
      "pitch": 64,
      "start_beat": 100.125,
      "duration_beat": 0.11770833333333286,
      "velocity": 33,
      "track": 1
    },
    {
      "pitch": 69,
      "start_beat": 100.25,
      "duration_beat": 0.11770833333333286,
      "velocity": 33,
      "track": 1
    },
    {
      "pitch": 71,
      "start_beat": 100.25,
      "duration_beat": 0.23541666666666572,
      "velocity": 33,
      "track": 0
    },
    {
      "pitch": 71,
      "start_beat": 100.25,
      "duration_beat": 0.23541666666666572,
      "velocity": 43,
      "track": 0
    },
    {
      "pitch": 75,
      "start_beat": 100.25,
      "duration_beat": 0.23541666666666572,
      "velocity": 43,
      "track": 0
    },
    {
      "pitch": 78,
      "start_beat": 100.25,
      "duration_beat": 0.23541666666666572,
      "velocity": 43,
      "track": 0
    },
    {
      "pitch": 71,
      "start_beat": 100.25,
      "duration_beat": 0.11770833333333286,
      "velocity": 33,
      "track": 0
    },
    {
      "pitch": 71,
      "start_beat": 100.25,
      "duration_beat": 0.125,
      "velocity": 13,
      "track": 0
    },
    {
      "pitch": 78,
      "start_beat": 100.375,
      "duration_beat": 0.11770833333333286,
      "velocity": 33,
      "track": 0
    },
    {
      "pitch": 83,
      "start_beat": 100.5,
      "duration_beat": 0.11770833333333286,
      "velocity": 33,
      "track": 0
    },
    {
      "pitch": 72,
      "start_beat": 100.5,
      "duration_beat": 0.23541666666666572,
      "velocity": 33,
      "track": 0
    },
    {
      "pitch": 72,
      "start_beat": 100.5,
      "duration_beat": 0.23541666666666572,
      "velocity": 43,
      "track": 0
    },
    {
      "pitch": 76,
      "start_beat": 100.5,
      "duration_beat": 0.23541666666666572,
      "velocity": 43,
      "track": 0
    },
    {
      "pitch": 79,
      "start_beat": 100.5,
      "duration_beat": 0.23541666666666572,
      "velocity": 43,
      "track": 0
    },
    {
      "pitch": 72,
      "start_beat": 100.5,
      "duration_beat": 0.11770833333333286,
      "velocity": 33,
      "track": 0
    },
    {
      "pitch": 72,
      "start_beat": 100.5,
      "duration_beat": 0.125,
      "velocity": 13,
      "track": 0
    },
    {
      "pitch": 79,
      "start_beat": 100.625,
      "duration_beat": 0.11770833333333286,
      "velocity": 33,
      "track": 0
    },
    {
      "pitch": 84,
      "start_beat": 100.75,
      "duration_beat": 0.11770833333333286,
      "velocity": 33,
      "track": 0
    },
    {
      "pitch": 74,
      "start_beat": 100.75,
      "duration_beat": 0.23541666666666572,
      "velocity": 33,
      "track": 0
    },
    {
      "pitch": 74,
      "start_beat": 100.75,
      "duration_beat": 0.23541666666666572,
      "velocity": 43,
      "track": 0
    },
    {
      "pitch": 78,
      "start_beat": 100.75,
      "duration_beat": 0.23541666666666572,
      "velocity": 43,
      "track": 0
    },
    {
      "pitch": 81,
      "start_beat": 100.75,
      "duration_beat": 0.23541666666666572,
      "velocity": 43,
      "track": 0
    },
    {
      "pitch": 74,
      "start_beat": 100.75,
      "duration_beat": 0.11770833333333286,
      "velocity": 33,
      "track": 0
    },
    {
      "pitch": 74,
      "start_beat": 100.75,
      "duration_beat": 0.125,
      "velocity": 13,
      "track": 0
    },
    {
      "pitch": 81,
      "start_beat": 100.875,
      "duration_beat": 0.11770833333333286,
      "velocity": 33,
      "track": 0
    },
    {
      "pitch": 86,
      "start_beat": 101.0,
      "duration_beat": 0.11770833333333286,
      "velocity": 33,
      "track": 0
    },
    {
      "pitch": 76,
      "start_beat": 101.0,
      "duration_beat": 0.71041666666666,
      "velocity": 33,
      "track": 0
    },
    {
      "pitch": 76,
      "start_beat": 101.0,
      "duration_beat": 0.71041666666666,
      "velocity": 43,
      "track": 0
    },
    {
      "pitch": 80,
      "start_beat": 101.0,
      "duration_beat": 0.71041666666666,
      "velocity": 43,
      "track": 0
    },
    {
      "pitch": 83,
      "start_beat": 101.0,
      "duration_beat": 0.71041666666666,
      "velocity": 43,
      "track": 0
    },
    {
      "pitch": 76,
      "start_beat": 101.0,
      "duration_beat": 0.35520833333333,
      "velocity": 33,
      "track": 0
    },
    {
      "pitch": 76,
      "start_beat": 101.0,
      "duration_beat": 0.125,
      "velocity": 13,
      "track": 0
    },
    {
      "pitch": 48,
      "start_beat": 101.0,
      "duration_beat": 0.23541666666666572,
      "velocity": 33,
      "track": 1
    },
    {
      "pitch": 48,
      "start_beat": 101.0,
      "duration_beat": 0.23541666666666572,
      "velocity": 43,
      "track": 1
    },
    {
      "pitch": 52,
      "start_beat": 101.0,
      "duration_beat": 0.23541666666666572,
      "velocity": 43,
      "track": 1
    },
    {
      "pitch": 55,
      "start_beat": 101.0,
      "duration_beat": 0.23541666666666572,
      "velocity": 43,
      "track": 1
    },
    {
      "pitch": 48,
      "start_beat": 101.0,
      "duration_beat": 0.11770833333333286,
      "velocity": 33,
      "track": 1
    },
    {
      "pitch": 48,
      "start_beat": 101.0,
      "duration_beat": 0.125,
      "velocity": 13,
      "track": 1
    },
    {
      "pitch": 83,
      "start_beat": 101.125,
      "duration_beat": 0.35520833333333,
      "velocity": 33,
      "track": 0
    },
    {
      "pitch": 55,
      "start_beat": 101.125,
      "duration_beat": 0.11770833333333286,
      "velocity": 33,
      "track": 1
    },
    {
      "pitch": 88,
      "start_beat": 101.25,
      "duration_beat": 0.35520833333333,
      "velocity": 33,
      "track": 0
    },
    {
      "pitch": 76,
      "start_beat": 101.25,
      "duration_beat": 0.125,
      "velocity": 13,
      "track": 0
    },
    {
      "pitch": 60,
      "start_beat": 101.25,
      "duration_beat": 0.11770833333333286,
      "velocity": 33,
      "track": 1
    },
    {
      "pitch": 55,
      "start_beat": 101.25,
      "duration_beat": 0.23541666666666572,
      "velocity": 33,
      "track": 1
    },
    {
      "pitch": 55,
      "start_beat": 101.25,
      "duration_beat": 0.23541666666666572,
      "velocity": 43,
      "track": 1
    },
    {
      "pitch": 59,
      "start_beat": 101.25,
      "duration_beat": 0.23541666666666572,
      "velocity": 43,
      "track": 1
    },
    {
      "pitch": 62,
      "start_beat": 101.25,
      "duration_beat": 0.23541666666666572,
      "velocity": 43,
      "track": 1
    },
    {
      "pitch": 55,
      "start_beat": 101.25,
      "duration_beat": 0.11770833333333286,
      "velocity": 33,
      "track": 1
    },
    {
      "pitch": 55,
      "start_beat": 101.25,
      "duration_beat": 0.125,
      "velocity": 13,
      "track": 1
    },
    {
      "pitch": 62,
      "start_beat": 101.375,
      "duration_beat": 0.11770833333333286,
      "velocity": 33,
      "track": 1
    },
    {
      "pitch": 76,
      "start_beat": 101.5,
      "duration_beat": 0.125,
      "velocity": 13,
      "track": 0
    },
    {
      "pitch": 67,
      "start_beat": 101.5,
      "duration_beat": 0.11770833333333286,
      "velocity": 33,
      "track": 1
    },
    {
      "pitch": 60,
      "start_beat": 101.5,
      "duration_beat": 0.23541666666666572,
      "velocity": 33,
      "track": 1
    },
    {
      "pitch": 60,
      "start_beat": 101.5,
      "duration_beat": 0.23541666666666572,
      "velocity": 43,
      "track": 1
    },
    {
      "pitch": 64,
      "start_beat": 101.5,
      "duration_beat": 0.23541666666666572,
      "velocity": 43,
      "track": 1
    },
    {
      "pitch": 67,
      "start_beat": 101.5,
      "duration_beat": 0.23541666666666572,
      "velocity": 43,
      "track": 1
    },
    {
      "pitch": 60,
      "start_beat": 101.5,
      "duration_beat": 0.11770833333333286,
      "velocity": 33,
      "track": 1
    },
    {
      "pitch": 60,
      "start_beat": 101.5,
      "duration_beat": 0.125,
      "velocity": 13,
      "track": 1
    },
    {
      "pitch": 67,
      "start_beat": 101.625,
      "duration_beat": 0.11770833333333286,
      "velocity": 33,
      "track": 1
    },
    {
      "pitch": 72,
      "start_beat": 101.75,
      "duration_beat": 0.11770833333333286,
      "velocity": 33,
      "track": 1
    },
    {
      "pitch": 67,
      "start_beat": 101.75,
      "duration_beat": 0.23541666666666572,
      "velocity": 33,
      "track": 0
    },
    {
      "pitch": 67,
      "start_beat": 101.75,
      "duration_beat": 0.23541666666666572,
      "velocity": 43,
      "track": 0
    },
    {
      "pitch": 71,
      "start_beat": 101.75,
      "duration_beat": 0.23541666666666572,
      "velocity": 43,
      "track": 0
    },
    {
      "pitch": 74,
      "start_beat": 101.75,
      "duration_beat": 0.23541666666666572,
      "velocity": 43,
      "track": 0
    },
    {
      "pitch": 67,
      "start_beat": 101.75,
      "duration_beat": 0.11770833333333286,
      "velocity": 33,
      "track": 0
    },
    {
      "pitch": 67,
      "start_beat": 101.75,
      "duration_beat": 0.125,
      "velocity": 13,
      "track": 0
    },
    {
      "pitch": 74,
      "start_beat": 101.875,
      "duration_beat": 0.11770833333333286,
      "velocity": 33,
      "track": 0
    },
    {
      "pitch": 79,
      "start_beat": 102.0,
      "duration_beat": 0.11770833333333286,
      "velocity": 33,
      "track": 0
    },
    {
      "pitch": 77,
      "start_beat": 102.0,
      "duration_beat": 0.23541666666666572,
      "velocity": 33,
      "track": 0
    },
    {
      "pitch": 77,
      "start_beat": 102.0,
      "duration_beat": 0.23541666666666572,
      "velocity": 43,
      "track": 0
    },
    {
      "pitch": 81,
      "start_beat": 102.0,
      "duration_beat": 0.23541666666666572,
      "velocity": 43,
      "track": 0
    },
    {
      "pitch": 84,
      "start_beat": 102.0,
      "duration_beat": 0.23541666666666572,
      "velocity": 43,
      "track": 0
    },
    {
      "pitch": 77,
      "start_beat": 102.0,
      "duration_beat": 0.11770833333333286,
      "velocity": 33,
      "track": 0
    },
    {
      "pitch": 77,
      "start_beat": 102.0,
      "duration_beat": 0.125,
      "velocity": 13,
      "track": 0
    },
    {
      "pitch": 84,
      "start_beat": 102.125,
      "duration_beat": 0.11770833333333286,
      "velocity": 33,
      "track": 0
    },
    {
      "pitch": 89,
      "start_beat": 102.25,
      "duration_beat": 0.11770833333333286,
      "velocity": 33,
      "track": 0
    },
    {
      "pitch": 76,
      "start_beat": 102.25,
      "duration_beat": 0.23541666666666572,
      "velocity": 33,
      "track": 0
    },
    {
      "pitch": 76,
      "start_beat": 102.25,
      "duration_beat": 0.23541666666666572,
      "velocity": 43,
      "track": 0
    },
    {
      "pitch": 80,
      "start_beat": 102.25,
      "duration_beat": 0.23541666666666572,
      "velocity": 43,
      "track": 0
    },
    {
      "pitch": 83,
      "start_beat": 102.25,
      "duration_beat": 0.23541666666666572,
      "velocity": 43,
      "track": 0
    },
    {
      "pitch": 76,
      "start_beat": 102.25,
      "duration_beat": 0.11770833333333286,
      "velocity": 33,
      "track": 0
    },
    {
      "pitch": 76,
      "start_beat": 102.25,
      "duration_beat": 0.125,
      "velocity": 13,
      "track": 0
    },
    {
      "pitch": 83,
      "start_beat": 102.375,
      "duration_beat": 0.11770833333333286,
      "velocity": 33,
      "track": 0
    },
    {
      "pitch": 88,
      "start_beat": 102.5,
      "duration_beat": 0.11770833333333286,
      "velocity": 33,
      "track": 0
    },
    {
      "pitch": 74,
      "start_beat": 102.5,
      "duration_beat": 0.71041666666666,
      "velocity": 33,
      "track": 0
    },
    {
      "pitch": 74,
      "start_beat": 102.5,
      "duration_beat": 0.71041666666666,
      "velocity": 43,
      "track": 0
    },
    {
      "pitch": 78,
      "start_beat": 102.5,
      "duration_beat": 0.71041666666666,
      "velocity": 43,
      "track": 0
    },
    {
      "pitch": 81,
      "start_beat": 102.5,
      "duration_beat": 0.71041666666666,
      "velocity": 43,
      "track": 0
    },
    {
      "pitch": 74,
      "start_beat": 102.5,
      "duration_beat": 0.35520833333333,
      "velocity": 33,
      "track": 0
    },
    {
      "pitch": 74,
      "start_beat": 102.5,
      "duration_beat": 0.125,
      "velocity": 13,
      "track": 0
    },
    {
      "pitch": 43,
      "start_beat": 102.5,
      "duration_beat": 0.23541666666666572,
      "velocity": 33,
      "track": 1
    },
    {
      "pitch": 43,
      "start_beat": 102.5,
      "duration_beat": 0.23541666666666572,
      "velocity": 43,
      "track": 1
    },
    {
      "pitch": 47,
      "start_beat": 102.5,
      "duration_beat": 0.23541666666666572,
      "velocity": 43,
      "track": 1
    },
    {
      "pitch": 50,
      "start_beat": 102.5,
      "duration_beat": 0.23541666666666572,
      "velocity": 43,
      "track": 1
    },
    {
      "pitch": 43,
      "start_beat": 102.5,
      "duration_beat": 0.11770833333333286,
      "velocity": 33,
      "track": 1
    },
    {
      "pitch": 43,
      "start_beat": 102.5,
      "duration_beat": 0.125,
      "velocity": 13,
      "track": 1
    },
    {
      "pitch": 81,
      "start_beat": 102.625,
      "duration_beat": 0.35520833333333,
      "velocity": 33,
      "track": 0
    },
    {
      "pitch": 50,
      "start_beat": 102.625,
      "duration_beat": 0.11770833333333286,
      "velocity": 33,
      "track": 1
    },
    {
      "pitch": 86,
      "start_beat": 102.75,
      "duration_beat": 0.35520833333333,
      "velocity": 33,
      "track": 0
    },
    {
      "pitch": 74,
      "start_beat": 102.75,
      "duration_beat": 0.125,
      "velocity": 13,
      "track": 0
    },
    {
      "pitch": 55,
      "start_beat": 102.75,
      "duration_beat": 0.11770833333333286,
      "velocity": 33,
      "track": 1
    },
    {
      "pitch": 55,
      "start_beat": 102.75,
      "duration_beat": 0.23541666666666572,
      "velocity": 33,
      "track": 1
    },
    {
      "pitch": 55,
      "start_beat": 102.75,
      "duration_beat": 0.23541666666666572,
      "velocity": 43,
      "track": 1
    },
    {
      "pitch": 59,
      "start_beat": 102.75,
      "duration_beat": 0.23541666666666572,
      "velocity": 43,
      "track": 1
    },
    {
      "pitch": 62,
      "start_beat": 102.75,
      "duration_beat": 0.23541666666666572,
      "velocity": 43,
      "track": 1
    },
    {
      "pitch": 55,
      "start_beat": 102.75,
      "duration_beat": 0.11770833333333286,
      "velocity": 33,
      "track": 1
    },
    {
      "pitch": 55,
      "start_beat": 102.75,
      "duration_beat": 0.125,
      "velocity": 13,
      "track": 1
    },
    {
      "pitch": 62,
      "start_beat": 102.875,
      "duration_beat": 0.11770833333333286,
      "velocity": 33,
      "track": 1
    },
    {
      "pitch": 74,
      "start_beat": 103.0,
      "duration_beat": 0.125,
      "velocity": 13,
      "track": 0
    },
    {
      "pitch": 67,
      "start_beat": 103.0,
      "duration_beat": 0.11770833333333286,
      "velocity": 33,
      "track": 1
    },
    {
      "pitch": 59,
      "start_beat": 103.0,
      "duration_beat": 0.23541666666666572,
      "velocity": 33,
      "track": 1
    },
    {
      "pitch": 59,
      "start_beat": 103.0,
      "duration_beat": 0.23541666666666572,
      "velocity": 43,
      "track": 1
    },
    {
      "pitch": 63,
      "start_beat": 103.0,
      "duration_beat": 0.23541666666666572,
      "velocity": 43,
      "track": 1
    },
    {
      "pitch": 66,
      "start_beat": 103.0,
      "duration_beat": 0.23541666666666572,
      "velocity": 43,
      "track": 1
    },
    {
      "pitch": 59,
      "start_beat": 103.0,
      "duration_beat": 0.11770833333333286,
      "velocity": 33,
      "track": 1
    },
    {
      "pitch": 59,
      "start_beat": 103.0,
      "duration_beat": 0.125,
      "velocity": 13,
      "track": 1
    },
    {
      "pitch": 66,
      "start_beat": 103.125,
      "duration_beat": 0.11770833333333286,
      "velocity": 33,
      "track": 1
    },
    {
      "pitch": 71,
      "start_beat": 103.25,
      "duration_beat": 0.11770833333333286,
      "velocity": 33,
      "track": 1
    },
    {
      "pitch": 65,
      "start_beat": 103.25,
      "duration_beat": 0.23541666666666572,
      "velocity": 33,
      "track": 0
    },
    {
      "pitch": 65,
      "start_beat": 103.25,
      "duration_beat": 0.23541666666666572,
      "velocity": 43,
      "track": 0
    },
    {
      "pitch": 69,
      "start_beat": 103.25,
      "duration_beat": 0.23541666666666572,
      "velocity": 43,
      "track": 0
    },
    {
      "pitch": 72,
      "start_beat": 103.25,
      "duration_beat": 0.23541666666666572,
      "velocity": 43,
      "track": 0
    },
    {
      "pitch": 65,
      "start_beat": 103.25,
      "duration_beat": 0.11770833333333286,
      "velocity": 33,
      "track": 0
    },
    {
      "pitch": 65,
      "start_beat": 103.25,
      "duration_beat": 0.125,
      "velocity": 13,
      "track": 0
    },
    {
      "pitch": 72,
      "start_beat": 103.375,
      "duration_beat": 0.11770833333333286,
      "velocity": 33,
      "track": 0
    },
    {
      "pitch": 77,
      "start_beat": 103.5,
      "duration_beat": 0.11770833333333286,
      "velocity": 33,
      "track": 0
    },
    {
      "pitch": 76,
      "start_beat": 103.5,
      "duration_beat": 0.23541666666666572,
      "velocity": 33,
      "track": 0
    },
    {
      "pitch": 76,
      "start_beat": 103.5,
      "duration_beat": 0.23541666666666572,
      "velocity": 43,
      "track": 0
    },
    {
      "pitch": 80,
      "start_beat": 103.5,
      "duration_beat": 0.23541666666666572,
      "velocity": 43,
      "track": 0
    },
    {
      "pitch": 83,
      "start_beat": 103.5,
      "duration_beat": 0.23541666666666572,
      "velocity": 43,
      "track": 0
    },
    {
      "pitch": 76,
      "start_beat": 103.5,
      "duration_beat": 0.11770833333333286,
      "velocity": 33,
      "track": 0
    },
    {
      "pitch": 76,
      "start_beat": 103.5,
      "duration_beat": 0.125,
      "velocity": 13,
      "track": 0
    },
    {
      "pitch": 83,
      "start_beat": 103.625,
      "duration_beat": 0.11770833333333286,
      "velocity": 33,
      "track": 0
    },
    {
      "pitch": 88,
      "start_beat": 103.75,
      "duration_beat": 0.11770833333333286,
      "velocity": 33,
      "track": 0
    },
    {
      "pitch": 74,
      "start_beat": 103.75,
      "duration_beat": 0.23541666666666572,
      "velocity": 33,
      "track": 0
    },
    {
      "pitch": 74,
      "start_beat": 103.75,
      "duration_beat": 0.23541666666666572,
      "velocity": 43,
      "track": 0
    },
    {
      "pitch": 78,
      "start_beat": 103.75,
      "duration_beat": 0.23541666666666572,
      "velocity": 43,
      "track": 0
    },
    {
      "pitch": 81,
      "start_beat": 103.75,
      "duration_beat": 0.23541666666666572,
      "velocity": 43,
      "track": 0
    },
    {
      "pitch": 74,
      "start_beat": 103.75,
      "duration_beat": 0.11770833333333286,
      "velocity": 33,
      "track": 0
    },
    {
      "pitch": 74,
      "start_beat": 103.75,
      "duration_beat": 0.125,
      "velocity": 13,
      "track": 0
    },
    {
      "pitch": 81,
      "start_beat": 103.875,
      "duration_beat": 0.11770833333333286,
      "velocity": 33,
      "track": 0
    },
    {
      "pitch": 86,
      "start_beat": 104.0,
      "duration_beat": 0.11770833333333286,
      "velocity": 33,
      "track": 0
    },
    {
      "pitch": 72,
      "start_beat": 104.0,
      "duration_beat": 0.71041666666666,
      "velocity": 33,
      "track": 0
    },
    {
      "pitch": 72,
      "start_beat": 104.0,
      "duration_beat": 0.71041666666666,
      "velocity": 43,
      "track": 0
    },
    {
      "pitch": 76,
      "start_beat": 104.0,
      "duration_beat": 0.71041666666666,
      "velocity": 43,
      "track": 0
    },
    {
      "pitch": 79,
      "start_beat": 104.0,
      "duration_beat": 0.71041666666666,
      "velocity": 43,
      "track": 0
    },
    {
      "pitch": 72,
      "start_beat": 104.0,
      "duration_beat": 0.35520833333333,
      "velocity": 33,
      "track": 0
    },
    {
      "pitch": 72,
      "start_beat": 104.0,
      "duration_beat": 0.125,
      "velocity": 13,
      "track": 0
    },
    {
      "pitch": 45,
      "start_beat": 104.0,
      "duration_beat": 0.23541666666666572,
      "velocity": 33,
      "track": 1
    },
    {
      "pitch": 45,
      "start_beat": 104.0,
      "duration_beat": 0.23541666666666572,
      "velocity": 43,
      "track": 1
    },
    {
      "pitch": 49,
      "start_beat": 104.0,
      "duration_beat": 0.23541666666666572,
      "velocity": 43,
      "track": 1
    },
    {
      "pitch": 52,
      "start_beat": 104.0,
      "duration_beat": 0.23541666666666572,
      "velocity": 43,
      "track": 1
    },
    {
      "pitch": 45,
      "start_beat": 104.0,
      "duration_beat": 0.11770833333333286,
      "velocity": 33,
      "track": 1
    },
    {
      "pitch": 45,
      "start_beat": 104.0,
      "duration_beat": 0.125,
      "velocity": 13,
      "track": 1
    },
    {
      "pitch": 79,
      "start_beat": 104.125,
      "duration_beat": 0.35520833333333,
      "velocity": 33,
      "track": 0
    },
    {
      "pitch": 52,
      "start_beat": 104.125,
      "duration_beat": 0.11770833333333286,
      "velocity": 33,
      "track": 1
    },
    {
      "pitch": 84,
      "start_beat": 104.25,
      "duration_beat": 0.35520833333333,
      "velocity": 33,
      "track": 0
    },
    {
      "pitch": 72,
      "start_beat": 104.25,
      "duration_beat": 0.125,
      "velocity": 13,
      "track": 0
    },
    {
      "pitch": 57,
      "start_beat": 104.25,
      "duration_beat": 0.11770833333333286,
      "velocity": 33,
      "track": 1
    },
    {
      "pitch": 52,
      "start_beat": 104.25,
      "duration_beat": 0.23541666666666572,
      "velocity": 33,
      "track": 1
    },
    {
      "pitch": 52,
      "start_beat": 104.25,
      "duration_beat": 0.23541666666666572,
      "velocity": 43,
      "track": 1
    },
    {
      "pitch": 56,
      "start_beat": 104.25,
      "duration_beat": 0.23541666666666572,
      "velocity": 43,
      "track": 1
    },
    {
      "pitch": 59,
      "start_beat": 104.25,
      "duration_beat": 0.23541666666666572,
      "velocity": 43,
      "track": 1
    },
    {
      "pitch": 52,
      "start_beat": 104.25,
      "duration_beat": 0.11770833333333286,
      "velocity": 33,
      "track": 1
    },
    {
      "pitch": 52,
      "start_beat": 104.25,
      "duration_beat": 0.125,
      "velocity": 13,
      "track": 1
    },
    {
      "pitch": 59,
      "start_beat": 104.375,
      "duration_beat": 0.11770833333333286,
      "velocity": 33,
      "track": 1
    },
    {
      "pitch": 72,
      "start_beat": 104.5,
      "duration_beat": 0.125,
      "velocity": 13,
      "track": 0
    },
    {
      "pitch": 64,
      "start_beat": 104.5,
      "duration_beat": 0.11770833333333286,
      "velocity": 33,
      "track": 1
    },
    {
      "pitch": 57,
      "start_beat": 104.5,
      "duration_beat": 0.23541666666666572,
      "velocity": 33,
      "track": 1
    },
    {
      "pitch": 57,
      "start_beat": 104.5,
      "duration_beat": 0.23541666666666572,
      "velocity": 43,
      "track": 1
    },
    {
      "pitch": 61,
      "start_beat": 104.5,
      "duration_beat": 0.23541666666666572,
      "velocity": 43,
      "track": 1
    },
    {
      "pitch": 64,
      "start_beat": 104.5,
      "duration_beat": 0.23541666666666572,
      "velocity": 43,
      "track": 1
    },
    {
      "pitch": 57,
      "start_beat": 104.5,
      "duration_beat": 0.11770833333333286,
      "velocity": 33,
      "track": 1
    },
    {
      "pitch": 57,
      "start_beat": 104.5,
      "duration_beat": 0.125,
      "velocity": 13,
      "track": 1
    },
    {
      "pitch": 64,
      "start_beat": 104.625,
      "duration_beat": 0.11770833333333286,
      "velocity": 33,
      "track": 1
    },
    {
      "pitch": 69,
      "start_beat": 104.75,
      "duration_beat": 0.11770833333333286,
      "velocity": 33,
      "track": 1
    },
    {
      "pitch": 64,
      "start_beat": 104.75,
      "duration_beat": 0.23541666666666572,
      "velocity": 33,
      "track": 0
    },
    {
      "pitch": 64,
      "start_beat": 104.75,
      "duration_beat": 0.23541666666666572,
      "velocity": 43,
      "track": 0
    },
    {
      "pitch": 68,
      "start_beat": 104.75,
      "duration_beat": 0.23541666666666572,
      "velocity": 43,
      "track": 0
    },
    {
      "pitch": 71,
      "start_beat": 104.75,
      "duration_beat": 0.23541666666666572,
      "velocity": 43,
      "track": 0
    },
    {
      "pitch": 64,
      "start_beat": 104.75,
      "duration_beat": 0.11770833333333286,
      "velocity": 33,
      "track": 0
    },
    {
      "pitch": 64,
      "start_beat": 104.75,
      "duration_beat": 0.125,
      "velocity": 13,
      "track": 0
    },
    {
      "pitch": 71,
      "start_beat": 104.875,
      "duration_beat": 0.11770833333333286,
      "velocity": 33,
      "track": 0
    },
    {
      "pitch": 76,
      "start_beat": 105.0,
      "duration_beat": 0.11770833333333286,
      "velocity": 33,
      "track": 0
    },
    {
      "pitch": 74,
      "start_beat": 105.0,
      "duration_beat": 0.23541666666666572,
      "velocity": 33,
      "track": 0
    },
    {
      "pitch": 74,
      "start_beat": 105.0,
      "duration_beat": 0.23541666666666572,
      "velocity": 43,
      "track": 0
    },
    {
      "pitch": 78,
      "start_beat": 105.0,
      "duration_beat": 0.23541666666666572,
      "velocity": 43,
      "track": 0
    },
    {
      "pitch": 81,
      "start_beat": 105.0,
      "duration_beat": 0.23541666666666572,
      "velocity": 43,
      "track": 0
    },
    {
      "pitch": 74,
      "start_beat": 105.0,
      "duration_beat": 0.11770833333333286,
      "velocity": 33,
      "track": 0
    },
    {
      "pitch": 74,
      "start_beat": 105.0,
      "duration_beat": 0.125,
      "velocity": 13,
      "track": 0
    },
    {
      "pitch": 81,
      "start_beat": 105.125,
      "duration_beat": 0.11770833333333286,
      "velocity": 33,
      "track": 0
    },
    {
      "pitch": 86,
      "start_beat": 105.25,
      "duration_beat": 0.11770833333333286,
      "velocity": 33,
      "track": 0
    },
    {
      "pitch": 72,
      "start_beat": 105.25,
      "duration_beat": 0.23541666666666572,
      "velocity": 33,
      "track": 0
    },
    {
      "pitch": 72,
      "start_beat": 105.25,
      "duration_beat": 0.23541666666666572,
      "velocity": 43,
      "track": 0
    },
    {
      "pitch": 76,
      "start_beat": 105.25,
      "duration_beat": 0.23541666666666572,
      "velocity": 43,
      "track": 0
    },
    {
      "pitch": 79,
      "start_beat": 105.25,
      "duration_beat": 0.23541666666666572,
      "velocity": 43,
      "track": 0
    },
    {
      "pitch": 72,
      "start_beat": 105.25,
      "duration_beat": 0.11770833333333286,
      "velocity": 33,
      "track": 0
    },
    {
      "pitch": 72,
      "start_beat": 105.25,
      "duration_beat": 0.125,
      "velocity": 13,
      "track": 0
    },
    {
      "pitch": 79,
      "start_beat": 105.375,
      "duration_beat": 0.11770833333333286,
      "velocity": 33,
      "track": 0
    },
    {
      "pitch": 84,
      "start_beat": 105.5,
      "duration_beat": 0.11770833333333286,
      "velocity": 33,
      "track": 0
    },
    {
      "pitch": 71,
      "start_beat": 105.5,
      "duration_beat": 0.4729166666666629,
      "velocity": 33,
      "track": 0
    },
    {
      "pitch": 71,
      "start_beat": 105.5,
      "duration_beat": 0.4729166666666629,
      "velocity": 43,
      "track": 0
    },
    {
      "pitch": 75,
      "start_beat": 105.5,
      "duration_beat": 0.4729166666666629,
      "velocity": 43,
      "track": 0
    },
    {
      "pitch": 78,
      "start_beat": 105.5,
      "duration_beat": 0.4729166666666629,
      "velocity": 43,
      "track": 0
    },
    {
      "pitch": 71,
      "start_beat": 105.5,
      "duration_beat": 0.23645833333333144,
      "velocity": 33,
      "track": 0
    },
    {
      "pitch": 71,
      "start_beat": 105.5,
      "duration_beat": 0.125,
      "velocity": 13,
      "track": 0
    },
    {
      "pitch": 40,
      "start_beat": 105.5,
      "duration_beat": 0.23541666666666572,
      "velocity": 33,
      "track": 1
    },
    {
      "pitch": 40,
      "start_beat": 105.5,
      "duration_beat": 0.23541666666666572,
      "velocity": 43,
      "track": 1
    },
    {
      "pitch": 44,
      "start_beat": 105.5,
      "duration_beat": 0.23541666666666572,
      "velocity": 43,
      "track": 1
    },
    {
      "pitch": 47,
      "start_beat": 105.5,
      "duration_beat": 0.23541666666666572,
      "velocity": 43,
      "track": 1
    },
    {
      "pitch": 40,
      "start_beat": 105.5,
      "duration_beat": 0.11770833333333286,
      "velocity": 33,
      "track": 1
    },
    {
      "pitch": 40,
      "start_beat": 105.5,
      "duration_beat": 0.125,
      "velocity": 13,
      "track": 1
    },
    {
      "pitch": 78,
      "start_beat": 105.625,
      "duration_beat": 0.23645833333333144,
      "velocity": 33,
      "track": 0
    },
    {
      "pitch": 47,
      "start_beat": 105.625,
      "duration_beat": 0.11770833333333286,
      "velocity": 33,
      "track": 1
    },
    {
      "pitch": 83,
      "start_beat": 105.75,
      "duration_beat": 0.23645833333333144,
      "velocity": 33,
      "track": 0
    },
    {
      "pitch": 71,
      "start_beat": 105.75,
      "duration_beat": 0.125,
      "velocity": 13,
      "track": 0
    },
    {
      "pitch": 52,
      "start_beat": 105.75,
      "duration_beat": 0.11770833333333286,
      "velocity": 33,
      "track": 1
    },
    {
      "pitch": 52,
      "start_beat": 105.75,
      "duration_beat": 0.23541666666666572,
      "velocity": 33,
      "track": 1
    },
    {
      "pitch": 52,
      "start_beat": 105.75,
      "duration_beat": 0.23541666666666572,
      "velocity": 43,
      "track": 1
    },
    {
      "pitch": 56,
      "start_beat": 105.75,
      "duration_beat": 0.23541666666666572,
      "velocity": 43,
      "track": 1
    },
    {
      "pitch": 59,
      "start_beat": 105.75,
      "duration_beat": 0.23541666666666572,
      "velocity": 43,
      "track": 1
    },
    {
      "pitch": 52,
      "start_beat": 105.75,
      "duration_beat": 0.11770833333333286,
      "velocity": 33,
      "track": 1
    },
    {
      "pitch": 52,
      "start_beat": 105.75,
      "duration_beat": 0.125,
      "velocity": 13,
      "track": 1
    },
    {
      "pitch": 59,
      "start_beat": 105.875,
      "duration_beat": 0.11770833333333286,
      "velocity": 33,
      "track": 1
    },
    {
      "pitch": 64,
      "start_beat": 106.0,
      "duration_beat": 0.11770833333333286,
      "velocity": 33,
      "track": 1
    },
    {
      "pitch": 64,
      "start_beat": 106.0,
      "duration_beat": 0.23541666666666572,
      "velocity": 33,
      "track": 1
    },
    {
      "pitch": 64,
      "start_beat": 106.0,
      "duration_beat": 0.23541666666666572,
      "velocity": 43,
      "track": 1
    },
    {
      "pitch": 68,
      "start_beat": 106.0,
      "duration_beat": 0.23541666666666572,
      "velocity": 43,
      "track": 1
    },
    {
      "pitch": 71,
      "start_beat": 106.0,
      "duration_beat": 0.23541666666666572,
      "velocity": 43,
      "track": 1
    },
    {
      "pitch": 64,
      "start_beat": 106.0,
      "duration_beat": 0.11770833333333286,
      "velocity": 33,
      "track": 1
    },
    {
      "pitch": 64,
      "start_beat": 106.0,
      "duration_beat": 0.125,
      "velocity": 13,
      "track": 1
    },
    {
      "pitch": 71,
      "start_beat": 106.125,
      "duration_beat": 0.11770833333333286,
      "velocity": 33,
      "track": 1
    },
    {
      "pitch": 76,
      "start_beat": 106.25,
      "duration_beat": 0.11770833333333286,
      "velocity": 33,
      "track": 1
    },
    {
      "pitch": 64,
      "start_beat": 106.25,
      "duration_beat": 0.24791666666666856,
      "velocity": 33,
      "track": 0
    },
    {
      "pitch": 64,
      "start_beat": 106.25,
      "duration_beat": 0.24791666666666856,
      "velocity": 43,
      "track": 0
    },
    {
      "pitch": 68,
      "start_beat": 106.25,
      "duration_beat": 0.24791666666666856,
      "velocity": 43,
      "track": 0
    },
    {
      "pitch": 71,
      "start_beat": 106.25,
      "duration_beat": 0.24791666666666856,
      "velocity": 43,
      "track": 0
    },
    {
      "pitch": 64,
      "start_beat": 106.25,
      "duration_beat": 0.12395833333333428,
      "velocity": 33,
      "track": 0
    },
    {
      "pitch": 64,
      "start_beat": 106.25,
      "duration_beat": 0.125,
      "velocity": 13,
      "track": 0
    },
    {
      "pitch": 71,
      "start_beat": 106.375,
      "duration_beat": 0.12395833333333428,
      "velocity": 33,
      "track": 0
    },
    {
      "pitch": 76,
      "start_beat": 106.5,
      "duration_beat": 0.12395833333333428,
      "velocity": 33,
      "track": 0
    },
    {
      "pitch": 76,
      "start_beat": 106.5,
      "duration_beat": 0.23541666666666572,
      "velocity": 33,
      "track": 0
    },
    {
      "pitch": 76,
      "start_beat": 106.5,
      "duration_beat": 0.23541666666666572,
      "velocity": 43,
      "track": 0
    },
    {
      "pitch": 80,
      "start_beat": 106.5,
      "duration_beat": 0.23541666666666572,
      "velocity": 43,
      "track": 0
    },
    {
      "pitch": 83,
      "start_beat": 106.5,
      "duration_beat": 0.23541666666666572,
      "velocity": 43,
      "track": 0
    },
    {
      "pitch": 76,
      "start_beat": 106.5,
      "duration_beat": 0.11770833333333286,
      "velocity": 33,
      "track": 0
    },
    {
      "pitch": 76,
      "start_beat": 106.5,
      "duration_beat": 0.125,
      "velocity": 13,
      "track": 0
    },
    {
      "pitch": 83,
      "start_beat": 106.625,
      "duration_beat": 0.11770833333333286,
      "velocity": 33,
      "track": 0
    },
    {
      "pitch": 88,
      "start_beat": 106.75,
      "duration_beat": 0.11770833333333286,
      "velocity": 33,
      "track": 0
    },
    {
      "pitch": 64,
      "start_beat": 106.75,
      "duration_beat": 0.24791666666666856,
      "velocity": 33,
      "track": 1
    },
    {
      "pitch": 64,
      "start_beat": 106.75,
      "duration_beat": 0.24791666666666856,
      "velocity": 43,
      "track": 1
    },
    {
      "pitch": 68,
      "start_beat": 106.75,
      "duration_beat": 0.24791666666666856,
      "velocity": 43,
      "track": 1
    },
    {
      "pitch": 71,
      "start_beat": 106.75,
      "duration_beat": 0.24791666666666856,
      "velocity": 43,
      "track": 1
    },
    {
      "pitch": 64,
      "start_beat": 106.75,
      "duration_beat": 0.12395833333333428,
      "velocity": 33,
      "track": 1
    },
    {
      "pitch": 64,
      "start_beat": 106.75,
      "duration_beat": 0.125,
      "velocity": 13,
      "track": 1
    },
    {
      "pitch": 71,
      "start_beat": 106.875,
      "duration_beat": 0.12395833333333428,
      "velocity": 33,
      "track": 1
    },
    {
      "pitch": 76,
      "start_beat": 107.0,
      "duration_beat": 0.12395833333333428,
      "velocity": 33,
      "track": 1
    },
    {
      "pitch": 76,
      "start_beat": 107.0,
      "duration_beat": 0.23541666666666572,
      "velocity": 33,
      "track": 1
    },
    {
      "pitch": 76,
      "start_beat": 107.0,
      "duration_beat": 0.23541666666666572,
      "velocity": 43,
      "track": 1
    },
    {
      "pitch": 80,
      "start_beat": 107.0,
      "duration_beat": 0.23541666666666572,
      "velocity": 43,
      "track": 1
    },
    {
      "pitch": 83,
      "start_beat": 107.0,
      "duration_beat": 0.23541666666666572,
      "velocity": 43,
      "track": 1
    },
    {
      "pitch": 76,
      "start_beat": 107.0,
      "duration_beat": 0.11770833333333286,
      "velocity": 33,
      "track": 1
    },
    {
      "pitch": 76,
      "start_beat": 107.0,
      "duration_beat": 0.125,
      "velocity": 13,
      "track": 1
    },
    {
      "pitch": 83,
      "start_beat": 107.125,
      "duration_beat": 0.11770833333333286,
      "velocity": 33,
      "track": 1
    },
    {
      "pitch": 88,
      "start_beat": 107.25,
      "duration_beat": 0.11770833333333286,
      "velocity": 33,
      "track": 1
    },
    {
      "pitch": 76,
      "start_beat": 107.25,
      "duration_beat": 0.24791666666666856,
      "velocity": 33,
      "track": 0
    },
    {
      "pitch": 76,
      "start_beat": 107.25,
      "duration_beat": 0.24791666666666856,
      "velocity": 43,
      "track": 0
    },
    {
      "pitch": 80,
      "start_beat": 107.25,
      "duration_beat": 0.24791666666666856,
      "velocity": 43,
      "track": 0
    },
    {
      "pitch": 83,
      "start_beat": 107.25,
      "duration_beat": 0.24791666666666856,
      "velocity": 43,
      "track": 0
    },
    {
      "pitch": 76,
      "start_beat": 107.25,
      "duration_beat": 0.12395833333333428,
      "velocity": 33,
      "track": 0
    },
    {
      "pitch": 76,
      "start_beat": 107.25,
      "duration_beat": 0.125,
      "velocity": 13,
      "track": 0
    },
    {
      "pitch": 83,
      "start_beat": 107.375,
      "duration_beat": 0.12395833333333428,
      "velocity": 33,
      "track": 0
    },
    {
      "pitch": 88,
      "start_beat": 107.5,
      "duration_beat": 0.12395833333333428,
      "velocity": 33,
      "track": 0
    },
    {
      "pitch": 88,
      "start_beat": 107.5,
      "duration_beat": 0.23541666666666572,
      "velocity": 33,
      "track": 0
    },
    {
      "pitch": 88,
      "start_beat": 107.5,
      "duration_beat": 0.23541666666666572,
      "velocity": 43,
      "track": 0
    },
    {
      "pitch": 92,
      "start_beat": 107.5,
      "duration_beat": 0.23541666666666572,
      "velocity": 43,
      "track": 0
    },
    {
      "pitch": 95,
      "start_beat": 107.5,
      "duration_beat": 0.23541666666666572,
      "velocity": 43,
      "track": 0
    },
    {
      "pitch": 88,
      "start_beat": 107.5,
      "duration_beat": 0.11770833333333286,
      "velocity": 33,
      "track": 0
    },
    {
      "pitch": 88,
      "start_beat": 107.5,
      "duration_beat": 0.125,
      "velocity": 13,
      "track": 0
    },
    {
      "pitch": 95,
      "start_beat": 107.625,
      "duration_beat": 0.11770833333333286,
      "velocity": 33,
      "track": 0
    },
    {
      "pitch": 100,
      "start_beat": 107.75,
      "duration_beat": 0.11770833333333286,
      "velocity": 33,
      "track": 0
    },
    {
      "pitch": 75,
      "start_beat": 107.75,
      "duration_beat": 0.24791666666666856,
      "velocity": 33,
      "track": 1
    },
    {
      "pitch": 75,
      "start_beat": 107.75,
      "duration_beat": 0.24791666666666856,
      "velocity": 43,
      "track": 1
    },
    {
      "pitch": 79,
      "start_beat": 107.75,
      "duration_beat": 0.24791666666666856,
      "velocity": 43,
      "track": 1
    },
    {
      "pitch": 82,
      "start_beat": 107.75,
      "duration_beat": 0.24791666666666856,
      "velocity": 43,
      "track": 1
    },
    {
      "pitch": 75,
      "start_beat": 107.75,
      "duration_beat": 0.12395833333333428,
      "velocity": 33,
      "track": 1
    },
    {
      "pitch": 75,
      "start_beat": 107.75,
      "duration_beat": 0.125,
      "velocity": 13,
      "track": 1
    },
    {
      "pitch": 82,
      "start_beat": 107.875,
      "duration_beat": 0.12395833333333428,
      "velocity": 33,
      "track": 1
    },
    {
      "pitch": 87,
      "start_beat": 108.0,
      "duration_beat": 0.12395833333333428,
      "velocity": 33,
      "track": 1
    },
    {
      "pitch": 76,
      "start_beat": 108.0,
      "duration_beat": 0.23541666666666572,
      "velocity": 33,
      "track": 1
    },
    {
      "pitch": 76,
      "start_beat": 108.0,
      "duration_beat": 0.23541666666666572,
      "velocity": 43,
      "track": 1
    },
    {
      "pitch": 80,
      "start_beat": 108.0,
      "duration_beat": 0.23541666666666572,
      "velocity": 43,
      "track": 1
    },
    {
      "pitch": 83,
      "start_beat": 108.0,
      "duration_beat": 0.23541666666666572,
      "velocity": 43,
      "track": 1
    },
    {
      "pitch": 76,
      "start_beat": 108.0,
      "duration_beat": 0.11770833333333286,
      "velocity": 33,
      "track": 1
    },
    {
      "pitch": 76,
      "start_beat": 108.0,
      "duration_beat": 0.125,
      "velocity": 13,
      "track": 1
    },
    {
      "pitch": 83,
      "start_beat": 108.125,
      "duration_beat": 0.11770833333333286,
      "velocity": 33,
      "track": 1
    },
    {
      "pitch": 88,
      "start_beat": 108.25,
      "duration_beat": 0.11770833333333286,
      "velocity": 33,
      "track": 1
    },
    {
      "pitch": 75,
      "start_beat": 108.25,
      "duration_beat": 0.24791666666666856,
      "velocity": 33,
      "track": 0
    },
    {
      "pitch": 75,
      "start_beat": 108.25,
      "duration_beat": 0.24791666666666856,
      "velocity": 43,
      "track": 0
    },
    {
      "pitch": 79,
      "start_beat": 108.25,
      "duration_beat": 0.24791666666666856,
      "velocity": 43,
      "track": 0
    },
    {
      "pitch": 82,
      "start_beat": 108.25,
      "duration_beat": 0.24791666666666856,
      "velocity": 43,
      "track": 0
    },
    {
      "pitch": 75,
      "start_beat": 108.25,
      "duration_beat": 0.12395833333333428,
      "velocity": 33,
      "track": 0
    },
    {
      "pitch": 75,
      "start_beat": 108.25,
      "duration_beat": 0.125,
      "velocity": 13,
      "track": 0
    },
    {
      "pitch": 82,
      "start_beat": 108.375,
      "duration_beat": 0.12395833333333428,
      "velocity": 33,
      "track": 0
    },
    {
      "pitch": 87,
      "start_beat": 108.5,
      "duration_beat": 0.12395833333333428,
      "velocity": 33,
      "track": 0
    },
    {
      "pitch": 76,
      "start_beat": 108.5,
      "duration_beat": 0.4729166666666629,
      "velocity": 33,
      "track": 0
    },
    {
      "pitch": 76,
      "start_beat": 108.5,
      "duration_beat": 0.4729166666666629,
      "velocity": 43,
      "track": 0
    },
    {
      "pitch": 80,
      "start_beat": 108.5,
      "duration_beat": 0.4729166666666629,
      "velocity": 43,
      "track": 0
    },
    {
      "pitch": 83,
      "start_beat": 108.5,
      "duration_beat": 0.4729166666666629,
      "velocity": 43,
      "track": 0
    },
    {
      "pitch": 76,
      "start_beat": 108.5,
      "duration_beat": 0.23645833333333144,
      "velocity": 33,
      "track": 0
    },
    {
      "pitch": 76,
      "start_beat": 108.5,
      "duration_beat": 0.125,
      "velocity": 13,
      "track": 0
    },
    {
      "pitch": 83,
      "start_beat": 108.625,
      "duration_beat": 0.23645833333333144,
      "velocity": 33,
      "track": 0
    },
    {
      "pitch": 88,
      "start_beat": 108.75,
      "duration_beat": 0.23645833333333144,
      "velocity": 33,
      "track": 0
    },
    {
      "pitch": 76,
      "start_beat": 108.75,
      "duration_beat": 0.125,
      "velocity": 13,
      "track": 0
    },
    {
      "pitch": 75,
      "start_beat": 108.75,
      "duration_beat": 0.24791666666666856,
      "velocity": 33,
      "track": 1
    },
    {
      "pitch": 75,
      "start_beat": 108.75,
      "duration_beat": 0.24791666666666856,
      "velocity": 43,
      "track": 1
    },
    {
      "pitch": 79,
      "start_beat": 108.75,
      "duration_beat": 0.24791666666666856,
      "velocity": 43,
      "track": 1
    },
    {
      "pitch": 82,
      "start_beat": 108.75,
      "duration_beat": 0.24791666666666856,
      "velocity": 43,
      "track": 1
    },
    {
      "pitch": 75,
      "start_beat": 108.75,
      "duration_beat": 0.12395833333333428,
      "velocity": 33,
      "track": 1
    },
    {
      "pitch": 75,
      "start_beat": 108.75,
      "duration_beat": 0.125,
      "velocity": 13,
      "track": 1
    },
    {
      "pitch": 82,
      "start_beat": 108.875,
      "duration_beat": 0.12395833333333428,
      "velocity": 33,
      "track": 1
    },
    {
      "pitch": 87,
      "start_beat": 109.0,
      "duration_beat": 0.12395833333333428,
      "velocity": 33,
      "track": 1
    },
    {
      "pitch": 76,
      "start_beat": 109.0,
      "duration_beat": 0.23541666666666572,
      "velocity": 33,
      "track": 1
    },
    {
      "pitch": 76,
      "start_beat": 109.0,
      "duration_beat": 0.23541666666666572,
      "velocity": 43,
      "track": 1
    },
    {
      "pitch": 80,
      "start_beat": 109.0,
      "duration_beat": 0.23541666666666572,
      "velocity": 43,
      "track": 1
    },
    {
      "pitch": 83,
      "start_beat": 109.0,
      "duration_beat": 0.23541666666666572,
      "velocity": 43,
      "track": 1
    },
    {
      "pitch": 76,
      "start_beat": 109.0,
      "duration_beat": 0.11770833333333286,
      "velocity": 33,
      "track": 1
    },
    {
      "pitch": 76,
      "start_beat": 109.0,
      "duration_beat": 0.125,
      "velocity": 13,
      "track": 1
    },
    {
      "pitch": 83,
      "start_beat": 109.125,
      "duration_beat": 0.11770833333333286,
      "velocity": 33,
      "track": 1
    },
    {
      "pitch": 88,
      "start_beat": 109.25,
      "duration_beat": 0.11770833333333286,
      "velocity": 33,
      "track": 1
    },
    {
      "pitch": 75,
      "start_beat": 109.25,
      "duration_beat": 0.23541666666666572,
      "velocity": 33,
      "track": 0
    },
    {
      "pitch": 75,
      "start_beat": 109.25,
      "duration_beat": 0.23541666666666572,
      "velocity": 43,
      "track": 0
    },
    {
      "pitch": 79,
      "start_beat": 109.25,
      "duration_beat": 0.23541666666666572,
      "velocity": 43,
      "track": 0
    },
    {
      "pitch": 82,
      "start_beat": 109.25,
      "duration_beat": 0.23541666666666572,
      "velocity": 43,
      "track": 0
    },
    {
      "pitch": 75,
      "start_beat": 109.25,
      "duration_beat": 0.11770833333333286,
      "velocity": 33,
      "track": 0
    },
    {
      "pitch": 75,
      "start_beat": 109.25,
      "duration_beat": 0.125,
      "velocity": 13,
      "track": 0
    },
    {
      "pitch": 82,
      "start_beat": 109.375,
      "duration_beat": 0.11770833333333286,
      "velocity": 33,
      "track": 0
    },
    {
      "pitch": 87,
      "start_beat": 109.5,
      "duration_beat": 0.11770833333333286,
      "velocity": 33,
      "track": 0
    },
    {
      "pitch": 76,
      "start_beat": 109.5,
      "duration_beat": 0.23541666666666572,
      "velocity": 33,
      "track": 0
    },
    {
      "pitch": 76,
      "start_beat": 109.5,
      "duration_beat": 0.23541666666666572,
      "velocity": 43,
      "track": 0
    },
    {
      "pitch": 80,
      "start_beat": 109.5,
      "duration_beat": 0.23541666666666572,
      "velocity": 43,
      "track": 0
    },
    {
      "pitch": 83,
      "start_beat": 109.5,
      "duration_beat": 0.23541666666666572,
      "velocity": 43,
      "track": 0
    },
    {
      "pitch": 76,
      "start_beat": 109.5,
      "duration_beat": 0.11770833333333286,
      "velocity": 33,
      "track": 0
    },
    {
      "pitch": 76,
      "start_beat": 109.5,
      "duration_beat": 0.125,
      "velocity": 13,
      "track": 0
    },
    {
      "pitch": 83,
      "start_beat": 109.625,
      "duration_beat": 0.11770833333333286,
      "velocity": 33,
      "track": 0
    },
    {
      "pitch": 88,
      "start_beat": 109.75,
      "duration_beat": 0.11770833333333286,
      "velocity": 33,
      "track": 0
    },
    {
      "pitch": 75,
      "start_beat": 109.75,
      "duration_beat": 0.23541666666666572,
      "velocity": 33,
      "track": 0
    },
    {
      "pitch": 75,
      "start_beat": 109.75,
      "duration_beat": 0.23541666666666572,
      "velocity": 43,
      "track": 0
    },
    {
      "pitch": 79,
      "start_beat": 109.75,
      "duration_beat": 0.23541666666666572,
      "velocity": 43,
      "track": 0
    },
    {
      "pitch": 82,
      "start_beat": 109.75,
      "duration_beat": 0.23541666666666572,
      "velocity": 43,
      "track": 0
    },
    {
      "pitch": 75,
      "start_beat": 109.75,
      "duration_beat": 0.11770833333333286,
      "velocity": 33,
      "track": 0
    },
    {
      "pitch": 75,
      "start_beat": 109.75,
      "duration_beat": 0.125,
      "velocity": 13,
      "track": 0
    },
    {
      "pitch": 82,
      "start_beat": 109.875,
      "duration_beat": 0.11770833333333286,
      "velocity": 33,
      "track": 0
    },
    {
      "pitch": 87,
      "start_beat": 110.0,
      "duration_beat": 0.11770833333333286,
      "velocity": 33,
      "track": 0
    },
    {
      "pitch": 76,
      "start_beat": 110.0,
      "duration_beat": 0.23541666666666572,
      "velocity": 33,
      "track": 0
    },
    {
      "pitch": 76,
      "start_beat": 110.0,
      "duration_beat": 0.23541666666666572,
      "velocity": 43,
      "track": 0
    },
    {
      "pitch": 80,
      "start_beat": 110.0,
      "duration_beat": 0.23541666666666572,
      "velocity": 43,
      "track": 0
    },
    {
      "pitch": 83,
      "start_beat": 110.0,
      "duration_beat": 0.23541666666666572,
      "velocity": 43,
      "track": 0
    },
    {
      "pitch": 76,
      "start_beat": 110.0,
      "duration_beat": 0.11770833333333286,
      "velocity": 33,
      "track": 0
    },
    {
      "pitch": 76,
      "start_beat": 110.0,
      "duration_beat": 0.125,
      "velocity": 13,
      "track": 0
    },
    {
      "pitch": 83,
      "start_beat": 110.125,
      "duration_beat": 0.11770833333333286,
      "velocity": 33,
      "track": 0
    },
    {
      "pitch": 88,
      "start_beat": 110.25,
      "duration_beat": 0.11770833333333286,
      "velocity": 33,
      "track": 0
    },
    {
      "pitch": 75,
      "start_beat": 110.25,
      "duration_beat": 0.23541666666666572,
      "velocity": 33,
      "track": 0
    },
    {
      "pitch": 75,
      "start_beat": 110.25,
      "duration_beat": 0.23541666666666572,
      "velocity": 43,
      "track": 0
    },
    {
      "pitch": 79,
      "start_beat": 110.25,
      "duration_beat": 0.23541666666666572,
      "velocity": 43,
      "track": 0
    },
    {
      "pitch": 82,
      "start_beat": 110.25,
      "duration_beat": 0.23541666666666572,
      "velocity": 43,
      "track": 0
    },
    {
      "pitch": 75,
      "start_beat": 110.25,
      "duration_beat": 0.11770833333333286,
      "velocity": 33,
      "track": 0
    },
    {
      "pitch": 75,
      "start_beat": 110.25,
      "duration_beat": 0.125,
      "velocity": 13,
      "track": 0
    },
    {
      "pitch": 82,
      "start_beat": 110.375,
      "duration_beat": 0.11770833333333286,
      "velocity": 33,
      "track": 0
    },
    {
      "pitch": 87,
      "start_beat": 110.5,
      "duration_beat": 0.11770833333333286,
      "velocity": 33,
      "track": 0
    },
    {
      "pitch": 76,
      "start_beat": 110.5,
      "duration_beat": 0.23541666666666572,
      "velocity": 33,
      "track": 0
    },
    {
      "pitch": 76,
      "start_beat": 110.5,
      "duration_beat": 0.23541666666666572,
      "velocity": 43,
      "track": 0
    },
    {
      "pitch": 80,
      "start_beat": 110.5,
      "duration_beat": 0.23541666666666572,
      "velocity": 43,
      "track": 0
    },
    {
      "pitch": 83,
      "start_beat": 110.5,
      "duration_beat": 0.23541666666666572,
      "velocity": 43,
      "track": 0
    },
    {
      "pitch": 76,
      "start_beat": 110.5,
      "duration_beat": 0.11770833333333286,
      "velocity": 33,
      "track": 0
    },
    {
      "pitch": 76,
      "start_beat": 110.5,
      "duration_beat": 0.125,
      "velocity": 13,
      "track": 0
    },
    {
      "pitch": 83,
      "start_beat": 110.625,
      "duration_beat": 0.11770833333333286,
      "velocity": 33,
      "track": 0
    },
    {
      "pitch": 88,
      "start_beat": 110.75,
      "duration_beat": 0.11770833333333286,
      "velocity": 33,
      "track": 0
    },
    {
      "pitch": 71,
      "start_beat": 110.75,
      "duration_beat": 0.23541666666666572,
      "velocity": 33,
      "track": 0
    },
    {
      "pitch": 71,
      "start_beat": 110.75,
      "duration_beat": 0.23541666666666572,
      "velocity": 43,
      "track": 0
    },
    {
      "pitch": 75,
      "start_beat": 110.75,
      "duration_beat": 0.23541666666666572,
      "velocity": 43,
      "track": 0
    },
    {
      "pitch": 78,
      "start_beat": 110.75,
      "duration_beat": 0.23541666666666572,
      "velocity": 43,
      "track": 0
    },
    {
      "pitch": 71,
      "start_beat": 110.75,
      "duration_beat": 0.11770833333333286,
      "velocity": 33,
      "track": 0
    },
    {
      "pitch": 71,
      "start_beat": 110.75,
      "duration_beat": 0.125,
      "velocity": 13,
      "track": 0
    },
    {
      "pitch": 78,
      "start_beat": 110.875,
      "duration_beat": 0.11770833333333286,
      "velocity": 33,
      "track": 0
    },
    {
      "pitch": 83,
      "start_beat": 111.0,
      "duration_beat": 0.11770833333333286,
      "velocity": 33,
      "track": 0
    },
    {
      "pitch": 74,
      "start_beat": 111.0,
      "duration_beat": 0.23541666666666572,
      "velocity": 33,
      "track": 0
    },
    {
      "pitch": 74,
      "start_beat": 111.0,
      "duration_beat": 0.23541666666666572,
      "velocity": 43,
      "track": 0
    },
    {
      "pitch": 78,
      "start_beat": 111.0,
      "duration_beat": 0.23541666666666572,
      "velocity": 43,
      "track": 0
    },
    {
      "pitch": 81,
      "start_beat": 111.0,
      "duration_beat": 0.23541666666666572,
      "velocity": 43,
      "track": 0
    },
    {
      "pitch": 74,
      "start_beat": 111.0,
      "duration_beat": 0.11770833333333286,
      "velocity": 33,
      "track": 0
    },
    {
      "pitch": 74,
      "start_beat": 111.0,
      "duration_beat": 0.125,
      "velocity": 13,
      "track": 0
    },
    {
      "pitch": 81,
      "start_beat": 111.125,
      "duration_beat": 0.11770833333333286,
      "velocity": 33,
      "track": 0
    },
    {
      "pitch": 86,
      "start_beat": 111.25,
      "duration_beat": 0.11770833333333286,
      "velocity": 33,
      "track": 0
    },
    {
      "pitch": 72,
      "start_beat": 111.25,
      "duration_beat": 0.23541666666666572,
      "velocity": 33,
      "track": 0
    },
    {
      "pitch": 72,
      "start_beat": 111.25,
      "duration_beat": 0.23541666666666572,
      "velocity": 43,
      "track": 0
    },
    {
      "pitch": 76,
      "start_beat": 111.25,
      "duration_beat": 0.23541666666666572,
      "velocity": 43,
      "track": 0
    },
    {
      "pitch": 79,
      "start_beat": 111.25,
      "duration_beat": 0.23541666666666572,
      "velocity": 43,
      "track": 0
    },
    {
      "pitch": 72,
      "start_beat": 111.25,
      "duration_beat": 0.11770833333333286,
      "velocity": 33,
      "track": 0
    },
    {
      "pitch": 72,
      "start_beat": 111.25,
      "duration_beat": 0.125,
      "velocity": 13,
      "track": 0
    },
    {
      "pitch": 79,
      "start_beat": 111.375,
      "duration_beat": 0.11770833333333286,
      "velocity": 33,
      "track": 0
    },
    {
      "pitch": 84,
      "start_beat": 111.5,
      "duration_beat": 0.11770833333333286,
      "velocity": 33,
      "track": 0
    },
    {
      "pitch": 69,
      "start_beat": 111.5,
      "duration_beat": 0.4729166666666629,
      "velocity": 33,
      "track": 0
    },
    {
      "pitch": 69,
      "start_beat": 111.5,
      "duration_beat": 0.4729166666666629,
      "velocity": 43,
      "track": 0
    },
    {
      "pitch": 73,
      "start_beat": 111.5,
      "duration_beat": 0.4729166666666629,
      "velocity": 43,
      "track": 0
    },
    {
      "pitch": 76,
      "start_beat": 111.5,
      "duration_beat": 0.4729166666666629,
      "velocity": 43,
      "track": 0
    },
    {
      "pitch": 69,
      "start_beat": 111.5,
      "duration_beat": 0.23645833333333144,
      "velocity": 33,
      "track": 0
    },
    {
      "pitch": 69,
      "start_beat": 111.5,
      "duration_beat": 0.125,
      "velocity": 13,
      "track": 0
    },
    {
      "pitch": 45,
      "start_beat": 111.5,
      "duration_beat": 0.23541666666666572,
      "velocity": 33,
      "track": 1
    },
    {
      "pitch": 45,
      "start_beat": 111.5,
      "duration_beat": 0.23541666666666572,
      "velocity": 43,
      "track": 1
    },
    {
      "pitch": 49,
      "start_beat": 111.5,
      "duration_beat": 0.23541666666666572,
      "velocity": 43,
      "track": 1
    },
    {
      "pitch": 52,
      "start_beat": 111.5,
      "duration_beat": 0.23541666666666572,
      "velocity": 43,
      "track": 1
    },
    {
      "pitch": 45,
      "start_beat": 111.5,
      "duration_beat": 0.11770833333333286,
      "velocity": 33,
      "track": 1
    },
    {
      "pitch": 45,
      "start_beat": 111.5,
      "duration_beat": 0.125,
      "velocity": 13,
      "track": 1
    },
    {
      "pitch": 76,
      "start_beat": 111.625,
      "duration_beat": 0.23645833333333144,
      "velocity": 33,
      "track": 0
    },
    {
      "pitch": 52,
      "start_beat": 111.625,
      "duration_beat": 0.11770833333333286,
      "velocity": 33,
      "track": 1
    },
    {
      "pitch": 81,
      "start_beat": 111.75,
      "duration_beat": 0.23645833333333144,
      "velocity": 33,
      "track": 0
    },
    {
      "pitch": 69,
      "start_beat": 111.75,
      "duration_beat": 0.125,
      "velocity": 13,
      "track": 0
    },
    {
      "pitch": 57,
      "start_beat": 111.75,
      "duration_beat": 0.11770833333333286,
      "velocity": 33,
      "track": 1
    },
    {
      "pitch": 52,
      "start_beat": 111.75,
      "duration_beat": 0.23541666666666572,
      "velocity": 33,
      "track": 1
    },
    {
      "pitch": 52,
      "start_beat": 111.75,
      "duration_beat": 0.23541666666666572,
      "velocity": 43,
      "track": 1
    },
    {
      "pitch": 56,
      "start_beat": 111.75,
      "duration_beat": 0.23541666666666572,
      "velocity": 43,
      "track": 1
    },
    {
      "pitch": 59,
      "start_beat": 111.75,
      "duration_beat": 0.23541666666666572,
      "velocity": 43,
      "track": 1
    },
    {
      "pitch": 52,
      "start_beat": 111.75,
      "duration_beat": 0.11770833333333286,
      "velocity": 33,
      "track": 1
    },
    {
      "pitch": 52,
      "start_beat": 111.75,
      "duration_beat": 0.125,
      "velocity": 13,
      "track": 1
    },
    {
      "pitch": 59,
      "start_beat": 111.875,
      "duration_beat": 0.11770833333333286,
      "velocity": 33,
      "track": 1
    },
    {
      "pitch": 64,
      "start_beat": 112.0,
      "duration_beat": 0.11770833333333286,
      "velocity": 33,
      "track": 1
    },
    {
      "pitch": 57,
      "start_beat": 112.0,
      "duration_beat": 0.23541666666666572,
      "velocity": 33,
      "track": 1
    },
    {
      "pitch": 57,
      "start_beat": 112.0,
      "duration_beat": 0.23541666666666572,
      "velocity": 43,
      "track": 1
    },
    {
      "pitch": 61,
      "start_beat": 112.0,
      "duration_beat": 0.23541666666666572,
      "velocity": 43,
      "track": 1
    },
    {
      "pitch": 64,
      "start_beat": 112.0,
      "duration_beat": 0.23541666666666572,
      "velocity": 43,
      "track": 1
    },
    {
      "pitch": 57,
      "start_beat": 112.0,
      "duration_beat": 0.11770833333333286,
      "velocity": 33,
      "track": 1
    },
    {
      "pitch": 57,
      "start_beat": 112.0,
      "duration_beat": 0.125,
      "velocity": 13,
      "track": 1
    },
    {
      "pitch": 64,
      "start_beat": 112.125,
      "duration_beat": 0.11770833333333286,
      "velocity": 33,
      "track": 1
    },
    {
      "pitch": 69,
      "start_beat": 112.25,
      "duration_beat": 0.11770833333333286,
      "velocity": 33,
      "track": 1
    },
    {
      "pitch": 60,
      "start_beat": 112.25,
      "duration_beat": 0.23541666666666572,
      "velocity": 33,
      "track": 0
    },
    {
      "pitch": 60,
      "start_beat": 112.25,
      "duration_beat": 0.23541666666666572,
      "velocity": 43,
      "track": 0
    },
    {
      "pitch": 64,
      "start_beat": 112.25,
      "duration_beat": 0.23541666666666572,
      "velocity": 43,
      "track": 0
    },
    {
      "pitch": 67,
      "start_beat": 112.25,
      "duration_beat": 0.23541666666666572,
      "velocity": 43,
      "track": 0
    },
    {
      "pitch": 60,
      "start_beat": 112.25,
      "duration_beat": 0.11770833333333286,
      "velocity": 33,
      "track": 0
    },
    {
      "pitch": 60,
      "start_beat": 112.25,
      "duration_beat": 0.125,
      "velocity": 13,
      "track": 0
    },
    {
      "pitch": 67,
      "start_beat": 112.375,
      "duration_beat": 0.11770833333333286,
      "velocity": 33,
      "track": 0
    },
    {
      "pitch": 72,
      "start_beat": 112.5,
      "duration_beat": 0.11770833333333286,
      "velocity": 33,
      "track": 0
    },
    {
      "pitch": 64,
      "start_beat": 112.5,
      "duration_beat": 0.23541666666666572,
      "velocity": 33,
      "track": 0
    },
    {
      "pitch": 64,
      "start_beat": 112.5,
      "duration_beat": 0.23541666666666572,
      "velocity": 43,
      "track": 0
    },
    {
      "pitch": 68,
      "start_beat": 112.5,
      "duration_beat": 0.23541666666666572,
      "velocity": 43,
      "track": 0
    },
    {
      "pitch": 71,
      "start_beat": 112.5,
      "duration_beat": 0.23541666666666572,
      "velocity": 43,
      "track": 0
    },
    {
      "pitch": 64,
      "start_beat": 112.5,
      "duration_beat": 0.11770833333333286,
      "velocity": 33,
      "track": 0
    },
    {
      "pitch": 64,
      "start_beat": 112.5,
      "duration_beat": 0.125,
      "velocity": 13,
      "track": 0
    },
    {
      "pitch": 71,
      "start_beat": 112.625,
      "duration_beat": 0.11770833333333286,
      "velocity": 33,
      "track": 0
    },
    {
      "pitch": 76,
      "start_beat": 112.75,
      "duration_beat": 0.11770833333333286,
      "velocity": 33,
      "track": 0
    },
    {
      "pitch": 69,
      "start_beat": 112.75,
      "duration_beat": 0.23541666666666572,
      "velocity": 33,
      "track": 0
    },
    {
      "pitch": 69,
      "start_beat": 112.75,
      "duration_beat": 0.23541666666666572,
      "velocity": 43,
      "track": 0
    },
    {
      "pitch": 73,
      "start_beat": 112.75,
      "duration_beat": 0.23541666666666572,
      "velocity": 43,
      "track": 0
    },
    {
      "pitch": 76,
      "start_beat": 112.75,
      "duration_beat": 0.23541666666666572,
      "velocity": 43,
      "track": 0
    },
    {
      "pitch": 69,
      "start_beat": 112.75,
      "duration_beat": 0.11770833333333286,
      "velocity": 33,
      "track": 0
    },
    {
      "pitch": 69,
      "start_beat": 112.75,
      "duration_beat": 0.125,
      "velocity": 13,
      "track": 0
    },
    {
      "pitch": 76,
      "start_beat": 112.875,
      "duration_beat": 0.11770833333333286,
      "velocity": 33,
      "track": 0
    },
    {
      "pitch": 81,
      "start_beat": 113.0,
      "duration_beat": 0.11770833333333286,
      "velocity": 33,
      "track": 0
    },
    {
      "pitch": 71,
      "start_beat": 113.0,
      "duration_beat": 0.4729166666666629,
      "velocity": 33,
      "track": 0
    },
    {
      "pitch": 71,
      "start_beat": 113.0,
      "duration_beat": 0.4729166666666629,
      "velocity": 43,
      "track": 0
    },
    {
      "pitch": 75,
      "start_beat": 113.0,
      "duration_beat": 0.4729166666666629,
      "velocity": 43,
      "track": 0
    },
    {
      "pitch": 78,
      "start_beat": 113.0,
      "duration_beat": 0.4729166666666629,
      "velocity": 43,
      "track": 0
    },
    {
      "pitch": 71,
      "start_beat": 113.0,
      "duration_beat": 0.23645833333333144,
      "velocity": 33,
      "track": 0
    },
    {
      "pitch": 71,
      "start_beat": 113.0,
      "duration_beat": 0.125,
      "velocity": 13,
      "track": 0
    },
    {
      "pitch": 40,
      "start_beat": 113.0,
      "duration_beat": 0.23541666666666572,
      "velocity": 33,
      "track": 1
    },
    {
      "pitch": 40,
      "start_beat": 113.0,
      "duration_beat": 0.23541666666666572,
      "velocity": 43,
      "track": 1
    },
    {
      "pitch": 44,
      "start_beat": 113.0,
      "duration_beat": 0.23541666666666572,
      "velocity": 43,
      "track": 1
    },
    {
      "pitch": 47,
      "start_beat": 113.0,
      "duration_beat": 0.23541666666666572,
      "velocity": 43,
      "track": 1
    },
    {
      "pitch": 40,
      "start_beat": 113.0,
      "duration_beat": 0.11770833333333286,
      "velocity": 33,
      "track": 1
    },
    {
      "pitch": 40,
      "start_beat": 113.0,
      "duration_beat": 0.125,
      "velocity": 13,
      "track": 1
    },
    {
      "pitch": 78,
      "start_beat": 113.125,
      "duration_beat": 0.23645833333333144,
      "velocity": 33,
      "track": 0
    },
    {
      "pitch": 47,
      "start_beat": 113.125,
      "duration_beat": 0.11770833333333286,
      "velocity": 33,
      "track": 1
    },
    {
      "pitch": 83,
      "start_beat": 113.25,
      "duration_beat": 0.23645833333333144,
      "velocity": 33,
      "track": 0
    },
    {
      "pitch": 71,
      "start_beat": 113.25,
      "duration_beat": 0.125,
      "velocity": 13,
      "track": 0
    },
    {
      "pitch": 52,
      "start_beat": 113.25,
      "duration_beat": 0.11770833333333286,
      "velocity": 33,
      "track": 1
    },
    {
      "pitch": 52,
      "start_beat": 113.25,
      "duration_beat": 0.23541666666666572,
      "velocity": 33,
      "track": 1
    },
    {
      "pitch": 52,
      "start_beat": 113.25,
      "duration_beat": 0.23541666666666572,
      "velocity": 43,
      "track": 1
    },
    {
      "pitch": 56,
      "start_beat": 113.25,
      "duration_beat": 0.23541666666666572,
      "velocity": 43,
      "track": 1
    },
    {
      "pitch": 59,
      "start_beat": 113.25,
      "duration_beat": 0.23541666666666572,
      "velocity": 43,
      "track": 1
    },
    {
      "pitch": 52,
      "start_beat": 113.25,
      "duration_beat": 0.11770833333333286,
      "velocity": 33,
      "track": 1
    },
    {
      "pitch": 52,
      "start_beat": 113.25,
      "duration_beat": 0.125,
      "velocity": 13,
      "track": 1
    },
    {
      "pitch": 59,
      "start_beat": 113.375,
      "duration_beat": 0.11770833333333286,
      "velocity": 33,
      "track": 1
    },
    {
      "pitch": 64,
      "start_beat": 113.5,
      "duration_beat": 0.11770833333333286,
      "velocity": 33,
      "track": 1
    },
    {
      "pitch": 56,
      "start_beat": 113.5,
      "duration_beat": 0.23541666666666572,
      "velocity": 33,
      "track": 1
    },
    {
      "pitch": 56,
      "start_beat": 113.5,
      "duration_beat": 0.23541666666666572,
      "velocity": 43,
      "track": 1
    },
    {
      "pitch": 60,
      "start_beat": 113.5,
      "duration_beat": 0.23541666666666572,
      "velocity": 43,
      "track": 1
    },
    {
      "pitch": 63,
      "start_beat": 113.5,
      "duration_beat": 0.23541666666666572,
      "velocity": 43,
      "track": 1
    },
    {
      "pitch": 56,
      "start_beat": 113.5,
      "duration_beat": 0.11770833333333286,
      "velocity": 33,
      "track": 1
    },
    {
      "pitch": 56,
      "start_beat": 113.5,
      "duration_beat": 0.125,
      "velocity": 13,
      "track": 1
    },
    {
      "pitch": 63,
      "start_beat": 113.625,
      "duration_beat": 0.11770833333333286,
      "velocity": 33,
      "track": 1
    },
    {
      "pitch": 68,
      "start_beat": 113.75,
      "duration_beat": 0.11770833333333286,
      "velocity": 33,
      "track": 1
    },
    {
      "pitch": 64,
      "start_beat": 113.75,
      "duration_beat": 0.23541666666666572,
      "velocity": 33,
      "track": 0
    },
    {
      "pitch": 64,
      "start_beat": 113.75,
      "duration_beat": 0.23541666666666572,
      "velocity": 43,
      "track": 0
    },
    {
      "pitch": 68,
      "start_beat": 113.75,
      "duration_beat": 0.23541666666666572,
      "velocity": 43,
      "track": 0
    },
    {
      "pitch": 71,
      "start_beat": 113.75,
      "duration_beat": 0.23541666666666572,
      "velocity": 43,
      "track": 0
    },
    {
      "pitch": 64,
      "start_beat": 113.75,
      "duration_beat": 0.11770833333333286,
      "velocity": 33,
      "track": 0
    },
    {
      "pitch": 64,
      "start_beat": 113.75,
      "duration_beat": 0.125,
      "velocity": 13,
      "track": 0
    },
    {
      "pitch": 71,
      "start_beat": 113.875,
      "duration_beat": 0.11770833333333286,
      "velocity": 33,
      "track": 0
    },
    {
      "pitch": 76,
      "start_beat": 114.0,
      "duration_beat": 0.11770833333333286,
      "velocity": 33,
      "track": 0
    },
    {
      "pitch": 68,
      "start_beat": 114.0,
      "duration_beat": 0.23541666666666572,
      "velocity": 33,
      "track": 0
    },
    {
      "pitch": 68,
      "start_beat": 114.0,
      "duration_beat": 0.23541666666666572,
      "velocity": 43,
      "track": 0
    },
    {
      "pitch": 72,
      "start_beat": 114.0,
      "duration_beat": 0.23541666666666572,
      "velocity": 43,
      "track": 0
    },
    {
      "pitch": 75,
      "start_beat": 114.0,
      "duration_beat": 0.23541666666666572,
      "velocity": 43,
      "track": 0
    },
    {
      "pitch": 68,
      "start_beat": 114.0,
      "duration_beat": 0.11770833333333286,
      "velocity": 33,
      "track": 0
    },
    {
      "pitch": 68,
      "start_beat": 114.0,
      "duration_beat": 0.125,
      "velocity": 13,
      "track": 0
    },
    {
      "pitch": 75,
      "start_beat": 114.125,
      "duration_beat": 0.11770833333333286,
      "velocity": 33,
      "track": 0
    },
    {
      "pitch": 80,
      "start_beat": 114.25,
      "duration_beat": 0.11770833333333286,
      "velocity": 33,
      "track": 0
    },
    {
      "pitch": 71,
      "start_beat": 114.25,
      "duration_beat": 0.23541666666666572,
      "velocity": 33,
      "track": 0
    },
    {
      "pitch": 71,
      "start_beat": 114.25,
      "duration_beat": 0.23541666666666572,
      "velocity": 43,
      "track": 0
    },
    {
      "pitch": 75,
      "start_beat": 114.25,
      "duration_beat": 0.23541666666666572,
      "velocity": 43,
      "track": 0
    },
    {
      "pitch": 78,
      "start_beat": 114.25,
      "duration_beat": 0.23541666666666572,
      "velocity": 43,
      "track": 0
    },
    {
      "pitch": 71,
      "start_beat": 114.25,
      "duration_beat": 0.11770833333333286,
      "velocity": 33,
      "track": 0
    },
    {
      "pitch": 71,
      "start_beat": 114.25,
      "duration_beat": 0.125,
      "velocity": 13,
      "track": 0
    },
    {
      "pitch": 78,
      "start_beat": 114.375,
      "duration_beat": 0.11770833333333286,
      "velocity": 33,
      "track": 0
    },
    {
      "pitch": 83,
      "start_beat": 114.5,
      "duration_beat": 0.11770833333333286,
      "velocity": 33,
      "track": 0
    },
    {
      "pitch": 72,
      "start_beat": 114.5,
      "duration_beat": 0.4729166666666629,
      "velocity": 33,
      "track": 0
    },
    {
      "pitch": 72,
      "start_beat": 114.5,
      "duration_beat": 0.4729166666666629,
      "velocity": 43,
      "track": 0
    },
    {
      "pitch": 76,
      "start_beat": 114.5,
      "duration_beat": 0.4729166666666629,
      "velocity": 43,
      "track": 0
    },
    {
      "pitch": 79,
      "start_beat": 114.5,
      "duration_beat": 0.4729166666666629,
      "velocity": 43,
      "track": 0
    },
    {
      "pitch": 72,
      "start_beat": 114.5,
      "duration_beat": 0.23645833333333144,
      "velocity": 33,
      "track": 0
    },
    {
      "pitch": 72,
      "start_beat": 114.5,
      "duration_beat": 0.125,
      "velocity": 13,
      "track": 0
    },
    {
      "pitch": 45,
      "start_beat": 114.5,
      "duration_beat": 0.23541666666666572,
      "velocity": 33,
      "track": 1
    },
    {
      "pitch": 45,
      "start_beat": 114.5,
      "duration_beat": 0.23541666666666572,
      "velocity": 43,
      "track": 1
    },
    {
      "pitch": 49,
      "start_beat": 114.5,
      "duration_beat": 0.23541666666666572,
      "velocity": 43,
      "track": 1
    },
    {
      "pitch": 52,
      "start_beat": 114.5,
      "duration_beat": 0.23541666666666572,
      "velocity": 43,
      "track": 1
    },
    {
      "pitch": 45,
      "start_beat": 114.5,
      "duration_beat": 0.11770833333333286,
      "velocity": 33,
      "track": 1
    },
    {
      "pitch": 45,
      "start_beat": 114.5,
      "duration_beat": 0.125,
      "velocity": 13,
      "track": 1
    },
    {
      "pitch": 79,
      "start_beat": 114.625,
      "duration_beat": 0.23645833333333144,
      "velocity": 33,
      "track": 0
    },
    {
      "pitch": 52,
      "start_beat": 114.625,
      "duration_beat": 0.11770833333333286,
      "velocity": 33,
      "track": 1
    },
    {
      "pitch": 84,
      "start_beat": 114.75,
      "duration_beat": 0.23645833333333144,
      "velocity": 33,
      "track": 0
    },
    {
      "pitch": 72,
      "start_beat": 114.75,
      "duration_beat": 0.125,
      "velocity": 13,
      "track": 0
    },
    {
      "pitch": 57,
      "start_beat": 114.75,
      "duration_beat": 0.11770833333333286,
      "velocity": 33,
      "track": 1
    },
    {
      "pitch": 52,
      "start_beat": 114.75,
      "duration_beat": 0.23541666666666572,
      "velocity": 33,
      "track": 1
    },
    {
      "pitch": 52,
      "start_beat": 114.75,
      "duration_beat": 0.23541666666666572,
      "velocity": 43,
      "track": 1
    },
    {
      "pitch": 56,
      "start_beat": 114.75,
      "duration_beat": 0.23541666666666572,
      "velocity": 43,
      "track": 1
    },
    {
      "pitch": 59,
      "start_beat": 114.75,
      "duration_beat": 0.23541666666666572,
      "velocity": 43,
      "track": 1
    },
    {
      "pitch": 52,
      "start_beat": 114.75,
      "duration_beat": 0.11770833333333286,
      "velocity": 33,
      "track": 1
    },
    {
      "pitch": 52,
      "start_beat": 114.75,
      "duration_beat": 0.125,
      "velocity": 13,
      "track": 1
    },
    {
      "pitch": 59,
      "start_beat": 114.875,
      "duration_beat": 0.11770833333333286,
      "velocity": 33,
      "track": 1
    },
    {
      "pitch": 64,
      "start_beat": 115.0,
      "duration_beat": 0.11770833333333286,
      "velocity": 33,
      "track": 1
    },
    {
      "pitch": 57,
      "start_beat": 115.0,
      "duration_beat": 0.23541666666666572,
      "velocity": 33,
      "track": 1
    },
    {
      "pitch": 57,
      "start_beat": 115.0,
      "duration_beat": 0.23541666666666572,
      "velocity": 43,
      "track": 1
    },
    {
      "pitch": 61,
      "start_beat": 115.0,
      "duration_beat": 0.23541666666666572,
      "velocity": 43,
      "track": 1
    },
    {
      "pitch": 64,
      "start_beat": 115.0,
      "duration_beat": 0.23541666666666572,
      "velocity": 43,
      "track": 1
    },
    {
      "pitch": 57,
      "start_beat": 115.0,
      "duration_beat": 0.11770833333333286,
      "velocity": 33,
      "track": 1
    },
    {
      "pitch": 57,
      "start_beat": 115.0,
      "duration_beat": 0.125,
      "velocity": 13,
      "track": 1
    },
    {
      "pitch": 64,
      "start_beat": 115.125,
      "duration_beat": 0.11770833333333286,
      "velocity": 33,
      "track": 1
    },
    {
      "pitch": 69,
      "start_beat": 115.25,
      "duration_beat": 0.11770833333333286,
      "velocity": 33,
      "track": 1
    },
    {
      "pitch": 64,
      "start_beat": 115.25,
      "duration_beat": 0.23541666666666572,
      "velocity": 33,
      "track": 0
    },
    {
      "pitch": 64,
      "start_beat": 115.25,
      "duration_beat": 0.23541666666666572,
      "velocity": 43,
      "track": 0
    },
    {
      "pitch": 68,
      "start_beat": 115.25,
      "duration_beat": 0.23541666666666572,
      "velocity": 43,
      "track": 0
    },
    {
      "pitch": 71,
      "start_beat": 115.25,
      "duration_beat": 0.23541666666666572,
      "velocity": 43,
      "track": 0
    },
    {
      "pitch": 64,
      "start_beat": 115.25,
      "duration_beat": 0.11770833333333286,
      "velocity": 33,
      "track": 0
    },
    {
      "pitch": 64,
      "start_beat": 115.25,
      "duration_beat": 0.125,
      "velocity": 13,
      "track": 0
    },
    {
      "pitch": 71,
      "start_beat": 115.375,
      "duration_beat": 0.11770833333333286,
      "velocity": 33,
      "track": 0
    },
    {
      "pitch": 76,
      "start_beat": 115.5,
      "duration_beat": 0.11770833333333286,
      "velocity": 33,
      "track": 0
    },
    {
      "pitch": 76,
      "start_beat": 115.5,
      "duration_beat": 0.23541666666666572,
      "velocity": 33,
      "track": 0
    },
    {
      "pitch": 76,
      "start_beat": 115.5,
      "duration_beat": 0.23541666666666572,
      "velocity": 43,
      "track": 0
    },
    {
      "pitch": 80,
      "start_beat": 115.5,
      "duration_beat": 0.23541666666666572,
      "velocity": 43,
      "track": 0
    },
    {
      "pitch": 83,
      "start_beat": 115.5,
      "duration_beat": 0.23541666666666572,
      "velocity": 43,
      "track": 0
    },
    {
      "pitch": 76,
      "start_beat": 115.5,
      "duration_beat": 0.11770833333333286,
      "velocity": 33,
      "track": 0
    },
    {
      "pitch": 76,
      "start_beat": 115.5,
      "duration_beat": 0.125,
      "velocity": 13,
      "track": 0
    },
    {
      "pitch": 83,
      "start_beat": 115.625,
      "duration_beat": 0.11770833333333286,
      "velocity": 33,
      "track": 0
    },
    {
      "pitch": 88,
      "start_beat": 115.75,
      "duration_beat": 0.11770833333333286,
      "velocity": 33,
      "track": 0
    },
    {
      "pitch": 75,
      "start_beat": 115.75,
      "duration_beat": 0.23541666666666572,
      "velocity": 33,
      "track": 0
    },
    {
      "pitch": 75,
      "start_beat": 115.75,
      "duration_beat": 0.23541666666666572,
      "velocity": 43,
      "track": 0
    },
    {
      "pitch": 79,
      "start_beat": 115.75,
      "duration_beat": 0.23541666666666572,
      "velocity": 43,
      "track": 0
    },
    {
      "pitch": 82,
      "start_beat": 115.75,
      "duration_beat": 0.23541666666666572,
      "velocity": 43,
      "track": 0
    },
    {
      "pitch": 75,
      "start_beat": 115.75,
      "duration_beat": 0.11770833333333286,
      "velocity": 33,
      "track": 0
    },
    {
      "pitch": 75,
      "start_beat": 115.75,
      "duration_beat": 0.125,
      "velocity": 13,
      "track": 0
    },
    {
      "pitch": 82,
      "start_beat": 115.875,
      "duration_beat": 0.11770833333333286,
      "velocity": 33,
      "track": 0
    },
    {
      "pitch": 87,
      "start_beat": 116.0,
      "duration_beat": 0.11770833333333286,
      "velocity": 33,
      "track": 0
    },
    {
      "pitch": 76,
      "start_beat": 116.0,
      "duration_beat": 0.23541666666666572,
      "velocity": 33,
      "track": 0
    },
    {
      "pitch": 76,
      "start_beat": 116.0,
      "duration_beat": 0.23541666666666572,
      "velocity": 43,
      "track": 0
    },
    {
      "pitch": 80,
      "start_beat": 116.0,
      "duration_beat": 0.23541666666666572,
      "velocity": 43,
      "track": 0
    },
    {
      "pitch": 83,
      "start_beat": 116.0,
      "duration_beat": 0.23541666666666572,
      "velocity": 43,
      "track": 0
    },
    {
      "pitch": 76,
      "start_beat": 116.0,
      "duration_beat": 0.11770833333333286,
      "velocity": 33,
      "track": 0
    },
    {
      "pitch": 76,
      "start_beat": 116.0,
      "duration_beat": 0.125,
      "velocity": 13,
      "track": 0
    },
    {
      "pitch": 83,
      "start_beat": 116.125,
      "duration_beat": 0.11770833333333286,
      "velocity": 33,
      "track": 0
    },
    {
      "pitch": 88,
      "start_beat": 116.25,
      "duration_beat": 0.11770833333333286,
      "velocity": 33,
      "track": 0
    },
    {
      "pitch": 75,
      "start_beat": 116.25,
      "duration_beat": 0.23541666666666572,
      "velocity": 33,
      "track": 0
    },
    {
      "pitch": 75,
      "start_beat": 116.25,
      "duration_beat": 0.23541666666666572,
      "velocity": 43,
      "track": 0
    },
    {
      "pitch": 79,
      "start_beat": 116.25,
      "duration_beat": 0.23541666666666572,
      "velocity": 43,
      "track": 0
    },
    {
      "pitch": 82,
      "start_beat": 116.25,
      "duration_beat": 0.23541666666666572,
      "velocity": 43,
      "track": 0
    },
    {
      "pitch": 75,
      "start_beat": 116.25,
      "duration_beat": 0.11770833333333286,
      "velocity": 33,
      "track": 0
    },
    {
      "pitch": 75,
      "start_beat": 116.25,
      "duration_beat": 0.125,
      "velocity": 13,
      "track": 0
    },
    {
      "pitch": 82,
      "start_beat": 116.375,
      "duration_beat": 0.11770833333333286,
      "velocity": 33,
      "track": 0
    },
    {
      "pitch": 87,
      "start_beat": 116.5,
      "duration_beat": 0.11770833333333286,
      "velocity": 33,
      "track": 0
    },
    {
      "pitch": 76,
      "start_beat": 116.5,
      "duration_beat": 0.23541666666666572,
      "velocity": 33,
      "track": 0
    },
    {
      "pitch": 76,
      "start_beat": 116.5,
      "duration_beat": 0.23541666666666572,
      "velocity": 43,
      "track": 0
    },
    {
      "pitch": 80,
      "start_beat": 116.5,
      "duration_beat": 0.23541666666666572,
      "velocity": 43,
      "track": 0
    },
    {
      "pitch": 83,
      "start_beat": 116.5,
      "duration_beat": 0.23541666666666572,
      "velocity": 43,
      "track": 0
    },
    {
      "pitch": 76,
      "start_beat": 116.5,
      "duration_beat": 0.11770833333333286,
      "velocity": 33,
      "track": 0
    },
    {
      "pitch": 76,
      "start_beat": 116.5,
      "duration_beat": 0.125,
      "velocity": 13,
      "track": 0
    },
    {
      "pitch": 83,
      "start_beat": 116.625,
      "duration_beat": 0.11770833333333286,
      "velocity": 33,
      "track": 0
    },
    {
      "pitch": 88,
      "start_beat": 116.75,
      "duration_beat": 0.11770833333333286,
      "velocity": 33,
      "track": 0
    },
    {
      "pitch": 71,
      "start_beat": 116.75,
      "duration_beat": 0.23541666666666572,
      "velocity": 33,
      "track": 0
    },
    {
      "pitch": 71,
      "start_beat": 116.75,
      "duration_beat": 0.23541666666666572,
      "velocity": 43,
      "track": 0
    },
    {
      "pitch": 75,
      "start_beat": 116.75,
      "duration_beat": 0.23541666666666572,
      "velocity": 43,
      "track": 0
    },
    {
      "pitch": 78,
      "start_beat": 116.75,
      "duration_beat": 0.23541666666666572,
      "velocity": 43,
      "track": 0
    },
    {
      "pitch": 71,
      "start_beat": 116.75,
      "duration_beat": 0.11770833333333286,
      "velocity": 33,
      "track": 0
    },
    {
      "pitch": 71,
      "start_beat": 116.75,
      "duration_beat": 0.125,
      "velocity": 13,
      "track": 0
    },
    {
      "pitch": 78,
      "start_beat": 116.875,
      "duration_beat": 0.11770833333333286,
      "velocity": 33,
      "track": 0
    },
    {
      "pitch": 83,
      "start_beat": 117.0,
      "duration_beat": 0.11770833333333286,
      "velocity": 33,
      "track": 0
    },
    {
      "pitch": 74,
      "start_beat": 117.0,
      "duration_beat": 0.23541666666666572,
      "velocity": 33,
      "track": 0
    },
    {
      "pitch": 74,
      "start_beat": 117.0,
      "duration_beat": 0.23541666666666572,
      "velocity": 43,
      "track": 0
    },
    {
      "pitch": 78,
      "start_beat": 117.0,
      "duration_beat": 0.23541666666666572,
      "velocity": 43,
      "track": 0
    },
    {
      "pitch": 81,
      "start_beat": 117.0,
      "duration_beat": 0.23541666666666572,
      "velocity": 43,
      "track": 0
    },
    {
      "pitch": 74,
      "start_beat": 117.0,
      "duration_beat": 0.11770833333333286,
      "velocity": 33,
      "track": 0
    },
    {
      "pitch": 74,
      "start_beat": 117.0,
      "duration_beat": 0.125,
      "velocity": 13,
      "track": 0
    },
    {
      "pitch": 81,
      "start_beat": 117.125,
      "duration_beat": 0.11770833333333286,
      "velocity": 33,
      "track": 0
    },
    {
      "pitch": 86,
      "start_beat": 117.25,
      "duration_beat": 0.11770833333333286,
      "velocity": 33,
      "track": 0
    },
    {
      "pitch": 72,
      "start_beat": 117.25,
      "duration_beat": 0.23541666666666572,
      "velocity": 33,
      "track": 0
    },
    {
      "pitch": 72,
      "start_beat": 117.25,
      "duration_beat": 0.23541666666666572,
      "velocity": 43,
      "track": 0
    },
    {
      "pitch": 76,
      "start_beat": 117.25,
      "duration_beat": 0.23541666666666572,
      "velocity": 43,
      "track": 0
    },
    {
      "pitch": 79,
      "start_beat": 117.25,
      "duration_beat": 0.23541666666666572,
      "velocity": 43,
      "track": 0
    },
    {
      "pitch": 72,
      "start_beat": 117.25,
      "duration_beat": 0.11770833333333286,
      "velocity": 33,
      "track": 0
    },
    {
      "pitch": 72,
      "start_beat": 117.25,
      "duration_beat": 0.125,
      "velocity": 13,
      "track": 0
    },
    {
      "pitch": 79,
      "start_beat": 117.375,
      "duration_beat": 0.11770833333333286,
      "velocity": 33,
      "track": 0
    },
    {
      "pitch": 84,
      "start_beat": 117.5,
      "duration_beat": 0.11770833333333286,
      "velocity": 33,
      "track": 0
    },
    {
      "pitch": 69,
      "start_beat": 117.5,
      "duration_beat": 0.4729166666666629,
      "velocity": 33,
      "track": 0
    },
    {
      "pitch": 69,
      "start_beat": 117.5,
      "duration_beat": 0.4729166666666629,
      "velocity": 43,
      "track": 0
    },
    {
      "pitch": 73,
      "start_beat": 117.5,
      "duration_beat": 0.4729166666666629,
      "velocity": 43,
      "track": 0
    },
    {
      "pitch": 76,
      "start_beat": 117.5,
      "duration_beat": 0.4729166666666629,
      "velocity": 43,
      "track": 0
    },
    {
      "pitch": 69,
      "start_beat": 117.5,
      "duration_beat": 0.23645833333333144,
      "velocity": 33,
      "track": 0
    },
    {
      "pitch": 69,
      "start_beat": 117.5,
      "duration_beat": 0.125,
      "velocity": 13,
      "track": 0
    },
    {
      "pitch": 45,
      "start_beat": 117.5,
      "duration_beat": 0.23541666666666572,
      "velocity": 33,
      "track": 1
    },
    {
      "pitch": 45,
      "start_beat": 117.5,
      "duration_beat": 0.23541666666666572,
      "velocity": 43,
      "track": 1
    },
    {
      "pitch": 49,
      "start_beat": 117.5,
      "duration_beat": 0.23541666666666572,
      "velocity": 43,
      "track": 1
    },
    {
      "pitch": 52,
      "start_beat": 117.5,
      "duration_beat": 0.23541666666666572,
      "velocity": 43,
      "track": 1
    },
    {
      "pitch": 45,
      "start_beat": 117.5,
      "duration_beat": 0.11770833333333286,
      "velocity": 33,
      "track": 1
    },
    {
      "pitch": 45,
      "start_beat": 117.5,
      "duration_beat": 0.125,
      "velocity": 13,
      "track": 1
    },
    {
      "pitch": 76,
      "start_beat": 117.625,
      "duration_beat": 0.23645833333333144,
      "velocity": 33,
      "track": 0
    },
    {
      "pitch": 52,
      "start_beat": 117.625,
      "duration_beat": 0.11770833333333286,
      "velocity": 33,
      "track": 1
    },
    {
      "pitch": 81,
      "start_beat": 117.75,
      "duration_beat": 0.23645833333333144,
      "velocity": 33,
      "track": 0
    },
    {
      "pitch": 69,
      "start_beat": 117.75,
      "duration_beat": 0.125,
      "velocity": 13,
      "track": 0
    },
    {
      "pitch": 57,
      "start_beat": 117.75,
      "duration_beat": 0.11770833333333286,
      "velocity": 33,
      "track": 1
    },
    {
      "pitch": 52,
      "start_beat": 117.75,
      "duration_beat": 0.23541666666666572,
      "velocity": 33,
      "track": 1
    },
    {
      "pitch": 52,
      "start_beat": 117.75,
      "duration_beat": 0.23541666666666572,
      "velocity": 43,
      "track": 1
    },
    {
      "pitch": 56,
      "start_beat": 117.75,
      "duration_beat": 0.23541666666666572,
      "velocity": 43,
      "track": 1
    },
    {
      "pitch": 59,
      "start_beat": 117.75,
      "duration_beat": 0.23541666666666572,
      "velocity": 43,
      "track": 1
    },
    {
      "pitch": 52,
      "start_beat": 117.75,
      "duration_beat": 0.11770833333333286,
      "velocity": 33,
      "track": 1
    },
    {
      "pitch": 52,
      "start_beat": 117.75,
      "duration_beat": 0.125,
      "velocity": 13,
      "track": 1
    },
    {
      "pitch": 59,
      "start_beat": 117.875,
      "duration_beat": 0.11770833333333286,
      "velocity": 33,
      "track": 1
    },
    {
      "pitch": 64,
      "start_beat": 118.0,
      "duration_beat": 0.11770833333333286,
      "velocity": 33,
      "track": 1
    },
    {
      "pitch": 57,
      "start_beat": 118.0,
      "duration_beat": 0.23541666666666572,
      "velocity": 33,
      "track": 1
    },
    {
      "pitch": 57,
      "start_beat": 118.0,
      "duration_beat": 0.23541666666666572,
      "velocity": 43,
      "track": 1
    },
    {
      "pitch": 61,
      "start_beat": 118.0,
      "duration_beat": 0.23541666666666572,
      "velocity": 43,
      "track": 1
    },
    {
      "pitch": 64,
      "start_beat": 118.0,
      "duration_beat": 0.23541666666666572,
      "velocity": 43,
      "track": 1
    },
    {
      "pitch": 57,
      "start_beat": 118.0,
      "duration_beat": 0.11770833333333286,
      "velocity": 33,
      "track": 1
    },
    {
      "pitch": 57,
      "start_beat": 118.0,
      "duration_beat": 0.125,
      "velocity": 13,
      "track": 1
    },
    {
      "pitch": 64,
      "start_beat": 118.125,
      "duration_beat": 0.11770833333333286,
      "velocity": 33,
      "track": 1
    },
    {
      "pitch": 69,
      "start_beat": 118.25,
      "duration_beat": 0.11770833333333286,
      "velocity": 33,
      "track": 1
    },
    {
      "pitch": 60,
      "start_beat": 118.25,
      "duration_beat": 0.23541666666666572,
      "velocity": 33,
      "track": 0
    },
    {
      "pitch": 60,
      "start_beat": 118.25,
      "duration_beat": 0.23541666666666572,
      "velocity": 43,
      "track": 0
    },
    {
      "pitch": 64,
      "start_beat": 118.25,
      "duration_beat": 0.23541666666666572,
      "velocity": 43,
      "track": 0
    },
    {
      "pitch": 67,
      "start_beat": 118.25,
      "duration_beat": 0.23541666666666572,
      "velocity": 43,
      "track": 0
    },
    {
      "pitch": 60,
      "start_beat": 118.25,
      "duration_beat": 0.11770833333333286,
      "velocity": 33,
      "track": 0
    },
    {
      "pitch": 60,
      "start_beat": 118.25,
      "duration_beat": 0.125,
      "velocity": 13,
      "track": 0
    },
    {
      "pitch": 67,
      "start_beat": 118.375,
      "duration_beat": 0.11770833333333286,
      "velocity": 33,
      "track": 0
    },
    {
      "pitch": 72,
      "start_beat": 118.5,
      "duration_beat": 0.11770833333333286,
      "velocity": 33,
      "track": 0
    },
    {
      "pitch": 64,
      "start_beat": 118.5,
      "duration_beat": 0.23541666666666572,
      "velocity": 33,
      "track": 0
    },
    {
      "pitch": 64,
      "start_beat": 118.5,
      "duration_beat": 0.23541666666666572,
      "velocity": 43,
      "track": 0
    },
    {
      "pitch": 68,
      "start_beat": 118.5,
      "duration_beat": 0.23541666666666572,
      "velocity": 43,
      "track": 0
    },
    {
      "pitch": 71,
      "start_beat": 118.5,
      "duration_beat": 0.23541666666666572,
      "velocity": 43,
      "track": 0
    },
    {
      "pitch": 64,
      "start_beat": 118.5,
      "duration_beat": 0.11770833333333286,
      "velocity": 33,
      "track": 0
    },
    {
      "pitch": 64,
      "start_beat": 118.5,
      "duration_beat": 0.125,
      "velocity": 13,
      "track": 0
    },
    {
      "pitch": 71,
      "start_beat": 118.625,
      "duration_beat": 0.11770833333333286,
      "velocity": 33,
      "track": 0
    },
    {
      "pitch": 76,
      "start_beat": 118.75,
      "duration_beat": 0.11770833333333286,
      "velocity": 33,
      "track": 0
    },
    {
      "pitch": 69,
      "start_beat": 118.75,
      "duration_beat": 0.23541666666666572,
      "velocity": 33,
      "track": 0
    },
    {
      "pitch": 69,
      "start_beat": 118.75,
      "duration_beat": 0.23541666666666572,
      "velocity": 43,
      "track": 0
    },
    {
      "pitch": 73,
      "start_beat": 118.75,
      "duration_beat": 0.23541666666666572,
      "velocity": 43,
      "track": 0
    },
    {
      "pitch": 76,
      "start_beat": 118.75,
      "duration_beat": 0.23541666666666572,
      "velocity": 43,
      "track": 0
    },
    {
      "pitch": 69,
      "start_beat": 118.75,
      "duration_beat": 0.11770833333333286,
      "velocity": 33,
      "track": 0
    },
    {
      "pitch": 69,
      "start_beat": 118.75,
      "duration_beat": 0.125,
      "velocity": 13,
      "track": 0
    },
    {
      "pitch": 76,
      "start_beat": 118.875,
      "duration_beat": 0.11770833333333286,
      "velocity": 33,
      "track": 0
    },
    {
      "pitch": 81,
      "start_beat": 119.0,
      "duration_beat": 0.11770833333333286,
      "velocity": 33,
      "track": 0
    },
    {
      "pitch": 71,
      "start_beat": 119.0,
      "duration_beat": 0.4729166666666629,
      "velocity": 33,
      "track": 0
    },
    {
      "pitch": 71,
      "start_beat": 119.0,
      "duration_beat": 0.4729166666666629,
      "velocity": 43,
      "track": 0
    },
    {
      "pitch": 75,
      "start_beat": 119.0,
      "duration_beat": 0.4729166666666629,
      "velocity": 43,
      "track": 0
    },
    {
      "pitch": 78,
      "start_beat": 119.0,
      "duration_beat": 0.4729166666666629,
      "velocity": 43,
      "track": 0
    },
    {
      "pitch": 71,
      "start_beat": 119.0,
      "duration_beat": 0.23645833333333144,
      "velocity": 33,
      "track": 0
    },
    {
      "pitch": 71,
      "start_beat": 119.0,
      "duration_beat": 0.125,
      "velocity": 13,
      "track": 0
    },
    {
      "pitch": 40,
      "start_beat": 119.0,
      "duration_beat": 0.23541666666666572,
      "velocity": 33,
      "track": 1
    },
    {
      "pitch": 40,
      "start_beat": 119.0,
      "duration_beat": 0.23541666666666572,
      "velocity": 43,
      "track": 1
    },
    {
      "pitch": 44,
      "start_beat": 119.0,
      "duration_beat": 0.23541666666666572,
      "velocity": 43,
      "track": 1
    },
    {
      "pitch": 47,
      "start_beat": 119.0,
      "duration_beat": 0.23541666666666572,
      "velocity": 43,
      "track": 1
    },
    {
      "pitch": 40,
      "start_beat": 119.0,
      "duration_beat": 0.11770833333333286,
      "velocity": 33,
      "track": 1
    },
    {
      "pitch": 40,
      "start_beat": 119.0,
      "duration_beat": 0.125,
      "velocity": 13,
      "track": 1
    },
    {
      "pitch": 78,
      "start_beat": 119.125,
      "duration_beat": 0.23645833333333144,
      "velocity": 33,
      "track": 0
    },
    {
      "pitch": 47,
      "start_beat": 119.125,
      "duration_beat": 0.11770833333333286,
      "velocity": 33,
      "track": 1
    },
    {
      "pitch": 83,
      "start_beat": 119.25,
      "duration_beat": 0.23645833333333144,
      "velocity": 33,
      "track": 0
    },
    {
      "pitch": 71,
      "start_beat": 119.25,
      "duration_beat": 0.125,
      "velocity": 13,
      "track": 0
    },
    {
      "pitch": 52,
      "start_beat": 119.25,
      "duration_beat": 0.11770833333333286,
      "velocity": 33,
      "track": 1
    },
    {
      "pitch": 52,
      "start_beat": 119.25,
      "duration_beat": 0.23541666666666572,
      "velocity": 33,
      "track": 1
    },
    {
      "pitch": 52,
      "start_beat": 119.25,
      "duration_beat": 0.23541666666666572,
      "velocity": 43,
      "track": 1
    },
    {
      "pitch": 56,
      "start_beat": 119.25,
      "duration_beat": 0.23541666666666572,
      "velocity": 43,
      "track": 1
    },
    {
      "pitch": 59,
      "start_beat": 119.25,
      "duration_beat": 0.23541666666666572,
      "velocity": 43,
      "track": 1
    },
    {
      "pitch": 52,
      "start_beat": 119.25,
      "duration_beat": 0.11770833333333286,
      "velocity": 33,
      "track": 1
    },
    {
      "pitch": 52,
      "start_beat": 119.25,
      "duration_beat": 0.125,
      "velocity": 13,
      "track": 1
    },
    {
      "pitch": 59,
      "start_beat": 119.375,
      "duration_beat": 0.11770833333333286,
      "velocity": 33,
      "track": 1
    },
    {
      "pitch": 64,
      "start_beat": 119.5,
      "duration_beat": 0.11770833333333286,
      "velocity": 33,
      "track": 1
    },
    {
      "pitch": 56,
      "start_beat": 119.5,
      "duration_beat": 0.23541666666666572,
      "velocity": 33,
      "track": 1
    },
    {
      "pitch": 56,
      "start_beat": 119.5,
      "duration_beat": 0.23541666666666572,
      "velocity": 43,
      "track": 1
    },
    {
      "pitch": 60,
      "start_beat": 119.5,
      "duration_beat": 0.23541666666666572,
      "velocity": 43,
      "track": 1
    },
    {
      "pitch": 63,
      "start_beat": 119.5,
      "duration_beat": 0.23541666666666572,
      "velocity": 43,
      "track": 1
    },
    {
      "pitch": 56,
      "start_beat": 119.5,
      "duration_beat": 0.11770833333333286,
      "velocity": 33,
      "track": 1
    },
    {
      "pitch": 56,
      "start_beat": 119.5,
      "duration_beat": 0.125,
      "velocity": 13,
      "track": 1
    },
    {
      "pitch": 63,
      "start_beat": 119.625,
      "duration_beat": 0.11770833333333286,
      "velocity": 33,
      "track": 1
    },
    {
      "pitch": 68,
      "start_beat": 119.75,
      "duration_beat": 0.11770833333333286,
      "velocity": 33,
      "track": 1
    },
    {
      "pitch": 62,
      "start_beat": 119.75,
      "duration_beat": 0.23541666666666572,
      "velocity": 33,
      "track": 0
    },
    {
      "pitch": 62,
      "start_beat": 119.75,
      "duration_beat": 0.23541666666666572,
      "velocity": 43,
      "track": 0
    },
    {
      "pitch": 66,
      "start_beat": 119.75,
      "duration_beat": 0.23541666666666572,
      "velocity": 43,
      "track": 0
    },
    {
      "pitch": 69,
      "start_beat": 119.75,
      "duration_beat": 0.23541666666666572,
      "velocity": 43,
      "track": 0
    },
    {
      "pitch": 62,
      "start_beat": 119.75,
      "duration_beat": 0.11770833333333286,
      "velocity": 33,
      "track": 0
    },
    {
      "pitch": 62,
      "start_beat": 119.75,
      "duration_beat": 0.125,
      "velocity": 13,
      "track": 0
    },
    {
      "pitch": 69,
      "start_beat": 119.875,
      "duration_beat": 0.11770833333333286,
      "velocity": 33,
      "track": 0
    },
    {
      "pitch": 74,
      "start_beat": 120.0,
      "duration_beat": 0.11770833333333286,
      "velocity": 33,
      "track": 0
    },
    {
      "pitch": 72,
      "start_beat": 120.0,
      "duration_beat": 0.23541666666666572,
      "velocity": 33,
      "track": 0
    },
    {
      "pitch": 72,
      "start_beat": 120.0,
      "duration_beat": 0.23541666666666572,
      "velocity": 43,
      "track": 0
    },
    {
      "pitch": 76,
      "start_beat": 120.0,
      "duration_beat": 0.23541666666666572,
      "velocity": 43,
      "track": 0
    },
    {
      "pitch": 79,
      "start_beat": 120.0,
      "duration_beat": 0.23541666666666572,
      "velocity": 43,
      "track": 0
    },
    {
      "pitch": 72,
      "start_beat": 120.0,
      "duration_beat": 0.11770833333333286,
      "velocity": 33,
      "track": 0
    },
    {
      "pitch": 72,
      "start_beat": 120.0,
      "duration_beat": 0.125,
      "velocity": 13,
      "track": 0
    },
    {
      "pitch": 79,
      "start_beat": 120.125,
      "duration_beat": 0.11770833333333286,
      "velocity": 33,
      "track": 0
    },
    {
      "pitch": 84,
      "start_beat": 120.25,
      "duration_beat": 0.11770833333333286,
      "velocity": 33,
      "track": 0
    },
    {
      "pitch": 71,
      "start_beat": 120.25,
      "duration_beat": 0.23541666666666572,
      "velocity": 33,
      "track": 0
    },
    {
      "pitch": 71,
      "start_beat": 120.25,
      "duration_beat": 0.23541666666666572,
      "velocity": 43,
      "track": 0
    },
    {
      "pitch": 75,
      "start_beat": 120.25,
      "duration_beat": 0.23541666666666572,
      "velocity": 43,
      "track": 0
    },
    {
      "pitch": 78,
      "start_beat": 120.25,
      "duration_beat": 0.23541666666666572,
      "velocity": 43,
      "track": 0
    },
    {
      "pitch": 71,
      "start_beat": 120.25,
      "duration_beat": 0.11770833333333286,
      "velocity": 33,
      "track": 0
    },
    {
      "pitch": 71,
      "start_beat": 120.25,
      "duration_beat": 0.125,
      "velocity": 13,
      "track": 0
    },
    {
      "pitch": 78,
      "start_beat": 120.375,
      "duration_beat": 0.11770833333333286,
      "velocity": 33,
      "track": 0
    },
    {
      "pitch": 83,
      "start_beat": 120.5,
      "duration_beat": 0.11770833333333286,
      "velocity": 33,
      "track": 0
    },
    {
      "pitch": 69,
      "start_beat": 120.5,
      "duration_beat": 0.4729166666666629,
      "velocity": 33,
      "track": 0
    },
    {
      "pitch": 69,
      "start_beat": 120.5,
      "duration_beat": 0.4729166666666629,
      "velocity": 43,
      "track": 0
    },
    {
      "pitch": 73,
      "start_beat": 120.5,
      "duration_beat": 0.4729166666666629,
      "velocity": 43,
      "track": 0
    },
    {
      "pitch": 76,
      "start_beat": 120.5,
      "duration_beat": 0.4729166666666629,
      "velocity": 43,
      "track": 0
    },
    {
      "pitch": 69,
      "start_beat": 120.5,
      "duration_beat": 0.23645833333333144,
      "velocity": 33,
      "track": 0
    },
    {
      "pitch": 69,
      "start_beat": 120.5,
      "duration_beat": 0.125,
      "velocity": 13,
      "track": 0
    },
    {
      "pitch": 45,
      "start_beat": 120.5,
      "duration_beat": 0.23541666666666572,
      "velocity": 33,
      "track": 1
    },
    {
      "pitch": 45,
      "start_beat": 120.5,
      "duration_beat": 0.23541666666666572,
      "velocity": 43,
      "track": 1
    },
    {
      "pitch": 49,
      "start_beat": 120.5,
      "duration_beat": 0.23541666666666572,
      "velocity": 43,
      "track": 1
    },
    {
      "pitch": 52,
      "start_beat": 120.5,
      "duration_beat": 0.23541666666666572,
      "velocity": 43,
      "track": 1
    },
    {
      "pitch": 45,
      "start_beat": 120.5,
      "duration_beat": 0.11770833333333286,
      "velocity": 33,
      "track": 1
    },
    {
      "pitch": 45,
      "start_beat": 120.5,
      "duration_beat": 0.125,
      "velocity": 13,
      "track": 1
    },
    {
      "pitch": 76,
      "start_beat": 120.625,
      "duration_beat": 0.23645833333333144,
      "velocity": 33,
      "track": 0
    },
    {
      "pitch": 52,
      "start_beat": 120.625,
      "duration_beat": 0.11770833333333286,
      "velocity": 33,
      "track": 1
    },
    {
      "pitch": 81,
      "start_beat": 120.75,
      "duration_beat": 0.23645833333333144,
      "velocity": 33,
      "track": 0
    },
    {
      "pitch": 69,
      "start_beat": 120.75,
      "duration_beat": 0.125,
      "velocity": 13,
      "track": 0
    },
    {
      "pitch": 57,
      "start_beat": 120.75,
      "duration_beat": 0.11770833333333286,
      "velocity": 33,
      "track": 1
    },
    {
      "pitch": 45,
      "start_beat": 120.75,
      "duration_beat": 0.23541666666666572,
      "velocity": 33,
      "track": 1
    },
    {
      "pitch": 45,
      "start_beat": 120.75,
      "duration_beat": 0.23541666666666572,
      "velocity": 43,
      "track": 1
    },
    {
      "pitch": 49,
      "start_beat": 120.75,
      "duration_beat": 0.23541666666666572,
      "velocity": 43,
      "track": 1
    },
    {
      "pitch": 52,
      "start_beat": 120.75,
      "duration_beat": 0.23541666666666572,
      "velocity": 43,
      "track": 1
    },
    {
      "pitch": 45,
      "start_beat": 120.75,
      "duration_beat": 0.11770833333333286,
      "velocity": 33,
      "track": 1
    },
    {
      "pitch": 45,
      "start_beat": 120.75,
      "duration_beat": 0.125,
      "velocity": 13,
      "track": 1
    },
    {
      "pitch": 52,
      "start_beat": 120.875,
      "duration_beat": 0.11770833333333286,
      "velocity": 33,
      "track": 1
    },
    {
      "pitch": 57,
      "start_beat": 121.0,
      "duration_beat": 0.11770833333333286,
      "velocity": 33,
      "track": 1
    },
    {
      "pitch": 45,
      "start_beat": 121.0,
      "duration_beat": 0.23541666666666572,
      "velocity": 33,
      "track": 1
    },
    {
      "pitch": 45,
      "start_beat": 121.0,
      "duration_beat": 0.23541666666666572,
      "velocity": 43,
      "track": 1
    },
    {
      "pitch": 49,
      "start_beat": 121.0,
      "duration_beat": 0.23541666666666572,
      "velocity": 43,
      "track": 1
    },
    {
      "pitch": 52,
      "start_beat": 121.0,
      "duration_beat": 0.23541666666666572,
      "velocity": 43,
      "track": 1
    },
    {
      "pitch": 45,
      "start_beat": 121.0,
      "duration_beat": 0.11770833333333286,
      "velocity": 33,
      "track": 1
    },
    {
      "pitch": 45,
      "start_beat": 121.0,
      "duration_beat": 0.125,
      "velocity": 13,
      "track": 1
    },
    {
      "pitch": 52,
      "start_beat": 121.125,
      "duration_beat": 0.11770833333333286,
      "velocity": 33,
      "track": 1
    },
    {
      "pitch": 57,
      "start_beat": 121.25,
      "duration_beat": 0.11770833333333286,
      "velocity": 33,
      "track": 1
    },
    {
      "pitch": 45,
      "start_beat": 121.25,
      "duration_beat": 0.23541666666666572,
      "velocity": 33,
      "track": 1
    },
    {
      "pitch": 45,
      "start_beat": 121.25,
      "duration_beat": 0.23541666666666572,
      "velocity": 43,
      "track": 1
    },
    {
      "pitch": 49,
      "start_beat": 121.25,
      "duration_beat": 0.23541666666666572,
      "velocity": 43,
      "track": 1
    },
    {
      "pitch": 52,
      "start_beat": 121.25,
      "duration_beat": 0.23541666666666572,
      "velocity": 43,
      "track": 1
    },
    {
      "pitch": 45,
      "start_beat": 121.25,
      "duration_beat": 0.11770833333333286,
      "velocity": 33,
      "track": 1
    },
    {
      "pitch": 45,
      "start_beat": 121.25,
      "duration_beat": 0.125,
      "velocity": 13,
      "track": 1
    },
    {
      "pitch": 52,
      "start_beat": 121.375,
      "duration_beat": 0.11770833333333286,
      "velocity": 33,
      "track": 1
    },
    {
      "pitch": 57,
      "start_beat": 121.5,
      "duration_beat": 0.11770833333333286,
      "velocity": 33,
      "track": 1
    },
    {
      "pitch": 45,
      "start_beat": 121.5,
      "duration_beat": 0.23541666666666572,
      "velocity": 33,
      "track": 1
    },
    {
      "pitch": 45,
      "start_beat": 121.5,
      "duration_beat": 0.23541666666666572,
      "velocity": 43,
      "track": 1
    },
    {
      "pitch": 49,
      "start_beat": 121.5,
      "duration_beat": 0.23541666666666572,
      "velocity": 43,
      "track": 1
    },
    {
      "pitch": 52,
      "start_beat": 121.5,
      "duration_beat": 0.23541666666666572,
      "velocity": 43,
      "track": 1
    },
    {
      "pitch": 45,
      "start_beat": 121.5,
      "duration_beat": 0.11770833333333286,
      "velocity": 33,
      "track": 1
    },
    {
      "pitch": 45,
      "start_beat": 121.5,
      "duration_beat": 0.125,
      "velocity": 13,
      "track": 1
    },
    {
      "pitch": 52,
      "start_beat": 121.625,
      "duration_beat": 0.11770833333333286,
      "velocity": 33,
      "track": 1
    },
    {
      "pitch": 57,
      "start_beat": 121.75,
      "duration_beat": 0.11770833333333286,
      "velocity": 33,
      "track": 1
    },
    {
      "pitch": 45,
      "start_beat": 121.75,
      "duration_beat": 0.23541666666666572,
      "velocity": 33,
      "track": 1
    },
    {
      "pitch": 45,
      "start_beat": 121.75,
      "duration_beat": 0.23541666666666572,
      "velocity": 43,
      "track": 1
    },
    {
      "pitch": 49,
      "start_beat": 121.75,
      "duration_beat": 0.23541666666666572,
      "velocity": 43,
      "track": 1
    },
    {
      "pitch": 52,
      "start_beat": 121.75,
      "duration_beat": 0.23541666666666572,
      "velocity": 43,
      "track": 1
    },
    {
      "pitch": 45,
      "start_beat": 121.75,
      "duration_beat": 0.11770833333333286,
      "velocity": 33,
      "track": 1
    },
    {
      "pitch": 45,
      "start_beat": 121.75,
      "duration_beat": 0.125,
      "velocity": 13,
      "track": 1
    },
    {
      "pitch": 52,
      "start_beat": 121.875,
      "duration_beat": 0.11770833333333286,
      "velocity": 33,
      "track": 1
    },
    {
      "pitch": 57,
      "start_beat": 122.0,
      "duration_beat": 0.11770833333333286,
      "velocity": 33,
      "track": 1
    },
    {
      "pitch": 64,
      "start_beat": 122.0,
      "duration_beat": 1.4229166666666657,
      "velocity": 33,
      "track": 0
    },
    {
      "pitch": 64,
      "start_beat": 122.0,
      "duration_beat": 1.4229166666666657,
      "velocity": 43,
      "track": 0
    },
    {
      "pitch": 68,
      "start_beat": 122.0,
      "duration_beat": 1.4229166666666657,
      "velocity": 43,
      "track": 0
    },
    {
      "pitch": 71,
      "start_beat": 122.0,
      "duration_beat": 1.4229166666666657,
      "velocity": 43,
      "track": 0
    },
    {
      "pitch": 64,
      "start_beat": 122.0,
      "duration_beat": 0.7114583333333329,
      "velocity": 33,
      "track": 0
    },
    {
      "pitch": 64,
      "start_beat": 122.0,
      "duration_beat": 0.125,
      "velocity": 13,
      "track": 0
    },
    {
      "pitch": 67,
      "start_beat": 122.0,
      "duration_beat": 1.4229166666666657,
      "velocity": 33,
      "track": 0
    },
    {
      "pitch": 67,
      "start_beat": 122.0,
      "duration_beat": 1.4229166666666657,
      "velocity": 43,
      "track": 0
    },
    {
      "pitch": 71,
      "start_beat": 122.0,
      "duration_beat": 1.4229166666666657,
      "velocity": 43,
      "track": 0
    },
    {
      "pitch": 74,
      "start_beat": 122.0,
      "duration_beat": 1.4229166666666657,
      "velocity": 43,
      "track": 0
    },
    {
      "pitch": 67,
      "start_beat": 122.0,
      "duration_beat": 0.7114583333333329,
      "velocity": 33,
      "track": 0
    },
    {
      "pitch": 67,
      "start_beat": 122.0,
      "duration_beat": 0.125,
      "velocity": 13,
      "track": 0
    },
    {
      "pitch": 70,
      "start_beat": 122.0,
      "duration_beat": 1.4229166666666657,
      "velocity": 33,
      "track": 0
    },
    {
      "pitch": 70,
      "start_beat": 122.0,
      "duration_beat": 1.4229166666666657,
      "velocity": 43,
      "track": 0
    },
    {
      "pitch": 74,
      "start_beat": 122.0,
      "duration_beat": 1.4229166666666657,
      "velocity": 43,
      "track": 0
    },
    {
      "pitch": 77,
      "start_beat": 122.0,
      "duration_beat": 1.4229166666666657,
      "velocity": 43,
      "track": 0
    },
    {
      "pitch": 70,
      "start_beat": 122.0,
      "duration_beat": 0.7114583333333329,
      "velocity": 33,
      "track": 0
    },
    {
      "pitch": 70,
      "start_beat": 122.0,
      "duration_beat": 0.125,
      "velocity": 13,
      "track": 0
    },
    {
      "pitch": 73,
      "start_beat": 122.0,
      "duration_beat": 1.4229166666666657,
      "velocity": 33,
      "track": 0
    },
    {
      "pitch": 73,
      "start_beat": 122.0,
      "duration_beat": 1.4229166666666657,
      "velocity": 43,
      "track": 0
    },
    {
      "pitch": 77,
      "start_beat": 122.0,
      "duration_beat": 1.4229166666666657,
      "velocity": 43,
      "track": 0
    },
    {
      "pitch": 80,
      "start_beat": 122.0,
      "duration_beat": 1.4229166666666657,
      "velocity": 43,
      "track": 0
    },
    {
      "pitch": 73,
      "start_beat": 122.0,
      "duration_beat": 0.7114583333333329,
      "velocity": 33,
      "track": 0
    },
    {
      "pitch": 73,
      "start_beat": 122.0,
      "duration_beat": 0.125,
      "velocity": 13,
      "track": 0
    },
    {
      "pitch": 45,
      "start_beat": 122.0,
      "duration_beat": 0.23541666666666572,
      "velocity": 33,
      "track": 1
    },
    {
      "pitch": 45,
      "start_beat": 122.0,
      "duration_beat": 0.23541666666666572,
      "velocity": 43,
      "track": 1
    },
    {
      "pitch": 49,
      "start_beat": 122.0,
      "duration_beat": 0.23541666666666572,
      "velocity": 43,
      "track": 1
    },
    {
      "pitch": 52,
      "start_beat": 122.0,
      "duration_beat": 0.23541666666666572,
      "velocity": 43,
      "track": 1
    },
    {
      "pitch": 45,
      "start_beat": 122.0,
      "duration_beat": 0.11770833333333286,
      "velocity": 33,
      "track": 1
    },
    {
      "pitch": 45,
      "start_beat": 122.0,
      "duration_beat": 0.125,
      "velocity": 13,
      "track": 1
    },
    {
      "pitch": 71,
      "start_beat": 122.125,
      "duration_beat": 0.7114583333333329,
      "velocity": 33,
      "track": 0
    },
    {
      "pitch": 74,
      "start_beat": 122.125,
      "duration_beat": 0.7114583333333329,
      "velocity": 33,
      "track": 0
    },
    {
      "pitch": 77,
      "start_beat": 122.125,
      "duration_beat": 0.7114583333333329,
      "velocity": 33,
      "track": 0
    },
    {
      "pitch": 80,
      "start_beat": 122.125,
      "duration_beat": 0.7114583333333329,
      "velocity": 33,
      "track": 0
    },
    {
      "pitch": 52,
      "start_beat": 122.125,
      "duration_beat": 0.11770833333333286,
      "velocity": 33,
      "track": 1
    },
    {
      "pitch": 76,
      "start_beat": 122.25,
      "duration_beat": 0.7114583333333329,
      "velocity": 33,
      "track": 0
    },
    {
      "pitch": 64,
      "start_beat": 122.25,
      "duration_beat": 0.125,
      "velocity": 13,
      "track": 0
    },
    {
      "pitch": 79,
      "start_beat": 122.25,
      "duration_beat": 0.7114583333333329,
      "velocity": 33,
      "track": 0
    },
    {
      "pitch": 67,
      "start_beat": 122.25,
      "duration_beat": 0.125,
      "velocity": 13,
      "track": 0
    },
    {
      "pitch": 82,
      "start_beat": 122.25,
      "duration_beat": 0.7114583333333329,
      "velocity": 33,
      "track": 0
    },
    {
      "pitch": 70,
      "start_beat": 122.25,
      "duration_beat": 0.125,
      "velocity": 13,
      "track": 0
    },
    {
      "pitch": 85,
      "start_beat": 122.25,
      "duration_beat": 0.7114583333333329,
      "velocity": 33,
      "track": 0
    },
    {
      "pitch": 73,
      "start_beat": 122.25,
      "duration_beat": 0.125,
      "velocity": 13,
      "track": 0
    },
    {
      "pitch": 57,
      "start_beat": 122.25,
      "duration_beat": 0.11770833333333286,
      "velocity": 33,
      "track": 1
    },
    {
      "pitch": 45,
      "start_beat": 122.25,
      "duration_beat": 0.23541666666666572,
      "velocity": 33,
      "track": 1
    },
    {
      "pitch": 45,
      "start_beat": 122.25,
      "duration_beat": 0.23541666666666572,
      "velocity": 43,
      "track": 1
    },
    {
      "pitch": 49,
      "start_beat": 122.25,
      "duration_beat": 0.23541666666666572,
      "velocity": 43,
      "track": 1
    },
    {
      "pitch": 52,
      "start_beat": 122.25,
      "duration_beat": 0.23541666666666572,
      "velocity": 43,
      "track": 1
    },
    {
      "pitch": 45,
      "start_beat": 122.25,
      "duration_beat": 0.11770833333333286,
      "velocity": 33,
      "track": 1
    },
    {
      "pitch": 45,
      "start_beat": 122.25,
      "duration_beat": 0.125,
      "velocity": 13,
      "track": 1
    },
    {
      "pitch": 52,
      "start_beat": 122.375,
      "duration_beat": 0.11770833333333286,
      "velocity": 33,
      "track": 1
    },
    {
      "pitch": 64,
      "start_beat": 122.5,
      "duration_beat": 0.125,
      "velocity": 13,
      "track": 0
    },
    {
      "pitch": 67,
      "start_beat": 122.5,
      "duration_beat": 0.125,
      "velocity": 13,
      "track": 0
    },
    {
      "pitch": 70,
      "start_beat": 122.5,
      "duration_beat": 0.125,
      "velocity": 13,
      "track": 0
    },
    {
      "pitch": 73,
      "start_beat": 122.5,
      "duration_beat": 0.125,
      "velocity": 13,
      "track": 0
    },
    {
      "pitch": 57,
      "start_beat": 122.5,
      "duration_beat": 0.11770833333333286,
      "velocity": 33,
      "track": 1
    },
    {
      "pitch": 45,
      "start_beat": 122.5,
      "duration_beat": 0.23541666666666572,
      "velocity": 33,
      "track": 1
    },
    {
      "pitch": 45,
      "start_beat": 122.5,
      "duration_beat": 0.23541666666666572,
      "velocity": 43,
      "track": 1
    },
    {
      "pitch": 49,
      "start_beat": 122.5,
      "duration_beat": 0.23541666666666572,
      "velocity": 43,
      "track": 1
    },
    {
      "pitch": 52,
      "start_beat": 122.5,
      "duration_beat": 0.23541666666666572,
      "velocity": 43,
      "track": 1
    },
    {
      "pitch": 45,
      "start_beat": 122.5,
      "duration_beat": 0.11770833333333286,
      "velocity": 33,
      "track": 1
    },
    {
      "pitch": 45,
      "start_beat": 122.5,
      "duration_beat": 0.125,
      "velocity": 13,
      "track": 1
    },
    {
      "pitch": 52,
      "start_beat": 122.625,
      "duration_beat": 0.11770833333333286,
      "velocity": 33,
      "track": 1
    },
    {
      "pitch": 64,
      "start_beat": 122.75,
      "duration_beat": 0.125,
      "velocity": 13,
      "track": 0
    },
    {
      "pitch": 67,
      "start_beat": 122.75,
      "duration_beat": 0.125,
      "velocity": 13,
      "track": 0
    },
    {
      "pitch": 70,
      "start_beat": 122.75,
      "duration_beat": 0.125,
      "velocity": 13,
      "track": 0
    },
    {
      "pitch": 73,
      "start_beat": 122.75,
      "duration_beat": 0.125,
      "velocity": 13,
      "track": 0
    },
    {
      "pitch": 57,
      "start_beat": 122.75,
      "duration_beat": 0.11770833333333286,
      "velocity": 33,
      "track": 1
    },
    {
      "pitch": 45,
      "start_beat": 122.75,
      "duration_beat": 0.23541666666666572,
      "velocity": 33,
      "track": 1
    },
    {
      "pitch": 45,
      "start_beat": 122.75,
      "duration_beat": 0.23541666666666572,
      "velocity": 43,
      "track": 1
    },
    {
      "pitch": 49,
      "start_beat": 122.75,
      "duration_beat": 0.23541666666666572,
      "velocity": 43,
      "track": 1
    },
    {
      "pitch": 52,
      "start_beat": 122.75,
      "duration_beat": 0.23541666666666572,
      "velocity": 43,
      "track": 1
    },
    {
      "pitch": 45,
      "start_beat": 122.75,
      "duration_beat": 0.11770833333333286,
      "velocity": 33,
      "track": 1
    },
    {
      "pitch": 45,
      "start_beat": 122.75,
      "duration_beat": 0.125,
      "velocity": 13,
      "track": 1
    },
    {
      "pitch": 52,
      "start_beat": 122.875,
      "duration_beat": 0.11770833333333286,
      "velocity": 33,
      "track": 1
    },
    {
      "pitch": 64,
      "start_beat": 123.0,
      "duration_beat": 0.125,
      "velocity": 13,
      "track": 0
    },
    {
      "pitch": 67,
      "start_beat": 123.0,
      "duration_beat": 0.125,
      "velocity": 13,
      "track": 0
    },
    {
      "pitch": 70,
      "start_beat": 123.0,
      "duration_beat": 0.125,
      "velocity": 13,
      "track": 0
    },
    {
      "pitch": 73,
      "start_beat": 123.0,
      "duration_beat": 0.125,
      "velocity": 13,
      "track": 0
    },
    {
      "pitch": 57,
      "start_beat": 123.0,
      "duration_beat": 0.11770833333333286,
      "velocity": 33,
      "track": 1
    },
    {
      "pitch": 45,
      "start_beat": 123.0,
      "duration_beat": 0.23541666666666572,
      "velocity": 33,
      "track": 1
    },
    {
      "pitch": 45,
      "start_beat": 123.0,
      "duration_beat": 0.23541666666666572,
      "velocity": 43,
      "track": 1
    },
    {
      "pitch": 49,
      "start_beat": 123.0,
      "duration_beat": 0.23541666666666572,
      "velocity": 43,
      "track": 1
    },
    {
      "pitch": 52,
      "start_beat": 123.0,
      "duration_beat": 0.23541666666666572,
      "velocity": 43,
      "track": 1
    },
    {
      "pitch": 45,
      "start_beat": 123.0,
      "duration_beat": 0.11770833333333286,
      "velocity": 33,
      "track": 1
    },
    {
      "pitch": 45,
      "start_beat": 123.0,
      "duration_beat": 0.125,
      "velocity": 13,
      "track": 1
    },
    {
      "pitch": 52,
      "start_beat": 123.125,
      "duration_beat": 0.11770833333333286,
      "velocity": 33,
      "track": 1
    },
    {
      "pitch": 64,
      "start_beat": 123.25,
      "duration_beat": 0.125,
      "velocity": 13,
      "track": 0
    },
    {
      "pitch": 67,
      "start_beat": 123.25,
      "duration_beat": 0.125,
      "velocity": 13,
      "track": 0
    },
    {
      "pitch": 70,
      "start_beat": 123.25,
      "duration_beat": 0.125,
      "velocity": 13,
      "track": 0
    },
    {
      "pitch": 73,
      "start_beat": 123.25,
      "duration_beat": 0.125,
      "velocity": 13,
      "track": 0
    },
    {
      "pitch": 57,
      "start_beat": 123.25,
      "duration_beat": 0.11770833333333286,
      "velocity": 33,
      "track": 1
    },
    {
      "pitch": 45,
      "start_beat": 123.25,
      "duration_beat": 0.23541666666666572,
      "velocity": 33,
      "track": 1
    },
    {
      "pitch": 45,
      "start_beat": 123.25,
      "duration_beat": 0.23541666666666572,
      "velocity": 43,
      "track": 1
    },
    {
      "pitch": 49,
      "start_beat": 123.25,
      "duration_beat": 0.23541666666666572,
      "velocity": 43,
      "track": 1
    },
    {
      "pitch": 52,
      "start_beat": 123.25,
      "duration_beat": 0.23541666666666572,
      "velocity": 43,
      "track": 1
    },
    {
      "pitch": 45,
      "start_beat": 123.25,
      "duration_beat": 0.11770833333333286,
      "velocity": 33,
      "track": 1
    },
    {
      "pitch": 45,
      "start_beat": 123.25,
      "duration_beat": 0.125,
      "velocity": 13,
      "track": 1
    },
    {
      "pitch": 52,
      "start_beat": 123.375,
      "duration_beat": 0.11770833333333286,
      "velocity": 33,
      "track": 1
    },
    {
      "pitch": 57,
      "start_beat": 123.5,
      "duration_beat": 0.11770833333333286,
      "velocity": 33,
      "track": 1
    },
    {
      "pitch": 65,
      "start_beat": 123.5,
      "duration_beat": 0.9479166666666714,
      "velocity": 33,
      "track": 0
    },
    {
      "pitch": 65,
      "start_beat": 123.5,
      "duration_beat": 0.9479166666666714,
      "velocity": 43,
      "track": 0
    },
    {
      "pitch": 69,
      "start_beat": 123.5,
      "duration_beat": 0.9479166666666714,
      "velocity": 43,
      "track": 0
    },
    {
      "pitch": 72,
      "start_beat": 123.5,
      "duration_beat": 0.9479166666666714,
      "velocity": 43,
      "track": 0
    },
    {
      "pitch": 65,
      "start_beat": 123.5,
      "duration_beat": 0.4739583333333357,
      "velocity": 33,
      "track": 0
    },
    {
      "pitch": 65,
      "start_beat": 123.5,
      "duration_beat": 0.125,
      "velocity": 13,
      "track": 0
    },
    {
      "pitch": 69,
      "start_beat": 123.5,
      "duration_beat": 0.9479166666666714,
      "velocity": 33,
      "track": 0
    },
    {
      "pitch": 69,
      "start_beat": 123.5,
      "duration_beat": 0.9479166666666714,
      "velocity": 43,
      "track": 0
    },
    {
      "pitch": 73,
      "start_beat": 123.5,
      "duration_beat": 0.9479166666666714,
      "velocity": 43,
      "track": 0
    },
    {
      "pitch": 76,
      "start_beat": 123.5,
      "duration_beat": 0.9479166666666714,
      "velocity": 43,
      "track": 0
    },
    {
      "pitch": 69,
      "start_beat": 123.5,
      "duration_beat": 0.4739583333333357,
      "velocity": 33,
      "track": 0
    },
    {
      "pitch": 69,
      "start_beat": 123.5,
      "duration_beat": 0.125,
      "velocity": 13,
      "track": 0
    },
    {
      "pitch": 74,
      "start_beat": 123.5,
      "duration_beat": 0.9479166666666714,
      "velocity": 33,
      "track": 0
    },
    {
      "pitch": 74,
      "start_beat": 123.5,
      "duration_beat": 0.9479166666666714,
      "velocity": 43,
      "track": 0
    },
    {
      "pitch": 78,
      "start_beat": 123.5,
      "duration_beat": 0.9479166666666714,
      "velocity": 43,
      "track": 0
    },
    {
      "pitch": 81,
      "start_beat": 123.5,
      "duration_beat": 0.9479166666666714,
      "velocity": 43,
      "track": 0
    },
    {
      "pitch": 74,
      "start_beat": 123.5,
      "duration_beat": 0.4739583333333357,
      "velocity": 33,
      "track": 0
    },
    {
      "pitch": 74,
      "start_beat": 123.5,
      "duration_beat": 0.125,
      "velocity": 13,
      "track": 0
    },
    {
      "pitch": 45,
      "start_beat": 123.5,
      "duration_beat": 0.23541666666666572,
      "velocity": 33,
      "track": 1
    },
    {
      "pitch": 45,
      "start_beat": 123.5,
      "duration_beat": 0.23541666666666572,
      "velocity": 43,
      "track": 1
    },
    {
      "pitch": 49,
      "start_beat": 123.5,
      "duration_beat": 0.23541666666666572,
      "velocity": 43,
      "track": 1
    },
    {
      "pitch": 52,
      "start_beat": 123.5,
      "duration_beat": 0.23541666666666572,
      "velocity": 43,
      "track": 1
    },
    {
      "pitch": 45,
      "start_beat": 123.5,
      "duration_beat": 0.11770833333333286,
      "velocity": 33,
      "track": 1
    },
    {
      "pitch": 45,
      "start_beat": 123.5,
      "duration_beat": 0.125,
      "velocity": 13,
      "track": 1
    },
    {
      "pitch": 72,
      "start_beat": 123.625,
      "duration_beat": 0.4739583333333357,
      "velocity": 33,
      "track": 0
    },
    {
      "pitch": 76,
      "start_beat": 123.625,
      "duration_beat": 0.4739583333333357,
      "velocity": 33,
      "track": 0
    },
    {
      "pitch": 81,
      "start_beat": 123.625,
      "duration_beat": 0.4739583333333357,
      "velocity": 33,
      "track": 0
    },
    {
      "pitch": 52,
      "start_beat": 123.625,
      "duration_beat": 0.11770833333333286,
      "velocity": 33,
      "track": 1
    },
    {
      "pitch": 77,
      "start_beat": 123.75,
      "duration_beat": 0.4739583333333357,
      "velocity": 33,
      "track": 0
    },
    {
      "pitch": 65,
      "start_beat": 123.75,
      "duration_beat": 0.125,
      "velocity": 13,
      "track": 0
    },
    {
      "pitch": 81,
      "start_beat": 123.75,
      "duration_beat": 0.4739583333333357,
      "velocity": 33,
      "track": 0
    },
    {
      "pitch": 69,
      "start_beat": 123.75,
      "duration_beat": 0.125,
      "velocity": 13,
      "track": 0
    },
    {
      "pitch": 86,
      "start_beat": 123.75,
      "duration_beat": 0.4739583333333357,
      "velocity": 33,
      "track": 0
    },
    {
      "pitch": 74,
      "start_beat": 123.75,
      "duration_beat": 0.125,
      "velocity": 13,
      "track": 0
    },
    {
      "pitch": 57,
      "start_beat": 123.75,
      "duration_beat": 0.11770833333333286,
      "velocity": 33,
      "track": 1
    },
    {
      "pitch": 45,
      "start_beat": 123.75,
      "duration_beat": 0.23541666666666572,
      "velocity": 33,
      "track": 1
    },
    {
      "pitch": 45,
      "start_beat": 123.75,
      "duration_beat": 0.23541666666666572,
      "velocity": 43,
      "track": 1
    },
    {
      "pitch": 49,
      "start_beat": 123.75,
      "duration_beat": 0.23541666666666572,
      "velocity": 43,
      "track": 1
    },
    {
      "pitch": 52,
      "start_beat": 123.75,
      "duration_beat": 0.23541666666666572,
      "velocity": 43,
      "track": 1
    },
    {
      "pitch": 45,
      "start_beat": 123.75,
      "duration_beat": 0.11770833333333286,
      "velocity": 33,
      "track": 1
    },
    {
      "pitch": 45,
      "start_beat": 123.75,
      "duration_beat": 0.125,
      "velocity": 13,
      "track": 1
    },
    {
      "pitch": 52,
      "start_beat": 123.875,
      "duration_beat": 0.11770833333333286,
      "velocity": 33,
      "track": 1
    },
    {
      "pitch": 65,
      "start_beat": 124.0,
      "duration_beat": 0.125,
      "velocity": 13,
      "track": 0
    },
    {
      "pitch": 69,
      "start_beat": 124.0,
      "duration_beat": 0.125,
      "velocity": 13,
      "track": 0
    },
    {
      "pitch": 74,
      "start_beat": 124.0,
      "duration_beat": 0.125,
      "velocity": 13,
      "track": 0
    },
    {
      "pitch": 57,
      "start_beat": 124.0,
      "duration_beat": 0.11770833333333286,
      "velocity": 33,
      "track": 1
    },
    {
      "pitch": 45,
      "start_beat": 124.0,
      "duration_beat": 0.23541666666666572,
      "velocity": 33,
      "track": 1
    },
    {
      "pitch": 45,
      "start_beat": 124.0,
      "duration_beat": 0.23541666666666572,
      "velocity": 43,
      "track": 1
    },
    {
      "pitch": 49,
      "start_beat": 124.0,
      "duration_beat": 0.23541666666666572,
      "velocity": 43,
      "track": 1
    },
    {
      "pitch": 52,
      "start_beat": 124.0,
      "duration_beat": 0.23541666666666572,
      "velocity": 43,
      "track": 1
    },
    {
      "pitch": 45,
      "start_beat": 124.0,
      "duration_beat": 0.11770833333333286,
      "velocity": 33,
      "track": 1
    },
    {
      "pitch": 45,
      "start_beat": 124.0,
      "duration_beat": 0.125,
      "velocity": 13,
      "track": 1
    },
    {
      "pitch": 52,
      "start_beat": 124.125,
      "duration_beat": 0.11770833333333286,
      "velocity": 33,
      "track": 1
    },
    {
      "pitch": 65,
      "start_beat": 124.25,
      "duration_beat": 0.125,
      "velocity": 13,
      "track": 0
    },
    {
      "pitch": 69,
      "start_beat": 124.25,
      "duration_beat": 0.125,
      "velocity": 13,
      "track": 0
    },
    {
      "pitch": 74,
      "start_beat": 124.25,
      "duration_beat": 0.125,
      "velocity": 13,
      "track": 0
    },
    {
      "pitch": 57,
      "start_beat": 124.25,
      "duration_beat": 0.11770833333333286,
      "velocity": 33,
      "track": 1
    },
    {
      "pitch": 45,
      "start_beat": 124.25,
      "duration_beat": 0.23541666666666572,
      "velocity": 33,
      "track": 1
    },
    {
      "pitch": 45,
      "start_beat": 124.25,
      "duration_beat": 0.23541666666666572,
      "velocity": 43,
      "track": 1
    },
    {
      "pitch": 49,
      "start_beat": 124.25,
      "duration_beat": 0.23541666666666572,
      "velocity": 43,
      "track": 1
    },
    {
      "pitch": 52,
      "start_beat": 124.25,
      "duration_beat": 0.23541666666666572,
      "velocity": 43,
      "track": 1
    },
    {
      "pitch": 45,
      "start_beat": 124.25,
      "duration_beat": 0.11770833333333286,
      "velocity": 33,
      "track": 1
    },
    {
      "pitch": 45,
      "start_beat": 124.25,
      "duration_beat": 0.125,
      "velocity": 13,
      "track": 1
    },
    {
      "pitch": 52,
      "start_beat": 124.375,
      "duration_beat": 0.11770833333333286,
      "velocity": 33,
      "track": 1
    },
    {
      "pitch": 57,
      "start_beat": 124.5,
      "duration_beat": 0.11770833333333286,
      "velocity": 33,
      "track": 1
    },
    {
      "pitch": 73,
      "start_beat": 124.5,
      "duration_beat": 0.23541666666666572,
      "velocity": 33,
      "track": 0
    },
    {
      "pitch": 73,
      "start_beat": 124.5,
      "duration_beat": 0.23541666666666572,
      "velocity": 43,
      "track": 0
    },
    {
      "pitch": 77,
      "start_beat": 124.5,
      "duration_beat": 0.23541666666666572,
      "velocity": 43,
      "track": 0
    },
    {
      "pitch": 80,
      "start_beat": 124.5,
      "duration_beat": 0.23541666666666572,
      "velocity": 43,
      "track": 0
    },
    {
      "pitch": 73,
      "start_beat": 124.5,
      "duration_beat": 0.11770833333333286,
      "velocity": 33,
      "track": 0
    },
    {
      "pitch": 73,
      "start_beat": 124.5,
      "duration_beat": 0.125,
      "velocity": 13,
      "track": 0
    },
    {
      "pitch": 76,
      "start_beat": 124.5,
      "duration_beat": 0.23541666666666572,
      "velocity": 33,
      "track": 0
    },
    {
      "pitch": 76,
      "start_beat": 124.5,
      "duration_beat": 0.23541666666666572,
      "velocity": 43,
      "track": 0
    },
    {
      "pitch": 80,
      "start_beat": 124.5,
      "duration_beat": 0.23541666666666572,
      "velocity": 43,
      "track": 0
    },
    {
      "pitch": 83,
      "start_beat": 124.5,
      "duration_beat": 0.23541666666666572,
      "velocity": 43,
      "track": 0
    },
    {
      "pitch": 76,
      "start_beat": 124.5,
      "duration_beat": 0.11770833333333286,
      "velocity": 33,
      "track": 0
    },
    {
      "pitch": 76,
      "start_beat": 124.5,
      "duration_beat": 0.125,
      "velocity": 13,
      "track": 0
    },
    {
      "pitch": 45,
      "start_beat": 124.5,
      "duration_beat": 0.23541666666666572,
      "velocity": 33,
      "track": 1
    },
    {
      "pitch": 45,
      "start_beat": 124.5,
      "duration_beat": 0.23541666666666572,
      "velocity": 43,
      "track": 1
    },
    {
      "pitch": 49,
      "start_beat": 124.5,
      "duration_beat": 0.23541666666666572,
      "velocity": 43,
      "track": 1
    },
    {
      "pitch": 52,
      "start_beat": 124.5,
      "duration_beat": 0.23541666666666572,
      "velocity": 43,
      "track": 1
    },
    {
      "pitch": 45,
      "start_beat": 124.5,
      "duration_beat": 0.11770833333333286,
      "velocity": 33,
      "track": 1
    },
    {
      "pitch": 45,
      "start_beat": 124.5,
      "duration_beat": 0.125,
      "velocity": 13,
      "track": 1
    },
    {
      "pitch": 80,
      "start_beat": 124.625,
      "duration_beat": 0.11770833333333286,
      "velocity": 33,
      "track": 0
    },
    {
      "pitch": 83,
      "start_beat": 124.625,
      "duration_beat": 0.11770833333333286,
      "velocity": 33,
      "track": 0
    },
    {
      "pitch": 52,
      "start_beat": 124.625,
      "duration_beat": 0.11770833333333286,
      "velocity": 33,
      "track": 1
    },
    {
      "pitch": 85,
      "start_beat": 124.75,
      "duration_beat": 0.11770833333333286,
      "velocity": 33,
      "track": 0
    },
    {
      "pitch": 88,
      "start_beat": 124.75,
      "duration_beat": 0.11770833333333286,
      "velocity": 33,
      "track": 0
    },
    {
      "pitch": 57,
      "start_beat": 124.75,
      "duration_beat": 0.11770833333333286,
      "velocity": 33,
      "track": 1
    },
    {
      "pitch": 74,
      "start_beat": 124.75,
      "duration_beat": 0.23541666666666572,
      "velocity": 33,
      "track": 0
    },
    {
      "pitch": 74,
      "start_beat": 124.75,
      "duration_beat": 0.23541666666666572,
      "velocity": 43,
      "track": 0
    },
    {
      "pitch": 78,
      "start_beat": 124.75,
      "duration_beat": 0.23541666666666572,
      "velocity": 43,
      "track": 0
    },
    {
      "pitch": 81,
      "start_beat": 124.75,
      "duration_beat": 0.23541666666666572,
      "velocity": 43,
      "track": 0
    },
    {
      "pitch": 74,
      "start_beat": 124.75,
      "duration_beat": 0.11770833333333286,
      "velocity": 33,
      "track": 0
    },
    {
      "pitch": 74,
      "start_beat": 124.75,
      "duration_beat": 0.125,
      "velocity": 13,
      "track": 0
    },
    {
      "pitch": 77,
      "start_beat": 124.75,
      "duration_beat": 0.23541666666666572,
      "velocity": 33,
      "track": 0
    },
    {
      "pitch": 77,
      "start_beat": 124.75,
      "duration_beat": 0.23541666666666572,
      "velocity": 43,
      "track": 0
    },
    {
      "pitch": 81,
      "start_beat": 124.75,
      "duration_beat": 0.23541666666666572,
      "velocity": 43,
      "track": 0
    },
    {
      "pitch": 84,
      "start_beat": 124.75,
      "duration_beat": 0.23541666666666572,
      "velocity": 43,
      "track": 0
    },
    {
      "pitch": 77,
      "start_beat": 124.75,
      "duration_beat": 0.11770833333333286,
      "velocity": 33,
      "track": 0
    },
    {
      "pitch": 77,
      "start_beat": 124.75,
      "duration_beat": 0.125,
      "velocity": 13,
      "track": 0
    },
    {
      "pitch": 45,
      "start_beat": 124.75,
      "duration_beat": 0.23541666666666572,
      "velocity": 33,
      "track": 1
    },
    {
      "pitch": 45,
      "start_beat": 124.75,
      "duration_beat": 0.23541666666666572,
      "velocity": 43,
      "track": 1
    },
    {
      "pitch": 49,
      "start_beat": 124.75,
      "duration_beat": 0.23541666666666572,
      "velocity": 43,
      "track": 1
    },
    {
      "pitch": 52,
      "start_beat": 124.75,
      "duration_beat": 0.23541666666666572,
      "velocity": 43,
      "track": 1
    },
    {
      "pitch": 45,
      "start_beat": 124.75,
      "duration_beat": 0.11770833333333286,
      "velocity": 33,
      "track": 1
    },
    {
      "pitch": 45,
      "start_beat": 124.75,
      "duration_beat": 0.125,
      "velocity": 13,
      "track": 1
    },
    {
      "pitch": 81,
      "start_beat": 124.875,
      "duration_beat": 0.11770833333333286,
      "velocity": 33,
      "track": 0
    },
    {
      "pitch": 84,
      "start_beat": 124.875,
      "duration_beat": 0.11770833333333286,
      "velocity": 33,
      "track": 0
    },
    {
      "pitch": 52,
      "start_beat": 124.875,
      "duration_beat": 0.11770833333333286,
      "velocity": 33,
      "track": 1
    },
    {
      "pitch": 86,
      "start_beat": 125.0,
      "duration_beat": 0.11770833333333286,
      "velocity": 33,
      "track": 0
    },
    {
      "pitch": 89,
      "start_beat": 125.0,
      "duration_beat": 0.11770833333333286,
      "velocity": 33,
      "track": 0
    },
    {
      "pitch": 57,
      "start_beat": 125.0,
      "duration_beat": 0.11770833333333286,
      "velocity": 33,
      "track": 1
    },
    {
      "pitch": 68,
      "start_beat": 125.0,
      "duration_beat": 0.9479166666666714,
      "velocity": 33,
      "track": 0
    },
    {
      "pitch": 68,
      "start_beat": 125.0,
      "duration_beat": 0.9479166666666714,
      "velocity": 43,
      "track": 0
    },
    {
      "pitch": 72,
      "start_beat": 125.0,
      "duration_beat": 0.9479166666666714,
      "velocity": 43,
      "track": 0
    },
    {
      "pitch": 75,
      "start_beat": 125.0,
      "duration_beat": 0.9479166666666714,
      "velocity": 43,
      "track": 0
    },
    {
      "pitch": 68,
      "start_beat": 125.0,
      "duration_beat": 0.4739583333333357,
      "velocity": 33,
      "track": 0
    },
    {
      "pitch": 68,
      "start_beat": 125.0,
      "duration_beat": 0.125,
      "velocity": 13,
      "track": 0
    },
    {
      "pitch": 74,
      "start_beat": 125.0,
      "duration_beat": 0.9479166666666714,
      "velocity": 33,
      "track": 0
    },
    {
      "pitch": 74,
      "start_beat": 125.0,
      "duration_beat": 0.9479166666666714,
      "velocity": 43,
      "track": 0
    },
    {
      "pitch": 78,
      "start_beat": 125.0,
      "duration_beat": 0.9479166666666714,
      "velocity": 43,
      "track": 0
    },
    {
      "pitch": 81,
      "start_beat": 125.0,
      "duration_beat": 0.9479166666666714,
      "velocity": 43,
      "track": 0
    },
    {
      "pitch": 74,
      "start_beat": 125.0,
      "duration_beat": 0.4739583333333357,
      "velocity": 33,
      "track": 0
    },
    {
      "pitch": 74,
      "start_beat": 125.0,
      "duration_beat": 0.125,
      "velocity": 13,
      "track": 0
    },
    {
      "pitch": 77,
      "start_beat": 125.0,
      "duration_beat": 0.9479166666666714,
      "velocity": 33,
      "track": 0
    },
    {
      "pitch": 77,
      "start_beat": 125.0,
      "duration_beat": 0.9479166666666714,
      "velocity": 43,
      "track": 0
    },
    {
      "pitch": 81,
      "start_beat": 125.0,
      "duration_beat": 0.9479166666666714,
      "velocity": 43,
      "track": 0
    },
    {
      "pitch": 84,
      "start_beat": 125.0,
      "duration_beat": 0.9479166666666714,
      "velocity": 43,
      "track": 0
    },
    {
      "pitch": 77,
      "start_beat": 125.0,
      "duration_beat": 0.4739583333333357,
      "velocity": 33,
      "track": 0
    },
    {
      "pitch": 77,
      "start_beat": 125.0,
      "duration_beat": 0.125,
      "velocity": 13,
      "track": 0
    },
    {
      "pitch": 45,
      "start_beat": 125.0,
      "duration_beat": 0.23541666666666572,
      "velocity": 33,
      "track": 1
    },
    {
      "pitch": 45,
      "start_beat": 125.0,
      "duration_beat": 0.23541666666666572,
      "velocity": 43,
      "track": 1
    },
    {
      "pitch": 49,
      "start_beat": 125.0,
      "duration_beat": 0.23541666666666572,
      "velocity": 43,
      "track": 1
    },
    {
      "pitch": 52,
      "start_beat": 125.0,
      "duration_beat": 0.23541666666666572,
      "velocity": 43,
      "track": 1
    },
    {
      "pitch": 45,
      "start_beat": 125.0,
      "duration_beat": 0.11770833333333286,
      "velocity": 33,
      "track": 1
    },
    {
      "pitch": 45,
      "start_beat": 125.0,
      "duration_beat": 0.125,
      "velocity": 13,
      "track": 1
    },
    {
      "pitch": 75,
      "start_beat": 125.125,
      "duration_beat": 0.4739583333333357,
      "velocity": 33,
      "track": 0
    },
    {
      "pitch": 81,
      "start_beat": 125.125,
      "duration_beat": 0.4739583333333357,
      "velocity": 33,
      "track": 0
    },
    {
      "pitch": 84,
      "start_beat": 125.125,
      "duration_beat": 0.4739583333333357,
      "velocity": 33,
      "track": 0
    },
    {
      "pitch": 52,
      "start_beat": 125.125,
      "duration_beat": 0.11770833333333286,
      "velocity": 33,
      "track": 1
    },
    {
      "pitch": 80,
      "start_beat": 125.25,
      "duration_beat": 0.4739583333333357,
      "velocity": 33,
      "track": 0
    },
    {
      "pitch": 68,
      "start_beat": 125.25,
      "duration_beat": 0.125,
      "velocity": 13,
      "track": 0
    },
    {
      "pitch": 86,
      "start_beat": 125.25,
      "duration_beat": 0.4739583333333357,
      "velocity": 33,
      "track": 0
    },
    {
      "pitch": 74,
      "start_beat": 125.25,
      "duration_beat": 0.125,
      "velocity": 13,
      "track": 0
    },
    {
      "pitch": 89,
      "start_beat": 125.25,
      "duration_beat": 0.4739583333333357,
      "velocity": 33,
      "track": 0
    },
    {
      "pitch": 77,
      "start_beat": 125.25,
      "duration_beat": 0.125,
      "velocity": 13,
      "track": 0
    },
    {
      "pitch": 57,
      "start_beat": 125.25,
      "duration_beat": 0.11770833333333286,
      "velocity": 33,
      "track": 1
    },
    {
      "pitch": 45,
      "start_beat": 125.25,
      "duration_beat": 0.23541666666666572,
      "velocity": 33,
      "track": 1
    },
    {
      "pitch": 45,
      "start_beat": 125.25,
      "duration_beat": 0.23541666666666572,
      "velocity": 43,
      "track": 1
    },
    {
      "pitch": 49,
      "start_beat": 125.25,
      "duration_beat": 0.23541666666666572,
      "velocity": 43,
      "track": 1
    },
    {
      "pitch": 52,
      "start_beat": 125.25,
      "duration_beat": 0.23541666666666572,
      "velocity": 43,
      "track": 1
    },
    {
      "pitch": 45,
      "start_beat": 125.25,
      "duration_beat": 0.11770833333333286,
      "velocity": 33,
      "track": 1
    },
    {
      "pitch": 45,
      "start_beat": 125.25,
      "duration_beat": 0.125,
      "velocity": 13,
      "track": 1
    },
    {
      "pitch": 52,
      "start_beat": 125.375,
      "duration_beat": 0.11770833333333286,
      "velocity": 33,
      "track": 1
    },
    {
      "pitch": 68,
      "start_beat": 125.5,
      "duration_beat": 0.125,
      "velocity": 13,
      "track": 0
    },
    {
      "pitch": 74,
      "start_beat": 125.5,
      "duration_beat": 0.125,
      "velocity": 13,
      "track": 0
    },
    {
      "pitch": 77,
      "start_beat": 125.5,
      "duration_beat": 0.125,
      "velocity": 13,
      "track": 0
    },
    {
      "pitch": 57,
      "start_beat": 125.5,
      "duration_beat": 0.11770833333333286,
      "velocity": 33,
      "track": 1
    },
    {
      "pitch": 45,
      "start_beat": 125.5,
      "duration_beat": 0.23541666666666572,
      "velocity": 33,
      "track": 1
    },
    {
      "pitch": 45,
      "start_beat": 125.5,
      "duration_beat": 0.23541666666666572,
      "velocity": 43,
      "track": 1
    },
    {
      "pitch": 49,
      "start_beat": 125.5,
      "duration_beat": 0.23541666666666572,
      "velocity": 43,
      "track": 1
    },
    {
      "pitch": 52,
      "start_beat": 125.5,
      "duration_beat": 0.23541666666666572,
      "velocity": 43,
      "track": 1
    },
    {
      "pitch": 45,
      "start_beat": 125.5,
      "duration_beat": 0.11770833333333286,
      "velocity": 33,
      "track": 1
    },
    {
      "pitch": 45,
      "start_beat": 125.5,
      "duration_beat": 0.125,
      "velocity": 13,
      "track": 1
    },
    {
      "pitch": 52,
      "start_beat": 125.625,
      "duration_beat": 0.11770833333333286,
      "velocity": 33,
      "track": 1
    },
    {
      "pitch": 68,
      "start_beat": 125.75,
      "duration_beat": 0.125,
      "velocity": 13,
      "track": 0
    },
    {
      "pitch": 74,
      "start_beat": 125.75,
      "duration_beat": 0.125,
      "velocity": 13,
      "track": 0
    },
    {
      "pitch": 77,
      "start_beat": 125.75,
      "duration_beat": 0.125,
      "velocity": 13,
      "track": 0
    },
    {
      "pitch": 57,
      "start_beat": 125.75,
      "duration_beat": 0.11770833333333286,
      "velocity": 33,
      "track": 1
    },
    {
      "pitch": 45,
      "start_beat": 125.75,
      "duration_beat": 0.23541666666666572,
      "velocity": 33,
      "track": 1
    },
    {
      "pitch": 45,
      "start_beat": 125.75,
      "duration_beat": 0.23541666666666572,
      "velocity": 43,
      "track": 1
    },
    {
      "pitch": 49,
      "start_beat": 125.75,
      "duration_beat": 0.23541666666666572,
      "velocity": 43,
      "track": 1
    },
    {
      "pitch": 52,
      "start_beat": 125.75,
      "duration_beat": 0.23541666666666572,
      "velocity": 43,
      "track": 1
    },
    {
      "pitch": 45,
      "start_beat": 125.75,
      "duration_beat": 0.11770833333333286,
      "velocity": 33,
      "track": 1
    },
    {
      "pitch": 45,
      "start_beat": 125.75,
      "duration_beat": 0.125,
      "velocity": 13,
      "track": 1
    },
    {
      "pitch": 52,
      "start_beat": 125.875,
      "duration_beat": 0.11770833333333286,
      "velocity": 33,
      "track": 1
    },
    {
      "pitch": 57,
      "start_beat": 126.0,
      "duration_beat": 0.11770833333333286,
      "velocity": 33,
      "track": 1
    },
    {
      "pitch": 68,
      "start_beat": 126.0,
      "duration_beat": 0.4729166666666629,
      "velocity": 33,
      "track": 0
    },
    {
      "pitch": 68,
      "start_beat": 126.0,
      "duration_beat": 0.4729166666666629,
      "velocity": 43,
      "track": 0
    },
    {
      "pitch": 72,
      "start_beat": 126.0,
      "duration_beat": 0.4729166666666629,
      "velocity": 43,
      "track": 0
    },
    {
      "pitch": 75,
      "start_beat": 126.0,
      "duration_beat": 0.4729166666666629,
      "velocity": 43,
      "track": 0
    },
    {
      "pitch": 68,
      "start_beat": 126.0,
      "duration_beat": 0.23645833333333144,
      "velocity": 33,
      "track": 0
    },
    {
      "pitch": 68,
      "start_beat": 126.0,
      "duration_beat": 0.125,
      "velocity": 13,
      "track": 0
    },
    {
      "pitch": 74,
      "start_beat": 126.0,
      "duration_beat": 0.4729166666666629,
      "velocity": 33,
      "track": 0
    },
    {
      "pitch": 74,
      "start_beat": 126.0,
      "duration_beat": 0.4729166666666629,
      "velocity": 43,
      "track": 0
    },
    {
      "pitch": 78,
      "start_beat": 126.0,
      "duration_beat": 0.4729166666666629,
      "velocity": 43,
      "track": 0
    },
    {
      "pitch": 81,
      "start_beat": 126.0,
      "duration_beat": 0.4729166666666629,
      "velocity": 43,
      "track": 0
    },
    {
      "pitch": 74,
      "start_beat": 126.0,
      "duration_beat": 0.23645833333333144,
      "velocity": 33,
      "track": 0
    },
    {
      "pitch": 74,
      "start_beat": 126.0,
      "duration_beat": 0.125,
      "velocity": 13,
      "track": 0
    },
    {
      "pitch": 77,
      "start_beat": 126.0,
      "duration_beat": 0.4729166666666629,
      "velocity": 33,
      "track": 0
    },
    {
      "pitch": 77,
      "start_beat": 126.0,
      "duration_beat": 0.4729166666666629,
      "velocity": 43,
      "track": 0
    },
    {
      "pitch": 81,
      "start_beat": 126.0,
      "duration_beat": 0.4729166666666629,
      "velocity": 43,
      "track": 0
    },
    {
      "pitch": 84,
      "start_beat": 126.0,
      "duration_beat": 0.4729166666666629,
      "velocity": 43,
      "track": 0
    },
    {
      "pitch": 77,
      "start_beat": 126.0,
      "duration_beat": 0.23645833333333144,
      "velocity": 33,
      "track": 0
    },
    {
      "pitch": 77,
      "start_beat": 126.0,
      "duration_beat": 0.125,
      "velocity": 13,
      "track": 0
    },
    {
      "pitch": 45,
      "start_beat": 126.0,
      "duration_beat": 0.23541666666666572,
      "velocity": 33,
      "track": 1
    },
    {
      "pitch": 45,
      "start_beat": 126.0,
      "duration_beat": 0.23541666666666572,
      "velocity": 43,
      "track": 1
    },
    {
      "pitch": 49,
      "start_beat": 126.0,
      "duration_beat": 0.23541666666666572,
      "velocity": 43,
      "track": 1
    },
    {
      "pitch": 52,
      "start_beat": 126.0,
      "duration_beat": 0.23541666666666572,
      "velocity": 43,
      "track": 1
    },
    {
      "pitch": 45,
      "start_beat": 126.0,
      "duration_beat": 0.11770833333333286,
      "velocity": 33,
      "track": 1
    },
    {
      "pitch": 45,
      "start_beat": 126.0,
      "duration_beat": 0.125,
      "velocity": 13,
      "track": 1
    },
    {
      "pitch": 75,
      "start_beat": 126.125,
      "duration_beat": 0.23645833333333144,
      "velocity": 33,
      "track": 0
    },
    {
      "pitch": 81,
      "start_beat": 126.125,
      "duration_beat": 0.23645833333333144,
      "velocity": 33,
      "track": 0
    },
    {
      "pitch": 84,
      "start_beat": 126.125,
      "duration_beat": 0.23645833333333144,
      "velocity": 33,
      "track": 0
    },
    {
      "pitch": 52,
      "start_beat": 126.125,
      "duration_beat": 0.11770833333333286,
      "velocity": 33,
      "track": 1
    },
    {
      "pitch": 80,
      "start_beat": 126.25,
      "duration_beat": 0.23645833333333144,
      "velocity": 33,
      "track": 0
    },
    {
      "pitch": 68,
      "start_beat": 126.25,
      "duration_beat": 0.125,
      "velocity": 13,
      "track": 0
    },
    {
      "pitch": 86,
      "start_beat": 126.25,
      "duration_beat": 0.23645833333333144,
      "velocity": 33,
      "track": 0
    },
    {
      "pitch": 74,
      "start_beat": 126.25,
      "duration_beat": 0.125,
      "velocity": 13,
      "track": 0
    },
    {
      "pitch": 89,
      "start_beat": 126.25,
      "duration_beat": 0.23645833333333144,
      "velocity": 33,
      "track": 0
    },
    {
      "pitch": 77,
      "start_beat": 126.25,
      "duration_beat": 0.125,
      "velocity": 13,
      "track": 0
    },
    {
      "pitch": 57,
      "start_beat": 126.25,
      "duration_beat": 0.11770833333333286,
      "velocity": 33,
      "track": 1
    },
    {
      "pitch": 45,
      "start_beat": 126.25,
      "duration_beat": 0.23541666666666572,
      "velocity": 33,
      "track": 1
    },
    {
      "pitch": 45,
      "start_beat": 126.25,
      "duration_beat": 0.23541666666666572,
      "velocity": 43,
      "track": 1
    },
    {
      "pitch": 49,
      "start_beat": 126.25,
      "duration_beat": 0.23541666666666572,
      "velocity": 43,
      "track": 1
    },
    {
      "pitch": 52,
      "start_beat": 126.25,
      "duration_beat": 0.23541666666666572,
      "velocity": 43,
      "track": 1
    },
    {
      "pitch": 45,
      "start_beat": 126.25,
      "duration_beat": 0.11770833333333286,
      "velocity": 33,
      "track": 1
    },
    {
      "pitch": 45,
      "start_beat": 126.25,
      "duration_beat": 0.125,
      "velocity": 13,
      "track": 1
    },
    {
      "pitch": 52,
      "start_beat": 126.375,
      "duration_beat": 0.11770833333333286,
      "velocity": 33,
      "track": 1
    },
    {
      "pitch": 57,
      "start_beat": 126.5,
      "duration_beat": 0.11770833333333286,
      "velocity": 33,
      "track": 1
    },
    {
      "pitch": 69,
      "start_beat": 126.5,
      "duration_beat": 1.4229166666666657,
      "velocity": 33,
      "track": 0
    },
    {
      "pitch": 69,
      "start_beat": 126.5,
      "duration_beat": 1.4229166666666657,
      "velocity": 43,
      "track": 0
    },
    {
      "pitch": 73,
      "start_beat": 126.5,
      "duration_beat": 1.4229166666666657,
      "velocity": 43,
      "track": 0
    },
    {
      "pitch": 76,
      "start_beat": 126.5,
      "duration_beat": 1.4229166666666657,
      "velocity": 43,
      "track": 0
    },
    {
      "pitch": 69,
      "start_beat": 126.5,
      "duration_beat": 0.7114583333333329,
      "velocity": 33,
      "track": 0
    },
    {
      "pitch": 69,
      "start_beat": 126.5,
      "duration_beat": 0.125,
      "velocity": 13,
      "track": 0
    },
    {
      "pitch": 72,
      "start_beat": 126.5,
      "duration_beat": 1.4229166666666657,
      "velocity": 33,
      "track": 0
    },
    {
      "pitch": 72,
      "start_beat": 126.5,
      "duration_beat": 1.4229166666666657,
      "velocity": 43,
      "track": 0
    },
    {
      "pitch": 76,
      "start_beat": 126.5,
      "duration_beat": 1.4229166666666657,
      "velocity": 43,
      "track": 0
    },
    {
      "pitch": 79,
      "start_beat": 126.5,
      "duration_beat": 1.4229166666666657,
      "velocity": 43,
      "track": 0
    },
    {
      "pitch": 72,
      "start_beat": 126.5,
      "duration_beat": 0.7114583333333329,
      "velocity": 33,
      "track": 0
    },
    {
      "pitch": 72,
      "start_beat": 126.5,
      "duration_beat": 0.125,
      "velocity": 13,
      "track": 0
    },
    {
      "pitch": 76,
      "start_beat": 126.5,
      "duration_beat": 1.4229166666666657,
      "velocity": 33,
      "track": 0
    },
    {
      "pitch": 76,
      "start_beat": 126.5,
      "duration_beat": 1.4229166666666657,
      "velocity": 43,
      "track": 0
    },
    {
      "pitch": 80,
      "start_beat": 126.5,
      "duration_beat": 1.4229166666666657,
      "velocity": 43,
      "track": 0
    },
    {
      "pitch": 83,
      "start_beat": 126.5,
      "duration_beat": 1.4229166666666657,
      "velocity": 43,
      "track": 0
    },
    {
      "pitch": 76,
      "start_beat": 126.5,
      "duration_beat": 0.7114583333333329,
      "velocity": 33,
      "track": 0
    },
    {
      "pitch": 76,
      "start_beat": 126.5,
      "duration_beat": 0.125,
      "velocity": 13,
      "track": 0
    },
    {
      "pitch": 45,
      "start_beat": 126.5,
      "duration_beat": 0.23541666666666572,
      "velocity": 33,
      "track": 1
    },
    {
      "pitch": 45,
      "start_beat": 126.5,
      "duration_beat": 0.23541666666666572,
      "velocity": 43,
      "track": 1
    },
    {
      "pitch": 49,
      "start_beat": 126.5,
      "duration_beat": 0.23541666666666572,
      "velocity": 43,
      "track": 1
    },
    {
      "pitch": 52,
      "start_beat": 126.5,
      "duration_beat": 0.23541666666666572,
      "velocity": 43,
      "track": 1
    },
    {
      "pitch": 45,
      "start_beat": 126.5,
      "duration_beat": 0.11770833333333286,
      "velocity": 33,
      "track": 1
    },
    {
      "pitch": 45,
      "start_beat": 126.5,
      "duration_beat": 0.125,
      "velocity": 13,
      "track": 1
    },
    {
      "pitch": 76,
      "start_beat": 126.625,
      "duration_beat": 0.7114583333333329,
      "velocity": 33,
      "track": 0
    },
    {
      "pitch": 79,
      "start_beat": 126.625,
      "duration_beat": 0.7114583333333329,
      "velocity": 33,
      "track": 0
    },
    {
      "pitch": 83,
      "start_beat": 126.625,
      "duration_beat": 0.7114583333333329,
      "velocity": 33,
      "track": 0
    },
    {
      "pitch": 52,
      "start_beat": 126.625,
      "duration_beat": 0.11770833333333286,
      "velocity": 33,
      "track": 1
    },
    {
      "pitch": 81,
      "start_beat": 126.75,
      "duration_beat": 0.7114583333333329,
      "velocity": 33,
      "track": 0
    },
    {
      "pitch": 69,
      "start_beat": 126.75,
      "duration_beat": 0.125,
      "velocity": 13,
      "track": 0
    },
    {
      "pitch": 84,
      "start_beat": 126.75,
      "duration_beat": 0.7114583333333329,
      "velocity": 33,
      "track": 0
    },
    {
      "pitch": 72,
      "start_beat": 126.75,
      "duration_beat": 0.125,
      "velocity": 13,
      "track": 0
    },
    {
      "pitch": 88,
      "start_beat": 126.75,
      "duration_beat": 0.7114583333333329,
      "velocity": 33,
      "track": 0
    },
    {
      "pitch": 76,
      "start_beat": 126.75,
      "duration_beat": 0.125,
      "velocity": 13,
      "track": 0
    },
    {
      "pitch": 57,
      "start_beat": 126.75,
      "duration_beat": 0.11770833333333286,
      "velocity": 33,
      "track": 1
    },
    {
      "pitch": 45,
      "start_beat": 126.75,
      "duration_beat": 0.23541666666666572,
      "velocity": 33,
      "track": 1
    },
    {
      "pitch": 45,
      "start_beat": 126.75,
      "duration_beat": 0.23541666666666572,
      "velocity": 43,
      "track": 1
    },
    {
      "pitch": 49,
      "start_beat": 126.75,
      "duration_beat": 0.23541666666666572,
      "velocity": 43,
      "track": 1
    },
    {
      "pitch": 52,
      "start_beat": 126.75,
      "duration_beat": 0.23541666666666572,
      "velocity": 43,
      "track": 1
    },
    {
      "pitch": 45,
      "start_beat": 126.75,
      "duration_beat": 0.11770833333333286,
      "velocity": 33,
      "track": 1
    },
    {
      "pitch": 45,
      "start_beat": 126.75,
      "duration_beat": 0.125,
      "velocity": 13,
      "track": 1
    },
    {
      "pitch": 52,
      "start_beat": 126.875,
      "duration_beat": 0.11770833333333286,
      "velocity": 33,
      "track": 1
    },
    {
      "pitch": 69,
      "start_beat": 127.0,
      "duration_beat": 0.125,
      "velocity": 13,
      "track": 0
    },
    {
      "pitch": 72,
      "start_beat": 127.0,
      "duration_beat": 0.125,
      "velocity": 13,
      "track": 0
    },
    {
      "pitch": 76,
      "start_beat": 127.0,
      "duration_beat": 0.125,
      "velocity": 13,
      "track": 0
    },
    {
      "pitch": 57,
      "start_beat": 127.0,
      "duration_beat": 0.11770833333333286,
      "velocity": 33,
      "track": 1
    },
    {
      "pitch": 45,
      "start_beat": 127.0,
      "duration_beat": 0.23541666666666572,
      "velocity": 33,
      "track": 1
    },
    {
      "pitch": 45,
      "start_beat": 127.0,
      "duration_beat": 0.23541666666666572,
      "velocity": 43,
      "track": 1
    },
    {
      "pitch": 49,
      "start_beat": 127.0,
      "duration_beat": 0.23541666666666572,
      "velocity": 43,
      "track": 1
    },
    {
      "pitch": 52,
      "start_beat": 127.0,
      "duration_beat": 0.23541666666666572,
      "velocity": 43,
      "track": 1
    },
    {
      "pitch": 45,
      "start_beat": 127.0,
      "duration_beat": 0.11770833333333286,
      "velocity": 33,
      "track": 1
    },
    {
      "pitch": 45,
      "start_beat": 127.0,
      "duration_beat": 0.125,
      "velocity": 13,
      "track": 1
    },
    {
      "pitch": 52,
      "start_beat": 127.125,
      "duration_beat": 0.11770833333333286,
      "velocity": 33,
      "track": 1
    },
    {
      "pitch": 69,
      "start_beat": 127.25,
      "duration_beat": 0.125,
      "velocity": 13,
      "track": 0
    },
    {
      "pitch": 72,
      "start_beat": 127.25,
      "duration_beat": 0.125,
      "velocity": 13,
      "track": 0
    },
    {
      "pitch": 76,
      "start_beat": 127.25,
      "duration_beat": 0.125,
      "velocity": 13,
      "track": 0
    },
    {
      "pitch": 57,
      "start_beat": 127.25,
      "duration_beat": 0.11770833333333286,
      "velocity": 33,
      "track": 1
    },
    {
      "pitch": 45,
      "start_beat": 127.25,
      "duration_beat": 0.23541666666666572,
      "velocity": 33,
      "track": 1
    },
    {
      "pitch": 45,
      "start_beat": 127.25,
      "duration_beat": 0.23541666666666572,
      "velocity": 43,
      "track": 1
    },
    {
      "pitch": 49,
      "start_beat": 127.25,
      "duration_beat": 0.23541666666666572,
      "velocity": 43,
      "track": 1
    },
    {
      "pitch": 52,
      "start_beat": 127.25,
      "duration_beat": 0.23541666666666572,
      "velocity": 43,
      "track": 1
    },
    {
      "pitch": 45,
      "start_beat": 127.25,
      "duration_beat": 0.11770833333333286,
      "velocity": 33,
      "track": 1
    },
    {
      "pitch": 45,
      "start_beat": 127.25,
      "duration_beat": 0.125,
      "velocity": 13,
      "track": 1
    },
    {
      "pitch": 52,
      "start_beat": 127.375,
      "duration_beat": 0.11770833333333286,
      "velocity": 33,
      "track": 1
    },
    {
      "pitch": 69,
      "start_beat": 127.5,
      "duration_beat": 0.125,
      "velocity": 13,
      "track": 0
    },
    {
      "pitch": 72,
      "start_beat": 127.5,
      "duration_beat": 0.125,
      "velocity": 13,
      "track": 0
    },
    {
      "pitch": 76,
      "start_beat": 127.5,
      "duration_beat": 0.125,
      "velocity": 13,
      "track": 0
    },
    {
      "pitch": 57,
      "start_beat": 127.5,
      "duration_beat": 0.11770833333333286,
      "velocity": 33,
      "track": 1
    },
    {
      "pitch": 45,
      "start_beat": 127.5,
      "duration_beat": 0.23541666666666572,
      "velocity": 33,
      "track": 1
    },
    {
      "pitch": 45,
      "start_beat": 127.5,
      "duration_beat": 0.23541666666666572,
      "velocity": 43,
      "track": 1
    },
    {
      "pitch": 49,
      "start_beat": 127.5,
      "duration_beat": 0.23541666666666572,
      "velocity": 43,
      "track": 1
    },
    {
      "pitch": 52,
      "start_beat": 127.5,
      "duration_beat": 0.23541666666666572,
      "velocity": 43,
      "track": 1
    },
    {
      "pitch": 45,
      "start_beat": 127.5,
      "duration_beat": 0.11770833333333286,
      "velocity": 33,
      "track": 1
    },
    {
      "pitch": 45,
      "start_beat": 127.5,
      "duration_beat": 0.125,
      "velocity": 13,
      "track": 1
    },
    {
      "pitch": 52,
      "start_beat": 127.625,
      "duration_beat": 0.11770833333333286,
      "velocity": 33,
      "track": 1
    },
    {
      "pitch": 69,
      "start_beat": 127.75,
      "duration_beat": 0.125,
      "velocity": 13,
      "track": 0
    },
    {
      "pitch": 72,
      "start_beat": 127.75,
      "duration_beat": 0.125,
      "velocity": 13,
      "track": 0
    },
    {
      "pitch": 76,
      "start_beat": 127.75,
      "duration_beat": 0.125,
      "velocity": 13,
      "track": 0
    },
    {
      "pitch": 57,
      "start_beat": 127.75,
      "duration_beat": 0.11770833333333286,
      "velocity": 33,
      "track": 1
    },
    {
      "pitch": 45,
      "start_beat": 127.75,
      "duration_beat": 0.23541666666666572,
      "velocity": 33,
      "track": 1
    },
    {
      "pitch": 45,
      "start_beat": 127.75,
      "duration_beat": 0.23541666666666572,
      "velocity": 43,
      "track": 1
    },
    {
      "pitch": 49,
      "start_beat": 127.75,
      "duration_beat": 0.23541666666666572,
      "velocity": 43,
      "track": 1
    },
    {
      "pitch": 52,
      "start_beat": 127.75,
      "duration_beat": 0.23541666666666572,
      "velocity": 43,
      "track": 1
    },
    {
      "pitch": 45,
      "start_beat": 127.75,
      "duration_beat": 0.11770833333333286,
      "velocity": 33,
      "track": 1
    },
    {
      "pitch": 45,
      "start_beat": 127.75,
      "duration_beat": 0.125,
      "velocity": 13,
      "track": 1
    },
    {
      "pitch": 52,
      "start_beat": 127.875,
      "duration_beat": 0.11770833333333286,
      "velocity": 33,
      "track": 1
    },
    {
      "pitch": 57,
      "start_beat": 128.0,
      "duration_beat": 0.11770833333333286,
      "velocity": 33,
      "track": 1
    },
    {
      "pitch": 65,
      "start_beat": 128.0,
      "duration_beat": 0.9479166666666572,
      "velocity": 33,
      "track": 0
    },
    {
      "pitch": 65,
      "start_beat": 128.0,
      "duration_beat": 0.9479166666666572,
      "velocity": 43,
      "track": 0
    },
    {
      "pitch": 69,
      "start_beat": 128.0,
      "duration_beat": 0.9479166666666572,
      "velocity": 43,
      "track": 0
    },
    {
      "pitch": 72,
      "start_beat": 128.0,
      "duration_beat": 0.9479166666666572,
      "velocity": 43,
      "track": 0
    },
    {
      "pitch": 65,
      "start_beat": 128.0,
      "duration_beat": 0.4739583333333286,
      "velocity": 33,
      "track": 0
    },
    {
      "pitch": 65,
      "start_beat": 128.0,
      "duration_beat": 0.125,
      "velocity": 13,
      "track": 0
    },
    {
      "pitch": 74,
      "start_beat": 128.0,
      "duration_beat": 0.9479166666666572,
      "velocity": 33,
      "track": 0
    },
    {
      "pitch": 74,
      "start_beat": 128.0,
      "duration_beat": 0.9479166666666572,
      "velocity": 43,
      "track": 0
    },
    {
      "pitch": 78,
      "start_beat": 128.0,
      "duration_beat": 0.9479166666666572,
      "velocity": 43,
      "track": 0
    },
    {
      "pitch": 81,
      "start_beat": 128.0,
      "duration_beat": 0.9479166666666572,
      "velocity": 43,
      "track": 0
    },
    {
      "pitch": 74,
      "start_beat": 128.0,
      "duration_beat": 0.4739583333333286,
      "velocity": 33,
      "track": 0
    },
    {
      "pitch": 74,
      "start_beat": 128.0,
      "duration_beat": 0.125,
      "velocity": 13,
      "track": 0
    },
    {
      "pitch": 38,
      "start_beat": 128.0,
      "duration_beat": 0.23541666666667993,
      "velocity": 33,
      "track": 1
    },
    {
      "pitch": 38,
      "start_beat": 128.0,
      "duration_beat": 0.23541666666667993,
      "velocity": 43,
      "track": 1
    },
    {
      "pitch": 42,
      "start_beat": 128.0,
      "duration_beat": 0.23541666666667993,
      "velocity": 43,
      "track": 1
    },
    {
      "pitch": 45,
      "start_beat": 128.0,
      "duration_beat": 0.23541666666667993,
      "velocity": 43,
      "track": 1
    },
    {
      "pitch": 38,
      "start_beat": 128.0,
      "duration_beat": 0.11770833333333997,
      "velocity": 33,
      "track": 1
    },
    {
      "pitch": 38,
      "start_beat": 128.0,
      "duration_beat": 0.125,
      "velocity": 13,
      "track": 1
    },
    {
      "pitch": 45,
      "start_beat": 128.0,
      "duration_beat": 0.23541666666667993,
      "velocity": 33,
      "track": 1
    },
    {
      "pitch": 45,
      "start_beat": 128.0,
      "duration_beat": 0.23541666666667993,
      "velocity": 43,
      "track": 1
    },
    {
      "pitch": 49,
      "start_beat": 128.0,
      "duration_beat": 0.23541666666667993,
      "velocity": 43,
      "track": 1
    },
    {
      "pitch": 52,
      "start_beat": 128.0,
      "duration_beat": 0.23541666666667993,
      "velocity": 43,
      "track": 1
    },
    {
      "pitch": 45,
      "start_beat": 128.0,
      "duration_beat": 0.11770833333333997,
      "velocity": 33,
      "track": 1
    },
    {
      "pitch": 45,
      "start_beat": 128.0,
      "duration_beat": 0.125,
      "velocity": 13,
      "track": 1
    },
    {
      "pitch": 72,
      "start_beat": 128.125,
      "duration_beat": 0.4739583333333286,
      "velocity": 33,
      "track": 0
    },
    {
      "pitch": 81,
      "start_beat": 128.125,
      "duration_beat": 0.4739583333333286,
      "velocity": 33,
      "track": 0
    },
    {
      "pitch": 45,
      "start_beat": 128.125,
      "duration_beat": 0.11770833333333997,
      "velocity": 33,
      "track": 1
    },
    {
      "pitch": 52,
      "start_beat": 128.125,
      "duration_beat": 0.11770833333333997,
      "velocity": 33,
      "track": 1
    },
    {
      "pitch": 77,
      "start_beat": 128.25,
      "duration_beat": 0.4739583333333286,
      "velocity": 33,
      "track": 0
    },
    {
      "pitch": 65,
      "start_beat": 128.25,
      "duration_beat": 0.125,
      "velocity": 13,
      "track": 0
    },
    {
      "pitch": 86,
      "start_beat": 128.25,
      "duration_beat": 0.4739583333333286,
      "velocity": 33,
      "track": 0
    },
    {
      "pitch": 74,
      "start_beat": 128.25,
      "duration_beat": 0.125,
      "velocity": 13,
      "track": 0
    },
    {
      "pitch": 50,
      "start_beat": 128.25,
      "duration_beat": 0.11770833333333997,
      "velocity": 33,
      "track": 1
    },
    {
      "pitch": 57,
      "start_beat": 128.25,
      "duration_beat": 0.11770833333333997,
      "velocity": 33,
      "track": 1
    },
    {
      "pitch": 38,
      "start_beat": 128.25,
      "duration_beat": 0.23541666666667993,
      "velocity": 33,
      "track": 1
    },
    {
      "pitch": 38,
      "start_beat": 128.25,
      "duration_beat": 0.23541666666667993,
      "velocity": 43,
      "track": 1
    },
    {
      "pitch": 42,
      "start_beat": 128.25,
      "duration_beat": 0.23541666666667993,
      "velocity": 43,
      "track": 1
    },
    {
      "pitch": 45,
      "start_beat": 128.25,
      "duration_beat": 0.23541666666667993,
      "velocity": 43,
      "track": 1
    },
    {
      "pitch": 38,
      "start_beat": 128.25,
      "duration_beat": 0.11770833333333997,
      "velocity": 33,
      "track": 1
    },
    {
      "pitch": 38,
      "start_beat": 128.25,
      "duration_beat": 0.125,
      "velocity": 13,
      "track": 1
    },
    {
      "pitch": 45,
      "start_beat": 128.25,
      "duration_beat": 0.23541666666667993,
      "velocity": 33,
      "track": 1
    },
    {
      "pitch": 45,
      "start_beat": 128.25,
      "duration_beat": 0.23541666666667993,
      "velocity": 43,
      "track": 1
    },
    {
      "pitch": 49,
      "start_beat": 128.25,
      "duration_beat": 0.23541666666667993,
      "velocity": 43,
      "track": 1
    },
    {
      "pitch": 52,
      "start_beat": 128.25,
      "duration_beat": 0.23541666666667993,
      "velocity": 43,
      "track": 1
    },
    {
      "pitch": 45,
      "start_beat": 128.25,
      "duration_beat": 0.11770833333333997,
      "velocity": 33,
      "track": 1
    },
    {
      "pitch": 45,
      "start_beat": 128.25,
      "duration_beat": 0.125,
      "velocity": 13,
      "track": 1
    },
    {
      "pitch": 45,
      "start_beat": 128.375,
      "duration_beat": 0.11770833333333997,
      "velocity": 33,
      "track": 1
    },
    {
      "pitch": 52,
      "start_beat": 128.375,
      "duration_beat": 0.11770833333333997,
      "velocity": 33,
      "track": 1
    },
    {
      "pitch": 65,
      "start_beat": 128.5,
      "duration_beat": 0.125,
      "velocity": 13,
      "track": 0
    },
    {
      "pitch": 74,
      "start_beat": 128.5,
      "duration_beat": 0.125,
      "velocity": 13,
      "track": 0
    },
    {
      "pitch": 50,
      "start_beat": 128.5,
      "duration_beat": 0.11770833333333997,
      "velocity": 33,
      "track": 1
    },
    {
      "pitch": 57,
      "start_beat": 128.5,
      "duration_beat": 0.11770833333333997,
      "velocity": 33,
      "track": 1
    },
    {
      "pitch": 38,
      "start_beat": 128.5,
      "duration_beat": 0.23541666666667993,
      "velocity": 33,
      "track": 1
    },
    {
      "pitch": 38,
      "start_beat": 128.5,
      "duration_beat": 0.23541666666667993,
      "velocity": 43,
      "track": 1
    },
    {
      "pitch": 42,
      "start_beat": 128.5,
      "duration_beat": 0.23541666666667993,
      "velocity": 43,
      "track": 1
    },
    {
      "pitch": 45,
      "start_beat": 128.5,
      "duration_beat": 0.23541666666667993,
      "velocity": 43,
      "track": 1
    },
    {
      "pitch": 38,
      "start_beat": 128.5,
      "duration_beat": 0.11770833333333997,
      "velocity": 33,
      "track": 1
    },
    {
      "pitch": 38,
      "start_beat": 128.5,
      "duration_beat": 0.125,
      "velocity": 13,
      "track": 1
    },
    {
      "pitch": 45,
      "start_beat": 128.5,
      "duration_beat": 0.23541666666667993,
      "velocity": 33,
      "track": 1
    },
    {
      "pitch": 45,
      "start_beat": 128.5,
      "duration_beat": 0.23541666666667993,
      "velocity": 43,
      "track": 1
    },
    {
      "pitch": 49,
      "start_beat": 128.5,
      "duration_beat": 0.23541666666667993,
      "velocity": 43,
      "track": 1
    },
    {
      "pitch": 52,
      "start_beat": 128.5,
      "duration_beat": 0.23541666666667993,
      "velocity": 43,
      "track": 1
    },
    {
      "pitch": 45,
      "start_beat": 128.5,
      "duration_beat": 0.11770833333333997,
      "velocity": 33,
      "track": 1
    },
    {
      "pitch": 45,
      "start_beat": 128.5,
      "duration_beat": 0.125,
      "velocity": 13,
      "track": 1
    },
    {
      "pitch": 45,
      "start_beat": 128.625,
      "duration_beat": 0.11770833333333997,
      "velocity": 33,
      "track": 1
    },
    {
      "pitch": 52,
      "start_beat": 128.625,
      "duration_beat": 0.11770833333333997,
      "velocity": 33,
      "track": 1
    },
    {
      "pitch": 65,
      "start_beat": 128.75,
      "duration_beat": 0.125,
      "velocity": 13,
      "track": 0
    },
    {
      "pitch": 74,
      "start_beat": 128.75,
      "duration_beat": 0.125,
      "velocity": 13,
      "track": 0
    },
    {
      "pitch": 50,
      "start_beat": 128.75,
      "duration_beat": 0.11770833333333997,
      "velocity": 33,
      "track": 1
    },
    {
      "pitch": 57,
      "start_beat": 128.75,
      "duration_beat": 0.11770833333333997,
      "velocity": 33,
      "track": 1
    },
    {
      "pitch": 38,
      "start_beat": 128.75,
      "duration_beat": 0.23541666666667993,
      "velocity": 33,
      "track": 1
    },
    {
      "pitch": 38,
      "start_beat": 128.75,
      "duration_beat": 0.23541666666667993,
      "velocity": 43,
      "track": 1
    },
    {
      "pitch": 42,
      "start_beat": 128.75,
      "duration_beat": 0.23541666666667993,
      "velocity": 43,
      "track": 1
    },
    {
      "pitch": 45,
      "start_beat": 128.75,
      "duration_beat": 0.23541666666667993,
      "velocity": 43,
      "track": 1
    },
    {
      "pitch": 38,
      "start_beat": 128.75,
      "duration_beat": 0.11770833333333997,
      "velocity": 33,
      "track": 1
    },
    {
      "pitch": 38,
      "start_beat": 128.75,
      "duration_beat": 0.125,
      "velocity": 13,
      "track": 1
    },
    {
      "pitch": 45,
      "start_beat": 128.75,
      "duration_beat": 0.23541666666667993,
      "velocity": 33,
      "track": 1
    },
    {
      "pitch": 45,
      "start_beat": 128.75,
      "duration_beat": 0.23541666666667993,
      "velocity": 43,
      "track": 1
    },
    {
      "pitch": 49,
      "start_beat": 128.75,
      "duration_beat": 0.23541666666667993,
      "velocity": 43,
      "track": 1
    },
    {
      "pitch": 52,
      "start_beat": 128.75,
      "duration_beat": 0.23541666666667993,
      "velocity": 43,
      "track": 1
    },
    {
      "pitch": 45,
      "start_beat": 128.75,
      "duration_beat": 0.11770833333333997,
      "velocity": 33,
      "track": 1
    },
    {
      "pitch": 45,
      "start_beat": 128.75,
      "duration_beat": 0.125,
      "velocity": 13,
      "track": 1
    },
    {
      "pitch": 45,
      "start_beat": 128.875,
      "duration_beat": 0.11770833333333997,
      "velocity": 33,
      "track": 1
    },
    {
      "pitch": 52,
      "start_beat": 128.875,
      "duration_beat": 0.11770833333333997,
      "velocity": 33,
      "track": 1
    },
    {
      "pitch": 50,
      "start_beat": 129.0,
      "duration_beat": 0.11770833333333997,
      "velocity": 33,
      "track": 1
    },
    {
      "pitch": 57,
      "start_beat": 129.0,
      "duration_beat": 0.11770833333333997,
      "velocity": 33,
      "track": 1
    },
    {
      "pitch": 64,
      "start_beat": 129.0,
      "duration_beat": 0.23541666666667993,
      "velocity": 33,
      "track": 0
    },
    {
      "pitch": 64,
      "start_beat": 129.0,
      "duration_beat": 0.23541666666667993,
      "velocity": 43,
      "track": 0
    },
    {
      "pitch": 68,
      "start_beat": 129.0,
      "duration_beat": 0.23541666666667993,
      "velocity": 43,
      "track": 0
    },
    {
      "pitch": 71,
      "start_beat": 129.0,
      "duration_beat": 0.23541666666667993,
      "velocity": 43,
      "track": 0
    },
    {
      "pitch": 64,
      "start_beat": 129.0,
      "duration_beat": 0.11770833333333997,
      "velocity": 33,
      "track": 0
    },
    {
      "pitch": 64,
      "start_beat": 129.0,
      "duration_beat": 0.125,
      "velocity": 13,
      "track": 0
    },
    {
      "pitch": 72,
      "start_beat": 129.0,
      "duration_beat": 0.23541666666667993,
      "velocity": 33,
      "track": 0
    },
    {
      "pitch": 72,
      "start_beat": 129.0,
      "duration_beat": 0.23541666666667993,
      "velocity": 43,
      "track": 0
    },
    {
      "pitch": 76,
      "start_beat": 129.0,
      "duration_beat": 0.23541666666667993,
      "velocity": 43,
      "track": 0
    },
    {
      "pitch": 79,
      "start_beat": 129.0,
      "duration_beat": 0.23541666666667993,
      "velocity": 43,
      "track": 0
    },
    {
      "pitch": 72,
      "start_beat": 129.0,
      "duration_beat": 0.11770833333333997,
      "velocity": 33,
      "track": 0
    },
    {
      "pitch": 72,
      "start_beat": 129.0,
      "duration_beat": 0.125,
      "velocity": 13,
      "track": 0
    },
    {
      "pitch": 38,
      "start_beat": 129.0,
      "duration_beat": 0.23541666666667993,
      "velocity": 33,
      "track": 1
    },
    {
      "pitch": 38,
      "start_beat": 129.0,
      "duration_beat": 0.23541666666667993,
      "velocity": 43,
      "track": 1
    },
    {
      "pitch": 42,
      "start_beat": 129.0,
      "duration_beat": 0.23541666666667993,
      "velocity": 43,
      "track": 1
    },
    {
      "pitch": 45,
      "start_beat": 129.0,
      "duration_beat": 0.23541666666667993,
      "velocity": 43,
      "track": 1
    },
    {
      "pitch": 38,
      "start_beat": 129.0,
      "duration_beat": 0.11770833333333997,
      "velocity": 33,
      "track": 1
    },
    {
      "pitch": 38,
      "start_beat": 129.0,
      "duration_beat": 0.125,
      "velocity": 13,
      "track": 1
    },
    {
      "pitch": 45,
      "start_beat": 129.0,
      "duration_beat": 0.23541666666667993,
      "velocity": 33,
      "track": 1
    },
    {
      "pitch": 45,
      "start_beat": 129.0,
      "duration_beat": 0.23541666666667993,
      "velocity": 43,
      "track": 1
    },
    {
      "pitch": 49,
      "start_beat": 129.0,
      "duration_beat": 0.23541666666667993,
      "velocity": 43,
      "track": 1
    },
    {
      "pitch": 52,
      "start_beat": 129.0,
      "duration_beat": 0.23541666666667993,
      "velocity": 43,
      "track": 1
    },
    {
      "pitch": 45,
      "start_beat": 129.0,
      "duration_beat": 0.11770833333333997,
      "velocity": 33,
      "track": 1
    },
    {
      "pitch": 45,
      "start_beat": 129.0,
      "duration_beat": 0.125,
      "velocity": 13,
      "track": 1
    },
    {
      "pitch": 71,
      "start_beat": 129.125,
      "duration_beat": 0.11770833333333997,
      "velocity": 33,
      "track": 0
    },
    {
      "pitch": 79,
      "start_beat": 129.125,
      "duration_beat": 0.11770833333333997,
      "velocity": 33,
      "track": 0
    },
    {
      "pitch": 45,
      "start_beat": 129.125,
      "duration_beat": 0.11770833333333997,
      "velocity": 33,
      "track": 1
    },
    {
      "pitch": 52,
      "start_beat": 129.125,
      "duration_beat": 0.11770833333333997,
      "velocity": 33,
      "track": 1
    },
    {
      "pitch": 76,
      "start_beat": 129.25,
      "duration_beat": 0.11770833333333997,
      "velocity": 33,
      "track": 0
    },
    {
      "pitch": 84,
      "start_beat": 129.25,
      "duration_beat": 0.11770833333333997,
      "velocity": 33,
      "track": 0
    },
    {
      "pitch": 50,
      "start_beat": 129.25,
      "duration_beat": 0.11770833333333997,
      "velocity": 33,
      "track": 1
    },
    {
      "pitch": 57,
      "start_beat": 129.25,
      "duration_beat": 0.11770833333333997,
      "velocity": 33,
      "track": 1
    },
    {
      "pitch": 62,
      "start_beat": 129.25,
      "duration_beat": 0.23541666666667993,
      "velocity": 33,
      "track": 0
    },
    {
      "pitch": 62,
      "start_beat": 129.25,
      "duration_beat": 0.23541666666667993,
      "velocity": 43,
      "track": 0
    },
    {
      "pitch": 66,
      "start_beat": 129.25,
      "duration_beat": 0.23541666666667993,
      "velocity": 43,
      "track": 0
    },
    {
      "pitch": 69,
      "start_beat": 129.25,
      "duration_beat": 0.23541666666667993,
      "velocity": 43,
      "track": 0
    },
    {
      "pitch": 62,
      "start_beat": 129.25,
      "duration_beat": 0.11770833333333997,
      "velocity": 33,
      "track": 0
    },
    {
      "pitch": 62,
      "start_beat": 129.25,
      "duration_beat": 0.125,
      "velocity": 13,
      "track": 0
    },
    {
      "pitch": 71,
      "start_beat": 129.25,
      "duration_beat": 0.23541666666667993,
      "velocity": 33,
      "track": 0
    },
    {
      "pitch": 71,
      "start_beat": 129.25,
      "duration_beat": 0.23541666666667993,
      "velocity": 43,
      "track": 0
    },
    {
      "pitch": 75,
      "start_beat": 129.25,
      "duration_beat": 0.23541666666667993,
      "velocity": 43,
      "track": 0
    },
    {
      "pitch": 78,
      "start_beat": 129.25,
      "duration_beat": 0.23541666666667993,
      "velocity": 43,
      "track": 0
    },
    {
      "pitch": 71,
      "start_beat": 129.25,
      "duration_beat": 0.11770833333333997,
      "velocity": 33,
      "track": 0
    },
    {
      "pitch": 71,
      "start_beat": 129.25,
      "duration_beat": 0.125,
      "velocity": 13,
      "track": 0
    },
    {
      "pitch": 38,
      "start_beat": 129.25,
      "duration_beat": 0.23541666666667993,
      "velocity": 33,
      "track": 1
    },
    {
      "pitch": 38,
      "start_beat": 129.25,
      "duration_beat": 0.23541666666667993,
      "velocity": 43,
      "track": 1
    },
    {
      "pitch": 42,
      "start_beat": 129.25,
      "duration_beat": 0.23541666666667993,
      "velocity": 43,
      "track": 1
    },
    {
      "pitch": 45,
      "start_beat": 129.25,
      "duration_beat": 0.23541666666667993,
      "velocity": 43,
      "track": 1
    },
    {
      "pitch": 38,
      "start_beat": 129.25,
      "duration_beat": 0.11770833333333997,
      "velocity": 33,
      "track": 1
    },
    {
      "pitch": 38,
      "start_beat": 129.25,
      "duration_beat": 0.125,
      "velocity": 13,
      "track": 1
    },
    {
      "pitch": 45,
      "start_beat": 129.25,
      "duration_beat": 0.23541666666667993,
      "velocity": 33,
      "track": 1
    },
    {
      "pitch": 45,
      "start_beat": 129.25,
      "duration_beat": 0.23541666666667993,
      "velocity": 43,
      "track": 1
    },
    {
      "pitch": 49,
      "start_beat": 129.25,
      "duration_beat": 0.23541666666667993,
      "velocity": 43,
      "track": 1
    },
    {
      "pitch": 52,
      "start_beat": 129.25,
      "duration_beat": 0.23541666666667993,
      "velocity": 43,
      "track": 1
    },
    {
      "pitch": 45,
      "start_beat": 129.25,
      "duration_beat": 0.11770833333333997,
      "velocity": 33,
      "track": 1
    },
    {
      "pitch": 45,
      "start_beat": 129.25,
      "duration_beat": 0.125,
      "velocity": 13,
      "track": 1
    },
    {
      "pitch": 69,
      "start_beat": 129.375,
      "duration_beat": 0.11770833333333997,
      "velocity": 33,
      "track": 0
    },
    {
      "pitch": 78,
      "start_beat": 129.375,
      "duration_beat": 0.11770833333333997,
      "velocity": 33,
      "track": 0
    },
    {
      "pitch": 45,
      "start_beat": 129.375,
      "duration_beat": 0.11770833333333997,
      "velocity": 33,
      "track": 1
    },
    {
      "pitch": 52,
      "start_beat": 129.375,
      "duration_beat": 0.11770833333333997,
      "velocity": 33,
      "track": 1
    },
    {
      "pitch": 74,
      "start_beat": 129.5,
      "duration_beat": 0.11770833333333997,
      "velocity": 33,
      "track": 0
    },
    {
      "pitch": 83,
      "start_beat": 129.5,
      "duration_beat": 0.11770833333333997,
      "velocity": 33,
      "track": 0
    },
    {
      "pitch": 50,
      "start_beat": 129.5,
      "duration_beat": 0.11770833333333997,
      "velocity": 33,
      "track": 1
    },
    {
      "pitch": 57,
      "start_beat": 129.5,
      "duration_beat": 0.11770833333333997,
      "velocity": 33,
      "track": 1
    },
    {
      "pitch": 60,
      "start_beat": 129.5,
      "duration_beat": 0.9479166666666572,
      "velocity": 33,
      "track": 0
    },
    {
      "pitch": 60,
      "start_beat": 129.5,
      "duration_beat": 0.9479166666666572,
      "velocity": 43,
      "track": 0
    },
    {
      "pitch": 64,
      "start_beat": 129.5,
      "duration_beat": 0.9479166666666572,
      "velocity": 43,
      "track": 0
    },
    {
      "pitch": 67,
      "start_beat": 129.5,
      "duration_beat": 0.9479166666666572,
      "velocity": 43,
      "track": 0
    },
    {
      "pitch": 60,
      "start_beat": 129.5,
      "duration_beat": 0.4739583333333286,
      "velocity": 33,
      "track": 0
    },
    {
      "pitch": 60,
      "start_beat": 129.5,
      "duration_beat": 0.125,
      "velocity": 13,
      "track": 0
    },
    {
      "pitch": 66,
      "start_beat": 129.5,
      "duration_beat": 0.9479166666666572,
      "velocity": 33,
      "track": 0
    },
    {
      "pitch": 66,
      "start_beat": 129.5,
      "duration_beat": 0.9479166666666572,
      "velocity": 43,
      "track": 0
    },
    {
      "pitch": 70,
      "start_beat": 129.5,
      "duration_beat": 0.9479166666666572,
      "velocity": 43,
      "track": 0
    },
    {
      "pitch": 73,
      "start_beat": 129.5,
      "duration_beat": 0.9479166666666572,
      "velocity": 43,
      "track": 0
    },
    {
      "pitch": 66,
      "start_beat": 129.5,
      "duration_beat": 0.4739583333333286,
      "velocity": 33,
      "track": 0
    },
    {
      "pitch": 66,
      "start_beat": 129.5,
      "duration_beat": 0.125,
      "velocity": 13,
      "track": 0
    },
    {
      "pitch": 69,
      "start_beat": 129.5,
      "duration_beat": 0.9479166666666572,
      "velocity": 33,
      "track": 0
    },
    {
      "pitch": 69,
      "start_beat": 129.5,
      "duration_beat": 0.9479166666666572,
      "velocity": 43,
      "track": 0
    },
    {
      "pitch": 73,
      "start_beat": 129.5,
      "duration_beat": 0.9479166666666572,
      "velocity": 43,
      "track": 0
    },
    {
      "pitch": 76,
      "start_beat": 129.5,
      "duration_beat": 0.9479166666666572,
      "velocity": 43,
      "track": 0
    },
    {
      "pitch": 69,
      "start_beat": 129.5,
      "duration_beat": 0.4739583333333286,
      "velocity": 33,
      "track": 0
    },
    {
      "pitch": 69,
      "start_beat": 129.5,
      "duration_beat": 0.125,
      "velocity": 13,
      "track": 0
    },
    {
      "pitch": 39,
      "start_beat": 129.5,
      "duration_beat": 0.23541666666667993,
      "velocity": 33,
      "track": 1
    },
    {
      "pitch": 39,
      "start_beat": 129.5,
      "duration_beat": 0.23541666666667993,
      "velocity": 43,
      "track": 1
    },
    {
      "pitch": 43,
      "start_beat": 129.5,
      "duration_beat": 0.23541666666667993,
      "velocity": 43,
      "track": 1
    },
    {
      "pitch": 46,
      "start_beat": 129.5,
      "duration_beat": 0.23541666666667993,
      "velocity": 43,
      "track": 1
    },
    {
      "pitch": 39,
      "start_beat": 129.5,
      "duration_beat": 0.11770833333333997,
      "velocity": 33,
      "track": 1
    },
    {
      "pitch": 39,
      "start_beat": 129.5,
      "duration_beat": 0.125,
      "velocity": 13,
      "track": 1
    },
    {
      "pitch": 45,
      "start_beat": 129.5,
      "duration_beat": 0.23541666666667993,
      "velocity": 33,
      "track": 1
    },
    {
      "pitch": 45,
      "start_beat": 129.5,
      "duration_beat": 0.23541666666667993,
      "velocity": 43,
      "track": 1
    },
    {
      "pitch": 49,
      "start_beat": 129.5,
      "duration_beat": 0.23541666666667993,
      "velocity": 43,
      "track": 1
    },
    {
      "pitch": 52,
      "start_beat": 129.5,
      "duration_beat": 0.23541666666667993,
      "velocity": 43,
      "track": 1
    },
    {
      "pitch": 45,
      "start_beat": 129.5,
      "duration_beat": 0.11770833333333997,
      "velocity": 33,
      "track": 1
    },
    {
      "pitch": 45,
      "start_beat": 129.5,
      "duration_beat": 0.125,
      "velocity": 13,
      "track": 1
    },
    {
      "pitch": 67,
      "start_beat": 129.625,
      "duration_beat": 0.4739583333333286,
      "velocity": 33,
      "track": 0
    },
    {
      "pitch": 73,
      "start_beat": 129.625,
      "duration_beat": 0.4739583333333286,
      "velocity": 33,
      "track": 0
    },
    {
      "pitch": 76,
      "start_beat": 129.625,
      "duration_beat": 0.4739583333333286,
      "velocity": 33,
      "track": 0
    },
    {
      "pitch": 46,
      "start_beat": 129.625,
      "duration_beat": 0.11770833333333997,
      "velocity": 33,
      "track": 1
    },
    {
      "pitch": 52,
      "start_beat": 129.625,
      "duration_beat": 0.11770833333333997,
      "velocity": 33,
      "track": 1
    },
    {
      "pitch": 72,
      "start_beat": 129.75,
      "duration_beat": 0.4739583333333286,
      "velocity": 33,
      "track": 0
    },
    {
      "pitch": 60,
      "start_beat": 129.75,
      "duration_beat": 0.125,
      "velocity": 13,
      "track": 0
    },
    {
      "pitch": 78,
      "start_beat": 129.75,
      "duration_beat": 0.4739583333333286,
      "velocity": 33,
      "track": 0
    },
    {
      "pitch": 66,
      "start_beat": 129.75,
      "duration_beat": 0.125,
      "velocity": 13,
      "track": 0
    },
    {
      "pitch": 81,
      "start_beat": 129.75,
      "duration_beat": 0.4739583333333286,
      "velocity": 33,
      "track": 0
    },
    {
      "pitch": 69,
      "start_beat": 129.75,
      "duration_beat": 0.125,
      "velocity": 13,
      "track": 0
    },
    {
      "pitch": 51,
      "start_beat": 129.75,
      "duration_beat": 0.11770833333333997,
      "velocity": 33,
      "track": 1
    },
    {
      "pitch": 57,
      "start_beat": 129.75,
      "duration_beat": 0.11770833333333997,
      "velocity": 33,
      "track": 1
    },
    {
      "pitch": 39,
      "start_beat": 129.75,
      "duration_beat": 0.23541666666667993,
      "velocity": 33,
      "track": 1
    },
    {
      "pitch": 39,
      "start_beat": 129.75,
      "duration_beat": 0.23541666666667993,
      "velocity": 43,
      "track": 1
    },
    {
      "pitch": 43,
      "start_beat": 129.75,
      "duration_beat": 0.23541666666667993,
      "velocity": 43,
      "track": 1
    },
    {
      "pitch": 46,
      "start_beat": 129.75,
      "duration_beat": 0.23541666666667993,
      "velocity": 43,
      "track": 1
    },
    {
      "pitch": 39,
      "start_beat": 129.75,
      "duration_beat": 0.11770833333333997,
      "velocity": 33,
      "track": 1
    },
    {
      "pitch": 39,
      "start_beat": 129.75,
      "duration_beat": 0.125,
      "velocity": 13,
      "track": 1
    },
    {
      "pitch": 45,
      "start_beat": 129.75,
      "duration_beat": 0.23541666666667993,
      "velocity": 33,
      "track": 1
    },
    {
      "pitch": 45,
      "start_beat": 129.75,
      "duration_beat": 0.23541666666667993,
      "velocity": 43,
      "track": 1
    },
    {
      "pitch": 49,
      "start_beat": 129.75,
      "duration_beat": 0.23541666666667993,
      "velocity": 43,
      "track": 1
    },
    {
      "pitch": 52,
      "start_beat": 129.75,
      "duration_beat": 0.23541666666667993,
      "velocity": 43,
      "track": 1
    },
    {
      "pitch": 45,
      "start_beat": 129.75,
      "duration_beat": 0.11770833333333997,
      "velocity": 33,
      "track": 1
    },
    {
      "pitch": 45,
      "start_beat": 129.75,
      "duration_beat": 0.125,
      "velocity": 13,
      "track": 1
    },
    {
      "pitch": 46,
      "start_beat": 129.875,
      "duration_beat": 0.11770833333333997,
      "velocity": 33,
      "track": 1
    },
    {
      "pitch": 52,
      "start_beat": 129.875,
      "duration_beat": 0.11770833333333997,
      "velocity": 33,
      "track": 1
    },
    {
      "pitch": 60,
      "start_beat": 130.0,
      "duration_beat": 0.125,
      "velocity": 13,
      "track": 0
    },
    {
      "pitch": 66,
      "start_beat": 130.0,
      "duration_beat": 0.125,
      "velocity": 13,
      "track": 0
    },
    {
      "pitch": 69,
      "start_beat": 130.0,
      "duration_beat": 0.125,
      "velocity": 13,
      "track": 0
    },
    {
      "pitch": 51,
      "start_beat": 130.0,
      "duration_beat": 0.11770833333333997,
      "velocity": 33,
      "track": 1
    },
    {
      "pitch": 57,
      "start_beat": 130.0,
      "duration_beat": 0.11770833333333997,
      "velocity": 33,
      "track": 1
    },
    {
      "pitch": 39,
      "start_beat": 130.0,
      "duration_beat": 0.23541666666667993,
      "velocity": 33,
      "track": 1
    },
    {
      "pitch": 39,
      "start_beat": 130.0,
      "duration_beat": 0.23541666666667993,
      "velocity": 43,
      "track": 1
    },
    {
      "pitch": 43,
      "start_beat": 130.0,
      "duration_beat": 0.23541666666667993,
      "velocity": 43,
      "track": 1
    },
    {
      "pitch": 46,
      "start_beat": 130.0,
      "duration_beat": 0.23541666666667993,
      "velocity": 43,
      "track": 1
    },
    {
      "pitch": 39,
      "start_beat": 130.0,
      "duration_beat": 0.11770833333333997,
      "velocity": 33,
      "track": 1
    },
    {
      "pitch": 39,
      "start_beat": 130.0,
      "duration_beat": 0.125,
      "velocity": 13,
      "track": 1
    },
    {
      "pitch": 45,
      "start_beat": 130.0,
      "duration_beat": 0.23541666666667993,
      "velocity": 33,
      "track": 1
    },
    {
      "pitch": 45,
      "start_beat": 130.0,
      "duration_beat": 0.23541666666667993,
      "velocity": 43,
      "track": 1
    },
    {
      "pitch": 49,
      "start_beat": 130.0,
      "duration_beat": 0.23541666666667993,
      "velocity": 43,
      "track": 1
    },
    {
      "pitch": 52,
      "start_beat": 130.0,
      "duration_beat": 0.23541666666667993,
      "velocity": 43,
      "track": 1
    },
    {
      "pitch": 45,
      "start_beat": 130.0,
      "duration_beat": 0.11770833333333997,
      "velocity": 33,
      "track": 1
    },
    {
      "pitch": 45,
      "start_beat": 130.0,
      "duration_beat": 0.125,
      "velocity": 13,
      "track": 1
    },
    {
      "pitch": 46,
      "start_beat": 130.125,
      "duration_beat": 0.11770833333333997,
      "velocity": 33,
      "track": 1
    },
    {
      "pitch": 52,
      "start_beat": 130.125,
      "duration_beat": 0.11770833333333997,
      "velocity": 33,
      "track": 1
    },
    {
      "pitch": 60,
      "start_beat": 130.25,
      "duration_beat": 0.125,
      "velocity": 13,
      "track": 0
    },
    {
      "pitch": 66,
      "start_beat": 130.25,
      "duration_beat": 0.125,
      "velocity": 13,
      "track": 0
    },
    {
      "pitch": 69,
      "start_beat": 130.25,
      "duration_beat": 0.125,
      "velocity": 13,
      "track": 0
    },
    {
      "pitch": 51,
      "start_beat": 130.25,
      "duration_beat": 0.11770833333333997,
      "velocity": 33,
      "track": 1
    },
    {
      "pitch": 57,
      "start_beat": 130.25,
      "duration_beat": 0.11770833333333997,
      "velocity": 33,
      "track": 1
    },
    {
      "pitch": 39,
      "start_beat": 130.25,
      "duration_beat": 0.23541666666667993,
      "velocity": 33,
      "track": 1
    },
    {
      "pitch": 39,
      "start_beat": 130.25,
      "duration_beat": 0.23541666666667993,
      "velocity": 43,
      "track": 1
    },
    {
      "pitch": 43,
      "start_beat": 130.25,
      "duration_beat": 0.23541666666667993,
      "velocity": 43,
      "track": 1
    },
    {
      "pitch": 46,
      "start_beat": 130.25,
      "duration_beat": 0.23541666666667993,
      "velocity": 43,
      "track": 1
    },
    {
      "pitch": 39,
      "start_beat": 130.25,
      "duration_beat": 0.11770833333333997,
      "velocity": 33,
      "track": 1
    },
    {
      "pitch": 39,
      "start_beat": 130.25,
      "duration_beat": 0.125,
      "velocity": 13,
      "track": 1
    },
    {
      "pitch": 45,
      "start_beat": 130.25,
      "duration_beat": 0.23541666666667993,
      "velocity": 33,
      "track": 1
    },
    {
      "pitch": 45,
      "start_beat": 130.25,
      "duration_beat": 0.23541666666667993,
      "velocity": 43,
      "track": 1
    },
    {
      "pitch": 49,
      "start_beat": 130.25,
      "duration_beat": 0.23541666666667993,
      "velocity": 43,
      "track": 1
    },
    {
      "pitch": 52,
      "start_beat": 130.25,
      "duration_beat": 0.23541666666667993,
      "velocity": 43,
      "track": 1
    },
    {
      "pitch": 45,
      "start_beat": 130.25,
      "duration_beat": 0.11770833333333997,
      "velocity": 33,
      "track": 1
    },
    {
      "pitch": 45,
      "start_beat": 130.25,
      "duration_beat": 0.125,
      "velocity": 13,
      "track": 1
    },
    {
      "pitch": 46,
      "start_beat": 130.375,
      "duration_beat": 0.11770833333333997,
      "velocity": 33,
      "track": 1
    },
    {
      "pitch": 52,
      "start_beat": 130.375,
      "duration_beat": 0.11770833333333997,
      "velocity": 33,
      "track": 1
    },
    {
      "pitch": 51,
      "start_beat": 130.5,
      "duration_beat": 0.11770833333333997,
      "velocity": 33,
      "track": 1
    },
    {
      "pitch": 57,
      "start_beat": 130.5,
      "duration_beat": 0.11770833333333997,
      "velocity": 33,
      "track": 1
    },
    {
      "pitch": 60,
      "start_beat": 130.5,
      "duration_beat": 0.4729166666666629,
      "velocity": 33,
      "track": 0
    },
    {
      "pitch": 60,
      "start_beat": 130.5,
      "duration_beat": 0.4729166666666629,
      "velocity": 43,
      "track": 0
    },
    {
      "pitch": 64,
      "start_beat": 130.5,
      "duration_beat": 0.4729166666666629,
      "velocity": 43,
      "track": 0
    },
    {
      "pitch": 67,
      "start_beat": 130.5,
      "duration_beat": 0.4729166666666629,
      "velocity": 43,
      "track": 0
    },
    {
      "pitch": 60,
      "start_beat": 130.5,
      "duration_beat": 0.23645833333333144,
      "velocity": 33,
      "track": 0
    },
    {
      "pitch": 60,
      "start_beat": 130.5,
      "duration_beat": 0.125,
      "velocity": 13,
      "track": 0
    },
    {
      "pitch": 69,
      "start_beat": 130.5,
      "duration_beat": 0.4729166666666629,
      "velocity": 33,
      "track": 0
    },
    {
      "pitch": 69,
      "start_beat": 130.5,
      "duration_beat": 0.4729166666666629,
      "velocity": 43,
      "track": 0
    },
    {
      "pitch": 73,
      "start_beat": 130.5,
      "duration_beat": 0.4729166666666629,
      "velocity": 43,
      "track": 0
    },
    {
      "pitch": 76,
      "start_beat": 130.5,
      "duration_beat": 0.4729166666666629,
      "velocity": 43,
      "track": 0
    },
    {
      "pitch": 69,
      "start_beat": 130.5,
      "duration_beat": 0.23645833333333144,
      "velocity": 33,
      "track": 0
    },
    {
      "pitch": 69,
      "start_beat": 130.5,
      "duration_beat": 0.125,
      "velocity": 13,
      "track": 0
    },
    {
      "pitch": 39,
      "start_beat": 130.5,
      "duration_beat": 0.23541666666667993,
      "velocity": 33,
      "track": 1
    },
    {
      "pitch": 39,
      "start_beat": 130.5,
      "duration_beat": 0.23541666666667993,
      "velocity": 43,
      "track": 1
    },
    {
      "pitch": 43,
      "start_beat": 130.5,
      "duration_beat": 0.23541666666667993,
      "velocity": 43,
      "track": 1
    },
    {
      "pitch": 46,
      "start_beat": 130.5,
      "duration_beat": 0.23541666666667993,
      "velocity": 43,
      "track": 1
    },
    {
      "pitch": 39,
      "start_beat": 130.5,
      "duration_beat": 0.11770833333333997,
      "velocity": 33,
      "track": 1
    },
    {
      "pitch": 39,
      "start_beat": 130.5,
      "duration_beat": 0.125,
      "velocity": 13,
      "track": 1
    },
    {
      "pitch": 45,
      "start_beat": 130.5,
      "duration_beat": 0.23541666666667993,
      "velocity": 33,
      "track": 1
    },
    {
      "pitch": 45,
      "start_beat": 130.5,
      "duration_beat": 0.23541666666667993,
      "velocity": 43,
      "track": 1
    },
    {
      "pitch": 49,
      "start_beat": 130.5,
      "duration_beat": 0.23541666666667993,
      "velocity": 43,
      "track": 1
    },
    {
      "pitch": 52,
      "start_beat": 130.5,
      "duration_beat": 0.23541666666667993,
      "velocity": 43,
      "track": 1
    },
    {
      "pitch": 45,
      "start_beat": 130.5,
      "duration_beat": 0.11770833333333997,
      "velocity": 33,
      "track": 1
    },
    {
      "pitch": 45,
      "start_beat": 130.5,
      "duration_beat": 0.125,
      "velocity": 13,
      "track": 1
    },
    {
      "pitch": 67,
      "start_beat": 130.625,
      "duration_beat": 0.23645833333333144,
      "velocity": 33,
      "track": 0
    },
    {
      "pitch": 76,
      "start_beat": 130.625,
      "duration_beat": 0.23645833333333144,
      "velocity": 33,
      "track": 0
    },
    {
      "pitch": 46,
      "start_beat": 130.625,
      "duration_beat": 0.11770833333333997,
      "velocity": 33,
      "track": 1
    },
    {
      "pitch": 52,
      "start_beat": 130.625,
      "duration_beat": 0.11770833333333997,
      "velocity": 33,
      "track": 1
    },
    {
      "pitch": 72,
      "start_beat": 130.75,
      "duration_beat": 0.23645833333333144,
      "velocity": 33,
      "track": 0
    },
    {
      "pitch": 60,
      "start_beat": 130.75,
      "duration_beat": 0.125,
      "velocity": 13,
      "track": 0
    },
    {
      "pitch": 81,
      "start_beat": 130.75,
      "duration_beat": 0.23645833333333144,
      "velocity": 33,
      "track": 0
    },
    {
      "pitch": 69,
      "start_beat": 130.75,
      "duration_beat": 0.125,
      "velocity": 13,
      "track": 0
    },
    {
      "pitch": 51,
      "start_beat": 130.75,
      "duration_beat": 0.11770833333333997,
      "velocity": 33,
      "track": 1
    },
    {
      "pitch": 57,
      "start_beat": 130.75,
      "duration_beat": 0.11770833333333997,
      "velocity": 33,
      "track": 1
    },
    {
      "pitch": 39,
      "start_beat": 130.75,
      "duration_beat": 0.23541666666667993,
      "velocity": 33,
      "track": 1
    },
    {
      "pitch": 39,
      "start_beat": 130.75,
      "duration_beat": 0.23541666666667993,
      "velocity": 43,
      "track": 1
    },
    {
      "pitch": 43,
      "start_beat": 130.75,
      "duration_beat": 0.23541666666667993,
      "velocity": 43,
      "track": 1
    },
    {
      "pitch": 46,
      "start_beat": 130.75,
      "duration_beat": 0.23541666666667993,
      "velocity": 43,
      "track": 1
    },
    {
      "pitch": 39,
      "start_beat": 130.75,
      "duration_beat": 0.11770833333333997,
      "velocity": 33,
      "track": 1
    },
    {
      "pitch": 39,
      "start_beat": 130.75,
      "duration_beat": 0.125,
      "velocity": 13,
      "track": 1
    },
    {
      "pitch": 45,
      "start_beat": 130.75,
      "duration_beat": 0.23541666666667993,
      "velocity": 33,
      "track": 1
    },
    {
      "pitch": 45,
      "start_beat": 130.75,
      "duration_beat": 0.23541666666667993,
      "velocity": 43,
      "track": 1
    },
    {
      "pitch": 49,
      "start_beat": 130.75,
      "duration_beat": 0.23541666666667993,
      "velocity": 43,
      "track": 1
    },
    {
      "pitch": 52,
      "start_beat": 130.75,
      "duration_beat": 0.23541666666667993,
      "velocity": 43,
      "track": 1
    },
    {
      "pitch": 45,
      "start_beat": 130.75,
      "duration_beat": 0.11770833333333997,
      "velocity": 33,
      "track": 1
    },
    {
      "pitch": 45,
      "start_beat": 130.75,
      "duration_beat": 0.125,
      "velocity": 13,
      "track": 1
    },
    {
      "pitch": 46,
      "start_beat": 130.875,
      "duration_beat": 0.11770833333333997,
      "velocity": 33,
      "track": 1
    },
    {
      "pitch": 52,
      "start_beat": 130.875,
      "duration_beat": 0.11770833333333997,
      "velocity": 33,
      "track": 1
    },
    {
      "pitch": 51,
      "start_beat": 131.0,
      "duration_beat": 0.11770833333333997,
      "velocity": 33,
      "track": 1
    },
    {
      "pitch": 57,
      "start_beat": 131.0,
      "duration_beat": 0.11770833333333997,
      "velocity": 33,
      "track": 1
    },
    {
      "pitch": 60,
      "start_beat": 131.0,
      "duration_beat": 0.4729166666666629,
      "velocity": 33,
      "track": 0
    },
    {
      "pitch": 60,
      "start_beat": 131.0,
      "duration_beat": 0.4729166666666629,
      "velocity": 43,
      "track": 0
    },
    {
      "pitch": 64,
      "start_beat": 131.0,
      "duration_beat": 0.4729166666666629,
      "velocity": 43,
      "track": 0
    },
    {
      "pitch": 67,
      "start_beat": 131.0,
      "duration_beat": 0.4729166666666629,
      "velocity": 43,
      "track": 0
    },
    {
      "pitch": 60,
      "start_beat": 131.0,
      "duration_beat": 0.23645833333333144,
      "velocity": 33,
      "track": 0
    },
    {
      "pitch": 60,
      "start_beat": 131.0,
      "duration_beat": 0.125,
      "velocity": 13,
      "track": 0
    },
    {
      "pitch": 69,
      "start_beat": 131.0,
      "duration_beat": 0.4729166666666629,
      "velocity": 33,
      "track": 0
    },
    {
      "pitch": 69,
      "start_beat": 131.0,
      "duration_beat": 0.4729166666666629,
      "velocity": 43,
      "track": 0
    },
    {
      "pitch": 73,
      "start_beat": 131.0,
      "duration_beat": 0.4729166666666629,
      "velocity": 43,
      "track": 0
    },
    {
      "pitch": 76,
      "start_beat": 131.0,
      "duration_beat": 0.4729166666666629,
      "velocity": 43,
      "track": 0
    },
    {
      "pitch": 69,
      "start_beat": 131.0,
      "duration_beat": 0.23645833333333144,
      "velocity": 33,
      "track": 0
    },
    {
      "pitch": 69,
      "start_beat": 131.0,
      "duration_beat": 0.125,
      "velocity": 13,
      "track": 0
    },
    {
      "pitch": 40,
      "start_beat": 131.0,
      "duration_beat": 0.23541666666667993,
      "velocity": 33,
      "track": 1
    },
    {
      "pitch": 40,
      "start_beat": 131.0,
      "duration_beat": 0.23541666666667993,
      "velocity": 43,
      "track": 1
    },
    {
      "pitch": 44,
      "start_beat": 131.0,
      "duration_beat": 0.23541666666667993,
      "velocity": 43,
      "track": 1
    },
    {
      "pitch": 47,
      "start_beat": 131.0,
      "duration_beat": 0.23541666666667993,
      "velocity": 43,
      "track": 1
    },
    {
      "pitch": 40,
      "start_beat": 131.0,
      "duration_beat": 0.11770833333333997,
      "velocity": 33,
      "track": 1
    },
    {
      "pitch": 40,
      "start_beat": 131.0,
      "duration_beat": 0.125,
      "velocity": 13,
      "track": 1
    },
    {
      "pitch": 45,
      "start_beat": 131.0,
      "duration_beat": 0.23541666666667993,
      "velocity": 33,
      "track": 1
    },
    {
      "pitch": 45,
      "start_beat": 131.0,
      "duration_beat": 0.23541666666667993,
      "velocity": 43,
      "track": 1
    },
    {
      "pitch": 49,
      "start_beat": 131.0,
      "duration_beat": 0.23541666666667993,
      "velocity": 43,
      "track": 1
    },
    {
      "pitch": 52,
      "start_beat": 131.0,
      "duration_beat": 0.23541666666667993,
      "velocity": 43,
      "track": 1
    },
    {
      "pitch": 45,
      "start_beat": 131.0,
      "duration_beat": 0.11770833333333997,
      "velocity": 33,
      "track": 1
    },
    {
      "pitch": 45,
      "start_beat": 131.0,
      "duration_beat": 0.125,
      "velocity": 13,
      "track": 1
    },
    {
      "pitch": 67,
      "start_beat": 131.125,
      "duration_beat": 0.23645833333333144,
      "velocity": 33,
      "track": 0
    },
    {
      "pitch": 76,
      "start_beat": 131.125,
      "duration_beat": 0.23645833333333144,
      "velocity": 33,
      "track": 0
    },
    {
      "pitch": 47,
      "start_beat": 131.125,
      "duration_beat": 0.11770833333333997,
      "velocity": 33,
      "track": 1
    },
    {
      "pitch": 52,
      "start_beat": 131.125,
      "duration_beat": 0.11770833333333997,
      "velocity": 33,
      "track": 1
    },
    {
      "pitch": 72,
      "start_beat": 131.25,
      "duration_beat": 0.23645833333333144,
      "velocity": 33,
      "track": 0
    },
    {
      "pitch": 60,
      "start_beat": 131.25,
      "duration_beat": 0.125,
      "velocity": 13,
      "track": 0
    },
    {
      "pitch": 81,
      "start_beat": 131.25,
      "duration_beat": 0.23645833333333144,
      "velocity": 33,
      "track": 0
    },
    {
      "pitch": 69,
      "start_beat": 131.25,
      "duration_beat": 0.125,
      "velocity": 13,
      "track": 0
    },
    {
      "pitch": 52,
      "start_beat": 131.25,
      "duration_beat": 0.11770833333333997,
      "velocity": 33,
      "track": 1
    },
    {
      "pitch": 57,
      "start_beat": 131.25,
      "duration_beat": 0.11770833333333997,
      "velocity": 33,
      "track": 1
    },
    {
      "pitch": 40,
      "start_beat": 131.25,
      "duration_beat": 0.23541666666667993,
      "velocity": 33,
      "track": 1
    },
    {
      "pitch": 40,
      "start_beat": 131.25,
      "duration_beat": 0.23541666666667993,
      "velocity": 43,
      "track": 1
    },
    {
      "pitch": 44,
      "start_beat": 131.25,
      "duration_beat": 0.23541666666667993,
      "velocity": 43,
      "track": 1
    },
    {
      "pitch": 47,
      "start_beat": 131.25,
      "duration_beat": 0.23541666666667993,
      "velocity": 43,
      "track": 1
    },
    {
      "pitch": 40,
      "start_beat": 131.25,
      "duration_beat": 0.11770833333333997,
      "velocity": 33,
      "track": 1
    },
    {
      "pitch": 40,
      "start_beat": 131.25,
      "duration_beat": 0.125,
      "velocity": 13,
      "track": 1
    },
    {
      "pitch": 45,
      "start_beat": 131.25,
      "duration_beat": 0.23541666666667993,
      "velocity": 33,
      "track": 1
    },
    {
      "pitch": 45,
      "start_beat": 131.25,
      "duration_beat": 0.23541666666667993,
      "velocity": 43,
      "track": 1
    },
    {
      "pitch": 49,
      "start_beat": 131.25,
      "duration_beat": 0.23541666666667993,
      "velocity": 43,
      "track": 1
    },
    {
      "pitch": 52,
      "start_beat": 131.25,
      "duration_beat": 0.23541666666667993,
      "velocity": 43,
      "track": 1
    },
    {
      "pitch": 45,
      "start_beat": 131.25,
      "duration_beat": 0.11770833333333997,
      "velocity": 33,
      "track": 1
    },
    {
      "pitch": 45,
      "start_beat": 131.25,
      "duration_beat": 0.125,
      "velocity": 13,
      "track": 1
    },
    {
      "pitch": 47,
      "start_beat": 131.375,
      "duration_beat": 0.11770833333333997,
      "velocity": 33,
      "track": 1
    },
    {
      "pitch": 52,
      "start_beat": 131.375,
      "duration_beat": 0.11770833333333997,
      "velocity": 33,
      "track": 1
    },
    {
      "pitch": 52,
      "start_beat": 131.5,
      "duration_beat": 0.11770833333333997,
      "velocity": 33,
      "track": 1
    },
    {
      "pitch": 57,
      "start_beat": 131.5,
      "duration_beat": 0.11770833333333997,
      "velocity": 33,
      "track": 1
    },
    {
      "pitch": 64,
      "start_beat": 131.5,
      "duration_beat": 0.4729166666666629,
      "velocity": 33,
      "track": 0
    },
    {
      "pitch": 64,
      "start_beat": 131.5,
      "duration_beat": 0.4729166666666629,
      "velocity": 43,
      "track": 0
    },
    {
      "pitch": 68,
      "start_beat": 131.5,
      "duration_beat": 0.4729166666666629,
      "velocity": 43,
      "track": 0
    },
    {
      "pitch": 71,
      "start_beat": 131.5,
      "duration_beat": 0.4729166666666629,
      "velocity": 43,
      "track": 0
    },
    {
      "pitch": 64,
      "start_beat": 131.5,
      "duration_beat": 0.23645833333333144,
      "velocity": 33,
      "track": 0
    },
    {
      "pitch": 64,
      "start_beat": 131.5,
      "duration_beat": 0.125,
      "velocity": 13,
      "track": 0
    },
    {
      "pitch": 72,
      "start_beat": 131.5,
      "duration_beat": 0.4729166666666629,
      "velocity": 33,
      "track": 0
    },
    {
      "pitch": 72,
      "start_beat": 131.5,
      "duration_beat": 0.4729166666666629,
      "velocity": 43,
      "track": 0
    },
    {
      "pitch": 76,
      "start_beat": 131.5,
      "duration_beat": 0.4729166666666629,
      "velocity": 43,
      "track": 0
    },
    {
      "pitch": 79,
      "start_beat": 131.5,
      "duration_beat": 0.4729166666666629,
      "velocity": 43,
      "track": 0
    },
    {
      "pitch": 72,
      "start_beat": 131.5,
      "duration_beat": 0.23645833333333144,
      "velocity": 33,
      "track": 0
    },
    {
      "pitch": 72,
      "start_beat": 131.5,
      "duration_beat": 0.125,
      "velocity": 13,
      "track": 0
    },
    {
      "pitch": 40,
      "start_beat": 131.5,
      "duration_beat": 0.23541666666667993,
      "velocity": 33,
      "track": 1
    },
    {
      "pitch": 40,
      "start_beat": 131.5,
      "duration_beat": 0.23541666666667993,
      "velocity": 43,
      "track": 1
    },
    {
      "pitch": 44,
      "start_beat": 131.5,
      "duration_beat": 0.23541666666667993,
      "velocity": 43,
      "track": 1
    },
    {
      "pitch": 47,
      "start_beat": 131.5,
      "duration_beat": 0.23541666666667993,
      "velocity": 43,
      "track": 1
    },
    {
      "pitch": 40,
      "start_beat": 131.5,
      "duration_beat": 0.11770833333333997,
      "velocity": 33,
      "track": 1
    },
    {
      "pitch": 40,
      "start_beat": 131.5,
      "duration_beat": 0.125,
      "velocity": 13,
      "track": 1
    },
    {
      "pitch": 45,
      "start_beat": 131.5,
      "duration_beat": 0.23541666666667993,
      "velocity": 33,
      "track": 1
    },
    {
      "pitch": 45,
      "start_beat": 131.5,
      "duration_beat": 0.23541666666667993,
      "velocity": 43,
      "track": 1
    },
    {
      "pitch": 49,
      "start_beat": 131.5,
      "duration_beat": 0.23541666666667993,
      "velocity": 43,
      "track": 1
    },
    {
      "pitch": 52,
      "start_beat": 131.5,
      "duration_beat": 0.23541666666667993,
      "velocity": 43,
      "track": 1
    },
    {
      "pitch": 45,
      "start_beat": 131.5,
      "duration_beat": 0.11770833333333997,
      "velocity": 33,
      "track": 1
    },
    {
      "pitch": 45,
      "start_beat": 131.5,
      "duration_beat": 0.125,
      "velocity": 13,
      "track": 1
    },
    {
      "pitch": 71,
      "start_beat": 131.625,
      "duration_beat": 0.23645833333333144,
      "velocity": 33,
      "track": 0
    },
    {
      "pitch": 79,
      "start_beat": 131.625,
      "duration_beat": 0.23645833333333144,
      "velocity": 33,
      "track": 0
    },
    {
      "pitch": 47,
      "start_beat": 131.625,
      "duration_beat": 0.11770833333333997,
      "velocity": 33,
      "track": 1
    },
    {
      "pitch": 52,
      "start_beat": 131.625,
      "duration_beat": 0.11770833333333997,
      "velocity": 33,
      "track": 1
    },
    {
      "pitch": 76,
      "start_beat": 131.75,
      "duration_beat": 0.23645833333333144,
      "velocity": 33,
      "track": 0
    },
    {
      "pitch": 64,
      "start_beat": 131.75,
      "duration_beat": 0.125,
      "velocity": 13,
      "track": 0
    },
    {
      "pitch": 84,
      "start_beat": 131.75,
      "duration_beat": 0.23645833333333144,
      "velocity": 33,
      "track": 0
    },
    {
      "pitch": 72,
      "start_beat": 131.75,
      "duration_beat": 0.125,
      "velocity": 13,
      "track": 0
    },
    {
      "pitch": 52,
      "start_beat": 131.75,
      "duration_beat": 0.11770833333333997,
      "velocity": 33,
      "track": 1
    },
    {
      "pitch": 57,
      "start_beat": 131.75,
      "duration_beat": 0.11770833333333997,
      "velocity": 33,
      "track": 1
    },
    {
      "pitch": 40,
      "start_beat": 131.75,
      "duration_beat": 0.23541666666667993,
      "velocity": 33,
      "track": 1
    },
    {
      "pitch": 40,
      "start_beat": 131.75,
      "duration_beat": 0.23541666666667993,
      "velocity": 43,
      "track": 1
    },
    {
      "pitch": 44,
      "start_beat": 131.75,
      "duration_beat": 0.23541666666667993,
      "velocity": 43,
      "track": 1
    },
    {
      "pitch": 47,
      "start_beat": 131.75,
      "duration_beat": 0.23541666666667993,
      "velocity": 43,
      "track": 1
    },
    {
      "pitch": 40,
      "start_beat": 131.75,
      "duration_beat": 0.11770833333333997,
      "velocity": 33,
      "track": 1
    },
    {
      "pitch": 40,
      "start_beat": 131.75,
      "duration_beat": 0.125,
      "velocity": 13,
      "track": 1
    },
    {
      "pitch": 45,
      "start_beat": 131.75,
      "duration_beat": 0.23541666666667993,
      "velocity": 33,
      "track": 1
    },
    {
      "pitch": 45,
      "start_beat": 131.75,
      "duration_beat": 0.23541666666667993,
      "velocity": 43,
      "track": 1
    },
    {
      "pitch": 49,
      "start_beat": 131.75,
      "duration_beat": 0.23541666666667993,
      "velocity": 43,
      "track": 1
    },
    {
      "pitch": 52,
      "start_beat": 131.75,
      "duration_beat": 0.23541666666667993,
      "velocity": 43,
      "track": 1
    },
    {
      "pitch": 45,
      "start_beat": 131.75,
      "duration_beat": 0.11770833333333997,
      "velocity": 33,
      "track": 1
    },
    {
      "pitch": 45,
      "start_beat": 131.75,
      "duration_beat": 0.125,
      "velocity": 13,
      "track": 1
    },
    {
      "pitch": 47,
      "start_beat": 131.875,
      "duration_beat": 0.11770833333333997,
      "velocity": 33,
      "track": 1
    },
    {
      "pitch": 52,
      "start_beat": 131.875,
      "duration_beat": 0.11770833333333997,
      "velocity": 33,
      "track": 1
    },
    {
      "pitch": 52,
      "start_beat": 132.0,
      "duration_beat": 0.11770833333333997,
      "velocity": 33,
      "track": 1
    },
    {
      "pitch": 57,
      "start_beat": 132.0,
      "duration_beat": 0.11770833333333997,
      "velocity": 33,
      "track": 1
    },
    {
      "pitch": 62,
      "start_beat": 132.0,
      "duration_beat": 0.4729166666666629,
      "velocity": 33,
      "track": 0
    },
    {
      "pitch": 62,
      "start_beat": 132.0,
      "duration_beat": 0.4729166666666629,
      "velocity": 43,
      "track": 0
    },
    {
      "pitch": 66,
      "start_beat": 132.0,
      "duration_beat": 0.4729166666666629,
      "velocity": 43,
      "track": 0
    },
    {
      "pitch": 69,
      "start_beat": 132.0,
      "duration_beat": 0.4729166666666629,
      "velocity": 43,
      "track": 0
    },
    {
      "pitch": 62,
      "start_beat": 132.0,
      "duration_beat": 0.23645833333333144,
      "velocity": 33,
      "track": 0
    },
    {
      "pitch": 62,
      "start_beat": 132.0,
      "duration_beat": 0.125,
      "velocity": 13,
      "track": 0
    },
    {
      "pitch": 71,
      "start_beat": 132.0,
      "duration_beat": 0.4729166666666629,
      "velocity": 33,
      "track": 0
    },
    {
      "pitch": 71,
      "start_beat": 132.0,
      "duration_beat": 0.4729166666666629,
      "velocity": 43,
      "track": 0
    },
    {
      "pitch": 75,
      "start_beat": 132.0,
      "duration_beat": 0.4729166666666629,
      "velocity": 43,
      "track": 0
    },
    {
      "pitch": 78,
      "start_beat": 132.0,
      "duration_beat": 0.4729166666666629,
      "velocity": 43,
      "track": 0
    },
    {
      "pitch": 71,
      "start_beat": 132.0,
      "duration_beat": 0.23645833333333144,
      "velocity": 33,
      "track": 0
    },
    {
      "pitch": 71,
      "start_beat": 132.0,
      "duration_beat": 0.125,
      "velocity": 13,
      "track": 0
    },
    {
      "pitch": 40,
      "start_beat": 132.0,
      "duration_beat": 0.23541666666667993,
      "velocity": 33,
      "track": 1
    },
    {
      "pitch": 40,
      "start_beat": 132.0,
      "duration_beat": 0.23541666666667993,
      "velocity": 43,
      "track": 1
    },
    {
      "pitch": 44,
      "start_beat": 132.0,
      "duration_beat": 0.23541666666667993,
      "velocity": 43,
      "track": 1
    },
    {
      "pitch": 47,
      "start_beat": 132.0,
      "duration_beat": 0.23541666666667993,
      "velocity": 43,
      "track": 1
    },
    {
      "pitch": 40,
      "start_beat": 132.0,
      "duration_beat": 0.11770833333333997,
      "velocity": 33,
      "track": 1
    },
    {
      "pitch": 40,
      "start_beat": 132.0,
      "duration_beat": 0.125,
      "velocity": 13,
      "track": 1
    },
    {
      "pitch": 44,
      "start_beat": 132.0,
      "duration_beat": 0.23541666666667993,
      "velocity": 33,
      "track": 1
    },
    {
      "pitch": 44,
      "start_beat": 132.0,
      "duration_beat": 0.23541666666667993,
      "velocity": 43,
      "track": 1
    },
    {
      "pitch": 48,
      "start_beat": 132.0,
      "duration_beat": 0.23541666666667993,
      "velocity": 43,
      "track": 1
    },
    {
      "pitch": 51,
      "start_beat": 132.0,
      "duration_beat": 0.23541666666667993,
      "velocity": 43,
      "track": 1
    },
    {
      "pitch": 44,
      "start_beat": 132.0,
      "duration_beat": 0.11770833333333997,
      "velocity": 33,
      "track": 1
    },
    {
      "pitch": 44,
      "start_beat": 132.0,
      "duration_beat": 0.125,
      "velocity": 13,
      "track": 1
    },
    {
      "pitch": 69,
      "start_beat": 132.125,
      "duration_beat": 0.23645833333333144,
      "velocity": 33,
      "track": 0
    },
    {
      "pitch": 78,
      "start_beat": 132.125,
      "duration_beat": 0.23645833333333144,
      "velocity": 33,
      "track": 0
    },
    {
      "pitch": 47,
      "start_beat": 132.125,
      "duration_beat": 0.11770833333333997,
      "velocity": 33,
      "track": 1
    },
    {
      "pitch": 51,
      "start_beat": 132.125,
      "duration_beat": 0.11770833333333997,
      "velocity": 33,
      "track": 1
    },
    {
      "pitch": 74,
      "start_beat": 132.25,
      "duration_beat": 0.23645833333333144,
      "velocity": 33,
      "track": 0
    },
    {
      "pitch": 62,
      "start_beat": 132.25,
      "duration_beat": 0.125,
      "velocity": 13,
      "track": 0
    },
    {
      "pitch": 83,
      "start_beat": 132.25,
      "duration_beat": 0.23645833333333144,
      "velocity": 33,
      "track": 0
    },
    {
      "pitch": 71,
      "start_beat": 132.25,
      "duration_beat": 0.125,
      "velocity": 13,
      "track": 0
    },
    {
      "pitch": 52,
      "start_beat": 132.25,
      "duration_beat": 0.11770833333333997,
      "velocity": 33,
      "track": 1
    },
    {
      "pitch": 56,
      "start_beat": 132.25,
      "duration_beat": 0.11770833333333997,
      "velocity": 33,
      "track": 1
    },
    {
      "pitch": 40,
      "start_beat": 132.25,
      "duration_beat": 0.23541666666667993,
      "velocity": 33,
      "track": 1
    },
    {
      "pitch": 40,
      "start_beat": 132.25,
      "duration_beat": 0.23541666666667993,
      "velocity": 43,
      "track": 1
    },
    {
      "pitch": 44,
      "start_beat": 132.25,
      "duration_beat": 0.23541666666667993,
      "velocity": 43,
      "track": 1
    },
    {
      "pitch": 47,
      "start_beat": 132.25,
      "duration_beat": 0.23541666666667993,
      "velocity": 43,
      "track": 1
    },
    {
      "pitch": 40,
      "start_beat": 132.25,
      "duration_beat": 0.11770833333333997,
      "velocity": 33,
      "track": 1
    },
    {
      "pitch": 40,
      "start_beat": 132.25,
      "duration_beat": 0.125,
      "velocity": 13,
      "track": 1
    },
    {
      "pitch": 44,
      "start_beat": 132.25,
      "duration_beat": 0.23541666666667993,
      "velocity": 33,
      "track": 1
    },
    {
      "pitch": 44,
      "start_beat": 132.25,
      "duration_beat": 0.23541666666667993,
      "velocity": 43,
      "track": 1
    },
    {
      "pitch": 48,
      "start_beat": 132.25,
      "duration_beat": 0.23541666666667993,
      "velocity": 43,
      "track": 1
    },
    {
      "pitch": 51,
      "start_beat": 132.25,
      "duration_beat": 0.23541666666667993,
      "velocity": 43,
      "track": 1
    },
    {
      "pitch": 44,
      "start_beat": 132.25,
      "duration_beat": 0.11770833333333997,
      "velocity": 33,
      "track": 1
    },
    {
      "pitch": 44,
      "start_beat": 132.25,
      "duration_beat": 0.125,
      "velocity": 13,
      "track": 1
    },
    {
      "pitch": 47,
      "start_beat": 132.375,
      "duration_beat": 0.11770833333333997,
      "velocity": 33,
      "track": 1
    },
    {
      "pitch": 51,
      "start_beat": 132.375,
      "duration_beat": 0.11770833333333997,
      "velocity": 33,
      "track": 1
    },
    {
      "pitch": 52,
      "start_beat": 132.5,
      "duration_beat": 0.11770833333333997,
      "velocity": 33,
      "track": 1
    },
    {
      "pitch": 56,
      "start_beat": 132.5,
      "duration_beat": 0.11770833333333997,
      "velocity": 33,
      "track": 1
    },
    {
      "pitch": 60,
      "start_beat": 132.5,
      "duration_beat": 1.42291666666668,
      "velocity": 33,
      "track": 0
    },
    {
      "pitch": 60,
      "start_beat": 132.5,
      "duration_beat": 1.42291666666668,
      "velocity": 43,
      "track": 0
    },
    {
      "pitch": 64,
      "start_beat": 132.5,
      "duration_beat": 1.42291666666668,
      "velocity": 43,
      "track": 0
    },
    {
      "pitch": 67,
      "start_beat": 132.5,
      "duration_beat": 1.42291666666668,
      "velocity": 43,
      "track": 0
    },
    {
      "pitch": 60,
      "start_beat": 132.5,
      "duration_beat": 0.71145833333334,
      "velocity": 33,
      "track": 0
    },
    {
      "pitch": 60,
      "start_beat": 132.5,
      "duration_beat": 0.125,
      "velocity": 13,
      "track": 0
    },
    {
      "pitch": 69,
      "start_beat": 132.5,
      "duration_beat": 1.42291666666668,
      "velocity": 33,
      "track": 0
    },
    {
      "pitch": 69,
      "start_beat": 132.5,
      "duration_beat": 1.42291666666668,
      "velocity": 43,
      "track": 0
    },
    {
      "pitch": 73,
      "start_beat": 132.5,
      "duration_beat": 1.42291666666668,
      "velocity": 43,
      "track": 0
    },
    {
      "pitch": 76,
      "start_beat": 132.5,
      "duration_beat": 1.42291666666668,
      "velocity": 43,
      "track": 0
    },
    {
      "pitch": 69,
      "start_beat": 132.5,
      "duration_beat": 0.71145833333334,
      "velocity": 33,
      "track": 0
    },
    {
      "pitch": 69,
      "start_beat": 132.5,
      "duration_beat": 0.125,
      "velocity": 13,
      "track": 0
    },
    {
      "pitch": 33,
      "start_beat": 132.5,
      "duration_beat": 0.23541666666667993,
      "velocity": 33,
      "track": 1
    },
    {
      "pitch": 33,
      "start_beat": 132.5,
      "duration_beat": 0.23541666666667993,
      "velocity": 43,
      "track": 1
    },
    {
      "pitch": 37,
      "start_beat": 132.5,
      "duration_beat": 0.23541666666667993,
      "velocity": 43,
      "track": 1
    },
    {
      "pitch": 40,
      "start_beat": 132.5,
      "duration_beat": 0.23541666666667993,
      "velocity": 43,
      "track": 1
    },
    {
      "pitch": 33,
      "start_beat": 132.5,
      "duration_beat": 0.11770833333333997,
      "velocity": 33,
      "track": 1
    },
    {
      "pitch": 33,
      "start_beat": 132.5,
      "duration_beat": 0.125,
      "velocity": 13,
      "track": 1
    },
    {
      "pitch": 45,
      "start_beat": 132.5,
      "duration_beat": 0.23541666666667993,
      "velocity": 33,
      "track": 1
    },
    {
      "pitch": 45,
      "start_beat": 132.5,
      "duration_beat": 0.23541666666667993,
      "velocity": 43,
      "track": 1
    },
    {
      "pitch": 49,
      "start_beat": 132.5,
      "duration_beat": 0.23541666666667993,
      "velocity": 43,
      "track": 1
    },
    {
      "pitch": 52,
      "start_beat": 132.5,
      "duration_beat": 0.23541666666667993,
      "velocity": 43,
      "track": 1
    },
    {
      "pitch": 45,
      "start_beat": 132.5,
      "duration_beat": 0.11770833333333997,
      "velocity": 33,
      "track": 1
    },
    {
      "pitch": 45,
      "start_beat": 132.5,
      "duration_beat": 0.125,
      "velocity": 13,
      "track": 1
    },
    {
      "pitch": 67,
      "start_beat": 132.625,
      "duration_beat": 0.71145833333334,
      "velocity": 33,
      "track": 0
    },
    {
      "pitch": 76,
      "start_beat": 132.625,
      "duration_beat": 0.71145833333334,
      "velocity": 33,
      "track": 0
    },
    {
      "pitch": 40,
      "start_beat": 132.625,
      "duration_beat": 0.11770833333333997,
      "velocity": 33,
      "track": 1
    },
    {
      "pitch": 52,
      "start_beat": 132.625,
      "duration_beat": 0.11770833333333997,
      "velocity": 33,
      "track": 1
    },
    {
      "pitch": 72,
      "start_beat": 132.75,
      "duration_beat": 0.71145833333334,
      "velocity": 33,
      "track": 0
    },
    {
      "pitch": 60,
      "start_beat": 132.75,
      "duration_beat": 0.125,
      "velocity": 13,
      "track": 0
    },
    {
      "pitch": 81,
      "start_beat": 132.75,
      "duration_beat": 0.71145833333334,
      "velocity": 33,
      "track": 0
    },
    {
      "pitch": 69,
      "start_beat": 132.75,
      "duration_beat": 0.125,
      "velocity": 13,
      "track": 0
    },
    {
      "pitch": 45,
      "start_beat": 132.75,
      "duration_beat": 0.11770833333333997,
      "velocity": 33,
      "track": 1
    },
    {
      "pitch": 57,
      "start_beat": 132.75,
      "duration_beat": 0.11770833333333997,
      "velocity": 33,
      "track": 1
    },
    {
      "pitch": 45,
      "start_beat": 132.75,
      "duration_beat": 0.23541666666667993,
      "velocity": 33,
      "track": 1
    },
    {
      "pitch": 45,
      "start_beat": 132.75,
      "duration_beat": 0.23541666666667993,
      "velocity": 43,
      "track": 1
    },
    {
      "pitch": 49,
      "start_beat": 132.75,
      "duration_beat": 0.23541666666667993,
      "velocity": 43,
      "track": 1
    },
    {
      "pitch": 52,
      "start_beat": 132.75,
      "duration_beat": 0.23541666666667993,
      "velocity": 43,
      "track": 1
    },
    {
      "pitch": 45,
      "start_beat": 132.75,
      "duration_beat": 0.11770833333333997,
      "velocity": 33,
      "track": 1
    },
    {
      "pitch": 45,
      "start_beat": 132.75,
      "duration_beat": 0.125,
      "velocity": 13,
      "track": 1
    },
    {
      "pitch": 52,
      "start_beat": 132.875,
      "duration_beat": 0.11770833333333997,
      "velocity": 33,
      "track": 1
    },
    {
      "pitch": 60,
      "start_beat": 133.0,
      "duration_beat": 0.125,
      "velocity": 13,
      "track": 0
    },
    {
      "pitch": 69,
      "start_beat": 133.0,
      "duration_beat": 0.125,
      "velocity": 13,
      "track": 0
    },
    {
      "pitch": 57,
      "start_beat": 133.0,
      "duration_beat": 0.11770833333333997,
      "velocity": 33,
      "track": 1
    },
    {
      "pitch": 45,
      "start_beat": 133.0,
      "duration_beat": 0.23541666666667993,
      "velocity": 33,
      "track": 1
    },
    {
      "pitch": 45,
      "start_beat": 133.0,
      "duration_beat": 0.23541666666667993,
      "velocity": 43,
      "track": 1
    },
    {
      "pitch": 49,
      "start_beat": 133.0,
      "duration_beat": 0.23541666666667993,
      "velocity": 43,
      "track": 1
    },
    {
      "pitch": 52,
      "start_beat": 133.0,
      "duration_beat": 0.23541666666667993,
      "velocity": 43,
      "track": 1
    },
    {
      "pitch": 45,
      "start_beat": 133.0,
      "duration_beat": 0.11770833333333997,
      "velocity": 33,
      "track": 1
    },
    {
      "pitch": 45,
      "start_beat": 133.0,
      "duration_beat": 0.125,
      "velocity": 13,
      "track": 1
    },
    {
      "pitch": 52,
      "start_beat": 133.125,
      "duration_beat": 0.11770833333333997,
      "velocity": 33,
      "track": 1
    },
    {
      "pitch": 60,
      "start_beat": 133.25,
      "duration_beat": 0.125,
      "velocity": 13,
      "track": 0
    },
    {
      "pitch": 69,
      "start_beat": 133.25,
      "duration_beat": 0.125,
      "velocity": 13,
      "track": 0
    },
    {
      "pitch": 57,
      "start_beat": 133.25,
      "duration_beat": 0.11770833333333997,
      "velocity": 33,
      "track": 1
    },
    {
      "pitch": 45,
      "start_beat": 133.25,
      "duration_beat": 0.23541666666667993,
      "velocity": 33,
      "track": 1
    },
    {
      "pitch": 45,
      "start_beat": 133.25,
      "duration_beat": 0.23541666666667993,
      "velocity": 43,
      "track": 1
    },
    {
      "pitch": 49,
      "start_beat": 133.25,
      "duration_beat": 0.23541666666667993,
      "velocity": 43,
      "track": 1
    },
    {
      "pitch": 52,
      "start_beat": 133.25,
      "duration_beat": 0.23541666666667993,
      "velocity": 43,
      "track": 1
    },
    {
      "pitch": 45,
      "start_beat": 133.25,
      "duration_beat": 0.11770833333333997,
      "velocity": 33,
      "track": 1
    },
    {
      "pitch": 45,
      "start_beat": 133.25,
      "duration_beat": 0.125,
      "velocity": 13,
      "track": 1
    },
    {
      "pitch": 52,
      "start_beat": 133.375,
      "duration_beat": 0.11770833333333997,
      "velocity": 33,
      "track": 1
    },
    {
      "pitch": 60,
      "start_beat": 133.5,
      "duration_beat": 0.125,
      "velocity": 13,
      "track": 0
    },
    {
      "pitch": 69,
      "start_beat": 133.5,
      "duration_beat": 0.125,
      "velocity": 13,
      "track": 0
    },
    {
      "pitch": 57,
      "start_beat": 133.5,
      "duration_beat": 0.11770833333333997,
      "velocity": 33,
      "track": 1
    },
    {
      "pitch": 45,
      "start_beat": 133.5,
      "duration_beat": 0.23541666666667993,
      "velocity": 33,
      "track": 1
    },
    {
      "pitch": 45,
      "start_beat": 133.5,
      "duration_beat": 0.23541666666667993,
      "velocity": 43,
      "track": 1
    },
    {
      "pitch": 49,
      "start_beat": 133.5,
      "duration_beat": 0.23541666666667993,
      "velocity": 43,
      "track": 1
    },
    {
      "pitch": 52,
      "start_beat": 133.5,
      "duration_beat": 0.23541666666667993,
      "velocity": 43,
      "track": 1
    },
    {
      "pitch": 45,
      "start_beat": 133.5,
      "duration_beat": 0.11770833333333997,
      "velocity": 33,
      "track": 1
    },
    {
      "pitch": 45,
      "start_beat": 133.5,
      "duration_beat": 0.125,
      "velocity": 13,
      "track": 1
    },
    {
      "pitch": 52,
      "start_beat": 133.625,
      "duration_beat": 0.11770833333333997,
      "velocity": 33,
      "track": 1
    },
    {
      "pitch": 60,
      "start_beat": 133.75,
      "duration_beat": 0.125,
      "velocity": 13,
      "track": 0
    },
    {
      "pitch": 69,
      "start_beat": 133.75,
      "duration_beat": 0.125,
      "velocity": 13,
      "track": 0
    },
    {
      "pitch": 57,
      "start_beat": 133.75,
      "duration_beat": 0.11770833333333997,
      "velocity": 33,
      "track": 1
    },
    {
      "pitch": 45,
      "start_beat": 133.75,
      "duration_beat": 0.23541666666667993,
      "velocity": 33,
      "track": 1
    },
    {
      "pitch": 45,
      "start_beat": 133.75,
      "duration_beat": 0.23541666666667993,
      "velocity": 43,
      "track": 1
    },
    {
      "pitch": 49,
      "start_beat": 133.75,
      "duration_beat": 0.23541666666667993,
      "velocity": 43,
      "track": 1
    },
    {
      "pitch": 52,
      "start_beat": 133.75,
      "duration_beat": 0.23541666666667993,
      "velocity": 43,
      "track": 1
    },
    {
      "pitch": 45,
      "start_beat": 133.75,
      "duration_beat": 0.11770833333333997,
      "velocity": 33,
      "track": 1
    },
    {
      "pitch": 45,
      "start_beat": 133.75,
      "duration_beat": 0.125,
      "velocity": 13,
      "track": 1
    },
    {
      "pitch": 52,
      "start_beat": 133.875,
      "duration_beat": 0.11770833333333997,
      "velocity": 33,
      "track": 1
    },
    {
      "pitch": 57,
      "start_beat": 134.0,
      "duration_beat": 0.11770833333333997,
      "velocity": 33,
      "track": 1
    },
    {
      "pitch": 64,
      "start_beat": 134.0,
      "duration_beat": 1.42291666666668,
      "velocity": 33,
      "track": 0
    },
    {
      "pitch": 64,
      "start_beat": 134.0,
      "duration_beat": 1.42291666666668,
      "velocity": 43,
      "track": 0
    },
    {
      "pitch": 68,
      "start_beat": 134.0,
      "duration_beat": 1.42291666666668,
      "velocity": 43,
      "track": 0
    },
    {
      "pitch": 71,
      "start_beat": 134.0,
      "duration_beat": 1.42291666666668,
      "velocity": 43,
      "track": 0
    },
    {
      "pitch": 64,
      "start_beat": 134.0,
      "duration_beat": 0.71145833333334,
      "velocity": 33,
      "track": 0
    },
    {
      "pitch": 64,
      "start_beat": 134.0,
      "duration_beat": 0.125,
      "velocity": 13,
      "track": 0
    },
    {
      "pitch": 67,
      "start_beat": 134.0,
      "duration_beat": 1.42291666666668,
      "velocity": 33,
      "track": 0
    },
    {
      "pitch": 67,
      "start_beat": 134.0,
      "duration_beat": 1.42291666666668,
      "velocity": 43,
      "track": 0
    },
    {
      "pitch": 71,
      "start_beat": 134.0,
      "duration_beat": 1.42291666666668,
      "velocity": 43,
      "track": 0
    },
    {
      "pitch": 74,
      "start_beat": 134.0,
      "duration_beat": 1.42291666666668,
      "velocity": 43,
      "track": 0
    },
    {
      "pitch": 67,
      "start_beat": 134.0,
      "duration_beat": 0.71145833333334,
      "velocity": 33,
      "track": 0
    },
    {
      "pitch": 67,
      "start_beat": 134.0,
      "duration_beat": 0.125,
      "velocity": 13,
      "track": 0
    },
    {
      "pitch": 70,
      "start_beat": 134.0,
      "duration_beat": 1.42291666666668,
      "velocity": 33,
      "track": 0
    },
    {
      "pitch": 70,
      "start_beat": 134.0,
      "duration_beat": 1.42291666666668,
      "velocity": 43,
      "track": 0
    },
    {
      "pitch": 74,
      "start_beat": 134.0,
      "duration_beat": 1.42291666666668,
      "velocity": 43,
      "track": 0
    },
    {
      "pitch": 77,
      "start_beat": 134.0,
      "duration_beat": 1.42291666666668,
      "velocity": 43,
      "track": 0
    },
    {
      "pitch": 70,
      "start_beat": 134.0,
      "duration_beat": 0.71145833333334,
      "velocity": 33,
      "track": 0
    },
    {
      "pitch": 70,
      "start_beat": 134.0,
      "duration_beat": 0.125,
      "velocity": 13,
      "track": 0
    },
    {
      "pitch": 73,
      "start_beat": 134.0,
      "duration_beat": 1.42291666666668,
      "velocity": 33,
      "track": 0
    },
    {
      "pitch": 73,
      "start_beat": 134.0,
      "duration_beat": 1.42291666666668,
      "velocity": 43,
      "track": 0
    },
    {
      "pitch": 77,
      "start_beat": 134.0,
      "duration_beat": 1.42291666666668,
      "velocity": 43,
      "track": 0
    },
    {
      "pitch": 80,
      "start_beat": 134.0,
      "duration_beat": 1.42291666666668,
      "velocity": 43,
      "track": 0
    },
    {
      "pitch": 73,
      "start_beat": 134.0,
      "duration_beat": 0.71145833333334,
      "velocity": 33,
      "track": 0
    },
    {
      "pitch": 73,
      "start_beat": 134.0,
      "duration_beat": 0.125,
      "velocity": 13,
      "track": 0
    },
    {
      "pitch": 45,
      "start_beat": 134.0,
      "duration_beat": 0.23541666666667993,
      "velocity": 33,
      "track": 1
    },
    {
      "pitch": 45,
      "start_beat": 134.0,
      "duration_beat": 0.23541666666667993,
      "velocity": 43,
      "track": 1
    },
    {
      "pitch": 49,
      "start_beat": 134.0,
      "duration_beat": 0.23541666666667993,
      "velocity": 43,
      "track": 1
    },
    {
      "pitch": 52,
      "start_beat": 134.0,
      "duration_beat": 0.23541666666667993,
      "velocity": 43,
      "track": 1
    },
    {
      "pitch": 45,
      "start_beat": 134.0,
      "duration_beat": 0.11770833333333997,
      "velocity": 33,
      "track": 1
    },
    {
      "pitch": 45,
      "start_beat": 134.0,
      "duration_beat": 0.125,
      "velocity": 13,
      "track": 1
    },
    {
      "pitch": 71,
      "start_beat": 134.125,
      "duration_beat": 0.71145833333334,
      "velocity": 33,
      "track": 0
    },
    {
      "pitch": 74,
      "start_beat": 134.125,
      "duration_beat": 0.71145833333334,
      "velocity": 33,
      "track": 0
    },
    {
      "pitch": 77,
      "start_beat": 134.125,
      "duration_beat": 0.71145833333334,
      "velocity": 33,
      "track": 0
    },
    {
      "pitch": 80,
      "start_beat": 134.125,
      "duration_beat": 0.71145833333334,
      "velocity": 33,
      "track": 0
    },
    {
      "pitch": 52,
      "start_beat": 134.125,
      "duration_beat": 0.11770833333333997,
      "velocity": 33,
      "track": 1
    },
    {
      "pitch": 76,
      "start_beat": 134.25,
      "duration_beat": 0.71145833333334,
      "velocity": 33,
      "track": 0
    },
    {
      "pitch": 64,
      "start_beat": 134.25,
      "duration_beat": 0.125,
      "velocity": 13,
      "track": 0
    },
    {
      "pitch": 79,
      "start_beat": 134.25,
      "duration_beat": 0.71145833333334,
      "velocity": 33,
      "track": 0
    },
    {
      "pitch": 67,
      "start_beat": 134.25,
      "duration_beat": 0.125,
      "velocity": 13,
      "track": 0
    },
    {
      "pitch": 82,
      "start_beat": 134.25,
      "duration_beat": 0.71145833333334,
      "velocity": 33,
      "track": 0
    },
    {
      "pitch": 70,
      "start_beat": 134.25,
      "duration_beat": 0.125,
      "velocity": 13,
      "track": 0
    },
    {
      "pitch": 85,
      "start_beat": 134.25,
      "duration_beat": 0.71145833333334,
      "velocity": 33,
      "track": 0
    },
    {
      "pitch": 73,
      "start_beat": 134.25,
      "duration_beat": 0.125,
      "velocity": 13,
      "track": 0
    },
    {
      "pitch": 57,
      "start_beat": 134.25,
      "duration_beat": 0.11770833333333997,
      "velocity": 33,
      "track": 1
    },
    {
      "pitch": 45,
      "start_beat": 134.25,
      "duration_beat": 0.23541666666667993,
      "velocity": 33,
      "track": 1
    },
    {
      "pitch": 45,
      "start_beat": 134.25,
      "duration_beat": 0.23541666666667993,
      "velocity": 43,
      "track": 1
    },
    {
      "pitch": 49,
      "start_beat": 134.25,
      "duration_beat": 0.23541666666667993,
      "velocity": 43,
      "track": 1
    },
    {
      "pitch": 52,
      "start_beat": 134.25,
      "duration_beat": 0.23541666666667993,
      "velocity": 43,
      "track": 1
    },
    {
      "pitch": 45,
      "start_beat": 134.25,
      "duration_beat": 0.11770833333333997,
      "velocity": 33,
      "track": 1
    },
    {
      "pitch": 45,
      "start_beat": 134.25,
      "duration_beat": 0.125,
      "velocity": 13,
      "track": 1
    },
    {
      "pitch": 52,
      "start_beat": 134.375,
      "duration_beat": 0.11770833333333997,
      "velocity": 33,
      "track": 1
    },
    {
      "pitch": 64,
      "start_beat": 134.5,
      "duration_beat": 0.125,
      "velocity": 13,
      "track": 0
    },
    {
      "pitch": 67,
      "start_beat": 134.5,
      "duration_beat": 0.125,
      "velocity": 13,
      "track": 0
    },
    {
      "pitch": 70,
      "start_beat": 134.5,
      "duration_beat": 0.125,
      "velocity": 13,
      "track": 0
    },
    {
      "pitch": 73,
      "start_beat": 134.5,
      "duration_beat": 0.125,
      "velocity": 13,
      "track": 0
    },
    {
      "pitch": 57,
      "start_beat": 134.5,
      "duration_beat": 0.11770833333333997,
      "velocity": 33,
      "track": 1
    },
    {
      "pitch": 45,
      "start_beat": 134.5,
      "duration_beat": 0.23541666666667993,
      "velocity": 33,
      "track": 1
    },
    {
      "pitch": 45,
      "start_beat": 134.5,
      "duration_beat": 0.23541666666667993,
      "velocity": 43,
      "track": 1
    },
    {
      "pitch": 49,
      "start_beat": 134.5,
      "duration_beat": 0.23541666666667993,
      "velocity": 43,
      "track": 1
    },
    {
      "pitch": 52,
      "start_beat": 134.5,
      "duration_beat": 0.23541666666667993,
      "velocity": 43,
      "track": 1
    },
    {
      "pitch": 45,
      "start_beat": 134.5,
      "duration_beat": 0.11770833333333997,
      "velocity": 33,
      "track": 1
    },
    {
      "pitch": 45,
      "start_beat": 134.5,
      "duration_beat": 0.125,
      "velocity": 13,
      "track": 1
    },
    {
      "pitch": 52,
      "start_beat": 134.625,
      "duration_beat": 0.11770833333333997,
      "velocity": 33,
      "track": 1
    },
    {
      "pitch": 64,
      "start_beat": 134.75,
      "duration_beat": 0.125,
      "velocity": 13,
      "track": 0
    },
    {
      "pitch": 67,
      "start_beat": 134.75,
      "duration_beat": 0.125,
      "velocity": 13,
      "track": 0
    },
    {
      "pitch": 70,
      "start_beat": 134.75,
      "duration_beat": 0.125,
      "velocity": 13,
      "track": 0
    },
    {
      "pitch": 73,
      "start_beat": 134.75,
      "duration_beat": 0.125,
      "velocity": 13,
      "track": 0
    },
    {
      "pitch": 57,
      "start_beat": 134.75,
      "duration_beat": 0.11770833333333997,
      "velocity": 33,
      "track": 1
    },
    {
      "pitch": 45,
      "start_beat": 134.75,
      "duration_beat": 0.23541666666667993,
      "velocity": 33,
      "track": 1
    },
    {
      "pitch": 45,
      "start_beat": 134.75,
      "duration_beat": 0.23541666666667993,
      "velocity": 43,
      "track": 1
    },
    {
      "pitch": 49,
      "start_beat": 134.75,
      "duration_beat": 0.23541666666667993,
      "velocity": 43,
      "track": 1
    },
    {
      "pitch": 52,
      "start_beat": 134.75,
      "duration_beat": 0.23541666666667993,
      "velocity": 43,
      "track": 1
    },
    {
      "pitch": 45,
      "start_beat": 134.75,
      "duration_beat": 0.11770833333333997,
      "velocity": 33,
      "track": 1
    },
    {
      "pitch": 45,
      "start_beat": 134.75,
      "duration_beat": 0.125,
      "velocity": 13,
      "track": 1
    },
    {
      "pitch": 52,
      "start_beat": 134.875,
      "duration_beat": 0.11770833333333997,
      "velocity": 33,
      "track": 1
    },
    {
      "pitch": 64,
      "start_beat": 135.0,
      "duration_beat": 0.125,
      "velocity": 13,
      "track": 0
    },
    {
      "pitch": 67,
      "start_beat": 135.0,
      "duration_beat": 0.125,
      "velocity": 13,
      "track": 0
    },
    {
      "pitch": 70,
      "start_beat": 135.0,
      "duration_beat": 0.125,
      "velocity": 13,
      "track": 0
    },
    {
      "pitch": 73,
      "start_beat": 135.0,
      "duration_beat": 0.125,
      "velocity": 13,
      "track": 0
    },
    {
      "pitch": 57,
      "start_beat": 135.0,
      "duration_beat": 0.11770833333333997,
      "velocity": 33,
      "track": 1
    },
    {
      "pitch": 45,
      "start_beat": 135.0,
      "duration_beat": 0.23541666666667993,
      "velocity": 33,
      "track": 1
    },
    {
      "pitch": 45,
      "start_beat": 135.0,
      "duration_beat": 0.23541666666667993,
      "velocity": 43,
      "track": 1
    },
    {
      "pitch": 49,
      "start_beat": 135.0,
      "duration_beat": 0.23541666666667993,
      "velocity": 43,
      "track": 1
    },
    {
      "pitch": 52,
      "start_beat": 135.0,
      "duration_beat": 0.23541666666667993,
      "velocity": 43,
      "track": 1
    },
    {
      "pitch": 45,
      "start_beat": 135.0,
      "duration_beat": 0.11770833333333997,
      "velocity": 33,
      "track": 1
    },
    {
      "pitch": 45,
      "start_beat": 135.0,
      "duration_beat": 0.125,
      "velocity": 13,
      "track": 1
    },
    {
      "pitch": 52,
      "start_beat": 135.125,
      "duration_beat": 0.11770833333333997,
      "velocity": 33,
      "track": 1
    },
    {
      "pitch": 64,
      "start_beat": 135.25,
      "duration_beat": 0.125,
      "velocity": 13,
      "track": 0
    },
    {
      "pitch": 67,
      "start_beat": 135.25,
      "duration_beat": 0.125,
      "velocity": 13,
      "track": 0
    },
    {
      "pitch": 70,
      "start_beat": 135.25,
      "duration_beat": 0.125,
      "velocity": 13,
      "track": 0
    },
    {
      "pitch": 73,
      "start_beat": 135.25,
      "duration_beat": 0.125,
      "velocity": 13,
      "track": 0
    },
    {
      "pitch": 57,
      "start_beat": 135.25,
      "duration_beat": 0.11770833333333997,
      "velocity": 33,
      "track": 1
    },
    {
      "pitch": 45,
      "start_beat": 135.25,
      "duration_beat": 0.23541666666667993,
      "velocity": 33,
      "track": 1
    },
    {
      "pitch": 45,
      "start_beat": 135.25,
      "duration_beat": 0.23541666666667993,
      "velocity": 43,
      "track": 1
    },
    {
      "pitch": 49,
      "start_beat": 135.25,
      "duration_beat": 0.23541666666667993,
      "velocity": 43,
      "track": 1
    },
    {
      "pitch": 52,
      "start_beat": 135.25,
      "duration_beat": 0.23541666666667993,
      "velocity": 43,
      "track": 1
    },
    {
      "pitch": 45,
      "start_beat": 135.25,
      "duration_beat": 0.11770833333333997,
      "velocity": 33,
      "track": 1
    },
    {
      "pitch": 45,
      "start_beat": 135.25,
      "duration_beat": 0.125,
      "velocity": 13,
      "track": 1
    },
    {
      "pitch": 52,
      "start_beat": 135.375,
      "duration_beat": 0.11770833333333997,
      "velocity": 33,
      "track": 1
    },
    {
      "pitch": 57,
      "start_beat": 135.5,
      "duration_beat": 0.11770833333333997,
      "velocity": 33,
      "track": 1
    },
    {
      "pitch": 65,
      "start_beat": 135.5,
      "duration_beat": 0.9479166666666572,
      "velocity": 33,
      "track": 0
    },
    {
      "pitch": 65,
      "start_beat": 135.5,
      "duration_beat": 0.9479166666666572,
      "velocity": 43,
      "track": 0
    },
    {
      "pitch": 69,
      "start_beat": 135.5,
      "duration_beat": 0.9479166666666572,
      "velocity": 43,
      "track": 0
    },
    {
      "pitch": 72,
      "start_beat": 135.5,
      "duration_beat": 0.9479166666666572,
      "velocity": 43,
      "track": 0
    },
    {
      "pitch": 65,
      "start_beat": 135.5,
      "duration_beat": 0.4739583333333286,
      "velocity": 33,
      "track": 0
    },
    {
      "pitch": 65,
      "start_beat": 135.5,
      "duration_beat": 0.125,
      "velocity": 13,
      "track": 0
    },
    {
      "pitch": 69,
      "start_beat": 135.5,
      "duration_beat": 0.9479166666666572,
      "velocity": 33,
      "track": 0
    },
    {
      "pitch": 69,
      "start_beat": 135.5,
      "duration_beat": 0.9479166666666572,
      "velocity": 43,
      "track": 0
    },
    {
      "pitch": 73,
      "start_beat": 135.5,
      "duration_beat": 0.9479166666666572,
      "velocity": 43,
      "track": 0
    },
    {
      "pitch": 76,
      "start_beat": 135.5,
      "duration_beat": 0.9479166666666572,
      "velocity": 43,
      "track": 0
    },
    {
      "pitch": 69,
      "start_beat": 135.5,
      "duration_beat": 0.4739583333333286,
      "velocity": 33,
      "track": 0
    },
    {
      "pitch": 69,
      "start_beat": 135.5,
      "duration_beat": 0.125,
      "velocity": 13,
      "track": 0
    },
    {
      "pitch": 74,
      "start_beat": 135.5,
      "duration_beat": 0.9479166666666572,
      "velocity": 33,
      "track": 0
    },
    {
      "pitch": 74,
      "start_beat": 135.5,
      "duration_beat": 0.9479166666666572,
      "velocity": 43,
      "track": 0
    },
    {
      "pitch": 78,
      "start_beat": 135.5,
      "duration_beat": 0.9479166666666572,
      "velocity": 43,
      "track": 0
    },
    {
      "pitch": 81,
      "start_beat": 135.5,
      "duration_beat": 0.9479166666666572,
      "velocity": 43,
      "track": 0
    },
    {
      "pitch": 74,
      "start_beat": 135.5,
      "duration_beat": 0.4739583333333286,
      "velocity": 33,
      "track": 0
    },
    {
      "pitch": 74,
      "start_beat": 135.5,
      "duration_beat": 0.125,
      "velocity": 13,
      "track": 0
    },
    {
      "pitch": 45,
      "start_beat": 135.5,
      "duration_beat": 0.23541666666667993,
      "velocity": 33,
      "track": 1
    },
    {
      "pitch": 45,
      "start_beat": 135.5,
      "duration_beat": 0.23541666666667993,
      "velocity": 43,
      "track": 1
    },
    {
      "pitch": 49,
      "start_beat": 135.5,
      "duration_beat": 0.23541666666667993,
      "velocity": 43,
      "track": 1
    },
    {
      "pitch": 52,
      "start_beat": 135.5,
      "duration_beat": 0.23541666666667993,
      "velocity": 43,
      "track": 1
    },
    {
      "pitch": 45,
      "start_beat": 135.5,
      "duration_beat": 0.11770833333333997,
      "velocity": 33,
      "track": 1
    },
    {
      "pitch": 45,
      "start_beat": 135.5,
      "duration_beat": 0.125,
      "velocity": 13,
      "track": 1
    },
    {
      "pitch": 72,
      "start_beat": 135.625,
      "duration_beat": 0.4739583333333286,
      "velocity": 33,
      "track": 0
    },
    {
      "pitch": 76,
      "start_beat": 135.625,
      "duration_beat": 0.4739583333333286,
      "velocity": 33,
      "track": 0
    },
    {
      "pitch": 81,
      "start_beat": 135.625,
      "duration_beat": 0.4739583333333286,
      "velocity": 33,
      "track": 0
    },
    {
      "pitch": 52,
      "start_beat": 135.625,
      "duration_beat": 0.11770833333333997,
      "velocity": 33,
      "track": 1
    },
    {
      "pitch": 77,
      "start_beat": 135.75,
      "duration_beat": 0.4739583333333286,
      "velocity": 33,
      "track": 0
    },
    {
      "pitch": 65,
      "start_beat": 135.75,
      "duration_beat": 0.125,
      "velocity": 13,
      "track": 0
    },
    {
      "pitch": 81,
      "start_beat": 135.75,
      "duration_beat": 0.4739583333333286,
      "velocity": 33,
      "track": 0
    },
    {
      "pitch": 69,
      "start_beat": 135.75,
      "duration_beat": 0.125,
      "velocity": 13,
      "track": 0
    },
    {
      "pitch": 86,
      "start_beat": 135.75,
      "duration_beat": 0.4739583333333286,
      "velocity": 33,
      "track": 0
    },
    {
      "pitch": 74,
      "start_beat": 135.75,
      "duration_beat": 0.125,
      "velocity": 13,
      "track": 0
    },
    {
      "pitch": 57,
      "start_beat": 135.75,
      "duration_beat": 0.11770833333333997,
      "velocity": 33,
      "track": 1
    },
    {
      "pitch": 45,
      "start_beat": 135.75,
      "duration_beat": 0.23541666666667993,
      "velocity": 33,
      "track": 1
    },
    {
      "pitch": 45,
      "start_beat": 135.75,
      "duration_beat": 0.23541666666667993,
      "velocity": 43,
      "track": 1
    },
    {
      "pitch": 49,
      "start_beat": 135.75,
      "duration_beat": 0.23541666666667993,
      "velocity": 43,
      "track": 1
    },
    {
      "pitch": 52,
      "start_beat": 135.75,
      "duration_beat": 0.23541666666667993,
      "velocity": 43,
      "track": 1
    },
    {
      "pitch": 45,
      "start_beat": 135.75,
      "duration_beat": 0.11770833333333997,
      "velocity": 33,
      "track": 1
    },
    {
      "pitch": 45,
      "start_beat": 135.75,
      "duration_beat": 0.125,
      "velocity": 13,
      "track": 1
    },
    {
      "pitch": 52,
      "start_beat": 135.875,
      "duration_beat": 0.11770833333333997,
      "velocity": 33,
      "track": 1
    },
    {
      "pitch": 65,
      "start_beat": 136.0,
      "duration_beat": 0.125,
      "velocity": 13,
      "track": 0
    },
    {
      "pitch": 69,
      "start_beat": 136.0,
      "duration_beat": 0.125,
      "velocity": 13,
      "track": 0
    },
    {
      "pitch": 74,
      "start_beat": 136.0,
      "duration_beat": 0.125,
      "velocity": 13,
      "track": 0
    },
    {
      "pitch": 57,
      "start_beat": 136.0,
      "duration_beat": 0.11770833333333997,
      "velocity": 33,
      "track": 1
    },
    {
      "pitch": 45,
      "start_beat": 136.0,
      "duration_beat": 0.23541666666667993,
      "velocity": 33,
      "track": 1
    },
    {
      "pitch": 45,
      "start_beat": 136.0,
      "duration_beat": 0.23541666666667993,
      "velocity": 43,
      "track": 1
    },
    {
      "pitch": 49,
      "start_beat": 136.0,
      "duration_beat": 0.23541666666667993,
      "velocity": 43,
      "track": 1
    },
    {
      "pitch": 52,
      "start_beat": 136.0,
      "duration_beat": 0.23541666666667993,
      "velocity": 43,
      "track": 1
    },
    {
      "pitch": 45,
      "start_beat": 136.0,
      "duration_beat": 0.11770833333333997,
      "velocity": 33,
      "track": 1
    },
    {
      "pitch": 45,
      "start_beat": 136.0,
      "duration_beat": 0.125,
      "velocity": 13,
      "track": 1
    },
    {
      "pitch": 52,
      "start_beat": 136.125,
      "duration_beat": 0.11770833333333997,
      "velocity": 33,
      "track": 1
    },
    {
      "pitch": 65,
      "start_beat": 136.25,
      "duration_beat": 0.125,
      "velocity": 13,
      "track": 0
    },
    {
      "pitch": 69,
      "start_beat": 136.25,
      "duration_beat": 0.125,
      "velocity": 13,
      "track": 0
    },
    {
      "pitch": 74,
      "start_beat": 136.25,
      "duration_beat": 0.125,
      "velocity": 13,
      "track": 0
    },
    {
      "pitch": 57,
      "start_beat": 136.25,
      "duration_beat": 0.11770833333333997,
      "velocity": 33,
      "track": 1
    },
    {
      "pitch": 45,
      "start_beat": 136.25,
      "duration_beat": 0.23541666666667993,
      "velocity": 33,
      "track": 1
    },
    {
      "pitch": 45,
      "start_beat": 136.25,
      "duration_beat": 0.23541666666667993,
      "velocity": 43,
      "track": 1
    },
    {
      "pitch": 49,
      "start_beat": 136.25,
      "duration_beat": 0.23541666666667993,
      "velocity": 43,
      "track": 1
    },
    {
      "pitch": 52,
      "start_beat": 136.25,
      "duration_beat": 0.23541666666667993,
      "velocity": 43,
      "track": 1
    },
    {
      "pitch": 45,
      "start_beat": 136.25,
      "duration_beat": 0.11770833333333997,
      "velocity": 33,
      "track": 1
    },
    {
      "pitch": 45,
      "start_beat": 136.25,
      "duration_beat": 0.125,
      "velocity": 13,
      "track": 1
    },
    {
      "pitch": 52,
      "start_beat": 136.375,
      "duration_beat": 0.11770833333333997,
      "velocity": 33,
      "track": 1
    },
    {
      "pitch": 57,
      "start_beat": 136.5,
      "duration_beat": 0.11770833333333997,
      "velocity": 33,
      "track": 1
    },
    {
      "pitch": 73,
      "start_beat": 136.5,
      "duration_beat": 0.23541666666667993,
      "velocity": 33,
      "track": 0
    },
    {
      "pitch": 73,
      "start_beat": 136.5,
      "duration_beat": 0.23541666666667993,
      "velocity": 43,
      "track": 0
    },
    {
      "pitch": 77,
      "start_beat": 136.5,
      "duration_beat": 0.23541666666667993,
      "velocity": 43,
      "track": 0
    },
    {
      "pitch": 80,
      "start_beat": 136.5,
      "duration_beat": 0.23541666666667993,
      "velocity": 43,
      "track": 0
    },
    {
      "pitch": 73,
      "start_beat": 136.5,
      "duration_beat": 0.11770833333333997,
      "velocity": 33,
      "track": 0
    },
    {
      "pitch": 73,
      "start_beat": 136.5,
      "duration_beat": 0.125,
      "velocity": 13,
      "track": 0
    },
    {
      "pitch": 76,
      "start_beat": 136.5,
      "duration_beat": 0.23541666666667993,
      "velocity": 33,
      "track": 0
    },
    {
      "pitch": 76,
      "start_beat": 136.5,
      "duration_beat": 0.23541666666667993,
      "velocity": 43,
      "track": 0
    },
    {
      "pitch": 80,
      "start_beat": 136.5,
      "duration_beat": 0.23541666666667993,
      "velocity": 43,
      "track": 0
    },
    {
      "pitch": 83,
      "start_beat": 136.5,
      "duration_beat": 0.23541666666667993,
      "velocity": 43,
      "track": 0
    },
    {
      "pitch": 76,
      "start_beat": 136.5,
      "duration_beat": 0.11770833333333997,
      "velocity": 33,
      "track": 0
    },
    {
      "pitch": 76,
      "start_beat": 136.5,
      "duration_beat": 0.125,
      "velocity": 13,
      "track": 0
    },
    {
      "pitch": 45,
      "start_beat": 136.5,
      "duration_beat": 0.23541666666667993,
      "velocity": 33,
      "track": 1
    },
    {
      "pitch": 45,
      "start_beat": 136.5,
      "duration_beat": 0.23541666666667993,
      "velocity": 43,
      "track": 1
    },
    {
      "pitch": 49,
      "start_beat": 136.5,
      "duration_beat": 0.23541666666667993,
      "velocity": 43,
      "track": 1
    },
    {
      "pitch": 52,
      "start_beat": 136.5,
      "duration_beat": 0.23541666666667993,
      "velocity": 43,
      "track": 1
    },
    {
      "pitch": 45,
      "start_beat": 136.5,
      "duration_beat": 0.11770833333333997,
      "velocity": 33,
      "track": 1
    },
    {
      "pitch": 45,
      "start_beat": 136.5,
      "duration_beat": 0.125,
      "velocity": 13,
      "track": 1
    },
    {
      "pitch": 80,
      "start_beat": 136.625,
      "duration_beat": 0.11770833333333997,
      "velocity": 33,
      "track": 0
    },
    {
      "pitch": 83,
      "start_beat": 136.625,
      "duration_beat": 0.11770833333333997,
      "velocity": 33,
      "track": 0
    },
    {
      "pitch": 52,
      "start_beat": 136.625,
      "duration_beat": 0.11770833333333997,
      "velocity": 33,
      "track": 1
    },
    {
      "pitch": 85,
      "start_beat": 136.75,
      "duration_beat": 0.11770833333333997,
      "velocity": 33,
      "track": 0
    },
    {
      "pitch": 88,
      "start_beat": 136.75,
      "duration_beat": 0.11770833333333997,
      "velocity": 33,
      "track": 0
    },
    {
      "pitch": 57,
      "start_beat": 136.75,
      "duration_beat": 0.11770833333333997,
      "velocity": 33,
      "track": 1
    },
    {
      "pitch": 74,
      "start_beat": 136.75,
      "duration_beat": 0.23541666666667993,
      "velocity": 33,
      "track": 0
    },
    {
      "pitch": 74,
      "start_beat": 136.75,
      "duration_beat": 0.23541666666667993,
      "velocity": 43,
      "track": 0
    },
    {
      "pitch": 78,
      "start_beat": 136.75,
      "duration_beat": 0.23541666666667993,
      "velocity": 43,
      "track": 0
    },
    {
      "pitch": 81,
      "start_beat": 136.75,
      "duration_beat": 0.23541666666667993,
      "velocity": 43,
      "track": 0
    },
    {
      "pitch": 74,
      "start_beat": 136.75,
      "duration_beat": 0.11770833333333997,
      "velocity": 33,
      "track": 0
    },
    {
      "pitch": 74,
      "start_beat": 136.75,
      "duration_beat": 0.125,
      "velocity": 13,
      "track": 0
    },
    {
      "pitch": 77,
      "start_beat": 136.75,
      "duration_beat": 0.23541666666667993,
      "velocity": 33,
      "track": 0
    },
    {
      "pitch": 77,
      "start_beat": 136.75,
      "duration_beat": 0.23541666666667993,
      "velocity": 43,
      "track": 0
    },
    {
      "pitch": 81,
      "start_beat": 136.75,
      "duration_beat": 0.23541666666667993,
      "velocity": 43,
      "track": 0
    },
    {
      "pitch": 84,
      "start_beat": 136.75,
      "duration_beat": 0.23541666666667993,
      "velocity": 43,
      "track": 0
    },
    {
      "pitch": 77,
      "start_beat": 136.75,
      "duration_beat": 0.11770833333333997,
      "velocity": 33,
      "track": 0
    },
    {
      "pitch": 77,
      "start_beat": 136.75,
      "duration_beat": 0.125,
      "velocity": 13,
      "track": 0
    },
    {
      "pitch": 45,
      "start_beat": 136.75,
      "duration_beat": 0.23541666666667993,
      "velocity": 33,
      "track": 1
    },
    {
      "pitch": 45,
      "start_beat": 136.75,
      "duration_beat": 0.23541666666667993,
      "velocity": 43,
      "track": 1
    },
    {
      "pitch": 49,
      "start_beat": 136.75,
      "duration_beat": 0.23541666666667993,
      "velocity": 43,
      "track": 1
    },
    {
      "pitch": 52,
      "start_beat": 136.75,
      "duration_beat": 0.23541666666667993,
      "velocity": 43,
      "track": 1
    },
    {
      "pitch": 45,
      "start_beat": 136.75,
      "duration_beat": 0.11770833333333997,
      "velocity": 33,
      "track": 1
    },
    {
      "pitch": 45,
      "start_beat": 136.75,
      "duration_beat": 0.125,
      "velocity": 13,
      "track": 1
    },
    {
      "pitch": 81,
      "start_beat": 136.875,
      "duration_beat": 0.11770833333333997,
      "velocity": 33,
      "track": 0
    },
    {
      "pitch": 84,
      "start_beat": 136.875,
      "duration_beat": 0.11770833333333997,
      "velocity": 33,
      "track": 0
    },
    {
      "pitch": 52,
      "start_beat": 136.875,
      "duration_beat": 0.11770833333333997,
      "velocity": 33,
      "track": 1
    },
    {
      "pitch": 86,
      "start_beat": 137.0,
      "duration_beat": 0.11770833333333997,
      "velocity": 33,
      "track": 0
    },
    {
      "pitch": 89,
      "start_beat": 137.0,
      "duration_beat": 0.11770833333333997,
      "velocity": 33,
      "track": 0
    },
    {
      "pitch": 57,
      "start_beat": 137.0,
      "duration_beat": 0.11770833333333997,
      "velocity": 33,
      "track": 1
    },
    {
      "pitch": 74,
      "start_beat": 137.0,
      "duration_beat": 0.9479166666666572,
      "velocity": 33,
      "track": 0
    },
    {
      "pitch": 74,
      "start_beat": 137.0,
      "duration_beat": 0.9479166666666572,
      "velocity": 43,
      "track": 0
    },
    {
      "pitch": 78,
      "start_beat": 137.0,
      "duration_beat": 0.9479166666666572,
      "velocity": 43,
      "track": 0
    },
    {
      "pitch": 81,
      "start_beat": 137.0,
      "duration_beat": 0.9479166666666572,
      "velocity": 43,
      "track": 0
    },
    {
      "pitch": 74,
      "start_beat": 137.0,
      "duration_beat": 0.4739583333333286,
      "velocity": 33,
      "track": 0
    },
    {
      "pitch": 74,
      "start_beat": 137.0,
      "duration_beat": 0.125,
      "velocity": 13,
      "track": 0
    },
    {
      "pitch": 77,
      "start_beat": 137.0,
      "duration_beat": 0.9479166666666572,
      "velocity": 33,
      "track": 0
    },
    {
      "pitch": 77,
      "start_beat": 137.0,
      "duration_beat": 0.9479166666666572,
      "velocity": 43,
      "track": 0
    },
    {
      "pitch": 81,
      "start_beat": 137.0,
      "duration_beat": 0.9479166666666572,
      "velocity": 43,
      "track": 0
    },
    {
      "pitch": 84,
      "start_beat": 137.0,
      "duration_beat": 0.9479166666666572,
      "velocity": 43,
      "track": 0
    },
    {
      "pitch": 77,
      "start_beat": 137.0,
      "duration_beat": 0.4739583333333286,
      "velocity": 33,
      "track": 0
    },
    {
      "pitch": 77,
      "start_beat": 137.0,
      "duration_beat": 0.125,
      "velocity": 13,
      "track": 0
    },
    {
      "pitch": 45,
      "start_beat": 137.0,
      "duration_beat": 0.23541666666667993,
      "velocity": 33,
      "track": 1
    },
    {
      "pitch": 45,
      "start_beat": 137.0,
      "duration_beat": 0.23541666666667993,
      "velocity": 43,
      "track": 1
    },
    {
      "pitch": 49,
      "start_beat": 137.0,
      "duration_beat": 0.23541666666667993,
      "velocity": 43,
      "track": 1
    },
    {
      "pitch": 52,
      "start_beat": 137.0,
      "duration_beat": 0.23541666666667993,
      "velocity": 43,
      "track": 1
    },
    {
      "pitch": 45,
      "start_beat": 137.0,
      "duration_beat": 0.11770833333333997,
      "velocity": 33,
      "track": 1
    },
    {
      "pitch": 45,
      "start_beat": 137.0,
      "duration_beat": 0.125,
      "velocity": 13,
      "track": 1
    },
    {
      "pitch": 81,
      "start_beat": 137.125,
      "duration_beat": 0.4739583333333286,
      "velocity": 33,
      "track": 0
    },
    {
      "pitch": 84,
      "start_beat": 137.125,
      "duration_beat": 0.4739583333333286,
      "velocity": 33,
      "track": 0
    },
    {
      "pitch": 52,
      "start_beat": 137.125,
      "duration_beat": 0.11770833333333997,
      "velocity": 33,
      "track": 1
    },
    {
      "pitch": 86,
      "start_beat": 137.25,
      "duration_beat": 0.4739583333333286,
      "velocity": 33,
      "track": 0
    },
    {
      "pitch": 74,
      "start_beat": 137.25,
      "duration_beat": 0.125,
      "velocity": 13,
      "track": 0
    },
    {
      "pitch": 89,
      "start_beat": 137.25,
      "duration_beat": 0.4739583333333286,
      "velocity": 33,
      "track": 0
    },
    {
      "pitch": 77,
      "start_beat": 137.25,
      "duration_beat": 0.125,
      "velocity": 13,
      "track": 0
    },
    {
      "pitch": 57,
      "start_beat": 137.25,
      "duration_beat": 0.11770833333333997,
      "velocity": 33,
      "track": 1
    },
    {
      "pitch": 45,
      "start_beat": 137.25,
      "duration_beat": 0.23541666666667993,
      "velocity": 33,
      "track": 1
    },
    {
      "pitch": 45,
      "start_beat": 137.25,
      "duration_beat": 0.23541666666667993,
      "velocity": 43,
      "track": 1
    },
    {
      "pitch": 49,
      "start_beat": 137.25,
      "duration_beat": 0.23541666666667993,
      "velocity": 43,
      "track": 1
    },
    {
      "pitch": 52,
      "start_beat": 137.25,
      "duration_beat": 0.23541666666667993,
      "velocity": 43,
      "track": 1
    },
    {
      "pitch": 45,
      "start_beat": 137.25,
      "duration_beat": 0.11770833333333997,
      "velocity": 33,
      "track": 1
    },
    {
      "pitch": 45,
      "start_beat": 137.25,
      "duration_beat": 0.125,
      "velocity": 13,
      "track": 1
    },
    {
      "pitch": 52,
      "start_beat": 137.375,
      "duration_beat": 0.11770833333333997,
      "velocity": 33,
      "track": 1
    },
    {
      "pitch": 74,
      "start_beat": 137.5,
      "duration_beat": 0.125,
      "velocity": 13,
      "track": 0
    },
    {
      "pitch": 77,
      "start_beat": 137.5,
      "duration_beat": 0.125,
      "velocity": 13,
      "track": 0
    },
    {
      "pitch": 57,
      "start_beat": 137.5,
      "duration_beat": 0.11770833333333997,
      "velocity": 33,
      "track": 1
    },
    {
      "pitch": 45,
      "start_beat": 137.5,
      "duration_beat": 0.23541666666667993,
      "velocity": 33,
      "track": 1
    },
    {
      "pitch": 45,
      "start_beat": 137.5,
      "duration_beat": 0.23541666666667993,
      "velocity": 43,
      "track": 1
    },
    {
      "pitch": 49,
      "start_beat": 137.5,
      "duration_beat": 0.23541666666667993,
      "velocity": 43,
      "track": 1
    },
    {
      "pitch": 52,
      "start_beat": 137.5,
      "duration_beat": 0.23541666666667993,
      "velocity": 43,
      "track": 1
    },
    {
      "pitch": 45,
      "start_beat": 137.5,
      "duration_beat": 0.11770833333333997,
      "velocity": 33,
      "track": 1
    },
    {
      "pitch": 45,
      "start_beat": 137.5,
      "duration_beat": 0.125,
      "velocity": 13,
      "track": 1
    },
    {
      "pitch": 52,
      "start_beat": 137.625,
      "duration_beat": 0.11770833333333997,
      "velocity": 33,
      "track": 1
    },
    {
      "pitch": 74,
      "start_beat": 137.75,
      "duration_beat": 0.125,
      "velocity": 13,
      "track": 0
    },
    {
      "pitch": 77,
      "start_beat": 137.75,
      "duration_beat": 0.125,
      "velocity": 13,
      "track": 0
    },
    {
      "pitch": 57,
      "start_beat": 137.75,
      "duration_beat": 0.11770833333333997,
      "velocity": 33,
      "track": 1
    },
    {
      "pitch": 45,
      "start_beat": 137.75,
      "duration_beat": 0.23541666666667993,
      "velocity": 33,
      "track": 1
    },
    {
      "pitch": 45,
      "start_beat": 137.75,
      "duration_beat": 0.23541666666667993,
      "velocity": 43,
      "track": 1
    },
    {
      "pitch": 49,
      "start_beat": 137.75,
      "duration_beat": 0.23541666666667993,
      "velocity": 43,
      "track": 1
    },
    {
      "pitch": 52,
      "start_beat": 137.75,
      "duration_beat": 0.23541666666667993,
      "velocity": 43,
      "track": 1
    },
    {
      "pitch": 45,
      "start_beat": 137.75,
      "duration_beat": 0.11770833333333997,
      "velocity": 33,
      "track": 1
    },
    {
      "pitch": 45,
      "start_beat": 137.75,
      "duration_beat": 0.125,
      "velocity": 13,
      "track": 1
    },
    {
      "pitch": 52,
      "start_beat": 137.875,
      "duration_beat": 0.11770833333333997,
      "velocity": 33,
      "track": 1
    },
    {
      "pitch": 57,
      "start_beat": 138.0,
      "duration_beat": 0.11770833333333997,
      "velocity": 33,
      "track": 1
    },
    {
      "pitch": 74,
      "start_beat": 138.0,
      "duration_beat": 0.4729166666666629,
      "velocity": 33,
      "track": 0
    },
    {
      "pitch": 74,
      "start_beat": 138.0,
      "duration_beat": 0.4729166666666629,
      "velocity": 43,
      "track": 0
    },
    {
      "pitch": 78,
      "start_beat": 138.0,
      "duration_beat": 0.4729166666666629,
      "velocity": 43,
      "track": 0
    },
    {
      "pitch": 81,
      "start_beat": 138.0,
      "duration_beat": 0.4729166666666629,
      "velocity": 43,
      "track": 0
    },
    {
      "pitch": 74,
      "start_beat": 138.0,
      "duration_beat": 0.23645833333333144,
      "velocity": 33,
      "track": 0
    },
    {
      "pitch": 74,
      "start_beat": 138.0,
      "duration_beat": 0.125,
      "velocity": 13,
      "track": 0
    },
    {
      "pitch": 77,
      "start_beat": 138.0,
      "duration_beat": 0.4729166666666629,
      "velocity": 33,
      "track": 0
    },
    {
      "pitch": 77,
      "start_beat": 138.0,
      "duration_beat": 0.4729166666666629,
      "velocity": 43,
      "track": 0
    },
    {
      "pitch": 81,
      "start_beat": 138.0,
      "duration_beat": 0.4729166666666629,
      "velocity": 43,
      "track": 0
    },
    {
      "pitch": 84,
      "start_beat": 138.0,
      "duration_beat": 0.4729166666666629,
      "velocity": 43,
      "track": 0
    },
    {
      "pitch": 77,
      "start_beat": 138.0,
      "duration_beat": 0.23645833333333144,
      "velocity": 33,
      "track": 0
    },
    {
      "pitch": 77,
      "start_beat": 138.0,
      "duration_beat": 0.125,
      "velocity": 13,
      "track": 0
    },
    {
      "pitch": 45,
      "start_beat": 138.0,
      "duration_beat": 0.23541666666667993,
      "velocity": 33,
      "track": 1
    },
    {
      "pitch": 45,
      "start_beat": 138.0,
      "duration_beat": 0.23541666666667993,
      "velocity": 43,
      "track": 1
    },
    {
      "pitch": 49,
      "start_beat": 138.0,
      "duration_beat": 0.23541666666667993,
      "velocity": 43,
      "track": 1
    },
    {
      "pitch": 52,
      "start_beat": 138.0,
      "duration_beat": 0.23541666666667993,
      "velocity": 43,
      "track": 1
    },
    {
      "pitch": 45,
      "start_beat": 138.0,
      "duration_beat": 0.11770833333333997,
      "velocity": 33,
      "track": 1
    },
    {
      "pitch": 45,
      "start_beat": 138.0,
      "duration_beat": 0.125,
      "velocity": 13,
      "track": 1
    },
    {
      "pitch": 81,
      "start_beat": 138.125,
      "duration_beat": 0.23645833333333144,
      "velocity": 33,
      "track": 0
    },
    {
      "pitch": 84,
      "start_beat": 138.125,
      "duration_beat": 0.23645833333333144,
      "velocity": 33,
      "track": 0
    },
    {
      "pitch": 52,
      "start_beat": 138.125,
      "duration_beat": 0.11770833333333997,
      "velocity": 33,
      "track": 1
    },
    {
      "pitch": 86,
      "start_beat": 138.25,
      "duration_beat": 0.23645833333333144,
      "velocity": 33,
      "track": 0
    },
    {
      "pitch": 74,
      "start_beat": 138.25,
      "duration_beat": 0.125,
      "velocity": 13,
      "track": 0
    },
    {
      "pitch": 89,
      "start_beat": 138.25,
      "duration_beat": 0.23645833333333144,
      "velocity": 33,
      "track": 0
    },
    {
      "pitch": 77,
      "start_beat": 138.25,
      "duration_beat": 0.125,
      "velocity": 13,
      "track": 0
    },
    {
      "pitch": 57,
      "start_beat": 138.25,
      "duration_beat": 0.11770833333333997,
      "velocity": 33,
      "track": 1
    },
    {
      "pitch": 45,
      "start_beat": 138.25,
      "duration_beat": 0.23541666666667993,
      "velocity": 33,
      "track": 1
    },
    {
      "pitch": 45,
      "start_beat": 138.25,
      "duration_beat": 0.23541666666667993,
      "velocity": 43,
      "track": 1
    },
    {
      "pitch": 49,
      "start_beat": 138.25,
      "duration_beat": 0.23541666666667993,
      "velocity": 43,
      "track": 1
    },
    {
      "pitch": 52,
      "start_beat": 138.25,
      "duration_beat": 0.23541666666667993,
      "velocity": 43,
      "track": 1
    },
    {
      "pitch": 45,
      "start_beat": 138.25,
      "duration_beat": 0.11770833333333997,
      "velocity": 33,
      "track": 1
    },
    {
      "pitch": 45,
      "start_beat": 138.25,
      "duration_beat": 0.125,
      "velocity": 13,
      "track": 1
    },
    {
      "pitch": 52,
      "start_beat": 138.375,
      "duration_beat": 0.11770833333333997,
      "velocity": 33,
      "track": 1
    },
    {
      "pitch": 57,
      "start_beat": 138.5,
      "duration_beat": 0.11770833333333997,
      "velocity": 33,
      "track": 1
    },
    {
      "pitch": 74,
      "start_beat": 138.5,
      "duration_beat": 1.42291666666668,
      "velocity": 33,
      "track": 0
    },
    {
      "pitch": 74,
      "start_beat": 138.5,
      "duration_beat": 1.42291666666668,
      "velocity": 43,
      "track": 0
    },
    {
      "pitch": 78,
      "start_beat": 138.5,
      "duration_beat": 1.42291666666668,
      "velocity": 43,
      "track": 0
    },
    {
      "pitch": 81,
      "start_beat": 138.5,
      "duration_beat": 1.42291666666668,
      "velocity": 43,
      "track": 0
    },
    {
      "pitch": 74,
      "start_beat": 138.5,
      "duration_beat": 0.71145833333334,
      "velocity": 33,
      "track": 0
    },
    {
      "pitch": 74,
      "start_beat": 138.5,
      "duration_beat": 0.125,
      "velocity": 13,
      "track": 0
    },
    {
      "pitch": 77,
      "start_beat": 138.5,
      "duration_beat": 1.42291666666668,
      "velocity": 33,
      "track": 0
    },
    {
      "pitch": 77,
      "start_beat": 138.5,
      "duration_beat": 1.42291666666668,
      "velocity": 43,
      "track": 0
    },
    {
      "pitch": 81,
      "start_beat": 138.5,
      "duration_beat": 1.42291666666668,
      "velocity": 43,
      "track": 0
    },
    {
      "pitch": 84,
      "start_beat": 138.5,
      "duration_beat": 1.42291666666668,
      "velocity": 43,
      "track": 0
    },
    {
      "pitch": 77,
      "start_beat": 138.5,
      "duration_beat": 0.71145833333334,
      "velocity": 33,
      "track": 0
    },
    {
      "pitch": 77,
      "start_beat": 138.5,
      "duration_beat": 0.125,
      "velocity": 13,
      "track": 0
    },
    {
      "pitch": 46,
      "start_beat": 138.5,
      "duration_beat": 0.23541666666667993,
      "velocity": 33,
      "track": 1
    },
    {
      "pitch": 46,
      "start_beat": 138.5,
      "duration_beat": 0.23541666666667993,
      "velocity": 43,
      "track": 1
    },
    {
      "pitch": 50,
      "start_beat": 138.5,
      "duration_beat": 0.23541666666667993,
      "velocity": 43,
      "track": 1
    },
    {
      "pitch": 53,
      "start_beat": 138.5,
      "duration_beat": 0.23541666666667993,
      "velocity": 43,
      "track": 1
    },
    {
      "pitch": 46,
      "start_beat": 138.5,
      "duration_beat": 0.11770833333333997,
      "velocity": 33,
      "track": 1
    },
    {
      "pitch": 46,
      "start_beat": 138.5,
      "duration_beat": 0.125,
      "velocity": 13,
      "track": 1
    },
    {
      "pitch": 81,
      "start_beat": 138.625,
      "duration_beat": 0.71145833333334,
      "velocity": 33,
      "track": 0
    },
    {
      "pitch": 84,
      "start_beat": 138.625,
      "duration_beat": 0.71145833333334,
      "velocity": 33,
      "track": 0
    },
    {
      "pitch": 53,
      "start_beat": 138.625,
      "duration_beat": 0.11770833333333997,
      "velocity": 33,
      "track": 1
    },
    {
      "pitch": 86,
      "start_beat": 138.75,
      "duration_beat": 0.71145833333334,
      "velocity": 33,
      "track": 0
    },
    {
      "pitch": 74,
      "start_beat": 138.75,
      "duration_beat": 0.125,
      "velocity": 13,
      "track": 0
    },
    {
      "pitch": 89,
      "start_beat": 138.75,
      "duration_beat": 0.71145833333334,
      "velocity": 33,
      "track": 0
    },
    {
      "pitch": 77,
      "start_beat": 138.75,
      "duration_beat": 0.125,
      "velocity": 13,
      "track": 0
    },
    {
      "pitch": 58,
      "start_beat": 138.75,
      "duration_beat": 0.11770833333333997,
      "velocity": 33,
      "track": 1
    },
    {
      "pitch": 46,
      "start_beat": 138.75,
      "duration_beat": 0.23541666666667993,
      "velocity": 33,
      "track": 1
    },
    {
      "pitch": 46,
      "start_beat": 138.75,
      "duration_beat": 0.23541666666667993,
      "velocity": 43,
      "track": 1
    },
    {
      "pitch": 50,
      "start_beat": 138.75,
      "duration_beat": 0.23541666666667993,
      "velocity": 43,
      "track": 1
    },
    {
      "pitch": 53,
      "start_beat": 138.75,
      "duration_beat": 0.23541666666667993,
      "velocity": 43,
      "track": 1
    },
    {
      "pitch": 46,
      "start_beat": 138.75,
      "duration_beat": 0.11770833333333997,
      "velocity": 33,
      "track": 1
    },
    {
      "pitch": 46,
      "start_beat": 138.75,
      "duration_beat": 0.125,
      "velocity": 13,
      "track": 1
    },
    {
      "pitch": 53,
      "start_beat": 138.875,
      "duration_beat": 0.11770833333333997,
      "velocity": 33,
      "track": 1
    },
    {
      "pitch": 74,
      "start_beat": 139.0,
      "duration_beat": 0.125,
      "velocity": 13,
      "track": 0
    },
    {
      "pitch": 77,
      "start_beat": 139.0,
      "duration_beat": 0.125,
      "velocity": 13,
      "track": 0
    },
    {
      "pitch": 58,
      "start_beat": 139.0,
      "duration_beat": 0.11770833333333997,
      "velocity": 33,
      "track": 1
    },
    {
      "pitch": 46,
      "start_beat": 139.0,
      "duration_beat": 0.23541666666667993,
      "velocity": 33,
      "track": 1
    },
    {
      "pitch": 46,
      "start_beat": 139.0,
      "duration_beat": 0.23541666666667993,
      "velocity": 43,
      "track": 1
    },
    {
      "pitch": 50,
      "start_beat": 139.0,
      "duration_beat": 0.23541666666667993,
      "velocity": 43,
      "track": 1
    },
    {
      "pitch": 53,
      "start_beat": 139.0,
      "duration_beat": 0.23541666666667993,
      "velocity": 43,
      "track": 1
    },
    {
      "pitch": 46,
      "start_beat": 139.0,
      "duration_beat": 0.11770833333333997,
      "velocity": 33,
      "track": 1
    },
    {
      "pitch": 46,
      "start_beat": 139.0,
      "duration_beat": 0.125,
      "velocity": 13,
      "track": 1
    },
    {
      "pitch": 53,
      "start_beat": 139.125,
      "duration_beat": 0.11770833333333997,
      "velocity": 33,
      "track": 1
    },
    {
      "pitch": 74,
      "start_beat": 139.25,
      "duration_beat": 0.125,
      "velocity": 13,
      "track": 0
    },
    {
      "pitch": 77,
      "start_beat": 139.25,
      "duration_beat": 0.125,
      "velocity": 13,
      "track": 0
    },
    {
      "pitch": 58,
      "start_beat": 139.25,
      "duration_beat": 0.11770833333333997,
      "velocity": 33,
      "track": 1
    },
    {
      "pitch": 46,
      "start_beat": 139.25,
      "duration_beat": 0.23541666666667993,
      "velocity": 33,
      "track": 1
    },
    {
      "pitch": 46,
      "start_beat": 139.25,
      "duration_beat": 0.23541666666667993,
      "velocity": 43,
      "track": 1
    },
    {
      "pitch": 50,
      "start_beat": 139.25,
      "duration_beat": 0.23541666666667993,
      "velocity": 43,
      "track": 1
    },
    {
      "pitch": 53,
      "start_beat": 139.25,
      "duration_beat": 0.23541666666667993,
      "velocity": 43,
      "track": 1
    },
    {
      "pitch": 46,
      "start_beat": 139.25,
      "duration_beat": 0.11770833333333997,
      "velocity": 33,
      "track": 1
    },
    {
      "pitch": 46,
      "start_beat": 139.25,
      "duration_beat": 0.125,
      "velocity": 13,
      "track": 1
    },
    {
      "pitch": 53,
      "start_beat": 139.375,
      "duration_beat": 0.11770833333333997,
      "velocity": 33,
      "track": 1
    },
    {
      "pitch": 74,
      "start_beat": 139.5,
      "duration_beat": 0.125,
      "velocity": 13,
      "track": 0
    },
    {
      "pitch": 77,
      "start_beat": 139.5,
      "duration_beat": 0.125,
      "velocity": 13,
      "track": 0
    },
    {
      "pitch": 58,
      "start_beat": 139.5,
      "duration_beat": 0.11770833333333997,
      "velocity": 33,
      "track": 1
    },
    {
      "pitch": 46,
      "start_beat": 139.5,
      "duration_beat": 0.23541666666667993,
      "velocity": 33,
      "track": 1
    },
    {
      "pitch": 46,
      "start_beat": 139.5,
      "duration_beat": 0.23541666666667993,
      "velocity": 43,
      "track": 1
    },
    {
      "pitch": 50,
      "start_beat": 139.5,
      "duration_beat": 0.23541666666667993,
      "velocity": 43,
      "track": 1
    },
    {
      "pitch": 53,
      "start_beat": 139.5,
      "duration_beat": 0.23541666666667993,
      "velocity": 43,
      "track": 1
    },
    {
      "pitch": 46,
      "start_beat": 139.5,
      "duration_beat": 0.11770833333333997,
      "velocity": 33,
      "track": 1
    },
    {
      "pitch": 46,
      "start_beat": 139.5,
      "duration_beat": 0.125,
      "velocity": 13,
      "track": 1
    },
    {
      "pitch": 53,
      "start_beat": 139.625,
      "duration_beat": 0.11770833333333997,
      "velocity": 33,
      "track": 1
    },
    {
      "pitch": 74,
      "start_beat": 139.75,
      "duration_beat": 0.125,
      "velocity": 13,
      "track": 0
    },
    {
      "pitch": 77,
      "start_beat": 139.75,
      "duration_beat": 0.125,
      "velocity": 13,
      "track": 0
    },
    {
      "pitch": 58,
      "start_beat": 139.75,
      "duration_beat": 0.11770833333333997,
      "velocity": 33,
      "track": 1
    },
    {
      "pitch": 46,
      "start_beat": 139.75,
      "duration_beat": 0.23541666666667993,
      "velocity": 33,
      "track": 1
    },
    {
      "pitch": 46,
      "start_beat": 139.75,
      "duration_beat": 0.23541666666667993,
      "velocity": 43,
      "track": 1
    },
    {
      "pitch": 50,
      "start_beat": 139.75,
      "duration_beat": 0.23541666666667993,
      "velocity": 43,
      "track": 1
    },
    {
      "pitch": 53,
      "start_beat": 139.75,
      "duration_beat": 0.23541666666667993,
      "velocity": 43,
      "track": 1
    },
    {
      "pitch": 46,
      "start_beat": 139.75,
      "duration_beat": 0.11770833333333997,
      "velocity": 33,
      "track": 1
    },
    {
      "pitch": 46,
      "start_beat": 139.75,
      "duration_beat": 0.125,
      "velocity": 13,
      "track": 1
    },
    {
      "pitch": 53,
      "start_beat": 139.875,
      "duration_beat": 0.11770833333333997,
      "velocity": 33,
      "track": 1
    },
    {
      "pitch": 58,
      "start_beat": 140.0,
      "duration_beat": 0.11770833333333997,
      "velocity": 33,
      "track": 1
    },
    {
      "pitch": 67,
      "start_beat": 140.0,
      "duration_beat": 0.9479166666666572,
      "velocity": 33,
      "track": 0
    },
    {
      "pitch": 67,
      "start_beat": 140.0,
      "duration_beat": 0.9479166666666572,
      "velocity": 43,
      "track": 0
    },
    {
      "pitch": 71,
      "start_beat": 140.0,
      "duration_beat": 0.9479166666666572,
      "velocity": 43,
      "track": 0
    },
    {
      "pitch": 74,
      "start_beat": 140.0,
      "duration_beat": 0.9479166666666572,
      "velocity": 43,
      "track": 0
    },
    {
      "pitch": 67,
      "start_beat": 140.0,
      "duration_beat": 0.4739583333333286,
      "velocity": 33,
      "track": 0
    },
    {
      "pitch": 67,
      "start_beat": 140.0,
      "duration_beat": 0.125,
      "velocity": 13,
      "track": 0
    },
    {
      "pitch": 75,
      "start_beat": 140.0,
      "duration_beat": 0.9479166666666572,
      "velocity": 33,
      "track": 0
    },
    {
      "pitch": 75,
      "start_beat": 140.0,
      "duration_beat": 0.9479166666666572,
      "velocity": 43,
      "track": 0
    },
    {
      "pitch": 79,
      "start_beat": 140.0,
      "duration_beat": 0.9479166666666572,
      "velocity": 43,
      "track": 0
    },
    {
      "pitch": 82,
      "start_beat": 140.0,
      "duration_beat": 0.9479166666666572,
      "velocity": 43,
      "track": 0
    },
    {
      "pitch": 75,
      "start_beat": 140.0,
      "duration_beat": 0.4739583333333286,
      "velocity": 33,
      "track": 0
    },
    {
      "pitch": 75,
      "start_beat": 140.0,
      "duration_beat": 0.125,
      "velocity": 13,
      "track": 0
    },
    {
      "pitch": 46,
      "start_beat": 140.0,
      "duration_beat": 0.23541666666667993,
      "velocity": 33,
      "track": 1
    },
    {
      "pitch": 46,
      "start_beat": 140.0,
      "duration_beat": 0.23541666666667993,
      "velocity": 43,
      "track": 1
    },
    {
      "pitch": 50,
      "start_beat": 140.0,
      "duration_beat": 0.23541666666667993,
      "velocity": 43,
      "track": 1
    },
    {
      "pitch": 53,
      "start_beat": 140.0,
      "duration_beat": 0.23541666666667993,
      "velocity": 43,
      "track": 1
    },
    {
      "pitch": 46,
      "start_beat": 140.0,
      "duration_beat": 0.11770833333333997,
      "velocity": 33,
      "track": 1
    },
    {
      "pitch": 46,
      "start_beat": 140.0,
      "duration_beat": 0.125,
      "velocity": 13,
      "track": 1
    },
    {
      "pitch": 74,
      "start_beat": 140.125,
      "duration_beat": 0.4739583333333286,
      "velocity": 33,
      "track": 0
    },
    {
      "pitch": 82,
      "start_beat": 140.125,
      "duration_beat": 0.4739583333333286,
      "velocity": 33,
      "track": 0
    },
    {
      "pitch": 53,
      "start_beat": 140.125,
      "duration_beat": 0.11770833333333997,
      "velocity": 33,
      "track": 1
    },
    {
      "pitch": 79,
      "start_beat": 140.25,
      "duration_beat": 0.4739583333333286,
      "velocity": 33,
      "track": 0
    },
    {
      "pitch": 67,
      "start_beat": 140.25,
      "duration_beat": 0.125,
      "velocity": 13,
      "track": 0
    },
    {
      "pitch": 87,
      "start_beat": 140.25,
      "duration_beat": 0.4739583333333286,
      "velocity": 33,
      "track": 0
    },
    {
      "pitch": 75,
      "start_beat": 140.25,
      "duration_beat": 0.125,
      "velocity": 13,
      "track": 0
    },
    {
      "pitch": 58,
      "start_beat": 140.25,
      "duration_beat": 0.11770833333333997,
      "velocity": 33,
      "track": 1
    },
    {
      "pitch": 46,
      "start_beat": 140.25,
      "duration_beat": 0.23541666666667993,
      "velocity": 33,
      "track": 1
    },
    {
      "pitch": 46,
      "start_beat": 140.25,
      "duration_beat": 0.23541666666667993,
      "velocity": 43,
      "track": 1
    },
    {
      "pitch": 50,
      "start_beat": 140.25,
      "duration_beat": 0.23541666666667993,
      "velocity": 43,
      "track": 1
    },
    {
      "pitch": 53,
      "start_beat": 140.25,
      "duration_beat": 0.23541666666667993,
      "velocity": 43,
      "track": 1
    },
    {
      "pitch": 46,
      "start_beat": 140.25,
      "duration_beat": 0.11770833333333997,
      "velocity": 33,
      "track": 1
    },
    {
      "pitch": 46,
      "start_beat": 140.25,
      "duration_beat": 0.125,
      "velocity": 13,
      "track": 1
    },
    {
      "pitch": 53,
      "start_beat": 140.375,
      "duration_beat": 0.11770833333333997,
      "velocity": 33,
      "track": 1
    },
    {
      "pitch": 67,
      "start_beat": 140.5,
      "duration_beat": 0.125,
      "velocity": 13,
      "track": 0
    },
    {
      "pitch": 75,
      "start_beat": 140.5,
      "duration_beat": 0.125,
      "velocity": 13,
      "track": 0
    },
    {
      "pitch": 58,
      "start_beat": 140.5,
      "duration_beat": 0.11770833333333997,
      "velocity": 33,
      "track": 1
    },
    {
      "pitch": 46,
      "start_beat": 140.5,
      "duration_beat": 0.23541666666667993,
      "velocity": 33,
      "track": 1
    },
    {
      "pitch": 46,
      "start_beat": 140.5,
      "duration_beat": 0.23541666666667993,
      "velocity": 43,
      "track": 1
    },
    {
      "pitch": 50,
      "start_beat": 140.5,
      "duration_beat": 0.23541666666667993,
      "velocity": 43,
      "track": 1
    },
    {
      "pitch": 53,
      "start_beat": 140.5,
      "duration_beat": 0.23541666666667993,
      "velocity": 43,
      "track": 1
    },
    {
      "pitch": 46,
      "start_beat": 140.5,
      "duration_beat": 0.11770833333333997,
      "velocity": 33,
      "track": 1
    },
    {
      "pitch": 46,
      "start_beat": 140.5,
      "duration_beat": 0.125,
      "velocity": 13,
      "track": 1
    },
    {
      "pitch": 53,
      "start_beat": 140.625,
      "duration_beat": 0.11770833333333997,
      "velocity": 33,
      "track": 1
    },
    {
      "pitch": 67,
      "start_beat": 140.75,
      "duration_beat": 0.125,
      "velocity": 13,
      "track": 0
    },
    {
      "pitch": 75,
      "start_beat": 140.75,
      "duration_beat": 0.125,
      "velocity": 13,
      "track": 0
    },
    {
      "pitch": 58,
      "start_beat": 140.75,
      "duration_beat": 0.11770833333333997,
      "velocity": 33,
      "track": 1
    },
    {
      "pitch": 46,
      "start_beat": 140.75,
      "duration_beat": 0.23541666666667993,
      "velocity": 33,
      "track": 1
    },
    {
      "pitch": 46,
      "start_beat": 140.75,
      "duration_beat": 0.23541666666667993,
      "velocity": 43,
      "track": 1
    },
    {
      "pitch": 50,
      "start_beat": 140.75,
      "duration_beat": 0.23541666666667993,
      "velocity": 43,
      "track": 1
    },
    {
      "pitch": 53,
      "start_beat": 140.75,
      "duration_beat": 0.23541666666667993,
      "velocity": 43,
      "track": 1
    },
    {
      "pitch": 46,
      "start_beat": 140.75,
      "duration_beat": 0.11770833333333997,
      "velocity": 33,
      "track": 1
    },
    {
      "pitch": 46,
      "start_beat": 140.75,
      "duration_beat": 0.125,
      "velocity": 13,
      "track": 1
    },
    {
      "pitch": 53,
      "start_beat": 140.875,
      "duration_beat": 0.11770833333333997,
      "velocity": 33,
      "track": 1
    },
    {
      "pitch": 58,
      "start_beat": 141.0,
      "duration_beat": 0.11770833333333997,
      "velocity": 33,
      "track": 1
    },
    {
      "pitch": 65,
      "start_beat": 141.0,
      "duration_beat": 0.23541666666667993,
      "velocity": 33,
      "track": 0
    },
    {
      "pitch": 65,
      "start_beat": 141.0,
      "duration_beat": 0.23541666666667993,
      "velocity": 43,
      "track": 0
    },
    {
      "pitch": 69,
      "start_beat": 141.0,
      "duration_beat": 0.23541666666667993,
      "velocity": 43,
      "track": 0
    },
    {
      "pitch": 72,
      "start_beat": 141.0,
      "duration_beat": 0.23541666666667993,
      "velocity": 43,
      "track": 0
    },
    {
      "pitch": 65,
      "start_beat": 141.0,
      "duration_beat": 0.11770833333333997,
      "velocity": 33,
      "track": 0
    },
    {
      "pitch": 65,
      "start_beat": 141.0,
      "duration_beat": 0.125,
      "velocity": 13,
      "track": 0
    },
    {
      "pitch": 74,
      "start_beat": 141.0,
      "duration_beat": 0.23541666666667993,
      "velocity": 33,
      "track": 0
    },
    {
      "pitch": 74,
      "start_beat": 141.0,
      "duration_beat": 0.23541666666667993,
      "velocity": 43,
      "track": 0
    },
    {
      "pitch": 78,
      "start_beat": 141.0,
      "duration_beat": 0.23541666666667993,
      "velocity": 43,
      "track": 0
    },
    {
      "pitch": 81,
      "start_beat": 141.0,
      "duration_beat": 0.23541666666667993,
      "velocity": 43,
      "track": 0
    },
    {
      "pitch": 74,
      "start_beat": 141.0,
      "duration_beat": 0.11770833333333997,
      "velocity": 33,
      "track": 0
    },
    {
      "pitch": 74,
      "start_beat": 141.0,
      "duration_beat": 0.125,
      "velocity": 13,
      "track": 0
    },
    {
      "pitch": 46,
      "start_beat": 141.0,
      "duration_beat": 0.23541666666667993,
      "velocity": 33,
      "track": 1
    },
    {
      "pitch": 46,
      "start_beat": 141.0,
      "duration_beat": 0.23541666666667993,
      "velocity": 43,
      "track": 1
    },
    {
      "pitch": 50,
      "start_beat": 141.0,
      "duration_beat": 0.23541666666667993,
      "velocity": 43,
      "track": 1
    },
    {
      "pitch": 53,
      "start_beat": 141.0,
      "duration_beat": 0.23541666666667993,
      "velocity": 43,
      "track": 1
    },
    {
      "pitch": 46,
      "start_beat": 141.0,
      "duration_beat": 0.11770833333333997,
      "velocity": 33,
      "track": 1
    },
    {
      "pitch": 46,
      "start_beat": 141.0,
      "duration_beat": 0.125,
      "velocity": 13,
      "track": 1
    },
    {
      "pitch": 72,
      "start_beat": 141.125,
      "duration_beat": 0.11770833333333997,
      "velocity": 33,
      "track": 0
    },
    {
      "pitch": 81,
      "start_beat": 141.125,
      "duration_beat": 0.11770833333333997,
      "velocity": 33,
      "track": 0
    },
    {
      "pitch": 53,
      "start_beat": 141.125,
      "duration_beat": 0.11770833333333997,
      "velocity": 33,
      "track": 1
    },
    {
      "pitch": 77,
      "start_beat": 141.25,
      "duration_beat": 0.11770833333333997,
      "velocity": 33,
      "track": 0
    },
    {
      "pitch": 86,
      "start_beat": 141.25,
      "duration_beat": 0.11770833333333997,
      "velocity": 33,
      "track": 0
    },
    {
      "pitch": 58,
      "start_beat": 141.25,
      "duration_beat": 0.11770833333333997,
      "velocity": 33,
      "track": 1
    },
    {
      "pitch": 63,
      "start_beat": 141.25,
      "duration_beat": 0.23541666666667993,
      "velocity": 33,
      "track": 0
    },
    {
      "pitch": 63,
      "start_beat": 141.25,
      "duration_beat": 0.23541666666667993,
      "velocity": 43,
      "track": 0
    },
    {
      "pitch": 67,
      "start_beat": 141.25,
      "duration_beat": 0.23541666666667993,
      "velocity": 43,
      "track": 0
    },
    {
      "pitch": 70,
      "start_beat": 141.25,
      "duration_beat": 0.23541666666667993,
      "velocity": 43,
      "track": 0
    },
    {
      "pitch": 63,
      "start_beat": 141.25,
      "duration_beat": 0.11770833333333997,
      "velocity": 33,
      "track": 0
    },
    {
      "pitch": 63,
      "start_beat": 141.25,
      "duration_beat": 0.125,
      "velocity": 13,
      "track": 0
    },
    {
      "pitch": 72,
      "start_beat": 141.25,
      "duration_beat": 0.23541666666667993,
      "velocity": 33,
      "track": 0
    },
    {
      "pitch": 72,
      "start_beat": 141.25,
      "duration_beat": 0.23541666666667993,
      "velocity": 43,
      "track": 0
    },
    {
      "pitch": 76,
      "start_beat": 141.25,
      "duration_beat": 0.23541666666667993,
      "velocity": 43,
      "track": 0
    },
    {
      "pitch": 79,
      "start_beat": 141.25,
      "duration_beat": 0.23541666666667993,
      "velocity": 43,
      "track": 0
    },
    {
      "pitch": 72,
      "start_beat": 141.25,
      "duration_beat": 0.11770833333333997,
      "velocity": 33,
      "track": 0
    },
    {
      "pitch": 72,
      "start_beat": 141.25,
      "duration_beat": 0.125,
      "velocity": 13,
      "track": 0
    },
    {
      "pitch": 46,
      "start_beat": 141.25,
      "duration_beat": 0.23541666666667993,
      "velocity": 33,
      "track": 1
    },
    {
      "pitch": 46,
      "start_beat": 141.25,
      "duration_beat": 0.23541666666667993,
      "velocity": 43,
      "track": 1
    },
    {
      "pitch": 50,
      "start_beat": 141.25,
      "duration_beat": 0.23541666666667993,
      "velocity": 43,
      "track": 1
    },
    {
      "pitch": 53,
      "start_beat": 141.25,
      "duration_beat": 0.23541666666667993,
      "velocity": 43,
      "track": 1
    },
    {
      "pitch": 46,
      "start_beat": 141.25,
      "duration_beat": 0.11770833333333997,
      "velocity": 33,
      "track": 1
    },
    {
      "pitch": 46,
      "start_beat": 141.25,
      "duration_beat": 0.125,
      "velocity": 13,
      "track": 1
    },
    {
      "pitch": 70,
      "start_beat": 141.375,
      "duration_beat": 0.11770833333333997,
      "velocity": 33,
      "track": 0
    },
    {
      "pitch": 79,
      "start_beat": 141.375,
      "duration_beat": 0.11770833333333997,
      "velocity": 33,
      "track": 0
    },
    {
      "pitch": 53,
      "start_beat": 141.375,
      "duration_beat": 0.11770833333333997,
      "velocity": 33,
      "track": 1
    },
    {
      "pitch": 75,
      "start_beat": 141.5,
      "duration_beat": 0.11770833333333997,
      "velocity": 33,
      "track": 0
    },
    {
      "pitch": 84,
      "start_beat": 141.5,
      "duration_beat": 0.11770833333333997,
      "velocity": 33,
      "track": 0
    },
    {
      "pitch": 58,
      "start_beat": 141.5,
      "duration_beat": 0.11770833333333997,
      "velocity": 33,
      "track": 1
    },
    {
      "pitch": 62,
      "start_beat": 141.5,
      "duration_beat": 0.9479166666666572,
      "velocity": 33,
      "track": 0
    },
    {
      "pitch": 62,
      "start_beat": 141.5,
      "duration_beat": 0.9479166666666572,
      "velocity": 43,
      "track": 0
    },
    {
      "pitch": 66,
      "start_beat": 141.5,
      "duration_beat": 0.9479166666666572,
      "velocity": 43,
      "track": 0
    },
    {
      "pitch": 69,
      "start_beat": 141.5,
      "duration_beat": 0.9479166666666572,
      "velocity": 43,
      "track": 0
    },
    {
      "pitch": 62,
      "start_beat": 141.5,
      "duration_beat": 0.4739583333333286,
      "velocity": 33,
      "track": 0
    },
    {
      "pitch": 62,
      "start_beat": 141.5,
      "duration_beat": 0.125,
      "velocity": 13,
      "track": 0
    },
    {
      "pitch": 65,
      "start_beat": 141.5,
      "duration_beat": 0.9479166666666572,
      "velocity": 33,
      "track": 0
    },
    {
      "pitch": 65,
      "start_beat": 141.5,
      "duration_beat": 0.9479166666666572,
      "velocity": 43,
      "track": 0
    },
    {
      "pitch": 69,
      "start_beat": 141.5,
      "duration_beat": 0.9479166666666572,
      "velocity": 43,
      "track": 0
    },
    {
      "pitch": 72,
      "start_beat": 141.5,
      "duration_beat": 0.9479166666666572,
      "velocity": 43,
      "track": 0
    },
    {
      "pitch": 65,
      "start_beat": 141.5,
      "duration_beat": 0.4739583333333286,
      "velocity": 33,
      "track": 0
    },
    {
      "pitch": 65,
      "start_beat": 141.5,
      "duration_beat": 0.125,
      "velocity": 13,
      "track": 0
    },
    {
      "pitch": 70,
      "start_beat": 141.5,
      "duration_beat": 0.9479166666666572,
      "velocity": 33,
      "track": 0
    },
    {
      "pitch": 70,
      "start_beat": 141.5,
      "duration_beat": 0.9479166666666572,
      "velocity": 43,
      "track": 0
    },
    {
      "pitch": 74,
      "start_beat": 141.5,
      "duration_beat": 0.9479166666666572,
      "velocity": 43,
      "track": 0
    },
    {
      "pitch": 77,
      "start_beat": 141.5,
      "duration_beat": 0.9479166666666572,
      "velocity": 43,
      "track": 0
    },
    {
      "pitch": 70,
      "start_beat": 141.5,
      "duration_beat": 0.4739583333333286,
      "velocity": 33,
      "track": 0
    },
    {
      "pitch": 70,
      "start_beat": 141.5,
      "duration_beat": 0.125,
      "velocity": 13,
      "track": 0
    },
    {
      "pitch": 46,
      "start_beat": 141.5,
      "duration_beat": 0.23541666666667993,
      "velocity": 33,
      "track": 1
    },
    {
      "pitch": 46,
      "start_beat": 141.5,
      "duration_beat": 0.23541666666667993,
      "velocity": 43,
      "track": 1
    },
    {
      "pitch": 50,
      "start_beat": 141.5,
      "duration_beat": 0.23541666666667993,
      "velocity": 43,
      "track": 1
    },
    {
      "pitch": 53,
      "start_beat": 141.5,
      "duration_beat": 0.23541666666667993,
      "velocity": 43,
      "track": 1
    },
    {
      "pitch": 46,
      "start_beat": 141.5,
      "duration_beat": 0.11770833333333997,
      "velocity": 33,
      "track": 1
    },
    {
      "pitch": 46,
      "start_beat": 141.5,
      "duration_beat": 0.125,
      "velocity": 13,
      "track": 1
    },
    {
      "pitch": 69,
      "start_beat": 141.625,
      "duration_beat": 0.4739583333333286,
      "velocity": 33,
      "track": 0
    },
    {
      "pitch": 72,
      "start_beat": 141.625,
      "duration_beat": 0.4739583333333286,
      "velocity": 33,
      "track": 0
    },
    {
      "pitch": 77,
      "start_beat": 141.625,
      "duration_beat": 0.4739583333333286,
      "velocity": 33,
      "track": 0
    },
    {
      "pitch": 53,
      "start_beat": 141.625,
      "duration_beat": 0.11770833333333997,
      "velocity": 33,
      "track": 1
    },
    {
      "pitch": 74,
      "start_beat": 141.75,
      "duration_beat": 0.4739583333333286,
      "velocity": 33,
      "track": 0
    },
    {
      "pitch": 62,
      "start_beat": 141.75,
      "duration_beat": 0.125,
      "velocity": 13,
      "track": 0
    },
    {
      "pitch": 77,
      "start_beat": 141.75,
      "duration_beat": 0.4739583333333286,
      "velocity": 33,
      "track": 0
    },
    {
      "pitch": 65,
      "start_beat": 141.75,
      "duration_beat": 0.125,
      "velocity": 13,
      "track": 0
    },
    {
      "pitch": 82,
      "start_beat": 141.75,
      "duration_beat": 0.4739583333333286,
      "velocity": 33,
      "track": 0
    },
    {
      "pitch": 70,
      "start_beat": 141.75,
      "duration_beat": 0.125,
      "velocity": 13,
      "track": 0
    },
    {
      "pitch": 58,
      "start_beat": 141.75,
      "duration_beat": 0.11770833333333997,
      "velocity": 33,
      "track": 1
    },
    {
      "pitch": 46,
      "start_beat": 141.75,
      "duration_beat": 0.23541666666667993,
      "velocity": 33,
      "track": 1
    },
    {
      "pitch": 46,
      "start_beat": 141.75,
      "duration_beat": 0.23541666666667993,
      "velocity": 43,
      "track": 1
    },
    {
      "pitch": 50,
      "start_beat": 141.75,
      "duration_beat": 0.23541666666667993,
      "velocity": 43,
      "track": 1
    },
    {
      "pitch": 53,
      "start_beat": 141.75,
      "duration_beat": 0.23541666666667993,
      "velocity": 43,
      "track": 1
    },
    {
      "pitch": 46,
      "start_beat": 141.75,
      "duration_beat": 0.11770833333333997,
      "velocity": 33,
      "track": 1
    },
    {
      "pitch": 46,
      "start_beat": 141.75,
      "duration_beat": 0.125,
      "velocity": 13,
      "track": 1
    },
    {
      "pitch": 53,
      "start_beat": 141.875,
      "duration_beat": 0.11770833333333997,
      "velocity": 33,
      "track": 1
    },
    {
      "pitch": 62,
      "start_beat": 142.0,
      "duration_beat": 0.125,
      "velocity": 13,
      "track": 0
    },
    {
      "pitch": 65,
      "start_beat": 142.0,
      "duration_beat": 0.125,
      "velocity": 13,
      "track": 0
    },
    {
      "pitch": 70,
      "start_beat": 142.0,
      "duration_beat": 0.125,
      "velocity": 13,
      "track": 0
    },
    {
      "pitch": 58,
      "start_beat": 142.0,
      "duration_beat": 0.11770833333333997,
      "velocity": 33,
      "track": 1
    },
    {
      "pitch": 46,
      "start_beat": 142.0,
      "duration_beat": 0.23541666666667993,
      "velocity": 33,
      "track": 1
    },
    {
      "pitch": 46,
      "start_beat": 142.0,
      "duration_beat": 0.23541666666667993,
      "velocity": 43,
      "track": 1
    },
    {
      "pitch": 50,
      "start_beat": 142.0,
      "duration_beat": 0.23541666666667993,
      "velocity": 43,
      "track": 1
    },
    {
      "pitch": 53,
      "start_beat": 142.0,
      "duration_beat": 0.23541666666667993,
      "velocity": 43,
      "track": 1
    },
    {
      "pitch": 46,
      "start_beat": 142.0,
      "duration_beat": 0.11770833333333997,
      "velocity": 33,
      "track": 1
    },
    {
      "pitch": 46,
      "start_beat": 142.0,
      "duration_beat": 0.125,
      "velocity": 13,
      "track": 1
    },
    {
      "pitch": 53,
      "start_beat": 142.125,
      "duration_beat": 0.11770833333333997,
      "velocity": 33,
      "track": 1
    },
    {
      "pitch": 62,
      "start_beat": 142.25,
      "duration_beat": 0.125,
      "velocity": 13,
      "track": 0
    },
    {
      "pitch": 65,
      "start_beat": 142.25,
      "duration_beat": 0.125,
      "velocity": 13,
      "track": 0
    },
    {
      "pitch": 70,
      "start_beat": 142.25,
      "duration_beat": 0.125,
      "velocity": 13,
      "track": 0
    },
    {
      "pitch": 58,
      "start_beat": 142.25,
      "duration_beat": 0.11770833333333997,
      "velocity": 33,
      "track": 1
    },
    {
      "pitch": 46,
      "start_beat": 142.25,
      "duration_beat": 0.23541666666667993,
      "velocity": 33,
      "track": 1
    },
    {
      "pitch": 46,
      "start_beat": 142.25,
      "duration_beat": 0.23541666666667993,
      "velocity": 43,
      "track": 1
    },
    {
      "pitch": 50,
      "start_beat": 142.25,
      "duration_beat": 0.23541666666667993,
      "velocity": 43,
      "track": 1
    },
    {
      "pitch": 53,
      "start_beat": 142.25,
      "duration_beat": 0.23541666666667993,
      "velocity": 43,
      "track": 1
    },
    {
      "pitch": 46,
      "start_beat": 142.25,
      "duration_beat": 0.11770833333333997,
      "velocity": 33,
      "track": 1
    },
    {
      "pitch": 46,
      "start_beat": 142.25,
      "duration_beat": 0.125,
      "velocity": 13,
      "track": 1
    },
    {
      "pitch": 53,
      "start_beat": 142.375,
      "duration_beat": 0.11770833333333997,
      "velocity": 33,
      "track": 1
    },
    {
      "pitch": 58,
      "start_beat": 142.5,
      "duration_beat": 0.11770833333333997,
      "velocity": 33,
      "track": 1
    },
    {
      "pitch": 62,
      "start_beat": 142.5,
      "duration_beat": 0.4729166666666629,
      "velocity": 33,
      "track": 0
    },
    {
      "pitch": 62,
      "start_beat": 142.5,
      "duration_beat": 0.4729166666666629,
      "velocity": 43,
      "track": 0
    },
    {
      "pitch": 66,
      "start_beat": 142.5,
      "duration_beat": 0.4729166666666629,
      "velocity": 43,
      "track": 0
    },
    {
      "pitch": 69,
      "start_beat": 142.5,
      "duration_beat": 0.4729166666666629,
      "velocity": 43,
      "track": 0
    },
    {
      "pitch": 62,
      "start_beat": 142.5,
      "duration_beat": 0.23645833333333144,
      "velocity": 33,
      "track": 0
    },
    {
      "pitch": 62,
      "start_beat": 142.5,
      "duration_beat": 0.125,
      "velocity": 13,
      "track": 0
    },
    {
      "pitch": 65,
      "start_beat": 142.5,
      "duration_beat": 0.4729166666666629,
      "velocity": 33,
      "track": 0
    },
    {
      "pitch": 65,
      "start_beat": 142.5,
      "duration_beat": 0.4729166666666629,
      "velocity": 43,
      "track": 0
    },
    {
      "pitch": 69,
      "start_beat": 142.5,
      "duration_beat": 0.4729166666666629,
      "velocity": 43,
      "track": 0
    },
    {
      "pitch": 72,
      "start_beat": 142.5,
      "duration_beat": 0.4729166666666629,
      "velocity": 43,
      "track": 0
    },
    {
      "pitch": 65,
      "start_beat": 142.5,
      "duration_beat": 0.23645833333333144,
      "velocity": 33,
      "track": 0
    },
    {
      "pitch": 65,
      "start_beat": 142.5,
      "duration_beat": 0.125,
      "velocity": 13,
      "track": 0
    },
    {
      "pitch": 69,
      "start_beat": 142.5,
      "duration_beat": 0.4729166666666629,
      "velocity": 33,
      "track": 0
    },
    {
      "pitch": 69,
      "start_beat": 142.5,
      "duration_beat": 0.4729166666666629,
      "velocity": 43,
      "track": 0
    },
    {
      "pitch": 73,
      "start_beat": 142.5,
      "duration_beat": 0.4729166666666629,
      "velocity": 43,
      "track": 0
    },
    {
      "pitch": 76,
      "start_beat": 142.5,
      "duration_beat": 0.4729166666666629,
      "velocity": 43,
      "track": 0
    },
    {
      "pitch": 69,
      "start_beat": 142.5,
      "duration_beat": 0.23645833333333144,
      "velocity": 33,
      "track": 0
    },
    {
      "pitch": 69,
      "start_beat": 142.5,
      "duration_beat": 0.125,
      "velocity": 13,
      "track": 0
    },
    {
      "pitch": 46,
      "start_beat": 142.5,
      "duration_beat": 0.23541666666667993,
      "velocity": 33,
      "track": 1
    },
    {
      "pitch": 46,
      "start_beat": 142.5,
      "duration_beat": 0.23541666666667993,
      "velocity": 43,
      "track": 1
    },
    {
      "pitch": 50,
      "start_beat": 142.5,
      "duration_beat": 0.23541666666667993,
      "velocity": 43,
      "track": 1
    },
    {
      "pitch": 53,
      "start_beat": 142.5,
      "duration_beat": 0.23541666666667993,
      "velocity": 43,
      "track": 1
    },
    {
      "pitch": 46,
      "start_beat": 142.5,
      "duration_beat": 0.11770833333333997,
      "velocity": 33,
      "track": 1
    },
    {
      "pitch": 46,
      "start_beat": 142.5,
      "duration_beat": 0.125,
      "velocity": 13,
      "track": 1
    },
    {
      "pitch": 69,
      "start_beat": 142.625,
      "duration_beat": 0.23645833333333144,
      "velocity": 33,
      "track": 0
    },
    {
      "pitch": 72,
      "start_beat": 142.625,
      "duration_beat": 0.23645833333333144,
      "velocity": 33,
      "track": 0
    },
    {
      "pitch": 76,
      "start_beat": 142.625,
      "duration_beat": 0.23645833333333144,
      "velocity": 33,
      "track": 0
    },
    {
      "pitch": 53,
      "start_beat": 142.625,
      "duration_beat": 0.11770833333333997,
      "velocity": 33,
      "track": 1
    },
    {
      "pitch": 74,
      "start_beat": 142.75,
      "duration_beat": 0.23645833333333144,
      "velocity": 33,
      "track": 0
    },
    {
      "pitch": 62,
      "start_beat": 142.75,
      "duration_beat": 0.125,
      "velocity": 13,
      "track": 0
    },
    {
      "pitch": 77,
      "start_beat": 142.75,
      "duration_beat": 0.23645833333333144,
      "velocity": 33,
      "track": 0
    },
    {
      "pitch": 65,
      "start_beat": 142.75,
      "duration_beat": 0.125,
      "velocity": 13,
      "track": 0
    },
    {
      "pitch": 81,
      "start_beat": 142.75,
      "duration_beat": 0.23645833333333144,
      "velocity": 33,
      "track": 0
    },
    {
      "pitch": 69,
      "start_beat": 142.75,
      "duration_beat": 0.125,
      "velocity": 13,
      "track": 0
    },
    {
      "pitch": 58,
      "start_beat": 142.75,
      "duration_beat": 0.11770833333333997,
      "velocity": 33,
      "track": 1
    },
    {
      "pitch": 46,
      "start_beat": 142.75,
      "duration_beat": 0.23541666666667993,
      "velocity": 33,
      "track": 1
    },
    {
      "pitch": 46,
      "start_beat": 142.75,
      "duration_beat": 0.23541666666667993,
      "velocity": 43,
      "track": 1
    },
    {
      "pitch": 50,
      "start_beat": 142.75,
      "duration_beat": 0.23541666666667993,
      "velocity": 43,
      "track": 1
    },
    {
      "pitch": 53,
      "start_beat": 142.75,
      "duration_beat": 0.23541666666667993,
      "velocity": 43,
      "track": 1
    },
    {
      "pitch": 46,
      "start_beat": 142.75,
      "duration_beat": 0.11770833333333997,
      "velocity": 33,
      "track": 1
    },
    {
      "pitch": 46,
      "start_beat": 142.75,
      "duration_beat": 0.125,
      "velocity": 13,
      "track": 1
    },
    {
      "pitch": 53,
      "start_beat": 142.875,
      "duration_beat": 0.11770833333333997,
      "velocity": 33,
      "track": 1
    },
    {
      "pitch": 58,
      "start_beat": 143.0,
      "duration_beat": 0.11770833333333997,
      "velocity": 33,
      "track": 1
    },
    {
      "pitch": 62,
      "start_beat": 143.0,
      "duration_beat": 0.9479166666666572,
      "velocity": 33,
      "track": 0
    },
    {
      "pitch": 62,
      "start_beat": 143.0,
      "duration_beat": 0.9479166666666572,
      "velocity": 43,
      "track": 0
    },
    {
      "pitch": 66,
      "start_beat": 143.0,
      "duration_beat": 0.9479166666666572,
      "velocity": 43,
      "track": 0
    },
    {
      "pitch": 69,
      "start_beat": 143.0,
      "duration_beat": 0.9479166666666572,
      "velocity": 43,
      "track": 0
    },
    {
      "pitch": 62,
      "start_beat": 143.0,
      "duration_beat": 0.4739583333333286,
      "velocity": 33,
      "track": 0
    },
    {
      "pitch": 62,
      "start_beat": 143.0,
      "duration_beat": 0.125,
      "velocity": 13,
      "track": 0
    },
    {
      "pitch": 65,
      "start_beat": 143.0,
      "duration_beat": 0.9479166666666572,
      "velocity": 33,
      "track": 0
    },
    {
      "pitch": 65,
      "start_beat": 143.0,
      "duration_beat": 0.9479166666666572,
      "velocity": 43,
      "track": 0
    },
    {
      "pitch": 69,
      "start_beat": 143.0,
      "duration_beat": 0.9479166666666572,
      "velocity": 43,
      "track": 0
    },
    {
      "pitch": 72,
      "start_beat": 143.0,
      "duration_beat": 0.9479166666666572,
      "velocity": 43,
      "track": 0
    },
    {
      "pitch": 65,
      "start_beat": 143.0,
      "duration_beat": 0.4739583333333286,
      "velocity": 33,
      "track": 0
    },
    {
      "pitch": 65,
      "start_beat": 143.0,
      "duration_beat": 0.125,
      "velocity": 13,
      "track": 0
    },
    {
      "pitch": 68,
      "start_beat": 143.0,
      "duration_beat": 0.9479166666666572,
      "velocity": 33,
      "track": 0
    },
    {
      "pitch": 68,
      "start_beat": 143.0,
      "duration_beat": 0.9479166666666572,
      "velocity": 43,
      "track": 0
    },
    {
      "pitch": 72,
      "start_beat": 143.0,
      "duration_beat": 0.9479166666666572,
      "velocity": 43,
      "track": 0
    },
    {
      "pitch": 75,
      "start_beat": 143.0,
      "duration_beat": 0.9479166666666572,
      "velocity": 43,
      "track": 0
    },
    {
      "pitch": 68,
      "start_beat": 143.0,
      "duration_beat": 0.4739583333333286,
      "velocity": 33,
      "track": 0
    },
    {
      "pitch": 68,
      "start_beat": 143.0,
      "duration_beat": 0.125,
      "velocity": 13,
      "track": 0
    },
    {
      "pitch": 47,
      "start_beat": 143.0,
      "duration_beat": 0.23541666666667993,
      "velocity": 33,
      "track": 1
    },
    {
      "pitch": 47,
      "start_beat": 143.0,
      "duration_beat": 0.23541666666667993,
      "velocity": 43,
      "track": 1
    },
    {
      "pitch": 51,
      "start_beat": 143.0,
      "duration_beat": 0.23541666666667993,
      "velocity": 43,
      "track": 1
    },
    {
      "pitch": 54,
      "start_beat": 143.0,
      "duration_beat": 0.23541666666667993,
      "velocity": 43,
      "track": 1
    },
    {
      "pitch": 47,
      "start_beat": 143.0,
      "duration_beat": 0.11770833333333997,
      "velocity": 33,
      "track": 1
    },
    {
      "pitch": 47,
      "start_beat": 143.0,
      "duration_beat": 0.125,
      "velocity": 13,
      "track": 1
    },
    {
      "pitch": 69,
      "start_beat": 143.125,
      "duration_beat": 0.4739583333333286,
      "velocity": 33,
      "track": 0
    },
    {
      "pitch": 72,
      "start_beat": 143.125,
      "duration_beat": 0.4739583333333286,
      "velocity": 33,
      "track": 0
    },
    {
      "pitch": 75,
      "start_beat": 143.125,
      "duration_beat": 0.4739583333333286,
      "velocity": 33,
      "track": 0
    },
    {
      "pitch": 54,
      "start_beat": 143.125,
      "duration_beat": 0.11770833333333997,
      "velocity": 33,
      "track": 1
    },
    {
      "pitch": 74,
      "start_beat": 143.25,
      "duration_beat": 0.4739583333333286,
      "velocity": 33,
      "track": 0
    },
    {
      "pitch": 62,
      "start_beat": 143.25,
      "duration_beat": 0.125,
      "velocity": 13,
      "track": 0
    },
    {
      "pitch": 77,
      "start_beat": 143.25,
      "duration_beat": 0.4739583333333286,
      "velocity": 33,
      "track": 0
    },
    {
      "pitch": 65,
      "start_beat": 143.25,
      "duration_beat": 0.125,
      "velocity": 13,
      "track": 0
    },
    {
      "pitch": 80,
      "start_beat": 143.25,
      "duration_beat": 0.4739583333333286,
      "velocity": 33,
      "track": 0
    },
    {
      "pitch": 68,
      "start_beat": 143.25,
      "duration_beat": 0.125,
      "velocity": 13,
      "track": 0
    },
    {
      "pitch": 59,
      "start_beat": 143.25,
      "duration_beat": 0.11770833333333997,
      "velocity": 33,
      "track": 1
    },
    {
      "pitch": 47,
      "start_beat": 143.25,
      "duration_beat": 0.23541666666667993,
      "velocity": 33,
      "track": 1
    },
    {
      "pitch": 47,
      "start_beat": 143.25,
      "duration_beat": 0.23541666666667993,
      "velocity": 43,
      "track": 1
    },
    {
      "pitch": 51,
      "start_beat": 143.25,
      "duration_beat": 0.23541666666667993,
      "velocity": 43,
      "track": 1
    },
    {
      "pitch": 54,
      "start_beat": 143.25,
      "duration_beat": 0.23541666666667993,
      "velocity": 43,
      "track": 1
    },
    {
      "pitch": 47,
      "start_beat": 143.25,
      "duration_beat": 0.11770833333333997,
      "velocity": 33,
      "track": 1
    },
    {
      "pitch": 47,
      "start_beat": 143.25,
      "duration_beat": 0.125,
      "velocity": 13,
      "track": 1
    },
    {
      "pitch": 54,
      "start_beat": 143.375,
      "duration_beat": 0.11770833333333997,
      "velocity": 33,
      "track": 1
    },
    {
      "pitch": 62,
      "start_beat": 143.5,
      "duration_beat": 0.125,
      "velocity": 13,
      "track": 0
    },
    {
      "pitch": 65,
      "start_beat": 143.5,
      "duration_beat": 0.125,
      "velocity": 13,
      "track": 0
    },
    {
      "pitch": 68,
      "start_beat": 143.5,
      "duration_beat": 0.125,
      "velocity": 13,
      "track": 0
    },
    {
      "pitch": 59,
      "start_beat": 143.5,
      "duration_beat": 0.11770833333333997,
      "velocity": 33,
      "track": 1
    },
    {
      "pitch": 47,
      "start_beat": 143.5,
      "duration_beat": 0.23541666666667993,
      "velocity": 33,
      "track": 1
    },
    {
      "pitch": 47,
      "start_beat": 143.5,
      "duration_beat": 0.23541666666667993,
      "velocity": 43,
      "track": 1
    },
    {
      "pitch": 51,
      "start_beat": 143.5,
      "duration_beat": 0.23541666666667993,
      "velocity": 43,
      "track": 1
    },
    {
      "pitch": 54,
      "start_beat": 143.5,
      "duration_beat": 0.23541666666667993,
      "velocity": 43,
      "track": 1
    },
    {
      "pitch": 47,
      "start_beat": 143.5,
      "duration_beat": 0.11770833333333997,
      "velocity": 33,
      "track": 1
    },
    {
      "pitch": 47,
      "start_beat": 143.5,
      "duration_beat": 0.125,
      "velocity": 13,
      "track": 1
    },
    {
      "pitch": 54,
      "start_beat": 143.625,
      "duration_beat": 0.11770833333333997,
      "velocity": 33,
      "track": 1
    },
    {
      "pitch": 62,
      "start_beat": 143.75,
      "duration_beat": 0.125,
      "velocity": 13,
      "track": 0
    },
    {
      "pitch": 65,
      "start_beat": 143.75,
      "duration_beat": 0.125,
      "velocity": 13,
      "track": 0
    },
    {
      "pitch": 68,
      "start_beat": 143.75,
      "duration_beat": 0.125,
      "velocity": 13,
      "track": 0
    },
    {
      "pitch": 59,
      "start_beat": 143.75,
      "duration_beat": 0.11770833333333997,
      "velocity": 33,
      "track": 1
    },
    {
      "pitch": 47,
      "start_beat": 143.75,
      "duration_beat": 0.23541666666667993,
      "velocity": 33,
      "track": 1
    },
    {
      "pitch": 47,
      "start_beat": 143.75,
      "duration_beat": 0.23541666666667993,
      "velocity": 43,
      "track": 1
    },
    {
      "pitch": 51,
      "start_beat": 143.75,
      "duration_beat": 0.23541666666667993,
      "velocity": 43,
      "track": 1
    },
    {
      "pitch": 54,
      "start_beat": 143.75,
      "duration_beat": 0.23541666666667993,
      "velocity": 43,
      "track": 1
    },
    {
      "pitch": 47,
      "start_beat": 143.75,
      "duration_beat": 0.11770833333333997,
      "velocity": 33,
      "track": 1
    },
    {
      "pitch": 47,
      "start_beat": 143.75,
      "duration_beat": 0.125,
      "velocity": 13,
      "track": 1
    },
    {
      "pitch": 54,
      "start_beat": 143.875,
      "duration_beat": 0.11770833333333997,
      "velocity": 33,
      "track": 1
    },
    {
      "pitch": 59,
      "start_beat": 144.0,
      "duration_beat": 0.11770833333333997,
      "velocity": 33,
      "track": 1
    },
    {
      "pitch": 62,
      "start_beat": 144.0,
      "duration_beat": 0.4729166666666629,
      "velocity": 33,
      "track": 0
    },
    {
      "pitch": 62,
      "start_beat": 144.0,
      "duration_beat": 0.4729166666666629,
      "velocity": 43,
      "track": 0
    },
    {
      "pitch": 66,
      "start_beat": 144.0,
      "duration_beat": 0.4729166666666629,
      "velocity": 43,
      "track": 0
    },
    {
      "pitch": 69,
      "start_beat": 144.0,
      "duration_beat": 0.4729166666666629,
      "velocity": 43,
      "track": 0
    },
    {
      "pitch": 62,
      "start_beat": 144.0,
      "duration_beat": 0.23645833333333144,
      "velocity": 33,
      "track": 0
    },
    {
      "pitch": 62,
      "start_beat": 144.0,
      "duration_beat": 0.125,
      "velocity": 13,
      "track": 0
    },
    {
      "pitch": 65,
      "start_beat": 144.0,
      "duration_beat": 0.4729166666666629,
      "velocity": 33,
      "track": 0
    },
    {
      "pitch": 65,
      "start_beat": 144.0,
      "duration_beat": 0.4729166666666629,
      "velocity": 43,
      "track": 0
    },
    {
      "pitch": 69,
      "start_beat": 144.0,
      "duration_beat": 0.4729166666666629,
      "velocity": 43,
      "track": 0
    },
    {
      "pitch": 72,
      "start_beat": 144.0,
      "duration_beat": 0.4729166666666629,
      "velocity": 43,
      "track": 0
    },
    {
      "pitch": 65,
      "start_beat": 144.0,
      "duration_beat": 0.23645833333333144,
      "velocity": 33,
      "track": 0
    },
    {
      "pitch": 65,
      "start_beat": 144.0,
      "duration_beat": 0.125,
      "velocity": 13,
      "track": 0
    },
    {
      "pitch": 68,
      "start_beat": 144.0,
      "duration_beat": 0.4729166666666629,
      "velocity": 33,
      "track": 0
    },
    {
      "pitch": 68,
      "start_beat": 144.0,
      "duration_beat": 0.4729166666666629,
      "velocity": 43,
      "track": 0
    },
    {
      "pitch": 72,
      "start_beat": 144.0,
      "duration_beat": 0.4729166666666629,
      "velocity": 43,
      "track": 0
    },
    {
      "pitch": 75,
      "start_beat": 144.0,
      "duration_beat": 0.4729166666666629,
      "velocity": 43,
      "track": 0
    },
    {
      "pitch": 68,
      "start_beat": 144.0,
      "duration_beat": 0.23645833333333144,
      "velocity": 33,
      "track": 0
    },
    {
      "pitch": 68,
      "start_beat": 144.0,
      "duration_beat": 0.125,
      "velocity": 13,
      "track": 0
    },
    {
      "pitch": 47,
      "start_beat": 144.0,
      "duration_beat": 0.23541666666667993,
      "velocity": 33,
      "track": 1
    },
    {
      "pitch": 47,
      "start_beat": 144.0,
      "duration_beat": 0.23541666666667993,
      "velocity": 43,
      "track": 1
    },
    {
      "pitch": 51,
      "start_beat": 144.0,
      "duration_beat": 0.23541666666667993,
      "velocity": 43,
      "track": 1
    },
    {
      "pitch": 54,
      "start_beat": 144.0,
      "duration_beat": 0.23541666666667993,
      "velocity": 43,
      "track": 1
    },
    {
      "pitch": 47,
      "start_beat": 144.0,
      "duration_beat": 0.11770833333333997,
      "velocity": 33,
      "track": 1
    },
    {
      "pitch": 47,
      "start_beat": 144.0,
      "duration_beat": 0.125,
      "velocity": 13,
      "track": 1
    },
    {
      "pitch": 69,
      "start_beat": 144.125,
      "duration_beat": 0.23645833333333144,
      "velocity": 33,
      "track": 0
    },
    {
      "pitch": 72,
      "start_beat": 144.125,
      "duration_beat": 0.23645833333333144,
      "velocity": 33,
      "track": 0
    },
    {
      "pitch": 75,
      "start_beat": 144.125,
      "duration_beat": 0.23645833333333144,
      "velocity": 33,
      "track": 0
    },
    {
      "pitch": 54,
      "start_beat": 144.125,
      "duration_beat": 0.11770833333333997,
      "velocity": 33,
      "track": 1
    },
    {
      "pitch": 74,
      "start_beat": 144.25,
      "duration_beat": 0.23645833333333144,
      "velocity": 33,
      "track": 0
    },
    {
      "pitch": 62,
      "start_beat": 144.25,
      "duration_beat": 0.125,
      "velocity": 13,
      "track": 0
    },
    {
      "pitch": 77,
      "start_beat": 144.25,
      "duration_beat": 0.23645833333333144,
      "velocity": 33,
      "track": 0
    },
    {
      "pitch": 65,
      "start_beat": 144.25,
      "duration_beat": 0.125,
      "velocity": 13,
      "track": 0
    },
    {
      "pitch": 80,
      "start_beat": 144.25,
      "duration_beat": 0.23645833333333144,
      "velocity": 33,
      "track": 0
    },
    {
      "pitch": 68,
      "start_beat": 144.25,
      "duration_beat": 0.125,
      "velocity": 13,
      "track": 0
    },
    {
      "pitch": 59,
      "start_beat": 144.25,
      "duration_beat": 0.11770833333333997,
      "velocity": 33,
      "track": 1
    },
    {
      "pitch": 47,
      "start_beat": 144.25,
      "duration_beat": 0.23541666666667993,
      "velocity": 33,
      "track": 1
    },
    {
      "pitch": 47,
      "start_beat": 144.25,
      "duration_beat": 0.23541666666667993,
      "velocity": 43,
      "track": 1
    },
    {
      "pitch": 51,
      "start_beat": 144.25,
      "duration_beat": 0.23541666666667993,
      "velocity": 43,
      "track": 1
    },
    {
      "pitch": 54,
      "start_beat": 144.25,
      "duration_beat": 0.23541666666667993,
      "velocity": 43,
      "track": 1
    },
    {
      "pitch": 47,
      "start_beat": 144.25,
      "duration_beat": 0.11770833333333997,
      "velocity": 33,
      "track": 1
    },
    {
      "pitch": 47,
      "start_beat": 144.25,
      "duration_beat": 0.125,
      "velocity": 13,
      "track": 1
    },
    {
      "pitch": 54,
      "start_beat": 144.375,
      "duration_beat": 0.11770833333333997,
      "velocity": 33,
      "track": 1
    },
    {
      "pitch": 59,
      "start_beat": 144.5,
      "duration_beat": 0.11770833333333997,
      "velocity": 33,
      "track": 1
    },
    {
      "pitch": 60,
      "start_beat": 144.5,
      "duration_beat": 0.9479166666666572,
      "velocity": 33,
      "track": 0
    },
    {
      "pitch": 60,
      "start_beat": 144.5,
      "duration_beat": 0.9479166666666572,
      "velocity": 43,
      "track": 0
    },
    {
      "pitch": 64,
      "start_beat": 144.5,
      "duration_beat": 0.9479166666666572,
      "velocity": 43,
      "track": 0
    },
    {
      "pitch": 67,
      "start_beat": 144.5,
      "duration_beat": 0.9479166666666572,
      "velocity": 43,
      "track": 0
    },
    {
      "pitch": 60,
      "start_beat": 144.5,
      "duration_beat": 0.4739583333333286,
      "velocity": 33,
      "track": 0
    },
    {
      "pitch": 60,
      "start_beat": 144.5,
      "duration_beat": 0.125,
      "velocity": 13,
      "track": 0
    },
    {
      "pitch": 64,
      "start_beat": 144.5,
      "duration_beat": 0.9479166666666572,
      "velocity": 33,
      "track": 0
    },
    {
      "pitch": 64,
      "start_beat": 144.5,
      "duration_beat": 0.9479166666666572,
      "velocity": 43,
      "track": 0
    },
    {
      "pitch": 68,
      "start_beat": 144.5,
      "duration_beat": 0.9479166666666572,
      "velocity": 43,
      "track": 0
    },
    {
      "pitch": 71,
      "start_beat": 144.5,
      "duration_beat": 0.9479166666666572,
      "velocity": 43,
      "track": 0
    },
    {
      "pitch": 64,
      "start_beat": 144.5,
      "duration_beat": 0.4739583333333286,
      "velocity": 33,
      "track": 0
    },
    {
      "pitch": 64,
      "start_beat": 144.5,
      "duration_beat": 0.125,
      "velocity": 13,
      "track": 0
    },
    {
      "pitch": 69,
      "start_beat": 144.5,
      "duration_beat": 0.9479166666666572,
      "velocity": 33,
      "track": 0
    },
    {
      "pitch": 69,
      "start_beat": 144.5,
      "duration_beat": 0.9479166666666572,
      "velocity": 43,
      "track": 0
    },
    {
      "pitch": 73,
      "start_beat": 144.5,
      "duration_beat": 0.9479166666666572,
      "velocity": 43,
      "track": 0
    },
    {
      "pitch": 76,
      "start_beat": 144.5,
      "duration_beat": 0.9479166666666572,
      "velocity": 43,
      "track": 0
    },
    {
      "pitch": 69,
      "start_beat": 144.5,
      "duration_beat": 0.4739583333333286,
      "velocity": 33,
      "track": 0
    },
    {
      "pitch": 69,
      "start_beat": 144.5,
      "duration_beat": 0.125,
      "velocity": 13,
      "track": 0
    },
    {
      "pitch": 48,
      "start_beat": 144.5,
      "duration_beat": 0.9479166666666572,
      "velocity": 33,
      "track": 1
    },
    {
      "pitch": 48,
      "start_beat": 144.5,
      "duration_beat": 0.9479166666666572,
      "velocity": 43,
      "track": 1
    },
    {
      "pitch": 52,
      "start_beat": 144.5,
      "duration_beat": 0.9479166666666572,
      "velocity": 43,
      "track": 1
    },
    {
      "pitch": 55,
      "start_beat": 144.5,
      "duration_beat": 0.9479166666666572,
      "velocity": 43,
      "track": 1
    },
    {
      "pitch": 48,
      "start_beat": 144.5,
      "duration_beat": 0.4739583333333286,
      "velocity": 33,
      "track": 1
    },
    {
      "pitch": 48,
      "start_beat": 144.5,
      "duration_beat": 0.125,
      "velocity": 13,
      "track": 1
    },
    {
      "pitch": 67,
      "start_beat": 144.625,
      "duration_beat": 0.4739583333333286,
      "velocity": 33,
      "track": 0
    },
    {
      "pitch": 71,
      "start_beat": 144.625,
      "duration_beat": 0.4739583333333286,
      "velocity": 33,
      "track": 0
    },
    {
      "pitch": 76,
      "start_beat": 144.625,
      "duration_beat": 0.4739583333333286,
      "velocity": 33,
      "track": 0
    },
    {
      "pitch": 55,
      "start_beat": 144.625,
      "duration_beat": 0.4739583333333286,
      "velocity": 33,
      "track": 1
    },
    {
      "pitch": 72,
      "start_beat": 144.75,
      "duration_beat": 0.4739583333333286,
      "velocity": 33,
      "track": 0
    },
    {
      "pitch": 60,
      "start_beat": 144.75,
      "duration_beat": 0.125,
      "velocity": 13,
      "track": 0
    },
    {
      "pitch": 76,
      "start_beat": 144.75,
      "duration_beat": 0.4739583333333286,
      "velocity": 33,
      "track": 0
    },
    {
      "pitch": 64,
      "start_beat": 144.75,
      "duration_beat": 0.125,
      "velocity": 13,
      "track": 0
    },
    {
      "pitch": 81,
      "start_beat": 144.75,
      "duration_beat": 0.4739583333333286,
      "velocity": 33,
      "track": 0
    },
    {
      "pitch": 69,
      "start_beat": 144.75,
      "duration_beat": 0.125,
      "velocity": 13,
      "track": 0
    },
    {
      "pitch": 60,
      "start_beat": 144.75,
      "duration_beat": 0.4739583333333286,
      "velocity": 33,
      "track": 1
    },
    {
      "pitch": 48,
      "start_beat": 144.75,
      "duration_beat": 0.125,
      "velocity": 13,
      "track": 1
    },
    {
      "pitch": 60,
      "start_beat": 145.0,
      "duration_beat": 0.125,
      "velocity": 13,
      "track": 0
    },
    {
      "pitch": 64,
      "start_beat": 145.0,
      "duration_beat": 0.125,
      "velocity": 13,
      "track": 0
    },
    {
      "pitch": 69,
      "start_beat": 145.0,
      "duration_beat": 0.125,
      "velocity": 13,
      "track": 0
    },
    {
      "pitch": 48,
      "start_beat": 145.0,
      "duration_beat": 0.125,
      "velocity": 13,
      "track": 1
    },
    {
      "pitch": 60,
      "start_beat": 145.25,
      "duration_beat": 0.125,
      "velocity": 13,
      "track": 0
    },
    {
      "pitch": 64,
      "start_beat": 145.25,
      "duration_beat": 0.125,
      "velocity": 13,
      "track": 0
    },
    {
      "pitch": 69,
      "start_beat": 145.25,
      "duration_beat": 0.125,
      "velocity": 13,
      "track": 0
    },
    {
      "pitch": 48,
      "start_beat": 145.25,
      "duration_beat": 0.125,
      "velocity": 13,
      "track": 1
    },
    {
      "pitch": 64,
      "start_beat": 146.0,
      "duration_beat": 0.4729166666666629,
      "velocity": 33,
      "track": 0
    },
    {
      "pitch": 64,
      "start_beat": 146.0,
      "duration_beat": 0.4729166666666629,
      "velocity": 43,
      "track": 0
    },
    {
      "pitch": 68,
      "start_beat": 146.0,
      "duration_beat": 0.4729166666666629,
      "velocity": 43,
      "track": 0
    },
    {
      "pitch": 71,
      "start_beat": 146.0,
      "duration_beat": 0.4729166666666629,
      "velocity": 43,
      "track": 0
    },
    {
      "pitch": 64,
      "start_beat": 146.0,
      "duration_beat": 0.23645833333333144,
      "velocity": 33,
      "track": 0
    },
    {
      "pitch": 64,
      "start_beat": 146.0,
      "duration_beat": 0.125,
      "velocity": 13,
      "track": 0
    },
    {
      "pitch": 71,
      "start_beat": 146.0,
      "duration_beat": 0.4729166666666629,
      "velocity": 33,
      "track": 0
    },
    {
      "pitch": 71,
      "start_beat": 146.0,
      "duration_beat": 0.4729166666666629,
      "velocity": 43,
      "track": 0
    },
    {
      "pitch": 75,
      "start_beat": 146.0,
      "duration_beat": 0.4729166666666629,
      "velocity": 43,
      "track": 0
    },
    {
      "pitch": 78,
      "start_beat": 146.0,
      "duration_beat": 0.4729166666666629,
      "velocity": 43,
      "track": 0
    },
    {
      "pitch": 71,
      "start_beat": 146.0,
      "duration_beat": 0.23645833333333144,
      "velocity": 33,
      "track": 0
    },
    {
      "pitch": 71,
      "start_beat": 146.0,
      "duration_beat": 0.125,
      "velocity": 13,
      "track": 0
    },
    {
      "pitch": 52,
      "start_beat": 146.0,
      "duration_beat": 0.4729166666666629,
      "velocity": 33,
      "track": 1
    },
    {
      "pitch": 52,
      "start_beat": 146.0,
      "duration_beat": 0.4729166666666629,
      "velocity": 43,
      "track": 1
    },
    {
      "pitch": 56,
      "start_beat": 146.0,
      "duration_beat": 0.4729166666666629,
      "velocity": 43,
      "track": 1
    },
    {
      "pitch": 59,
      "start_beat": 146.0,
      "duration_beat": 0.4729166666666629,
      "velocity": 43,
      "track": 1
    },
    {
      "pitch": 52,
      "start_beat": 146.0,
      "duration_beat": 0.23645833333333144,
      "velocity": 33,
      "track": 1
    },
    {
      "pitch": 52,
      "start_beat": 146.0,
      "duration_beat": 0.125,
      "velocity": 13,
      "track": 1
    },
    {
      "pitch": 56,
      "start_beat": 146.0,
      "duration_beat": 0.4729166666666629,
      "velocity": 33,
      "track": 1
    },
    {
      "pitch": 56,
      "start_beat": 146.0,
      "duration_beat": 0.4729166666666629,
      "velocity": 43,
      "track": 1
    },
    {
      "pitch": 60,
      "start_beat": 146.0,
      "duration_beat": 0.4729166666666629,
      "velocity": 43,
      "track": 1
    },
    {
      "pitch": 63,
      "start_beat": 146.0,
      "duration_beat": 0.4729166666666629,
      "velocity": 43,
      "track": 1
    },
    {
      "pitch": 56,
      "start_beat": 146.0,
      "duration_beat": 0.23645833333333144,
      "velocity": 33,
      "track": 1
    },
    {
      "pitch": 56,
      "start_beat": 146.0,
      "duration_beat": 0.125,
      "velocity": 13,
      "track": 1
    },
    {
      "pitch": 71,
      "start_beat": 146.125,
      "duration_beat": 0.23645833333333144,
      "velocity": 33,
      "track": 0
    },
    {
      "pitch": 78,
      "start_beat": 146.125,
      "duration_beat": 0.23645833333333144,
      "velocity": 33,
      "track": 0
    },
    {
      "pitch": 59,
      "start_beat": 146.125,
      "duration_beat": 0.23645833333333144,
      "velocity": 33,
      "track": 1
    },
    {
      "pitch": 63,
      "start_beat": 146.125,
      "duration_beat": 0.23645833333333144,
      "velocity": 33,
      "track": 1
    },
    {
      "pitch": 76,
      "start_beat": 146.25,
      "duration_beat": 0.23645833333333144,
      "velocity": 33,
      "track": 0
    },
    {
      "pitch": 64,
      "start_beat": 146.25,
      "duration_beat": 0.125,
      "velocity": 13,
      "track": 0
    },
    {
      "pitch": 83,
      "start_beat": 146.25,
      "duration_beat": 0.23645833333333144,
      "velocity": 33,
      "track": 0
    },
    {
      "pitch": 71,
      "start_beat": 146.25,
      "duration_beat": 0.125,
      "velocity": 13,
      "track": 0
    },
    {
      "pitch": 64,
      "start_beat": 146.25,
      "duration_beat": 0.23645833333333144,
      "velocity": 33,
      "track": 1
    },
    {
      "pitch": 52,
      "start_beat": 146.25,
      "duration_beat": 0.125,
      "velocity": 13,
      "track": 1
    },
    {
      "pitch": 68,
      "start_beat": 146.25,
      "duration_beat": 0.23645833333333144,
      "velocity": 33,
      "track": 1
    },
    {
      "pitch": 56,
      "start_beat": 146.25,
      "duration_beat": 0.125,
      "velocity": 13,
      "track": 1
    },
    {
      "pitch": 57,
      "start_beat": 147.5,
      "duration_beat": 0.15625,
      "velocity": 33,
      "track": 0
    },
    {
      "pitch": 57,
      "start_beat": 147.5,
      "duration_beat": 0.15625,
      "velocity": 43,
      "track": 0
    },
    {
      "pitch": 61,
      "start_beat": 147.5,
      "duration_beat": 0.15625,
      "velocity": 43,
      "track": 0
    },
    {
      "pitch": 64,
      "start_beat": 147.5,
      "duration_beat": 0.15625,
      "velocity": 43,
      "track": 0
    },
    {
      "pitch": 57,
      "start_beat": 147.5,
      "duration_beat": 0.078125,
      "velocity": 33,
      "track": 0
    },
    {
      "pitch": 57,
      "start_beat": 147.5,
      "duration_beat": 0.125,
      "velocity": 13,
      "track": 0
    },
    {
      "pitch": 33,
      "start_beat": 147.5,
      "duration_beat": 0.4729166666666629,
      "velocity": 33,
      "track": 1
    },
    {
      "pitch": 33,
      "start_beat": 147.5,
      "duration_beat": 0.4729166666666629,
      "velocity": 43,
      "track": 1
    },
    {
      "pitch": 37,
      "start_beat": 147.5,
      "duration_beat": 0.4729166666666629,
      "velocity": 43,
      "track": 1
    },
    {
      "pitch": 40,
      "start_beat": 147.5,
      "duration_beat": 0.4729166666666629,
      "velocity": 43,
      "track": 1
    },
    {
      "pitch": 33,
      "start_beat": 147.5,
      "duration_beat": 0.23645833333333144,
      "velocity": 33,
      "track": 1
    },
    {
      "pitch": 33,
      "start_beat": 147.5,
      "duration_beat": 0.125,
      "velocity": 13,
      "track": 1
    },
    {
      "pitch": 64,
      "start_beat": 147.625,
      "duration_beat": 0.078125,
      "velocity": 33,
      "track": 0
    },
    {
      "pitch": 40,
      "start_beat": 147.625,
      "duration_beat": 0.23645833333333144,
      "velocity": 33,
      "track": 1
    },
    {
      "pitch": 60,
      "start_beat": 147.66666666666666,
      "duration_beat": 0.15625,
      "velocity": 33,
      "track": 0
    },
    {
      "pitch": 60,
      "start_beat": 147.66666666666666,
      "duration_beat": 0.15625,
      "velocity": 43,
      "track": 0
    },
    {
      "pitch": 64,
      "start_beat": 147.66666666666666,
      "duration_beat": 0.15625,
      "velocity": 43,
      "track": 0
    },
    {
      "pitch": 67,
      "start_beat": 147.66666666666666,
      "duration_beat": 0.15625,
      "velocity": 43,
      "track": 0
    },
    {
      "pitch": 60,
      "start_beat": 147.66666666666666,
      "duration_beat": 0.078125,
      "velocity": 33,
      "track": 0
    },
    {
      "pitch": 60,
      "start_beat": 147.66666666666666,
      "duration_beat": 0.125,
      "velocity": 13,
      "track": 0
    },
    {
      "pitch": 69,
      "start_beat": 147.75,
      "duration_beat": 0.078125,
      "velocity": 33,
      "track": 0
    },
    {
      "pitch": 45,
      "start_beat": 147.75,
      "duration_beat": 0.23645833333333144,
      "velocity": 33,
      "track": 1
    },
    {
      "pitch": 33,
      "start_beat": 147.75,
      "duration_beat": 0.125,
      "velocity": 13,
      "track": 1
    },
    {
      "pitch": 67,
      "start_beat": 147.79166666666666,
      "duration_beat": 0.078125,
      "velocity": 33,
      "track": 0
    },
    {
      "pitch": 64,
      "start_beat": 147.83333333333334,
      "duration_beat": 0.15625,
      "velocity": 33,
      "track": 0
    },
    {
      "pitch": 64,
      "start_beat": 147.83333333333334,
      "duration_beat": 0.15625,
      "velocity": 43,
      "track": 0
    },
    {
      "pitch": 68,
      "start_beat": 147.83333333333334,
      "duration_beat": 0.15625,
      "velocity": 43,
      "track": 0
    },
    {
      "pitch": 71,
      "start_beat": 147.83333333333334,
      "duration_beat": 0.15625,
      "velocity": 43,
      "track": 0
    },
    {
      "pitch": 64,
      "start_beat": 147.83333333333334,
      "duration_beat": 0.078125,
      "velocity": 33,
      "track": 0
    },
    {
      "pitch": 64,
      "start_beat": 147.83333333333334,
      "duration_beat": 0.125,
      "velocity": 13,
      "track": 0
    },
    {
      "pitch": 72,
      "start_beat": 147.91666666666666,
      "duration_beat": 0.078125,
      "velocity": 33,
      "track": 0
    },
    {
      "pitch": 71,
      "start_beat": 147.95833333333334,
      "duration_beat": 0.078125,
      "velocity": 33,
      "track": 0
    },
    {
      "pitch": 69,
      "start_beat": 148.0,
      "duration_beat": 0.15625,
      "velocity": 33,
      "track": 0
    },
    {
      "pitch": 69,
      "start_beat": 148.0,
      "duration_beat": 0.15625,
      "velocity": 43,
      "track": 0
    },
    {
      "pitch": 73,
      "start_beat": 148.0,
      "duration_beat": 0.15625,
      "velocity": 43,
      "track": 0
    },
    {
      "pitch": 76,
      "start_beat": 148.0,
      "duration_beat": 0.15625,
      "velocity": 43,
      "track": 0
    },
    {
      "pitch": 69,
      "start_beat": 148.0,
      "duration_beat": 0.078125,
      "velocity": 33,
      "track": 0
    },
    {
      "pitch": 69,
      "start_beat": 148.0,
      "duration_beat": 0.125,
      "velocity": 13,
      "track": 0
    },
    {
      "pitch": 76,
      "start_beat": 148.08333333333334,
      "duration_beat": 0.078125,
      "velocity": 33,
      "track": 0
    },
    {
      "pitch": 76,
      "start_beat": 148.125,
      "duration_beat": 0.078125,
      "velocity": 33,
      "track": 0
    },
    {
      "pitch": 72,
      "start_beat": 148.16666666666666,
      "duration_beat": 0.15625,
      "velocity": 33,
      "track": 0
    },
    {
      "pitch": 72,
      "start_beat": 148.16666666666666,
      "duration_beat": 0.15625,
      "velocity": 43,
      "track": 0
    },
    {
      "pitch": 76,
      "start_beat": 148.16666666666666,
      "duration_beat": 0.15625,
      "velocity": 43,
      "track": 0
    },
    {
      "pitch": 79,
      "start_beat": 148.16666666666666,
      "duration_beat": 0.15625,
      "velocity": 43,
      "track": 0
    },
    {
      "pitch": 72,
      "start_beat": 148.16666666666666,
      "duration_beat": 0.078125,
      "velocity": 33,
      "track": 0
    },
    {
      "pitch": 72,
      "start_beat": 148.16666666666666,
      "duration_beat": 0.125,
      "velocity": 13,
      "track": 0
    },
    {
      "pitch": 81,
      "start_beat": 148.25,
      "duration_beat": 0.078125,
      "velocity": 33,
      "track": 0
    },
    {
      "pitch": 79,
      "start_beat": 148.29166666666666,
      "duration_beat": 0.078125,
      "velocity": 33,
      "track": 0
    },
    {
      "pitch": 76,
      "start_beat": 148.33333333333334,
      "duration_beat": 0.15625,
      "velocity": 33,
      "track": 0
    },
    {
      "pitch": 76,
      "start_beat": 148.33333333333334,
      "duration_beat": 0.15625,
      "velocity": 43,
      "track": 0
    },
    {
      "pitch": 80,
      "start_beat": 148.33333333333334,
      "duration_beat": 0.15625,
      "velocity": 43,
      "track": 0
    },
    {
      "pitch": 83,
      "start_beat": 148.33333333333334,
      "duration_beat": 0.15625,
      "velocity": 43,
      "track": 0
    },
    {
      "pitch": 76,
      "start_beat": 148.33333333333334,
      "duration_beat": 0.078125,
      "velocity": 33,
      "track": 0
    },
    {
      "pitch": 76,
      "start_beat": 148.33333333333334,
      "duration_beat": 0.125,
      "velocity": 13,
      "track": 0
    },
    {
      "pitch": 84,
      "start_beat": 148.41666666666666,
      "duration_beat": 0.078125,
      "velocity": 33,
      "track": 0
    },
    {
      "pitch": 83,
      "start_beat": 148.45833333333334,
      "duration_beat": 0.078125,
      "velocity": 33,
      "track": 0
    },
    {
      "pitch": 74,
      "start_beat": 148.5,
      "duration_beat": 0.15625,
      "velocity": 33,
      "track": 0
    },
    {
      "pitch": 74,
      "start_beat": 148.5,
      "duration_beat": 0.15625,
      "velocity": 43,
      "track": 0
    },
    {
      "pitch": 78,
      "start_beat": 148.5,
      "duration_beat": 0.15625,
      "velocity": 43,
      "track": 0
    },
    {
      "pitch": 81,
      "start_beat": 148.5,
      "duration_beat": 0.15625,
      "velocity": 43,
      "track": 0
    },
    {
      "pitch": 74,
      "start_beat": 148.5,
      "duration_beat": 0.078125,
      "velocity": 33,
      "track": 0
    },
    {
      "pitch": 74,
      "start_beat": 148.5,
      "duration_beat": 0.125,
      "velocity": 13,
      "track": 0
    },
    {
      "pitch": 57,
      "start_beat": 148.5,
      "duration_beat": 0.4729166666666629,
      "velocity": 33,
      "track": 1
    },
    {
      "pitch": 57,
      "start_beat": 148.5,
      "duration_beat": 0.4729166666666629,
      "velocity": 43,
      "track": 1
    },
    {
      "pitch": 61,
      "start_beat": 148.5,
      "duration_beat": 0.4729166666666629,
      "velocity": 43,
      "track": 1
    },
    {
      "pitch": 64,
      "start_beat": 148.5,
      "duration_beat": 0.4729166666666629,
      "velocity": 43,
      "track": 1
    },
    {
      "pitch": 57,
      "start_beat": 148.5,
      "duration_beat": 0.23645833333333144,
      "velocity": 33,
      "track": 1
    },
    {
      "pitch": 57,
      "start_beat": 148.5,
      "duration_beat": 0.125,
      "velocity": 13,
      "track": 1
    },
    {
      "pitch": 60,
      "start_beat": 148.5,
      "duration_beat": 0.4729166666666629,
      "velocity": 33,
      "track": 1
    },
    {
      "pitch": 60,
      "start_beat": 148.5,
      "duration_beat": 0.4729166666666629,
      "velocity": 43,
      "track": 1
    },
    {
      "pitch": 64,
      "start_beat": 148.5,
      "duration_beat": 0.4729166666666629,
      "velocity": 43,
      "track": 1
    },
    {
      "pitch": 67,
      "start_beat": 148.5,
      "duration_beat": 0.4729166666666629,
      "velocity": 43,
      "track": 1
    },
    {
      "pitch": 60,
      "start_beat": 148.5,
      "duration_beat": 0.23645833333333144,
      "velocity": 33,
      "track": 1
    },
    {
      "pitch": 60,
      "start_beat": 148.5,
      "duration_beat": 0.125,
      "velocity": 13,
      "track": 1
    },
    {
      "pitch": 64,
      "start_beat": 148.5,
      "duration_beat": 0.4729166666666629,
      "velocity": 33,
      "track": 1
    },
    {
      "pitch": 64,
      "start_beat": 148.5,
      "duration_beat": 0.4729166666666629,
      "velocity": 43,
      "track": 1
    },
    {
      "pitch": 68,
      "start_beat": 148.5,
      "duration_beat": 0.4729166666666629,
      "velocity": 43,
      "track": 1
    },
    {
      "pitch": 71,
      "start_beat": 148.5,
      "duration_beat": 0.4729166666666629,
      "velocity": 43,
      "track": 1
    },
    {
      "pitch": 64,
      "start_beat": 148.5,
      "duration_beat": 0.23645833333333144,
      "velocity": 33,
      "track": 1
    },
    {
      "pitch": 64,
      "start_beat": 148.5,
      "duration_beat": 0.125,
      "velocity": 13,
      "track": 1
    },
    {
      "pitch": 88,
      "start_beat": 148.58333333333334,
      "duration_beat": 0.078125,
      "velocity": 33,
      "track": 0
    },
    {
      "pitch": 81,
      "start_beat": 148.625,
      "duration_beat": 0.078125,
      "velocity": 33,
      "track": 0
    },
    {
      "pitch": 64,
      "start_beat": 148.625,
      "duration_beat": 0.23645833333333144,
      "velocity": 33,
      "track": 1
    },
    {
      "pitch": 67,
      "start_beat": 148.625,
      "duration_beat": 0.23645833333333144,
      "velocity": 33,
      "track": 1
    },
    {
      "pitch": 71,
      "start_beat": 148.625,
      "duration_beat": 0.23645833333333144,
      "velocity": 33,
      "track": 1
    },
    {
      "pitch": 72,
      "start_beat": 148.66666666666666,
      "duration_beat": 0.15625,
      "velocity": 33,
      "track": 0
    },
    {
      "pitch": 72,
      "start_beat": 148.66666666666666,
      "duration_beat": 0.15625,
      "velocity": 43,
      "track": 0
    },
    {
      "pitch": 76,
      "start_beat": 148.66666666666666,
      "duration_beat": 0.15625,
      "velocity": 43,
      "track": 0
    },
    {
      "pitch": 79,
      "start_beat": 148.66666666666666,
      "duration_beat": 0.15625,
      "velocity": 43,
      "track": 0
    },
    {
      "pitch": 72,
      "start_beat": 148.66666666666666,
      "duration_beat": 0.078125,
      "velocity": 33,
      "track": 0
    },
    {
      "pitch": 72,
      "start_beat": 148.66666666666666,
      "duration_beat": 0.125,
      "velocity": 13,
      "track": 0
    },
    {
      "pitch": 86,
      "start_beat": 148.75,
      "duration_beat": 0.078125,
      "velocity": 33,
      "track": 0
    },
    {
      "pitch": 69,
      "start_beat": 148.75,
      "duration_beat": 0.23645833333333144,
      "velocity": 33,
      "track": 1
    },
    {
      "pitch": 57,
      "start_beat": 148.75,
      "duration_beat": 0.125,
      "velocity": 13,
      "track": 1
    },
    {
      "pitch": 72,
      "start_beat": 148.75,
      "duration_beat": 0.23645833333333144,
      "velocity": 33,
      "track": 1
    },
    {
      "pitch": 60,
      "start_beat": 148.75,
      "duration_beat": 0.125,
      "velocity": 13,
      "track": 1
    },
    {
      "pitch": 76,
      "start_beat": 148.75,
      "duration_beat": 0.23645833333333144,
      "velocity": 33,
      "track": 1
    },
    {
      "pitch": 64,
      "start_beat": 148.75,
      "duration_beat": 0.125,
      "velocity": 13,
      "track": 1
    },
    {
      "pitch": 79,
      "start_beat": 148.79166666666666,
      "duration_beat": 0.078125,
      "velocity": 33,
      "track": 0
    },
    {
      "pitch": 71,
      "start_beat": 148.83333333333334,
      "duration_beat": 0.15625,
      "velocity": 33,
      "track": 0
    },
    {
      "pitch": 71,
      "start_beat": 148.83333333333334,
      "duration_beat": 0.15625,
      "velocity": 43,
      "track": 0
    },
    {
      "pitch": 75,
      "start_beat": 148.83333333333334,
      "duration_beat": 0.15625,
      "velocity": 43,
      "track": 0
    },
    {
      "pitch": 78,
      "start_beat": 148.83333333333334,
      "duration_beat": 0.15625,
      "velocity": 43,
      "track": 0
    },
    {
      "pitch": 71,
      "start_beat": 148.83333333333334,
      "duration_beat": 0.078125,
      "velocity": 33,
      "track": 0
    },
    {
      "pitch": 71,
      "start_beat": 148.83333333333334,
      "duration_beat": 0.125,
      "velocity": 13,
      "track": 0
    },
    {
      "pitch": 84,
      "start_beat": 148.91666666666666,
      "duration_beat": 0.078125,
      "velocity": 33,
      "track": 0
    },
    {
      "pitch": 78,
      "start_beat": 148.95833333333334,
      "duration_beat": 0.078125,
      "velocity": 33,
      "track": 0
    },
    {
      "pitch": 69,
      "start_beat": 149.0,
      "duration_beat": 0.15625,
      "velocity": 33,
      "track": 0
    },
    {
      "pitch": 69,
      "start_beat": 149.0,
      "duration_beat": 0.15625,
      "velocity": 43,
      "track": 0
    },
    {
      "pitch": 73,
      "start_beat": 149.0,
      "duration_beat": 0.15625,
      "velocity": 43,
      "track": 0
    },
    {
      "pitch": 76,
      "start_beat": 149.0,
      "duration_beat": 0.15625,
      "velocity": 43,
      "track": 0
    },
    {
      "pitch": 69,
      "start_beat": 149.0,
      "duration_beat": 0.078125,
      "velocity": 33,
      "track": 0
    },
    {
      "pitch": 69,
      "start_beat": 149.0,
      "duration_beat": 0.125,
      "velocity": 13,
      "track": 0
    },
    {
      "pitch": 57,
      "start_beat": 149.0,
      "duration_beat": 0.4729166666666629,
      "velocity": 33,
      "track": 1
    },
    {
      "pitch": 57,
      "start_beat": 149.0,
      "duration_beat": 0.4729166666666629,
      "velocity": 43,
      "track": 1
    },
    {
      "pitch": 61,
      "start_beat": 149.0,
      "duration_beat": 0.4729166666666629,
      "velocity": 43,
      "track": 1
    },
    {
      "pitch": 64,
      "start_beat": 149.0,
      "duration_beat": 0.4729166666666629,
      "velocity": 43,
      "track": 1
    },
    {
      "pitch": 57,
      "start_beat": 149.0,
      "duration_beat": 0.23645833333333144,
      "velocity": 33,
      "track": 1
    },
    {
      "pitch": 57,
      "start_beat": 149.0,
      "duration_beat": 0.125,
      "velocity": 13,
      "track": 1
    },
    {
      "pitch": 60,
      "start_beat": 149.0,
      "duration_beat": 0.4729166666666629,
      "velocity": 33,
      "track": 1
    },
    {
      "pitch": 60,
      "start_beat": 149.0,
      "duration_beat": 0.4729166666666629,
      "velocity": 43,
      "track": 1
    },
    {
      "pitch": 64,
      "start_beat": 149.0,
      "duration_beat": 0.4729166666666629,
      "velocity": 43,
      "track": 1
    },
    {
      "pitch": 67,
      "start_beat": 149.0,
      "duration_beat": 0.4729166666666629,
      "velocity": 43,
      "track": 1
    },
    {
      "pitch": 60,
      "start_beat": 149.0,
      "duration_beat": 0.23645833333333144,
      "velocity": 33,
      "track": 1
    },
    {
      "pitch": 60,
      "start_beat": 149.0,
      "duration_beat": 0.125,
      "velocity": 13,
      "track": 1
    },
    {
      "pitch": 64,
      "start_beat": 149.0,
      "duration_beat": 0.4729166666666629,
      "velocity": 33,
      "track": 1
    },
    {
      "pitch": 64,
      "start_beat": 149.0,
      "duration_beat": 0.4729166666666629,
      "velocity": 43,
      "track": 1
    },
    {
      "pitch": 68,
      "start_beat": 149.0,
      "duration_beat": 0.4729166666666629,
      "velocity": 43,
      "track": 1
    },
    {
      "pitch": 71,
      "start_beat": 149.0,
      "duration_beat": 0.4729166666666629,
      "velocity": 43,
      "track": 1
    },
    {
      "pitch": 64,
      "start_beat": 149.0,
      "duration_beat": 0.23645833333333144,
      "velocity": 33,
      "track": 1
    },
    {
      "pitch": 64,
      "start_beat": 149.0,
      "duration_beat": 0.125,
      "velocity": 13,
      "track": 1
    },
    {
      "pitch": 83,
      "start_beat": 149.08333333333334,
      "duration_beat": 0.078125,
      "velocity": 33,
      "track": 0
    },
    {
      "pitch": 76,
      "start_beat": 149.125,
      "duration_beat": 0.078125,
      "velocity": 33,
      "track": 0
    },
    {
      "pitch": 64,
      "start_beat": 149.125,
      "duration_beat": 0.23645833333333144,
      "velocity": 33,
      "track": 1
    },
    {
      "pitch": 67,
      "start_beat": 149.125,
      "duration_beat": 0.23645833333333144,
      "velocity": 33,
      "track": 1
    },
    {
      "pitch": 71,
      "start_beat": 149.125,
      "duration_beat": 0.23645833333333144,
      "velocity": 33,
      "track": 1
    },
    {
      "pitch": 72,
      "start_beat": 149.16666666666666,
      "duration_beat": 0.15625,
      "velocity": 33,
      "track": 0
    },
    {
      "pitch": 72,
      "start_beat": 149.16666666666666,
      "duration_beat": 0.15625,
      "velocity": 43,
      "track": 0
    },
    {
      "pitch": 76,
      "start_beat": 149.16666666666666,
      "duration_beat": 0.15625,
      "velocity": 43,
      "track": 0
    },
    {
      "pitch": 79,
      "start_beat": 149.16666666666666,
      "duration_beat": 0.15625,
      "velocity": 43,
      "track": 0
    },
    {
      "pitch": 72,
      "start_beat": 149.16666666666666,
      "duration_beat": 0.078125,
      "velocity": 33,
      "track": 0
    },
    {
      "pitch": 72,
      "start_beat": 149.16666666666666,
      "duration_beat": 0.125,
      "velocity": 13,
      "track": 0
    },
    {
      "pitch": 81,
      "start_beat": 149.25,
      "duration_beat": 0.078125,
      "velocity": 33,
      "track": 0
    },
    {
      "pitch": 69,
      "start_beat": 149.25,
      "duration_beat": 0.23645833333333144,
      "velocity": 33,
      "track": 1
    },
    {
      "pitch": 57,
      "start_beat": 149.25,
      "duration_beat": 0.125,
      "velocity": 13,
      "track": 1
    },
    {
      "pitch": 72,
      "start_beat": 149.25,
      "duration_beat": 0.23645833333333144,
      "velocity": 33,
      "track": 1
    },
    {
      "pitch": 60,
      "start_beat": 149.25,
      "duration_beat": 0.125,
      "velocity": 13,
      "track": 1
    },
    {
      "pitch": 76,
      "start_beat": 149.25,
      "duration_beat": 0.23645833333333144,
      "velocity": 33,
      "track": 1
    },
    {
      "pitch": 64,
      "start_beat": 149.25,
      "duration_beat": 0.125,
      "velocity": 13,
      "track": 1
    },
    {
      "pitch": 79,
      "start_beat": 149.29166666666666,
      "duration_beat": 0.078125,
      "velocity": 33,
      "track": 0
    },
    {
      "pitch": 76,
      "start_beat": 149.33333333333334,
      "duration_beat": 0.15625,
      "velocity": 33,
      "track": 0
    },
    {
      "pitch": 76,
      "start_beat": 149.33333333333334,
      "duration_beat": 0.15625,
      "velocity": 43,
      "track": 0
    },
    {
      "pitch": 80,
      "start_beat": 149.33333333333334,
      "duration_beat": 0.15625,
      "velocity": 43,
      "track": 0
    },
    {
      "pitch": 83,
      "start_beat": 149.33333333333334,
      "duration_beat": 0.15625,
      "velocity": 43,
      "track": 0
    },
    {
      "pitch": 76,
      "start_beat": 149.33333333333334,
      "duration_beat": 0.078125,
      "velocity": 33,
      "track": 0
    },
    {
      "pitch": 76,
      "start_beat": 149.33333333333334,
      "duration_beat": 0.125,
      "velocity": 13,
      "track": 0
    },
    {
      "pitch": 84,
      "start_beat": 149.41666666666666,
      "duration_beat": 0.078125,
      "velocity": 33,
      "track": 0
    },
    {
      "pitch": 83,
      "start_beat": 149.45833333333334,
      "duration_beat": 0.078125,
      "velocity": 33,
      "track": 0
    },
    {
      "pitch": 81,
      "start_beat": 149.5,
      "duration_beat": 0.15625,
      "velocity": 33,
      "track": 0
    },
    {
      "pitch": 81,
      "start_beat": 149.5,
      "duration_beat": 0.15625,
      "velocity": 43,
      "track": 0
    },
    {
      "pitch": 85,
      "start_beat": 149.5,
      "duration_beat": 0.15625,
      "velocity": 43,
      "track": 0
    },
    {
      "pitch": 88,
      "start_beat": 149.5,
      "duration_beat": 0.15625,
      "velocity": 43,
      "track": 0
    },
    {
      "pitch": 81,
      "start_beat": 149.5,
      "duration_beat": 0.078125,
      "velocity": 33,
      "track": 0
    },
    {
      "pitch": 81,
      "start_beat": 149.5,
      "duration_beat": 0.125,
      "velocity": 13,
      "track": 0
    },
    {
      "pitch": 88,
      "start_beat": 149.58333333333334,
      "duration_beat": 0.078125,
      "velocity": 33,
      "track": 0
    },
    {
      "pitch": 88,
      "start_beat": 149.625,
      "duration_beat": 0.078125,
      "velocity": 33,
      "track": 0
    },
    {
      "pitch": 84,
      "start_beat": 149.66666666666666,
      "duration_beat": 0.15625,
      "velocity": 33,
      "track": 0
    },
    {
      "pitch": 84,
      "start_beat": 149.66666666666666,
      "duration_beat": 0.15625,
      "velocity": 43,
      "track": 0
    },
    {
      "pitch": 88,
      "start_beat": 149.66666666666666,
      "duration_beat": 0.15625,
      "velocity": 43,
      "track": 0
    },
    {
      "pitch": 91,
      "start_beat": 149.66666666666666,
      "duration_beat": 0.15625,
      "velocity": 43,
      "track": 0
    },
    {
      "pitch": 84,
      "start_beat": 149.66666666666666,
      "duration_beat": 0.078125,
      "velocity": 33,
      "track": 0
    },
    {
      "pitch": 84,
      "start_beat": 149.66666666666666,
      "duration_beat": 0.125,
      "velocity": 13,
      "track": 0
    },
    {
      "pitch": 93,
      "start_beat": 149.75,
      "duration_beat": 0.078125,
      "velocity": 33,
      "track": 0
    },
    {
      "pitch": 91,
      "start_beat": 149.79166666666666,
      "duration_beat": 0.078125,
      "velocity": 33,
      "track": 0
    },
    {
      "pitch": 88,
      "start_beat": 149.83333333333334,
      "duration_beat": 0.15625,
      "velocity": 33,
      "track": 0
    },
    {
      "pitch": 88,
      "start_beat": 149.83333333333334,
      "duration_beat": 0.15625,
      "velocity": 43,
      "track": 0
    },
    {
      "pitch": 92,
      "start_beat": 149.83333333333334,
      "duration_beat": 0.15625,
      "velocity": 43,
      "track": 0
    },
    {
      "pitch": 95,
      "start_beat": 149.83333333333334,
      "duration_beat": 0.15625,
      "velocity": 43,
      "track": 0
    },
    {
      "pitch": 88,
      "start_beat": 149.83333333333334,
      "duration_beat": 0.078125,
      "velocity": 33,
      "track": 0
    },
    {
      "pitch": 88,
      "start_beat": 149.83333333333334,
      "duration_beat": 0.125,
      "velocity": 13,
      "track": 0
    },
    {
      "pitch": 96,
      "start_beat": 149.91666666666666,
      "duration_beat": 0.078125,
      "velocity": 33,
      "track": 0
    },
    {
      "pitch": 95,
      "start_beat": 149.95833333333334,
      "duration_beat": 0.078125,
      "velocity": 33,
      "track": 0
    },
    {
      "pitch": 86,
      "start_beat": 150.0,
      "duration_beat": 0.15625,
      "velocity": 33,
      "track": 0
    },
    {
      "pitch": 86,
      "start_beat": 150.0,
      "duration_beat": 0.15625,
      "velocity": 43,
      "track": 0
    },
    {
      "pitch": 90,
      "start_beat": 150.0,
      "duration_beat": 0.15625,
      "velocity": 43,
      "track": 0
    },
    {
      "pitch": 93,
      "start_beat": 150.0,
      "duration_beat": 0.15625,
      "velocity": 43,
      "track": 0
    },
    {
      "pitch": 86,
      "start_beat": 150.0,
      "duration_beat": 0.078125,
      "velocity": 33,
      "track": 0
    },
    {
      "pitch": 86,
      "start_beat": 150.0,
      "duration_beat": 0.125,
      "velocity": 13,
      "track": 0
    },
    {
      "pitch": 57,
      "start_beat": 150.0,
      "duration_beat": 0.4729166666666629,
      "velocity": 33,
      "track": 1
    },
    {
      "pitch": 57,
      "start_beat": 150.0,
      "duration_beat": 0.4729166666666629,
      "velocity": 43,
      "track": 1
    },
    {
      "pitch": 61,
      "start_beat": 150.0,
      "duration_beat": 0.4729166666666629,
      "velocity": 43,
      "track": 1
    },
    {
      "pitch": 64,
      "start_beat": 150.0,
      "duration_beat": 0.4729166666666629,
      "velocity": 43,
      "track": 1
    },
    {
      "pitch": 57,
      "start_beat": 150.0,
      "duration_beat": 0.23645833333333144,
      "velocity": 33,
      "track": 1
    },
    {
      "pitch": 57,
      "start_beat": 150.0,
      "duration_beat": 0.125,
      "velocity": 13,
      "track": 1
    },
    {
      "pitch": 60,
      "start_beat": 150.0,
      "duration_beat": 0.4729166666666629,
      "velocity": 33,
      "track": 1
    },
    {
      "pitch": 60,
      "start_beat": 150.0,
      "duration_beat": 0.4729166666666629,
      "velocity": 43,
      "track": 1
    },
    {
      "pitch": 64,
      "start_beat": 150.0,
      "duration_beat": 0.4729166666666629,
      "velocity": 43,
      "track": 1
    },
    {
      "pitch": 67,
      "start_beat": 150.0,
      "duration_beat": 0.4729166666666629,
      "velocity": 43,
      "track": 1
    },
    {
      "pitch": 60,
      "start_beat": 150.0,
      "duration_beat": 0.23645833333333144,
      "velocity": 33,
      "track": 1
    },
    {
      "pitch": 60,
      "start_beat": 150.0,
      "duration_beat": 0.125,
      "velocity": 13,
      "track": 1
    },
    {
      "pitch": 64,
      "start_beat": 150.0,
      "duration_beat": 0.4729166666666629,
      "velocity": 33,
      "track": 1
    },
    {
      "pitch": 64,
      "start_beat": 150.0,
      "duration_beat": 0.4729166666666629,
      "velocity": 43,
      "track": 1
    },
    {
      "pitch": 68,
      "start_beat": 150.0,
      "duration_beat": 0.4729166666666629,
      "velocity": 43,
      "track": 1
    },
    {
      "pitch": 71,
      "start_beat": 150.0,
      "duration_beat": 0.4729166666666629,
      "velocity": 43,
      "track": 1
    },
    {
      "pitch": 64,
      "start_beat": 150.0,
      "duration_beat": 0.23645833333333144,
      "velocity": 33,
      "track": 1
    },
    {
      "pitch": 64,
      "start_beat": 150.0,
      "duration_beat": 0.125,
      "velocity": 13,
      "track": 1
    },
    {
      "pitch": 100,
      "start_beat": 150.08333333333334,
      "duration_beat": 0.078125,
      "velocity": 33,
      "track": 0
    },
    {
      "pitch": 93,
      "start_beat": 150.125,
      "duration_beat": 0.078125,
      "velocity": 33,
      "track": 0
    },
    {
      "pitch": 64,
      "start_beat": 150.125,
      "duration_beat": 0.23645833333333144,
      "velocity": 33,
      "track": 1
    },
    {
      "pitch": 67,
      "start_beat": 150.125,
      "duration_beat": 0.23645833333333144,
      "velocity": 33,
      "track": 1
    },
    {
      "pitch": 71,
      "start_beat": 150.125,
      "duration_beat": 0.23645833333333144,
      "velocity": 33,
      "track": 1
    },
    {
      "pitch": 84,
      "start_beat": 150.16666666666666,
      "duration_beat": 0.15625,
      "velocity": 33,
      "track": 0
    },
    {
      "pitch": 84,
      "start_beat": 150.16666666666666,
      "duration_beat": 0.15625,
      "velocity": 43,
      "track": 0
    },
    {
      "pitch": 88,
      "start_beat": 150.16666666666666,
      "duration_beat": 0.15625,
      "velocity": 43,
      "track": 0
    },
    {
      "pitch": 91,
      "start_beat": 150.16666666666666,
      "duration_beat": 0.15625,
      "velocity": 43,
      "track": 0
    },
    {
      "pitch": 84,
      "start_beat": 150.16666666666666,
      "duration_beat": 0.078125,
      "velocity": 33,
      "track": 0
    },
    {
      "pitch": 84,
      "start_beat": 150.16666666666666,
      "duration_beat": 0.125,
      "velocity": 13,
      "track": 0
    },
    {
      "pitch": 98,
      "start_beat": 150.25,
      "duration_beat": 0.078125,
      "velocity": 33,
      "track": 0
    },
    {
      "pitch": 69,
      "start_beat": 150.25,
      "duration_beat": 0.23645833333333144,
      "velocity": 33,
      "track": 1
    },
    {
      "pitch": 57,
      "start_beat": 150.25,
      "duration_beat": 0.125,
      "velocity": 13,
      "track": 1
    },
    {
      "pitch": 72,
      "start_beat": 150.25,
      "duration_beat": 0.23645833333333144,
      "velocity": 33,
      "track": 1
    },
    {
      "pitch": 60,
      "start_beat": 150.25,
      "duration_beat": 0.125,
      "velocity": 13,
      "track": 1
    },
    {
      "pitch": 76,
      "start_beat": 150.25,
      "duration_beat": 0.23645833333333144,
      "velocity": 33,
      "track": 1
    },
    {
      "pitch": 64,
      "start_beat": 150.25,
      "duration_beat": 0.125,
      "velocity": 13,
      "track": 1
    },
    {
      "pitch": 91,
      "start_beat": 150.29166666666666,
      "duration_beat": 0.078125,
      "velocity": 33,
      "track": 0
    },
    {
      "pitch": 83,
      "start_beat": 150.33333333333334,
      "duration_beat": 0.15625,
      "velocity": 33,
      "track": 0
    },
    {
      "pitch": 83,
      "start_beat": 150.33333333333334,
      "duration_beat": 0.15625,
      "velocity": 43,
      "track": 0
    },
    {
      "pitch": 87,
      "start_beat": 150.33333333333334,
      "duration_beat": 0.15625,
      "velocity": 43,
      "track": 0
    },
    {
      "pitch": 90,
      "start_beat": 150.33333333333334,
      "duration_beat": 0.15625,
      "velocity": 43,
      "track": 0
    },
    {
      "pitch": 83,
      "start_beat": 150.33333333333334,
      "duration_beat": 0.078125,
      "velocity": 33,
      "track": 0
    },
    {
      "pitch": 83,
      "start_beat": 150.33333333333334,
      "duration_beat": 0.125,
      "velocity": 13,
      "track": 0
    },
    {
      "pitch": 96,
      "start_beat": 150.41666666666666,
      "duration_beat": 0.078125,
      "velocity": 33,
      "track": 0
    },
    {
      "pitch": 90,
      "start_beat": 150.45833333333334,
      "duration_beat": 0.078125,
      "velocity": 33,
      "track": 0
    },
    {
      "pitch": 81,
      "start_beat": 150.5,
      "duration_beat": 0.15625,
      "velocity": 33,
      "track": 0
    },
    {
      "pitch": 81,
      "start_beat": 150.5,
      "duration_beat": 0.15625,
      "velocity": 43,
      "track": 0
    },
    {
      "pitch": 85,
      "start_beat": 150.5,
      "duration_beat": 0.15625,
      "velocity": 43,
      "track": 0
    },
    {
      "pitch": 88,
      "start_beat": 150.5,
      "duration_beat": 0.15625,
      "velocity": 43,
      "track": 0
    },
    {
      "pitch": 81,
      "start_beat": 150.5,
      "duration_beat": 0.078125,
      "velocity": 33,
      "track": 0
    },
    {
      "pitch": 81,
      "start_beat": 150.5,
      "duration_beat": 0.125,
      "velocity": 13,
      "track": 0
    },
    {
      "pitch": 57,
      "start_beat": 150.5,
      "duration_beat": 0.4729166666666629,
      "velocity": 33,
      "track": 1
    },
    {
      "pitch": 57,
      "start_beat": 150.5,
      "duration_beat": 0.4729166666666629,
      "velocity": 43,
      "track": 1
    },
    {
      "pitch": 61,
      "start_beat": 150.5,
      "duration_beat": 0.4729166666666629,
      "velocity": 43,
      "track": 1
    },
    {
      "pitch": 64,
      "start_beat": 150.5,
      "duration_beat": 0.4729166666666629,
      "velocity": 43,
      "track": 1
    },
    {
      "pitch": 57,
      "start_beat": 150.5,
      "duration_beat": 0.23645833333333144,
      "velocity": 33,
      "track": 1
    },
    {
      "pitch": 57,
      "start_beat": 150.5,
      "duration_beat": 0.125,
      "velocity": 13,
      "track": 1
    },
    {
      "pitch": 60,
      "start_beat": 150.5,
      "duration_beat": 0.4729166666666629,
      "velocity": 33,
      "track": 1
    },
    {
      "pitch": 60,
      "start_beat": 150.5,
      "duration_beat": 0.4729166666666629,
      "velocity": 43,
      "track": 1
    },
    {
      "pitch": 64,
      "start_beat": 150.5,
      "duration_beat": 0.4729166666666629,
      "velocity": 43,
      "track": 1
    },
    {
      "pitch": 67,
      "start_beat": 150.5,
      "duration_beat": 0.4729166666666629,
      "velocity": 43,
      "track": 1
    },
    {
      "pitch": 60,
      "start_beat": 150.5,
      "duration_beat": 0.23645833333333144,
      "velocity": 33,
      "track": 1
    },
    {
      "pitch": 60,
      "start_beat": 150.5,
      "duration_beat": 0.125,
      "velocity": 13,
      "track": 1
    },
    {
      "pitch": 64,
      "start_beat": 150.5,
      "duration_beat": 0.4729166666666629,
      "velocity": 33,
      "track": 1
    },
    {
      "pitch": 64,
      "start_beat": 150.5,
      "duration_beat": 0.4729166666666629,
      "velocity": 43,
      "track": 1
    },
    {
      "pitch": 68,
      "start_beat": 150.5,
      "duration_beat": 0.4729166666666629,
      "velocity": 43,
      "track": 1
    },
    {
      "pitch": 71,
      "start_beat": 150.5,
      "duration_beat": 0.4729166666666629,
      "velocity": 43,
      "track": 1
    },
    {
      "pitch": 64,
      "start_beat": 150.5,
      "duration_beat": 0.23645833333333144,
      "velocity": 33,
      "track": 1
    },
    {
      "pitch": 64,
      "start_beat": 150.5,
      "duration_beat": 0.125,
      "velocity": 13,
      "track": 1
    },
    {
      "pitch": 95,
      "start_beat": 150.58333333333334,
      "duration_beat": 0.078125,
      "velocity": 33,
      "track": 0
    },
    {
      "pitch": 88,
      "start_beat": 150.625,
      "duration_beat": 0.078125,
      "velocity": 33,
      "track": 0
    },
    {
      "pitch": 64,
      "start_beat": 150.625,
      "duration_beat": 0.23645833333333144,
      "velocity": 33,
      "track": 1
    },
    {
      "pitch": 67,
      "start_beat": 150.625,
      "duration_beat": 0.23645833333333144,
      "velocity": 33,
      "track": 1
    },
    {
      "pitch": 71,
      "start_beat": 150.625,
      "duration_beat": 0.23645833333333144,
      "velocity": 33,
      "track": 1
    },
    {
      "pitch": 84,
      "start_beat": 150.66666666666666,
      "duration_beat": 0.15625,
      "velocity": 33,
      "track": 0
    },
    {
      "pitch": 84,
      "start_beat": 150.66666666666666,
      "duration_beat": 0.15625,
      "velocity": 43,
      "track": 0
    },
    {
      "pitch": 88,
      "start_beat": 150.66666666666666,
      "duration_beat": 0.15625,
      "velocity": 43,
      "track": 0
    },
    {
      "pitch": 91,
      "start_beat": 150.66666666666666,
      "duration_beat": 0.15625,
      "velocity": 43,
      "track": 0
    },
    {
      "pitch": 84,
      "start_beat": 150.66666666666666,
      "duration_beat": 0.078125,
      "velocity": 33,
      "track": 0
    },
    {
      "pitch": 84,
      "start_beat": 150.66666666666666,
      "duration_beat": 0.125,
      "velocity": 13,
      "track": 0
    },
    {
      "pitch": 93,
      "start_beat": 150.75,
      "duration_beat": 0.078125,
      "velocity": 33,
      "track": 0
    },
    {
      "pitch": 69,
      "start_beat": 150.75,
      "duration_beat": 0.23645833333333144,
      "velocity": 33,
      "track": 1
    },
    {
      "pitch": 57,
      "start_beat": 150.75,
      "duration_beat": 0.125,
      "velocity": 13,
      "track": 1
    },
    {
      "pitch": 72,
      "start_beat": 150.75,
      "duration_beat": 0.23645833333333144,
      "velocity": 33,
      "track": 1
    },
    {
      "pitch": 60,
      "start_beat": 150.75,
      "duration_beat": 0.125,
      "velocity": 13,
      "track": 1
    },
    {
      "pitch": 76,
      "start_beat": 150.75,
      "duration_beat": 0.23645833333333144,
      "velocity": 33,
      "track": 1
    },
    {
      "pitch": 64,
      "start_beat": 150.75,
      "duration_beat": 0.125,
      "velocity": 13,
      "track": 1
    },
    {
      "pitch": 91,
      "start_beat": 150.79166666666666,
      "duration_beat": 0.078125,
      "velocity": 33,
      "track": 0
    },
    {
      "pitch": 88,
      "start_beat": 150.83333333333334,
      "duration_beat": 0.15625,
      "velocity": 33,
      "track": 0
    },
    {
      "pitch": 88,
      "start_beat": 150.83333333333334,
      "duration_beat": 0.15625,
      "velocity": 43,
      "track": 0
    },
    {
      "pitch": 92,
      "start_beat": 150.83333333333334,
      "duration_beat": 0.15625,
      "velocity": 43,
      "track": 0
    },
    {
      "pitch": 95,
      "start_beat": 150.83333333333334,
      "duration_beat": 0.15625,
      "velocity": 43,
      "track": 0
    },
    {
      "pitch": 88,
      "start_beat": 150.83333333333334,
      "duration_beat": 0.078125,
      "velocity": 33,
      "track": 0
    },
    {
      "pitch": 88,
      "start_beat": 150.83333333333334,
      "duration_beat": 0.125,
      "velocity": 13,
      "track": 0
    },
    {
      "pitch": 96,
      "start_beat": 150.91666666666666,
      "duration_beat": 0.078125,
      "velocity": 33,
      "track": 0
    },
    {
      "pitch": 95,
      "start_beat": 150.95833333333334,
      "duration_beat": 0.078125,
      "velocity": 33,
      "track": 0
    },
    {
      "pitch": 93,
      "start_beat": 151.0,
      "duration_beat": 0.15625,
      "velocity": 33,
      "track": 0
    },
    {
      "pitch": 93,
      "start_beat": 151.0,
      "duration_beat": 0.15625,
      "velocity": 43,
      "track": 0
    },
    {
      "pitch": 97,
      "start_beat": 151.0,
      "duration_beat": 0.15625,
      "velocity": 43,
      "track": 0
    },
    {
      "pitch": 100,
      "start_beat": 151.0,
      "duration_beat": 0.15625,
      "velocity": 43,
      "track": 0
    },
    {
      "pitch": 93,
      "start_beat": 151.0,
      "duration_beat": 0.078125,
      "velocity": 33,
      "track": 0
    },
    {
      "pitch": 93,
      "start_beat": 151.0,
      "duration_beat": 0.125,
      "velocity": 13,
      "track": 0
    },
    {
      "pitch": 100,
      "start_beat": 151.08333333333334,
      "duration_beat": 0.078125,
      "velocity": 33,
      "track": 0
    },
    {
      "pitch": 100,
      "start_beat": 151.125,
      "duration_beat": 0.078125,
      "velocity": 33,
      "track": 0
    },
    {
      "pitch": 96,
      "start_beat": 151.16666666666666,
      "duration_beat": 0.15625,
      "velocity": 33,
      "track": 0
    },
    {
      "pitch": 96,
      "start_beat": 151.16666666666666,
      "duration_beat": 0.15625,
      "velocity": 43,
      "track": 0
    },
    {
      "pitch": 100,
      "start_beat": 151.16666666666666,
      "duration_beat": 0.15625,
      "velocity": 43,
      "track": 0
    },
    {
      "pitch": 103,
      "start_beat": 151.16666666666666,
      "duration_beat": 0.15625,
      "velocity": 43,
      "track": 0
    },
    {
      "pitch": 96,
      "start_beat": 151.16666666666666,
      "duration_beat": 0.078125,
      "velocity": 33,
      "track": 0
    },
    {
      "pitch": 96,
      "start_beat": 151.16666666666666,
      "duration_beat": 0.125,
      "velocity": 13,
      "track": 0
    },
    {
      "pitch": 105,
      "start_beat": 151.25,
      "duration_beat": 0.078125,
      "velocity": 33,
      "track": 0
    },
    {
      "pitch": 103,
      "start_beat": 151.29166666666666,
      "duration_beat": 0.078125,
      "velocity": 33,
      "track": 0
    },
    {
      "pitch": 100,
      "start_beat": 151.33333333333334,
      "duration_beat": 0.15625,
      "velocity": 33,
      "track": 0
    },
    {
      "pitch": 100,
      "start_beat": 151.33333333333334,
      "duration_beat": 0.15625,
      "velocity": 43,
      "track": 0
    },
    {
      "pitch": 104,
      "start_beat": 151.33333333333334,
      "duration_beat": 0.15625,
      "velocity": 43,
      "track": 0
    },
    {
      "pitch": 107,
      "start_beat": 151.33333333333334,
      "duration_beat": 0.15625,
      "velocity": 43,
      "track": 0
    },
    {
      "pitch": 100,
      "start_beat": 151.33333333333334,
      "duration_beat": 0.078125,
      "velocity": 33,
      "track": 0
    },
    {
      "pitch": 100,
      "start_beat": 151.33333333333334,
      "duration_beat": 0.125,
      "velocity": 13,
      "track": 0
    },
    {
      "pitch": 108,
      "start_beat": 151.41666666666666,
      "duration_beat": 0.078125,
      "velocity": 33,
      "track": 0
    },
    {
      "pitch": 107,
      "start_beat": 151.45833333333334,
      "duration_beat": 0.078125,
      "velocity": 33,
      "track": 0
    },
    {
      "pitch": 98,
      "start_beat": 151.5,
      "duration_beat": 0.15625,
      "velocity": 33,
      "track": 0
    },
    {
      "pitch": 98,
      "start_beat": 151.5,
      "duration_beat": 0.15625,
      "velocity": 43,
      "track": 0
    },
    {
      "pitch": 102,
      "start_beat": 151.5,
      "duration_beat": 0.15625,
      "velocity": 43,
      "track": 0
    },
    {
      "pitch": 105,
      "start_beat": 151.5,
      "duration_beat": 0.15625,
      "velocity": 43,
      "track": 0
    },
    {
      "pitch": 98,
      "start_beat": 151.5,
      "duration_beat": 0.078125,
      "velocity": 33,
      "track": 0
    },
    {
      "pitch": 98,
      "start_beat": 151.5,
      "duration_beat": 0.125,
      "velocity": 13,
      "track": 0
    },
    {
      "pitch": 57,
      "start_beat": 151.5,
      "duration_beat": 0.4729166666666629,
      "velocity": 33,
      "track": 1
    },
    {
      "pitch": 57,
      "start_beat": 151.5,
      "duration_beat": 0.4729166666666629,
      "velocity": 43,
      "track": 1
    },
    {
      "pitch": 61,
      "start_beat": 151.5,
      "duration_beat": 0.4729166666666629,
      "velocity": 43,
      "track": 1
    },
    {
      "pitch": 64,
      "start_beat": 151.5,
      "duration_beat": 0.4729166666666629,
      "velocity": 43,
      "track": 1
    },
    {
      "pitch": 57,
      "start_beat": 151.5,
      "duration_beat": 0.23645833333333144,
      "velocity": 33,
      "track": 1
    },
    {
      "pitch": 57,
      "start_beat": 151.5,
      "duration_beat": 0.125,
      "velocity": 13,
      "track": 1
    },
    {
      "pitch": 60,
      "start_beat": 151.5,
      "duration_beat": 0.4729166666666629,
      "velocity": 33,
      "track": 1
    },
    {
      "pitch": 60,
      "start_beat": 151.5,
      "duration_beat": 0.4729166666666629,
      "velocity": 43,
      "track": 1
    },
    {
      "pitch": 64,
      "start_beat": 151.5,
      "duration_beat": 0.4729166666666629,
      "velocity": 43,
      "track": 1
    },
    {
      "pitch": 67,
      "start_beat": 151.5,
      "duration_beat": 0.4729166666666629,
      "velocity": 43,
      "track": 1
    },
    {
      "pitch": 60,
      "start_beat": 151.5,
      "duration_beat": 0.23645833333333144,
      "velocity": 33,
      "track": 1
    },
    {
      "pitch": 60,
      "start_beat": 151.5,
      "duration_beat": 0.125,
      "velocity": 13,
      "track": 1
    },
    {
      "pitch": 64,
      "start_beat": 151.5,
      "duration_beat": 0.4729166666666629,
      "velocity": 33,
      "track": 1
    },
    {
      "pitch": 64,
      "start_beat": 151.5,
      "duration_beat": 0.4729166666666629,
      "velocity": 43,
      "track": 1
    },
    {
      "pitch": 68,
      "start_beat": 151.5,
      "duration_beat": 0.4729166666666629,
      "velocity": 43,
      "track": 1
    },
    {
      "pitch": 71,
      "start_beat": 151.5,
      "duration_beat": 0.4729166666666629,
      "velocity": 43,
      "track": 1
    },
    {
      "pitch": 64,
      "start_beat": 151.5,
      "duration_beat": 0.23645833333333144,
      "velocity": 33,
      "track": 1
    },
    {
      "pitch": 64,
      "start_beat": 151.5,
      "duration_beat": 0.125,
      "velocity": 13,
      "track": 1
    },
    {
      "pitch": 112,
      "start_beat": 151.58333333333334,
      "duration_beat": 0.078125,
      "velocity": 33,
      "track": 0
    },
    {
      "pitch": 105,
      "start_beat": 151.625,
      "duration_beat": 0.078125,
      "velocity": 33,
      "track": 0
    },
    {
      "pitch": 64,
      "start_beat": 151.625,
      "duration_beat": 0.23645833333333144,
      "velocity": 33,
      "track": 1
    },
    {
      "pitch": 67,
      "start_beat": 151.625,
      "duration_beat": 0.23645833333333144,
      "velocity": 33,
      "track": 1
    },
    {
      "pitch": 71,
      "start_beat": 151.625,
      "duration_beat": 0.23645833333333144,
      "velocity": 33,
      "track": 1
    },
    {
      "pitch": 96,
      "start_beat": 151.66666666666666,
      "duration_beat": 0.15625,
      "velocity": 33,
      "track": 0
    },
    {
      "pitch": 96,
      "start_beat": 151.66666666666666,
      "duration_beat": 0.15625,
      "velocity": 43,
      "track": 0
    },
    {
      "pitch": 100,
      "start_beat": 151.66666666666666,
      "duration_beat": 0.15625,
      "velocity": 43,
      "track": 0
    },
    {
      "pitch": 103,
      "start_beat": 151.66666666666666,
      "duration_beat": 0.15625,
      "velocity": 43,
      "track": 0
    },
    {
      "pitch": 96,
      "start_beat": 151.66666666666666,
      "duration_beat": 0.078125,
      "velocity": 33,
      "track": 0
    },
    {
      "pitch": 96,
      "start_beat": 151.66666666666666,
      "duration_beat": 0.125,
      "velocity": 13,
      "track": 0
    },
    {
      "pitch": 110,
      "start_beat": 151.75,
      "duration_beat": 0.078125,
      "velocity": 33,
      "track": 0
    },
    {
      "pitch": 69,
      "start_beat": 151.75,
      "duration_beat": 0.23645833333333144,
      "velocity": 33,
      "track": 1
    },
    {
      "pitch": 57,
      "start_beat": 151.75,
      "duration_beat": 0.125,
      "velocity": 13,
      "track": 1
    },
    {
      "pitch": 72,
      "start_beat": 151.75,
      "duration_beat": 0.23645833333333144,
      "velocity": 33,
      "track": 1
    },
    {
      "pitch": 60,
      "start_beat": 151.75,
      "duration_beat": 0.125,
      "velocity": 13,
      "track": 1
    },
    {
      "pitch": 76,
      "start_beat": 151.75,
      "duration_beat": 0.23645833333333144,
      "velocity": 33,
      "track": 1
    },
    {
      "pitch": 64,
      "start_beat": 151.75,
      "duration_beat": 0.125,
      "velocity": 13,
      "track": 1
    },
    {
      "pitch": 103,
      "start_beat": 151.79166666666666,
      "duration_beat": 0.078125,
      "velocity": 33,
      "track": 0
    },
    {
      "pitch": 95,
      "start_beat": 151.83333333333334,
      "duration_beat": 0.15625,
      "velocity": 33,
      "track": 0
    },
    {
      "pitch": 95,
      "start_beat": 151.83333333333334,
      "duration_beat": 0.15625,
      "velocity": 43,
      "track": 0
    },
    {
      "pitch": 99,
      "start_beat": 151.83333333333334,
      "duration_beat": 0.15625,
      "velocity": 43,
      "track": 0
    },
    {
      "pitch": 102,
      "start_beat": 151.83333333333334,
      "duration_beat": 0.15625,
      "velocity": 43,
      "track": 0
    },
    {
      "pitch": 95,
      "start_beat": 151.83333333333334,
      "duration_beat": 0.078125,
      "velocity": 33,
      "track": 0
    },
    {
      "pitch": 95,
      "start_beat": 151.83333333333334,
      "duration_beat": 0.125,
      "velocity": 13,
      "track": 0
    },
    {
      "pitch": 108,
      "start_beat": 151.91666666666666,
      "duration_beat": 0.078125,
      "velocity": 33,
      "track": 0
    },
    {
      "pitch": 102,
      "start_beat": 151.95833333333334,
      "duration_beat": 0.078125,
      "velocity": 33,
      "track": 0
    },
    {
      "pitch": 94,
      "start_beat": 152.0,
      "duration_beat": 0.15625,
      "velocity": 33,
      "track": 0
    },
    {
      "pitch": 94,
      "start_beat": 152.0,
      "duration_beat": 0.15625,
      "velocity": 43,
      "track": 0
    },
    {
      "pitch": 98,
      "start_beat": 152.0,
      "duration_beat": 0.15625,
      "velocity": 43,
      "track": 0
    },
    {
      "pitch": 101,
      "start_beat": 152.0,
      "duration_beat": 0.15625,
      "velocity": 43,
      "track": 0
    },
    {
      "pitch": 94,
      "start_beat": 152.0,
      "duration_beat": 0.078125,
      "velocity": 33,
      "track": 0
    },
    {
      "pitch": 94,
      "start_beat": 152.0,
      "duration_beat": 0.125,
      "velocity": 13,
      "track": 0
    },
    {
      "pitch": 57,
      "start_beat": 152.0,
      "duration_beat": 0.4729166666666629,
      "velocity": 33,
      "track": 1
    },
    {
      "pitch": 57,
      "start_beat": 152.0,
      "duration_beat": 0.4729166666666629,
      "velocity": 43,
      "track": 1
    },
    {
      "pitch": 61,
      "start_beat": 152.0,
      "duration_beat": 0.4729166666666629,
      "velocity": 43,
      "track": 1
    },
    {
      "pitch": 64,
      "start_beat": 152.0,
      "duration_beat": 0.4729166666666629,
      "velocity": 43,
      "track": 1
    },
    {
      "pitch": 57,
      "start_beat": 152.0,
      "duration_beat": 0.23645833333333144,
      "velocity": 33,
      "track": 1
    },
    {
      "pitch": 57,
      "start_beat": 152.0,
      "duration_beat": 0.125,
      "velocity": 13,
      "track": 1
    },
    {
      "pitch": 60,
      "start_beat": 152.0,
      "duration_beat": 0.4729166666666629,
      "velocity": 33,
      "track": 1
    },
    {
      "pitch": 60,
      "start_beat": 152.0,
      "duration_beat": 0.4729166666666629,
      "velocity": 43,
      "track": 1
    },
    {
      "pitch": 64,
      "start_beat": 152.0,
      "duration_beat": 0.4729166666666629,
      "velocity": 43,
      "track": 1
    },
    {
      "pitch": 67,
      "start_beat": 152.0,
      "duration_beat": 0.4729166666666629,
      "velocity": 43,
      "track": 1
    },
    {
      "pitch": 60,
      "start_beat": 152.0,
      "duration_beat": 0.23645833333333144,
      "velocity": 33,
      "track": 1
    },
    {
      "pitch": 60,
      "start_beat": 152.0,
      "duration_beat": 0.125,
      "velocity": 13,
      "track": 1
    },
    {
      "pitch": 64,
      "start_beat": 152.0,
      "duration_beat": 0.4729166666666629,
      "velocity": 33,
      "track": 1
    },
    {
      "pitch": 64,
      "start_beat": 152.0,
      "duration_beat": 0.4729166666666629,
      "velocity": 43,
      "track": 1
    },
    {
      "pitch": 68,
      "start_beat": 152.0,
      "duration_beat": 0.4729166666666629,
      "velocity": 43,
      "track": 1
    },
    {
      "pitch": 71,
      "start_beat": 152.0,
      "duration_beat": 0.4729166666666629,
      "velocity": 43,
      "track": 1
    },
    {
      "pitch": 64,
      "start_beat": 152.0,
      "duration_beat": 0.23645833333333144,
      "velocity": 33,
      "track": 1
    },
    {
      "pitch": 64,
      "start_beat": 152.0,
      "duration_beat": 0.125,
      "velocity": 13,
      "track": 1
    },
    {
      "pitch": 107,
      "start_beat": 152.08333333333334,
      "duration_beat": 0.078125,
      "velocity": 33,
      "track": 0
    },
    {
      "pitch": 101,
      "start_beat": 152.125,
      "duration_beat": 0.078125,
      "velocity": 33,
      "track": 0
    },
    {
      "pitch": 64,
      "start_beat": 152.125,
      "duration_beat": 0.23645833333333144,
      "velocity": 33,
      "track": 1
    },
    {
      "pitch": 67,
      "start_beat": 152.125,
      "duration_beat": 0.23645833333333144,
      "velocity": 33,
      "track": 1
    },
    {
      "pitch": 71,
      "start_beat": 152.125,
      "duration_beat": 0.23645833333333144,
      "velocity": 33,
      "track": 1
    },
    {
      "pitch": 93,
      "start_beat": 152.16666666666666,
      "duration_beat": 0.15625,
      "velocity": 33,
      "track": 0
    },
    {
      "pitch": 93,
      "start_beat": 152.16666666666666,
      "duration_beat": 0.15625,
      "velocity": 43,
      "track": 0
    },
    {
      "pitch": 97,
      "start_beat": 152.16666666666666,
      "duration_beat": 0.15625,
      "velocity": 43,
      "track": 0
    },
    {
      "pitch": 100,
      "start_beat": 152.16666666666666,
      "duration_beat": 0.15625,
      "velocity": 43,
      "track": 0
    },
    {
      "pitch": 93,
      "start_beat": 152.16666666666666,
      "duration_beat": 0.078125,
      "velocity": 33,
      "track": 0
    },
    {
      "pitch": 93,
      "start_beat": 152.16666666666666,
      "duration_beat": 0.125,
      "velocity": 13,
      "track": 0
    },
    {
      "pitch": 106,
      "start_beat": 152.25,
      "duration_beat": 0.078125,
      "velocity": 33,
      "track": 0
    },
    {
      "pitch": 69,
      "start_beat": 152.25,
      "duration_beat": 0.23645833333333144,
      "velocity": 33,
      "track": 1
    },
    {
      "pitch": 57,
      "start_beat": 152.25,
      "duration_beat": 0.125,
      "velocity": 13,
      "track": 1
    },
    {
      "pitch": 72,
      "start_beat": 152.25,
      "duration_beat": 0.23645833333333144,
      "velocity": 33,
      "track": 1
    },
    {
      "pitch": 60,
      "start_beat": 152.25,
      "duration_beat": 0.125,
      "velocity": 13,
      "track": 1
    },
    {
      "pitch": 76,
      "start_beat": 152.25,
      "duration_beat": 0.23645833333333144,
      "velocity": 33,
      "track": 1
    },
    {
      "pitch": 64,
      "start_beat": 152.25,
      "duration_beat": 0.125,
      "velocity": 13,
      "track": 1
    },
    {
      "pitch": 100,
      "start_beat": 152.29166666666666,
      "duration_beat": 0.078125,
      "velocity": 33,
      "track": 0
    },
    {
      "pitch": 92,
      "start_beat": 152.33333333333334,
      "duration_beat": 0.15625,
      "velocity": 33,
      "track": 0
    },
    {
      "pitch": 92,
      "start_beat": 152.33333333333334,
      "duration_beat": 0.15625,
      "velocity": 43,
      "track": 0
    },
    {
      "pitch": 96,
      "start_beat": 152.33333333333334,
      "duration_beat": 0.15625,
      "velocity": 43,
      "track": 0
    },
    {
      "pitch": 99,
      "start_beat": 152.33333333333334,
      "duration_beat": 0.15625,
      "velocity": 43,
      "track": 0
    },
    {
      "pitch": 92,
      "start_beat": 152.33333333333334,
      "duration_beat": 0.078125,
      "velocity": 33,
      "track": 0
    },
    {
      "pitch": 92,
      "start_beat": 152.33333333333334,
      "duration_beat": 0.125,
      "velocity": 13,
      "track": 0
    },
    {
      "pitch": 105,
      "start_beat": 152.41666666666666,
      "duration_beat": 0.078125,
      "velocity": 33,
      "track": 0
    },
    {
      "pitch": 99,
      "start_beat": 152.45833333333334,
      "duration_beat": 0.078125,
      "velocity": 33,
      "track": 0
    },
    {
      "pitch": 91,
      "start_beat": 152.5,
      "duration_beat": 0.15625,
      "velocity": 33,
      "track": 0
    },
    {
      "pitch": 91,
      "start_beat": 152.5,
      "duration_beat": 0.15625,
      "velocity": 43,
      "track": 0
    },
    {
      "pitch": 95,
      "start_beat": 152.5,
      "duration_beat": 0.15625,
      "velocity": 43,
      "track": 0
    },
    {
      "pitch": 98,
      "start_beat": 152.5,
      "duration_beat": 0.15625,
      "velocity": 43,
      "track": 0
    },
    {
      "pitch": 91,
      "start_beat": 152.5,
      "duration_beat": 0.078125,
      "velocity": 33,
      "track": 0
    },
    {
      "pitch": 91,
      "start_beat": 152.5,
      "duration_beat": 0.125,
      "velocity": 13,
      "track": 0
    },
    {
      "pitch": 104,
      "start_beat": 152.58333333333334,
      "duration_beat": 0.078125,
      "velocity": 33,
      "track": 0
    },
    {
      "pitch": 98,
      "start_beat": 152.625,
      "duration_beat": 0.078125,
      "velocity": 33,
      "track": 0
    },
    {
      "pitch": 90,
      "start_beat": 152.66666666666666,
      "duration_beat": 0.15625,
      "velocity": 33,
      "track": 0
    },
    {
      "pitch": 90,
      "start_beat": 152.66666666666666,
      "duration_beat": 0.15625,
      "velocity": 43,
      "track": 0
    },
    {
      "pitch": 94,
      "start_beat": 152.66666666666666,
      "duration_beat": 0.15625,
      "velocity": 43,
      "track": 0
    },
    {
      "pitch": 97,
      "start_beat": 152.66666666666666,
      "duration_beat": 0.15625,
      "velocity": 43,
      "track": 0
    },
    {
      "pitch": 90,
      "start_beat": 152.66666666666666,
      "duration_beat": 0.078125,
      "velocity": 33,
      "track": 0
    },
    {
      "pitch": 90,
      "start_beat": 152.66666666666666,
      "duration_beat": 0.125,
      "velocity": 13,
      "track": 0
    },
    {
      "pitch": 103,
      "start_beat": 152.75,
      "duration_beat": 0.078125,
      "velocity": 33,
      "track": 0
    },
    {
      "pitch": 97,
      "start_beat": 152.79166666666666,
      "duration_beat": 0.078125,
      "velocity": 33,
      "track": 0
    },
    {
      "pitch": 89,
      "start_beat": 152.83333333333334,
      "duration_beat": 0.15625,
      "velocity": 33,
      "track": 0
    },
    {
      "pitch": 89,
      "start_beat": 152.83333333333334,
      "duration_beat": 0.15625,
      "velocity": 43,
      "track": 0
    },
    {
      "pitch": 93,
      "start_beat": 152.83333333333334,
      "duration_beat": 0.15625,
      "velocity": 43,
      "track": 0
    },
    {
      "pitch": 96,
      "start_beat": 152.83333333333334,
      "duration_beat": 0.15625,
      "velocity": 43,
      "track": 0
    },
    {
      "pitch": 89,
      "start_beat": 152.83333333333334,
      "duration_beat": 0.078125,
      "velocity": 33,
      "track": 0
    },
    {
      "pitch": 89,
      "start_beat": 152.83333333333334,
      "duration_beat": 0.125,
      "velocity": 13,
      "track": 0
    },
    {
      "pitch": 102,
      "start_beat": 152.91666666666666,
      "duration_beat": 0.078125,
      "velocity": 33,
      "track": 0
    },
    {
      "pitch": 96,
      "start_beat": 152.95833333333334,
      "duration_beat": 0.078125,
      "velocity": 33,
      "track": 0
    },
    {
      "pitch": 88,
      "start_beat": 153.0,
      "duration_beat": 0.15625,
      "velocity": 33,
      "track": 0
    },
    {
      "pitch": 88,
      "start_beat": 153.0,
      "duration_beat": 0.15625,
      "velocity": 43,
      "track": 0
    },
    {
      "pitch": 92,
      "start_beat": 153.0,
      "duration_beat": 0.15625,
      "velocity": 43,
      "track": 0
    },
    {
      "pitch": 95,
      "start_beat": 153.0,
      "duration_beat": 0.15625,
      "velocity": 43,
      "track": 0
    },
    {
      "pitch": 88,
      "start_beat": 153.0,
      "duration_beat": 0.078125,
      "velocity": 33,
      "track": 0
    },
    {
      "pitch": 88,
      "start_beat": 153.0,
      "duration_beat": 0.125,
      "velocity": 13,
      "track": 0
    },
    {
      "pitch": 101,
      "start_beat": 153.08333333333334,
      "duration_beat": 0.078125,
      "velocity": 33,
      "track": 0
    },
    {
      "pitch": 95,
      "start_beat": 153.125,
      "duration_beat": 0.078125,
      "velocity": 33,
      "track": 0
    },
    {
      "pitch": 87,
      "start_beat": 153.16666666666666,
      "duration_beat": 0.15625,
      "velocity": 33,
      "track": 0
    },
    {
      "pitch": 87,
      "start_beat": 153.16666666666666,
      "duration_beat": 0.15625,
      "velocity": 43,
      "track": 0
    },
    {
      "pitch": 91,
      "start_beat": 153.16666666666666,
      "duration_beat": 0.15625,
      "velocity": 43,
      "track": 0
    },
    {
      "pitch": 94,
      "start_beat": 153.16666666666666,
      "duration_beat": 0.15625,
      "velocity": 43,
      "track": 0
    },
    {
      "pitch": 87,
      "start_beat": 153.16666666666666,
      "duration_beat": 0.078125,
      "velocity": 33,
      "track": 0
    },
    {
      "pitch": 87,
      "start_beat": 153.16666666666666,
      "duration_beat": 0.125,
      "velocity": 13,
      "track": 0
    },
    {
      "pitch": 100,
      "start_beat": 153.25,
      "duration_beat": 0.078125,
      "velocity": 33,
      "track": 0
    },
    {
      "pitch": 94,
      "start_beat": 153.29166666666666,
      "duration_beat": 0.078125,
      "velocity": 33,
      "track": 0
    },
    {
      "pitch": 86,
      "start_beat": 153.33333333333334,
      "duration_beat": 0.15625,
      "velocity": 33,
      "track": 0
    },
    {
      "pitch": 86,
      "start_beat": 153.33333333333334,
      "duration_beat": 0.15625,
      "velocity": 43,
      "track": 0
    },
    {
      "pitch": 90,
      "start_beat": 153.33333333333334,
      "duration_beat": 0.15625,
      "velocity": 43,
      "track": 0
    },
    {
      "pitch": 93,
      "start_beat": 153.33333333333334,
      "duration_beat": 0.15625,
      "velocity": 43,
      "track": 0
    },
    {
      "pitch": 86,
      "start_beat": 153.33333333333334,
      "duration_beat": 0.078125,
      "velocity": 33,
      "track": 0
    },
    {
      "pitch": 86,
      "start_beat": 153.33333333333334,
      "duration_beat": 0.125,
      "velocity": 13,
      "track": 0
    },
    {
      "pitch": 99,
      "start_beat": 153.41666666666666,
      "duration_beat": 0.078125,
      "velocity": 33,
      "track": 0
    },
    {
      "pitch": 93,
      "start_beat": 153.45833333333334,
      "duration_beat": 0.078125,
      "velocity": 33,
      "track": 0
    },
    {
      "pitch": 85,
      "start_beat": 153.5,
      "duration_beat": 0.15625,
      "velocity": 33,
      "track": 0
    },
    {
      "pitch": 85,
      "start_beat": 153.5,
      "duration_beat": 0.15625,
      "velocity": 43,
      "track": 0
    },
    {
      "pitch": 89,
      "start_beat": 153.5,
      "duration_beat": 0.15625,
      "velocity": 43,
      "track": 0
    },
    {
      "pitch": 92,
      "start_beat": 153.5,
      "duration_beat": 0.15625,
      "velocity": 43,
      "track": 0
    },
    {
      "pitch": 85,
      "start_beat": 153.5,
      "duration_beat": 0.078125,
      "velocity": 33,
      "track": 0
    },
    {
      "pitch": 85,
      "start_beat": 153.5,
      "duration_beat": 0.125,
      "velocity": 13,
      "track": 0
    },
    {
      "pitch": 98,
      "start_beat": 153.58333333333334,
      "duration_beat": 0.078125,
      "velocity": 33,
      "track": 0
    },
    {
      "pitch": 92,
      "start_beat": 153.625,
      "duration_beat": 0.078125,
      "velocity": 33,
      "track": 0
    },
    {
      "pitch": 84,
      "start_beat": 153.66666666666666,
      "duration_beat": 0.15625,
      "velocity": 33,
      "track": 0
    },
    {
      "pitch": 84,
      "start_beat": 153.66666666666666,
      "duration_beat": 0.15625,
      "velocity": 43,
      "track": 0
    },
    {
      "pitch": 88,
      "start_beat": 153.66666666666666,
      "duration_beat": 0.15625,
      "velocity": 43,
      "track": 0
    },
    {
      "pitch": 91,
      "start_beat": 153.66666666666666,
      "duration_beat": 0.15625,
      "velocity": 43,
      "track": 0
    },
    {
      "pitch": 84,
      "start_beat": 153.66666666666666,
      "duration_beat": 0.078125,
      "velocity": 33,
      "track": 0
    },
    {
      "pitch": 84,
      "start_beat": 153.66666666666666,
      "duration_beat": 0.125,
      "velocity": 13,
      "track": 0
    },
    {
      "pitch": 97,
      "start_beat": 153.75,
      "duration_beat": 0.078125,
      "velocity": 33,
      "track": 0
    },
    {
      "pitch": 91,
      "start_beat": 153.79166666666666,
      "duration_beat": 0.078125,
      "velocity": 33,
      "track": 0
    },
    {
      "pitch": 83,
      "start_beat": 153.83333333333334,
      "duration_beat": 0.15625,
      "velocity": 33,
      "track": 0
    },
    {
      "pitch": 83,
      "start_beat": 153.83333333333334,
      "duration_beat": 0.15625,
      "velocity": 43,
      "track": 0
    },
    {
      "pitch": 87,
      "start_beat": 153.83333333333334,
      "duration_beat": 0.15625,
      "velocity": 43,
      "track": 0
    },
    {
      "pitch": 90,
      "start_beat": 153.83333333333334,
      "duration_beat": 0.15625,
      "velocity": 43,
      "track": 0
    },
    {
      "pitch": 83,
      "start_beat": 153.83333333333334,
      "duration_beat": 0.078125,
      "velocity": 33,
      "track": 0
    },
    {
      "pitch": 83,
      "start_beat": 153.83333333333334,
      "duration_beat": 0.125,
      "velocity": 13,
      "track": 0
    },
    {
      "pitch": 96,
      "start_beat": 153.91666666666666,
      "duration_beat": 0.078125,
      "velocity": 33,
      "track": 0
    },
    {
      "pitch": 90,
      "start_beat": 153.95833333333334,
      "duration_beat": 0.078125,
      "velocity": 33,
      "track": 0
    },
    {
      "pitch": 82,
      "start_beat": 154.0,
      "duration_beat": 0.15625,
      "velocity": 33,
      "track": 0
    },
    {
      "pitch": 82,
      "start_beat": 154.0,
      "duration_beat": 0.15625,
      "velocity": 43,
      "track": 0
    },
    {
      "pitch": 86,
      "start_beat": 154.0,
      "duration_beat": 0.15625,
      "velocity": 43,
      "track": 0
    },
    {
      "pitch": 89,
      "start_beat": 154.0,
      "duration_beat": 0.15625,
      "velocity": 43,
      "track": 0
    },
    {
      "pitch": 82,
      "start_beat": 154.0,
      "duration_beat": 0.078125,
      "velocity": 33,
      "track": 0
    },
    {
      "pitch": 82,
      "start_beat": 154.0,
      "duration_beat": 0.125,
      "velocity": 13,
      "track": 0
    },
    {
      "pitch": 95,
      "start_beat": 154.08333333333334,
      "duration_beat": 0.078125,
      "velocity": 33,
      "track": 0
    },
    {
      "pitch": 89,
      "start_beat": 154.125,
      "duration_beat": 0.078125,
      "velocity": 33,
      "track": 0
    },
    {
      "pitch": 81,
      "start_beat": 154.16666666666666,
      "duration_beat": 0.15625,
      "velocity": 33,
      "track": 0
    },
    {
      "pitch": 81,
      "start_beat": 154.16666666666666,
      "duration_beat": 0.15625,
      "velocity": 43,
      "track": 0
    },
    {
      "pitch": 85,
      "start_beat": 154.16666666666666,
      "duration_beat": 0.15625,
      "velocity": 43,
      "track": 0
    },
    {
      "pitch": 88,
      "start_beat": 154.16666666666666,
      "duration_beat": 0.15625,
      "velocity": 43,
      "track": 0
    },
    {
      "pitch": 81,
      "start_beat": 154.16666666666666,
      "duration_beat": 0.078125,
      "velocity": 33,
      "track": 0
    },
    {
      "pitch": 81,
      "start_beat": 154.16666666666666,
      "duration_beat": 0.125,
      "velocity": 13,
      "track": 0
    },
    {
      "pitch": 94,
      "start_beat": 154.25,
      "duration_beat": 0.078125,
      "velocity": 33,
      "track": 0
    },
    {
      "pitch": 88,
      "start_beat": 154.29166666666666,
      "duration_beat": 0.078125,
      "velocity": 33,
      "track": 0
    },
    {
      "pitch": 80,
      "start_beat": 154.33333333333334,
      "duration_beat": 0.15625,
      "velocity": 33,
      "track": 0
    },
    {
      "pitch": 80,
      "start_beat": 154.33333333333334,
      "duration_beat": 0.15625,
      "velocity": 43,
      "track": 0
    },
    {
      "pitch": 84,
      "start_beat": 154.33333333333334,
      "duration_beat": 0.15625,
      "velocity": 43,
      "track": 0
    },
    {
      "pitch": 87,
      "start_beat": 154.33333333333334,
      "duration_beat": 0.15625,
      "velocity": 43,
      "track": 0
    },
    {
      "pitch": 80,
      "start_beat": 154.33333333333334,
      "duration_beat": 0.078125,
      "velocity": 33,
      "track": 0
    },
    {
      "pitch": 80,
      "start_beat": 154.33333333333334,
      "duration_beat": 0.125,
      "velocity": 13,
      "track": 0
    },
    {
      "pitch": 93,
      "start_beat": 154.41666666666666,
      "duration_beat": 0.078125,
      "velocity": 33,
      "track": 0
    },
    {
      "pitch": 87,
      "start_beat": 154.45833333333334,
      "duration_beat": 0.078125,
      "velocity": 33,
      "track": 0
    },
    {
      "pitch": 79,
      "start_beat": 154.5,
      "duration_beat": 0.15625,
      "velocity": 33,
      "track": 0
    },
    {
      "pitch": 79,
      "start_beat": 154.5,
      "duration_beat": 0.15625,
      "velocity": 43,
      "track": 0
    },
    {
      "pitch": 83,
      "start_beat": 154.5,
      "duration_beat": 0.15625,
      "velocity": 43,
      "track": 0
    },
    {
      "pitch": 86,
      "start_beat": 154.5,
      "duration_beat": 0.15625,
      "velocity": 43,
      "track": 0
    },
    {
      "pitch": 79,
      "start_beat": 154.5,
      "duration_beat": 0.078125,
      "velocity": 33,
      "track": 0
    },
    {
      "pitch": 79,
      "start_beat": 154.5,
      "duration_beat": 0.125,
      "velocity": 13,
      "track": 0
    },
    {
      "pitch": 92,
      "start_beat": 154.58333333333334,
      "duration_beat": 0.078125,
      "velocity": 33,
      "track": 0
    },
    {
      "pitch": 86,
      "start_beat": 154.625,
      "duration_beat": 0.078125,
      "velocity": 33,
      "track": 0
    },
    {
      "pitch": 78,
      "start_beat": 154.66666666666666,
      "duration_beat": 0.15625,
      "velocity": 33,
      "track": 0
    },
    {
      "pitch": 78,
      "start_beat": 154.66666666666666,
      "duration_beat": 0.15625,
      "velocity": 43,
      "track": 0
    },
    {
      "pitch": 82,
      "start_beat": 154.66666666666666,
      "duration_beat": 0.15625,
      "velocity": 43,
      "track": 0
    },
    {
      "pitch": 85,
      "start_beat": 154.66666666666666,
      "duration_beat": 0.15625,
      "velocity": 43,
      "track": 0
    },
    {
      "pitch": 78,
      "start_beat": 154.66666666666666,
      "duration_beat": 0.078125,
      "velocity": 33,
      "track": 0
    },
    {
      "pitch": 78,
      "start_beat": 154.66666666666666,
      "duration_beat": 0.125,
      "velocity": 13,
      "track": 0
    },
    {
      "pitch": 91,
      "start_beat": 154.75,
      "duration_beat": 0.078125,
      "velocity": 33,
      "track": 0
    },
    {
      "pitch": 85,
      "start_beat": 154.79166666666666,
      "duration_beat": 0.078125,
      "velocity": 33,
      "track": 0
    },
    {
      "pitch": 77,
      "start_beat": 154.83333333333334,
      "duration_beat": 0.15625,
      "velocity": 33,
      "track": 0
    },
    {
      "pitch": 77,
      "start_beat": 154.83333333333334,
      "duration_beat": 0.15625,
      "velocity": 43,
      "track": 0
    },
    {
      "pitch": 81,
      "start_beat": 154.83333333333334,
      "duration_beat": 0.15625,
      "velocity": 43,
      "track": 0
    },
    {
      "pitch": 84,
      "start_beat": 154.83333333333334,
      "duration_beat": 0.15625,
      "velocity": 43,
      "track": 0
    },
    {
      "pitch": 77,
      "start_beat": 154.83333333333334,
      "duration_beat": 0.078125,
      "velocity": 33,
      "track": 0
    },
    {
      "pitch": 77,
      "start_beat": 154.83333333333334,
      "duration_beat": 0.125,
      "velocity": 13,
      "track": 0
    },
    {
      "pitch": 90,
      "start_beat": 154.91666666666666,
      "duration_beat": 0.078125,
      "velocity": 33,
      "track": 0
    },
    {
      "pitch": 84,
      "start_beat": 154.95833333333334,
      "duration_beat": 0.078125,
      "velocity": 33,
      "track": 0
    },
    {
      "pitch": 76,
      "start_beat": 155.0,
      "duration_beat": 0.23541666666667993,
      "velocity": 33,
      "track": 0
    },
    {
      "pitch": 76,
      "start_beat": 155.0,
      "duration_beat": 0.23541666666667993,
      "velocity": 43,
      "track": 0
    },
    {
      "pitch": 80,
      "start_beat": 155.0,
      "duration_beat": 0.23541666666667993,
      "velocity": 43,
      "track": 0
    },
    {
      "pitch": 83,
      "start_beat": 155.0,
      "duration_beat": 0.23541666666667993,
      "velocity": 43,
      "track": 0
    },
    {
      "pitch": 76,
      "start_beat": 155.0,
      "duration_beat": 0.11770833333333997,
      "velocity": 33,
      "track": 0
    },
    {
      "pitch": 76,
      "start_beat": 155.0,
      "duration_beat": 0.125,
      "velocity": 13,
      "track": 0
    },
    {
      "pitch": 89,
      "start_beat": 155.08333333333334,
      "duration_beat": 0.078125,
      "velocity": 33,
      "track": 0
    },
    {
      "pitch": 83,
      "start_beat": 155.125,
      "duration_beat": 0.11770833333333997,
      "velocity": 33,
      "track": 0
    },
    {
      "pitch": 88,
      "start_beat": 155.25,
      "duration_beat": 0.11770833333333997,
      "velocity": 33,
      "track": 0
    },
    {
      "pitch": 75,
      "start_beat": 155.25,
      "duration_beat": 0.23541666666667993,
      "velocity": 33,
      "track": 0
    },
    {
      "pitch": 75,
      "start_beat": 155.25,
      "duration_beat": 0.23541666666667993,
      "velocity": 43,
      "track": 0
    },
    {
      "pitch": 79,
      "start_beat": 155.25,
      "duration_beat": 0.23541666666667993,
      "velocity": 43,
      "track": 0
    },
    {
      "pitch": 82,
      "start_beat": 155.25,
      "duration_beat": 0.23541666666667993,
      "velocity": 43,
      "track": 0
    },
    {
      "pitch": 75,
      "start_beat": 155.25,
      "duration_beat": 0.11770833333333997,
      "velocity": 33,
      "track": 0
    },
    {
      "pitch": 75,
      "start_beat": 155.25,
      "duration_beat": 0.125,
      "velocity": 13,
      "track": 0
    },
    {
      "pitch": 82,
      "start_beat": 155.375,
      "duration_beat": 0.11770833333333997,
      "velocity": 33,
      "track": 0
    },
    {
      "pitch": 87,
      "start_beat": 155.5,
      "duration_beat": 0.11770833333333997,
      "velocity": 33,
      "track": 0
    },
    {
      "pitch": 76,
      "start_beat": 155.5,
      "duration_beat": 0.23541666666667993,
      "velocity": 33,
      "track": 0
    },
    {
      "pitch": 76,
      "start_beat": 155.5,
      "duration_beat": 0.23541666666667993,
      "velocity": 43,
      "track": 0
    },
    {
      "pitch": 80,
      "start_beat": 155.5,
      "duration_beat": 0.23541666666667993,
      "velocity": 43,
      "track": 0
    },
    {
      "pitch": 83,
      "start_beat": 155.5,
      "duration_beat": 0.23541666666667993,
      "velocity": 43,
      "track": 0
    },
    {
      "pitch": 76,
      "start_beat": 155.5,
      "duration_beat": 0.11770833333333997,
      "velocity": 33,
      "track": 0
    },
    {
      "pitch": 76,
      "start_beat": 155.5,
      "duration_beat": 0.125,
      "velocity": 13,
      "track": 0
    },
    {
      "pitch": 83,
      "start_beat": 155.625,
      "duration_beat": 0.11770833333333997,
      "velocity": 33,
      "track": 0
    },
    {
      "pitch": 88,
      "start_beat": 155.75,
      "duration_beat": 0.11770833333333997,
      "velocity": 33,
      "track": 0
    },
    {
      "pitch": 71,
      "start_beat": 155.75,
      "duration_beat": 0.23541666666667993,
      "velocity": 33,
      "track": 0
    },
    {
      "pitch": 71,
      "start_beat": 155.75,
      "duration_beat": 0.23541666666667993,
      "velocity": 43,
      "track": 0
    },
    {
      "pitch": 75,
      "start_beat": 155.75,
      "duration_beat": 0.23541666666667993,
      "velocity": 43,
      "track": 0
    },
    {
      "pitch": 78,
      "start_beat": 155.75,
      "duration_beat": 0.23541666666667993,
      "velocity": 43,
      "track": 0
    },
    {
      "pitch": 71,
      "start_beat": 155.75,
      "duration_beat": 0.11770833333333997,
      "velocity": 33,
      "track": 0
    },
    {
      "pitch": 71,
      "start_beat": 155.75,
      "duration_beat": 0.125,
      "velocity": 13,
      "track": 0
    },
    {
      "pitch": 78,
      "start_beat": 155.875,
      "duration_beat": 0.11770833333333997,
      "velocity": 33,
      "track": 0
    },
    {
      "pitch": 83,
      "start_beat": 156.0,
      "duration_beat": 0.11770833333333997,
      "velocity": 33,
      "track": 0
    },
    {
      "pitch": 74,
      "start_beat": 156.0,
      "duration_beat": 0.23541666666667993,
      "velocity": 33,
      "track": 0
    },
    {
      "pitch": 74,
      "start_beat": 156.0,
      "duration_beat": 0.23541666666667993,
      "velocity": 43,
      "track": 0
    },
    {
      "pitch": 78,
      "start_beat": 156.0,
      "duration_beat": 0.23541666666667993,
      "velocity": 43,
      "track": 0
    },
    {
      "pitch": 81,
      "start_beat": 156.0,
      "duration_beat": 0.23541666666667993,
      "velocity": 43,
      "track": 0
    },
    {
      "pitch": 74,
      "start_beat": 156.0,
      "duration_beat": 0.11770833333333997,
      "velocity": 33,
      "track": 0
    },
    {
      "pitch": 74,
      "start_beat": 156.0,
      "duration_beat": 0.125,
      "velocity": 13,
      "track": 0
    },
    {
      "pitch": 81,
      "start_beat": 156.125,
      "duration_beat": 0.11770833333333997,
      "velocity": 33,
      "track": 0
    },
    {
      "pitch": 86,
      "start_beat": 156.25,
      "duration_beat": 0.11770833333333997,
      "velocity": 33,
      "track": 0
    },
    {
      "pitch": 72,
      "start_beat": 156.25,
      "duration_beat": 0.23541666666667993,
      "velocity": 33,
      "track": 0
    },
    {
      "pitch": 72,
      "start_beat": 156.25,
      "duration_beat": 0.23541666666667993,
      "velocity": 43,
      "track": 0
    },
    {
      "pitch": 76,
      "start_beat": 156.25,
      "duration_beat": 0.23541666666667993,
      "velocity": 43,
      "track": 0
    },
    {
      "pitch": 79,
      "start_beat": 156.25,
      "duration_beat": 0.23541666666667993,
      "velocity": 43,
      "track": 0
    },
    {
      "pitch": 72,
      "start_beat": 156.25,
      "duration_beat": 0.11770833333333997,
      "velocity": 33,
      "track": 0
    },
    {
      "pitch": 72,
      "start_beat": 156.25,
      "duration_beat": 0.125,
      "velocity": 13,
      "track": 0
    },
    {
      "pitch": 79,
      "start_beat": 156.375,
      "duration_beat": 0.11770833333333997,
      "velocity": 33,
      "track": 0
    },
    {
      "pitch": 84,
      "start_beat": 156.5,
      "duration_beat": 0.11770833333333997,
      "velocity": 33,
      "track": 0
    },
    {
      "pitch": 69,
      "start_beat": 156.5,
      "duration_beat": 0.4729166666666629,
      "velocity": 33,
      "track": 0
    },
    {
      "pitch": 69,
      "start_beat": 156.5,
      "duration_beat": 0.4729166666666629,
      "velocity": 43,
      "track": 0
    },
    {
      "pitch": 73,
      "start_beat": 156.5,
      "duration_beat": 0.4729166666666629,
      "velocity": 43,
      "track": 0
    },
    {
      "pitch": 76,
      "start_beat": 156.5,
      "duration_beat": 0.4729166666666629,
      "velocity": 43,
      "track": 0
    },
    {
      "pitch": 69,
      "start_beat": 156.5,
      "duration_beat": 0.23645833333333144,
      "velocity": 33,
      "track": 0
    },
    {
      "pitch": 69,
      "start_beat": 156.5,
      "duration_beat": 0.125,
      "velocity": 13,
      "track": 0
    },
    {
      "pitch": 45,
      "start_beat": 156.5,
      "duration_beat": 0.23541666666667993,
      "velocity": 33,
      "track": 1
    },
    {
      "pitch": 45,
      "start_beat": 156.5,
      "duration_beat": 0.23541666666667993,
      "velocity": 43,
      "track": 1
    },
    {
      "pitch": 49,
      "start_beat": 156.5,
      "duration_beat": 0.23541666666667993,
      "velocity": 43,
      "track": 1
    },
    {
      "pitch": 52,
      "start_beat": 156.5,
      "duration_beat": 0.23541666666667993,
      "velocity": 43,
      "track": 1
    },
    {
      "pitch": 45,
      "start_beat": 156.5,
      "duration_beat": 0.11770833333333997,
      "velocity": 33,
      "track": 1
    },
    {
      "pitch": 45,
      "start_beat": 156.5,
      "duration_beat": 0.125,
      "velocity": 13,
      "track": 1
    },
    {
      "pitch": 76,
      "start_beat": 156.625,
      "duration_beat": 0.23645833333333144,
      "velocity": 33,
      "track": 0
    },
    {
      "pitch": 52,
      "start_beat": 156.625,
      "duration_beat": 0.11770833333333997,
      "velocity": 33,
      "track": 1
    },
    {
      "pitch": 81,
      "start_beat": 156.75,
      "duration_beat": 0.23645833333333144,
      "velocity": 33,
      "track": 0
    },
    {
      "pitch": 69,
      "start_beat": 156.75,
      "duration_beat": 0.125,
      "velocity": 13,
      "track": 0
    },
    {
      "pitch": 57,
      "start_beat": 156.75,
      "duration_beat": 0.11770833333333997,
      "velocity": 33,
      "track": 1
    },
    {
      "pitch": 52,
      "start_beat": 156.75,
      "duration_beat": 0.23541666666667993,
      "velocity": 33,
      "track": 1
    },
    {
      "pitch": 52,
      "start_beat": 156.75,
      "duration_beat": 0.23541666666667993,
      "velocity": 43,
      "track": 1
    },
    {
      "pitch": 56,
      "start_beat": 156.75,
      "duration_beat": 0.23541666666667993,
      "velocity": 43,
      "track": 1
    },
    {
      "pitch": 59,
      "start_beat": 156.75,
      "duration_beat": 0.23541666666667993,
      "velocity": 43,
      "track": 1
    },
    {
      "pitch": 52,
      "start_beat": 156.75,
      "duration_beat": 0.11770833333333997,
      "velocity": 33,
      "track": 1
    },
    {
      "pitch": 52,
      "start_beat": 156.75,
      "duration_beat": 0.125,
      "velocity": 13,
      "track": 1
    },
    {
      "pitch": 59,
      "start_beat": 156.875,
      "duration_beat": 0.11770833333333997,
      "velocity": 33,
      "track": 1
    },
    {
      "pitch": 64,
      "start_beat": 157.0,
      "duration_beat": 0.11770833333333997,
      "velocity": 33,
      "track": 1
    },
    {
      "pitch": 57,
      "start_beat": 157.0,
      "duration_beat": 0.23541666666667993,
      "velocity": 33,
      "track": 1
    },
    {
      "pitch": 57,
      "start_beat": 157.0,
      "duration_beat": 0.23541666666667993,
      "velocity": 43,
      "track": 1
    },
    {
      "pitch": 61,
      "start_beat": 157.0,
      "duration_beat": 0.23541666666667993,
      "velocity": 43,
      "track": 1
    },
    {
      "pitch": 64,
      "start_beat": 157.0,
      "duration_beat": 0.23541666666667993,
      "velocity": 43,
      "track": 1
    },
    {
      "pitch": 57,
      "start_beat": 157.0,
      "duration_beat": 0.11770833333333997,
      "velocity": 33,
      "track": 1
    },
    {
      "pitch": 57,
      "start_beat": 157.0,
      "duration_beat": 0.125,
      "velocity": 13,
      "track": 1
    },
    {
      "pitch": 64,
      "start_beat": 157.125,
      "duration_beat": 0.11770833333333997,
      "velocity": 33,
      "track": 1
    },
    {
      "pitch": 69,
      "start_beat": 157.25,
      "duration_beat": 0.11770833333333997,
      "velocity": 33,
      "track": 1
    },
    {
      "pitch": 60,
      "start_beat": 157.25,
      "duration_beat": 0.23541666666667993,
      "velocity": 33,
      "track": 0
    },
    {
      "pitch": 60,
      "start_beat": 157.25,
      "duration_beat": 0.23541666666667993,
      "velocity": 43,
      "track": 0
    },
    {
      "pitch": 64,
      "start_beat": 157.25,
      "duration_beat": 0.23541666666667993,
      "velocity": 43,
      "track": 0
    },
    {
      "pitch": 67,
      "start_beat": 157.25,
      "duration_beat": 0.23541666666667993,
      "velocity": 43,
      "track": 0
    },
    {
      "pitch": 60,
      "start_beat": 157.25,
      "duration_beat": 0.11770833333333997,
      "velocity": 33,
      "track": 0
    },
    {
      "pitch": 60,
      "start_beat": 157.25,
      "duration_beat": 0.125,
      "velocity": 13,
      "track": 0
    },
    {
      "pitch": 67,
      "start_beat": 157.375,
      "duration_beat": 0.11770833333333997,
      "velocity": 33,
      "track": 0
    },
    {
      "pitch": 72,
      "start_beat": 157.5,
      "duration_beat": 0.11770833333333997,
      "velocity": 33,
      "track": 0
    },
    {
      "pitch": 64,
      "start_beat": 157.5,
      "duration_beat": 0.23541666666667993,
      "velocity": 33,
      "track": 0
    },
    {
      "pitch": 64,
      "start_beat": 157.5,
      "duration_beat": 0.23541666666667993,
      "velocity": 43,
      "track": 0
    },
    {
      "pitch": 68,
      "start_beat": 157.5,
      "duration_beat": 0.23541666666667993,
      "velocity": 43,
      "track": 0
    },
    {
      "pitch": 71,
      "start_beat": 157.5,
      "duration_beat": 0.23541666666667993,
      "velocity": 43,
      "track": 0
    },
    {
      "pitch": 64,
      "start_beat": 157.5,
      "duration_beat": 0.11770833333333997,
      "velocity": 33,
      "track": 0
    },
    {
      "pitch": 64,
      "start_beat": 157.5,
      "duration_beat": 0.125,
      "velocity": 13,
      "track": 0
    },
    {
      "pitch": 71,
      "start_beat": 157.625,
      "duration_beat": 0.11770833333333997,
      "velocity": 33,
      "track": 0
    },
    {
      "pitch": 76,
      "start_beat": 157.75,
      "duration_beat": 0.11770833333333997,
      "velocity": 33,
      "track": 0
    },
    {
      "pitch": 69,
      "start_beat": 157.75,
      "duration_beat": 0.23541666666667993,
      "velocity": 33,
      "track": 0
    },
    {
      "pitch": 69,
      "start_beat": 157.75,
      "duration_beat": 0.23541666666667993,
      "velocity": 43,
      "track": 0
    },
    {
      "pitch": 73,
      "start_beat": 157.75,
      "duration_beat": 0.23541666666667993,
      "velocity": 43,
      "track": 0
    },
    {
      "pitch": 76,
      "start_beat": 157.75,
      "duration_beat": 0.23541666666667993,
      "velocity": 43,
      "track": 0
    },
    {
      "pitch": 69,
      "start_beat": 157.75,
      "duration_beat": 0.11770833333333997,
      "velocity": 33,
      "track": 0
    },
    {
      "pitch": 69,
      "start_beat": 157.75,
      "duration_beat": 0.125,
      "velocity": 13,
      "track": 0
    },
    {
      "pitch": 76,
      "start_beat": 157.875,
      "duration_beat": 0.11770833333333997,
      "velocity": 33,
      "track": 0
    },
    {
      "pitch": 81,
      "start_beat": 158.0,
      "duration_beat": 0.11770833333333997,
      "velocity": 33,
      "track": 0
    },
    {
      "pitch": 71,
      "start_beat": 158.0,
      "duration_beat": 0.4729166666666629,
      "velocity": 33,
      "track": 0
    },
    {
      "pitch": 71,
      "start_beat": 158.0,
      "duration_beat": 0.4729166666666629,
      "velocity": 43,
      "track": 0
    },
    {
      "pitch": 75,
      "start_beat": 158.0,
      "duration_beat": 0.4729166666666629,
      "velocity": 43,
      "track": 0
    },
    {
      "pitch": 78,
      "start_beat": 158.0,
      "duration_beat": 0.4729166666666629,
      "velocity": 43,
      "track": 0
    },
    {
      "pitch": 71,
      "start_beat": 158.0,
      "duration_beat": 0.23645833333333144,
      "velocity": 33,
      "track": 0
    },
    {
      "pitch": 71,
      "start_beat": 158.0,
      "duration_beat": 0.125,
      "velocity": 13,
      "track": 0
    },
    {
      "pitch": 40,
      "start_beat": 158.0,
      "duration_beat": 0.23541666666667993,
      "velocity": 33,
      "track": 1
    },
    {
      "pitch": 40,
      "start_beat": 158.0,
      "duration_beat": 0.23541666666667993,
      "velocity": 43,
      "track": 1
    },
    {
      "pitch": 44,
      "start_beat": 158.0,
      "duration_beat": 0.23541666666667993,
      "velocity": 43,
      "track": 1
    },
    {
      "pitch": 47,
      "start_beat": 158.0,
      "duration_beat": 0.23541666666667993,
      "velocity": 43,
      "track": 1
    },
    {
      "pitch": 40,
      "start_beat": 158.0,
      "duration_beat": 0.11770833333333997,
      "velocity": 33,
      "track": 1
    },
    {
      "pitch": 40,
      "start_beat": 158.0,
      "duration_beat": 0.125,
      "velocity": 13,
      "track": 1
    },
    {
      "pitch": 78,
      "start_beat": 158.125,
      "duration_beat": 0.23645833333333144,
      "velocity": 33,
      "track": 0
    },
    {
      "pitch": 47,
      "start_beat": 158.125,
      "duration_beat": 0.11770833333333997,
      "velocity": 33,
      "track": 1
    },
    {
      "pitch": 83,
      "start_beat": 158.25,
      "duration_beat": 0.23645833333333144,
      "velocity": 33,
      "track": 0
    },
    {
      "pitch": 71,
      "start_beat": 158.25,
      "duration_beat": 0.125,
      "velocity": 13,
      "track": 0
    },
    {
      "pitch": 52,
      "start_beat": 158.25,
      "duration_beat": 0.11770833333333997,
      "velocity": 33,
      "track": 1
    },
    {
      "pitch": 52,
      "start_beat": 158.25,
      "duration_beat": 0.23541666666667993,
      "velocity": 33,
      "track": 1
    },
    {
      "pitch": 52,
      "start_beat": 158.25,
      "duration_beat": 0.23541666666667993,
      "velocity": 43,
      "track": 1
    },
    {
      "pitch": 56,
      "start_beat": 158.25,
      "duration_beat": 0.23541666666667993,
      "velocity": 43,
      "track": 1
    },
    {
      "pitch": 59,
      "start_beat": 158.25,
      "duration_beat": 0.23541666666667993,
      "velocity": 43,
      "track": 1
    },
    {
      "pitch": 52,
      "start_beat": 158.25,
      "duration_beat": 0.11770833333333997,
      "velocity": 33,
      "track": 1
    },
    {
      "pitch": 52,
      "start_beat": 158.25,
      "duration_beat": 0.125,
      "velocity": 13,
      "track": 1
    },
    {
      "pitch": 59,
      "start_beat": 158.375,
      "duration_beat": 0.11770833333333997,
      "velocity": 33,
      "track": 1
    },
    {
      "pitch": 64,
      "start_beat": 158.5,
      "duration_beat": 0.11770833333333997,
      "velocity": 33,
      "track": 1
    },
    {
      "pitch": 56,
      "start_beat": 158.5,
      "duration_beat": 0.23541666666667993,
      "velocity": 33,
      "track": 1
    },
    {
      "pitch": 56,
      "start_beat": 158.5,
      "duration_beat": 0.23541666666667993,
      "velocity": 43,
      "track": 1
    },
    {
      "pitch": 60,
      "start_beat": 158.5,
      "duration_beat": 0.23541666666667993,
      "velocity": 43,
      "track": 1
    },
    {
      "pitch": 63,
      "start_beat": 158.5,
      "duration_beat": 0.23541666666667993,
      "velocity": 43,
      "track": 1
    },
    {
      "pitch": 56,
      "start_beat": 158.5,
      "duration_beat": 0.11770833333333997,
      "velocity": 33,
      "track": 1
    },
    {
      "pitch": 56,
      "start_beat": 158.5,
      "duration_beat": 0.125,
      "velocity": 13,
      "track": 1
    },
    {
      "pitch": 63,
      "start_beat": 158.625,
      "duration_beat": 0.11770833333333997,
      "velocity": 33,
      "track": 1
    },
    {
      "pitch": 68,
      "start_beat": 158.75,
      "duration_beat": 0.11770833333333997,
      "velocity": 33,
      "track": 1
    },
    {
      "pitch": 64,
      "start_beat": 158.75,
      "duration_beat": 0.23541666666667993,
      "velocity": 33,
      "track": 0
    },
    {
      "pitch": 64,
      "start_beat": 158.75,
      "duration_beat": 0.23541666666667993,
      "velocity": 43,
      "track": 0
    },
    {
      "pitch": 68,
      "start_beat": 158.75,
      "duration_beat": 0.23541666666667993,
      "velocity": 43,
      "track": 0
    },
    {
      "pitch": 71,
      "start_beat": 158.75,
      "duration_beat": 0.23541666666667993,
      "velocity": 43,
      "track": 0
    },
    {
      "pitch": 64,
      "start_beat": 158.75,
      "duration_beat": 0.11770833333333997,
      "velocity": 33,
      "track": 0
    },
    {
      "pitch": 64,
      "start_beat": 158.75,
      "duration_beat": 0.125,
      "velocity": 13,
      "track": 0
    },
    {
      "pitch": 71,
      "start_beat": 158.875,
      "duration_beat": 0.11770833333333997,
      "velocity": 33,
      "track": 0
    },
    {
      "pitch": 76,
      "start_beat": 159.0,
      "duration_beat": 0.11770833333333997,
      "velocity": 33,
      "track": 0
    },
    {
      "pitch": 68,
      "start_beat": 159.0,
      "duration_beat": 0.23541666666667993,
      "velocity": 33,
      "track": 0
    },
    {
      "pitch": 68,
      "start_beat": 159.0,
      "duration_beat": 0.23541666666667993,
      "velocity": 43,
      "track": 0
    },
    {
      "pitch": 72,
      "start_beat": 159.0,
      "duration_beat": 0.23541666666667993,
      "velocity": 43,
      "track": 0
    },
    {
      "pitch": 75,
      "start_beat": 159.0,
      "duration_beat": 0.23541666666667993,
      "velocity": 43,
      "track": 0
    },
    {
      "pitch": 68,
      "start_beat": 159.0,
      "duration_beat": 0.11770833333333997,
      "velocity": 33,
      "track": 0
    },
    {
      "pitch": 68,
      "start_beat": 159.0,
      "duration_beat": 0.125,
      "velocity": 13,
      "track": 0
    },
    {
      "pitch": 75,
      "start_beat": 159.125,
      "duration_beat": 0.11770833333333997,
      "velocity": 33,
      "track": 0
    },
    {
      "pitch": 80,
      "start_beat": 159.25,
      "duration_beat": 0.11770833333333997,
      "velocity": 33,
      "track": 0
    },
    {
      "pitch": 71,
      "start_beat": 159.25,
      "duration_beat": 0.23541666666667993,
      "velocity": 33,
      "track": 0
    },
    {
      "pitch": 71,
      "start_beat": 159.25,
      "duration_beat": 0.23541666666667993,
      "velocity": 43,
      "track": 0
    },
    {
      "pitch": 75,
      "start_beat": 159.25,
      "duration_beat": 0.23541666666667993,
      "velocity": 43,
      "track": 0
    },
    {
      "pitch": 78,
      "start_beat": 159.25,
      "duration_beat": 0.23541666666667993,
      "velocity": 43,
      "track": 0
    },
    {
      "pitch": 71,
      "start_beat": 159.25,
      "duration_beat": 0.11770833333333997,
      "velocity": 33,
      "track": 0
    },
    {
      "pitch": 71,
      "start_beat": 159.25,
      "duration_beat": 0.125,
      "velocity": 13,
      "track": 0
    },
    {
      "pitch": 78,
      "start_beat": 159.375,
      "duration_beat": 0.11770833333333997,
      "velocity": 33,
      "track": 0
    },
    {
      "pitch": 83,
      "start_beat": 159.5,
      "duration_beat": 0.11770833333333997,
      "velocity": 33,
      "track": 0
    },
    {
      "pitch": 72,
      "start_beat": 159.5,
      "duration_beat": 0.4729166666666629,
      "velocity": 33,
      "track": 0
    },
    {
      "pitch": 72,
      "start_beat": 159.5,
      "duration_beat": 0.4729166666666629,
      "velocity": 43,
      "track": 0
    },
    {
      "pitch": 76,
      "start_beat": 159.5,
      "duration_beat": 0.4729166666666629,
      "velocity": 43,
      "track": 0
    },
    {
      "pitch": 79,
      "start_beat": 159.5,
      "duration_beat": 0.4729166666666629,
      "velocity": 43,
      "track": 0
    },
    {
      "pitch": 72,
      "start_beat": 159.5,
      "duration_beat": 0.23645833333333144,
      "velocity": 33,
      "track": 0
    },
    {
      "pitch": 72,
      "start_beat": 159.5,
      "duration_beat": 0.125,
      "velocity": 13,
      "track": 0
    },
    {
      "pitch": 45,
      "start_beat": 159.5,
      "duration_beat": 0.23541666666667993,
      "velocity": 33,
      "track": 1
    },
    {
      "pitch": 45,
      "start_beat": 159.5,
      "duration_beat": 0.23541666666667993,
      "velocity": 43,
      "track": 1
    },
    {
      "pitch": 49,
      "start_beat": 159.5,
      "duration_beat": 0.23541666666667993,
      "velocity": 43,
      "track": 1
    },
    {
      "pitch": 52,
      "start_beat": 159.5,
      "duration_beat": 0.23541666666667993,
      "velocity": 43,
      "track": 1
    },
    {
      "pitch": 45,
      "start_beat": 159.5,
      "duration_beat": 0.11770833333333997,
      "velocity": 33,
      "track": 1
    },
    {
      "pitch": 45,
      "start_beat": 159.5,
      "duration_beat": 0.125,
      "velocity": 13,
      "track": 1
    },
    {
      "pitch": 79,
      "start_beat": 159.625,
      "duration_beat": 0.23645833333333144,
      "velocity": 33,
      "track": 0
    },
    {
      "pitch": 52,
      "start_beat": 159.625,
      "duration_beat": 0.11770833333333997,
      "velocity": 33,
      "track": 1
    },
    {
      "pitch": 84,
      "start_beat": 159.75,
      "duration_beat": 0.23645833333333144,
      "velocity": 33,
      "track": 0
    },
    {
      "pitch": 72,
      "start_beat": 159.75,
      "duration_beat": 0.125,
      "velocity": 13,
      "track": 0
    },
    {
      "pitch": 57,
      "start_beat": 159.75,
      "duration_beat": 0.11770833333333997,
      "velocity": 33,
      "track": 1
    },
    {
      "pitch": 52,
      "start_beat": 159.75,
      "duration_beat": 0.23541666666667993,
      "velocity": 33,
      "track": 1
    },
    {
      "pitch": 52,
      "start_beat": 159.75,
      "duration_beat": 0.23541666666667993,
      "velocity": 43,
      "track": 1
    },
    {
      "pitch": 56,
      "start_beat": 159.75,
      "duration_beat": 0.23541666666667993,
      "velocity": 43,
      "track": 1
    },
    {
      "pitch": 59,
      "start_beat": 159.75,
      "duration_beat": 0.23541666666667993,
      "velocity": 43,
      "track": 1
    },
    {
      "pitch": 52,
      "start_beat": 159.75,
      "duration_beat": 0.11770833333333997,
      "velocity": 33,
      "track": 1
    },
    {
      "pitch": 52,
      "start_beat": 159.75,
      "duration_beat": 0.125,
      "velocity": 13,
      "track": 1
    },
    {
      "pitch": 59,
      "start_beat": 159.875,
      "duration_beat": 0.11770833333333997,
      "velocity": 33,
      "track": 1
    },
    {
      "pitch": 64,
      "start_beat": 160.0,
      "duration_beat": 0.11770833333333997,
      "velocity": 33,
      "track": 1
    },
    {
      "pitch": 57,
      "start_beat": 160.0,
      "duration_beat": 0.23541666666667993,
      "velocity": 33,
      "track": 1
    },
    {
      "pitch": 57,
      "start_beat": 160.0,
      "duration_beat": 0.23541666666667993,
      "velocity": 43,
      "track": 1
    },
    {
      "pitch": 61,
      "start_beat": 160.0,
      "duration_beat": 0.23541666666667993,
      "velocity": 43,
      "track": 1
    },
    {
      "pitch": 64,
      "start_beat": 160.0,
      "duration_beat": 0.23541666666667993,
      "velocity": 43,
      "track": 1
    },
    {
      "pitch": 57,
      "start_beat": 160.0,
      "duration_beat": 0.11770833333333997,
      "velocity": 33,
      "track": 1
    },
    {
      "pitch": 57,
      "start_beat": 160.0,
      "duration_beat": 0.125,
      "velocity": 13,
      "track": 1
    },
    {
      "pitch": 64,
      "start_beat": 160.125,
      "duration_beat": 0.11770833333333997,
      "velocity": 33,
      "track": 1
    },
    {
      "pitch": 69,
      "start_beat": 160.25,
      "duration_beat": 0.11770833333333997,
      "velocity": 33,
      "track": 1
    },
    {
      "pitch": 64,
      "start_beat": 160.25,
      "duration_beat": 0.23541666666667993,
      "velocity": 33,
      "track": 0
    },
    {
      "pitch": 64,
      "start_beat": 160.25,
      "duration_beat": 0.23541666666667993,
      "velocity": 43,
      "track": 0
    },
    {
      "pitch": 68,
      "start_beat": 160.25,
      "duration_beat": 0.23541666666667993,
      "velocity": 43,
      "track": 0
    },
    {
      "pitch": 71,
      "start_beat": 160.25,
      "duration_beat": 0.23541666666667993,
      "velocity": 43,
      "track": 0
    },
    {
      "pitch": 64,
      "start_beat": 160.25,
      "duration_beat": 0.11770833333333997,
      "velocity": 33,
      "track": 0
    },
    {
      "pitch": 64,
      "start_beat": 160.25,
      "duration_beat": 0.125,
      "velocity": 13,
      "track": 0
    },
    {
      "pitch": 71,
      "start_beat": 160.375,
      "duration_beat": 0.11770833333333997,
      "velocity": 33,
      "track": 0
    },
    {
      "pitch": 76,
      "start_beat": 160.5,
      "duration_beat": 0.11770833333333997,
      "velocity": 33,
      "track": 0
    },
    {
      "pitch": 76,
      "start_beat": 160.5,
      "duration_beat": 0.23541666666667993,
      "velocity": 33,
      "track": 0
    },
    {
      "pitch": 76,
      "start_beat": 160.5,
      "duration_beat": 0.23541666666667993,
      "velocity": 43,
      "track": 0
    },
    {
      "pitch": 80,
      "start_beat": 160.5,
      "duration_beat": 0.23541666666667993,
      "velocity": 43,
      "track": 0
    },
    {
      "pitch": 83,
      "start_beat": 160.5,
      "duration_beat": 0.23541666666667993,
      "velocity": 43,
      "track": 0
    },
    {
      "pitch": 76,
      "start_beat": 160.5,
      "duration_beat": 0.11770833333333997,
      "velocity": 33,
      "track": 0
    },
    {
      "pitch": 76,
      "start_beat": 160.5,
      "duration_beat": 0.125,
      "velocity": 13,
      "track": 0
    },
    {
      "pitch": 83,
      "start_beat": 160.625,
      "duration_beat": 0.11770833333333997,
      "velocity": 33,
      "track": 0
    },
    {
      "pitch": 88,
      "start_beat": 160.75,
      "duration_beat": 0.11770833333333997,
      "velocity": 33,
      "track": 0
    },
    {
      "pitch": 75,
      "start_beat": 160.75,
      "duration_beat": 0.23541666666667993,
      "velocity": 33,
      "track": 0
    },
    {
      "pitch": 75,
      "start_beat": 160.75,
      "duration_beat": 0.23541666666667993,
      "velocity": 43,
      "track": 0
    },
    {
      "pitch": 79,
      "start_beat": 160.75,
      "duration_beat": 0.23541666666667993,
      "velocity": 43,
      "track": 0
    },
    {
      "pitch": 82,
      "start_beat": 160.75,
      "duration_beat": 0.23541666666667993,
      "velocity": 43,
      "track": 0
    },
    {
      "pitch": 75,
      "start_beat": 160.75,
      "duration_beat": 0.11770833333333997,
      "velocity": 33,
      "track": 0
    },
    {
      "pitch": 75,
      "start_beat": 160.75,
      "duration_beat": 0.125,
      "velocity": 13,
      "track": 0
    },
    {
      "pitch": 82,
      "start_beat": 160.875,
      "duration_beat": 0.11770833333333997,
      "velocity": 33,
      "track": 0
    },
    {
      "pitch": 87,
      "start_beat": 161.0,
      "duration_beat": 0.11770833333333997,
      "velocity": 33,
      "track": 0
    },
    {
      "pitch": 76,
      "start_beat": 161.0,
      "duration_beat": 0.23541666666667993,
      "velocity": 33,
      "track": 0
    },
    {
      "pitch": 76,
      "start_beat": 161.0,
      "duration_beat": 0.23541666666667993,
      "velocity": 43,
      "track": 0
    },
    {
      "pitch": 80,
      "start_beat": 161.0,
      "duration_beat": 0.23541666666667993,
      "velocity": 43,
      "track": 0
    },
    {
      "pitch": 83,
      "start_beat": 161.0,
      "duration_beat": 0.23541666666667993,
      "velocity": 43,
      "track": 0
    },
    {
      "pitch": 76,
      "start_beat": 161.0,
      "duration_beat": 0.11770833333333997,
      "velocity": 33,
      "track": 0
    },
    {
      "pitch": 76,
      "start_beat": 161.0,
      "duration_beat": 0.125,
      "velocity": 13,
      "track": 0
    },
    {
      "pitch": 83,
      "start_beat": 161.125,
      "duration_beat": 0.11770833333333997,
      "velocity": 33,
      "track": 0
    },
    {
      "pitch": 88,
      "start_beat": 161.25,
      "duration_beat": 0.11770833333333997,
      "velocity": 33,
      "track": 0
    },
    {
      "pitch": 75,
      "start_beat": 161.25,
      "duration_beat": 0.23541666666667993,
      "velocity": 33,
      "track": 0
    },
    {
      "pitch": 75,
      "start_beat": 161.25,
      "duration_beat": 0.23541666666667993,
      "velocity": 43,
      "track": 0
    },
    {
      "pitch": 79,
      "start_beat": 161.25,
      "duration_beat": 0.23541666666667993,
      "velocity": 43,
      "track": 0
    },
    {
      "pitch": 82,
      "start_beat": 161.25,
      "duration_beat": 0.23541666666667993,
      "velocity": 43,
      "track": 0
    },
    {
      "pitch": 75,
      "start_beat": 161.25,
      "duration_beat": 0.11770833333333997,
      "velocity": 33,
      "track": 0
    },
    {
      "pitch": 75,
      "start_beat": 161.25,
      "duration_beat": 0.125,
      "velocity": 13,
      "track": 0
    },
    {
      "pitch": 82,
      "start_beat": 161.375,
      "duration_beat": 0.11770833333333997,
      "velocity": 33,
      "track": 0
    },
    {
      "pitch": 87,
      "start_beat": 161.5,
      "duration_beat": 0.11770833333333997,
      "velocity": 33,
      "track": 0
    },
    {
      "pitch": 76,
      "start_beat": 161.5,
      "duration_beat": 0.23541666666667993,
      "velocity": 33,
      "track": 0
    },
    {
      "pitch": 76,
      "start_beat": 161.5,
      "duration_beat": 0.23541666666667993,
      "velocity": 43,
      "track": 0
    },
    {
      "pitch": 80,
      "start_beat": 161.5,
      "duration_beat": 0.23541666666667993,
      "velocity": 43,
      "track": 0
    },
    {
      "pitch": 83,
      "start_beat": 161.5,
      "duration_beat": 0.23541666666667993,
      "velocity": 43,
      "track": 0
    },
    {
      "pitch": 76,
      "start_beat": 161.5,
      "duration_beat": 0.11770833333333997,
      "velocity": 33,
      "track": 0
    },
    {
      "pitch": 76,
      "start_beat": 161.5,
      "duration_beat": 0.125,
      "velocity": 13,
      "track": 0
    },
    {
      "pitch": 83,
      "start_beat": 161.625,
      "duration_beat": 0.11770833333333997,
      "velocity": 33,
      "track": 0
    },
    {
      "pitch": 88,
      "start_beat": 161.75,
      "duration_beat": 0.11770833333333997,
      "velocity": 33,
      "track": 0
    },
    {
      "pitch": 71,
      "start_beat": 161.75,
      "duration_beat": 0.23541666666667993,
      "velocity": 33,
      "track": 0
    },
    {
      "pitch": 71,
      "start_beat": 161.75,
      "duration_beat": 0.23541666666667993,
      "velocity": 43,
      "track": 0
    },
    {
      "pitch": 75,
      "start_beat": 161.75,
      "duration_beat": 0.23541666666667993,
      "velocity": 43,
      "track": 0
    },
    {
      "pitch": 78,
      "start_beat": 161.75,
      "duration_beat": 0.23541666666667993,
      "velocity": 43,
      "track": 0
    },
    {
      "pitch": 71,
      "start_beat": 161.75,
      "duration_beat": 0.11770833333333997,
      "velocity": 33,
      "track": 0
    },
    {
      "pitch": 71,
      "start_beat": 161.75,
      "duration_beat": 0.125,
      "velocity": 13,
      "track": 0
    },
    {
      "pitch": 78,
      "start_beat": 161.875,
      "duration_beat": 0.11770833333333997,
      "velocity": 33,
      "track": 0
    },
    {
      "pitch": 83,
      "start_beat": 162.0,
      "duration_beat": 0.11770833333333997,
      "velocity": 33,
      "track": 0
    },
    {
      "pitch": 74,
      "start_beat": 162.0,
      "duration_beat": 0.23541666666667993,
      "velocity": 33,
      "track": 0
    },
    {
      "pitch": 74,
      "start_beat": 162.0,
      "duration_beat": 0.23541666666667993,
      "velocity": 43,
      "track": 0
    },
    {
      "pitch": 78,
      "start_beat": 162.0,
      "duration_beat": 0.23541666666667993,
      "velocity": 43,
      "track": 0
    },
    {
      "pitch": 81,
      "start_beat": 162.0,
      "duration_beat": 0.23541666666667993,
      "velocity": 43,
      "track": 0
    },
    {
      "pitch": 74,
      "start_beat": 162.0,
      "duration_beat": 0.11770833333333997,
      "velocity": 33,
      "track": 0
    },
    {
      "pitch": 74,
      "start_beat": 162.0,
      "duration_beat": 0.125,
      "velocity": 13,
      "track": 0
    },
    {
      "pitch": 81,
      "start_beat": 162.125,
      "duration_beat": 0.11770833333333997,
      "velocity": 33,
      "track": 0
    },
    {
      "pitch": 86,
      "start_beat": 162.25,
      "duration_beat": 0.11770833333333997,
      "velocity": 33,
      "track": 0
    },
    {
      "pitch": 72,
      "start_beat": 162.25,
      "duration_beat": 0.23541666666667993,
      "velocity": 33,
      "track": 0
    },
    {
      "pitch": 72,
      "start_beat": 162.25,
      "duration_beat": 0.23541666666667993,
      "velocity": 43,
      "track": 0
    },
    {
      "pitch": 76,
      "start_beat": 162.25,
      "duration_beat": 0.23541666666667993,
      "velocity": 43,
      "track": 0
    },
    {
      "pitch": 79,
      "start_beat": 162.25,
      "duration_beat": 0.23541666666667993,
      "velocity": 43,
      "track": 0
    },
    {
      "pitch": 72,
      "start_beat": 162.25,
      "duration_beat": 0.11770833333333997,
      "velocity": 33,
      "track": 0
    },
    {
      "pitch": 72,
      "start_beat": 162.25,
      "duration_beat": 0.125,
      "velocity": 13,
      "track": 0
    },
    {
      "pitch": 79,
      "start_beat": 162.375,
      "duration_beat": 0.11770833333333997,
      "velocity": 33,
      "track": 0
    },
    {
      "pitch": 84,
      "start_beat": 162.5,
      "duration_beat": 0.11770833333333997,
      "velocity": 33,
      "track": 0
    },
    {
      "pitch": 69,
      "start_beat": 162.5,
      "duration_beat": 0.4729166666666629,
      "velocity": 33,
      "track": 0
    },
    {
      "pitch": 69,
      "start_beat": 162.5,
      "duration_beat": 0.4729166666666629,
      "velocity": 43,
      "track": 0
    },
    {
      "pitch": 73,
      "start_beat": 162.5,
      "duration_beat": 0.4729166666666629,
      "velocity": 43,
      "track": 0
    },
    {
      "pitch": 76,
      "start_beat": 162.5,
      "duration_beat": 0.4729166666666629,
      "velocity": 43,
      "track": 0
    },
    {
      "pitch": 69,
      "start_beat": 162.5,
      "duration_beat": 0.23645833333333144,
      "velocity": 33,
      "track": 0
    },
    {
      "pitch": 69,
      "start_beat": 162.5,
      "duration_beat": 0.125,
      "velocity": 13,
      "track": 0
    },
    {
      "pitch": 45,
      "start_beat": 162.5,
      "duration_beat": 0.23541666666667993,
      "velocity": 33,
      "track": 1
    },
    {
      "pitch": 45,
      "start_beat": 162.5,
      "duration_beat": 0.23541666666667993,
      "velocity": 43,
      "track": 1
    },
    {
      "pitch": 49,
      "start_beat": 162.5,
      "duration_beat": 0.23541666666667993,
      "velocity": 43,
      "track": 1
    },
    {
      "pitch": 52,
      "start_beat": 162.5,
      "duration_beat": 0.23541666666667993,
      "velocity": 43,
      "track": 1
    },
    {
      "pitch": 45,
      "start_beat": 162.5,
      "duration_beat": 0.11770833333333997,
      "velocity": 33,
      "track": 1
    },
    {
      "pitch": 45,
      "start_beat": 162.5,
      "duration_beat": 0.125,
      "velocity": 13,
      "track": 1
    },
    {
      "pitch": 76,
      "start_beat": 162.625,
      "duration_beat": 0.23645833333333144,
      "velocity": 33,
      "track": 0
    },
    {
      "pitch": 52,
      "start_beat": 162.625,
      "duration_beat": 0.11770833333333997,
      "velocity": 33,
      "track": 1
    },
    {
      "pitch": 81,
      "start_beat": 162.75,
      "duration_beat": 0.23645833333333144,
      "velocity": 33,
      "track": 0
    },
    {
      "pitch": 69,
      "start_beat": 162.75,
      "duration_beat": 0.125,
      "velocity": 13,
      "track": 0
    },
    {
      "pitch": 57,
      "start_beat": 162.75,
      "duration_beat": 0.11770833333333997,
      "velocity": 33,
      "track": 1
    },
    {
      "pitch": 52,
      "start_beat": 162.75,
      "duration_beat": 0.23541666666667993,
      "velocity": 33,
      "track": 1
    },
    {
      "pitch": 52,
      "start_beat": 162.75,
      "duration_beat": 0.23541666666667993,
      "velocity": 43,
      "track": 1
    },
    {
      "pitch": 56,
      "start_beat": 162.75,
      "duration_beat": 0.23541666666667993,
      "velocity": 43,
      "track": 1
    },
    {
      "pitch": 59,
      "start_beat": 162.75,
      "duration_beat": 0.23541666666667993,
      "velocity": 43,
      "track": 1
    },
    {
      "pitch": 52,
      "start_beat": 162.75,
      "duration_beat": 0.11770833333333997,
      "velocity": 33,
      "track": 1
    },
    {
      "pitch": 52,
      "start_beat": 162.75,
      "duration_beat": 0.125,
      "velocity": 13,
      "track": 1
    },
    {
      "pitch": 59,
      "start_beat": 162.875,
      "duration_beat": 0.11770833333333997,
      "velocity": 33,
      "track": 1
    },
    {
      "pitch": 64,
      "start_beat": 163.0,
      "duration_beat": 0.11770833333333997,
      "velocity": 33,
      "track": 1
    },
    {
      "pitch": 57,
      "start_beat": 163.0,
      "duration_beat": 0.23541666666667993,
      "velocity": 33,
      "track": 1
    },
    {
      "pitch": 57,
      "start_beat": 163.0,
      "duration_beat": 0.23541666666667993,
      "velocity": 43,
      "track": 1
    },
    {
      "pitch": 61,
      "start_beat": 163.0,
      "duration_beat": 0.23541666666667993,
      "velocity": 43,
      "track": 1
    },
    {
      "pitch": 64,
      "start_beat": 163.0,
      "duration_beat": 0.23541666666667993,
      "velocity": 43,
      "track": 1
    },
    {
      "pitch": 57,
      "start_beat": 163.0,
      "duration_beat": 0.11770833333333997,
      "velocity": 33,
      "track": 1
    },
    {
      "pitch": 57,
      "start_beat": 163.0,
      "duration_beat": 0.125,
      "velocity": 13,
      "track": 1
    },
    {
      "pitch": 64,
      "start_beat": 163.125,
      "duration_beat": 0.11770833333333997,
      "velocity": 33,
      "track": 1
    },
    {
      "pitch": 69,
      "start_beat": 163.25,
      "duration_beat": 0.11770833333333997,
      "velocity": 33,
      "track": 1
    },
    {
      "pitch": 60,
      "start_beat": 163.25,
      "duration_beat": 0.23541666666667993,
      "velocity": 33,
      "track": 0
    },
    {
      "pitch": 60,
      "start_beat": 163.25,
      "duration_beat": 0.23541666666667993,
      "velocity": 43,
      "track": 0
    },
    {
      "pitch": 64,
      "start_beat": 163.25,
      "duration_beat": 0.23541666666667993,
      "velocity": 43,
      "track": 0
    },
    {
      "pitch": 67,
      "start_beat": 163.25,
      "duration_beat": 0.23541666666667993,
      "velocity": 43,
      "track": 0
    },
    {
      "pitch": 60,
      "start_beat": 163.25,
      "duration_beat": 0.11770833333333997,
      "velocity": 33,
      "track": 0
    },
    {
      "pitch": 60,
      "start_beat": 163.25,
      "duration_beat": 0.125,
      "velocity": 13,
      "track": 0
    },
    {
      "pitch": 67,
      "start_beat": 163.375,
      "duration_beat": 0.11770833333333997,
      "velocity": 33,
      "track": 0
    },
    {
      "pitch": 72,
      "start_beat": 163.5,
      "duration_beat": 0.11770833333333997,
      "velocity": 33,
      "track": 0
    },
    {
      "pitch": 64,
      "start_beat": 163.5,
      "duration_beat": 0.23541666666667993,
      "velocity": 33,
      "track": 0
    },
    {
      "pitch": 64,
      "start_beat": 163.5,
      "duration_beat": 0.23541666666667993,
      "velocity": 43,
      "track": 0
    },
    {
      "pitch": 68,
      "start_beat": 163.5,
      "duration_beat": 0.23541666666667993,
      "velocity": 43,
      "track": 0
    },
    {
      "pitch": 71,
      "start_beat": 163.5,
      "duration_beat": 0.23541666666667993,
      "velocity": 43,
      "track": 0
    },
    {
      "pitch": 64,
      "start_beat": 163.5,
      "duration_beat": 0.11770833333333997,
      "velocity": 33,
      "track": 0
    },
    {
      "pitch": 64,
      "start_beat": 163.5,
      "duration_beat": 0.125,
      "velocity": 13,
      "track": 0
    },
    {
      "pitch": 71,
      "start_beat": 163.625,
      "duration_beat": 0.11770833333333997,
      "velocity": 33,
      "track": 0
    },
    {
      "pitch": 76,
      "start_beat": 163.75,
      "duration_beat": 0.11770833333333997,
      "velocity": 33,
      "track": 0
    },
    {
      "pitch": 69,
      "start_beat": 163.75,
      "duration_beat": 0.23541666666667993,
      "velocity": 33,
      "track": 0
    },
    {
      "pitch": 69,
      "start_beat": 163.75,
      "duration_beat": 0.23541666666667993,
      "velocity": 43,
      "track": 0
    },
    {
      "pitch": 73,
      "start_beat": 163.75,
      "duration_beat": 0.23541666666667993,
      "velocity": 43,
      "track": 0
    },
    {
      "pitch": 76,
      "start_beat": 163.75,
      "duration_beat": 0.23541666666667993,
      "velocity": 43,
      "track": 0
    },
    {
      "pitch": 69,
      "start_beat": 163.75,
      "duration_beat": 0.11770833333333997,
      "velocity": 33,
      "track": 0
    },
    {
      "pitch": 69,
      "start_beat": 163.75,
      "duration_beat": 0.125,
      "velocity": 13,
      "track": 0
    },
    {
      "pitch": 76,
      "start_beat": 163.875,
      "duration_beat": 0.11770833333333997,
      "velocity": 33,
      "track": 0
    },
    {
      "pitch": 81,
      "start_beat": 164.0,
      "duration_beat": 0.11770833333333997,
      "velocity": 33,
      "track": 0
    },
    {
      "pitch": 71,
      "start_beat": 164.0,
      "duration_beat": 0.4729166666666629,
      "velocity": 33,
      "track": 0
    },
    {
      "pitch": 71,
      "start_beat": 164.0,
      "duration_beat": 0.4729166666666629,
      "velocity": 43,
      "track": 0
    },
    {
      "pitch": 75,
      "start_beat": 164.0,
      "duration_beat": 0.4729166666666629,
      "velocity": 43,
      "track": 0
    },
    {
      "pitch": 78,
      "start_beat": 164.0,
      "duration_beat": 0.4729166666666629,
      "velocity": 43,
      "track": 0
    },
    {
      "pitch": 71,
      "start_beat": 164.0,
      "duration_beat": 0.23645833333333144,
      "velocity": 33,
      "track": 0
    },
    {
      "pitch": 71,
      "start_beat": 164.0,
      "duration_beat": 0.125,
      "velocity": 13,
      "track": 0
    },
    {
      "pitch": 40,
      "start_beat": 164.0,
      "duration_beat": 0.23541666666667993,
      "velocity": 33,
      "track": 1
    },
    {
      "pitch": 40,
      "start_beat": 164.0,
      "duration_beat": 0.23541666666667993,
      "velocity": 43,
      "track": 1
    },
    {
      "pitch": 44,
      "start_beat": 164.0,
      "duration_beat": 0.23541666666667993,
      "velocity": 43,
      "track": 1
    },
    {
      "pitch": 47,
      "start_beat": 164.0,
      "duration_beat": 0.23541666666667993,
      "velocity": 43,
      "track": 1
    },
    {
      "pitch": 40,
      "start_beat": 164.0,
      "duration_beat": 0.11770833333333997,
      "velocity": 33,
      "track": 1
    },
    {
      "pitch": 40,
      "start_beat": 164.0,
      "duration_beat": 0.125,
      "velocity": 13,
      "track": 1
    },
    {
      "pitch": 78,
      "start_beat": 164.125,
      "duration_beat": 0.23645833333333144,
      "velocity": 33,
      "track": 0
    },
    {
      "pitch": 47,
      "start_beat": 164.125,
      "duration_beat": 0.11770833333333997,
      "velocity": 33,
      "track": 1
    },
    {
      "pitch": 83,
      "start_beat": 164.25,
      "duration_beat": 0.23645833333333144,
      "velocity": 33,
      "track": 0
    },
    {
      "pitch": 71,
      "start_beat": 164.25,
      "duration_beat": 0.125,
      "velocity": 13,
      "track": 0
    },
    {
      "pitch": 52,
      "start_beat": 164.25,
      "duration_beat": 0.11770833333333997,
      "velocity": 33,
      "track": 1
    },
    {
      "pitch": 52,
      "start_beat": 164.25,
      "duration_beat": 0.23541666666667993,
      "velocity": 33,
      "track": 1
    },
    {
      "pitch": 52,
      "start_beat": 164.25,
      "duration_beat": 0.23541666666667993,
      "velocity": 43,
      "track": 1
    },
    {
      "pitch": 56,
      "start_beat": 164.25,
      "duration_beat": 0.23541666666667993,
      "velocity": 43,
      "track": 1
    },
    {
      "pitch": 59,
      "start_beat": 164.25,
      "duration_beat": 0.23541666666667993,
      "velocity": 43,
      "track": 1
    },
    {
      "pitch": 52,
      "start_beat": 164.25,
      "duration_beat": 0.11770833333333997,
      "velocity": 33,
      "track": 1
    },
    {
      "pitch": 52,
      "start_beat": 164.25,
      "duration_beat": 0.125,
      "velocity": 13,
      "track": 1
    },
    {
      "pitch": 59,
      "start_beat": 164.375,
      "duration_beat": 0.11770833333333997,
      "velocity": 33,
      "track": 1
    },
    {
      "pitch": 64,
      "start_beat": 164.5,
      "duration_beat": 0.11770833333333997,
      "velocity": 33,
      "track": 1
    },
    {
      "pitch": 56,
      "start_beat": 164.5,
      "duration_beat": 0.23541666666667993,
      "velocity": 33,
      "track": 1
    },
    {
      "pitch": 56,
      "start_beat": 164.5,
      "duration_beat": 0.23541666666667993,
      "velocity": 43,
      "track": 1
    },
    {
      "pitch": 60,
      "start_beat": 164.5,
      "duration_beat": 0.23541666666667993,
      "velocity": 43,
      "track": 1
    },
    {
      "pitch": 63,
      "start_beat": 164.5,
      "duration_beat": 0.23541666666667993,
      "velocity": 43,
      "track": 1
    },
    {
      "pitch": 56,
      "start_beat": 164.5,
      "duration_beat": 0.11770833333333997,
      "velocity": 33,
      "track": 1
    },
    {
      "pitch": 56,
      "start_beat": 164.5,
      "duration_beat": 0.125,
      "velocity": 13,
      "track": 1
    },
    {
      "pitch": 63,
      "start_beat": 164.625,
      "duration_beat": 0.11770833333333997,
      "velocity": 33,
      "track": 1
    },
    {
      "pitch": 68,
      "start_beat": 164.75,
      "duration_beat": 0.11770833333333997,
      "velocity": 33,
      "track": 1
    },
    {
      "pitch": 62,
      "start_beat": 164.75,
      "duration_beat": 0.23541666666667993,
      "velocity": 33,
      "track": 0
    },
    {
      "pitch": 62,
      "start_beat": 164.75,
      "duration_beat": 0.23541666666667993,
      "velocity": 43,
      "track": 0
    },
    {
      "pitch": 66,
      "start_beat": 164.75,
      "duration_beat": 0.23541666666667993,
      "velocity": 43,
      "track": 0
    },
    {
      "pitch": 69,
      "start_beat": 164.75,
      "duration_beat": 0.23541666666667993,
      "velocity": 43,
      "track": 0
    },
    {
      "pitch": 62,
      "start_beat": 164.75,
      "duration_beat": 0.11770833333333997,
      "velocity": 33,
      "track": 0
    },
    {
      "pitch": 62,
      "start_beat": 164.75,
      "duration_beat": 0.125,
      "velocity": 13,
      "track": 0
    },
    {
      "pitch": 69,
      "start_beat": 164.875,
      "duration_beat": 0.11770833333333997,
      "velocity": 33,
      "track": 0
    },
    {
      "pitch": 74,
      "start_beat": 165.0,
      "duration_beat": 0.11770833333333997,
      "velocity": 33,
      "track": 0
    },
    {
      "pitch": 72,
      "start_beat": 165.0,
      "duration_beat": 0.23541666666667993,
      "velocity": 33,
      "track": 0
    },
    {
      "pitch": 72,
      "start_beat": 165.0,
      "duration_beat": 0.23541666666667993,
      "velocity": 43,
      "track": 0
    },
    {
      "pitch": 76,
      "start_beat": 165.0,
      "duration_beat": 0.23541666666667993,
      "velocity": 43,
      "track": 0
    },
    {
      "pitch": 79,
      "start_beat": 165.0,
      "duration_beat": 0.23541666666667993,
      "velocity": 43,
      "track": 0
    },
    {
      "pitch": 72,
      "start_beat": 165.0,
      "duration_beat": 0.11770833333333997,
      "velocity": 33,
      "track": 0
    },
    {
      "pitch": 72,
      "start_beat": 165.0,
      "duration_beat": 0.125,
      "velocity": 13,
      "track": 0
    },
    {
      "pitch": 79,
      "start_beat": 165.125,
      "duration_beat": 0.11770833333333997,
      "velocity": 33,
      "track": 0
    },
    {
      "pitch": 84,
      "start_beat": 165.25,
      "duration_beat": 0.11770833333333997,
      "velocity": 33,
      "track": 0
    },
    {
      "pitch": 71,
      "start_beat": 165.25,
      "duration_beat": 0.23541666666667993,
      "velocity": 33,
      "track": 0
    },
    {
      "pitch": 71,
      "start_beat": 165.25,
      "duration_beat": 0.23541666666667993,
      "velocity": 43,
      "track": 0
    },
    {
      "pitch": 75,
      "start_beat": 165.25,
      "duration_beat": 0.23541666666667993,
      "velocity": 43,
      "track": 0
    },
    {
      "pitch": 78,
      "start_beat": 165.25,
      "duration_beat": 0.23541666666667993,
      "velocity": 43,
      "track": 0
    },
    {
      "pitch": 71,
      "start_beat": 165.25,
      "duration_beat": 0.11770833333333997,
      "velocity": 33,
      "track": 0
    },
    {
      "pitch": 71,
      "start_beat": 165.25,
      "duration_beat": 0.125,
      "velocity": 13,
      "track": 0
    },
    {
      "pitch": 78,
      "start_beat": 165.375,
      "duration_beat": 0.11770833333333997,
      "velocity": 33,
      "track": 0
    },
    {
      "pitch": 83,
      "start_beat": 165.5,
      "duration_beat": 0.11770833333333997,
      "velocity": 33,
      "track": 0
    },
    {
      "pitch": 69,
      "start_beat": 165.5,
      "duration_beat": 0.4729166666666629,
      "velocity": 33,
      "track": 0
    },
    {
      "pitch": 69,
      "start_beat": 165.5,
      "duration_beat": 0.4729166666666629,
      "velocity": 43,
      "track": 0
    },
    {
      "pitch": 73,
      "start_beat": 165.5,
      "duration_beat": 0.4729166666666629,
      "velocity": 43,
      "track": 0
    },
    {
      "pitch": 76,
      "start_beat": 165.5,
      "duration_beat": 0.4729166666666629,
      "velocity": 43,
      "track": 0
    },
    {
      "pitch": 69,
      "start_beat": 165.5,
      "duration_beat": 0.23645833333333144,
      "velocity": 33,
      "track": 0
    },
    {
      "pitch": 69,
      "start_beat": 165.5,
      "duration_beat": 0.125,
      "velocity": 13,
      "track": 0
    },
    {
      "pitch": 45,
      "start_beat": 165.5,
      "duration_beat": 0.23541666666667993,
      "velocity": 33,
      "track": 1
    },
    {
      "pitch": 45,
      "start_beat": 165.5,
      "duration_beat": 0.23541666666667993,
      "velocity": 43,
      "track": 1
    },
    {
      "pitch": 49,
      "start_beat": 165.5,
      "duration_beat": 0.23541666666667993,
      "velocity": 43,
      "track": 1
    },
    {
      "pitch": 52,
      "start_beat": 165.5,
      "duration_beat": 0.23541666666667993,
      "velocity": 43,
      "track": 1
    },
    {
      "pitch": 45,
      "start_beat": 165.5,
      "duration_beat": 0.11770833333333997,
      "velocity": 33,
      "track": 1
    },
    {
      "pitch": 45,
      "start_beat": 165.5,
      "duration_beat": 0.125,
      "velocity": 13,
      "track": 1
    },
    {
      "pitch": 76,
      "start_beat": 165.625,
      "duration_beat": 0.23645833333333144,
      "velocity": 33,
      "track": 0
    },
    {
      "pitch": 52,
      "start_beat": 165.625,
      "duration_beat": 0.11770833333333997,
      "velocity": 33,
      "track": 1
    },
    {
      "pitch": 81,
      "start_beat": 165.75,
      "duration_beat": 0.23645833333333144,
      "velocity": 33,
      "track": 0
    },
    {
      "pitch": 69,
      "start_beat": 165.75,
      "duration_beat": 0.125,
      "velocity": 13,
      "track": 0
    },
    {
      "pitch": 57,
      "start_beat": 165.75,
      "duration_beat": 0.11770833333333997,
      "velocity": 33,
      "track": 1
    },
    {
      "pitch": 52,
      "start_beat": 165.75,
      "duration_beat": 0.23541666666667993,
      "velocity": 33,
      "track": 1
    },
    {
      "pitch": 52,
      "start_beat": 165.75,
      "duration_beat": 0.23541666666667993,
      "velocity": 43,
      "track": 1
    },
    {
      "pitch": 56,
      "start_beat": 165.75,
      "duration_beat": 0.23541666666667993,
      "velocity": 43,
      "track": 1
    },
    {
      "pitch": 59,
      "start_beat": 165.75,
      "duration_beat": 0.23541666666667993,
      "velocity": 43,
      "track": 1
    },
    {
      "pitch": 52,
      "start_beat": 165.75,
      "duration_beat": 0.11770833333333997,
      "velocity": 33,
      "track": 1
    },
    {
      "pitch": 52,
      "start_beat": 165.75,
      "duration_beat": 0.125,
      "velocity": 13,
      "track": 1
    },
    {
      "pitch": 59,
      "start_beat": 165.875,
      "duration_beat": 0.11770833333333997,
      "velocity": 33,
      "track": 1
    },
    {
      "pitch": 64,
      "start_beat": 166.0,
      "duration_beat": 0.11770833333333997,
      "velocity": 33,
      "track": 1
    },
    {
      "pitch": 57,
      "start_beat": 166.0,
      "duration_beat": 0.23541666666667993,
      "velocity": 33,
      "track": 1
    },
    {
      "pitch": 57,
      "start_beat": 166.0,
      "duration_beat": 0.23541666666667993,
      "velocity": 43,
      "track": 1
    },
    {
      "pitch": 61,
      "start_beat": 166.0,
      "duration_beat": 0.23541666666667993,
      "velocity": 43,
      "track": 1
    },
    {
      "pitch": 64,
      "start_beat": 166.0,
      "duration_beat": 0.23541666666667993,
      "velocity": 43,
      "track": 1
    },
    {
      "pitch": 57,
      "start_beat": 166.0,
      "duration_beat": 0.11770833333333997,
      "velocity": 33,
      "track": 1
    },
    {
      "pitch": 57,
      "start_beat": 166.0,
      "duration_beat": 0.125,
      "velocity": 13,
      "track": 1
    },
    {
      "pitch": 64,
      "start_beat": 166.125,
      "duration_beat": 0.11770833333333997,
      "velocity": 33,
      "track": 1
    },
    {
      "pitch": 69,
      "start_beat": 166.25,
      "duration_beat": 0.11770833333333997,
      "velocity": 33,
      "track": 1
    },
    {
      "pitch": 71,
      "start_beat": 166.25,
      "duration_beat": 0.23541666666667993,
      "velocity": 33,
      "track": 0
    },
    {
      "pitch": 71,
      "start_beat": 166.25,
      "duration_beat": 0.23541666666667993,
      "velocity": 43,
      "track": 0
    },
    {
      "pitch": 75,
      "start_beat": 166.25,
      "duration_beat": 0.23541666666667993,
      "velocity": 43,
      "track": 0
    },
    {
      "pitch": 78,
      "start_beat": 166.25,
      "duration_beat": 0.23541666666667993,
      "velocity": 43,
      "track": 0
    },
    {
      "pitch": 71,
      "start_beat": 166.25,
      "duration_beat": 0.11770833333333997,
      "velocity": 33,
      "track": 0
    },
    {
      "pitch": 71,
      "start_beat": 166.25,
      "duration_beat": 0.125,
      "velocity": 13,
      "track": 0
    },
    {
      "pitch": 78,
      "start_beat": 166.375,
      "duration_beat": 0.11770833333333997,
      "velocity": 33,
      "track": 0
    },
    {
      "pitch": 83,
      "start_beat": 166.5,
      "duration_beat": 0.11770833333333997,
      "velocity": 33,
      "track": 0
    },
    {
      "pitch": 72,
      "start_beat": 166.5,
      "duration_beat": 0.23541666666667993,
      "velocity": 33,
      "track": 0
    },
    {
      "pitch": 72,
      "start_beat": 166.5,
      "duration_beat": 0.23541666666667993,
      "velocity": 43,
      "track": 0
    },
    {
      "pitch": 76,
      "start_beat": 166.5,
      "duration_beat": 0.23541666666667993,
      "velocity": 43,
      "track": 0
    },
    {
      "pitch": 79,
      "start_beat": 166.5,
      "duration_beat": 0.23541666666667993,
      "velocity": 43,
      "track": 0
    },
    {
      "pitch": 72,
      "start_beat": 166.5,
      "duration_beat": 0.11770833333333997,
      "velocity": 33,
      "track": 0
    },
    {
      "pitch": 72,
      "start_beat": 166.5,
      "duration_beat": 0.125,
      "velocity": 13,
      "track": 0
    },
    {
      "pitch": 79,
      "start_beat": 166.625,
      "duration_beat": 0.11770833333333997,
      "velocity": 33,
      "track": 0
    },
    {
      "pitch": 84,
      "start_beat": 166.75,
      "duration_beat": 0.11770833333333997,
      "velocity": 33,
      "track": 0
    },
    {
      "pitch": 74,
      "start_beat": 166.75,
      "duration_beat": 0.23541666666667993,
      "velocity": 33,
      "track": 0
    },
    {
      "pitch": 74,
      "start_beat": 166.75,
      "duration_beat": 0.23541666666667993,
      "velocity": 43,
      "track": 0
    },
    {
      "pitch": 78,
      "start_beat": 166.75,
      "duration_beat": 0.23541666666667993,
      "velocity": 43,
      "track": 0
    },
    {
      "pitch": 81,
      "start_beat": 166.75,
      "duration_beat": 0.23541666666667993,
      "velocity": 43,
      "track": 0
    },
    {
      "pitch": 74,
      "start_beat": 166.75,
      "duration_beat": 0.11770833333333997,
      "velocity": 33,
      "track": 0
    },
    {
      "pitch": 74,
      "start_beat": 166.75,
      "duration_beat": 0.125,
      "velocity": 13,
      "track": 0
    },
    {
      "pitch": 81,
      "start_beat": 166.875,
      "duration_beat": 0.11770833333333997,
      "velocity": 33,
      "track": 0
    },
    {
      "pitch": 86,
      "start_beat": 167.0,
      "duration_beat": 0.11770833333333997,
      "velocity": 33,
      "track": 0
    },
    {
      "pitch": 76,
      "start_beat": 167.0,
      "duration_beat": 0.7104166666666742,
      "velocity": 33,
      "track": 0
    },
    {
      "pitch": 76,
      "start_beat": 167.0,
      "duration_beat": 0.7104166666666742,
      "velocity": 43,
      "track": 0
    },
    {
      "pitch": 80,
      "start_beat": 167.0,
      "duration_beat": 0.7104166666666742,
      "velocity": 43,
      "track": 0
    },
    {
      "pitch": 83,
      "start_beat": 167.0,
      "duration_beat": 0.7104166666666742,
      "velocity": 43,
      "track": 0
    },
    {
      "pitch": 76,
      "start_beat": 167.0,
      "duration_beat": 0.3552083333333371,
      "velocity": 33,
      "track": 0
    },
    {
      "pitch": 76,
      "start_beat": 167.0,
      "duration_beat": 0.125,
      "velocity": 13,
      "track": 0
    },
    {
      "pitch": 48,
      "start_beat": 167.0,
      "duration_beat": 0.23541666666667993,
      "velocity": 33,
      "track": 1
    },
    {
      "pitch": 48,
      "start_beat": 167.0,
      "duration_beat": 0.23541666666667993,
      "velocity": 43,
      "track": 1
    },
    {
      "pitch": 52,
      "start_beat": 167.0,
      "duration_beat": 0.23541666666667993,
      "velocity": 43,
      "track": 1
    },
    {
      "pitch": 55,
      "start_beat": 167.0,
      "duration_beat": 0.23541666666667993,
      "velocity": 43,
      "track": 1
    },
    {
      "pitch": 48,
      "start_beat": 167.0,
      "duration_beat": 0.11770833333333997,
      "velocity": 33,
      "track": 1
    },
    {
      "pitch": 48,
      "start_beat": 167.0,
      "duration_beat": 0.125,
      "velocity": 13,
      "track": 1
    },
    {
      "pitch": 83,
      "start_beat": 167.125,
      "duration_beat": 0.3552083333333371,
      "velocity": 33,
      "track": 0
    },
    {
      "pitch": 55,
      "start_beat": 167.125,
      "duration_beat": 0.11770833333333997,
      "velocity": 33,
      "track": 1
    },
    {
      "pitch": 88,
      "start_beat": 167.25,
      "duration_beat": 0.3552083333333371,
      "velocity": 33,
      "track": 0
    },
    {
      "pitch": 76,
      "start_beat": 167.25,
      "duration_beat": 0.125,
      "velocity": 13,
      "track": 0
    },
    {
      "pitch": 60,
      "start_beat": 167.25,
      "duration_beat": 0.11770833333333997,
      "velocity": 33,
      "track": 1
    },
    {
      "pitch": 55,
      "start_beat": 167.25,
      "duration_beat": 0.23541666666667993,
      "velocity": 33,
      "track": 1
    },
    {
      "pitch": 55,
      "start_beat": 167.25,
      "duration_beat": 0.23541666666667993,
      "velocity": 43,
      "track": 1
    },
    {
      "pitch": 59,
      "start_beat": 167.25,
      "duration_beat": 0.23541666666667993,
      "velocity": 43,
      "track": 1
    },
    {
      "pitch": 62,
      "start_beat": 167.25,
      "duration_beat": 0.23541666666667993,
      "velocity": 43,
      "track": 1
    },
    {
      "pitch": 55,
      "start_beat": 167.25,
      "duration_beat": 0.11770833333333997,
      "velocity": 33,
      "track": 1
    },
    {
      "pitch": 55,
      "start_beat": 167.25,
      "duration_beat": 0.125,
      "velocity": 13,
      "track": 1
    },
    {
      "pitch": 62,
      "start_beat": 167.375,
      "duration_beat": 0.11770833333333997,
      "velocity": 33,
      "track": 1
    },
    {
      "pitch": 76,
      "start_beat": 167.5,
      "duration_beat": 0.125,
      "velocity": 13,
      "track": 0
    },
    {
      "pitch": 67,
      "start_beat": 167.5,
      "duration_beat": 0.11770833333333997,
      "velocity": 33,
      "track": 1
    },
    {
      "pitch": 60,
      "start_beat": 167.5,
      "duration_beat": 0.23541666666667993,
      "velocity": 33,
      "track": 1
    },
    {
      "pitch": 60,
      "start_beat": 167.5,
      "duration_beat": 0.23541666666667993,
      "velocity": 43,
      "track": 1
    },
    {
      "pitch": 64,
      "start_beat": 167.5,
      "duration_beat": 0.23541666666667993,
      "velocity": 43,
      "track": 1
    },
    {
      "pitch": 67,
      "start_beat": 167.5,
      "duration_beat": 0.23541666666667993,
      "velocity": 43,
      "track": 1
    },
    {
      "pitch": 60,
      "start_beat": 167.5,
      "duration_beat": 0.11770833333333997,
      "velocity": 33,
      "track": 1
    },
    {
      "pitch": 60,
      "start_beat": 167.5,
      "duration_beat": 0.125,
      "velocity": 13,
      "track": 1
    },
    {
      "pitch": 67,
      "start_beat": 167.625,
      "duration_beat": 0.11770833333333997,
      "velocity": 33,
      "track": 1
    },
    {
      "pitch": 72,
      "start_beat": 167.75,
      "duration_beat": 0.11770833333333997,
      "velocity": 33,
      "track": 1
    },
    {
      "pitch": 67,
      "start_beat": 167.75,
      "duration_beat": 0.23541666666667993,
      "velocity": 33,
      "track": 0
    },
    {
      "pitch": 67,
      "start_beat": 167.75,
      "duration_beat": 0.23541666666667993,
      "velocity": 43,
      "track": 0
    },
    {
      "pitch": 71,
      "start_beat": 167.75,
      "duration_beat": 0.23541666666667993,
      "velocity": 43,
      "track": 0
    },
    {
      "pitch": 74,
      "start_beat": 167.75,
      "duration_beat": 0.23541666666667993,
      "velocity": 43,
      "track": 0
    },
    {
      "pitch": 67,
      "start_beat": 167.75,
      "duration_beat": 0.11770833333333997,
      "velocity": 33,
      "track": 0
    },
    {
      "pitch": 67,
      "start_beat": 167.75,
      "duration_beat": 0.125,
      "velocity": 13,
      "track": 0
    },
    {
      "pitch": 74,
      "start_beat": 167.875,
      "duration_beat": 0.11770833333333997,
      "velocity": 33,
      "track": 0
    },
    {
      "pitch": 79,
      "start_beat": 168.0,
      "duration_beat": 0.11770833333333997,
      "velocity": 33,
      "track": 0
    },
    {
      "pitch": 77,
      "start_beat": 168.0,
      "duration_beat": 0.23541666666667993,
      "velocity": 33,
      "track": 0
    },
    {
      "pitch": 77,
      "start_beat": 168.0,
      "duration_beat": 0.23541666666667993,
      "velocity": 43,
      "track": 0
    },
    {
      "pitch": 81,
      "start_beat": 168.0,
      "duration_beat": 0.23541666666667993,
      "velocity": 43,
      "track": 0
    },
    {
      "pitch": 84,
      "start_beat": 168.0,
      "duration_beat": 0.23541666666667993,
      "velocity": 43,
      "track": 0
    },
    {
      "pitch": 77,
      "start_beat": 168.0,
      "duration_beat": 0.11770833333333997,
      "velocity": 33,
      "track": 0
    },
    {
      "pitch": 77,
      "start_beat": 168.0,
      "duration_beat": 0.125,
      "velocity": 13,
      "track": 0
    },
    {
      "pitch": 84,
      "start_beat": 168.125,
      "duration_beat": 0.11770833333333997,
      "velocity": 33,
      "track": 0
    },
    {
      "pitch": 89,
      "start_beat": 168.25,
      "duration_beat": 0.11770833333333997,
      "velocity": 33,
      "track": 0
    },
    {
      "pitch": 76,
      "start_beat": 168.25,
      "duration_beat": 0.23541666666667993,
      "velocity": 33,
      "track": 0
    },
    {
      "pitch": 76,
      "start_beat": 168.25,
      "duration_beat": 0.23541666666667993,
      "velocity": 43,
      "track": 0
    },
    {
      "pitch": 80,
      "start_beat": 168.25,
      "duration_beat": 0.23541666666667993,
      "velocity": 43,
      "track": 0
    },
    {
      "pitch": 83,
      "start_beat": 168.25,
      "duration_beat": 0.23541666666667993,
      "velocity": 43,
      "track": 0
    },
    {
      "pitch": 76,
      "start_beat": 168.25,
      "duration_beat": 0.11770833333333997,
      "velocity": 33,
      "track": 0
    },
    {
      "pitch": 76,
      "start_beat": 168.25,
      "duration_beat": 0.125,
      "velocity": 13,
      "track": 0
    },
    {
      "pitch": 83,
      "start_beat": 168.375,
      "duration_beat": 0.11770833333333997,
      "velocity": 33,
      "track": 0
    },
    {
      "pitch": 88,
      "start_beat": 168.5,
      "duration_beat": 0.11770833333333997,
      "velocity": 33,
      "track": 0
    },
    {
      "pitch": 74,
      "start_beat": 168.5,
      "duration_beat": 0.7104166666666742,
      "velocity": 33,
      "track": 0
    },
    {
      "pitch": 74,
      "start_beat": 168.5,
      "duration_beat": 0.7104166666666742,
      "velocity": 43,
      "track": 0
    },
    {
      "pitch": 78,
      "start_beat": 168.5,
      "duration_beat": 0.7104166666666742,
      "velocity": 43,
      "track": 0
    },
    {
      "pitch": 81,
      "start_beat": 168.5,
      "duration_beat": 0.7104166666666742,
      "velocity": 43,
      "track": 0
    },
    {
      "pitch": 74,
      "start_beat": 168.5,
      "duration_beat": 0.3552083333333371,
      "velocity": 33,
      "track": 0
    },
    {
      "pitch": 74,
      "start_beat": 168.5,
      "duration_beat": 0.125,
      "velocity": 13,
      "track": 0
    },
    {
      "pitch": 43,
      "start_beat": 168.5,
      "duration_beat": 0.23541666666667993,
      "velocity": 33,
      "track": 1
    },
    {
      "pitch": 43,
      "start_beat": 168.5,
      "duration_beat": 0.23541666666667993,
      "velocity": 43,
      "track": 1
    },
    {
      "pitch": 47,
      "start_beat": 168.5,
      "duration_beat": 0.23541666666667993,
      "velocity": 43,
      "track": 1
    },
    {
      "pitch": 50,
      "start_beat": 168.5,
      "duration_beat": 0.23541666666667993,
      "velocity": 43,
      "track": 1
    },
    {
      "pitch": 43,
      "start_beat": 168.5,
      "duration_beat": 0.11770833333333997,
      "velocity": 33,
      "track": 1
    },
    {
      "pitch": 43,
      "start_beat": 168.5,
      "duration_beat": 0.125,
      "velocity": 13,
      "track": 1
    },
    {
      "pitch": 81,
      "start_beat": 168.625,
      "duration_beat": 0.3552083333333371,
      "velocity": 33,
      "track": 0
    },
    {
      "pitch": 50,
      "start_beat": 168.625,
      "duration_beat": 0.11770833333333997,
      "velocity": 33,
      "track": 1
    },
    {
      "pitch": 86,
      "start_beat": 168.75,
      "duration_beat": 0.3552083333333371,
      "velocity": 33,
      "track": 0
    },
    {
      "pitch": 74,
      "start_beat": 168.75,
      "duration_beat": 0.125,
      "velocity": 13,
      "track": 0
    },
    {
      "pitch": 55,
      "start_beat": 168.75,
      "duration_beat": 0.11770833333333997,
      "velocity": 33,
      "track": 1
    },
    {
      "pitch": 55,
      "start_beat": 168.75,
      "duration_beat": 0.23541666666667993,
      "velocity": 33,
      "track": 1
    },
    {
      "pitch": 55,
      "start_beat": 168.75,
      "duration_beat": 0.23541666666667993,
      "velocity": 43,
      "track": 1
    },
    {
      "pitch": 59,
      "start_beat": 168.75,
      "duration_beat": 0.23541666666667993,
      "velocity": 43,
      "track": 1
    },
    {
      "pitch": 62,
      "start_beat": 168.75,
      "duration_beat": 0.23541666666667993,
      "velocity": 43,
      "track": 1
    },
    {
      "pitch": 55,
      "start_beat": 168.75,
      "duration_beat": 0.11770833333333997,
      "velocity": 33,
      "track": 1
    },
    {
      "pitch": 55,
      "start_beat": 168.75,
      "duration_beat": 0.125,
      "velocity": 13,
      "track": 1
    },
    {
      "pitch": 62,
      "start_beat": 168.875,
      "duration_beat": 0.11770833333333997,
      "velocity": 33,
      "track": 1
    },
    {
      "pitch": 74,
      "start_beat": 169.0,
      "duration_beat": 0.125,
      "velocity": 13,
      "track": 0
    },
    {
      "pitch": 67,
      "start_beat": 169.0,
      "duration_beat": 0.11770833333333997,
      "velocity": 33,
      "track": 1
    },
    {
      "pitch": 59,
      "start_beat": 169.0,
      "duration_beat": 0.23541666666667993,
      "velocity": 33,
      "track": 1
    },
    {
      "pitch": 59,
      "start_beat": 169.0,
      "duration_beat": 0.23541666666667993,
      "velocity": 43,
      "track": 1
    },
    {
      "pitch": 63,
      "start_beat": 169.0,
      "duration_beat": 0.23541666666667993,
      "velocity": 43,
      "track": 1
    },
    {
      "pitch": 66,
      "start_beat": 169.0,
      "duration_beat": 0.23541666666667993,
      "velocity": 43,
      "track": 1
    },
    {
      "pitch": 59,
      "start_beat": 169.0,
      "duration_beat": 0.11770833333333997,
      "velocity": 33,
      "track": 1
    },
    {
      "pitch": 59,
      "start_beat": 169.0,
      "duration_beat": 0.125,
      "velocity": 13,
      "track": 1
    },
    {
      "pitch": 66,
      "start_beat": 169.125,
      "duration_beat": 0.11770833333333997,
      "velocity": 33,
      "track": 1
    },
    {
      "pitch": 71,
      "start_beat": 169.25,
      "duration_beat": 0.11770833333333997,
      "velocity": 33,
      "track": 1
    },
    {
      "pitch": 65,
      "start_beat": 169.25,
      "duration_beat": 0.23541666666667993,
      "velocity": 33,
      "track": 0
    },
    {
      "pitch": 65,
      "start_beat": 169.25,
      "duration_beat": 0.23541666666667993,
      "velocity": 43,
      "track": 0
    },
    {
      "pitch": 69,
      "start_beat": 169.25,
      "duration_beat": 0.23541666666667993,
      "velocity": 43,
      "track": 0
    },
    {
      "pitch": 72,
      "start_beat": 169.25,
      "duration_beat": 0.23541666666667993,
      "velocity": 43,
      "track": 0
    },
    {
      "pitch": 65,
      "start_beat": 169.25,
      "duration_beat": 0.11770833333333997,
      "velocity": 33,
      "track": 0
    },
    {
      "pitch": 65,
      "start_beat": 169.25,
      "duration_beat": 0.125,
      "velocity": 13,
      "track": 0
    },
    {
      "pitch": 72,
      "start_beat": 169.375,
      "duration_beat": 0.11770833333333997,
      "velocity": 33,
      "track": 0
    },
    {
      "pitch": 77,
      "start_beat": 169.5,
      "duration_beat": 0.11770833333333997,
      "velocity": 33,
      "track": 0
    },
    {
      "pitch": 76,
      "start_beat": 169.5,
      "duration_beat": 0.23541666666667993,
      "velocity": 33,
      "track": 0
    },
    {
      "pitch": 76,
      "start_beat": 169.5,
      "duration_beat": 0.23541666666667993,
      "velocity": 43,
      "track": 0
    },
    {
      "pitch": 80,
      "start_beat": 169.5,
      "duration_beat": 0.23541666666667993,
      "velocity": 43,
      "track": 0
    },
    {
      "pitch": 83,
      "start_beat": 169.5,
      "duration_beat": 0.23541666666667993,
      "velocity": 43,
      "track": 0
    },
    {
      "pitch": 76,
      "start_beat": 169.5,
      "duration_beat": 0.11770833333333997,
      "velocity": 33,
      "track": 0
    },
    {
      "pitch": 76,
      "start_beat": 169.5,
      "duration_beat": 0.125,
      "velocity": 13,
      "track": 0
    },
    {
      "pitch": 83,
      "start_beat": 169.625,
      "duration_beat": 0.11770833333333997,
      "velocity": 33,
      "track": 0
    },
    {
      "pitch": 88,
      "start_beat": 169.75,
      "duration_beat": 0.11770833333333997,
      "velocity": 33,
      "track": 0
    },
    {
      "pitch": 74,
      "start_beat": 169.75,
      "duration_beat": 0.23541666666667993,
      "velocity": 33,
      "track": 0
    },
    {
      "pitch": 74,
      "start_beat": 169.75,
      "duration_beat": 0.23541666666667993,
      "velocity": 43,
      "track": 0
    },
    {
      "pitch": 78,
      "start_beat": 169.75,
      "duration_beat": 0.23541666666667993,
      "velocity": 43,
      "track": 0
    },
    {
      "pitch": 81,
      "start_beat": 169.75,
      "duration_beat": 0.23541666666667993,
      "velocity": 43,
      "track": 0
    },
    {
      "pitch": 74,
      "start_beat": 169.75,
      "duration_beat": 0.11770833333333997,
      "velocity": 33,
      "track": 0
    },
    {
      "pitch": 74,
      "start_beat": 169.75,
      "duration_beat": 0.125,
      "velocity": 13,
      "track": 0
    },
    {
      "pitch": 81,
      "start_beat": 169.875,
      "duration_beat": 0.11770833333333997,
      "velocity": 33,
      "track": 0
    },
    {
      "pitch": 86,
      "start_beat": 170.0,
      "duration_beat": 0.11770833333333997,
      "velocity": 33,
      "track": 0
    },
    {
      "pitch": 72,
      "start_beat": 170.0,
      "duration_beat": 0.7104166666666742,
      "velocity": 33,
      "track": 0
    },
    {
      "pitch": 72,
      "start_beat": 170.0,
      "duration_beat": 0.7104166666666742,
      "velocity": 43,
      "track": 0
    },
    {
      "pitch": 76,
      "start_beat": 170.0,
      "duration_beat": 0.7104166666666742,
      "velocity": 43,
      "track": 0
    },
    {
      "pitch": 79,
      "start_beat": 170.0,
      "duration_beat": 0.7104166666666742,
      "velocity": 43,
      "track": 0
    },
    {
      "pitch": 72,
      "start_beat": 170.0,
      "duration_beat": 0.3552083333333371,
      "velocity": 33,
      "track": 0
    },
    {
      "pitch": 72,
      "start_beat": 170.0,
      "duration_beat": 0.125,
      "velocity": 13,
      "track": 0
    },
    {
      "pitch": 45,
      "start_beat": 170.0,
      "duration_beat": 0.23541666666667993,
      "velocity": 33,
      "track": 1
    },
    {
      "pitch": 45,
      "start_beat": 170.0,
      "duration_beat": 0.23541666666667993,
      "velocity": 43,
      "track": 1
    },
    {
      "pitch": 49,
      "start_beat": 170.0,
      "duration_beat": 0.23541666666667993,
      "velocity": 43,
      "track": 1
    },
    {
      "pitch": 52,
      "start_beat": 170.0,
      "duration_beat": 0.23541666666667993,
      "velocity": 43,
      "track": 1
    },
    {
      "pitch": 45,
      "start_beat": 170.0,
      "duration_beat": 0.11770833333333997,
      "velocity": 33,
      "track": 1
    },
    {
      "pitch": 45,
      "start_beat": 170.0,
      "duration_beat": 0.125,
      "velocity": 13,
      "track": 1
    },
    {
      "pitch": 79,
      "start_beat": 170.125,
      "duration_beat": 0.3552083333333371,
      "velocity": 33,
      "track": 0
    },
    {
      "pitch": 52,
      "start_beat": 170.125,
      "duration_beat": 0.11770833333333997,
      "velocity": 33,
      "track": 1
    },
    {
      "pitch": 84,
      "start_beat": 170.25,
      "duration_beat": 0.3552083333333371,
      "velocity": 33,
      "track": 0
    },
    {
      "pitch": 72,
      "start_beat": 170.25,
      "duration_beat": 0.125,
      "velocity": 13,
      "track": 0
    },
    {
      "pitch": 57,
      "start_beat": 170.25,
      "duration_beat": 0.11770833333333997,
      "velocity": 33,
      "track": 1
    },
    {
      "pitch": 52,
      "start_beat": 170.25,
      "duration_beat": 0.23541666666667993,
      "velocity": 33,
      "track": 1
    },
    {
      "pitch": 52,
      "start_beat": 170.25,
      "duration_beat": 0.23541666666667993,
      "velocity": 43,
      "track": 1
    },
    {
      "pitch": 56,
      "start_beat": 170.25,
      "duration_beat": 0.23541666666667993,
      "velocity": 43,
      "track": 1
    },
    {
      "pitch": 59,
      "start_beat": 170.25,
      "duration_beat": 0.23541666666667993,
      "velocity": 43,
      "track": 1
    },
    {
      "pitch": 52,
      "start_beat": 170.25,
      "duration_beat": 0.11770833333333997,
      "velocity": 33,
      "track": 1
    },
    {
      "pitch": 52,
      "start_beat": 170.25,
      "duration_beat": 0.125,
      "velocity": 13,
      "track": 1
    },
    {
      "pitch": 59,
      "start_beat": 170.375,
      "duration_beat": 0.11770833333333997,
      "velocity": 33,
      "track": 1
    },
    {
      "pitch": 72,
      "start_beat": 170.5,
      "duration_beat": 0.125,
      "velocity": 13,
      "track": 0
    },
    {
      "pitch": 64,
      "start_beat": 170.5,
      "duration_beat": 0.11770833333333997,
      "velocity": 33,
      "track": 1
    },
    {
      "pitch": 57,
      "start_beat": 170.5,
      "duration_beat": 0.23541666666667993,
      "velocity": 33,
      "track": 1
    },
    {
      "pitch": 57,
      "start_beat": 170.5,
      "duration_beat": 0.23541666666667993,
      "velocity": 43,
      "track": 1
    },
    {
      "pitch": 61,
      "start_beat": 170.5,
      "duration_beat": 0.23541666666667993,
      "velocity": 43,
      "track": 1
    },
    {
      "pitch": 64,
      "start_beat": 170.5,
      "duration_beat": 0.23541666666667993,
      "velocity": 43,
      "track": 1
    },
    {
      "pitch": 57,
      "start_beat": 170.5,
      "duration_beat": 0.11770833333333997,
      "velocity": 33,
      "track": 1
    },
    {
      "pitch": 57,
      "start_beat": 170.5,
      "duration_beat": 0.125,
      "velocity": 13,
      "track": 1
    },
    {
      "pitch": 64,
      "start_beat": 170.625,
      "duration_beat": 0.11770833333333997,
      "velocity": 33,
      "track": 1
    },
    {
      "pitch": 69,
      "start_beat": 170.75,
      "duration_beat": 0.11770833333333997,
      "velocity": 33,
      "track": 1
    },
    {
      "pitch": 64,
      "start_beat": 170.75,
      "duration_beat": 0.23541666666667993,
      "velocity": 33,
      "track": 0
    },
    {
      "pitch": 64,
      "start_beat": 170.75,
      "duration_beat": 0.23541666666667993,
      "velocity": 43,
      "track": 0
    },
    {
      "pitch": 68,
      "start_beat": 170.75,
      "duration_beat": 0.23541666666667993,
      "velocity": 43,
      "track": 0
    },
    {
      "pitch": 71,
      "start_beat": 170.75,
      "duration_beat": 0.23541666666667993,
      "velocity": 43,
      "track": 0
    },
    {
      "pitch": 64,
      "start_beat": 170.75,
      "duration_beat": 0.11770833333333997,
      "velocity": 33,
      "track": 0
    },
    {
      "pitch": 64,
      "start_beat": 170.75,
      "duration_beat": 0.125,
      "velocity": 13,
      "track": 0
    },
    {
      "pitch": 71,
      "start_beat": 170.875,
      "duration_beat": 0.11770833333333997,
      "velocity": 33,
      "track": 0
    },
    {
      "pitch": 76,
      "start_beat": 171.0,
      "duration_beat": 0.11770833333333997,
      "velocity": 33,
      "track": 0
    },
    {
      "pitch": 74,
      "start_beat": 171.0,
      "duration_beat": 0.23541666666667993,
      "velocity": 33,
      "track": 0
    },
    {
      "pitch": 74,
      "start_beat": 171.0,
      "duration_beat": 0.23541666666667993,
      "velocity": 43,
      "track": 0
    },
    {
      "pitch": 78,
      "start_beat": 171.0,
      "duration_beat": 0.23541666666667993,
      "velocity": 43,
      "track": 0
    },
    {
      "pitch": 81,
      "start_beat": 171.0,
      "duration_beat": 0.23541666666667993,
      "velocity": 43,
      "track": 0
    },
    {
      "pitch": 74,
      "start_beat": 171.0,
      "duration_beat": 0.11770833333333997,
      "velocity": 33,
      "track": 0
    },
    {
      "pitch": 74,
      "start_beat": 171.0,
      "duration_beat": 0.125,
      "velocity": 13,
      "track": 0
    },
    {
      "pitch": 81,
      "start_beat": 171.125,
      "duration_beat": 0.11770833333333997,
      "velocity": 33,
      "track": 0
    },
    {
      "pitch": 86,
      "start_beat": 171.25,
      "duration_beat": 0.11770833333333997,
      "velocity": 33,
      "track": 0
    },
    {
      "pitch": 72,
      "start_beat": 171.25,
      "duration_beat": 0.23541666666667993,
      "velocity": 33,
      "track": 0
    },
    {
      "pitch": 72,
      "start_beat": 171.25,
      "duration_beat": 0.23541666666667993,
      "velocity": 43,
      "track": 0
    },
    {
      "pitch": 76,
      "start_beat": 171.25,
      "duration_beat": 0.23541666666667993,
      "velocity": 43,
      "track": 0
    },
    {
      "pitch": 79,
      "start_beat": 171.25,
      "duration_beat": 0.23541666666667993,
      "velocity": 43,
      "track": 0
    },
    {
      "pitch": 72,
      "start_beat": 171.25,
      "duration_beat": 0.11770833333333997,
      "velocity": 33,
      "track": 0
    },
    {
      "pitch": 72,
      "start_beat": 171.25,
      "duration_beat": 0.125,
      "velocity": 13,
      "track": 0
    },
    {
      "pitch": 79,
      "start_beat": 171.375,
      "duration_beat": 0.11770833333333997,
      "velocity": 33,
      "track": 0
    },
    {
      "pitch": 84,
      "start_beat": 171.5,
      "duration_beat": 0.11770833333333997,
      "velocity": 33,
      "track": 0
    },
    {
      "pitch": 71,
      "start_beat": 171.5,
      "duration_beat": 0.4729166666666629,
      "velocity": 33,
      "track": 0
    },
    {
      "pitch": 71,
      "start_beat": 171.5,
      "duration_beat": 0.4729166666666629,
      "velocity": 43,
      "track": 0
    },
    {
      "pitch": 75,
      "start_beat": 171.5,
      "duration_beat": 0.4729166666666629,
      "velocity": 43,
      "track": 0
    },
    {
      "pitch": 78,
      "start_beat": 171.5,
      "duration_beat": 0.4729166666666629,
      "velocity": 43,
      "track": 0
    },
    {
      "pitch": 71,
      "start_beat": 171.5,
      "duration_beat": 0.23645833333333144,
      "velocity": 33,
      "track": 0
    },
    {
      "pitch": 71,
      "start_beat": 171.5,
      "duration_beat": 0.125,
      "velocity": 13,
      "track": 0
    },
    {
      "pitch": 40,
      "start_beat": 171.5,
      "duration_beat": 0.23541666666667993,
      "velocity": 33,
      "track": 1
    },
    {
      "pitch": 40,
      "start_beat": 171.5,
      "duration_beat": 0.23541666666667993,
      "velocity": 43,
      "track": 1
    },
    {
      "pitch": 44,
      "start_beat": 171.5,
      "duration_beat": 0.23541666666667993,
      "velocity": 43,
      "track": 1
    },
    {
      "pitch": 47,
      "start_beat": 171.5,
      "duration_beat": 0.23541666666667993,
      "velocity": 43,
      "track": 1
    },
    {
      "pitch": 40,
      "start_beat": 171.5,
      "duration_beat": 0.11770833333333997,
      "velocity": 33,
      "track": 1
    },
    {
      "pitch": 40,
      "start_beat": 171.5,
      "duration_beat": 0.125,
      "velocity": 13,
      "track": 1
    },
    {
      "pitch": 78,
      "start_beat": 171.625,
      "duration_beat": 0.23645833333333144,
      "velocity": 33,
      "track": 0
    },
    {
      "pitch": 47,
      "start_beat": 171.625,
      "duration_beat": 0.11770833333333997,
      "velocity": 33,
      "track": 1
    },
    {
      "pitch": 83,
      "start_beat": 171.75,
      "duration_beat": 0.23645833333333144,
      "velocity": 33,
      "track": 0
    },
    {
      "pitch": 71,
      "start_beat": 171.75,
      "duration_beat": 0.125,
      "velocity": 13,
      "track": 0
    },
    {
      "pitch": 52,
      "start_beat": 171.75,
      "duration_beat": 0.11770833333333997,
      "velocity": 33,
      "track": 1
    },
    {
      "pitch": 52,
      "start_beat": 171.75,
      "duration_beat": 0.23541666666667993,
      "velocity": 33,
      "track": 1
    },
    {
      "pitch": 52,
      "start_beat": 171.75,
      "duration_beat": 0.23541666666667993,
      "velocity": 43,
      "track": 1
    },
    {
      "pitch": 56,
      "start_beat": 171.75,
      "duration_beat": 0.23541666666667993,
      "velocity": 43,
      "track": 1
    },
    {
      "pitch": 59,
      "start_beat": 171.75,
      "duration_beat": 0.23541666666667993,
      "velocity": 43,
      "track": 1
    },
    {
      "pitch": 52,
      "start_beat": 171.75,
      "duration_beat": 0.11770833333333997,
      "velocity": 33,
      "track": 1
    },
    {
      "pitch": 52,
      "start_beat": 171.75,
      "duration_beat": 0.125,
      "velocity": 13,
      "track": 1
    },
    {
      "pitch": 59,
      "start_beat": 171.875,
      "duration_beat": 0.11770833333333997,
      "velocity": 33,
      "track": 1
    },
    {
      "pitch": 64,
      "start_beat": 172.0,
      "duration_beat": 0.11770833333333997,
      "velocity": 33,
      "track": 1
    },
    {
      "pitch": 64,
      "start_beat": 172.0,
      "duration_beat": 0.23541666666667993,
      "velocity": 33,
      "track": 1
    },
    {
      "pitch": 64,
      "start_beat": 172.0,
      "duration_beat": 0.23541666666667993,
      "velocity": 43,
      "track": 1
    },
    {
      "pitch": 68,
      "start_beat": 172.0,
      "duration_beat": 0.23541666666667993,
      "velocity": 43,
      "track": 1
    },
    {
      "pitch": 71,
      "start_beat": 172.0,
      "duration_beat": 0.23541666666667993,
      "velocity": 43,
      "track": 1
    },
    {
      "pitch": 64,
      "start_beat": 172.0,
      "duration_beat": 0.11770833333333997,
      "velocity": 33,
      "track": 1
    },
    {
      "pitch": 64,
      "start_beat": 172.0,
      "duration_beat": 0.125,
      "velocity": 13,
      "track": 1
    },
    {
      "pitch": 71,
      "start_beat": 172.125,
      "duration_beat": 0.11770833333333997,
      "velocity": 33,
      "track": 1
    },
    {
      "pitch": 76,
      "start_beat": 172.25,
      "duration_beat": 0.11770833333333997,
      "velocity": 33,
      "track": 1
    },
    {
      "pitch": 64,
      "start_beat": 172.25,
      "duration_beat": 0.24791666666666856,
      "velocity": 33,
      "track": 0
    },
    {
      "pitch": 64,
      "start_beat": 172.25,
      "duration_beat": 0.24791666666666856,
      "velocity": 43,
      "track": 0
    },
    {
      "pitch": 68,
      "start_beat": 172.25,
      "duration_beat": 0.24791666666666856,
      "velocity": 43,
      "track": 0
    },
    {
      "pitch": 71,
      "start_beat": 172.25,
      "duration_beat": 0.24791666666666856,
      "velocity": 43,
      "track": 0
    },
    {
      "pitch": 64,
      "start_beat": 172.25,
      "duration_beat": 0.12395833333333428,
      "velocity": 33,
      "track": 0
    },
    {
      "pitch": 64,
      "start_beat": 172.25,
      "duration_beat": 0.125,
      "velocity": 13,
      "track": 0
    },
    {
      "pitch": 71,
      "start_beat": 172.375,
      "duration_beat": 0.12395833333333428,
      "velocity": 33,
      "track": 0
    },
    {
      "pitch": 76,
      "start_beat": 172.5,
      "duration_beat": 0.12395833333333428,
      "velocity": 33,
      "track": 0
    },
    {
      "pitch": 76,
      "start_beat": 172.5,
      "duration_beat": 0.23541666666667993,
      "velocity": 33,
      "track": 0
    },
    {
      "pitch": 76,
      "start_beat": 172.5,
      "duration_beat": 0.23541666666667993,
      "velocity": 43,
      "track": 0
    },
    {
      "pitch": 80,
      "start_beat": 172.5,
      "duration_beat": 0.23541666666667993,
      "velocity": 43,
      "track": 0
    },
    {
      "pitch": 83,
      "start_beat": 172.5,
      "duration_beat": 0.23541666666667993,
      "velocity": 43,
      "track": 0
    },
    {
      "pitch": 76,
      "start_beat": 172.5,
      "duration_beat": 0.11770833333333997,
      "velocity": 33,
      "track": 0
    },
    {
      "pitch": 76,
      "start_beat": 172.5,
      "duration_beat": 0.125,
      "velocity": 13,
      "track": 0
    },
    {
      "pitch": 83,
      "start_beat": 172.625,
      "duration_beat": 0.11770833333333997,
      "velocity": 33,
      "track": 0
    },
    {
      "pitch": 88,
      "start_beat": 172.75,
      "duration_beat": 0.11770833333333997,
      "velocity": 33,
      "track": 0
    },
    {
      "pitch": 64,
      "start_beat": 172.75,
      "duration_beat": 0.24791666666666856,
      "velocity": 33,
      "track": 1
    },
    {
      "pitch": 64,
      "start_beat": 172.75,
      "duration_beat": 0.24791666666666856,
      "velocity": 43,
      "track": 1
    },
    {
      "pitch": 68,
      "start_beat": 172.75,
      "duration_beat": 0.24791666666666856,
      "velocity": 43,
      "track": 1
    },
    {
      "pitch": 71,
      "start_beat": 172.75,
      "duration_beat": 0.24791666666666856,
      "velocity": 43,
      "track": 1
    },
    {
      "pitch": 64,
      "start_beat": 172.75,
      "duration_beat": 0.12395833333333428,
      "velocity": 33,
      "track": 1
    },
    {
      "pitch": 64,
      "start_beat": 172.75,
      "duration_beat": 0.125,
      "velocity": 13,
      "track": 1
    },
    {
      "pitch": 71,
      "start_beat": 172.875,
      "duration_beat": 0.12395833333333428,
      "velocity": 33,
      "track": 1
    },
    {
      "pitch": 76,
      "start_beat": 173.0,
      "duration_beat": 0.12395833333333428,
      "velocity": 33,
      "track": 1
    },
    {
      "pitch": 76,
      "start_beat": 173.0,
      "duration_beat": 0.23541666666667993,
      "velocity": 33,
      "track": 1
    },
    {
      "pitch": 76,
      "start_beat": 173.0,
      "duration_beat": 0.23541666666667993,
      "velocity": 43,
      "track": 1
    },
    {
      "pitch": 80,
      "start_beat": 173.0,
      "duration_beat": 0.23541666666667993,
      "velocity": 43,
      "track": 1
    },
    {
      "pitch": 83,
      "start_beat": 173.0,
      "duration_beat": 0.23541666666667993,
      "velocity": 43,
      "track": 1
    },
    {
      "pitch": 76,
      "start_beat": 173.0,
      "duration_beat": 0.11770833333333997,
      "velocity": 33,
      "track": 1
    },
    {
      "pitch": 76,
      "start_beat": 173.0,
      "duration_beat": 0.125,
      "velocity": 13,
      "track": 1
    },
    {
      "pitch": 83,
      "start_beat": 173.125,
      "duration_beat": 0.11770833333333997,
      "velocity": 33,
      "track": 1
    },
    {
      "pitch": 88,
      "start_beat": 173.25,
      "duration_beat": 0.11770833333333997,
      "velocity": 33,
      "track": 1
    },
    {
      "pitch": 76,
      "start_beat": 173.25,
      "duration_beat": 0.24791666666666856,
      "velocity": 33,
      "track": 0
    },
    {
      "pitch": 76,
      "start_beat": 173.25,
      "duration_beat": 0.24791666666666856,
      "velocity": 43,
      "track": 0
    },
    {
      "pitch": 80,
      "start_beat": 173.25,
      "duration_beat": 0.24791666666666856,
      "velocity": 43,
      "track": 0
    },
    {
      "pitch": 83,
      "start_beat": 173.25,
      "duration_beat": 0.24791666666666856,
      "velocity": 43,
      "track": 0
    },
    {
      "pitch": 76,
      "start_beat": 173.25,
      "duration_beat": 0.12395833333333428,
      "velocity": 33,
      "track": 0
    },
    {
      "pitch": 76,
      "start_beat": 173.25,
      "duration_beat": 0.125,
      "velocity": 13,
      "track": 0
    },
    {
      "pitch": 83,
      "start_beat": 173.375,
      "duration_beat": 0.12395833333333428,
      "velocity": 33,
      "track": 0
    },
    {
      "pitch": 88,
      "start_beat": 173.5,
      "duration_beat": 0.12395833333333428,
      "velocity": 33,
      "track": 0
    },
    {
      "pitch": 88,
      "start_beat": 173.5,
      "duration_beat": 0.23541666666667993,
      "velocity": 33,
      "track": 0
    },
    {
      "pitch": 88,
      "start_beat": 173.5,
      "duration_beat": 0.23541666666667993,
      "velocity": 43,
      "track": 0
    },
    {
      "pitch": 92,
      "start_beat": 173.5,
      "duration_beat": 0.23541666666667993,
      "velocity": 43,
      "track": 0
    },
    {
      "pitch": 95,
      "start_beat": 173.5,
      "duration_beat": 0.23541666666667993,
      "velocity": 43,
      "track": 0
    },
    {
      "pitch": 88,
      "start_beat": 173.5,
      "duration_beat": 0.11770833333333997,
      "velocity": 33,
      "track": 0
    },
    {
      "pitch": 88,
      "start_beat": 173.5,
      "duration_beat": 0.125,
      "velocity": 13,
      "track": 0
    },
    {
      "pitch": 95,
      "start_beat": 173.625,
      "duration_beat": 0.11770833333333997,
      "velocity": 33,
      "track": 0
    },
    {
      "pitch": 100,
      "start_beat": 173.75,
      "duration_beat": 0.11770833333333997,
      "velocity": 33,
      "track": 0
    },
    {
      "pitch": 75,
      "start_beat": 173.75,
      "duration_beat": 0.24791666666666856,
      "velocity": 33,
      "track": 1
    },
    {
      "pitch": 75,
      "start_beat": 173.75,
      "duration_beat": 0.24791666666666856,
      "velocity": 43,
      "track": 1
    },
    {
      "pitch": 79,
      "start_beat": 173.75,
      "duration_beat": 0.24791666666666856,
      "velocity": 43,
      "track": 1
    },
    {
      "pitch": 82,
      "start_beat": 173.75,
      "duration_beat": 0.24791666666666856,
      "velocity": 43,
      "track": 1
    },
    {
      "pitch": 75,
      "start_beat": 173.75,
      "duration_beat": 0.12395833333333428,
      "velocity": 33,
      "track": 1
    },
    {
      "pitch": 75,
      "start_beat": 173.75,
      "duration_beat": 0.125,
      "velocity": 13,
      "track": 1
    },
    {
      "pitch": 82,
      "start_beat": 173.875,
      "duration_beat": 0.12395833333333428,
      "velocity": 33,
      "track": 1
    },
    {
      "pitch": 87,
      "start_beat": 174.0,
      "duration_beat": 0.12395833333333428,
      "velocity": 33,
      "track": 1
    },
    {
      "pitch": 76,
      "start_beat": 174.0,
      "duration_beat": 0.23541666666667993,
      "velocity": 33,
      "track": 1
    },
    {
      "pitch": 76,
      "start_beat": 174.0,
      "duration_beat": 0.23541666666667993,
      "velocity": 43,
      "track": 1
    },
    {
      "pitch": 80,
      "start_beat": 174.0,
      "duration_beat": 0.23541666666667993,
      "velocity": 43,
      "track": 1
    },
    {
      "pitch": 83,
      "start_beat": 174.0,
      "duration_beat": 0.23541666666667993,
      "velocity": 43,
      "track": 1
    },
    {
      "pitch": 76,
      "start_beat": 174.0,
      "duration_beat": 0.11770833333333997,
      "velocity": 33,
      "track": 1
    },
    {
      "pitch": 76,
      "start_beat": 174.0,
      "duration_beat": 0.125,
      "velocity": 13,
      "track": 1
    },
    {
      "pitch": 83,
      "start_beat": 174.125,
      "duration_beat": 0.11770833333333997,
      "velocity": 33,
      "track": 1
    },
    {
      "pitch": 88,
      "start_beat": 174.25,
      "duration_beat": 0.11770833333333997,
      "velocity": 33,
      "track": 1
    },
    {
      "pitch": 75,
      "start_beat": 174.25,
      "duration_beat": 0.24791666666666856,
      "velocity": 33,
      "track": 0
    },
    {
      "pitch": 75,
      "start_beat": 174.25,
      "duration_beat": 0.24791666666666856,
      "velocity": 43,
      "track": 0
    },
    {
      "pitch": 79,
      "start_beat": 174.25,
      "duration_beat": 0.24791666666666856,
      "velocity": 43,
      "track": 0
    },
    {
      "pitch": 82,
      "start_beat": 174.25,
      "duration_beat": 0.24791666666666856,
      "velocity": 43,
      "track": 0
    },
    {
      "pitch": 75,
      "start_beat": 174.25,
      "duration_beat": 0.12395833333333428,
      "velocity": 33,
      "track": 0
    },
    {
      "pitch": 75,
      "start_beat": 174.25,
      "duration_beat": 0.125,
      "velocity": 13,
      "track": 0
    },
    {
      "pitch": 82,
      "start_beat": 174.375,
      "duration_beat": 0.12395833333333428,
      "velocity": 33,
      "track": 0
    },
    {
      "pitch": 87,
      "start_beat": 174.5,
      "duration_beat": 0.12395833333333428,
      "velocity": 33,
      "track": 0
    },
    {
      "pitch": 76,
      "start_beat": 174.5,
      "duration_beat": 0.4729166666666629,
      "velocity": 33,
      "track": 0
    },
    {
      "pitch": 76,
      "start_beat": 174.5,
      "duration_beat": 0.4729166666666629,
      "velocity": 43,
      "track": 0
    },
    {
      "pitch": 80,
      "start_beat": 174.5,
      "duration_beat": 0.4729166666666629,
      "velocity": 43,
      "track": 0
    },
    {
      "pitch": 83,
      "start_beat": 174.5,
      "duration_beat": 0.4729166666666629,
      "velocity": 43,
      "track": 0
    },
    {
      "pitch": 76,
      "start_beat": 174.5,
      "duration_beat": 0.23645833333333144,
      "velocity": 33,
      "track": 0
    },
    {
      "pitch": 76,
      "start_beat": 174.5,
      "duration_beat": 0.125,
      "velocity": 13,
      "track": 0
    },
    {
      "pitch": 83,
      "start_beat": 174.625,
      "duration_beat": 0.23645833333333144,
      "velocity": 33,
      "track": 0
    },
    {
      "pitch": 88,
      "start_beat": 174.75,
      "duration_beat": 0.23645833333333144,
      "velocity": 33,
      "track": 0
    },
    {
      "pitch": 76,
      "start_beat": 174.75,
      "duration_beat": 0.125,
      "velocity": 13,
      "track": 0
    },
    {
      "pitch": 75,
      "start_beat": 174.75,
      "duration_beat": 0.24791666666666856,
      "velocity": 33,
      "track": 1
    },
    {
      "pitch": 75,
      "start_beat": 174.75,
      "duration_beat": 0.24791666666666856,
      "velocity": 43,
      "track": 1
    },
    {
      "pitch": 79,
      "start_beat": 174.75,
      "duration_beat": 0.24791666666666856,
      "velocity": 43,
      "track": 1
    },
    {
      "pitch": 82,
      "start_beat": 174.75,
      "duration_beat": 0.24791666666666856,
      "velocity": 43,
      "track": 1
    },
    {
      "pitch": 75,
      "start_beat": 174.75,
      "duration_beat": 0.12395833333333428,
      "velocity": 33,
      "track": 1
    },
    {
      "pitch": 75,
      "start_beat": 174.75,
      "duration_beat": 0.125,
      "velocity": 13,
      "track": 1
    },
    {
      "pitch": 82,
      "start_beat": 174.875,
      "duration_beat": 0.12395833333333428,
      "velocity": 33,
      "track": 1
    },
    {
      "pitch": 87,
      "start_beat": 175.0,
      "duration_beat": 0.12395833333333428,
      "velocity": 33,
      "track": 1
    },
    {
      "pitch": 76,
      "start_beat": 175.0,
      "duration_beat": 0.23541666666667993,
      "velocity": 33,
      "track": 1
    },
    {
      "pitch": 76,
      "start_beat": 175.0,
      "duration_beat": 0.23541666666667993,
      "velocity": 43,
      "track": 1
    },
    {
      "pitch": 80,
      "start_beat": 175.0,
      "duration_beat": 0.23541666666667993,
      "velocity": 43,
      "track": 1
    },
    {
      "pitch": 83,
      "start_beat": 175.0,
      "duration_beat": 0.23541666666667993,
      "velocity": 43,
      "track": 1
    },
    {
      "pitch": 76,
      "start_beat": 175.0,
      "duration_beat": 0.11770833333333997,
      "velocity": 33,
      "track": 1
    },
    {
      "pitch": 76,
      "start_beat": 175.0,
      "duration_beat": 0.125,
      "velocity": 13,
      "track": 1
    },
    {
      "pitch": 83,
      "start_beat": 175.125,
      "duration_beat": 0.11770833333333997,
      "velocity": 33,
      "track": 1
    },
    {
      "pitch": 88,
      "start_beat": 175.25,
      "duration_beat": 0.11770833333333997,
      "velocity": 33,
      "track": 1
    },
    {
      "pitch": 75,
      "start_beat": 175.25,
      "duration_beat": 0.23541666666667993,
      "velocity": 33,
      "track": 0
    },
    {
      "pitch": 75,
      "start_beat": 175.25,
      "duration_beat": 0.23541666666667993,
      "velocity": 43,
      "track": 0
    },
    {
      "pitch": 79,
      "start_beat": 175.25,
      "duration_beat": 0.23541666666667993,
      "velocity": 43,
      "track": 0
    },
    {
      "pitch": 82,
      "start_beat": 175.25,
      "duration_beat": 0.23541666666667993,
      "velocity": 43,
      "track": 0
    },
    {
      "pitch": 75,
      "start_beat": 175.25,
      "duration_beat": 0.11770833333333997,
      "velocity": 33,
      "track": 0
    },
    {
      "pitch": 75,
      "start_beat": 175.25,
      "duration_beat": 0.125,
      "velocity": 13,
      "track": 0
    },
    {
      "pitch": 82,
      "start_beat": 175.375,
      "duration_beat": 0.11770833333333997,
      "velocity": 33,
      "track": 0
    },
    {
      "pitch": 87,
      "start_beat": 175.5,
      "duration_beat": 0.11770833333333997,
      "velocity": 33,
      "track": 0
    },
    {
      "pitch": 76,
      "start_beat": 175.5,
      "duration_beat": 0.23541666666667993,
      "velocity": 33,
      "track": 0
    },
    {
      "pitch": 76,
      "start_beat": 175.5,
      "duration_beat": 0.23541666666667993,
      "velocity": 43,
      "track": 0
    },
    {
      "pitch": 80,
      "start_beat": 175.5,
      "duration_beat": 0.23541666666667993,
      "velocity": 43,
      "track": 0
    },
    {
      "pitch": 83,
      "start_beat": 175.5,
      "duration_beat": 0.23541666666667993,
      "velocity": 43,
      "track": 0
    },
    {
      "pitch": 76,
      "start_beat": 175.5,
      "duration_beat": 0.11770833333333997,
      "velocity": 33,
      "track": 0
    },
    {
      "pitch": 76,
      "start_beat": 175.5,
      "duration_beat": 0.125,
      "velocity": 13,
      "track": 0
    },
    {
      "pitch": 83,
      "start_beat": 175.625,
      "duration_beat": 0.11770833333333997,
      "velocity": 33,
      "track": 0
    },
    {
      "pitch": 88,
      "start_beat": 175.75,
      "duration_beat": 0.11770833333333997,
      "velocity": 33,
      "track": 0
    },
    {
      "pitch": 75,
      "start_beat": 175.75,
      "duration_beat": 0.23541666666667993,
      "velocity": 33,
      "track": 0
    },
    {
      "pitch": 75,
      "start_beat": 175.75,
      "duration_beat": 0.23541666666667993,
      "velocity": 43,
      "track": 0
    },
    {
      "pitch": 79,
      "start_beat": 175.75,
      "duration_beat": 0.23541666666667993,
      "velocity": 43,
      "track": 0
    },
    {
      "pitch": 82,
      "start_beat": 175.75,
      "duration_beat": 0.23541666666667993,
      "velocity": 43,
      "track": 0
    },
    {
      "pitch": 75,
      "start_beat": 175.75,
      "duration_beat": 0.11770833333333997,
      "velocity": 33,
      "track": 0
    },
    {
      "pitch": 75,
      "start_beat": 175.75,
      "duration_beat": 0.125,
      "velocity": 13,
      "track": 0
    },
    {
      "pitch": 82,
      "start_beat": 175.875,
      "duration_beat": 0.11770833333333997,
      "velocity": 33,
      "track": 0
    },
    {
      "pitch": 87,
      "start_beat": 176.0,
      "duration_beat": 0.11770833333333997,
      "velocity": 33,
      "track": 0
    },
    {
      "pitch": 76,
      "start_beat": 176.0,
      "duration_beat": 0.23541666666667993,
      "velocity": 33,
      "track": 0
    },
    {
      "pitch": 76,
      "start_beat": 176.0,
      "duration_beat": 0.23541666666667993,
      "velocity": 43,
      "track": 0
    },
    {
      "pitch": 80,
      "start_beat": 176.0,
      "duration_beat": 0.23541666666667993,
      "velocity": 43,
      "track": 0
    },
    {
      "pitch": 83,
      "start_beat": 176.0,
      "duration_beat": 0.23541666666667993,
      "velocity": 43,
      "track": 0
    },
    {
      "pitch": 76,
      "start_beat": 176.0,
      "duration_beat": 0.11770833333333997,
      "velocity": 33,
      "track": 0
    },
    {
      "pitch": 76,
      "start_beat": 176.0,
      "duration_beat": 0.125,
      "velocity": 13,
      "track": 0
    },
    {
      "pitch": 83,
      "start_beat": 176.125,
      "duration_beat": 0.11770833333333997,
      "velocity": 33,
      "track": 0
    },
    {
      "pitch": 88,
      "start_beat": 176.25,
      "duration_beat": 0.11770833333333997,
      "velocity": 33,
      "track": 0
    },
    {
      "pitch": 75,
      "start_beat": 176.25,
      "duration_beat": 0.23541666666667993,
      "velocity": 33,
      "track": 0
    },
    {
      "pitch": 75,
      "start_beat": 176.25,
      "duration_beat": 0.23541666666667993,
      "velocity": 43,
      "track": 0
    },
    {
      "pitch": 79,
      "start_beat": 176.25,
      "duration_beat": 0.23541666666667993,
      "velocity": 43,
      "track": 0
    },
    {
      "pitch": 82,
      "start_beat": 176.25,
      "duration_beat": 0.23541666666667993,
      "velocity": 43,
      "track": 0
    },
    {
      "pitch": 75,
      "start_beat": 176.25,
      "duration_beat": 0.11770833333333997,
      "velocity": 33,
      "track": 0
    },
    {
      "pitch": 75,
      "start_beat": 176.25,
      "duration_beat": 0.125,
      "velocity": 13,
      "track": 0
    },
    {
      "pitch": 82,
      "start_beat": 176.375,
      "duration_beat": 0.11770833333333997,
      "velocity": 33,
      "track": 0
    },
    {
      "pitch": 87,
      "start_beat": 176.5,
      "duration_beat": 0.11770833333333997,
      "velocity": 33,
      "track": 0
    },
    {
      "pitch": 76,
      "start_beat": 176.5,
      "duration_beat": 0.23541666666667993,
      "velocity": 33,
      "track": 0
    },
    {
      "pitch": 76,
      "start_beat": 176.5,
      "duration_beat": 0.23541666666667993,
      "velocity": 43,
      "track": 0
    },
    {
      "pitch": 80,
      "start_beat": 176.5,
      "duration_beat": 0.23541666666667993,
      "velocity": 43,
      "track": 0
    },
    {
      "pitch": 83,
      "start_beat": 176.5,
      "duration_beat": 0.23541666666667993,
      "velocity": 43,
      "track": 0
    },
    {
      "pitch": 76,
      "start_beat": 176.5,
      "duration_beat": 0.11770833333333997,
      "velocity": 33,
      "track": 0
    },
    {
      "pitch": 76,
      "start_beat": 176.5,
      "duration_beat": 0.125,
      "velocity": 13,
      "track": 0
    },
    {
      "pitch": 83,
      "start_beat": 176.625,
      "duration_beat": 0.11770833333333997,
      "velocity": 33,
      "track": 0
    },
    {
      "pitch": 88,
      "start_beat": 176.75,
      "duration_beat": 0.11770833333333997,
      "velocity": 33,
      "track": 0
    },
    {
      "pitch": 71,
      "start_beat": 176.75,
      "duration_beat": 0.23541666666667993,
      "velocity": 33,
      "track": 0
    },
    {
      "pitch": 71,
      "start_beat": 176.75,
      "duration_beat": 0.23541666666667993,
      "velocity": 43,
      "track": 0
    },
    {
      "pitch": 75,
      "start_beat": 176.75,
      "duration_beat": 0.23541666666667993,
      "velocity": 43,
      "track": 0
    },
    {
      "pitch": 78,
      "start_beat": 176.75,
      "duration_beat": 0.23541666666667993,
      "velocity": 43,
      "track": 0
    },
    {
      "pitch": 71,
      "start_beat": 176.75,
      "duration_beat": 0.11770833333333997,
      "velocity": 33,
      "track": 0
    },
    {
      "pitch": 71,
      "start_beat": 176.75,
      "duration_beat": 0.125,
      "velocity": 13,
      "track": 0
    },
    {
      "pitch": 78,
      "start_beat": 176.875,
      "duration_beat": 0.11770833333333997,
      "velocity": 33,
      "track": 0
    },
    {
      "pitch": 83,
      "start_beat": 177.0,
      "duration_beat": 0.11770833333333997,
      "velocity": 33,
      "track": 0
    },
    {
      "pitch": 74,
      "start_beat": 177.0,
      "duration_beat": 0.23541666666667993,
      "velocity": 33,
      "track": 0
    },
    {
      "pitch": 74,
      "start_beat": 177.0,
      "duration_beat": 0.23541666666667993,
      "velocity": 43,
      "track": 0
    },
    {
      "pitch": 78,
      "start_beat": 177.0,
      "duration_beat": 0.23541666666667993,
      "velocity": 43,
      "track": 0
    },
    {
      "pitch": 81,
      "start_beat": 177.0,
      "duration_beat": 0.23541666666667993,
      "velocity": 43,
      "track": 0
    },
    {
      "pitch": 74,
      "start_beat": 177.0,
      "duration_beat": 0.11770833333333997,
      "velocity": 33,
      "track": 0
    },
    {
      "pitch": 74,
      "start_beat": 177.0,
      "duration_beat": 0.125,
      "velocity": 13,
      "track": 0
    },
    {
      "pitch": 81,
      "start_beat": 177.125,
      "duration_beat": 0.11770833333333997,
      "velocity": 33,
      "track": 0
    },
    {
      "pitch": 86,
      "start_beat": 177.25,
      "duration_beat": 0.11770833333333997,
      "velocity": 33,
      "track": 0
    },
    {
      "pitch": 72,
      "start_beat": 177.25,
      "duration_beat": 0.23541666666667993,
      "velocity": 33,
      "track": 0
    },
    {
      "pitch": 72,
      "start_beat": 177.25,
      "duration_beat": 0.23541666666667993,
      "velocity": 43,
      "track": 0
    },
    {
      "pitch": 76,
      "start_beat": 177.25,
      "duration_beat": 0.23541666666667993,
      "velocity": 43,
      "track": 0
    },
    {
      "pitch": 79,
      "start_beat": 177.25,
      "duration_beat": 0.23541666666667993,
      "velocity": 43,
      "track": 0
    },
    {
      "pitch": 72,
      "start_beat": 177.25,
      "duration_beat": 0.11770833333333997,
      "velocity": 33,
      "track": 0
    },
    {
      "pitch": 72,
      "start_beat": 177.25,
      "duration_beat": 0.125,
      "velocity": 13,
      "track": 0
    },
    {
      "pitch": 79,
      "start_beat": 177.375,
      "duration_beat": 0.11770833333333997,
      "velocity": 33,
      "track": 0
    },
    {
      "pitch": 84,
      "start_beat": 177.5,
      "duration_beat": 0.11770833333333997,
      "velocity": 33,
      "track": 0
    },
    {
      "pitch": 69,
      "start_beat": 177.5,
      "duration_beat": 0.4729166666666629,
      "velocity": 33,
      "track": 0
    },
    {
      "pitch": 69,
      "start_beat": 177.5,
      "duration_beat": 0.4729166666666629,
      "velocity": 43,
      "track": 0
    },
    {
      "pitch": 73,
      "start_beat": 177.5,
      "duration_beat": 0.4729166666666629,
      "velocity": 43,
      "track": 0
    },
    {
      "pitch": 76,
      "start_beat": 177.5,
      "duration_beat": 0.4729166666666629,
      "velocity": 43,
      "track": 0
    },
    {
      "pitch": 69,
      "start_beat": 177.5,
      "duration_beat": 0.23645833333333144,
      "velocity": 33,
      "track": 0
    },
    {
      "pitch": 69,
      "start_beat": 177.5,
      "duration_beat": 0.125,
      "velocity": 13,
      "track": 0
    },
    {
      "pitch": 45,
      "start_beat": 177.5,
      "duration_beat": 0.23541666666667993,
      "velocity": 33,
      "track": 1
    },
    {
      "pitch": 45,
      "start_beat": 177.5,
      "duration_beat": 0.23541666666667993,
      "velocity": 43,
      "track": 1
    },
    {
      "pitch": 49,
      "start_beat": 177.5,
      "duration_beat": 0.23541666666667993,
      "velocity": 43,
      "track": 1
    },
    {
      "pitch": 52,
      "start_beat": 177.5,
      "duration_beat": 0.23541666666667993,
      "velocity": 43,
      "track": 1
    },
    {
      "pitch": 45,
      "start_beat": 177.5,
      "duration_beat": 0.11770833333333997,
      "velocity": 33,
      "track": 1
    },
    {
      "pitch": 45,
      "start_beat": 177.5,
      "duration_beat": 0.125,
      "velocity": 13,
      "track": 1
    },
    {
      "pitch": 76,
      "start_beat": 177.625,
      "duration_beat": 0.23645833333333144,
      "velocity": 33,
      "track": 0
    },
    {
      "pitch": 52,
      "start_beat": 177.625,
      "duration_beat": 0.11770833333333997,
      "velocity": 33,
      "track": 1
    },
    {
      "pitch": 81,
      "start_beat": 177.75,
      "duration_beat": 0.23645833333333144,
      "velocity": 33,
      "track": 0
    },
    {
      "pitch": 69,
      "start_beat": 177.75,
      "duration_beat": 0.125,
      "velocity": 13,
      "track": 0
    },
    {
      "pitch": 57,
      "start_beat": 177.75,
      "duration_beat": 0.11770833333333997,
      "velocity": 33,
      "track": 1
    },
    {
      "pitch": 52,
      "start_beat": 177.75,
      "duration_beat": 0.23541666666667993,
      "velocity": 33,
      "track": 1
    },
    {
      "pitch": 52,
      "start_beat": 177.75,
      "duration_beat": 0.23541666666667993,
      "velocity": 43,
      "track": 1
    },
    {
      "pitch": 56,
      "start_beat": 177.75,
      "duration_beat": 0.23541666666667993,
      "velocity": 43,
      "track": 1
    },
    {
      "pitch": 59,
      "start_beat": 177.75,
      "duration_beat": 0.23541666666667993,
      "velocity": 43,
      "track": 1
    },
    {
      "pitch": 52,
      "start_beat": 177.75,
      "duration_beat": 0.11770833333333997,
      "velocity": 33,
      "track": 1
    },
    {
      "pitch": 52,
      "start_beat": 177.75,
      "duration_beat": 0.125,
      "velocity": 13,
      "track": 1
    },
    {
      "pitch": 59,
      "start_beat": 177.875,
      "duration_beat": 0.11770833333333997,
      "velocity": 33,
      "track": 1
    },
    {
      "pitch": 64,
      "start_beat": 178.0,
      "duration_beat": 0.11770833333333997,
      "velocity": 33,
      "track": 1
    },
    {
      "pitch": 57,
      "start_beat": 178.0,
      "duration_beat": 0.23541666666667993,
      "velocity": 33,
      "track": 1
    },
    {
      "pitch": 57,
      "start_beat": 178.0,
      "duration_beat": 0.23541666666667993,
      "velocity": 43,
      "track": 1
    },
    {
      "pitch": 61,
      "start_beat": 178.0,
      "duration_beat": 0.23541666666667993,
      "velocity": 43,
      "track": 1
    },
    {
      "pitch": 64,
      "start_beat": 178.0,
      "duration_beat": 0.23541666666667993,
      "velocity": 43,
      "track": 1
    },
    {
      "pitch": 57,
      "start_beat": 178.0,
      "duration_beat": 0.11770833333333997,
      "velocity": 33,
      "track": 1
    },
    {
      "pitch": 57,
      "start_beat": 178.0,
      "duration_beat": 0.125,
      "velocity": 13,
      "track": 1
    },
    {
      "pitch": 64,
      "start_beat": 178.125,
      "duration_beat": 0.11770833333333997,
      "velocity": 33,
      "track": 1
    },
    {
      "pitch": 69,
      "start_beat": 178.25,
      "duration_beat": 0.11770833333333997,
      "velocity": 33,
      "track": 1
    },
    {
      "pitch": 60,
      "start_beat": 178.25,
      "duration_beat": 0.23541666666667993,
      "velocity": 33,
      "track": 0
    },
    {
      "pitch": 60,
      "start_beat": 178.25,
      "duration_beat": 0.23541666666667993,
      "velocity": 43,
      "track": 0
    },
    {
      "pitch": 64,
      "start_beat": 178.25,
      "duration_beat": 0.23541666666667993,
      "velocity": 43,
      "track": 0
    },
    {
      "pitch": 67,
      "start_beat": 178.25,
      "duration_beat": 0.23541666666667993,
      "velocity": 43,
      "track": 0
    },
    {
      "pitch": 60,
      "start_beat": 178.25,
      "duration_beat": 0.11770833333333997,
      "velocity": 33,
      "track": 0
    },
    {
      "pitch": 60,
      "start_beat": 178.25,
      "duration_beat": 0.125,
      "velocity": 13,
      "track": 0
    },
    {
      "pitch": 67,
      "start_beat": 178.375,
      "duration_beat": 0.11770833333333997,
      "velocity": 33,
      "track": 0
    },
    {
      "pitch": 72,
      "start_beat": 178.5,
      "duration_beat": 0.11770833333333997,
      "velocity": 33,
      "track": 0
    },
    {
      "pitch": 64,
      "start_beat": 178.5,
      "duration_beat": 0.23541666666667993,
      "velocity": 33,
      "track": 0
    },
    {
      "pitch": 64,
      "start_beat": 178.5,
      "duration_beat": 0.23541666666667993,
      "velocity": 43,
      "track": 0
    },
    {
      "pitch": 68,
      "start_beat": 178.5,
      "duration_beat": 0.23541666666667993,
      "velocity": 43,
      "track": 0
    },
    {
      "pitch": 71,
      "start_beat": 178.5,
      "duration_beat": 0.23541666666667993,
      "velocity": 43,
      "track": 0
    },
    {
      "pitch": 64,
      "start_beat": 178.5,
      "duration_beat": 0.11770833333333997,
      "velocity": 33,
      "track": 0
    },
    {
      "pitch": 64,
      "start_beat": 178.5,
      "duration_beat": 0.125,
      "velocity": 13,
      "track": 0
    },
    {
      "pitch": 71,
      "start_beat": 178.625,
      "duration_beat": 0.11770833333333997,
      "velocity": 33,
      "track": 0
    },
    {
      "pitch": 76,
      "start_beat": 178.75,
      "duration_beat": 0.11770833333333997,
      "velocity": 33,
      "track": 0
    },
    {
      "pitch": 69,
      "start_beat": 178.75,
      "duration_beat": 0.23541666666667993,
      "velocity": 33,
      "track": 0
    },
    {
      "pitch": 69,
      "start_beat": 178.75,
      "duration_beat": 0.23541666666667993,
      "velocity": 43,
      "track": 0
    },
    {
      "pitch": 73,
      "start_beat": 178.75,
      "duration_beat": 0.23541666666667993,
      "velocity": 43,
      "track": 0
    },
    {
      "pitch": 76,
      "start_beat": 178.75,
      "duration_beat": 0.23541666666667993,
      "velocity": 43,
      "track": 0
    },
    {
      "pitch": 69,
      "start_beat": 178.75,
      "duration_beat": 0.11770833333333997,
      "velocity": 33,
      "track": 0
    },
    {
      "pitch": 69,
      "start_beat": 178.75,
      "duration_beat": 0.125,
      "velocity": 13,
      "track": 0
    },
    {
      "pitch": 76,
      "start_beat": 178.875,
      "duration_beat": 0.11770833333333997,
      "velocity": 33,
      "track": 0
    },
    {
      "pitch": 81,
      "start_beat": 179.0,
      "duration_beat": 0.11770833333333997,
      "velocity": 33,
      "track": 0
    },
    {
      "pitch": 71,
      "start_beat": 179.0,
      "duration_beat": 0.4729166666666629,
      "velocity": 33,
      "track": 0
    },
    {
      "pitch": 71,
      "start_beat": 179.0,
      "duration_beat": 0.4729166666666629,
      "velocity": 43,
      "track": 0
    },
    {
      "pitch": 75,
      "start_beat": 179.0,
      "duration_beat": 0.4729166666666629,
      "velocity": 43,
      "track": 0
    },
    {
      "pitch": 78,
      "start_beat": 179.0,
      "duration_beat": 0.4729166666666629,
      "velocity": 43,
      "track": 0
    },
    {
      "pitch": 71,
      "start_beat": 179.0,
      "duration_beat": 0.23645833333333144,
      "velocity": 33,
      "track": 0
    },
    {
      "pitch": 71,
      "start_beat": 179.0,
      "duration_beat": 0.125,
      "velocity": 13,
      "track": 0
    },
    {
      "pitch": 40,
      "start_beat": 179.0,
      "duration_beat": 0.23541666666667993,
      "velocity": 33,
      "track": 1
    },
    {
      "pitch": 40,
      "start_beat": 179.0,
      "duration_beat": 0.23541666666667993,
      "velocity": 43,
      "track": 1
    },
    {
      "pitch": 44,
      "start_beat": 179.0,
      "duration_beat": 0.23541666666667993,
      "velocity": 43,
      "track": 1
    },
    {
      "pitch": 47,
      "start_beat": 179.0,
      "duration_beat": 0.23541666666667993,
      "velocity": 43,
      "track": 1
    },
    {
      "pitch": 40,
      "start_beat": 179.0,
      "duration_beat": 0.11770833333333997,
      "velocity": 33,
      "track": 1
    },
    {
      "pitch": 40,
      "start_beat": 179.0,
      "duration_beat": 0.125,
      "velocity": 13,
      "track": 1
    },
    {
      "pitch": 78,
      "start_beat": 179.125,
      "duration_beat": 0.23645833333333144,
      "velocity": 33,
      "track": 0
    },
    {
      "pitch": 47,
      "start_beat": 179.125,
      "duration_beat": 0.11770833333333997,
      "velocity": 33,
      "track": 1
    },
    {
      "pitch": 83,
      "start_beat": 179.25,
      "duration_beat": 0.23645833333333144,
      "velocity": 33,
      "track": 0
    },
    {
      "pitch": 71,
      "start_beat": 179.25,
      "duration_beat": 0.125,
      "velocity": 13,
      "track": 0
    },
    {
      "pitch": 52,
      "start_beat": 179.25,
      "duration_beat": 0.11770833333333997,
      "velocity": 33,
      "track": 1
    },
    {
      "pitch": 52,
      "start_beat": 179.25,
      "duration_beat": 0.23541666666667993,
      "velocity": 33,
      "track": 1
    },
    {
      "pitch": 52,
      "start_beat": 179.25,
      "duration_beat": 0.23541666666667993,
      "velocity": 43,
      "track": 1
    },
    {
      "pitch": 56,
      "start_beat": 179.25,
      "duration_beat": 0.23541666666667993,
      "velocity": 43,
      "track": 1
    },
    {
      "pitch": 59,
      "start_beat": 179.25,
      "duration_beat": 0.23541666666667993,
      "velocity": 43,
      "track": 1
    },
    {
      "pitch": 52,
      "start_beat": 179.25,
      "duration_beat": 0.11770833333333997,
      "velocity": 33,
      "track": 1
    },
    {
      "pitch": 52,
      "start_beat": 179.25,
      "duration_beat": 0.125,
      "velocity": 13,
      "track": 1
    },
    {
      "pitch": 59,
      "start_beat": 179.375,
      "duration_beat": 0.11770833333333997,
      "velocity": 33,
      "track": 1
    },
    {
      "pitch": 64,
      "start_beat": 179.5,
      "duration_beat": 0.11770833333333997,
      "velocity": 33,
      "track": 1
    },
    {
      "pitch": 56,
      "start_beat": 179.5,
      "duration_beat": 0.23541666666667993,
      "velocity": 33,
      "track": 1
    },
    {
      "pitch": 56,
      "start_beat": 179.5,
      "duration_beat": 0.23541666666667993,
      "velocity": 43,
      "track": 1
    },
    {
      "pitch": 60,
      "start_beat": 179.5,
      "duration_beat": 0.23541666666667993,
      "velocity": 43,
      "track": 1
    },
    {
      "pitch": 63,
      "start_beat": 179.5,
      "duration_beat": 0.23541666666667993,
      "velocity": 43,
      "track": 1
    },
    {
      "pitch": 56,
      "start_beat": 179.5,
      "duration_beat": 0.11770833333333997,
      "velocity": 33,
      "track": 1
    },
    {
      "pitch": 56,
      "start_beat": 179.5,
      "duration_beat": 0.125,
      "velocity": 13,
      "track": 1
    },
    {
      "pitch": 63,
      "start_beat": 179.625,
      "duration_beat": 0.11770833333333997,
      "velocity": 33,
      "track": 1
    },
    {
      "pitch": 68,
      "start_beat": 179.75,
      "duration_beat": 0.11770833333333997,
      "velocity": 33,
      "track": 1
    },
    {
      "pitch": 64,
      "start_beat": 179.75,
      "duration_beat": 0.23541666666667993,
      "velocity": 33,
      "track": 0
    },
    {
      "pitch": 64,
      "start_beat": 179.75,
      "duration_beat": 0.23541666666667993,
      "velocity": 43,
      "track": 0
    },
    {
      "pitch": 68,
      "start_beat": 179.75,
      "duration_beat": 0.23541666666667993,
      "velocity": 43,
      "track": 0
    },
    {
      "pitch": 71,
      "start_beat": 179.75,
      "duration_beat": 0.23541666666667993,
      "velocity": 43,
      "track": 0
    },
    {
      "pitch": 64,
      "start_beat": 179.75,
      "duration_beat": 0.11770833333333997,
      "velocity": 33,
      "track": 0
    },
    {
      "pitch": 64,
      "start_beat": 179.75,
      "duration_beat": 0.125,
      "velocity": 13,
      "track": 0
    },
    {
      "pitch": 71,
      "start_beat": 179.875,
      "duration_beat": 0.11770833333333997,
      "velocity": 33,
      "track": 0
    },
    {
      "pitch": 76,
      "start_beat": 180.0,
      "duration_beat": 0.11770833333333997,
      "velocity": 33,
      "track": 0
    },
    {
      "pitch": 68,
      "start_beat": 180.0,
      "duration_beat": 0.23541666666667993,
      "velocity": 33,
      "track": 0
    },
    {
      "pitch": 68,
      "start_beat": 180.0,
      "duration_beat": 0.23541666666667993,
      "velocity": 43,
      "track": 0
    },
    {
      "pitch": 72,
      "start_beat": 180.0,
      "duration_beat": 0.23541666666667993,
      "velocity": 43,
      "track": 0
    },
    {
      "pitch": 75,
      "start_beat": 180.0,
      "duration_beat": 0.23541666666667993,
      "velocity": 43,
      "track": 0
    },
    {
      "pitch": 68,
      "start_beat": 180.0,
      "duration_beat": 0.11770833333333997,
      "velocity": 33,
      "track": 0
    },
    {
      "pitch": 68,
      "start_beat": 180.0,
      "duration_beat": 0.125,
      "velocity": 13,
      "track": 0
    },
    {
      "pitch": 75,
      "start_beat": 180.125,
      "duration_beat": 0.11770833333333997,
      "velocity": 33,
      "track": 0
    },
    {
      "pitch": 80,
      "start_beat": 180.25,
      "duration_beat": 0.11770833333333997,
      "velocity": 33,
      "track": 0
    },
    {
      "pitch": 71,
      "start_beat": 180.25,
      "duration_beat": 0.23541666666667993,
      "velocity": 33,
      "track": 0
    },
    {
      "pitch": 71,
      "start_beat": 180.25,
      "duration_beat": 0.23541666666667993,
      "velocity": 43,
      "track": 0
    },
    {
      "pitch": 75,
      "start_beat": 180.25,
      "duration_beat": 0.23541666666667993,
      "velocity": 43,
      "track": 0
    },
    {
      "pitch": 78,
      "start_beat": 180.25,
      "duration_beat": 0.23541666666667993,
      "velocity": 43,
      "track": 0
    },
    {
      "pitch": 71,
      "start_beat": 180.25,
      "duration_beat": 0.11770833333333997,
      "velocity": 33,
      "track": 0
    },
    {
      "pitch": 71,
      "start_beat": 180.25,
      "duration_beat": 0.125,
      "velocity": 13,
      "track": 0
    },
    {
      "pitch": 78,
      "start_beat": 180.375,
      "duration_beat": 0.11770833333333997,
      "velocity": 33,
      "track": 0
    },
    {
      "pitch": 83,
      "start_beat": 180.5,
      "duration_beat": 0.11770833333333997,
      "velocity": 33,
      "track": 0
    },
    {
      "pitch": 72,
      "start_beat": 180.5,
      "duration_beat": 0.4729166666666629,
      "velocity": 33,
      "track": 0
    },
    {
      "pitch": 72,
      "start_beat": 180.5,
      "duration_beat": 0.4729166666666629,
      "velocity": 43,
      "track": 0
    },
    {
      "pitch": 76,
      "start_beat": 180.5,
      "duration_beat": 0.4729166666666629,
      "velocity": 43,
      "track": 0
    },
    {
      "pitch": 79,
      "start_beat": 180.5,
      "duration_beat": 0.4729166666666629,
      "velocity": 43,
      "track": 0
    },
    {
      "pitch": 72,
      "start_beat": 180.5,
      "duration_beat": 0.23645833333333144,
      "velocity": 33,
      "track": 0
    },
    {
      "pitch": 72,
      "start_beat": 180.5,
      "duration_beat": 0.125,
      "velocity": 13,
      "track": 0
    },
    {
      "pitch": 45,
      "start_beat": 180.5,
      "duration_beat": 0.23541666666667993,
      "velocity": 33,
      "track": 1
    },
    {
      "pitch": 45,
      "start_beat": 180.5,
      "duration_beat": 0.23541666666667993,
      "velocity": 43,
      "track": 1
    },
    {
      "pitch": 49,
      "start_beat": 180.5,
      "duration_beat": 0.23541666666667993,
      "velocity": 43,
      "track": 1
    },
    {
      "pitch": 52,
      "start_beat": 180.5,
      "duration_beat": 0.23541666666667993,
      "velocity": 43,
      "track": 1
    },
    {
      "pitch": 45,
      "start_beat": 180.5,
      "duration_beat": 0.11770833333333997,
      "velocity": 33,
      "track": 1
    },
    {
      "pitch": 45,
      "start_beat": 180.5,
      "duration_beat": 0.125,
      "velocity": 13,
      "track": 1
    },
    {
      "pitch": 79,
      "start_beat": 180.625,
      "duration_beat": 0.23645833333333144,
      "velocity": 33,
      "track": 0
    },
    {
      "pitch": 52,
      "start_beat": 180.625,
      "duration_beat": 0.11770833333333997,
      "velocity": 33,
      "track": 1
    },
    {
      "pitch": 84,
      "start_beat": 180.75,
      "duration_beat": 0.23645833333333144,
      "velocity": 33,
      "track": 0
    },
    {
      "pitch": 72,
      "start_beat": 180.75,
      "duration_beat": 0.125,
      "velocity": 13,
      "track": 0
    },
    {
      "pitch": 57,
      "start_beat": 180.75,
      "duration_beat": 0.11770833333333997,
      "velocity": 33,
      "track": 1
    },
    {
      "pitch": 52,
      "start_beat": 180.75,
      "duration_beat": 0.23541666666667993,
      "velocity": 33,
      "track": 1
    },
    {
      "pitch": 52,
      "start_beat": 180.75,
      "duration_beat": 0.23541666666667993,
      "velocity": 43,
      "track": 1
    },
    {
      "pitch": 56,
      "start_beat": 180.75,
      "duration_beat": 0.23541666666667993,
      "velocity": 43,
      "track": 1
    },
    {
      "pitch": 59,
      "start_beat": 180.75,
      "duration_beat": 0.23541666666667993,
      "velocity": 43,
      "track": 1
    },
    {
      "pitch": 52,
      "start_beat": 180.75,
      "duration_beat": 0.11770833333333997,
      "velocity": 33,
      "track": 1
    },
    {
      "pitch": 52,
      "start_beat": 180.75,
      "duration_beat": 0.125,
      "velocity": 13,
      "track": 1
    },
    {
      "pitch": 59,
      "start_beat": 180.875,
      "duration_beat": 0.11770833333333997,
      "velocity": 33,
      "track": 1
    },
    {
      "pitch": 64,
      "start_beat": 181.0,
      "duration_beat": 0.11770833333333997,
      "velocity": 33,
      "track": 1
    },
    {
      "pitch": 57,
      "start_beat": 181.0,
      "duration_beat": 0.23541666666667993,
      "velocity": 33,
      "track": 1
    },
    {
      "pitch": 57,
      "start_beat": 181.0,
      "duration_beat": 0.23541666666667993,
      "velocity": 43,
      "track": 1
    },
    {
      "pitch": 61,
      "start_beat": 181.0,
      "duration_beat": 0.23541666666667993,
      "velocity": 43,
      "track": 1
    },
    {
      "pitch": 64,
      "start_beat": 181.0,
      "duration_beat": 0.23541666666667993,
      "velocity": 43,
      "track": 1
    },
    {
      "pitch": 57,
      "start_beat": 181.0,
      "duration_beat": 0.11770833333333997,
      "velocity": 33,
      "track": 1
    },
    {
      "pitch": 57,
      "start_beat": 181.0,
      "duration_beat": 0.125,
      "velocity": 13,
      "track": 1
    },
    {
      "pitch": 64,
      "start_beat": 181.125,
      "duration_beat": 0.11770833333333997,
      "velocity": 33,
      "track": 1
    },
    {
      "pitch": 69,
      "start_beat": 181.25,
      "duration_beat": 0.11770833333333997,
      "velocity": 33,
      "track": 1
    },
    {
      "pitch": 64,
      "start_beat": 181.25,
      "duration_beat": 0.23541666666667993,
      "velocity": 33,
      "track": 0
    },
    {
      "pitch": 64,
      "start_beat": 181.25,
      "duration_beat": 0.23541666666667993,
      "velocity": 43,
      "track": 0
    },
    {
      "pitch": 68,
      "start_beat": 181.25,
      "duration_beat": 0.23541666666667993,
      "velocity": 43,
      "track": 0
    },
    {
      "pitch": 71,
      "start_beat": 181.25,
      "duration_beat": 0.23541666666667993,
      "velocity": 43,
      "track": 0
    },
    {
      "pitch": 64,
      "start_beat": 181.25,
      "duration_beat": 0.11770833333333997,
      "velocity": 33,
      "track": 0
    },
    {
      "pitch": 64,
      "start_beat": 181.25,
      "duration_beat": 0.125,
      "velocity": 13,
      "track": 0
    },
    {
      "pitch": 71,
      "start_beat": 181.375,
      "duration_beat": 0.11770833333333997,
      "velocity": 33,
      "track": 0
    },
    {
      "pitch": 76,
      "start_beat": 181.5,
      "duration_beat": 0.11770833333333997,
      "velocity": 33,
      "track": 0
    },
    {
      "pitch": 76,
      "start_beat": 181.5,
      "duration_beat": 0.23541666666667993,
      "velocity": 33,
      "track": 0
    },
    {
      "pitch": 76,
      "start_beat": 181.5,
      "duration_beat": 0.23541666666667993,
      "velocity": 43,
      "track": 0
    },
    {
      "pitch": 80,
      "start_beat": 181.5,
      "duration_beat": 0.23541666666667993,
      "velocity": 43,
      "track": 0
    },
    {
      "pitch": 83,
      "start_beat": 181.5,
      "duration_beat": 0.23541666666667993,
      "velocity": 43,
      "track": 0
    },
    {
      "pitch": 76,
      "start_beat": 181.5,
      "duration_beat": 0.11770833333333997,
      "velocity": 33,
      "track": 0
    },
    {
      "pitch": 76,
      "start_beat": 181.5,
      "duration_beat": 0.125,
      "velocity": 13,
      "track": 0
    },
    {
      "pitch": 83,
      "start_beat": 181.625,
      "duration_beat": 0.11770833333333997,
      "velocity": 33,
      "track": 0
    },
    {
      "pitch": 88,
      "start_beat": 181.75,
      "duration_beat": 0.11770833333333997,
      "velocity": 33,
      "track": 0
    },
    {
      "pitch": 75,
      "start_beat": 181.75,
      "duration_beat": 0.23541666666667993,
      "velocity": 33,
      "track": 0
    },
    {
      "pitch": 75,
      "start_beat": 181.75,
      "duration_beat": 0.23541666666667993,
      "velocity": 43,
      "track": 0
    },
    {
      "pitch": 79,
      "start_beat": 181.75,
      "duration_beat": 0.23541666666667993,
      "velocity": 43,
      "track": 0
    },
    {
      "pitch": 82,
      "start_beat": 181.75,
      "duration_beat": 0.23541666666667993,
      "velocity": 43,
      "track": 0
    },
    {
      "pitch": 75,
      "start_beat": 181.75,
      "duration_beat": 0.11770833333333997,
      "velocity": 33,
      "track": 0
    },
    {
      "pitch": 75,
      "start_beat": 181.75,
      "duration_beat": 0.125,
      "velocity": 13,
      "track": 0
    },
    {
      "pitch": 82,
      "start_beat": 181.875,
      "duration_beat": 0.11770833333333997,
      "velocity": 33,
      "track": 0
    },
    {
      "pitch": 87,
      "start_beat": 182.0,
      "duration_beat": 0.11770833333333997,
      "velocity": 33,
      "track": 0
    },
    {
      "pitch": 76,
      "start_beat": 182.0,
      "duration_beat": 0.23541666666667993,
      "velocity": 33,
      "track": 0
    },
    {
      "pitch": 76,
      "start_beat": 182.0,
      "duration_beat": 0.23541666666667993,
      "velocity": 43,
      "track": 0
    },
    {
      "pitch": 80,
      "start_beat": 182.0,
      "duration_beat": 0.23541666666667993,
      "velocity": 43,
      "track": 0
    },
    {
      "pitch": 83,
      "start_beat": 182.0,
      "duration_beat": 0.23541666666667993,
      "velocity": 43,
      "track": 0
    },
    {
      "pitch": 76,
      "start_beat": 182.0,
      "duration_beat": 0.11770833333333997,
      "velocity": 33,
      "track": 0
    },
    {
      "pitch": 76,
      "start_beat": 182.0,
      "duration_beat": 0.125,
      "velocity": 13,
      "track": 0
    },
    {
      "pitch": 83,
      "start_beat": 182.125,
      "duration_beat": 0.11770833333333997,
      "velocity": 33,
      "track": 0
    },
    {
      "pitch": 88,
      "start_beat": 182.25,
      "duration_beat": 0.11770833333333997,
      "velocity": 33,
      "track": 0
    },
    {
      "pitch": 75,
      "start_beat": 182.25,
      "duration_beat": 0.23541666666667993,
      "velocity": 33,
      "track": 0
    },
    {
      "pitch": 75,
      "start_beat": 182.25,
      "duration_beat": 0.23541666666667993,
      "velocity": 43,
      "track": 0
    },
    {
      "pitch": 79,
      "start_beat": 182.25,
      "duration_beat": 0.23541666666667993,
      "velocity": 43,
      "track": 0
    },
    {
      "pitch": 82,
      "start_beat": 182.25,
      "duration_beat": 0.23541666666667993,
      "velocity": 43,
      "track": 0
    },
    {
      "pitch": 75,
      "start_beat": 182.25,
      "duration_beat": 0.11770833333333997,
      "velocity": 33,
      "track": 0
    },
    {
      "pitch": 75,
      "start_beat": 182.25,
      "duration_beat": 0.125,
      "velocity": 13,
      "track": 0
    },
    {
      "pitch": 82,
      "start_beat": 182.375,
      "duration_beat": 0.11770833333333997,
      "velocity": 33,
      "track": 0
    },
    {
      "pitch": 87,
      "start_beat": 182.5,
      "duration_beat": 0.11770833333333997,
      "velocity": 33,
      "track": 0
    },
    {
      "pitch": 76,
      "start_beat": 182.5,
      "duration_beat": 0.23541666666667993,
      "velocity": 33,
      "track": 0
    },
    {
      "pitch": 76,
      "start_beat": 182.5,
      "duration_beat": 0.23541666666667993,
      "velocity": 43,
      "track": 0
    },
    {
      "pitch": 80,
      "start_beat": 182.5,
      "duration_beat": 0.23541666666667993,
      "velocity": 43,
      "track": 0
    },
    {
      "pitch": 83,
      "start_beat": 182.5,
      "duration_beat": 0.23541666666667993,
      "velocity": 43,
      "track": 0
    },
    {
      "pitch": 76,
      "start_beat": 182.5,
      "duration_beat": 0.11770833333333997,
      "velocity": 33,
      "track": 0
    },
    {
      "pitch": 76,
      "start_beat": 182.5,
      "duration_beat": 0.125,
      "velocity": 13,
      "track": 0
    },
    {
      "pitch": 83,
      "start_beat": 182.625,
      "duration_beat": 0.11770833333333997,
      "velocity": 33,
      "track": 0
    },
    {
      "pitch": 88,
      "start_beat": 182.75,
      "duration_beat": 0.11770833333333997,
      "velocity": 33,
      "track": 0
    },
    {
      "pitch": 71,
      "start_beat": 182.75,
      "duration_beat": 0.23541666666667993,
      "velocity": 33,
      "track": 0
    },
    {
      "pitch": 71,
      "start_beat": 182.75,
      "duration_beat": 0.23541666666667993,
      "velocity": 43,
      "track": 0
    },
    {
      "pitch": 75,
      "start_beat": 182.75,
      "duration_beat": 0.23541666666667993,
      "velocity": 43,
      "track": 0
    },
    {
      "pitch": 78,
      "start_beat": 182.75,
      "duration_beat": 0.23541666666667993,
      "velocity": 43,
      "track": 0
    },
    {
      "pitch": 71,
      "start_beat": 182.75,
      "duration_beat": 0.11770833333333997,
      "velocity": 33,
      "track": 0
    },
    {
      "pitch": 71,
      "start_beat": 182.75,
      "duration_beat": 0.125,
      "velocity": 13,
      "track": 0
    },
    {
      "pitch": 78,
      "start_beat": 182.875,
      "duration_beat": 0.11770833333333997,
      "velocity": 33,
      "track": 0
    },
    {
      "pitch": 83,
      "start_beat": 183.0,
      "duration_beat": 0.11770833333333997,
      "velocity": 33,
      "track": 0
    },
    {
      "pitch": 74,
      "start_beat": 183.0,
      "duration_beat": 0.23541666666667993,
      "velocity": 33,
      "track": 0
    },
    {
      "pitch": 74,
      "start_beat": 183.0,
      "duration_beat": 0.23541666666667993,
      "velocity": 43,
      "track": 0
    },
    {
      "pitch": 78,
      "start_beat": 183.0,
      "duration_beat": 0.23541666666667993,
      "velocity": 43,
      "track": 0
    },
    {
      "pitch": 81,
      "start_beat": 183.0,
      "duration_beat": 0.23541666666667993,
      "velocity": 43,
      "track": 0
    },
    {
      "pitch": 74,
      "start_beat": 183.0,
      "duration_beat": 0.11770833333333997,
      "velocity": 33,
      "track": 0
    },
    {
      "pitch": 74,
      "start_beat": 183.0,
      "duration_beat": 0.125,
      "velocity": 13,
      "track": 0
    },
    {
      "pitch": 81,
      "start_beat": 183.125,
      "duration_beat": 0.11770833333333997,
      "velocity": 33,
      "track": 0
    },
    {
      "pitch": 86,
      "start_beat": 183.25,
      "duration_beat": 0.11770833333333997,
      "velocity": 33,
      "track": 0
    },
    {
      "pitch": 72,
      "start_beat": 183.25,
      "duration_beat": 0.23541666666667993,
      "velocity": 33,
      "track": 0
    },
    {
      "pitch": 72,
      "start_beat": 183.25,
      "duration_beat": 0.23541666666667993,
      "velocity": 43,
      "track": 0
    },
    {
      "pitch": 76,
      "start_beat": 183.25,
      "duration_beat": 0.23541666666667993,
      "velocity": 43,
      "track": 0
    },
    {
      "pitch": 79,
      "start_beat": 183.25,
      "duration_beat": 0.23541666666667993,
      "velocity": 43,
      "track": 0
    },
    {
      "pitch": 72,
      "start_beat": 183.25,
      "duration_beat": 0.11770833333333997,
      "velocity": 33,
      "track": 0
    },
    {
      "pitch": 72,
      "start_beat": 183.25,
      "duration_beat": 0.125,
      "velocity": 13,
      "track": 0
    },
    {
      "pitch": 79,
      "start_beat": 183.375,
      "duration_beat": 0.11770833333333997,
      "velocity": 33,
      "track": 0
    },
    {
      "pitch": 84,
      "start_beat": 183.5,
      "duration_beat": 0.11770833333333997,
      "velocity": 33,
      "track": 0
    },
    {
      "pitch": 69,
      "start_beat": 183.5,
      "duration_beat": 0.4729166666666629,
      "velocity": 33,
      "track": 0
    },
    {
      "pitch": 69,
      "start_beat": 183.5,
      "duration_beat": 0.4729166666666629,
      "velocity": 43,
      "track": 0
    },
    {
      "pitch": 73,
      "start_beat": 183.5,
      "duration_beat": 0.4729166666666629,
      "velocity": 43,
      "track": 0
    },
    {
      "pitch": 76,
      "start_beat": 183.5,
      "duration_beat": 0.4729166666666629,
      "velocity": 43,
      "track": 0
    },
    {
      "pitch": 69,
      "start_beat": 183.5,
      "duration_beat": 0.23645833333333144,
      "velocity": 33,
      "track": 0
    },
    {
      "pitch": 69,
      "start_beat": 183.5,
      "duration_beat": 0.125,
      "velocity": 13,
      "track": 0
    },
    {
      "pitch": 45,
      "start_beat": 183.5,
      "duration_beat": 0.23541666666667993,
      "velocity": 33,
      "track": 1
    },
    {
      "pitch": 45,
      "start_beat": 183.5,
      "duration_beat": 0.23541666666667993,
      "velocity": 43,
      "track": 1
    },
    {
      "pitch": 49,
      "start_beat": 183.5,
      "duration_beat": 0.23541666666667993,
      "velocity": 43,
      "track": 1
    },
    {
      "pitch": 52,
      "start_beat": 183.5,
      "duration_beat": 0.23541666666667993,
      "velocity": 43,
      "track": 1
    },
    {
      "pitch": 45,
      "start_beat": 183.5,
      "duration_beat": 0.11770833333333997,
      "velocity": 33,
      "track": 1
    },
    {
      "pitch": 45,
      "start_beat": 183.5,
      "duration_beat": 0.125,
      "velocity": 13,
      "track": 1
    },
    {
      "pitch": 76,
      "start_beat": 183.625,
      "duration_beat": 0.23645833333333144,
      "velocity": 33,
      "track": 0
    },
    {
      "pitch": 52,
      "start_beat": 183.625,
      "duration_beat": 0.11770833333333997,
      "velocity": 33,
      "track": 1
    },
    {
      "pitch": 81,
      "start_beat": 183.75,
      "duration_beat": 0.23645833333333144,
      "velocity": 33,
      "track": 0
    },
    {
      "pitch": 69,
      "start_beat": 183.75,
      "duration_beat": 0.125,
      "velocity": 13,
      "track": 0
    },
    {
      "pitch": 57,
      "start_beat": 183.75,
      "duration_beat": 0.11770833333333997,
      "velocity": 33,
      "track": 1
    },
    {
      "pitch": 52,
      "start_beat": 183.75,
      "duration_beat": 0.23541666666667993,
      "velocity": 33,
      "track": 1
    },
    {
      "pitch": 52,
      "start_beat": 183.75,
      "duration_beat": 0.23541666666667993,
      "velocity": 43,
      "track": 1
    },
    {
      "pitch": 56,
      "start_beat": 183.75,
      "duration_beat": 0.23541666666667993,
      "velocity": 43,
      "track": 1
    },
    {
      "pitch": 59,
      "start_beat": 183.75,
      "duration_beat": 0.23541666666667993,
      "velocity": 43,
      "track": 1
    },
    {
      "pitch": 52,
      "start_beat": 183.75,
      "duration_beat": 0.11770833333333997,
      "velocity": 33,
      "track": 1
    },
    {
      "pitch": 52,
      "start_beat": 183.75,
      "duration_beat": 0.125,
      "velocity": 13,
      "track": 1
    },
    {
      "pitch": 59,
      "start_beat": 183.875,
      "duration_beat": 0.11770833333333997,
      "velocity": 33,
      "track": 1
    },
    {
      "pitch": 64,
      "start_beat": 184.0,
      "duration_beat": 0.11770833333333997,
      "velocity": 33,
      "track": 1
    },
    {
      "pitch": 57,
      "start_beat": 184.0,
      "duration_beat": 0.23541666666667993,
      "velocity": 33,
      "track": 1
    },
    {
      "pitch": 57,
      "start_beat": 184.0,
      "duration_beat": 0.23541666666667993,
      "velocity": 43,
      "track": 1
    },
    {
      "pitch": 61,
      "start_beat": 184.0,
      "duration_beat": 0.23541666666667993,
      "velocity": 43,
      "track": 1
    },
    {
      "pitch": 64,
      "start_beat": 184.0,
      "duration_beat": 0.23541666666667993,
      "velocity": 43,
      "track": 1
    },
    {
      "pitch": 57,
      "start_beat": 184.0,
      "duration_beat": 0.11770833333333997,
      "velocity": 33,
      "track": 1
    },
    {
      "pitch": 57,
      "start_beat": 184.0,
      "duration_beat": 0.125,
      "velocity": 13,
      "track": 1
    },
    {
      "pitch": 64,
      "start_beat": 184.125,
      "duration_beat": 0.11770833333333997,
      "velocity": 33,
      "track": 1
    },
    {
      "pitch": 69,
      "start_beat": 184.25,
      "duration_beat": 0.11770833333333997,
      "velocity": 33,
      "track": 1
    },
    {
      "pitch": 60,
      "start_beat": 184.25,
      "duration_beat": 0.23541666666667993,
      "velocity": 33,
      "track": 0
    },
    {
      "pitch": 60,
      "start_beat": 184.25,
      "duration_beat": 0.23541666666667993,
      "velocity": 43,
      "track": 0
    },
    {
      "pitch": 64,
      "start_beat": 184.25,
      "duration_beat": 0.23541666666667993,
      "velocity": 43,
      "track": 0
    },
    {
      "pitch": 67,
      "start_beat": 184.25,
      "duration_beat": 0.23541666666667993,
      "velocity": 43,
      "track": 0
    },
    {
      "pitch": 60,
      "start_beat": 184.25,
      "duration_beat": 0.11770833333333997,
      "velocity": 33,
      "track": 0
    },
    {
      "pitch": 60,
      "start_beat": 184.25,
      "duration_beat": 0.125,
      "velocity": 13,
      "track": 0
    },
    {
      "pitch": 67,
      "start_beat": 184.375,
      "duration_beat": 0.11770833333333997,
      "velocity": 33,
      "track": 0
    },
    {
      "pitch": 72,
      "start_beat": 184.5,
      "duration_beat": 0.11770833333333997,
      "velocity": 33,
      "track": 0
    },
    {
      "pitch": 64,
      "start_beat": 184.5,
      "duration_beat": 0.23541666666667993,
      "velocity": 33,
      "track": 0
    },
    {
      "pitch": 64,
      "start_beat": 184.5,
      "duration_beat": 0.23541666666667993,
      "velocity": 43,
      "track": 0
    },
    {
      "pitch": 68,
      "start_beat": 184.5,
      "duration_beat": 0.23541666666667993,
      "velocity": 43,
      "track": 0
    },
    {
      "pitch": 71,
      "start_beat": 184.5,
      "duration_beat": 0.23541666666667993,
      "velocity": 43,
      "track": 0
    },
    {
      "pitch": 64,
      "start_beat": 184.5,
      "duration_beat": 0.11770833333333997,
      "velocity": 33,
      "track": 0
    },
    {
      "pitch": 64,
      "start_beat": 184.5,
      "duration_beat": 0.125,
      "velocity": 13,
      "track": 0
    },
    {
      "pitch": 71,
      "start_beat": 184.625,
      "duration_beat": 0.11770833333333997,
      "velocity": 33,
      "track": 0
    },
    {
      "pitch": 76,
      "start_beat": 184.75,
      "duration_beat": 0.11770833333333997,
      "velocity": 33,
      "track": 0
    },
    {
      "pitch": 69,
      "start_beat": 184.75,
      "duration_beat": 0.23541666666667993,
      "velocity": 33,
      "track": 0
    },
    {
      "pitch": 69,
      "start_beat": 184.75,
      "duration_beat": 0.23541666666667993,
      "velocity": 43,
      "track": 0
    },
    {
      "pitch": 73,
      "start_beat": 184.75,
      "duration_beat": 0.23541666666667993,
      "velocity": 43,
      "track": 0
    },
    {
      "pitch": 76,
      "start_beat": 184.75,
      "duration_beat": 0.23541666666667993,
      "velocity": 43,
      "track": 0
    },
    {
      "pitch": 69,
      "start_beat": 184.75,
      "duration_beat": 0.11770833333333997,
      "velocity": 33,
      "track": 0
    },
    {
      "pitch": 69,
      "start_beat": 184.75,
      "duration_beat": 0.125,
      "velocity": 13,
      "track": 0
    },
    {
      "pitch": 76,
      "start_beat": 184.875,
      "duration_beat": 0.11770833333333997,
      "velocity": 33,
      "track": 0
    },
    {
      "pitch": 81,
      "start_beat": 185.0,
      "duration_beat": 0.11770833333333997,
      "velocity": 33,
      "track": 0
    },
    {
      "pitch": 71,
      "start_beat": 185.0,
      "duration_beat": 0.4729166666666629,
      "velocity": 33,
      "track": 0
    },
    {
      "pitch": 71,
      "start_beat": 185.0,
      "duration_beat": 0.4729166666666629,
      "velocity": 43,
      "track": 0
    },
    {
      "pitch": 75,
      "start_beat": 185.0,
      "duration_beat": 0.4729166666666629,
      "velocity": 43,
      "track": 0
    },
    {
      "pitch": 78,
      "start_beat": 185.0,
      "duration_beat": 0.4729166666666629,
      "velocity": 43,
      "track": 0
    },
    {
      "pitch": 71,
      "start_beat": 185.0,
      "duration_beat": 0.23645833333333144,
      "velocity": 33,
      "track": 0
    },
    {
      "pitch": 71,
      "start_beat": 185.0,
      "duration_beat": 0.125,
      "velocity": 13,
      "track": 0
    },
    {
      "pitch": 40,
      "start_beat": 185.0,
      "duration_beat": 0.23541666666667993,
      "velocity": 33,
      "track": 1
    },
    {
      "pitch": 40,
      "start_beat": 185.0,
      "duration_beat": 0.23541666666667993,
      "velocity": 43,
      "track": 1
    },
    {
      "pitch": 44,
      "start_beat": 185.0,
      "duration_beat": 0.23541666666667993,
      "velocity": 43,
      "track": 1
    },
    {
      "pitch": 47,
      "start_beat": 185.0,
      "duration_beat": 0.23541666666667993,
      "velocity": 43,
      "track": 1
    },
    {
      "pitch": 40,
      "start_beat": 185.0,
      "duration_beat": 0.11770833333333997,
      "velocity": 33,
      "track": 1
    },
    {
      "pitch": 40,
      "start_beat": 185.0,
      "duration_beat": 0.125,
      "velocity": 13,
      "track": 1
    },
    {
      "pitch": 78,
      "start_beat": 185.125,
      "duration_beat": 0.23645833333333144,
      "velocity": 33,
      "track": 0
    },
    {
      "pitch": 47,
      "start_beat": 185.125,
      "duration_beat": 0.11770833333333997,
      "velocity": 33,
      "track": 1
    },
    {
      "pitch": 83,
      "start_beat": 185.25,
      "duration_beat": 0.23645833333333144,
      "velocity": 33,
      "track": 0
    },
    {
      "pitch": 71,
      "start_beat": 185.25,
      "duration_beat": 0.125,
      "velocity": 13,
      "track": 0
    },
    {
      "pitch": 52,
      "start_beat": 185.25,
      "duration_beat": 0.11770833333333997,
      "velocity": 33,
      "track": 1
    },
    {
      "pitch": 52,
      "start_beat": 185.25,
      "duration_beat": 0.23541666666667993,
      "velocity": 33,
      "track": 1
    },
    {
      "pitch": 52,
      "start_beat": 185.25,
      "duration_beat": 0.23541666666667993,
      "velocity": 43,
      "track": 1
    },
    {
      "pitch": 56,
      "start_beat": 185.25,
      "duration_beat": 0.23541666666667993,
      "velocity": 43,
      "track": 1
    },
    {
      "pitch": 59,
      "start_beat": 185.25,
      "duration_beat": 0.23541666666667993,
      "velocity": 43,
      "track": 1
    },
    {
      "pitch": 52,
      "start_beat": 185.25,
      "duration_beat": 0.11770833333333997,
      "velocity": 33,
      "track": 1
    },
    {
      "pitch": 52,
      "start_beat": 185.25,
      "duration_beat": 0.125,
      "velocity": 13,
      "track": 1
    },
    {
      "pitch": 59,
      "start_beat": 185.375,
      "duration_beat": 0.11770833333333997,
      "velocity": 33,
      "track": 1
    },
    {
      "pitch": 64,
      "start_beat": 185.5,
      "duration_beat": 0.11770833333333997,
      "velocity": 33,
      "track": 1
    },
    {
      "pitch": 56,
      "start_beat": 185.5,
      "duration_beat": 0.23541666666667993,
      "velocity": 33,
      "track": 1
    },
    {
      "pitch": 56,
      "start_beat": 185.5,
      "duration_beat": 0.23541666666667993,
      "velocity": 43,
      "track": 1
    },
    {
      "pitch": 60,
      "start_beat": 185.5,
      "duration_beat": 0.23541666666667993,
      "velocity": 43,
      "track": 1
    },
    {
      "pitch": 63,
      "start_beat": 185.5,
      "duration_beat": 0.23541666666667993,
      "velocity": 43,
      "track": 1
    },
    {
      "pitch": 56,
      "start_beat": 185.5,
      "duration_beat": 0.11770833333333997,
      "velocity": 33,
      "track": 1
    },
    {
      "pitch": 56,
      "start_beat": 185.5,
      "duration_beat": 0.125,
      "velocity": 13,
      "track": 1
    },
    {
      "pitch": 63,
      "start_beat": 185.625,
      "duration_beat": 0.11770833333333997,
      "velocity": 33,
      "track": 1
    },
    {
      "pitch": 68,
      "start_beat": 185.75,
      "duration_beat": 0.11770833333333997,
      "velocity": 33,
      "track": 1
    },
    {
      "pitch": 62,
      "start_beat": 185.75,
      "duration_beat": 0.23541666666667993,
      "velocity": 33,
      "track": 0
    },
    {
      "pitch": 62,
      "start_beat": 185.75,
      "duration_beat": 0.23541666666667993,
      "velocity": 43,
      "track": 0
    },
    {
      "pitch": 66,
      "start_beat": 185.75,
      "duration_beat": 0.23541666666667993,
      "velocity": 43,
      "track": 0
    },
    {
      "pitch": 69,
      "start_beat": 185.75,
      "duration_beat": 0.23541666666667993,
      "velocity": 43,
      "track": 0
    },
    {
      "pitch": 62,
      "start_beat": 185.75,
      "duration_beat": 0.11770833333333997,
      "velocity": 33,
      "track": 0
    },
    {
      "pitch": 62,
      "start_beat": 185.75,
      "duration_beat": 0.125,
      "velocity": 13,
      "track": 0
    },
    {
      "pitch": 69,
      "start_beat": 185.875,
      "duration_beat": 0.11770833333333997,
      "velocity": 33,
      "track": 0
    },
    {
      "pitch": 74,
      "start_beat": 186.0,
      "duration_beat": 0.11770833333333997,
      "velocity": 33,
      "track": 0
    },
    {
      "pitch": 72,
      "start_beat": 186.0,
      "duration_beat": 0.23541666666667993,
      "velocity": 33,
      "track": 0
    },
    {
      "pitch": 72,
      "start_beat": 186.0,
      "duration_beat": 0.23541666666667993,
      "velocity": 43,
      "track": 0
    },
    {
      "pitch": 76,
      "start_beat": 186.0,
      "duration_beat": 0.23541666666667993,
      "velocity": 43,
      "track": 0
    },
    {
      "pitch": 79,
      "start_beat": 186.0,
      "duration_beat": 0.23541666666667993,
      "velocity": 43,
      "track": 0
    },
    {
      "pitch": 72,
      "start_beat": 186.0,
      "duration_beat": 0.11770833333333997,
      "velocity": 33,
      "track": 0
    },
    {
      "pitch": 72,
      "start_beat": 186.0,
      "duration_beat": 0.125,
      "velocity": 13,
      "track": 0
    },
    {
      "pitch": 79,
      "start_beat": 186.125,
      "duration_beat": 0.11770833333333997,
      "velocity": 33,
      "track": 0
    },
    {
      "pitch": 84,
      "start_beat": 186.25,
      "duration_beat": 0.11770833333333997,
      "velocity": 33,
      "track": 0
    },
    {
      "pitch": 71,
      "start_beat": 186.25,
      "duration_beat": 0.23541666666667993,
      "velocity": 33,
      "track": 0
    },
    {
      "pitch": 71,
      "start_beat": 186.25,
      "duration_beat": 0.23541666666667993,
      "velocity": 43,
      "track": 0
    },
    {
      "pitch": 75,
      "start_beat": 186.25,
      "duration_beat": 0.23541666666667993,
      "velocity": 43,
      "track": 0
    },
    {
      "pitch": 78,
      "start_beat": 186.25,
      "duration_beat": 0.23541666666667993,
      "velocity": 43,
      "track": 0
    },
    {
      "pitch": 71,
      "start_beat": 186.25,
      "duration_beat": 0.11770833333333997,
      "velocity": 33,
      "track": 0
    },
    {
      "pitch": 71,
      "start_beat": 186.25,
      "duration_beat": 0.125,
      "velocity": 13,
      "track": 0
    },
    {
      "pitch": 78,
      "start_beat": 186.375,
      "duration_beat": 0.11770833333333997,
      "velocity": 33,
      "track": 0
    },
    {
      "pitch": 83,
      "start_beat": 186.5,
      "duration_beat": 0.11770833333333997,
      "velocity": 33,
      "track": 0
    },
    {
      "pitch": 69,
      "start_beat": 186.5,
      "duration_beat": 0.4729166666666629,
      "velocity": 33,
      "track": 0
    },
    {
      "pitch": 69,
      "start_beat": 186.5,
      "duration_beat": 0.4729166666666629,
      "velocity": 43,
      "track": 0
    },
    {
      "pitch": 73,
      "start_beat": 186.5,
      "duration_beat": 0.4729166666666629,
      "velocity": 43,
      "track": 0
    },
    {
      "pitch": 76,
      "start_beat": 186.5,
      "duration_beat": 0.4729166666666629,
      "velocity": 43,
      "track": 0
    },
    {
      "pitch": 69,
      "start_beat": 186.5,
      "duration_beat": 0.23645833333333144,
      "velocity": 33,
      "track": 0
    },
    {
      "pitch": 69,
      "start_beat": 186.5,
      "duration_beat": 0.125,
      "velocity": 13,
      "track": 0
    },
    {
      "pitch": 33,
      "start_beat": 186.5,
      "duration_beat": 0.4729166666666629,
      "velocity": 33,
      "track": 1
    },
    {
      "pitch": 33,
      "start_beat": 186.5,
      "duration_beat": 0.4729166666666629,
      "velocity": 43,
      "track": 1
    },
    {
      "pitch": 37,
      "start_beat": 186.5,
      "duration_beat": 0.4729166666666629,
      "velocity": 43,
      "track": 1
    },
    {
      "pitch": 40,
      "start_beat": 186.5,
      "duration_beat": 0.4729166666666629,
      "velocity": 43,
      "track": 1
    },
    {
      "pitch": 33,
      "start_beat": 186.5,
      "duration_beat": 0.23645833333333144,
      "velocity": 33,
      "track": 1
    },
    {
      "pitch": 33,
      "start_beat": 186.5,
      "duration_beat": 0.125,
      "velocity": 13,
      "track": 1
    },
    {
      "pitch": 45,
      "start_beat": 186.5,
      "duration_beat": 0.4729166666666629,
      "velocity": 33,
      "track": 1
    },
    {
      "pitch": 45,
      "start_beat": 186.5,
      "duration_beat": 0.4729166666666629,
      "velocity": 43,
      "track": 1
    },
    {
      "pitch": 49,
      "start_beat": 186.5,
      "duration_beat": 0.4729166666666629,
      "velocity": 43,
      "track": 1
    },
    {
      "pitch": 52,
      "start_beat": 186.5,
      "duration_beat": 0.4729166666666629,
      "velocity": 43,
      "track": 1
    },
    {
      "pitch": 45,
      "start_beat": 186.5,
      "duration_beat": 0.23645833333333144,
      "velocity": 33,
      "track": 1
    },
    {
      "pitch": 45,
      "start_beat": 186.5,
      "duration_beat": 0.125,
      "velocity": 13,
      "track": 1
    },
    {
      "pitch": 76,
      "start_beat": 186.625,
      "duration_beat": 0.23645833333333144,
      "velocity": 33,
      "track": 0
    },
    {
      "pitch": 40,
      "start_beat": 186.625,
      "duration_beat": 0.23645833333333144,
      "velocity": 33,
      "track": 1
    },
    {
      "pitch": 52,
      "start_beat": 186.625,
      "duration_beat": 0.23645833333333144,
      "velocity": 33,
      "track": 1
    },
    {
      "pitch": 81,
      "start_beat": 186.75,
      "duration_beat": 0.23645833333333144,
      "velocity": 33,
      "track": 0
    },
    {
      "pitch": 69,
      "start_beat": 186.75,
      "duration_beat": 0.125,
      "velocity": 13,
      "track": 0
    },
    {
      "pitch": 45,
      "start_beat": 186.75,
      "duration_beat": 0.23645833333333144,
      "velocity": 33,
      "track": 1
    },
    {
      "pitch": 33,
      "start_beat": 186.75,
      "duration_beat": 0.125,
      "velocity": 13,
      "track": 1
    },
    {
      "pitch": 57,
      "start_beat": 186.75,
      "duration_beat": 0.23645833333333144,
      "velocity": 33,
      "track": 1
    },
    {
      "pitch": 45,
      "start_beat": 186.75,
      "duration_beat": 0.125,
      "velocity": 13,
      "track": 1
    }
  ]
}