{
  "resolution": 480,
  "tempo_map": [
    {
      "beat": 0.0,
      "bpm": 162.000162000162
    }
  ],
  "notes": [
    {
      "pitch": 72,
      "start_beat": 0.0,
      "duration_beat": 0.4979166666666667,
      "velocity": 80,
      "track": 0
    },
    {
      "pitch": 72,
      "start_beat": 0.0,
      "duration_beat": 0.4979166666666667,
      "velocity": 100,
      "track": 2
    },
    {
      "pitch": 76,
      "start_beat": 0.0,
      "duration_beat": 0.4979166666666667,
      "velocity": 100,
      "track": 2
    },
    {
      "pitch": 79,
      "start_beat": 0.0,
      "duration_beat": 0.4979166666666667,
      "velocity": 100,
      "track": 2
    },
    {
      "pitch": 72,
      "start_beat": 0.0,
      "duration_beat": 0.125,
      "velocity": 127,
      "track": 3
    },
    {
      "pitch": 75,
      "start_beat": 0.125,
      "duration_beat": 0.125,
      "velocity": 127,
      "track": 3
    },
    {
      "pitch": 79,
      "start_beat": 0.25,
      "duration_beat": 0.125,
      "velocity": 127,
      "track": 3
    },
    {
      "pitch": 84,
      "start_beat": 0.375,
      "duration_beat": 0.125,
      "velocity": 127,
      "track": 3
    },
    {
      "pitch": 87,
      "start_beat": 0.5,
      "duration_beat": 0.125,
      "velocity": 127,
      "track": 3
    },
    {
      "pitch": 44,
      "start_beat": 0.0,
      "duration_beat": 0.4979166666666667,
      "velocity": 80,
      "track": 1
    },
    {
      "pitch": 44,
      "start_beat": 0.0,
      "duration_beat": 0.4979166666666667,
      "velocity": 100,
      "track": 2
    },
    {
      "pitch": 48,
      "start_beat": 0.0,
      "duration_beat": 0.4979166666666667,
      "velocity": 100,
      "track": 2
    },
    {
      "pitch": 51,
      "start_beat": 0.0,
      "duration_beat": 0.4979166666666667,
      "velocity": 100,
      "track": 2
    },
    {
      "pitch": 44,
      "start_beat": 0.0,
      "duration_beat": 0.125,
      "velocity": 127,
      "track": 3
    },
    {
      "pitch": 47,
      "start_beat": 0.125,
      "duration_beat": 0.125,
      "velocity": 127,
      "track": 3
    },
    {
      "pitch": 51,
      "start_beat": 0.25,
      "duration_beat": 0.125,
      "velocity": 127,
      "track": 3
    },
    {
      "pitch": 56,
      "start_beat": 0.375,
      "duration_beat": 0.125,
      "velocity": 127,
      "track": 3
    },
    {
      "pitch": 59,
      "start_beat": 0.5,
      "duration_beat": 0.125,
      "velocity": 127,
      "track": 3
    },
    {
      "pitch": 51,
      "start_beat": 0.0,
      "duration_beat": 0.4979166666666667,
      "velocity": 80,
      "track": 1
    },
    {
      "pitch": 51,
      "start_beat": 0.0,
      "duration_beat": 0.4979166666666667,
      "velocity": 100,
      "track": 2
    },
    {
      "pitch": 55,
      "start_beat": 0.0,
      "duration_beat": 0.4979166666666667,
      "velocity": 100,
      "track": 2
    },
    {
      "pitch": 58,
      "start_beat": 0.0,
      "duration_beat": 0.4979166666666667,
      "velocity": 100,
      "track": 2
    },
    {
      "pitch": 51,
      "start_beat": 0.0,
      "duration_beat": 0.125,
      "velocity": 127,
      "track": 3
    },
    {
      "pitch": 54,
      "start_beat": 0.125,
      "duration_beat": 0.125,
      "velocity": 127,
      "track": 3
    },
    {
      "pitch": 58,
      "start_beat": 0.25,
      "duration_beat": 0.125,
      "velocity": 127,
      "track": 3
    },
    {
      "pitch": 63,
      "start_beat": 0.375,
      "duration_beat": 0.125,
      "velocity": 127,
      "track": 3
    },
    {
      "pitch": 66,
      "start_beat": 0.5,
      "duration_beat": 0.125,
      "velocity": 127,
      "track": 3
    },
    {
      "pitch": 56,
      "start_beat": 0.0,
      "duration_beat": 0.4979166666666667,
      "velocity": 80,
      "track": 1
    },
    {
      "pitch": 56,
      "start_beat": 0.0,
      "duration_beat": 0.4979166666666667,
      "velocity": 100,
      "track": 2
    },
    {
      "pitch": 60,
      "start_beat": 0.0,
      "duration_beat": 0.4979166666666667,
      "velocity": 100,
      "track": 2
    },
    {
      "pitch": 63,
      "start_beat": 0.0,
      "duration_beat": 0.4979166666666667,
      "velocity": 100,
      "track": 2
    },
    {
      "pitch": 56,
      "start_beat": 0.0,
      "duration_beat": 0.125,
      "velocity": 127,
      "track": 3
    },
    {
      "pitch": 59,
      "start_beat": 0.125,
      "duration_beat": 0.125,
      "velocity": 127,
      "track": 3
    },
    {
      "pitch": 63,
      "start_beat": 0.25,
      "duration_beat": 0.125,
      "velocity": 127,
      "track": 3
    },
    {
      "pitch": 68,
      "start_beat": 0.375,
      "duration_beat": 0.125,
      "velocity": 127,
      "track": 3
    },
    {
      "pitch": 71,
      "start_beat": 0.5,
      "duration_beat": 0.125,
      "velocity": 127,
      "track": 3
    },
    {
      "pitch": 72,
      "start_beat": 0.5,
      "duration_beat": 0.4979166666666667,
      "velocity": 80,
      "track": 0
    },
    {
      "pitch": 72,
      "start_beat": 0.5,
      "duration_beat": 0.4979166666666667,
      "velocity": 100,
      "track": 2
    },
    {
      "pitch": 76,
      "start_beat": 0.5,
      "duration_beat": 0.4979166666666667,
      "velocity": 100,
      "track": 2
    },
    {
      "pitch": 79,
      "start_beat": 0.5,
      "duration_beat": 0.4979166666666667,
      "velocity": 100,
      "track": 2
    },
    {
      "pitch": 72,
      "start_beat": 0.5,
      "duration_beat": 0.125,
      "velocity": 127,
      "track": 3
    },
    {
      "pitch": 75,
      "start_beat": 0.625,
      "duration_beat": 0.125,
      "velocity": 127,
      "track": 3
    },
    {
      "pitch": 79,
      "start_beat": 0.75,
      "duration_beat": 0.125,
      "velocity": 127,
      "track": 3
    },
    {
      "pitch": 84,
      "start_beat": 0.875,
      "duration_beat": 0.125,
      "velocity": 127,
      "track": 3
    },
    {
      "pitch": 87,
      "start_beat": 1.0,
      "duration_beat": 0.125,
      "velocity": 127,
      "track": 3
    },
    {
      "pitch": 72,
      "start_beat": 1.0,
      "duration_beat": 0.49791666666666656,
      "velocity": 80,
      "track": 0
    },
    {
      "pitch": 72,
      "start_beat": 1.0,
      "duration_beat": 0.49791666666666656,
      "velocity": 100,
      "track": 2
    },
    {
      "pitch": 76,
      "start_beat": 1.0,
      "duration_beat": 0.49791666666666656,
      "velocity": 100,
      "track": 2
    },
    {
      "pitch": 79,
      "start_beat": 1.0,
      "duration_beat": 0.49791666666666656,
      "velocity": 100,
      "track": 2
    },
    {
      "pitch": 72,
      "start_beat": 1.0,
      "duration_beat": 0.125,
      "velocity": 127,
      "track": 3
    },
    {
      "pitch": 75,
      "start_beat": 1.125,
      "duration_beat": 0.125,
      "velocity": 127,
      "track": 3
    },
    {
      "pitch": 79,
      "start_beat": 1.25,
      "duration_beat": 0.125,
      "velocity": 127,
      "track": 3
    },
    {
      "pitch": 84,
      "start_beat": 1.375,
      "duration_beat": 0.125,
      "velocity": 127,
      "track": 3
    },
    {
      "pitch": 87,
      "start_beat": 1.5,
      "duration_beat": 0.125,
      "velocity": 127,
      "track": 3
    },
    {
      "pitch": 72,
      "start_beat": 1.5,
      "duration_beat": 0.49791666666666656,
      "velocity": 80,
      "track": 0
    },
    {
      "pitch": 72,
      "start_beat": 1.5,
      "duration_beat": 0.49791666666666656,
      "velocity": 100,
      "track": 2
    },
    {
      "pitch": 76,
      "start_beat": 1.5,
      "duration_beat": 0.49791666666666656,
      "velocity": 100,
      "track": 2
    },
    {
      "pitch": 79,
      "start_beat": 1.5,
      "duration_beat": 0.49791666666666656,
      "velocity": 100,
      "track": 2
    },
    {
      "pitch": 72,
      "start_beat": 1.5,
      "duration_beat": 0.125,
      "velocity": 127,
      "track": 3
    },
    {
      "pitch": 75,
      "start_beat": 1.625,
      "duration_beat": 0.125,
      "velocity": 127,
      "track": 3
    },
    {
      "pitch": 79,
      "start_beat": 1.75,
      "duration_beat": 0.125,
      "velocity": 127,
      "track": 3
    },
    {
      "pitch": 84,
      "start_beat": 1.875,
      "duration_beat": 0.125,
      "velocity": 127,
      "track": 3
    },
    {
      "pitch": 87,
      "start_beat": 2.0,
      "duration_beat": 0.125,
      "velocity": 127,
      "track": 3
    },
    {
      "pitch": 72,
      "start_beat": 2.0,
      "duration_beat": 0.9979166666666668,
      "velocity": 80,
      "track": 0
    },
    {
      "pitch": 72,
      "start_beat": 2.0,
      "duration_beat": 0.9979166666666668,
      "velocity": 100,
      "track": 2
    },
    {
      "pitch": 76,
      "start_beat": 2.0,
      "duration_beat": 0.9979166666666668,
      "velocity": 100,
      "track": 2
    },
    {
      "pitch": 79,
      "start_beat": 2.0,
      "duration_beat": 0.9979166666666668,
      "velocity": 100,
      "track": 2
    },
    {
      "pitch": 72,
      "start_beat": 2.0,
      "duration_beat": 0.125,
      "velocity": 127,
      "track": 3
    },
    {
      "pitch": 75,
      "start_beat": 2.125,
      "duration_beat": 0.125,
      "velocity": 127,
      "track": 3
    },
    {
      "pitch": 79,
      "start_beat": 2.25,
      "duration_beat": 0.125,
      "velocity": 127,
      "track": 3
    },
    {
      "pitch": 84,
      "start_beat": 2.375,
      "duration_beat": 0.125,
      "velocity": 127,
      "track": 3
    },
    {
      "pitch": 87,
      "start_beat": 2.5,
      "duration_beat": 0.125,
      "velocity": 127,
      "track": 3
    },
    {
      "pitch": 70,
      "start_beat": 3.0,
      "duration_beat": 0.9979166666666668,
      "velocity": 80,
      "track": 0
    },
    {
      "pitch": 70,
      "start_beat": 3.0,
      "duration_beat": 0.9979166666666668,
      "velocity": 100,
      "track": 2
    },
    {
      "pitch": 74,
      "start_beat": 3.0,
      "duration_beat": 0.9979166666666668,
      "velocity": 100,
      "track": 2
    },
    {
      "pitch": 77,
      "start_beat": 3.0,
      "duration_beat": 0.9979166666666668,
      "velocity": 100,
      "track": 2
    },
    {
      "pitch": 70,
      "start_beat": 3.0,
      "duration_beat": 0.125,
      "velocity": 127,
      "track": 3
    },
    {
      "pitch": 73,
      "start_beat": 3.125,
      "duration_beat": 0.125,
      "velocity": 127,
      "track": 3
    },
    {
      "pitch": 77,
      "start_beat": 3.25,
      "duration_beat": 0.125,
      "velocity": 127,
      "track": 3
    },
    {
      "pitch": 82,
      "start_beat": 3.375,
      "duration_beat": 0.125,
      "velocity": 127,
      "track": 3
    },
    {
      "pitch": 85,
      "start_beat": 3.5,
      "duration_beat": 0.125,
      "velocity": 127,
      "track": 3
    },
    {
      "pitch": 72,
      "start_beat": 4.0,
      "duration_beat": 0.9979166666666668,
      "velocity": 80,
      "track": 0
    },
    {
      "pitch": 72,
      "start_beat": 4.0,
      "duration_beat": 0.9979166666666668,
      "velocity": 100,
      "track": 2
    },
    {
      "pitch": 76,
      "start_beat": 4.0,
      "duration_beat": 0.9979166666666668,
      "velocity": 100,
      "track": 2
    },
    {
      "pitch": 79,
      "start_beat": 4.0,
      "duration_beat": 0.9979166666666668,
      "velocity": 100,
      "track": 2
    },
    {
      "pitch": 72,
      "start_beat": 4.0,
      "duration_beat": 0.125,
      "velocity": 127,
      "track": 3
    },
    {
      "pitch": 75,
      "start_beat": 4.125,
      "duration_beat": 0.125,
      "velocity": 127,
      "track": 3
    },
    {
      "pitch": 79,
      "start_beat": 4.25,
      "duration_beat": 0.125,
      "velocity": 127,
      "track": 3
    },
    {
      "pitch": 84,
      "start_beat": 4.375,
      "duration_beat": 0.125,
      "velocity": 127,
      "track": 3
    },
    {
      "pitch": 87,
      "start_beat": 4.5,
      "duration_beat": 0.125,
      "velocity": 127,
      "track": 3
    },
    {
      "pitch": 46,
      "start_beat": 4.0,
      "duration_beat": 0.9979166666666668,
      "velocity": 80,
      "track": 1
    },
    {
      "pitch": 46,
      "start_beat": 4.0,
      "duration_beat": 0.9979166666666668,
      "velocity": 100,
      "track": 2
    },
    {
      "pitch": 50,
      "start_beat": 4.0,
      "duration_beat": 0.9979166666666668,
      "velocity": 100,
      "track": 2
    },
    {
      "pitch": 53,
      "start_beat": 4.0,
      "duration_beat": 0.9979166666666668,
      "velocity": 100,
      "track": 2
    },
    {
      "pitch": 46,
      "start_beat": 4.0,
      "duration_beat": 0.125,
      "velocity": 127,
      "track": 3
    },
    {
      "pitch": 49,
      "start_beat": 4.125,
      "duration_beat": 0.125,
      "velocity": 127,
      "track": 3
    },
    {
      "pitch": 53,
      "start_beat": 4.25,
      "duration_beat": 0.125,
      "velocity": 127,
      "track": 3
    },
    {
      "pitch": 58,
      "start_beat": 4.375,
      "duration_beat": 0.125,
      "velocity": 127,
      "track": 3
    },
    {
      "pitch": 61,
      "start_beat": 4.5,
      "duration_beat": 0.125,
      "velocity": 127,
      "track": 3
    },
    {
      "pitch": 53,
      "start_beat": 4.0,
      "duration_beat": 0.9979166666666668,
      "velocity": 80,
      "track": 1
    },
    {
      "pitch": 53,
      "start_beat": 4.0,
      "duration_beat": 0.9979166666666668,
      "velocity": 100,
      "track": 2
    },
    {
      "pitch": 57,
      "start_beat": 4.0,
      "duration_beat": 0.9979166666666668,
      "velocity": 100,
      "track": 2
    },
    {
      "pitch": 60,
      "start_beat": 4.0,
      "duration_beat": 0.9979166666666668,
      "velocity": 100,
      "track": 2
    },
    {
      "pitch": 53,
      "start_beat": 4.0,
      "duration_beat": 0.125,
      "velocity": 127,
      "track": 3
    },
    {
      "pitch": 56,
      "start_beat": 4.125,
      "duration_beat": 0.125,
      "velocity": 127,
      "track": 3
    },
    {
      "pitch": 60,
      "start_beat": 4.25,
      "duration_beat": 0.125,
      "velocity": 127,
      "track": 3
    },
    {
      "pitch": 65,
      "start_beat": 4.375,
      "duration_beat": 0.125,
      "velocity": 127,
      "track": 3
    },
    {
      "pitch": 68,
      "start_beat": 4.5,
      "duration_beat": 0.125,
      "velocity": 127,
      "track": 3
    },
    {
      "pitch": 58,
      "start_beat": 4.0,
      "duration_beat": 0.9979166666666668,
      "velocity": 80,
      "track": 1
    },
    {
      "pitch": 58,
      "start_beat": 4.0,
      "duration_beat": 0.9979166666666668,
      "velocity": 100,
      "track": 2
    },
    {
      "pitch": 62,
      "start_beat": 4.0,
      "duration_beat": 0.9979166666666668,
      "velocity": 100,
      "track": 2
    },
    {
      "pitch": 65,
      "start_beat": 4.0,
      "duration_beat": 0.9979166666666668,
      "velocity": 100,
      "track": 2
    },
    {
      "pitch": 58,
      "start_beat": 4.0,
      "duration_beat": 0.125,
      "velocity": 127,
      "track": 3
    },
    {
      "pitch": 61,
      "start_beat": 4.125,
      "duration_beat": 0.125,
      "velocity": 127,
      "track": 3
    },
    {
      "pitch": 65,
      "start_beat": 4.25,
      "duration_beat": 0.125,
      "velocity": 127,
      "track": 3
    },
    {
      "pitch": 70,
      "start_beat": 4.375,
      "duration_beat": 0.125,
      "velocity": 127,
      "track": 3
    },
    {
      "pitch": 73,
      "start_beat": 4.5,
      "duration_beat": 0.125,
      "velocity": 127,
      "track": 3
    },
    {
      "pitch": 70,
      "start_beat": 5.0,
      "duration_beat": 0.4979166666666668,
      "velocity": 80,
      "track": 0
    },
    {
      "pitch": 70,
      "start_beat": 5.0,
      "duration_beat": 0.4979166666666668,
      "velocity": 100,
      "track": 2
    },
    {
      "pitch": 74,
      "start_beat": 5.0,
      "duration_beat": 0.4979166666666668,
      "velocity": 100,
      "track": 2
    },
    {
      "pitch": 77,
      "start_beat": 5.0,
      "duration_beat": 0.4979166666666668,
      "velocity": 100,
      "track": 2
    },
    {
      "pitch": 70,
      "start_beat": 5.0,
      "duration_beat": 0.125,
      "velocity": 127,
      "track": 3
    },
    {
      "pitch": 73,
      "start_beat": 5.125,
      "duration_beat": 0.125,
      "velocity": 127,
      "track": 3
    },
    {
      "pitch": 77,
      "start_beat": 5.25,
      "duration_beat": 0.125,
      "velocity": 127,
      "track": 3
    },
    {
      "pitch": 82,
      "start_beat": 5.375,
      "duration_beat": 0.125,
      "velocity": 127,
      "track": 3
    },
    {
      "pitch": 85,
      "start_beat": 5.5,
      "duration_beat": 0.125,
      "velocity": 127,
      "track": 3
    },
    {
      "pitch": 70,
      "start_beat": 5.5,
      "duration_beat": 0.9979166666666668,
      "velocity": 80,
      "track": 0
    },
    {
      "pitch": 70,
      "start_beat": 5.5,
      "duration_beat": 0.9979166666666668,
      "velocity": 100,
      "track": 2
    },
    {
      "pitch": 74,
      "start_beat": 5.5,
      "duration_beat": 0.9979166666666668,
      "velocity": 100,
      "track": 2
    },
    {
      "pitch": 77,
      "start_beat": 5.5,
      "duration_beat": 0.9979166666666668,
      "velocity": 100,
      "track": 2
    },
    {
      "pitch": 70,
      "start_beat": 5.5,
      "duration_beat": 0.125,
      "velocity": 127,
      "track": 3
    },
    {
      "pitch": 73,
      "start_beat": 5.625,
      "duration_beat": 0.125,
      "velocity": 127,
      "track": 3
    },
    {
      "pitch": 77,
      "start_beat": 5.75,
      "duration_beat": 0.125,
      "velocity": 127,
      "track": 3
    },
    {
      "pitch": 82,
      "start_beat": 5.875,
      "duration_beat": 0.125,
      "velocity": 127,
      "track": 3
    },
    {
      "pitch": 85,
      "start_beat": 6.0,
      "duration_beat": 0.125,
      "velocity": 127,
      "track": 3
    },
    {
      "pitch": 67,
      "start_beat": 6.5,
      "duration_beat": 0.4979166666666668,
      "velocity": 80,
      "track": 0
    },
    {
      "pitch": 67,
      "start_beat": 6.5,
      "duration_beat": 0.4979166666666668,
      "velocity": 100,
      "track": 2
    },
    {
      "pitch": 71,
      "start_beat": 6.5,
      "duration_beat": 0.4979166666666668,
      "velocity": 100,
      "track": 2
    },
    {
      "pitch": 74,
      "start_beat": 6.5,
      "duration_beat": 0.4979166666666668,
      "velocity": 100,
      "track": 2
    },
    {
      "pitch": 67,
      "start_beat": 6.5,
      "duration_beat": 0.125,
      "velocity": 127,
      "track": 3
    },
    {
      "pitch": 70,
      "start_beat": 6.625,
      "duration_beat": 0.125,
      "velocity": 127,
      "track": 3
    },
    {
      "pitch": 74,
      "start_beat": 6.75,
      "duration_beat": 0.125,
      "velocity": 127,
      "track": 3
    },
    {
      "pitch": 79,
      "start_beat": 6.875,
      "duration_beat": 0.125,
      "velocity": 127,
      "track": 3
    },
    {
      "pitch": 82,
      "start_beat": 7.0,
      "duration_beat": 0.125,
      "velocity": 127,
      "track": 3
    },
    {
      "pitch": 72,
      "start_beat": 7.0,
      "duration_beat": 0.9979166666666668,
      "velocity": 80,
      "track": 0
    },
    {
      "pitch": 72,
      "start_beat": 7.0,
      "duration_beat": 0.9979166666666668,
      "velocity": 100,
      "track": 2
    },
    {
      "pitch": 76,
      "start_beat": 7.0,
      "duration_beat": 0.9979166666666668,
      "velocity": 100,
      "track": 2
    },
    {
      "pitch": 79,
      "start_beat": 7.0,
      "duration_beat": 0.9979166666666668,
      "velocity": 100,
      "track": 2
    },
    {
      "pitch": 72,
      "start_beat": 7.0,
      "duration_beat": 0.125,
      "velocity": 127,
      "track": 3
    },
    {
      "pitch": 75,
      "start_beat": 7.125,
      "duration_beat": 0.125,
      "velocity": 127,
      "track": 3
    },
    {
      "pitch": 79,
      "start_beat": 7.25,
      "duration_beat": 0.125,
      "velocity": 127,
      "track": 3
    },
    {
      "pitch": 84,
      "start_beat": 7.375,
      "duration_beat": 0.125,
      "velocity": 127,
      "track": 3
    },
    {
      "pitch": 87,
      "start_beat": 7.5,
      "duration_beat": 0.125,
      "velocity": 127,
      "track": 3
    },
    {
      "pitch": 48,
      "start_beat": 8.0,
      "duration_beat": 0.4979166666666668,
      "velocity": 80,
      "track": 1
    },
    {
      "pitch": 48,
      "start_beat": 8.0,
      "duration_beat": 0.4979166666666668,
      "velocity": 100,
      "track": 2
    },
    {
      "pitch": 52,
      "start_beat": 8.0,
      "duration_beat": 0.4979166666666668,
      "velocity": 100,
      "track": 2
    },
    {
      "pitch": 55,
      "start_beat": 8.0,
      "duration_beat": 0.4979166666666668,
      "velocity": 100,
      "track": 2
    },
    {
      "pitch": 48,
      "start_beat": 8.0,
      "duration_beat": 0.125,
      "velocity": 127,
      "track": 3
    },
    {
      "pitch": 51,
      "start_beat": 8.125,
      "duration_beat": 0.125,
      "velocity": 127,
      "track": 3
    },
    {
      "pitch": 55,
      "start_beat": 8.25,
      "duration_beat": 0.125,
      "velocity": 127,
      "track": 3
    },
    {
      "pitch": 60,
      "start_beat": 8.375,
      "duration_beat": 0.125,
      "velocity": 127,
      "track": 3
    },
    {
      "pitch": 63,
      "start_beat": 8.5,
      "duration_beat": 0.125,
      "velocity": 127,
      "track": 3
    },
    {
      "pitch": 55,
      "start_beat": 8.0,
      "duration_beat": 0.4979166666666668,
      "velocity": 80,
      "track": 1
    },
    {
      "pitch": 55,
      "start_beat": 8.0,
      "duration_beat": 0.4979166666666668,
      "velocity": 100,
      "track": 2
    },
    {
      "pitch": 59,
      "start_beat": 8.0,
      "duration_beat": 0.4979166666666668,
      "velocity": 100,
      "track": 2
    },
    {
      "pitch": 62,
      "start_beat": 8.0,
      "duration_beat": 0.4979166666666668,
      "velocity": 100,
      "track": 2
    },
    {
      "pitch": 55,
      "start_beat": 8.0,
      "duration_beat": 0.125,
      "velocity": 127,
      "track": 3
    },
    {
      "pitch": 58,
      "start_beat": 8.125,
      "duration_beat": 0.125,
      "velocity": 127,
      "track": 3
    },
    {
      "pitch": 62,
      "start_beat": 8.25,
      "duration_beat": 0.125,
      "velocity": 127,
      "track": 3
    },
    {
      "pitch": 67,
      "start_beat": 8.375,
      "duration_beat": 0.125,
      "velocity": 127,
      "track": 3
    },
    {
      "pitch": 70,
      "start_beat": 8.5,
      "duration_beat": 0.125,
      "velocity": 127,
      "track": 3
    },
    {
      "pitch": 60,
      "start_beat": 8.0,
      "duration_beat": 0.4979166666666668,
      "velocity": 80,
      "track": 1
    },
    {
      "pitch": 60,
      "start_beat": 8.0,
      "duration_beat": 0.4979166666666668,
      "velocity": 100,
      "track": 2
    },
    {
      "pitch": 64,
      "start_beat": 8.0,
      "duration_beat": 0.4979166666666668,
      "velocity": 100,
      "track": 2
    },
    {
      "pitch": 67,
      "start_beat": 8.0,
      "duration_beat": 0.4979166666666668,
      "velocity": 100,
      "track": 2
    },
    {
      "pitch": 60,
      "start_beat": 8.0,
      "duration_beat": 0.125,
      "velocity": 127,
      "track": 3
    },
    {
      "pitch": 63,
      "start_beat": 8.125,
      "duration_beat": 0.125,
      "velocity": 127,
      "track": 3
    },
    {
      "pitch": 67,
      "start_beat": 8.25,
      "duration_beat": 0.125,
      "velocity": 127,
      "track": 3
    },
    {
      "pitch": 72,
      "start_beat": 8.375,
      "duration_beat": 0.125,
      "velocity": 127,
      "track": 3
    },
    {
      "pitch": 75,
      "start_beat": 8.5,
      "duration_beat": 0.125,
      "velocity": 127,
      "track": 3
    },
    {
      "pitch": 72,
      "start_beat": 8.5,
      "duration_beat": 0.4979166666666668,
      "velocity": 80,
      "track": 0
    },
    {
      "pitch": 72,
      "start_beat": 8.5,
      "duration_beat": 0.4979166666666668,
      "velocity": 100,
      "track": 2
    },
    {
      "pitch": 76,
      "start_beat": 8.5,
      "duration_beat": 0.4979166666666668,
      "velocity": 100,
      "track": 2
    },
    {
      "pitch": 79,
      "start_beat": 8.5,
      "duration_beat": 0.4979166666666668,
      "velocity": 100,
      "track": 2
    },
    {
      "pitch": 72,
      "start_beat": 8.5,
      "duration_beat": 0.125,
      "velocity": 127,
      "track": 3
    },
    {
      "pitch": 75,
      "start_beat": 8.625,
      "duration_beat": 0.125,
      "velocity": 127,
      "track": 3
    },
    {
      "pitch": 79,
      "start_beat": 8.75,
      "duration_beat": 0.125,
      "velocity": 127,
      "track": 3
    },
    {
      "pitch": 84,
      "start_beat": 8.875,
      "duration_beat": 0.125,
      "velocity": 127,
      "track": 3
    },
    {
      "pitch": 87,
      "start_beat": 9.0,
      "duration_beat": 0.125,
      "velocity": 127,
      "track": 3
    },
    {
      "pitch": 77,
      "start_beat": 9.0,
      "duration_beat": 0.4979166666666668,
      "velocity": 80,
      "track": 0
    },
    {
      "pitch": 77,
      "start_beat": 9.0,
      "duration_beat": 0.4979166666666668,
      "velocity": 100,
      "track": 2
    },
    {
      "pitch": 81,
      "start_beat": 9.0,
      "duration_beat": 0.4979166666666668,
      "velocity": 100,
      "track": 2
    },
    {
      "pitch": 84,
      "start_beat": 9.0,
      "duration_beat": 0.4979166666666668,
      "velocity": 100,
      "track": 2
    },
    {
      "pitch": 77,
      "start_beat": 9.0,
      "duration_beat": 0.125,
      "velocity": 127,
      "track": 3
    },
    {
      "pitch": 80,
      "start_beat": 9.125,
      "duration_beat": 0.125,
      "velocity": 127,
      "track": 3
    },
    {
      "pitch": 84,
      "start_beat": 9.25,
      "duration_beat": 0.125,
      "velocity": 127,
      "track": 3
    },
    {
      "pitch": 89,
      "start_beat": 9.375,
      "duration_beat": 0.125,
      "velocity": 127,
      "track": 3
    },
    {
      "pitch": 92,
      "start_beat": 9.5,
      "duration_beat": 0.125,
      "velocity": 127,
      "track": 3
    },
    {
      "pitch": 79,
      "start_beat": 9.5,
      "duration_beat": 0.9979166666666668,
      "velocity": 80,
      "track": 0
    },
    {
      "pitch": 79,
      "start_beat": 9.5,
      "duration_beat": 0.9979166666666668,
      "velocity": 100,
      "track": 2
    },
    {
      "pitch": 83,
      "start_beat": 9.5,
      "duration_beat": 0.9979166666666668,
      "velocity": 100,
      "track": 2
    },
    {
      "pitch": 86,
      "start_beat": 9.5,
      "duration_beat": 0.9979166666666668,
      "velocity": 100,
      "track": 2
    },
    {
      "pitch": 79,
      "start_beat": 9.5,
      "duration_beat": 0.125,
      "velocity": 127,
      "track": 3
    },
    {
      "pitch": 82,
      "start_beat": 9.625,
      "duration_beat": 0.125,
      "velocity": 127,
      "track": 3
    },
    {
      "pitch": 86,
      "start_beat": 9.75,
      "duration_beat": 0.125,
      "velocity": 127,
      "track": 3
    },
    {
      "pitch": 91,
      "start_beat": 9.875,
      "duration_beat": 0.125,
      "velocity": 127,
      "track": 3
    },
    {
      "pitch": 94,
      "start_beat": 10.0,
      "duration_beat": 0.125,
      "velocity": 127,
      "track": 3
    },
    {
      "pitch": 82,
      "start_beat": 10.5,
      "duration_beat": 0.4979166666666668,
      "velocity": 80,
      "track": 0
    },
    {
      "pitch": 82,
      "start_beat": 10.5,
      "duration_beat": 0.4979166666666668,
      "velocity": 100,
      "track": 2
    },
    {
      "pitch": 86,
      "start_beat": 10.5,
      "duration_beat": 0.4979166666666668,
      "velocity": 100,
      "track": 2
    },
    {
      "pitch": 89,
      "start_beat": 10.5,
      "duration_beat": 0.4979166666666668,
      "velocity": 100,
      "track": 2
    },
    {
      "pitch": 82,
      "start_beat": 10.5,
      "duration_beat": 0.125,
      "velocity": 127,
      "track": 3
    },
    {
      "pitch": 85,
      "start_beat": 10.625,
      "duration_beat": 0.125,
      "velocity": 127,
      "track": 3
    },
    {
      "pitch": 89,
      "start_beat": 10.75,
      "duration_beat": 0.125,
      "velocity": 127,
      "track": 3
    },
    {
      "pitch": 94,
      "start_beat": 10.875,
      "duration_beat": 0.125,
      "velocity": 127,
      "track": 3
    },
    {
      "pitch": 97,
      "start_beat": 11.0,
      "duration_beat": 0.125,
      "velocity": 127,
      "track": 3
    },
    {
      "pitch": 89,
      "start_beat": 11.0,
      "duration_beat": 0.4979166666666668,
      "velocity": 80,
      "track": 0
    },
    {
      "pitch": 89,
      "start_beat": 11.0,
      "duration_beat": 0.4979166666666668,
      "velocity": 100,
      "track": 2
    },
    {
      "pitch": 93,
      "start_beat": 11.0,
      "duration_beat": 0.4979166666666668,
      "velocity": 100,
      "track": 2
    },
    {
      "pitch": 96,
      "start_beat": 11.0,
      "duration_beat": 0.4979166666666668,
      "velocity": 100,
      "track": 2
    },
    {
      "pitch": 89,
      "start_beat": 11.0,
      "duration_beat": 0.125,
      "velocity": 127,
      "track": 3
    },
    {
      "pitch": 92,
      "start_beat": 11.125,
      "duration_beat": 0.125,
      "velocity": 127,
      "track": 3
    },
    {
      "pitch": 96,
      "start_beat": 11.25,
      "duration_beat": 0.125,
      "velocity": 127,
      "track": 3
    },
    {
      "pitch": 101,
      "start_beat": 11.375,
      "duration_beat": 0.125,
      "velocity": 127,
      "track": 3
    },
    {
      "pitch": 104,
      "start_beat": 11.5,
      "duration_beat": 0.125,
      "velocity": 127,
      "track": 3
    },
    {
      "pitch": 91,
      "start_beat": 11.5,
      "duration_beat": 0.4979166666666668,
      "velocity": 80,
      "track": 0
    },
    {
      "pitch": 91,
      "start_beat": 11.5,
      "duration_beat": 0.4979166666666668,
      "velocity": 100,
      "track": 2
    },
    {
      "pitch": 95,
      "start_beat": 11.5,
      "duration_beat": 0.4979166666666668,
      "velocity": 100,
      "track": 2
    },
    {
      "pitch": 98,
      "start_beat": 11.5,
      "duration_beat": 0.4979166666666668,
      "velocity": 100,
      "track": 2
    },
    {
      "pitch": 91,
      "start_beat": 11.5,
      "duration_beat": 0.125,
      "velocity": 127,
      "track": 3
    },
    {
      "pitch": 94,
      "start_beat": 11.625,
      "duration_beat": 0.125,
      "velocity": 127,
      "track": 3
    },
    {
      "pitch": 98,
      "start_beat": 11.75,
      "duration_beat": 0.125,
      "velocity": 127,
      "track": 3
    },
    {
      "pitch": 103,
      "start_beat": 11.875,
      "duration_beat": 0.125,
      "velocity": 127,
      "track": 3
    },
    {
      "pitch": 106,
      "start_beat": 12.0,
      "duration_beat": 0.125,
      "velocity": 127,
      "track": 3
    },
    {
      "pitch": 88,
      "start_beat": 12.0,
      "duration_beat": 1.9979166666666668,
      "velocity": 80,
      "track": 0
    },
    {
      "pitch": 88,
      "start_beat": 12.0,
      "duration_beat": 1.9979166666666668,
      "velocity": 100,
      "track": 2
    },
    {
      "pitch": 92,
      "start_beat": 12.0,
      "duration_beat": 1.9979166666666668,
      "velocity": 100,
      "track": 2
    },
    {
      "pitch": 95,
      "start_beat": 12.0,
      "duration_beat": 1.9979166666666668,
      "velocity": 100,
      "track": 2
    },
    {
      "pitch": 88,
      "start_beat": 12.0,
      "duration_beat": 0.125,
      "velocity": 127,
      "track": 3
    },
    {
      "pitch": 91,
      "start_beat": 12.125,
      "duration_beat": 0.125,
      "velocity": 127,
      "track": 3
    },
    {
      "pitch": 95,
      "start_beat": 12.25,
      "duration_beat": 0.125,
      "velocity": 127,
      "track": 3
    },
    {
      "pitch": 100,
      "start_beat": 12.375,
      "duration_beat": 0.125,
      "velocity": 127,
      "track": 3
    },
    {
      "pitch": 103,
      "start_beat": 12.5,
      "duration_beat": 0.125,
      "velocity": 127,
      "track": 3
    },
    {
      "pitch": 80,
      "start_beat": 14.0,
      "duration_beat": 1.9979166666666668,
      "velocity": 80,
      "track": 0
    },
    {
      "pitch": 80,
      "start_beat": 14.0,
      "duration_beat": 1.9979166666666668,
      "velocity": 100,
      "track": 2
    },
    {
      "pitch": 84,
      "start_beat": 14.0,
      "duration_beat": 1.9979166666666668,
      "velocity": 100,
      "track": 2
    },
    {
      "pitch": 87,
      "start_beat": 14.0,
      "duration_beat": 1.9979166666666668,
      "velocity": 100,
      "track": 2
    },
    {
      "pitch": 80,
      "start_beat": 14.0,
      "duration_beat": 0.125,
      "velocity": 127,
      "track": 3
    },
    {
      "pitch": 83,
      "start_beat": 14.125,
      "duration_beat": 0.125,
      "velocity": 127,
      "track": 3
    },
    {
      "pitch": 87,
      "start_beat": 14.25,
      "duration_beat": 0.125,
      "velocity": 127,
      "track": 3
    },
    {
      "pitch": 92,
      "start_beat": 14.375,
      "duration_beat": 0.125,
      "velocity": 127,
      "track": 3
    },
    {
      "pitch": 95,
      "start_beat": 14.5,
      "duration_beat": 0.125,
      "velocity": 127,
      "track": 3
    },
    {
      "pitch": 92,
      "start_beat": 14.0,
      "duration_beat": 1.9979166666666668,
      "velocity": 80,
      "track": 0
    },
    {
      "pitch": 92,
      "start_beat": 14.0,
      "duration_beat": 1.9979166666666668,
      "velocity": 100,
      "track": 2
    },
    {
      "pitch": 96,
      "start_beat": 14.0,
      "duration_beat": 1.9979166666666668,
      "velocity": 100,
      "track": 2
    },
    {
      "pitch": 99,
      "start_beat": 14.0,
      "duration_beat": 1.9979166666666668,
      "velocity": 100,
      "track": 2
    },
    {
      "pitch": 92,
      "start_beat": 14.0,
      "duration_beat": 0.125,
      "velocity": 127,
      "track": 3
    },
    {
      "pitch": 95,
      "start_beat": 14.125,
      "duration_beat": 0.125,
      "velocity": 127,
      "track": 3
    },
    {
      "pitch": 99,
      "start_beat": 14.25,
      "duration_beat": 0.125,
      "velocity": 127,
      "track": 3
    },
    {
      "pitch": 104,
      "start_beat": 14.375,
      "duration_beat": 0.125,
      "velocity": 127,
      "track": 3
    },
    {
      "pitch": 107,
      "start_beat": 14.5,
      "duration_beat": 0.125,
      "velocity": 127,
      "track": 3
    },
    {
      "pitch": 79,
      "start_beat": 16.0,
      "duration_beat": 0.497916666666665,
      "velocity": 80,
      "track": 0
    },
    {
      "pitch": 79,
      "start_beat": 16.0,
      "duration_beat": 0.497916666666665,
      "velocity": 100,
      "track": 2
    },
    {
      "pitch": 83,
      "start_beat": 16.0,
      "duration_beat": 0.497916666666665,
      "velocity": 100,
      "track": 2
    },
    {
      "pitch": 86,
      "start_beat": 16.0,
      "duration_beat": 0.497916666666665,
      "velocity": 100,
      "track": 2
    },
    {
      "pitch": 79,
      "start_beat": 16.0,
      "duration_beat": 0.125,
      "velocity": 127,
      "track": 3
    },
    {
      "pitch": 82,
      "start_beat": 16.125,
      "duration_beat": 0.125,
      "velocity": 127,
      "track": 3
    },
    {
      "pitch": 86,
      "start_beat": 16.25,
      "duration_beat": 0.125,
      "velocity": 127,
      "track": 3
    },
    {
      "pitch": 91,
      "start_beat": 16.375,
      "duration_beat": 0.125,
      "velocity": 127,
      "track": 3
    },
    {
      "pitch": 94,
      "start_beat": 16.5,
      "duration_beat": 0.125,
      "velocity": 127,
      "track": 3
    },
    {
      "pitch": 91,
      "start_beat": 16.0,
      "duration_beat": 0.497916666666665,
      "velocity": 80,
      "track": 0
    },
    {
      "pitch": 91,
      "start_beat": 16.0,
      "duration_beat": 0.497916666666665,
      "velocity": 100,
      "track": 2
    },
    {
      "pitch": 95,
      "start_beat": 16.0,
      "duration_beat": 0.497916666666665,
      "velocity": 100,
      "track": 2
    },
    {
      "pitch": 98,
      "start_beat": 16.0,
      "duration_beat": 0.497916666666665,
      "velocity": 100,
      "track": 2
    },
    {
      "pitch": 91,
      "start_beat": 16.0,
      "duration_beat": 0.125,
      "velocity": 127,
      "track": 3
    },
    {
      "pitch": 94,
      "start_beat": 16.125,
      "duration_beat": 0.125,
      "velocity": 127,
      "track": 3
    },
    {
      "pitch": 98,
      "start_beat": 16.25,
      "duration_beat": 0.125,
      "velocity": 127,
      "track": 3
    },
    {
      "pitch": 103,
      "start_beat": 16.375,
      "duration_beat": 0.125,
      "velocity": 127,
      "track": 3
    },
    {
      "pitch": 106,
      "start_beat": 16.5,
      "duration_beat": 0.125,
      "velocity": 127,
      "track": 3
    },
    {
      "pitch": 37,
      "start_beat": 16.0,
      "duration_beat": 0.497916666666665,
      "velocity": 80,
      "track": 1
    },
    {
      "pitch": 37,
      "start_beat": 16.0,
      "duration_beat": 0.497916666666665,
      "velocity": 100,
      "track": 2
    },
    {
      "pitch": 41,
      "start_beat": 16.0,
      "duration_beat": 0.497916666666665,
      "velocity": 100,
      "track": 2
    },
    {
      "pitch": 44,
      "start_beat": 16.0,
      "duration_beat": 0.497916666666665,
      "velocity": 100,
      "track": 2
    },
    {
      "pitch": 37,
      "start_beat": 16.0,
      "duration_beat": 0.125,
      "velocity": 127,
      "track": 3
    },
    {
      "pitch": 40,
      "start_beat": 16.125,
      "duration_beat": 0.125,
      "velocity": 127,
      "track": 3
    },
    {
      "pitch": 44,
      "start_beat": 16.25,
      "duration_beat": 0.125,
      "velocity": 127,
      "track": 3
    },
    {
      "pitch": 49,
      "start_beat": 16.375,
      "duration_beat": 0.125,
      "velocity": 127,
      "track": 3
    },
    {
      "pitch": 52,
      "start_beat": 16.5,
      "duration_beat": 0.125,
      "velocity": 127,
      "track": 3
    },
    {
      "pitch": 49,
      "start_beat": 16.0,
      "duration_beat": 0.497916666666665,
      "velocity": 80,
      "track": 1
    },
    {
      "pitch": 49,
      "start_beat": 16.0,
      "duration_beat": 0.497916666666665,
      "velocity": 100,
      "track": 2
    },
    {
      "pitch": 53,
      "start_beat": 16.0,
      "duration_beat": 0.497916666666665,
      "velocity": 100,
      "track": 2
    },
    {
      "pitch": 56,
      "start_beat": 16.0,
      "duration_beat": 0.497916666666665,
      "velocity": 100,
      "track": 2
    },
    {
      "pitch": 49,
      "start_beat": 16.0,
      "duration_beat": 0.125,
      "velocity": 127,
      "track": 3
    },
    {
      "pitch": 52,
      "start_beat": 16.125,
      "duration_beat": 0.125,
      "velocity": 127,
      "track": 3
    },
    {
      "pitch": 56,
      "start_beat": 16.25,
      "duration_beat": 0.125,
      "velocity": 127,
      "track": 3
    },
    {
      "pitch": 61,
      "start_beat": 16.375,
      "duration_beat": 0.125,
      "velocity": 127,
      "track": 3
    },
    {
      "pitch": 64,
      "start_beat": 16.5,
      "duration_beat": 0.125,
      "velocity": 127,
      "track": 3
    },
    {
      "pitch": 56,
      "start_beat": 16.5,
      "duration_beat": 0.497916666666665,
      "velocity": 80,
      "track": 1
    },
    {
      "pitch": 56,
      "start_beat": 16.5,
      "duration_beat": 0.497916666666665,
      "velocity": 100,
      "track": 2
    },
    {
      "pitch": 60,
      "start_beat": 16.5,
      "duration_beat": 0.497916666666665,
      "velocity": 100,
      "track": 2
    },
    {
      "pitch": 63,
      "start_beat": 16.5,
      "duration_beat": 0.497916666666665,
      "velocity": 100,
      "track": 2
    },
    {
      "pitch": 56,
      "start_beat": 16.5,
      "duration_beat": 0.125,
      "velocity": 127,
      "track": 3
    },
    {
      "pitch": 59,
      "start_beat": 16.625,
      "duration_beat": 0.125,
      "velocity": 127,
      "track": 3
    },
    {
      "pitch": 63,
      "start_beat": 16.75,
      "duration_beat": 0.125,
      "velocity": 127,
      "track": 3
    },
    {
      "pitch": 68,
      "start_beat": 16.875,
      "duration_beat": 0.125,
      "velocity": 127,
      "track": 3
    },
    {
      "pitch": 71,
      "start_beat": 17.0,
      "duration_beat": 0.125,
      "velocity": 127,
      "track": 3
    },
    {
      "pitch": 61,
      "start_beat": 17.0,
      "duration_beat": 0.497916666666665,
      "velocity": 80,
      "track": 0
    },
    {
      "pitch": 61,
      "start_beat": 17.0,
      "duration_beat": 0.497916666666665,
      "velocity": 100,
      "track": 2
    },
    {
      "pitch": 65,
      "start_beat": 17.0,
      "duration_beat": 0.497916666666665,
      "velocity": 100,
      "track": 2
    },
    {
      "pitch": 68,
      "start_beat": 17.0,
      "duration_beat": 0.497916666666665,
      "velocity": 100,
      "track": 2
    },
    {
      "pitch": 61,
      "start_beat": 17.0,
      "duration_beat": 0.125,
      "velocity": 127,
      "track": 3
    },
    {
      "pitch": 64,
      "start_beat": 17.125,
      "duration_beat": 0.125,
      "velocity": 127,
      "track": 3
    },
    {
      "pitch": 68,
      "start_beat": 17.25,
      "duration_beat": 0.125,
      "velocity": 127,
      "track": 3
    },
    {
      "pitch": 73,
      "start_beat": 17.375,
      "duration_beat": 0.125,
      "velocity": 127,
      "track": 3
    },
    {
      "pitch": 76,
      "start_beat": 17.5,
      "duration_beat": 0.125,
      "velocity": 127,
      "track": 3
    },
    {
      "pitch": 75,
      "start_beat": 17.0,
      "duration_beat": 0.497916666666665,
      "velocity": 80,
      "track": 0
    },
    {
      "pitch": 75,
      "start_beat": 17.0,
      "duration_beat": 0.497916666666665,
      "velocity": 100,
      "track": 2
    },
    {
      "pitch": 79,
      "start_beat": 17.0,
      "duration_beat": 0.497916666666665,
      "velocity": 100,
      "track": 2
    },
    {
      "pitch": 82,
      "start_beat": 17.0,
      "duration_beat": 0.497916666666665,
      "velocity": 100,
      "track": 2
    },
    {
      "pitch": 75,
      "start_beat": 17.0,
      "duration_beat": 0.125,
      "velocity": 127,
      "track": 3
    },
    {
      "pitch": 78,
      "start_beat": 17.125,
      "duration_beat": 0.125,
      "velocity": 127,
      "track": 3
    },
    {
      "pitch": 82,
      "start_beat": 17.25,
      "duration_beat": 0.125,
      "velocity": 127,
      "track": 3
    },
    {
      "pitch": 87,
      "start_beat": 17.375,
      "duration_beat": 0.125,
      "velocity": 127,
      "track": 3
    },
    {
      "pitch": 90,
      "start_beat": 17.5,
      "duration_beat": 0.125,
      "velocity": 127,
      "track": 3
    },
    {
      "pitch": 87,
      "start_beat": 17.0,
      "duration_beat": 0.497916666666665,
      "velocity": 80,
      "track": 0
    },
    {
      "pitch": 87,
      "start_beat": 17.0,
      "duration_beat": 0.497916666666665,
      "velocity": 100,
      "track": 2
    },
    {
      "pitch": 91,
      "start_beat": 17.0,
      "duration_beat": 0.497916666666665,
      "velocity": 100,
      "track": 2
    },
    {
      "pitch": 94,
      "start_beat": 17.0,
      "duration_beat": 0.497916666666665,
      "velocity": 100,
      "track": 2
    },
    {
      "pitch": 87,
      "start_beat": 17.0,
      "duration_beat": 0.125,
      "velocity": 127,
      "track": 3
    },
    {
      "pitch": 90,
      "start_beat": 17.125,
      "duration_beat": 0.125,
      "velocity": 127,
      "track": 3
    },
    {
      "pitch": 94,
      "start_beat": 17.25,
      "duration_beat": 0.125,
      "velocity": 127,
      "track": 3
    },
    {
      "pitch": 99,
      "start_beat": 17.375,
      "duration_beat": 0.125,
      "velocity": 127,
      "track": 3
    },
    {
      "pitch": 102,
      "start_beat": 17.5,
      "duration_beat": 0.125,
      "velocity": 127,
      "track": 3
    },
    {
      "pitch": 65,
      "start_beat": 17.5,
      "duration_beat": 0.497916666666665,
      "velocity": 80,
      "track": 0
    },
    {
      "pitch": 65,
      "start_beat": 17.5,
      "duration_beat": 0.497916666666665,
      "velocity": 100,
      "track": 2
    },
    {
      "pitch": 69,
      "start_beat": 17.5,
      "duration_beat": 0.497916666666665,
      "velocity": 100,
      "track": 2
    },
    {
      "pitch": 72,
      "start_beat": 17.5,
      "duration_beat": 0.497916666666665,
      "velocity": 100,
      "track": 2
    },
    {
      "pitch": 65,
      "start_beat": 17.5,
      "duration_beat": 0.125,
      "velocity": 127,
      "track": 3
    },
    {
      "pitch": 68,
      "start_beat": 17.625,
      "duration_beat": 0.125,
      "velocity": 127,
      "track": 3
    },
    {
      "pitch": 72,
      "start_beat": 17.75,
      "duration_beat": 0.125,
      "velocity": 127,
      "track": 3
    },
    {
      "pitch": 77,
      "start_beat": 17.875,
      "duration_beat": 0.125,
      "velocity": 127,
      "track": 3
    },
    {
      "pitch": 80,
      "start_beat": 18.0,
      "duration_beat": 0.125,
      "velocity": 127,
      "track": 3
    },
    {
      "pitch": 68,
      "start_beat": 18.0,
      "duration_beat": 0.997916666666665,
      "velocity": 80,
      "track": 0
    },
    {
      "pitch": 68,
      "start_beat": 18.0,
      "duration_beat": 0.997916666666665,
      "velocity": 100,
      "track": 2
    },
    {
      "pitch": 72,
      "start_beat": 18.0,
      "duration_beat": 0.997916666666665,
      "velocity": 100,
      "track": 2
    },
    {
      "pitch": 75,
      "start_beat": 18.0,
      "duration_beat": 0.997916666666665,
      "velocity": 100,
      "track": 2
    },
    {
      "pitch": 68,
      "start_beat": 18.0,
      "duration_beat": 0.125,
      "velocity": 127,
      "track": 3
    },
    {
      "pitch": 71,
      "start_beat": 18.125,
      "duration_beat": 0.125,
      "velocity": 127,
      "track": 3
    },
    {
      "pitch": 75,
      "start_beat": 18.25,
      "duration_beat": 0.125,
      "velocity": 127,
      "track": 3
    },
    {
      "pitch": 80,
      "start_beat": 18.375,
      "duration_beat": 0.125,
      "velocity": 127,
      "track": 3
    },
    {
      "pitch": 83,
      "start_beat": 18.5,
      "duration_beat": 0.125,
      "velocity": 127,
      "track": 3
    },
    {
      "pitch": 77,
      "start_beat": 18.0,
      "duration_beat": 0.997916666666665,
      "velocity": 80,
      "track": 0
    },
    {
      "pitch": 77,
      "start_beat": 18.0,
      "duration_beat": 0.997916666666665,
      "velocity": 100,
      "track": 2
    },
    {
      "pitch": 81,
      "start_beat": 18.0,
      "duration_beat": 0.997916666666665,
      "velocity": 100,
      "track": 2
    },
    {
      "pitch": 84,
      "start_beat": 18.0,
      "duration_beat": 0.997916666666665,
      "velocity": 100,
      "track": 2
    },
    {
      "pitch": 77,
      "start_beat": 18.0,
      "duration_beat": 0.125,
      "velocity": 127,
      "track": 3
    },
    {
      "pitch": 80,
      "start_beat": 18.125,
      "duration_beat": 0.125,
      "velocity": 127,
      "track": 3
    },
    {
      "pitch": 84,
      "start_beat": 18.25,
      "duration_beat": 0.125,
      "velocity": 127,
      "track": 3
    },
    {
      "pitch": 89,
      "start_beat": 18.375,
      "duration_beat": 0.125,
      "velocity": 127,
      "track": 3
    },
    {
      "pitch": 92,
      "start_beat": 18.5,
      "duration_beat": 0.125,
      "velocity": 127,
      "track": 3
    },
    {
      "pitch": 89,
      "start_beat": 18.0,
      "duration_beat": 0.997916666666665,
      "velocity": 80,
      "track": 0
    },
    {
      "pitch": 89,
      "start_beat": 18.0,
      "duration_beat": 0.997916666666665,
      "velocity": 100,
      "track": 2
    },
    {
      "pitch": 93,
      "start_beat": 18.0,
      "duration_beat": 0.997916666666665,
      "velocity": 100,
      "track": 2
    },
    {
      "pitch": 96,
      "start_beat": 18.0,
      "duration_beat": 0.997916666666665,
      "velocity": 100,
      "track": 2
    },
    {
      "pitch": 89,
      "start_beat": 18.0,
      "duration_beat": 0.125,
      "velocity": 127,
      "track": 3
    },
    {
      "pitch": 92,
      "start_beat": 18.125,
      "duration_beat": 0.125,
      "velocity": 127,
      "track": 3
    },
    {
      "pitch": 96,
      "start_beat": 18.25,
      "duration_beat": 0.125,
      "velocity": 127,
      "track": 3
    },
    {
      "pitch": 101,
      "start_beat": 18.375,
      "duration_beat": 0.125,
      "velocity": 127,
      "track": 3
    },
    {
      "pitch": 104,
      "start_beat": 18.5,
      "duration_beat": 0.125,
      "velocity": 127,
      "track": 3
    },
    {
      "pitch": 65,
      "start_beat": 19.0,
      "duration_beat": 0.497916666666665,
      "velocity": 80,
      "track": 0
    },
    {
      "pitch": 65,
      "start_beat": 19.0,
      "duration_beat": 0.497916666666665,
      "velocity": 100,
      "track": 2
    },
    {
      "pitch": 69,
      "start_beat": 19.0,
      "duration_beat": 0.497916666666665,
      "velocity": 100,
      "track": 2
    },
    {
      "pitch": 72,
      "start_beat": 19.0,
      "duration_beat": 0.497916666666665,
      "velocity": 100,
      "track": 2
    },
    {
      "pitch": 65,
      "start_beat": 19.0,
      "duration_beat": 0.125,
      "velocity": 127,
      "track": 3
    },
    {
      "pitch": 68,
      "start_beat": 19.125,
      "duration_beat": 0.125,
      "velocity": 127,
      "track": 3
    },
    {
      "pitch": 72,
      "start_beat": 19.25,
      "duration_beat": 0.125,
      "velocity": 127,
      "track": 3
    },
    {
      "pitch": 77,
      "start_beat": 19.375,
      "duration_beat": 0.125,
      "velocity": 127,
      "track": 3
    },
    {
      "pitch": 80,
      "start_beat": 19.5,
      "duration_beat": 0.125,
      "velocity": 127,
      "track": 3
    },
    {
      "pitch": 72,
      "start_beat": 19.0,
      "duration_beat": 0.497916666666665,
      "velocity": 80,
      "track": 0
    },
    {
      "pitch": 72,
      "start_beat": 19.0,
      "duration_beat": 0.497916666666665,
      "velocity": 100,
      "track": 2
    },
    {
      "pitch": 76,
      "start_beat": 19.0,
      "duration_beat": 0.497916666666665,
      "velocity": 100,
      "track": 2
    },
    {
      "pitch": 79,
      "start_beat": 19.0,
      "duration_beat": 0.497916666666665,
      "velocity": 100,
      "track": 2
    },
    {
      "pitch": 72,
      "start_beat": 19.0,
      "duration_beat": 0.125,
      "velocity": 127,
      "track": 3
    },
    {
      "pitch": 75,
      "start_beat": 19.125,
      "duration_beat": 0.125,
      "velocity": 127,
      "track": 3
    },
    {
      "pitch": 79,
      "start_beat": 19.25,
      "duration_beat": 0.125,
      "velocity": 127,
      "track": 3
    },
    {
      "pitch": 84,
      "start_beat": 19.375,
      "duration_beat": 0.125,
      "velocity": 127,
      "track": 3
    },
    {
      "pitch": 87,
      "start_beat": 19.5,
      "duration_beat": 0.125,
      "velocity": 127,
      "track": 3
    },
    {
      "pitch": 84,
      "start_beat": 19.0,
      "duration_beat": 0.497916666666665,
      "velocity": 80,
      "track": 0
    },
    {
      "pitch": 84,
      "start_beat": 19.0,
      "duration_beat": 0.497916666666665,
      "velocity": 100,
      "track": 2
    },
    {
      "pitch": 88,
      "start_beat": 19.0,
      "duration_beat": 0.497916666666665,
      "velocity": 100,
      "track": 2
    },
    {
      "pitch": 91,
      "start_beat": 19.0,
      "duration_beat": 0.497916666666665,
      "velocity": 100,
      "track": 2
    },
    {
      "pitch": 84,
      "start_beat": 19.0,
      "duration_beat": 0.125,
      "velocity": 127,
      "track": 3
    },
    {
      "pitch": 87,
      "start_beat": 19.125,
      "duration_beat": 0.125,
      "velocity": 127,
      "track": 3
    },
    {
      "pitch": 91,
      "start_beat": 19.25,
      "duration_beat": 0.125,
      "velocity": 127,
      "track": 3
    },
    {
      "pitch": 96,
      "start_beat": 19.375,
      "duration_beat": 0.125,
      "velocity": 127,
      "track": 3
    },
    {
      "pitch": 99,
      "start_beat": 19.5,
      "duration_beat": 0.125,
      "velocity": 127,
      "track": 3
    },
    {
      "pitch": 68,
      "start_beat": 19.5,
      "duration_beat": 0.497916666666665,
      "velocity": 80,
      "track": 0
    },
    {
      "pitch": 68,
      "start_beat": 19.5,
      "duration_beat": 0.497916666666665,
      "velocity": 100,
      "track": 2
    },
    {
      "pitch": 72,
      "start_beat": 19.5,
      "duration_beat": 0.497916666666665,
      "velocity": 100,
      "track": 2
    },
    {
      "pitch": 75,
      "start_beat": 19.5,
      "duration_beat": 0.497916666666665,
      "velocity": 100,
      "track": 2
    },
    {
      "pitch": 68,
      "start_beat": 19.5,
      "duration_beat": 0.125,
      "velocity": 127,
      "track": 3
    },
    {
      "pitch": 71,
      "start_beat": 19.625,
      "duration_beat": 0.125,
      "velocity": 127,
      "track": 3
    },
    {
      "pitch": 75,
      "start_beat": 19.75,
      "duration_beat": 0.125,
      "velocity": 127,
      "track": 3
    },
    {
      "pitch": 80,
      "start_beat": 19.875,
      "duration_beat": 0.125,
      "velocity": 127,
      "track": 3
    },
    {
      "pitch": 83,
      "start_beat": 20.0,
      "duration_beat": 0.125,
      "velocity": 127,
      "track": 3
    },
    {
      "pitch": 75,
      "start_beat": 20.0,
      "duration_beat": 0.497916666666665,
      "velocity": 80,
      "track": 0
    },
    {
      "pitch": 75,
      "start_beat": 20.0,
      "duration_beat": 0.497916666666665,
      "velocity": 100,
      "track": 2
    },
    {
      "pitch": 79,
      "start_beat": 20.0,
      "duration_beat": 0.497916666666665,
      "velocity": 100,
      "track": 2
    },
    {
      "pitch": 82,
      "start_beat": 20.0,
      "duration_beat": 0.497916666666665,
      "velocity": 100,
      "track": 2
    },
    {
      "pitch": 75,
      "start_beat": 20.0,
      "duration_beat": 0.125,
      "velocity": 127,
      "track": 3
    },
    {
      "pitch": 78,
      "start_beat": 20.125,
      "duration_beat": 0.125,
      "velocity": 127,
      "track": 3
    },
    {
      "pitch": 82,
      "start_beat": 20.25,
      "duration_beat": 0.125,
      "velocity": 127,
      "track": 3
    },
    {
      "pitch": 87,
      "start_beat": 20.375,
      "duration_beat": 0.125,
      "velocity": 127,
      "track": 3
    },
    {
      "pitch": 90,
      "start_beat": 20.5,
      "duration_beat": 0.125,
      "velocity": 127,
      "track": 3
    },
    {
      "pitch": 87,
      "start_beat": 20.0,
      "duration_beat": 0.497916666666665,
      "velocity": 80,
      "track": 0
    },
    {
      "pitch": 87,
      "start_beat": 20.0,
      "duration_beat": 0.497916666666665,
      "velocity": 100,
      "track": 2
    },
    {
      "pitch": 91,
      "start_beat": 20.0,
      "duration_beat": 0.497916666666665,
      "velocity": 100,
      "track": 2
    },
    {
      "pitch": 94,
      "start_beat": 20.0,
      "duration_beat": 0.497916666666665,
      "velocity": 100,
      "track": 2
    },
    {
      "pitch": 87,
      "start_beat": 20.0,
      "duration_beat": 0.125,
      "velocity": 127,
      "track": 3
    },
    {
      "pitch": 90,
      "start_beat": 20.125,
      "duration_beat": 0.125,
      "velocity": 127,
      "track": 3
    },
    {
      "pitch": 94,
      "start_beat": 20.25,
      "duration_beat": 0.125,
      "velocity": 127,
      "track": 3
    },
    {
      "pitch": 99,
      "start_beat": 20.375,
      "duration_beat": 0.125,
      "velocity": 127,
      "track": 3
    },
    {
      "pitch": 102,
      "start_beat": 20.5,
      "duration_beat": 0.125,
      "velocity": 127,
      "track": 3
    },
    {
      "pitch": 39,
      "start_beat": 20.0,
      "duration_beat": 0.497916666666665,
      "velocity": 80,
      "track": 1
    },
    {
      "pitch": 39,
      "start_beat": 20.0,
      "duration_beat": 0.497916666666665,
      "velocity": 100,
      "track": 2
    },
    {
      "pitch": 43,
      "start_beat": 20.0,
      "duration_beat": 0.497916666666665,
      "velocity": 100,
      "track": 2
    },
    {
      "pitch": 46,
      "start_beat": 20.0,
      "duration_beat": 0.497916666666665,
      "velocity": 100,
      "track": 2
    },
    {
      "pitch": 39,
      "start_beat": 20.0,
      "duration_beat": 0.125,
      "velocity": 127,
      "track": 3
    },
    {
      "pitch": 42,
      "start_beat": 20.125,
      "duration_beat": 0.125,
      "velocity": 127,
      "track": 3
    },
    {
      "pitch": 46,
      "start_beat": 20.25,
      "duration_beat": 0.125,
      "velocity": 127,
      "track": 3
    },
    {
      "pitch": 51,
      "start_beat": 20.375,
      "duration_beat": 0.125,
      "velocity": 127,
      "track": 3
    },
    {
      "pitch": 54,
      "start_beat": 20.5,
      "duration_beat": 0.125,
      "velocity": 127,
      "track": 3
    },
    {
      "pitch": 51,
      "start_beat": 20.0,
      "duration_beat": 0.497916666666665,
      "velocity": 80,
      "track": 1
    },
    {
      "pitch": 51,
      "start_beat": 20.0,
      "duration_beat": 0.497916666666665,
      "velocity": 100,
      "track": 2
    },
    {
      "pitch": 55,
      "start_beat": 20.0,
      "duration_beat": 0.497916666666665,
      "velocity": 100,
      "track": 2
    },
    {
      "pitch": 58,
      "start_beat": 20.0,
      "duration_beat": 0.497916666666665,
      "velocity": 100,
      "track": 2
    },
    {
      "pitch": 51,
      "start_beat": 20.0,
      "duration_beat": 0.125,
      "velocity": 127,
      "track": 3
    },
    {
      "pitch": 54,
      "start_beat": 20.125,
      "duration_beat": 0.125,
      "velocity": 127,
      "track": 3
    },
    {
      "pitch": 58,
      "start_beat": 20.25,
      "duration_beat": 0.125,
      "velocity": 127,
      "track": 3
    },
    {
      "pitch": 63,
      "start_beat": 20.375,
      "duration_beat": 0.125,
      "velocity": 127,
      "track": 3
    },
    {
      "pitch": 66,
      "start_beat": 20.5,
      "duration_beat": 0.125,
      "velocity": 127,
      "track": 3
    },
    {
      "pitch": 58,
      "start_beat": 20.5,
      "duration_beat": 0.497916666666665,
      "velocity": 80,
      "track": 1
    },
    {
      "pitch": 58,
      "start_beat": 20.5,
      "duration_beat": 0.497916666666665,
      "velocity": 100,
      "track": 2
    },
    {
      "pitch": 62,
      "start_beat": 20.5,
      "duration_beat": 0.497916666666665,
      "velocity": 100,
      "track": 2
    },
    {
      "pitch": 65,
      "start_beat": 20.5,
      "duration_beat": 0.497916666666665,
      "velocity": 100,
      "track": 2
    },
    {
      "pitch": 58,
      "start_beat": 20.5,
      "duration_beat": 0.125,
      "velocity": 127,
      "track": 3
    },
    {
      "pitch": 61,
      "start_beat": 20.625,
      "duration_beat": 0.125,
      "velocity": 127,
      "track": 3
    },
    {
      "pitch": 65,
      "start_beat": 20.75,
      "duration_beat": 0.125,
      "velocity": 127,
      "track": 3
    },
    {
      "pitch": 70,
      "start_beat": 20.875,
      "duration_beat": 0.125,
      "velocity": 127,
      "track": 3
    },
    {
      "pitch": 73,
      "start_beat": 21.0,
      "duration_beat": 0.125,
      "velocity": 127,
      "track": 3
    },
    {
      "pitch": 63,
      "start_beat": 21.0,
      "duration_beat": 0.497916666666665,
      "velocity": 80,
      "track": 0
    },
    {
      "pitch": 63,
      "start_beat": 21.0,
      "duration_beat": 0.497916666666665,
      "velocity": 100,
      "track": 2
    },
    {
      "pitch": 67,
      "start_beat": 21.0,
      "duration_beat": 0.497916666666665,
      "velocity": 100,
      "track": 2
    },
    {
      "pitch": 70,
      "start_beat": 21.0,
      "duration_beat": 0.497916666666665,
      "velocity": 100,
      "track": 2
    },
    {
      "pitch": 63,
      "start_beat": 21.0,
      "duration_beat": 0.125,
      "velocity": 127,
      "track": 3
    },
    {
      "pitch": 66,
      "start_beat": 21.125,
      "duration_beat": 0.125,
      "velocity": 127,
      "track": 3
    },
    {
      "pitch": 70,
      "start_beat": 21.25,
      "duration_beat": 0.125,
      "velocity": 127,
      "track": 3
    },
    {
      "pitch": 75,
      "start_beat": 21.375,
      "duration_beat": 0.125,
      "velocity": 127,
      "track": 3
    },
    {
      "pitch": 78,
      "start_beat": 21.5,
      "duration_beat": 0.125,
      "velocity": 127,
      "track": 3
    },
    {
      "pitch": 77,
      "start_beat": 21.0,
      "duration_beat": 0.497916666666665,
      "velocity": 80,
      "track": 0
    },
    {
      "pitch": 77,
      "start_beat": 21.0,
      "duration_beat": 0.497916666666665,
      "velocity": 100,
      "track": 2
    },
    {
      "pitch": 81,
      "start_beat": 21.0,
      "duration_beat": 0.497916666666665,
      "velocity": 100,
      "track": 2
    },
    {
      "pitch": 84,
      "start_beat": 21.0,
      "duration_beat": 0.497916666666665,
      "velocity": 100,
      "track": 2
    },
    {
      "pitch": 77,
      "start_beat": 21.0,
      "duration_beat": 0.125,
      "velocity": 127,
      "track": 3
    },
    {
      "pitch": 80,
      "start_beat": 21.125,
      "duration_beat": 0.125,
      "velocity": 127,
      "track": 3
    },
    {
      "pitch": 84,
      "start_beat": 21.25,
      "duration_beat": 0.125,
      "velocity": 127,
      "track": 3
    },
    {
      "pitch": 89,
      "start_beat": 21.375,
      "duration_beat": 0.125,
      "velocity": 127,
      "track": 3
    },
    {
      "pitch": 92,
      "start_beat": 21.5,
      "duration_beat": 0.125,
      "velocity": 127,
      "track": 3
    },
    {
      "pitch": 89,
      "start_beat": 21.0,
      "duration_beat": 0.497916666666665,
      "velocity": 80,
      "track": 0
    },
    {
      "pitch": 89,
      "start_beat": 21.0,
      "duration_beat": 0.497916666666665,
      "velocity": 100,
      "track": 2
    },
    {
      "pitch": 93,
      "start_beat": 21.0,
      "duration_beat": 0.497916666666665,
      "velocity": 100,
      "track": 2
    },
    {
      "pitch": 96,
      "start_beat": 21.0,
      "duration_beat": 0.497916666666665,
      "velocity": 100,
      "track": 2
    },
    {
      "pitch": 89,
      "start_beat": 21.0,
      "duration_beat": 0.125,
      "velocity": 127,
      "track": 3
    },
    {
      "pitch": 92,
      "start_beat": 21.125,
      "duration_beat": 0.125,
      "velocity": 127,
      "track": 3
    },
    {
      "pitch": 96,
      "start_beat": 21.25,
      "duration_beat": 0.125,
      "velocity": 127,
      "track": 3
    },
    {
      "pitch": 101,
      "start_beat": 21.375,
      "duration_beat": 0.125,
      "velocity": 127,
      "track": 3
    },
    {
      "pitch": 104,
      "start_beat": 21.5,
      "duration_beat": 0.125,
      "velocity": 127,
      "track": 3
    },
    {
      "pitch": 67,
      "start_beat": 21.5,
      "duration_beat": 0.497916666666665,
      "velocity": 80,
      "track": 0
    },
    {
      "pitch": 67,
      "start_beat": 21.5,
      "duration_beat": 0.497916666666665,
      "velocity": 100,
      "track": 2
    },
    {
      "pitch": 71,
      "start_beat": 21.5,
      "duration_beat": 0.497916666666665,
      "velocity": 100,
      "track": 2
    },
    {
      "pitch": 74,
      "start_beat": 21.5,
      "duration_beat": 0.497916666666665,
      "velocity": 100,
      "track": 2
    },
    {
      "pitch": 67,
      "start_beat": 21.5,
      "duration_beat": 0.125,
      "velocity": 127,
      "track": 3
    },
    {
      "pitch": 70,
      "start_beat": 21.625,
      "duration_beat": 0.125,
      "velocity": 127,
      "track": 3
    },
    {
      "pitch": 74,
      "start_beat": 21.75,
      "duration_beat": 0.125,
      "velocity": 127,
      "track": 3
    },
    {
      "pitch": 79,
      "start_beat": 21.875,
      "duration_beat": 0.125,
      "velocity": 127,
      "track": 3
    },
    {
      "pitch": 82,
      "start_beat": 22.0,
      "duration_beat": 0.125,
      "velocity": 127,
      "track": 3
    },
    {
      "pitch": 70,
      "start_beat": 22.0,
      "duration_beat": 0.997916666666665,
      "velocity": 80,
      "track": 0
    },
    {
      "pitch": 70,
      "start_beat": 22.0,
      "duration_beat": 0.997916666666665,
      "velocity": 100,
      "track": 2
    },
    {
      "pitch": 74,
      "start_beat": 22.0,
      "duration_beat": 0.997916666666665,
      "velocity": 100,
      "track": 2
    },
    {
      "pitch": 77,
      "start_beat": 22.0,
      "duration_beat": 0.997916666666665,
      "velocity": 100,
      "track": 2
    },
    {
      "pitch": 70,
      "start_beat": 22.0,
      "duration_beat": 0.125,
      "velocity": 127,
      "track": 3
    },
    {
      "pitch": 73,
      "start_beat": 22.125,
      "duration_beat": 0.125,
      "velocity": 127,
      "track": 3
    },
    {
      "pitch": 77,
      "start_beat": 22.25,
      "duration_beat": 0.125,
      "velocity": 127,
      "track": 3
    },
    {
      "pitch": 82,
      "start_beat": 22.375,
      "duration_beat": 0.125,
      "velocity": 127,
      "track": 3
    },
    {
      "pitch": 85,
      "start_beat": 22.5,
      "duration_beat": 0.125,
      "velocity": 127,
      "track": 3
    },
    {
      "pitch": 67,
      "start_beat": 23.0,
      "duration_beat": 0.497916666666665,
      "velocity": 80,
      "track": 0
    },
    {
      "pitch": 67,
      "start_beat": 23.0,
      "duration_beat": 0.497916666666665,
      "velocity": 100,
      "track": 2
    },
    {
      "pitch": 71,
      "start_beat": 23.0,
      "duration_beat": 0.497916666666665,
      "velocity": 100,
      "track": 2
    },
    {
      "pitch": 74,
      "start_beat": 23.0,
      "duration_beat": 0.497916666666665,
      "velocity": 100,
      "track": 2
    },
    {
      "pitch": 67,
      "start_beat": 23.0,
      "duration_beat": 0.125,
      "velocity": 127,
      "track": 3
    },
    {
      "pitch": 70,
      "start_beat": 23.125,
      "duration_beat": 0.125,
      "velocity": 127,
      "track": 3
    },
    {
      "pitch": 74,
      "start_beat": 23.25,
      "duration_beat": 0.125,
      "velocity": 127,
      "track": 3
    },
    {
      "pitch": 79,
      "start_beat": 23.375,
      "duration_beat": 0.125,
      "velocity": 127,
      "track": 3
    },
    {
      "pitch": 82,
      "start_beat": 23.5,
      "duration_beat": 0.125,
      "velocity": 127,
      "track": 3
    },
    {
      "pitch": 72,
      "start_beat": 23.0,
      "duration_beat": 0.497916666666665,
      "velocity": 80,
      "track": 0
    },
    {
      "pitch": 72,
      "start_beat": 23.0,
      "duration_beat": 0.497916666666665,
      "velocity": 100,
      "track": 2
    },
    {
      "pitch": 76,
      "start_beat": 23.0,
      "duration_beat": 0.497916666666665,
      "velocity": 100,
      "track": 2
    },
    {
      "pitch": 79,
      "start_beat": 23.0,
      "duration_beat": 0.497916666666665,
      "velocity": 100,
      "track": 2
    },
    {
      "pitch": 72,
      "start_beat": 23.0,
      "duration_beat": 0.125,
      "velocity": 127,
      "track": 3
    },
    {
      "pitch": 75,
      "start_beat": 23.125,
      "duration_beat": 0.125,
      "velocity": 127,
      "track": 3
    },
    {
      "pitch": 79,
      "start_beat": 23.25,
      "duration_beat": 0.125,
      "velocity": 127,
      "track": 3
    },
    {
      "pitch": 84,
      "start_beat": 23.375,
      "duration_beat": 0.125,
      "velocity": 127,
      "track": 3
    },
    {
      "pitch": 87,
      "start_beat": 23.5,
      "duration_beat": 0.125,
      "velocity": 127,
      "track": 3
    },
    {
      "pitch": 84,
      "start_beat": 23.0,
      "duration_beat": 0.497916666666665,
      "velocity": 80,
      "track": 0
    },
    {
      "pitch": 84,
      "start_beat": 23.0,
      "duration_beat": 0.497916666666665,
      "velocity": 100,
      "track": 2
    },
    {
      "pitch": 88,
      "start_beat": 23.0,
      "duration_beat": 0.497916666666665,
      "velocity": 100,
      "track": 2
    },
    {
      "pitch": 91,
      "start_beat": 23.0,
      "duration_beat": 0.497916666666665,
      "velocity": 100,
      "track": 2
    },
    {
      "pitch": 84,
      "start_beat": 23.0,
      "duration_beat": 0.125,
      "velocity": 127,
      "track": 3
    },
    {
      "pitch": 87,
      "start_beat": 23.125,
      "duration_beat": 0.125,
      "velocity": 127,
      "track": 3
    },
    {
      "pitch": 91,
      "start_beat": 23.25,
      "duration_beat": 0.125,
      "velocity": 127,
      "track": 3
    },
    {
      "pitch": 96,
      "start_beat": 23.375,
      "duration_beat": 0.125,
      "velocity": 127,
      "track": 3
    },
    {
      "pitch": 99,
      "start_beat": 23.5,
      "duration_beat": 0.125,
      "velocity": 127,
      "track": 3
    },
    {
      "pitch": 70,
      "start_beat": 23.5,
      "duration_beat": 0.497916666666665,
      "velocity": 80,
      "track": 0
    },
    {
      "pitch": 70,
      "start_beat": 23.5,
      "duration_beat": 0.497916666666665,
      "velocity": 100,
      "track": 2
    },
    {
      "pitch": 74,
      "start_beat": 23.5,
      "duration_beat": 0.497916666666665,
      "velocity": 100,
      "track": 2
    },
    {
      "pitch": 77,
      "start_beat": 23.5,
      "duration_beat": 0.497916666666665,
      "velocity": 100,
      "track": 2
    },
    {
      "pitch": 70,
      "start_beat": 23.5,
      "duration_beat": 0.125,
      "velocity": 127,
      "track": 3
    },
    {
      "pitch": 73,
      "start_beat": 23.625,
      "duration_beat": 0.125,
      "velocity": 127,
      "track": 3
    },
    {
      "pitch": 77,
      "start_beat": 23.75,
      "duration_beat": 0.125,
      "velocity": 127,
      "track": 3
    },
    {
      "pitch": 82,
      "start_beat": 23.875,
      "duration_beat": 0.125,
      "velocity": 127,
      "track": 3
    },
    {
      "pitch": 85,
      "start_beat": 24.0,
      "duration_beat": 0.125,
      "velocity": 127,
      "track": 3
    },
    {
      "pitch": 70,
      "start_beat": 24.0,
      "duration_beat": 0.497916666666665,
      "velocity": 80,
      "track": 0
    },
    {
      "pitch": 70,
      "start_beat": 24.0,
      "duration_beat": 0.497916666666665,
      "velocity": 100,
      "track": 2
    },
    {
      "pitch": 74,
      "start_beat": 24.0,
      "duration_beat": 0.497916666666665,
      "velocity": 100,
      "track": 2
    },
    {
      "pitch": 77,
      "start_beat": 24.0,
      "duration_beat": 0.497916666666665,
      "velocity": 100,
      "track": 2
    },
    {
      "pitch": 70,
      "start_beat": 24.0,
      "duration_beat": 0.125,
      "velocity": 127,
      "track": 3
    },
    {
      "pitch": 73,
      "start_beat": 24.125,
      "duration_beat": 0.125,
      "velocity": 127,
      "track": 3
    },
    {
      "pitch": 77,
      "start_beat": 24.25,
      "duration_beat": 0.125,
      "velocity": 127,
      "track": 3
    },
    {
      "pitch": 82,
      "start_beat": 24.375,
      "duration_beat": 0.125,
      "velocity": 127,
      "track": 3
    },
    {
      "pitch": 85,
      "start_beat": 24.5,
      "duration_beat": 0.125,
      "velocity": 127,
      "track": 3
    },
    {
      "pitch": 82,
      "start_beat": 24.0,
      "duration_beat": 0.497916666666665,
      "velocity": 80,
      "track": 0
    },
    {
      "pitch": 82,
      "start_beat": 24.0,
      "duration_beat": 0.497916666666665,
      "velocity": 100,
      "track": 2
    },
    {
      "pitch": 86,
      "start_beat": 24.0,
      "duration_beat": 0.497916666666665,
      "velocity": 100,
      "track": 2
    },
    {
      "pitch": 89,
      "start_beat": 24.0,
      "duration_beat": 0.497916666666665,
      "velocity": 100,
      "track": 2
    },
    {
      "pitch": 82,
      "start_beat": 24.0,
      "duration_beat": 0.125,
      "velocity": 127,
      "track": 3
    },
    {
      "pitch": 85,
      "start_beat": 24.125,
      "duration_beat": 0.125,
      "velocity": 127,
      "track": 3
    },
    {
      "pitch": 89,
      "start_beat": 24.25,
      "duration_beat": 0.125,
      "velocity": 127,
      "track": 3
    },
    {
      "pitch": 94,
      "start_beat": 24.375,
      "duration_beat": 0.125,
      "velocity": 127,
      "track": 3
    },
    {
      "pitch": 97,
      "start_beat": 24.5,
      "duration_beat": 0.125,
      "velocity": 127,
      "track": 3
    },
    {
      "pitch": 41,
      "start_beat": 24.0,
      "duration_beat": 0.497916666666665,
      "velocity": 80,
      "track": 1
    },
    {
      "pitch": 41,
      "start_beat": 24.0,
      "duration_beat": 0.497916666666665,
      "velocity": 100,
      "track": 2
    },
    {
      "pitch": 45,
      "start_beat": 24.0,
      "duration_beat": 0.497916666666665,
      "velocity": 100,
      "track": 2
    },
    {
      "pitch": 48,
      "start_beat": 24.0,
      "duration_beat": 0.497916666666665,
      "velocity": 100,
      "track": 2
    },
    {
      "pitch": 41,
      "start_beat": 24.0,
      "duration_beat": 0.125,
      "velocity": 127,
      "track": 3
    },
    {
      "pitch": 44,
      "start_beat": 24.125,
      "duration_beat": 0.125,
      "velocity": 127,
      "track": 3
    },
    {
      "pitch": 48,
      "start_beat": 24.25,
      "duration_beat": 0.125,
      "velocity": 127,
      "track": 3
    },
    {
      "pitch": 53,
      "start_beat": 24.375,
      "duration_beat": 0.125,
      "velocity": 127,
      "track": 3
    },
    {
      "pitch": 56,
      "start_beat": 24.5,
      "duration_beat": 0.125,
      "velocity": 127,
      "track": 3
    },
    {
      "pitch": 48,
      "start_beat": 24.5,
      "duration_beat": 0.497916666666665,
      "velocity": 80,
      "track": 1
    },
    {
      "pitch": 48,
      "start_beat": 24.5,
      "duration_beat": 0.497916666666665,
      "velocity": 100,
      "track": 2
    },
    {
      "pitch": 52,
      "start_beat": 24.5,
      "duration_beat": 0.497916666666665,
      "velocity": 100,
      "track": 2
    },
    {
      "pitch": 55,
      "start_beat": 24.5,
      "duration_beat": 0.497916666666665,
      "velocity": 100,
      "track": 2
    },
    {
      "pitch": 48,
      "start_beat": 24.5,
      "duration_beat": 0.125,
      "velocity": 127,
      "track": 3
    },
    {
      "pitch": 51,
      "start_beat": 24.625,
      "duration_beat": 0.125,
      "velocity": 127,
      "track": 3
    },
    {
      "pitch": 55,
      "start_beat": 24.75,
      "duration_beat": 0.125,
      "velocity": 127,
      "track": 3
    },
    {
      "pitch": 60,
      "start_beat": 24.875,
      "duration_beat": 0.125,
      "velocity": 127,
      "track": 3
    },
    {
      "pitch": 63,
      "start_beat": 25.0,
      "duration_beat": 0.125,
      "velocity": 127,
      "track": 3
    },
    {
      "pitch": 65,
      "start_beat": 25.0,
      "duration_beat": 0.497916666666665,
      "velocity": 80,
      "track": 0
    },
    {
      "pitch": 65,
      "start_beat": 25.0,
      "duration_beat": 0.497916666666665,
      "velocity": 100,
      "track": 2
    },
    {
      "pitch": 69,
      "start_beat": 25.0,
      "duration_beat": 0.497916666666665,
      "velocity": 100,
      "track": 2
    },
    {
      "pitch": 72,
      "start_beat": 25.0,
      "duration_beat": 0.497916666666665,
      "velocity": 100,
      "track": 2
    },
    {
      "pitch": 65,
      "start_beat": 25.0,
      "duration_beat": 0.125,
      "velocity": 127,
      "track": 3
    },
    {
      "pitch": 68,
      "start_beat": 25.125,
      "duration_beat": 0.125,
      "velocity": 127,
      "track": 3
    },
    {
      "pitch": 72,
      "start_beat": 25.25,
      "duration_beat": 0.125,
      "velocity": 127,
      "track": 3
    },
    {
      "pitch": 77,
      "start_beat": 25.375,
      "duration_beat": 0.125,
      "velocity": 127,
      "track": 3
    },
    {
      "pitch": 80,
      "start_beat": 25.5,
      "duration_beat": 0.125,
      "velocity": 127,
      "track": 3
    },
    {
      "pitch": 77,
      "start_beat": 25.0,
      "duration_beat": 0.497916666666665,
      "velocity": 80,
      "track": 0
    },
    {
      "pitch": 77,
      "start_beat": 25.0,
      "duration_beat": 0.497916666666665,
      "velocity": 100,
      "track": 2
    },
    {
      "pitch": 81,
      "start_beat": 25.0,
      "duration_beat": 0.497916666666665,
      "velocity": 100,
      "track": 2
    },
    {
      "pitch": 84,
      "start_beat": 25.0,
      "duration_beat": 0.497916666666665,
      "velocity": 100,
      "track": 2
    },
    {
      "pitch": 77,
      "start_beat": 25.0,
      "duration_beat": 0.125,
      "velocity": 127,
      "track": 3
    },
    {
      "pitch": 80,
      "start_beat": 25.125,
      "duration_beat": 0.125,
      "velocity": 127,
      "track": 3
    },
    {
      "pitch": 84,
      "start_beat": 25.25,
      "duration_beat": 0.125,
      "velocity": 127,
      "track": 3
    },
    {
      "pitch": 89,
      "start_beat": 25.375,
      "duration_beat": 0.125,
      "velocity": 127,
      "track": 3
    },
    {
      "pitch": 92,
      "start_beat": 25.5,
      "duration_beat": 0.125,
      "velocity": 127,
      "track": 3
    },
    {
      "pitch": 53,
      "start_beat": 25.0,
      "duration_beat": 0.497916666666665,
      "velocity": 80,
      "track": 1
    },
    {
      "pitch": 53,
      "start_beat": 25.0,
      "duration_beat": 0.497916666666665,
      "velocity": 100,
      "track": 2
    },
    {
      "pitch": 57,
      "start_beat": 25.0,
      "duration_beat": 0.497916666666665,
      "velocity": 100,
      "track": 2
    },
    {
      "pitch": 60,
      "start_beat": 25.0,
      "duration_beat": 0.497916666666665,
      "velocity": 100,
      "track": 2
    },
    {
      "pitch": 53,
      "start_beat": 25.0,
      "duration_beat": 0.125,
      "velocity": 127,
      "track": 3
    },
    {
      "pitch": 56,
      "start_beat": 25.125,
      "duration_beat": 0.125,
      "velocity": 127,
      "track": 3
    },
    {
      "pitch": 60,
      "start_beat": 25.25,
      "duration_beat": 0.125,
      "velocity": 127,
      "track": 3
    },
    {
      "pitch": 65,
      "start_beat": 25.375,
      "duration_beat": 0.125,
      "velocity": 127,
      "track": 3
    },
    {
      "pitch": 68,
      "start_beat": 25.5,
      "duration_beat": 0.125,
      "velocity": 127,
      "track": 3
    },
    {
      "pitch": 68,
      "start_beat": 25.5,
      "duration_beat": 0.497916666666665,
      "velocity": 80,
      "track": 0
    },
    {
      "pitch": 68,
      "start_beat": 25.5,
      "duration_beat": 0.497916666666665,
      "velocity": 100,
      "track": 2
    },
    {
      "pitch": 72,
      "start_beat": 25.5,
      "duration_beat": 0.497916666666665,
      "velocity": 100,
      "track": 2
    },
    {
      "pitch": 75,
      "start_beat": 25.5,
      "duration_beat": 0.497916666666665,
      "velocity": 100,
      "track": 2
    },
    {
      "pitch": 68,
      "start_beat": 25.5,
      "duration_beat": 0.125,
      "velocity": 127,
      "track": 3
    },
    {
      "pitch": 71,
      "start_beat": 25.625,
      "duration_beat": 0.125,
      "velocity": 127,
      "track": 3
    },
    {
      "pitch": 75,
      "start_beat": 25.75,
      "duration_beat": 0.125,
      "velocity": 127,
      "track": 3
    },
    {
      "pitch": 80,
      "start_beat": 25.875,
      "duration_beat": 0.125,
      "velocity": 127,
      "track": 3
    },
    {
      "pitch": 83,
      "start_beat": 26.0,
      "duration_beat": 0.125,
      "velocity": 127,
      "track": 3
    },
    {
      "pitch": 80,
      "start_beat": 25.5,
      "duration_beat": 0.497916666666665,
      "velocity": 80,
      "track": 0
    },
    {
      "pitch": 80,
      "start_beat": 25.5,
      "duration_beat": 0.497916666666665,
      "velocity": 100,
      "track": 2
    },
    {
      "pitch": 84,
      "start_beat": 25.5,
      "duration_beat": 0.497916666666665,
      "velocity": 100,
      "track": 2
    },
    {
      "pitch": 87,
      "start_beat": 25.5,
      "duration_beat": 0.497916666666665,
      "velocity": 100,
      "track": 2
    },
    {
      "pitch": 80,
      "start_beat": 25.5,
      "duration_beat": 0.125,
      "velocity": 127,
      "track": 3
    },
    {
      "pitch": 83,
      "start_beat": 25.625,
      "duration_beat": 0.125,
      "velocity": 127,
      "track": 3
    },
    {
      "pitch": 87,
      "start_beat": 25.75,
      "duration_beat": 0.125,
      "velocity": 127,
      "track": 3
    },
    {
      "pitch": 92,
      "start_beat": 25.875,
      "duration_beat": 0.125,
      "velocity": 127,
      "track": 3
    },
    {
      "pitch": 95,
      "start_beat": 26.0,
      "duration_beat": 0.125,
      "velocity": 127,
      "track": 3
    },
    {
      "pitch": 56,
      "start_beat": 25.5,
      "duration_beat": 0.497916666666665,
      "velocity": 80,
      "track": 1
    },
    {
      "pitch": 56,
      "start_beat": 25.5,
      "duration_beat": 0.497916666666665,
      "velocity": 100,
      "track": 2
    },
    {
      "pitch": 60,
      "start_beat": 25.5,
      "duration_beat": 0.497916666666665,
      "velocity": 100,
      "track": 2
    },
    {
      "pitch": 63,
      "start_beat": 25.5,
      "duration_beat": 0.497916666666665,
      "velocity": 100,
      "track": 2
    },
    {
      "pitch": 56,
      "start_beat": 25.5,
      "duration_beat": 0.125,
      "velocity": 127,
      "track": 3
    },
    {
      "pitch": 59,
      "start_beat": 25.625,
      "duration_beat": 0.125,
      "velocity": 127,
      "track": 3
    },
    {
      "pitch": 63,
      "start_beat": 25.75,
      "duration_beat": 0.125,
      "velocity": 127,
      "track": 3
    },
    {
      "pitch": 68,
      "start_beat": 25.875,
      "duration_beat": 0.125,
      "velocity": 127,
      "track": 3
    },
    {
      "pitch": 71,
      "start_beat": 26.0,
      "duration_beat": 0.125,
      "velocity": 127,
      "track": 3
    },
    {
      "pitch": 60,
      "start_beat": 26.0,
      "duration_beat": 0.997916666666665,
      "velocity": 80,
      "track": 0
    },
    {
      "pitch": 60,
      "start_beat": 26.0,
      "duration_beat": 0.997916666666665,
      "velocity": 100,
      "track": 2
    },
    {
      "pitch": 64,
      "start_beat": 26.0,
      "duration_beat": 0.997916666666665,
      "velocity": 100,
      "track": 2
    },
    {
      "pitch": 67,
      "start_beat": 26.0,
      "duration_beat": 0.997916666666665,
      "velocity": 100,
      "track": 2
    },
    {
      "pitch": 60,
      "start_beat": 26.0,
      "duration_beat": 0.125,
      "velocity": 127,
      "track": 3
    },
    {
      "pitch": 63,
      "start_beat": 26.125,
      "duration_beat": 0.125,
      "velocity": 127,
      "track": 3
    },
    {
      "pitch": 67,
      "start_beat": 26.25,
      "duration_beat": 0.125,
      "velocity": 127,
      "track": 3
    },
    {
      "pitch": 72,
      "start_beat": 26.375,
      "duration_beat": 0.125,
      "velocity": 127,
      "track": 3
    },
    {
      "pitch": 75,
      "start_beat": 26.5,
      "duration_beat": 0.125,
      "velocity": 127,
      "track": 3
    },
    {
      "pitch": 72,
      "start_beat": 27.0,
      "duration_beat": 0.997916666666665,
      "velocity": 80,
      "track": 0
    },
    {
      "pitch": 72,
      "start_beat": 27.0,
      "duration_beat": 0.997916666666665,
      "velocity": 100,
      "track": 2
    },
    {
      "pitch": 76,
      "start_beat": 27.0,
      "duration_beat": 0.997916666666665,
      "velocity": 100,
      "track": 2
    },
    {
      "pitch": 79,
      "start_beat": 27.0,
      "duration_beat": 0.997916666666665,
      "velocity": 100,
      "track": 2
    },
    {
      "pitch": 72,
      "start_beat": 27.0,
      "duration_beat": 0.125,
      "velocity": 127,
      "track": 3
    },
    {
      "pitch": 75,
      "start_beat": 27.125,
      "duration_beat": 0.125,
      "velocity": 127,
      "track": 3
    },
    {
      "pitch": 79,
      "start_beat": 27.25,
      "duration_beat": 0.125,
      "velocity": 127,
      "track": 3
    },
    {
      "pitch": 84,
      "start_beat": 27.375,
      "duration_beat": 0.125,
      "velocity": 127,
      "track": 3
    },
    {
      "pitch": 87,
      "start_beat": 27.5,
      "duration_beat": 0.125,
      "velocity": 127,
      "track": 3
    },
    {
      "pitch": 84,
      "start_beat": 27.0,
      "duration_beat": 0.997916666666665,
      "velocity": 80,
      "track": 0
    },
    {
      "pitch": 84,
      "start_beat": 27.0,
      "duration_beat": 0.997916666666665,
      "velocity": 100,
      "track": 2
    },
    {
      "pitch": 88,
      "start_beat": 27.0,
      "duration_beat": 0.997916666666665,
      "velocity": 100,
      "track": 2
    },
    {
      "pitch": 91,
      "start_beat": 27.0,
      "duration_beat": 0.997916666666665,
      "velocity": 100,
      "track": 2
    },
    {
      "pitch": 84,
      "start_beat": 27.0,
      "duration_beat": 0.125,
      "velocity": 127,
      "track": 3
    },
    {
      "pitch": 87,
      "start_beat": 27.125,
      "duration_beat": 0.125,
      "velocity": 127,
      "track": 3
    },
    {
      "pitch": 91,
      "start_beat": 27.25,
      "duration_beat": 0.125,
      "velocity": 127,
      "track": 3
    },
    {
      "pitch": 96,
      "start_beat": 27.375,
      "duration_beat": 0.125,
      "velocity": 127,
      "track": 3
    },
    {
      "pitch": 99,
      "start_beat": 27.5,
      "duration_beat": 0.125,
      "velocity": 127,
      "track": 3
    },
    {
      "pitch": 70,
      "start_beat": 28.0,
      "duration_beat": 0.497916666666665,
      "velocity": 80,
      "track": 0
    },
    {
      "pitch": 70,
      "start_beat": 28.0,
      "duration_beat": 0.497916666666665,
      "velocity": 100,
      "track": 2
    },
    {
      "pitch": 74,
      "start_beat": 28.0,
      "duration_beat": 0.497916666666665,
      "velocity": 100,
      "track": 2
    },
    {
      "pitch": 77,
      "start_beat": 28.0,
      "duration_beat": 0.497916666666665,
      "velocity": 100,
      "track": 2
    },
    {
      "pitch": 70,
      "start_beat": 28.0,
      "duration_beat": 0.125,
      "velocity": 127,
      "track": 3
    },
    {
      "pitch": 73,
      "start_beat": 28.125,
      "duration_beat": 0.125,
      "velocity": 127,
      "track": 3
    },
    {
      "pitch": 77,
      "start_beat": 28.25,
      "duration_beat": 0.125,
      "velocity": 127,
      "track": 3
    },
    {
      "pitch": 82,
      "start_beat": 28.375,
      "duration_beat": 0.125,
      "velocity": 127,
      "track": 3
    },
    {
      "pitch": 85,
      "start_beat": 28.5,
      "duration_beat": 0.125,
      "velocity": 127,
      "track": 3
    },
    {
      "pitch": 82,
      "start_beat": 28.0,
      "duration_beat": 0.497916666666665,
      "velocity": 80,
      "track": 0
    },
    {
      "pitch": 82,
      "start_beat": 28.0,
      "duration_beat": 0.497916666666665,
      "velocity": 100,
      "track": 2
    },
    {
      "pitch": 86,
      "start_beat": 28.0,
      "duration_beat": 0.497916666666665,
      "velocity": 100,
      "track": 2
    },
    {
      "pitch": 89,
      "start_beat": 28.0,
      "duration_beat": 0.497916666666665,
      "velocity": 100,
      "track": 2
    },
    {
      "pitch": 82,
      "start_beat": 28.0,
      "duration_beat": 0.125,
      "velocity": 127,
      "track": 3
    },
    {
      "pitch": 85,
      "start_beat": 28.125,
      "duration_beat": 0.125,
      "velocity": 127,
      "track": 3
    },
    {
      "pitch": 89,
      "start_beat": 28.25,
      "duration_beat": 0.125,
      "velocity": 127,
      "track": 3
    },
    {
      "pitch": 94,
      "start_beat": 28.375,
      "duration_beat": 0.125,
      "velocity": 127,
      "track": 3
    },
    {
      "pitch": 97,
      "start_beat": 28.5,
      "duration_beat": 0.125,
      "velocity": 127,
      "track": 3
    },
    {
      "pitch": 41,
      "start_beat": 28.0,
      "duration_beat": 0.497916666666665,
      "velocity": 80,
      "track": 1
    },
    {
      "pitch": 41,
      "start_beat": 28.0,
      "duration_beat": 0.497916666666665,
      "velocity": 100,
      "track": 2
    },
    {
      "pitch": 45,
      "start_beat": 28.0,
      "duration_beat": 0.497916666666665,
      "velocity": 100,
      "track": 2
    },
    {
      "pitch": 48,
      "start_beat": 28.0,
      "duration_beat": 0.497916666666665,
      "velocity": 100,
      "track": 2
    },
    {
      "pitch": 41,
      "start_beat": 28.0,
      "duration_beat": 0.125,
      "velocity": 127,
      "track": 3
    },
    {
      "pitch": 44,
      "start_beat": 28.125,
      "duration_beat": 0.125,
      "velocity": 127,
      "track": 3
    },
    {
      "pitch": 48,
      "start_beat": 28.25,
      "duration_beat": 0.125,
      "velocity": 127,
      "track": 3
    },
    {
      "pitch": 53,
      "start_beat": 28.375,
      "duration_beat": 0.125,
      "velocity": 127,
      "track": 3
    },
    {
      "pitch": 56,
      "start_beat": 28.5,
      "duration_beat": 0.125,
      "velocity": 127,
      "track": 3
    },
    {
      "pitch": 48,
      "start_beat": 28.5,
      "duration_beat": 0.497916666666665,
      "velocity": 80,
      "track": 1
    },
    {
      "pitch": 48,
      "start_beat": 28.5,
      "duration_beat": 0.497916666666665,
      "velocity": 100,
      "track": 2
    },
    {
      "pitch": 52,
      "start_beat": 28.5,
      "duration_beat": 0.497916666666665,
      "velocity": 100,
      "track": 2
    },
    {
      "pitch": 55,
      "start_beat": 28.5,
      "duration_beat": 0.497916666666665,
      "velocity": 100,
      "track": 2
    },
    {
      "pitch": 48,
      "start_beat": 28.5,
      "duration_beat": 0.125,
      "velocity": 127,
      "track": 3
    },
    {
      "pitch": 51,
      "start_beat": 28.625,
      "duration_beat": 0.125,
      "velocity": 127,
      "track": 3
    },
    {
      "pitch": 55,
      "start_beat": 28.75,
      "duration_beat": 0.125,
      "velocity": 127,
      "track": 3
    },
    {
      "pitch": 60,
      "start_beat": 28.875,
      "duration_beat": 0.125,
      "velocity": 127,
      "track": 3
    },
    {
      "pitch": 63,
      "start_beat": 29.0,
      "duration_beat": 0.125,
      "velocity": 127,
      "track": 3
    },
    {
      "pitch": 65,
      "start_beat": 29.0,
      "duration_beat": 0.497916666666665,
      "velocity": 80,
      "track": 0
    },
    {
      "pitch": 65,
      "start_beat": 29.0,
      "duration_beat": 0.497916666666665,
      "velocity": 100,
      "track": 2
    },
    {
      "pitch": 69,
      "start_beat": 29.0,
      "duration_beat": 0.497916666666665,
      "velocity": 100,
      "track": 2
    },
    {
      "pitch": 72,
      "start_beat": 29.0,
      "duration_beat": 0.497916666666665,
      "velocity": 100,
      "track": 2
    },
    {
      "pitch": 65,
      "start_beat": 29.0,
      "duration_beat": 0.125,
      "velocity": 127,
      "track": 3
    },
    {
      "pitch": 68,
      "start_beat": 29.125,
      "duration_beat": 0.125,
      "velocity": 127,
      "track": 3
    },
    {
      "pitch": 72,
      "start_beat": 29.25,
      "duration_beat": 0.125,
      "velocity": 127,
      "track": 3
    },
    {
      "pitch": 77,
      "start_beat": 29.375,
      "duration_beat": 0.125,
      "velocity": 127,
      "track": 3
    },
    {
      "pitch": 80,
      "start_beat": 29.5,
      "duration_beat": 0.125,
      "velocity": 127,
      "track": 3
    },
    {
      "pitch": 77,
      "start_beat": 29.0,
      "duration_beat": 0.497916666666665,
      "velocity": 80,
      "track": 0
    },
    {
      "pitch": 77,
      "start_beat": 29.0,
      "duration_beat": 0.497916666666665,
      "velocity": 100,
      "track": 2
    },
    {
      "pitch": 81,
      "start_beat": 29.0,
      "duration_beat": 0.497916666666665,
      "velocity": 100,
      "track": 2
    },
    {
      "pitch": 84,
      "start_beat": 29.0,
      "duration_beat": 0.497916666666665,
      "velocity": 100,
      "track": 2
    },
    {
      "pitch": 77,
      "start_beat": 29.0,
      "duration_beat": 0.125,
      "velocity": 127,
      "track": 3
    },
    {
      "pitch": 80,
      "start_beat": 29.125,
      "duration_beat": 0.125,
      "velocity": 127,
      "track": 3
    },
    {
      "pitch": 84,
      "start_beat": 29.25,
      "duration_beat": 0.125,
      "velocity": 127,
      "track": 3
    },
    {
      "pitch": 89,
      "start_beat": 29.375,
      "duration_beat": 0.125,
      "velocity": 127,
      "track": 3
    },
    {
      "pitch": 92,
      "start_beat": 29.5,
      "duration_beat": 0.125,
      "velocity": 127,
      "track": 3
    },
    {
      "pitch": 53,
      "start_beat": 29.0,
      "duration_beat": 0.497916666666665,
      "velocity": 80,
      "track": 1
    },
    {
      "pitch": 53,
      "start_beat": 29.0,
      "duration_beat": 0.497916666666665,
      "velocity": 100,
      "track": 2
    },
    {
      "pitch": 57,
      "start_beat": 29.0,
      "duration_beat": 0.497916666666665,
      "velocity": 100,
      "track": 2
    },
    {
      "pitch": 60,
      "start_beat": 29.0,
      "duration_beat": 0.497916666666665,
      "velocity": 100,
      "track": 2
    },
    {
      "pitch": 53,
      "start_beat": 29.0,
      "duration_beat": 0.125,
      "velocity": 127,
      "track": 3
    },
    {
      "pitch": 56,
      "start_beat": 29.125,
      "duration_beat": 0.125,
      "velocity": 127,
      "track": 3
    },
    {
      "pitch": 60,
      "start_beat": 29.25,
      "duration_beat": 0.125,
      "velocity": 127,
      "track": 3
    },
    {
      "pitch": 65,
      "start_beat": 29.375,
      "duration_beat": 0.125,
      "velocity": 127,
      "track": 3
    },
    {
      "pitch": 68,
      "start_beat": 29.5,
      "duration_beat": 0.125,
      "velocity": 127,
      "track": 3
    },
    {
      "pitch": 68,
      "start_beat": 29.5,
      "duration_beat": 0.497916666666665,
      "velocity": 80,
      "track": 0
    },
    {
      "pitch": 68,
      "start_beat": 29.5,
      "duration_beat": 0.497916666666665,
      "velocity": 100,
      "track": 2
    },
    {
      "pitch": 72,
      "start_beat": 29.5,
      "duration_beat": 0.497916666666665,
      "velocity": 100,
      "track": 2
    },
    {
      "pitch": 75,
      "start_beat": 29.5,
      "duration_beat": 0.497916666666665,
      "velocity": 100,
      "track": 2
    },
    {
      "pitch": 68,
      "start_beat": 29.5,
      "duration_beat": 0.125,
      "velocity": 127,
      "track": 3
    },
    {
      "pitch": 71,
      "start_beat": 29.625,
      "duration_beat": 0.125,
      "velocity": 127,
      "track": 3
    },
    {
      "pitch": 75,
      "start_beat": 29.75,
      "duration_beat": 0.125,
      "velocity": 127,
      "track": 3
    },
    {
      "pitch": 80,
      "start_beat": 29.875,
      "duration_beat": 0.125,
      "velocity": 127,
      "track": 3
    },
    {
      "pitch": 83,
      "start_beat": 30.0,
      "duration_beat": 0.125,
      "velocity": 127,
      "track": 3
    },
    {
      "pitch": 80,
      "start_beat": 29.5,
      "duration_beat": 0.497916666666665,
      "velocity": 80,
      "track": 0
    },
    {
      "pitch": 80,
      "start_beat": 29.5,
      "duration_beat": 0.497916666666665,
      "velocity": 100,
      "track": 2
    },
    {
      "pitch": 84,
      "start_beat": 29.5,
      "duration_beat": 0.497916666666665,
      "velocity": 100,
      "track": 2
    },
    {
      "pitch": 87,
      "start_beat": 29.5,
      "duration_beat": 0.497916666666665,
      "velocity": 100,
      "track": 2
    },
    {
      "pitch": 80,
      "start_beat": 29.5,
      "duration_beat": 0.125,
      "velocity": 127,
      "track": 3
    },
    {
      "pitch": 83,
      "start_beat": 29.625,
      "duration_beat": 0.125,
      "velocity": 127,
      "track": 3
    },
    {
      "pitch": 87,
      "start_beat": 29.75,
      "duration_beat": 0.125,
      "velocity": 127,
      "track": 3
    },
    {
      "pitch": 92,
      "start_beat": 29.875,
      "duration_beat": 0.125,
      "velocity": 127,
      "track": 3
    },
    {
      "pitch": 95,
      "start_beat": 30.0,
      "duration_beat": 0.125,
      "velocity": 127,
      "track": 3
    },
    {
      "pitch": 56,
      "start_beat": 29.5,
      "duration_beat": 0.497916666666665,
      "velocity": 80,
      "track": 1
    },
    {
      "pitch": 56,
      "start_beat": 29.5,
      "duration_beat": 0.497916666666665,
      "velocity": 100,
      "track": 2
    },
    {
      "pitch": 60,
      "start_beat": 29.5,
      "duration_beat": 0.497916666666665,
      "velocity": 100,
      "track": 2
    },
    {
      "pitch": 63,
      "start_beat": 29.5,
      "duration_beat": 0.497916666666665,
      "velocity": 100,
      "track": 2
    },
    {
      "pitch": 56,
      "start_beat": 29.5,
      "duration_beat": 0.125,
      "velocity": 127,
      "track": 3
    },
    {
      "pitch": 59,
      "start_beat": 29.625,
      "duration_beat": 0.125,
      "velocity": 127,
      "track": 3
    },
    {
      "pitch": 63,
      "start_beat": 29.75,
      "duration_beat": 0.125,
      "velocity": 127,
      "track": 3
    },
    {
      "pitch": 68,
      "start_beat": 29.875,
      "duration_beat": 0.125,
      "velocity": 127,
      "track": 3
    },
    {
      "pitch": 71,
      "start_beat": 30.0,
      "duration_beat": 0.125,
      "velocity": 127,
      "track": 3
    },
    {
      "pitch": 60,
      "start_beat": 30.0,
      "duration_beat": 0.997916666666665,
      "velocity": 80,
      "track": 0
    },
    {
      "pitch": 60,
      "start_beat": 30.0,
      "duration_beat": 0.997916666666665,
      "velocity": 100,
      "track": 2
    },
    {
      "pitch": 64,
      "start_beat": 30.0,
      "duration_beat": 0.997916666666665,
      "velocity": 100,
      "track": 2
    },
    {
      "pitch": 67,
      "start_beat": 30.0,
      "duration_beat": 0.997916666666665,
      "velocity": 100,
      "track": 2
    },
    {
      "pitch": 60,
      "start_beat": 30.0,
      "duration_beat": 0.125,
      "velocity": 127,
      "track": 3
    },
    {
      "pitch": 63,
      "start_beat": 30.125,
      "duration_beat": 0.125,
      "velocity": 127,
      "track": 3
    },
    {
      "pitch": 67,
      "start_beat": 30.25,
      "duration_beat": 0.125,
      "velocity": 127,
      "track": 3
    },
    {
      "pitch": 72,
      "start_beat": 30.375,
      "duration_beat": 0.125,
      "velocity": 127,
      "track": 3
    },
    {
      "pitch": 75,
      "start_beat": 30.5,
      "duration_beat": 0.125,
      "velocity": 127,
      "track": 3
    },
    {
      "pitch": 63,
      "start_beat": 31.0,
      "duration_beat": 0.997916666666665,
      "velocity": 80,
      "track": 0
    },
    {
      "pitch": 63,
      "start_beat": 31.0,
      "duration_beat": 0.997916666666665,
      "velocity": 100,
      "track": 2
    },
    {
      "pitch": 67,
      "start_beat": 31.0,
      "duration_beat": 0.997916666666665,
      "velocity": 100,
      "track": 2
    },
    {
      "pitch": 70,
      "start_beat": 31.0,
      "duration_beat": 0.997916666666665,
      "velocity": 100,
      "track": 2
    },
    {
      "pitch": 63,
      "start_beat": 31.0,
      "duration_beat": 0.125,
      "velocity": 127,
      "track": 3
    },
    {
      "pitch": 66,
      "start_beat": 31.125,
      "duration_beat": 0.125,
      "velocity": 127,
      "track": 3
    },
    {
      "pitch": 70,
      "start_beat": 31.25,
      "duration_beat": 0.125,
      "velocity": 127,
      "track": 3
    },
    {
      "pitch": 75,
      "start_beat": 31.375,
      "duration_beat": 0.125,
      "velocity": 127,
      "track": 3
    },
    {
      "pitch": 78,
      "start_beat": 31.5,
      "duration_beat": 0.125,
      "velocity": 127,
      "track": 3
    },
    {
      "pitch": 65,
      "start_beat": 32.0,
      "duration_beat": 0.49791666666666856,
      "velocity": 80,
      "track": 0
    },
    {
      "pitch": 65,
      "start_beat": 32.0,
      "duration_beat": 0.49791666666666856,
      "velocity": 100,
      "track": 2
    },
    {
      "pitch": 69,
      "start_beat": 32.0,
      "duration_beat": 0.49791666666666856,
      "velocity": 100,
      "track": 2
    },
    {
      "pitch": 72,
      "start_beat": 32.0,
      "duration_beat": 0.49791666666666856,
      "velocity": 100,
      "track": 2
    },
    {
      "pitch": 65,
      "start_beat": 32.0,
      "duration_beat": 0.125,
      "velocity": 127,
      "track": 3
    },
    {
      "pitch": 68,
      "start_beat": 32.125,
      "duration_beat": 0.125,
      "velocity": 127,
      "track": 3
    },
    {
      "pitch": 72,
      "start_beat": 32.25,
      "duration_beat": 0.125,
      "velocity": 127,
      "track": 3
    },
    {
      "pitch": 77,
      "start_beat": 32.375,
      "duration_beat": 0.125,
      "velocity": 127,
      "track": 3
    },
    {
      "pitch": 80,
      "start_beat": 32.5,
      "duration_beat": 0.125,
      "velocity": 127,
      "track": 3
    },
    {
      "pitch": 37,
      "start_beat": 32.0,
      "duration_beat": 0.49791666666666856,
      "velocity": 80,
      "track": 1
    },
    {
      "pitch": 37,
      "start_beat": 32.0,
      "duration_beat": 0.49791666666666856,
      "velocity": 100,
      "track": 2
    },
    {
      "pitch": 41,
      "start_beat": 32.0,
      "duration_beat": 0.49791666666666856,
      "velocity": 100,
      "track": 2
    },
    {
      "pitch": 44,
      "start_beat": 32.0,
      "duration_beat": 0.49791666666666856,
      "velocity": 100,
      "track": 2
    },
    {
      "pitch": 37,
      "start_beat": 32.0,
      "duration_beat": 0.125,
      "velocity": 127,
      "track": 3
    },
    {
      "pitch": 40,
      "start_beat": 32.125,
      "duration_beat": 0.125,
      "velocity": 127,
      "track": 3
    },
    {
      "pitch": 44,
      "start_beat": 32.25,
      "duration_beat": 0.125,
      "velocity": 127,
      "track": 3
    },
    {
      "pitch": 49,
      "start_beat": 32.375,
      "duration_beat": 0.125,
      "velocity": 127,
      "track": 3
    },
    {
      "pitch": 52,
      "start_beat": 32.5,
      "duration_beat": 0.125,
      "velocity": 127,
      "track": 3
    },
    {
      "pitch": 65,
      "start_beat": 32.5,
      "duration_beat": 0.49791666666666856,
      "velocity": 80,
      "track": 0
    },
    {
      "pitch": 65,
      "start_beat": 32.5,
      "duration_beat": 0.49791666666666856,
      "velocity": 100,
      "track": 2
    },
    {
      "pitch": 69,
      "start_beat": 32.5,
      "duration_beat": 0.49791666666666856,
      "velocity": 100,
      "track": 2
    },
    {
      "pitch": 72,
      "start_beat": 32.5,
      "duration_beat": 0.49791666666666856,
      "velocity": 100,
      "track": 2
    },
    {
      "pitch": 65,
      "start_beat": 32.5,
      "duration_beat": 0.125,
      "velocity": 127,
      "track": 3
    },
    {
      "pitch": 68,
      "start_beat": 32.625,
      "duration_beat": 0.125,
      "velocity": 127,
      "track": 3
    },
    {
      "pitch": 72,
      "start_beat": 32.75,
      "duration_beat": 0.125,
      "velocity": 127,
      "track": 3
    },
    {
      "pitch": 77,
      "start_beat": 32.875,
      "duration_beat": 0.125,
      "velocity": 127,
      "track": 3
    },
    {
      "pitch": 80,
      "start_beat": 33.0,
      "duration_beat": 0.125,
      "velocity": 127,
      "track": 3
    },
    {
      "pitch": 44,
      "start_beat": 32.5,
      "duration_beat": 0.49791666666666856,
      "velocity": 80,
      "track": 1
    },
    {
      "pitch": 44,
      "start_beat": 32.5,
      "duration_beat": 0.49791666666666856,
      "velocity": 100,
      "track": 2
    },
    {
      "pitch": 48,
      "start_beat": 32.5,
      "duration_beat": 0.49791666666666856,
      "velocity": 100,
      "track": 2
    },
    {
      "pitch": 51,
      "start_beat": 32.5,
      "duration_beat": 0.49791666666666856,
      "velocity": 100,
      "track": 2
    },
    {
      "pitch": 44,
      "start_beat": 32.5,
      "duration_beat": 0.125,
      "velocity": 127,
      "track": 3
    },
    {
      "pitch": 47,
      "start_beat": 32.625,
      "duration_beat": 0.125,
      "velocity": 127,
      "track": 3
    },
    {
      "pitch": 51,
      "start_beat": 32.75,
      "duration_beat": 0.125,
      "velocity": 127,
      "track": 3
    },
    {
      "pitch": 56,
      "start_beat": 32.875,
      "duration_beat": 0.125,
      "velocity": 127,
      "track": 3
    },
    {
      "pitch": 59,
      "start_beat": 33.0,
      "duration_beat": 0.125,
      "velocity": 127,
      "track": 3
    },
    {
      "pitch": 65,
      "start_beat": 33.0,
      "duration_beat": 0.49791666666666856,
      "velocity": 80,
      "track": 0
    },
    {
      "pitch": 65,
      "start_beat": 33.0,
      "duration_beat": 0.49791666666666856,
      "velocity": 100,
      "track": 2
    },
    {
      "pitch": 69,
      "start_beat": 33.0,
      "duration_beat": 0.49791666666666856,
      "velocity": 100,
      "track": 2
    },
    {
      "pitch": 72,
      "start_beat": 33.0,
      "duration_beat": 0.49791666666666856,
      "velocity": 100,
      "track": 2
    },
    {
      "pitch": 65,
      "start_beat": 33.0,
      "duration_beat": 0.125,
      "velocity": 127,
      "track": 3
    },
    {
      "pitch": 68,
      "start_beat": 33.125,
      "duration_beat": 0.125,
      "velocity": 127,
      "track": 3
    },
    {
      "pitch": 72,
      "start_beat": 33.25,
      "duration_beat": 0.125,
      "velocity": 127,
      "track": 3
    },
    {
      "pitch": 77,
      "start_beat": 33.375,
      "duration_beat": 0.125,
      "velocity": 127,
      "track": 3
    },
    {
      "pitch": 80,
      "start_beat": 33.5,
      "duration_beat": 0.125,
      "velocity": 127,
      "track": 3
    },
    {
      "pitch": 49,
      "start_beat": 33.0,
      "duration_beat": 0.49791666666666856,
      "velocity": 80,
      "track": 1
    },
    {
      "pitch": 49,
      "start_beat": 33.0,
      "duration_beat": 0.49791666666666856,
      "velocity": 100,
      "track": 2
    },
    {
      "pitch": 53,
      "start_beat": 33.0,
      "duration_beat": 0.49791666666666856,
      "velocity": 100,
      "track": 2
    },
    {
      "pitch": 56,
      "start_beat": 33.0,
      "duration_beat": 0.49791666666666856,
      "velocity": 100,
      "track": 2
    },
    {
      "pitch": 49,
      "start_beat": 33.0,
      "duration_beat": 0.125,
      "velocity": 127,
      "track": 3
    },
    {
      "pitch": 52,
      "start_beat": 33.125,
      "duration_beat": 0.125,
      "velocity": 127,
      "track": 3
    },
    {
      "pitch": 56,
      "start_beat": 33.25,
      "duration_beat": 0.125,
      "velocity": 127,
      "track": 3
    },
    {
      "pitch": 61,
      "start_beat": 33.375,
      "duration_beat": 0.125,
      "velocity": 127,
      "track": 3
    },
    {
      "pitch": 64,
      "start_beat": 33.5,
      "duration_beat": 0.125,
      "velocity": 127,
      "track": 3
    },
    {
      "pitch": 65,
      "start_beat": 33.5,
      "duration_beat": 0.49791666666666856,
      "velocity": 80,
      "track": 0
    },
    {
      "pitch": 65,
      "start_beat": 33.5,
      "duration_beat": 0.49791666666666856,
      "velocity": 100,
      "track": 2
    },
    {
      "pitch": 69,
      "start_beat": 33.5,
      "duration_beat": 0.49791666666666856,
      "velocity": 100,
      "track": 2
    },
    {
      "pitch": 72,
      "start_beat": 33.5,
      "duration_beat": 0.49791666666666856,
      "velocity": 100,
      "track": 2
    },
    {
      "pitch": 65,
      "start_beat": 33.5,
      "duration_beat": 0.125,
      "velocity": 127,
      "track": 3
    },
    {
      "pitch": 68,
      "start_beat": 33.625,
      "duration_beat": 0.125,
      "velocity": 127,
      "track": 3
    },
    {
      "pitch": 72,
      "start_beat": 33.75,
      "duration_beat": 0.125,
      "velocity": 127,
      "track": 3
    },
    {
      "pitch": 77,
      "start_beat": 33.875,
      "duration_beat": 0.125,
      "velocity": 127,
      "track": 3
    },
    {
      "pitch": 80,
      "start_beat": 34.0,
      "duration_beat": 0.125,
      "velocity": 127,
      "track": 3
    },
    {
      "pitch": 53,
      "start_beat": 33.5,
      "duration_beat": 0.49791666666666856,
      "velocity": 80,
      "track": 1
    },
    {
      "pitch": 53,
      "start_beat": 33.5,
      "duration_beat": 0.49791666666666856,
      "velocity": 100,
      "track": 2
    },
    {
      "pitch": 57,
      "start_beat": 33.5,
      "duration_beat": 0.49791666666666856,
      "velocity": 100,
      "track": 2
    },
    {
      "pitch": 60,
      "start_beat": 33.5,
      "duration_beat": 0.49791666666666856,
      "velocity": 100,
      "track": 2
    },
    {
      "pitch": 53,
      "start_beat": 33.5,
      "duration_beat": 0.125,
      "velocity": 127,
      "track": 3
    },
    {
      "pitch": 56,
      "start_beat": 33.625,
      "duration_beat": 0.125,
      "velocity": 127,
      "track": 3
    },
    {
      "pitch": 60,
      "start_beat": 33.75,
      "duration_beat": 0.125,
      "velocity": 127,
      "track": 3
    },
    {
      "pitch": 65,
      "start_beat": 33.875,
      "duration_beat": 0.125,
      "velocity": 127,
      "track": 3
    },
    {
      "pitch": 68,
      "start_beat": 34.0,
      "duration_beat": 0.125,
      "velocity": 127,
      "track": 3
    },
    {
      "pitch": 65,
      "start_beat": 34.0,
      "duration_beat": 0.49791666666666856,
      "velocity": 80,
      "track": 0
    },
    {
      "pitch": 65,
      "start_beat": 34.0,
      "duration_beat": 0.49791666666666856,
      "velocity": 100,
      "track": 2
    },
    {
      "pitch": 69,
      "start_beat": 34.0,
      "duration_beat": 0.49791666666666856,
      "velocity": 100,
      "track": 2
    },
    {
      "pitch": 72,
      "start_beat": 34.0,
      "duration_beat": 0.49791666666666856,
      "velocity": 100,
      "track": 2
    },
    {
      "pitch": 65,
      "start_beat": 34.0,
      "duration_beat": 0.125,
      "velocity": 127,
      "track": 3
    },
    {
      "pitch": 68,
      "start_beat": 34.125,
      "duration_beat": 0.125,
      "velocity": 127,
      "track": 3
    },
    {
      "pitch": 72,
      "start_beat": 34.25,
      "duration_beat": 0.125,
      "velocity": 127,
      "track": 3
    },
    {
      "pitch": 77,
      "start_beat": 34.375,
      "duration_beat": 0.125,
      "velocity": 127,
      "track": 3
    },
    {
      "pitch": 80,
      "start_beat": 34.5,
      "duration_beat": 0.125,
      "velocity": 127,
      "track": 3
    },
    {
      "pitch": 56,
      "start_beat": 34.0,
      "duration_beat": 0.49791666666666856,
      "velocity": 80,
      "track": 1
    },
    {
      "pitch": 56,
      "start_beat": 34.0,
      "duration_beat": 0.49791666666666856,
      "velocity": 100,
      "track": 2
    },
    {
      "pitch": 60,
      "start_beat": 34.0,
      "duration_beat": 0.49791666666666856,
      "velocity": 100,
      "track": 2
    },
    {
      "pitch": 63,
      "start_beat": 34.0,
      "duration_beat": 0.49791666666666856,
      "velocity": 100,
      "track": 2
    },
    {
      "pitch": 56,
      "start_beat": 34.0,
      "duration_beat": 0.125,
      "velocity": 127,
      "track": 3
    },
    {
      "pitch": 59,
      "start_beat": 34.125,
      "duration_beat": 0.125,
      "velocity": 127,
      "track": 3
    },
    {
      "pitch": 63,
      "start_beat": 34.25,
      "duration_beat": 0.125,
      "velocity": 127,
      "track": 3
    },
    {
      "pitch": 68,
      "start_beat": 34.375,
      "duration_beat": 0.125,
      "velocity": 127,
      "track": 3
    },
    {
      "pitch": 71,
      "start_beat": 34.5,
      "duration_beat": 0.125,
      "velocity": 127,
      "track": 3
    },
    {
      "pitch": 65,
      "start_beat": 34.5,
      "duration_beat": 0.49791666666666856,
      "velocity": 80,
      "track": 0
    },
    {
      "pitch": 65,
      "start_beat": 34.5,
      "duration_beat": 0.49791666666666856,
      "velocity": 100,
      "track": 2
    },
    {
      "pitch": 69,
      "start_beat": 34.5,
      "duration_beat": 0.49791666666666856,
      "velocity": 100,
      "track": 2
    },
    {
      "pitch": 72,
      "start_beat": 34.5,
      "duration_beat": 0.49791666666666856,
      "velocity": 100,
      "track": 2
    },
    {
      "pitch": 65,
      "start_beat": 34.5,
      "duration_beat": 0.125,
      "velocity": 127,
      "track": 3
    },
    {
      "pitch": 68,
      "start_beat": 34.625,
      "duration_beat": 0.125,
      "velocity": 127,
      "track": 3
    },
    {
      "pitch": 72,
      "start_beat": 34.75,
      "duration_beat": 0.125,
      "velocity": 127,
      "track": 3
    },
    {
      "pitch": 77,
      "start_beat": 34.875,
      "duration_beat": 0.125,
      "velocity": 127,
      "track": 3
    },
    {
      "pitch": 80,
      "start_beat": 35.0,
      "duration_beat": 0.125,
      "velocity": 127,
      "track": 3
    },
    {
      "pitch": 72,
      "start_beat": 35.0,
      "duration_beat": 0.49791666666666856,
      "velocity": 80,
      "track": 0
    },
    {
      "pitch": 72,
      "start_beat": 35.0,
      "duration_beat": 0.49791666666666856,
      "velocity": 100,
      "track": 2
    },
    {
      "pitch": 76,
      "start_beat": 35.0,
      "duration_beat": 0.49791666666666856,
      "velocity": 100,
      "track": 2
    },
    {
      "pitch": 79,
      "start_beat": 35.0,
      "duration_beat": 0.49791666666666856,
      "velocity": 100,
      "track": 2
    },
    {
      "pitch": 72,
      "start_beat": 35.0,
      "duration_beat": 0.125,
      "velocity": 127,
      "track": 3
    },
    {
      "pitch": 75,
      "start_beat": 35.125,
      "duration_beat": 0.125,
      "velocity": 127,
      "track": 3
    },
    {
      "pitch": 79,
      "start_beat": 35.25,
      "duration_beat": 0.125,
      "velocity": 127,
      "track": 3
    },
    {
      "pitch": 84,
      "start_beat": 35.375,
      "duration_beat": 0.125,
      "velocity": 127,
      "track": 3
    },
    {
      "pitch": 87,
      "start_beat": 35.5,
      "duration_beat": 0.125,
      "velocity": 127,
      "track": 3
    },
    {
      "pitch": 53,
      "start_beat": 35.0,
      "duration_beat": 0.49791666666666856,
      "velocity": 80,
      "track": 1
    },
    {
      "pitch": 53,
      "start_beat": 35.0,
      "duration_beat": 0.49791666666666856,
      "velocity": 100,
      "track": 2
    },
    {
      "pitch": 57,
      "start_beat": 35.0,
      "duration_beat": 0.49791666666666856,
      "velocity": 100,
      "track": 2
    },
    {
      "pitch": 60,
      "start_beat": 35.0,
      "duration_beat": 0.49791666666666856,
      "velocity": 100,
      "track": 2
    },
    {
      "pitch": 53,
      "start_beat": 35.0,
      "duration_beat": 0.125,
      "velocity": 127,
      "track": 3
    },
    {
      "pitch": 56,
      "start_beat": 35.125,
      "duration_beat": 0.125,
      "velocity": 127,
      "track": 3
    },
    {
      "pitch": 60,
      "start_beat": 35.25,
      "duration_beat": 0.125,
      "velocity": 127,
      "track": 3
    },
    {
      "pitch": 65,
      "start_beat": 35.375,
      "duration_beat": 0.125,
      "velocity": 127,
      "track": 3
    },
    {
      "pitch": 68,
      "start_beat": 35.5,
      "duration_beat": 0.125,
      "velocity": 127,
      "track": 3
    },
    {
      "pitch": 68,
      "start_beat": 35.5,
      "duration_beat": 0.49791666666666856,
      "velocity": 80,
      "track": 0
    },
    {
      "pitch": 68,
      "start_beat": 35.5,
      "duration_beat": 0.49791666666666856,
      "velocity": 100,
      "track": 2
    },
    {
      "pitch": 72,
      "start_beat": 35.5,
      "duration_beat": 0.49791666666666856,
      "velocity": 100,
      "track": 2
    },
    {
      "pitch": 75,
      "start_beat": 35.5,
      "duration_beat": 0.49791666666666856,
      "velocity": 100,
      "track": 2
    },
    {
      "pitch": 68,
      "start_beat": 35.5,
      "duration_beat": 0.125,
      "velocity": 127,
      "track": 3
    },
    {
      "pitch": 71,
      "start_beat": 35.625,
      "duration_beat": 0.125,
      "velocity": 127,
      "track": 3
    },
    {
      "pitch": 75,
      "start_beat": 35.75,
      "duration_beat": 0.125,
      "velocity": 127,
      "track": 3
    },
    {
      "pitch": 80,
      "start_beat": 35.875,
      "duration_beat": 0.125,
      "velocity": 127,
      "track": 3
    },
    {
      "pitch": 83,
      "start_beat": 36.0,
      "duration_beat": 0.125,
      "velocity": 127,
      "track": 3
    },
    {
      "pitch": 56,
      "start_beat": 35.5,
      "duration_beat": 0.49791666666666856,
      "velocity": 80,
      "track": 1
    },
    {
      "pitch": 56,
      "start_beat": 35.5,
      "duration_beat": 0.49791666666666856,
      "velocity": 100,
      "track": 2
    },
    {
      "pitch": 60,
      "start_beat": 35.5,
      "duration_beat": 0.49791666666666856,
      "velocity": 100,
      "track": 2
    },
    {
      "pitch": 63,
      "start_beat": 35.5,
      "duration_beat": 0.49791666666666856,
      "velocity": 100,
      "track": 2
    },
    {
      "pitch": 56,
      "start_beat": 35.5,
      "duration_beat": 0.125,
      "velocity": 127,
      "track": 3
    },
    {
      "pitch": 59,
      "start_beat": 35.625,
      "duration_beat": 0.125,
      "velocity": 127,
      "track": 3
    },
    {
      "pitch": 63,
      "start_beat": 35.75,
      "duration_beat": 0.125,
      "velocity": 127,
      "track": 3
    },
    {
      "pitch": 68,
      "start_beat": 35.875,
      "duration_beat": 0.125,
      "velocity": 127,
      "track": 3
    },
    {
      "pitch": 71,
      "start_beat": 36.0,
      "duration_beat": 0.125,
      "velocity": 127,
      "track": 3
    },
    {
      "pitch": 70,
      "start_beat": 36.0,
      "duration_beat": 0.49791666666666856,
      "velocity": 80,
      "track": 0
    },
    {
      "pitch": 70,
      "start_beat": 36.0,
      "duration_beat": 0.49791666666666856,
      "velocity": 100,
      "track": 2
    },
    {
      "pitch": 74,
      "start_beat": 36.0,
      "duration_beat": 0.49791666666666856,
      "velocity": 100,
      "track": 2
    },
    {
      "pitch": 77,
      "start_beat": 36.0,
      "duration_beat": 0.49791666666666856,
      "velocity": 100,
      "track": 2
    },
    {
      "pitch": 70,
      "start_beat": 36.0,
      "duration_beat": 0.125,
      "velocity": 127,
      "track": 3
    },
    {
      "pitch": 73,
      "start_beat": 36.125,
      "duration_beat": 0.125,
      "velocity": 127,
      "track": 3
    },
    {
      "pitch": 77,
      "start_beat": 36.25,
      "duration_beat": 0.125,
      "velocity": 127,
      "track": 3
    },
    {
      "pitch": 82,
      "start_beat": 36.375,
      "duration_beat": 0.125,
      "velocity": 127,
      "track": 3
    },
    {
      "pitch": 85,
      "start_beat": 36.5,
      "duration_beat": 0.125,
      "velocity": 127,
      "track": 3
    },
    {
      "pitch": 39,
      "start_beat": 36.0,
      "duration_beat": 0.49791666666666856,
      "velocity": 80,
      "track": 1
    },
    {
      "pitch": 39,
      "start_beat": 36.0,
      "duration_beat": 0.49791666666666856,
      "velocity": 100,
      "track": 2
    },
    {
      "pitch": 43,
      "start_beat": 36.0,
      "duration_beat": 0.49791666666666856,
      "velocity": 100,
      "track": 2
    },
    {
      "pitch": 46,
      "start_beat": 36.0,
      "duration_beat": 0.49791666666666856,
      "velocity": 100,
      "track": 2
    },
    {
      "pitch": 39,
      "start_beat": 36.0,
      "duration_beat": 0.125,
      "velocity": 127,
      "track": 3
    },
    {
      "pitch": 42,
      "start_beat": 36.125,
      "duration_beat": 0.125,
      "velocity": 127,
      "track": 3
    },
    {
      "pitch": 46,
      "start_beat": 36.25,
      "duration_beat": 0.125,
      "velocity": 127,
      "track": 3
    },
    {
      "pitch": 51,
      "start_beat": 36.375,
      "duration_beat": 0.125,
      "velocity": 127,
      "track": 3
    },
    {
      "pitch": 54,
      "start_beat": 36.5,
      "duration_beat": 0.125,
      "velocity": 127,
      "track": 3
    },
    {
      "pitch": 46,
      "start_beat": 36.5,
      "duration_beat": 0.49791666666666856,
      "velocity": 80,
      "track": 1
    },
    {
      "pitch": 46,
      "start_beat": 36.5,
      "duration_beat": 0.49791666666666856,
      "velocity": 100,
      "track": 2
    },
    {
      "pitch": 50,
      "start_beat": 36.5,
      "duration_beat": 0.49791666666666856,
      "velocity": 100,
      "track": 2
    },
    {
      "pitch": 53,
      "start_beat": 36.5,
      "duration_beat": 0.49791666666666856,
      "velocity": 100,
      "track": 2
    },
    {
      "pitch": 46,
      "start_beat": 36.5,
      "duration_beat": 0.125,
      "velocity": 127,
      "track": 3
    },
    {
      "pitch": 49,
      "start_beat": 36.625,
      "duration_beat": 0.125,
      "velocity": 127,
      "track": 3
    },
    {
      "pitch": 53,
      "start_beat": 36.75,
      "duration_beat": 0.125,
      "velocity": 127,
      "track": 3
    },
    {
      "pitch": 58,
      "start_beat": 36.875,
      "duration_beat": 0.125,
      "velocity": 127,
      "track": 3
    },
    {
      "pitch": 61,
      "start_beat": 37.0,
      "duration_beat": 0.125,
      "velocity": 127,
      "track": 3
    },
    {
      "pitch": 51,
      "start_beat": 37.0,
      "duration_beat": 0.49791666666666856,
      "velocity": 80,
      "track": 1
    },
    {
      "pitch": 51,
      "start_beat": 37.0,
      "duration_beat": 0.49791666666666856,
      "velocity": 100,
      "track": 2
    },
    {
      "pitch": 55,
      "start_beat": 37.0,
      "duration_beat": 0.49791666666666856,
      "velocity": 100,
      "track": 2
    },
    {
      "pitch": 58,
      "start_beat": 37.0,
      "duration_beat": 0.49791666666666856,
      "velocity": 100,
      "track": 2
    },
    {
      "pitch": 51,
      "start_beat": 37.0,
      "duration_beat": 0.125,
      "velocity": 127,
      "track": 3
    },
    {
      "pitch": 54,
      "start_beat": 37.125,
      "duration_beat": 0.125,
      "velocity": 127,
      "track": 3
    },
    {
      "pitch": 58,
      "start_beat": 37.25,
      "duration_beat": 0.125,
      "velocity": 127,
      "track": 3
    },
    {
      "pitch": 63,
      "start_beat": 37.375,
      "duration_beat": 0.125,
      "velocity": 127,
      "track": 3
    },
    {
      "pitch": 66,
      "start_beat": 37.5,
      "duration_beat": 0.125,
      "velocity": 127,
      "track": 3
    },
    {
      "pitch": 72,
      "start_beat": 37.5,
      "duration_beat": 0.49791666666666856,
      "velocity": 80,
      "track": 0
    },
    {
      "pitch": 72,
      "start_beat": 37.5,
      "duration_beat": 0.49791666666666856,
      "velocity": 100,
      "track": 2
    },
    {
      "pitch": 76,
      "start_beat": 37.5,
      "duration_beat": 0.49791666666666856,
      "velocity": 100,
      "track": 2
    },
    {
      "pitch": 79,
      "start_beat": 37.5,
      "duration_beat": 0.49791666666666856,
      "velocity": 100,
      "track": 2
    },
    {
      "pitch": 72,
      "start_beat": 37.5,
      "duration_beat": 0.125,
      "velocity": 127,
      "track": 3
    },
    {
      "pitch": 75,
      "start_beat": 37.625,
      "duration_beat": 0.125,
      "velocity": 127,
      "track": 3
    },
    {
      "pitch": 79,
      "start_beat": 37.75,
      "duration_beat": 0.125,
      "velocity": 127,
      "track": 3
    },
    {
      "pitch": 84,
      "start_beat": 37.875,
      "duration_beat": 0.125,
      "velocity": 127,
      "track": 3
    },
    {
      "pitch": 87,
      "start_beat": 38.0,
      "duration_beat": 0.125,
      "velocity": 127,
      "track": 3
    },
    {
      "pitch": 55,
      "start_beat": 37.5,
      "duration_beat": 0.49791666666666856,
      "velocity": 80,
      "track": 1
    },
    {
      "pitch": 55,
      "start_beat": 37.5,
      "duration_beat": 0.49791666666666856,
      "velocity": 100,
      "track": 2
    },
    {
      "pitch": 59,
      "start_beat": 37.5,
      "duration_beat": 0.49791666666666856,
      "velocity": 100,
      "track": 2
    },
    {
      "pitch": 62,
      "start_beat": 37.5,
      "duration_beat": 0.49791666666666856,
      "velocity": 100,
      "track": 2
    },
    {
      "pitch": 55,
      "start_beat": 37.5,
      "duration_beat": 0.125,
      "velocity": 127,
      "track": 3
    },
    {
      "pitch": 58,
      "start_beat": 37.625,
      "duration_beat": 0.125,
      "velocity": 127,
      "track": 3
    },
    {
      "pitch": 62,
      "start_beat": 37.75,
      "duration_beat": 0.125,
      "velocity": 127,
      "track": 3
    },
    {
      "pitch": 67,
      "start_beat": 37.875,
      "duration_beat": 0.125,
      "velocity": 127,
      "track": 3
    },
    {
      "pitch": 70,
      "start_beat": 38.0,
      "duration_beat": 0.125,
      "velocity": 127,
      "track": 3
    },
    {
      "pitch": 70,
      "start_beat": 38.0,
      "duration_beat": 0.49791666666666856,
      "velocity": 80,
      "track": 0
    },
    {
      "pitch": 70,
      "start_beat": 38.0,
      "duration_beat": 0.49791666666666856,
      "velocity": 100,
      "track": 2
    },
    {
      "pitch": 74,
      "start_beat": 38.0,
      "duration_beat": 0.49791666666666856,
      "velocity": 100,
      "track": 2
    },
    {
      "pitch": 77,
      "start_beat": 38.0,
      "duration_beat": 0.49791666666666856,
      "velocity": 100,
      "track": 2
    },
    {
      "pitch": 70,
      "start_beat": 38.0,
      "duration_beat": 0.125,
      "velocity": 127,
      "track": 3
    },
    {
      "pitch": 73,
      "start_beat": 38.125,
      "duration_beat": 0.125,
      "velocity": 127,
      "track": 3
    },
    {
      "pitch": 77,
      "start_beat": 38.25,
      "duration_beat": 0.125,
      "velocity": 127,
      "track": 3
    },
    {
      "pitch": 82,
      "start_beat": 38.375,
      "duration_beat": 0.125,
      "velocity": 127,
      "track": 3
    },
    {
      "pitch": 85,
      "start_beat": 38.5,
      "duration_beat": 0.125,
      "velocity": 127,
      "track": 3
    },
    {
      "pitch": 58,
      "start_beat": 38.0,
      "duration_beat": 0.49791666666666856,
      "velocity": 80,
      "track": 1
    },
    {
      "pitch": 58,
      "start_beat": 38.0,
      "duration_beat": 0.49791666666666856,
      "velocity": 100,
      "track": 2
    },
    {
      "pitch": 62,
      "start_beat": 38.0,
      "duration_beat": 0.49791666666666856,
      "velocity": 100,
      "track": 2
    },
    {
      "pitch": 65,
      "start_beat": 38.0,
      "duration_beat": 0.49791666666666856,
      "velocity": 100,
      "track": 2
    },
    {
      "pitch": 58,
      "start_beat": 38.0,
      "duration_beat": 0.125,
      "velocity": 127,
      "track": 3
    },
    {
      "pitch": 61,
      "start_beat": 38.125,
      "duration_beat": 0.125,
      "velocity": 127,
      "track": 3
    },
    {
      "pitch": 65,
      "start_beat": 38.25,
      "duration_beat": 0.125,
      "velocity": 127,
      "track": 3
    },
    {
      "pitch": 70,
      "start_beat": 38.375,
      "duration_beat": 0.125,
      "velocity": 127,
      "track": 3
    },
    {
      "pitch": 73,
      "start_beat": 38.5,
      "duration_beat": 0.125,
      "velocity": 127,
      "track": 3
    },
    {
      "pitch": 68,
      "start_beat": 38.5,
      "duration_beat": 0.49791666666666856,
      "velocity": 80,
      "track": 0
    },
    {
      "pitch": 68,
      "start_beat": 38.5,
      "duration_beat": 0.49791666666666856,
      "velocity": 100,
      "track": 2
    },
    {
      "pitch": 72,
      "start_beat": 38.5,
      "duration_beat": 0.49791666666666856,
      "velocity": 100,
      "track": 2
    },
    {
      "pitch": 75,
      "start_beat": 38.5,
      "duration_beat": 0.49791666666666856,
      "velocity": 100,
      "track": 2
    },
    {
      "pitch": 68,
      "start_beat": 38.5,
      "duration_beat": 0.125,
      "velocity": 127,
      "track": 3
    },
    {
      "pitch": 71,
      "start_beat": 38.625,
      "duration_beat": 0.125,
      "velocity": 127,
      "track": 3
    },
    {
      "pitch": 75,
      "start_beat": 38.75,
      "duration_beat": 0.125,
      "velocity": 127,
      "track": 3
    },
    {
      "pitch": 80,
      "start_beat": 38.875,
      "duration_beat": 0.125,
      "velocity": 127,
      "track": 3
    },
    {
      "pitch": 83,
      "start_beat": 39.0,
      "duration_beat": 0.125,
      "velocity": 127,
      "track": 3
    },
    {
      "pitch": 67,
      "start_beat": 39.0,
      "duration_beat": 0.49791666666666856,
      "velocity": 80,
      "track": 0
    },
    {
      "pitch": 67,
      "start_beat": 39.0,
      "duration_beat": 0.49791666666666856,
      "velocity": 100,
      "track": 2
    },
    {
      "pitch": 71,
      "start_beat": 39.0,
      "duration_beat": 0.49791666666666856,
      "velocity": 100,
      "track": 2
    },
    {
      "pitch": 74,
      "start_beat": 39.0,
      "duration_beat": 0.49791666666666856,
      "velocity": 100,
      "track": 2
    },
    {
      "pitch": 67,
      "start_beat": 39.0,
      "duration_beat": 0.125,
      "velocity": 127,
      "track": 3
    },
    {
      "pitch": 70,
      "start_beat": 39.125,
      "duration_beat": 0.125,
      "velocity": 127,
      "track": 3
    },
    {
      "pitch": 74,
      "start_beat": 39.25,
      "duration_beat": 0.125,
      "velocity": 127,
      "track": 3
    },
    {
      "pitch": 79,
      "start_beat": 39.375,
      "duration_beat": 0.125,
      "velocity": 127,
      "track": 3
    },
    {
      "pitch": 82,
      "start_beat": 39.5,
      "duration_beat": 0.125,
      "velocity": 127,
      "track": 3
    },
    {
      "pitch": 55,
      "start_beat": 39.0,
      "duration_beat": 0.49791666666666856,
      "velocity": 80,
      "track": 1
    },
    {
      "pitch": 55,
      "start_beat": 39.0,
      "duration_beat": 0.49791666666666856,
      "velocity": 100,
      "track": 2
    },
    {
      "pitch": 59,
      "start_beat": 39.0,
      "duration_beat": 0.49791666666666856,
      "velocity": 100,
      "track": 2
    },
    {
      "pitch": 62,
      "start_beat": 39.0,
      "duration_beat": 0.49791666666666856,
      "velocity": 100,
      "track": 2
    },
    {
      "pitch": 55,
      "start_beat": 39.0,
      "duration_beat": 0.125,
      "velocity": 127,
      "track": 3
    },
    {
      "pitch": 58,
      "start_beat": 39.125,
      "duration_beat": 0.125,
      "velocity": 127,
      "track": 3
    },
    {
      "pitch": 62,
      "start_beat": 39.25,
      "duration_beat": 0.125,
      "velocity": 127,
      "track": 3
    },
    {
      "pitch": 67,
      "start_beat": 39.375,
      "duration_beat": 0.125,
      "velocity": 127,
      "track": 3
    },
    {
      "pitch": 70,
      "start_beat": 39.5,
      "duration_beat": 0.125,
      "velocity": 127,
      "track": 3
    },
    {
      "pitch": 68,
      "start_beat": 39.5,
      "duration_beat": 0.49791666666666856,
      "velocity": 80,
      "track": 0
    },
    {
      "pitch": 68,
      "start_beat": 39.5,
      "duration_beat": 0.49791666666666856,
      "velocity": 100,
      "track": 2
    },
    {
      "pitch": 72,
      "start_beat": 39.5,
      "duration_beat": 0.49791666666666856,
      "velocity": 100,
      "track": 2
    },
    {
      "pitch": 75,
      "start_beat": 39.5,
      "duration_beat": 0.49791666666666856,
      "velocity": 100,
      "track": 2
    },
    {
      "pitch": 68,
      "start_beat": 39.5,
      "duration_beat": 0.125,
      "velocity": 127,
      "track": 3
    },
    {
      "pitch": 71,
      "start_beat": 39.625,
      "duration_beat": 0.125,
      "velocity": 127,
      "track": 3
    },
    {
      "pitch": 75,
      "start_beat": 39.75,
      "duration_beat": 0.125,
      "velocity": 127,
      "track": 3
    },
    {
      "pitch": 80,
      "start_beat": 39.875,
      "duration_beat": 0.125,
      "velocity": 127,
      "track": 3
    },
    {
      "pitch": 83,
      "start_beat": 40.0,
      "duration_beat": 0.125,
      "velocity": 127,
      "track": 3
    },
    {
      "pitch": 58,
      "start_beat": 39.5,
      "duration_beat": 0.49791666666666856,
      "velocity": 80,
      "track": 1
    },
    {
      "pitch": 58,
      "start_beat": 39.5,
      "duration_beat": 0.49791666666666856,
      "velocity": 100,
      "track": 2
    },
    {
      "pitch": 62,
      "start_beat": 39.5,
      "duration_beat": 0.49791666666666856,
      "velocity": 100,
      "track": 2
    },
    {
      "pitch": 65,
      "start_beat": 39.5,
      "duration_beat": 0.49791666666666856,
      "velocity": 100,
      "track": 2
    },
    {
      "pitch": 58,
      "start_beat": 39.5,
      "duration_beat": 0.125,
      "velocity": 127,
      "track": 3
    },
    {
      "pitch": 61,
      "start_beat": 39.625,
      "duration_beat": 0.125,
      "velocity": 127,
      "track": 3
    },
    {
      "pitch": 65,
      "start_beat": 39.75,
      "duration_beat": 0.125,
      "velocity": 127,
      "track": 3
    },
    {
      "pitch": 70,
      "start_beat": 39.875,
      "duration_beat": 0.125,
      "velocity": 127,
      "track": 3
    },
    {
      "pitch": 73,
      "start_beat": 40.0,
      "duration_beat": 0.125,
      "velocity": 127,
      "track": 3
    },
    {
      "pitch": 70,
      "start_beat": 40.0,
      "duration_beat": 0.49791666666666856,
      "velocity": 80,
      "track": 0
    },
    {
      "pitch": 70,
      "start_beat": 40.0,
      "duration_beat": 0.49791666666666856,
      "velocity": 100,
      "track": 2
    },
    {
      "pitch": 74,
      "start_beat": 40.0,
      "duration_beat": 0.49791666666666856,
      "velocity": 100,
      "track": 2
    },
    {
      "pitch": 77,
      "start_beat": 40.0,
      "duration_beat": 0.49791666666666856,
      "velocity": 100,
      "track": 2
    },
    {
      "pitch": 70,
      "start_beat": 40.0,
      "duration_beat": 0.125,
      "velocity": 127,
      "track": 3
    },
    {
      "pitch": 73,
      "start_beat": 40.125,
      "duration_beat": 0.125,
      "velocity": 127,
      "track": 3
    },
    {
      "pitch": 77,
      "start_beat": 40.25,
      "duration_beat": 0.125,
      "velocity": 127,
      "track": 3
    },
    {
      "pitch": 82,
      "start_beat": 40.375,
      "duration_beat": 0.125,
      "velocity": 127,
      "track": 3
    },
    {
      "pitch": 85,
      "start_beat": 40.5,
      "duration_beat": 0.125,
      "velocity": 127,
      "track": 3
    },
    {
      "pitch": 44,
      "start_beat": 40.0,
      "duration_beat": 0.49791666666666856,
      "velocity": 80,
      "track": 1
    },
    {
      "pitch": 44,
      "start_beat": 40.0,
      "duration_beat": 0.49791666666666856,
      "velocity": 100,
      "track": 2
    },
    {
      "pitch": 48,
      "start_beat": 40.0,
      "duration_beat": 0.49791666666666856,
      "velocity": 100,
      "track": 2
    },
    {
      "pitch": 51,
      "start_beat": 40.0,
      "duration_beat": 0.49791666666666856,
      "velocity": 100,
      "track": 2
    },
    {
      "pitch": 44,
      "start_beat": 40.0,
      "duration_beat": 0.125,
      "velocity": 127,
      "track": 3
    },
    {
      "pitch": 47,
      "start_beat": 40.125,
      "duration_beat": 0.125,
      "velocity": 127,
      "track": 3
    },
    {
      "pitch": 51,
      "start_beat": 40.25,
      "duration_beat": 0.125,
      "velocity": 127,
      "track": 3
    },
    {
      "pitch": 56,
      "start_beat": 40.375,
      "duration_beat": 0.125,
      "velocity": 127,
      "track": 3
    },
    {
      "pitch": 59,
      "start_beat": 40.5,
      "duration_beat": 0.125,
      "velocity": 127,
      "track": 3
    },
    {
      "pitch": 51,
      "start_beat": 40.5,
      "duration_beat": 0.49791666666666856,
      "velocity": 80,
      "track": 1
    },
    {
      "pitch": 51,
      "start_beat": 40.5,
      "duration_beat": 0.49791666666666856,
      "velocity": 100,
      "track": 2
    },
    {
      "pitch": 55,
      "start_beat": 40.5,
      "duration_beat": 0.49791666666666856,
      "velocity": 100,
      "track": 2
    },
    {
      "pitch": 58,
      "start_beat": 40.5,
      "duration_beat": 0.49791666666666856,
      "velocity": 100,
      "track": 2
    },
    {
      "pitch": 51,
      "start_beat": 40.5,
      "duration_beat": 0.125,
      "velocity": 127,
      "track": 3
    },
    {
      "pitch": 54,
      "start_beat": 40.625,
      "duration_beat": 0.125,
      "velocity": 127,
      "track": 3
    },
    {
      "pitch": 58,
      "start_beat": 40.75,
      "duration_beat": 0.125,
      "velocity": 127,
      "track": 3
    },
    {
      "pitch": 63,
      "start_beat": 40.875,
      "duration_beat": 0.125,
      "velocity": 127,
      "track": 3
    },
    {
      "pitch": 66,
      "start_beat": 41.0,
      "duration_beat": 0.125,
      "velocity": 127,
      "track": 3
    },
    {
      "pitch": 68,
      "start_beat": 41.0,
      "duration_beat": 0.49791666666666856,
      "velocity": 80,
      "track": 0
    },
    {
      "pitch": 68,
      "start_beat": 41.0,
      "duration_beat": 0.49791666666666856,
      "velocity": 100,
      "track": 2
    },
    {
      "pitch": 72,
      "start_beat": 41.0,
      "duration_beat": 0.49791666666666856,
      "velocity": 100,
      "track": 2
    },
    {
      "pitch": 75,
      "start_beat": 41.0,
      "duration_beat": 0.49791666666666856,
      "velocity": 100,
      "track": 2
    },
    {
      "pitch": 68,
      "start_beat": 41.0,
      "duration_beat": 0.125,
      "velocity": 127,
      "track": 3
    },
    {
      "pitch": 71,
      "start_beat": 41.125,
      "duration_beat": 0.125,
      "velocity": 127,
      "track": 3
    },
    {
      "pitch": 75,
      "start_beat": 41.25,
      "duration_beat": 0.125,
      "velocity": 127,
      "track": 3
    },
    {
      "pitch": 80,
      "start_beat": 41.375,
      "duration_beat": 0.125,
      "velocity": 127,
      "track": 3
    },
    {
      "pitch": 83,
      "start_beat": 41.5,
      "duration_beat": 0.125,
      "velocity": 127,
      "track": 3
    },
    {
      "pitch": 56,
      "start_beat": 41.0,
      "duration_beat": 0.49791666666666856,
      "velocity": 80,
      "track": 1
    },
    {
      "pitch": 56,
      "start_beat": 41.0,
      "duration_beat": 0.49791666666666856,
      "velocity": 100,
      "track": 2
    },
    {
      "pitch": 60,
      "start_beat": 41.0,
      "duration_beat": 0.49791666666666856,
      "velocity": 100,
      "track": 2
    },
    {
      "pitch": 63,
      "start_beat": 41.0,
      "duration_beat": 0.49791666666666856,
      "velocity": 100,
      "track": 2
    },
    {
      "pitch": 56,
      "start_beat": 41.0,
      "duration_beat": 0.125,
      "velocity": 127,
      "track": 3
    },
    {
      "pitch": 59,
      "start_beat": 41.125,
      "duration_beat": 0.125,
      "velocity": 127,
      "track": 3
    },
    {
      "pitch": 63,
      "start_beat": 41.25,
      "duration_beat": 0.125,
      "velocity": 127,
      "track": 3
    },
    {
      "pitch": 68,
      "start_beat": 41.375,
      "duration_beat": 0.125,
      "velocity": 127,
      "track": 3
    },
    {
      "pitch": 71,
      "start_beat": 41.5,
      "duration_beat": 0.125,
      "velocity": 127,
      "track": 3
    },
    {
      "pitch": 68,
      "start_beat": 41.5,
      "duration_beat": 0.49791666666666856,
      "velocity": 80,
      "track": 0
    },
    {
      "pitch": 68,
      "start_beat": 41.5,
      "duration_beat": 0.49791666666666856,
      "velocity": 100,
      "track": 2
    },
    {
      "pitch": 72,
      "start_beat": 41.5,
      "duration_beat": 0.49791666666666856,
      "velocity": 100,
      "track": 2
    },
    {
      "pitch": 75,
      "start_beat": 41.5,
      "duration_beat": 0.49791666666666856,
      "velocity": 100,
      "track": 2
    },
    {
      "pitch": 68,
      "start_beat": 41.5,
      "duration_beat": 0.125,
      "velocity": 127,
      "track": 3
    },
    {
      "pitch": 71,
      "start_beat": 41.625,
      "duration_beat": 0.125,
      "velocity": 127,
      "track": 3
    },
    {
      "pitch": 75,
      "start_beat": 41.75,
      "duration_beat": 0.125,
      "velocity": 127,
      "track": 3
    },
    {
      "pitch": 80,
      "start_beat": 41.875,
      "duration_beat": 0.125,
      "velocity": 127,
      "track": 3
    },
    {
      "pitch": 83,
      "start_beat": 42.0,
      "duration_beat": 0.125,
      "velocity": 127,
      "track": 3
    },
    {
      "pitch": 75,
      "start_beat": 41.5,
      "duration_beat": 0.49791666666666856,
      "velocity": 80,
      "track": 0
    },
    {
      "pitch": 75,
      "start_beat": 41.5,
      "duration_beat": 0.49791666666666856,
      "velocity": 100,
      "track": 2
    },
    {
      "pitch": 79,
      "start_beat": 41.5,
      "duration_beat": 0.49791666666666856,
      "velocity": 100,
      "track": 2
    },
    {
      "pitch": 82,
      "start_beat": 41.5,
      "duration_beat": 0.49791666666666856,
      "velocity": 100,
      "track": 2
    },
    {
      "pitch": 75,
      "start_beat": 41.5,
      "duration_beat": 0.125,
      "velocity": 127,
      "track": 3
    },
    {
      "pitch": 78,
      "start_beat": 41.625,
      "duration_beat": 0.125,
      "velocity": 127,
      "track": 3
    },
    {
      "pitch": 82,
      "start_beat": 41.75,
      "duration_beat": 0.125,
      "velocity": 127,
      "track": 3
    },
    {
      "pitch": 87,
      "start_beat": 41.875,
      "duration_beat": 0.125,
      "velocity": 127,
      "track": 3
    },
    {
      "pitch": 90,
      "start_beat": 42.0,
      "duration_beat": 0.125,
      "velocity": 127,
      "track": 3
    },
    {
      "pitch": 32,
      "start_beat": 41.5,
      "duration_beat": 0.49791666666666856,
      "velocity": 80,
      "track": 1
    },
    {
      "pitch": 32,
      "start_beat": 41.5,
      "duration_beat": 0.49791666666666856,
      "velocity": 100,
      "track": 2
    },
    {
      "pitch": 36,
      "start_beat": 41.5,
      "duration_beat": 0.49791666666666856,
      "velocity": 100,
      "track": 2
    },
    {
      "pitch": 39,
      "start_beat": 41.5,
      "duration_beat": 0.49791666666666856,
      "velocity": 100,
      "track": 2
    },
    {
      "pitch": 32,
      "start_beat": 41.5,
      "duration_beat": 0.125,
      "velocity": 127,
      "track": 3
    },
    {
      "pitch": 35,
      "start_beat": 41.625,
      "duration_beat": 0.125,
      "velocity": 127,
      "track": 3
    },
    {
      "pitch": 39,
      "start_beat": 41.75,
      "duration_beat": 0.125,
      "velocity": 127,
      "track": 3
    },
    {
      "pitch": 44,
      "start_beat": 41.875,
      "duration_beat": 0.125,
      "velocity": 127,
      "track": 3
    },
    {
      "pitch": 47,
      "start_beat": 42.0,
      "duration_beat": 0.125,
      "velocity": 127,
      "track": 3
    },
    {
      "pitch": 44,
      "start_beat": 41.5,
      "duration_beat": 0.49791666666666856,
      "velocity": 80,
      "track": 1
    },
    {
      "pitch": 44,
      "start_beat": 41.5,
      "duration_beat": 0.49791666666666856,
      "velocity": 100,
      "track": 2
    },
    {
      "pitch": 48,
      "start_beat": 41.5,
      "duration_beat": 0.49791666666666856,
      "velocity": 100,
      "track": 2
    },
    {
      "pitch": 51,
      "start_beat": 41.5,
      "duration_beat": 0.49791666666666856,
      "velocity": 100,
      "track": 2
    },
    {
      "pitch": 44,
      "start_beat": 41.5,
      "duration_beat": 0.125,
      "velocity": 127,
      "track": 3
    },
    {
      "pitch": 47,
      "start_beat": 41.625,
      "duration_beat": 0.125,
      "velocity": 127,
      "track": 3
    },
    {
      "pitch": 51,
      "start_beat": 41.75,
      "duration_beat": 0.125,
      "velocity": 127,
      "track": 3
    },
    {
      "pitch": 56,
      "start_beat": 41.875,
      "duration_beat": 0.125,
      "velocity": 127,
      "track": 3
    },
    {
      "pitch": 59,
      "start_beat": 42.0,
      "duration_beat": 0.125,
      "velocity": 127,
      "track": 3
    },
    {
      "pitch": 68,
      "start_beat": 42.5,
      "duration_beat": 0.49791666666666856,
      "velocity": 80,
      "track": 0
    },
    {
      "pitch": 68,
      "start_beat": 42.5,
      "duration_beat": 0.49791666666666856,
      "velocity": 100,
      "track": 2
    },
    {
      "pitch": 72,
      "start_beat": 42.5,
      "duration_beat": 0.49791666666666856,
      "velocity": 100,
      "track": 2
    },
    {
      "pitch": 75,
      "start_beat": 42.5,
      "duration_beat": 0.49791666666666856,
      "velocity": 100,
      "track": 2
    },
    {
      "pitch": 68,
      "start_beat": 42.5,
      "duration_beat": 0.125,
      "velocity": 127,
      "track": 3
    },
    {
      "pitch": 71,
      "start_beat": 42.625,
      "duration_beat": 0.125,
      "velocity": 127,
      "track": 3
    },
    {
      "pitch": 75,
      "start_beat": 42.75,
      "duration_beat": 0.125,
      "velocity": 127,
      "track": 3
    },
    {
      "pitch": 80,
      "start_beat": 42.875,
      "duration_beat": 0.125,
      "velocity": 127,
      "track": 3
    },
    {
      "pitch": 83,
      "start_beat": 43.0,
      "duration_beat": 0.125,
      "velocity": 127,
      "track": 3
    },
    {
      "pitch": 73,
      "start_beat": 42.5,
      "duration_beat": 0.49791666666666856,
      "velocity": 80,
      "track": 0
    },
    {
      "pitch": 73,
      "start_beat": 42.5,
      "duration_beat": 0.49791666666666856,
      "velocity": 100,
      "track": 2
    },
    {
      "pitch": 77,
      "start_beat": 42.5,
      "duration_beat": 0.49791666666666856,
      "velocity": 100,
      "track": 2
    },
    {
      "pitch": 80,
      "start_beat": 42.5,
      "duration_beat": 0.49791666666666856,
      "velocity": 100,
      "track": 2
    },
    {
      "pitch": 73,
      "start_beat": 42.5,
      "duration_beat": 0.125,
      "velocity": 127,
      "track": 3
    },
    {
      "pitch": 76,
      "start_beat": 42.625,
      "duration_beat": 0.125,
      "velocity": 127,
      "track": 3
    },
    {
      "pitch": 80,
      "start_beat": 42.75,
      "duration_beat": 0.125,
      "velocity": 127,
      "track": 3
    },
    {
      "pitch": 85,
      "start_beat": 42.875,
      "duration_beat": 0.125,
      "velocity": 127,
      "track": 3
    },
    {
      "pitch": 88,
      "start_beat": 43.0,
      "duration_beat": 0.125,
      "velocity": 127,
      "track": 3
    },
    {
      "pitch": 34,
      "start_beat": 42.5,
      "duration_beat": 0.49791666666666856,
      "velocity": 80,
      "track": 1
    },
    {
      "pitch": 34,
      "start_beat": 42.5,
      "duration_beat": 0.49791666666666856,
      "velocity": 100,
      "track": 2
    },
    {
      "pitch": 38,
      "start_beat": 42.5,
      "duration_beat": 0.49791666666666856,
      "velocity": 100,
      "track": 2
    },
    {
      "pitch": 41,
      "start_beat": 42.5,
      "duration_beat": 0.49791666666666856,
      "velocity": 100,
      "track": 2
    },
    {
      "pitch": 34,
      "start_beat": 42.5,
      "duration_beat": 0.125,
      "velocity": 127,
      "track": 3
    },
    {
      "pitch": 37,
      "start_beat": 42.625,
      "duration_beat": 0.125,
      "velocity": 127,
      "track": 3
    },
    {
      "pitch": 41,
      "start_beat": 42.75,
      "duration_beat": 0.125,
      "velocity": 127,
      "track": 3
    },
    {
      "pitch": 46,
      "start_beat": 42.875,
      "duration_beat": 0.125,
      "velocity": 127,
      "track": 3
    },
    {
      "pitch": 49,
      "start_beat": 43.0,
      "duration_beat": 0.125,
      "velocity": 127,
      "track": 3
    },
    {
      "pitch": 46,
      "start_beat": 42.5,
      "duration_beat": 0.49791666666666856,
      "velocity": 80,
      "track": 1
    },
    {
      "pitch": 46,
      "start_beat": 42.5,
      "duration_beat": 0.49791666666666856,
      "velocity": 100,
      "track": 2
    },
    {
      "pitch": 50,
      "start_beat": 42.5,
      "duration_beat": 0.49791666666666856,
      "velocity": 100,
      "track": 2
    },
    {
      "pitch": 53,
      "start_beat": 42.5,
      "duration_beat": 0.49791666666666856,
      "velocity": 100,
      "track": 2
    },
    {
      "pitch": 46,
      "start_beat": 42.5,
      "duration_beat": 0.125,
      "velocity": 127,
      "track": 3
    },
    {
      "pitch": 49,
      "start_beat": 42.625,
      "duration_beat": 0.125,
      "velocity": 127,
      "track": 3
    },
    {
      "pitch": 53,
      "start_beat": 42.75,
      "duration_beat": 0.125,
      "velocity": 127,
      "track": 3
    },
    {
      "pitch": 58,
      "start_beat": 42.875,
      "duration_beat": 0.125,
      "velocity": 127,
      "track": 3
    },
    {
      "pitch": 61,
      "start_beat": 43.0,
      "duration_beat": 0.125,
      "velocity": 127,
      "track": 3
    },
    {
      "pitch": 64,
      "start_beat": 43.5,
      "duration_beat": 0.7479166666666686,
      "velocity": 80,
      "track": 0
    },
    {
      "pitch": 64,
      "start_beat": 43.5,
      "duration_beat": 0.7479166666666686,
      "velocity": 100,
      "track": 2
    },
    {
      "pitch": 68,
      "start_beat": 43.5,
      "duration_beat": 0.7479166666666686,
      "velocity": 100,
      "track": 2
    },
    {
      "pitch": 71,
      "start_beat": 43.5,
      "duration_beat": 0.7479166666666686,
      "velocity": 100,
      "track": 2
    },
    {
      "pitch": 64,
      "start_beat": 43.5,
      "duration_beat": 0.125,
      "velocity": 127,
      "track": 3
    },
    {
      "pitch": 67,
      "start_beat": 43.625,
      "duration_beat": 0.125,
      "velocity": 127,
      "track": 3
    },
    {
      "pitch": 71,
      "start_beat": 43.75,
      "duration_beat": 0.125,
      "velocity": 127,
      "track": 3
    },
    {
      "pitch": 76,
      "start_beat": 43.875,
      "duration_beat": 0.125,
      "velocity": 127,
      "track": 3
    },
    {
      "pitch": 79,
      "start_beat": 44.0,
      "duration_beat": 0.125,
      "velocity": 127,
      "track": 3
    },
    {
      "pitch": 72,
      "start_beat": 43.5,
      "duration_beat": 0.7479166666666686,
      "velocity": 80,
      "track": 0
    },
    {
      "pitch": 72,
      "start_beat": 43.5,
      "duration_beat": 0.7479166666666686,
      "velocity": 100,
      "track": 2
    },
    {
      "pitch": 76,
      "start_beat": 43.5,
      "duration_beat": 0.7479166666666686,
      "velocity": 100,
      "track": 2
    },
    {
      "pitch": 79,
      "start_beat": 43.5,
      "duration_beat": 0.7479166666666686,
      "velocity": 100,
      "track": 2
    },
    {
      "pitch": 72,
      "start_beat": 43.5,
      "duration_beat": 0.125,
      "velocity": 127,
      "track": 3
    },
    {
      "pitch": 75,
      "start_beat": 43.625,
      "duration_beat": 0.125,
      "velocity": 127,
      "track": 3
    },
    {
      "pitch": 79,
      "start_beat": 43.75,
      "duration_beat": 0.125,
      "velocity": 127,
      "track": 3
    },
    {
      "pitch": 84,
      "start_beat": 43.875,
      "duration_beat": 0.125,
      "velocity": 127,
      "track": 3
    },
    {
      "pitch": 87,
      "start_beat": 44.0,
      "duration_beat": 0.125,
      "velocity": 127,
      "track": 3
    },
    {
      "pitch": 36,
      "start_beat": 43.5,
      "duration_beat": 0.7479166666666686,
      "velocity": 80,
      "track": 1
    },
    {
      "pitch": 36,
      "start_beat": 43.5,
      "duration_beat": 0.7479166666666686,
      "velocity": 100,
      "track": 2
    },
    {
      "pitch": 40,
      "start_beat": 43.5,
      "duration_beat": 0.7479166666666686,
      "velocity": 100,
      "track": 2
    },
    {
      "pitch": 43,
      "start_beat": 43.5,
      "duration_beat": 0.7479166666666686,
      "velocity": 100,
      "track": 2
    },
    {
      "pitch": 36,
      "start_beat": 43.5,
      "duration_beat": 0.125,
      "velocity": 127,
      "track": 3
    },
    {
      "pitch": 39,
      "start_beat": 43.625,
      "duration_beat": 0.125,
      "velocity": 127,
      "track": 3
    },
    {
      "pitch": 43,
      "start_beat": 43.75,
      "duration_beat": 0.125,
      "velocity": 127,
      "track": 3
    },
    {
      "pitch": 48,
      "start_beat": 43.875,
      "duration_beat": 0.125,
      "velocity": 127,
      "track": 3
    },
    {
      "pitch": 51,
      "start_beat": 44.0,
      "duration_beat": 0.125,
      "velocity": 127,
      "track": 3
    },
    {
      "pitch": 48,
      "start_beat": 43.5,
      "duration_beat": 0.7479166666666686,
      "velocity": 80,
      "track": 1
    },
    {
      "pitch": 48,
      "start_beat": 43.5,
      "duration_beat": 0.7479166666666686,
      "velocity": 100,
      "track": 2
    },
    {
      "pitch": 52,
      "start_beat": 43.5,
      "duration_beat": 0.7479166666666686,
      "velocity": 100,
      "track": 2
    },
    {
      "pitch": 55,
      "start_beat": 43.5,
      "duration_beat": 0.7479166666666686,
      "velocity": 100,
      "track": 2
    },
    {
      "pitch": 48,
      "start_beat": 43.5,
      "duration_beat": 0.125,
      "velocity": 127,
      "track": 3
    },
    {
      "pitch": 51,
      "start_beat": 43.625,
      "duration_beat": 0.125,
      "velocity": 127,
      "track": 3
    },
    {
      "pitch": 55,
      "start_beat": 43.75,
      "duration_beat": 0.125,
      "velocity": 127,
      "track": 3
    },
    {
      "pitch": 60,
      "start_beat": 43.875,
      "duration_beat": 0.125,
      "velocity": 127,
      "track": 3
    },
    {
      "pitch": 63,
      "start_beat": 44.0,
      "duration_beat": 0.125,
      "velocity": 127,
      "track": 3
    },
    {
      "pitch": 72,
      "start_beat": 44.25,
      "duration_beat": 0.12291666666666856,
      "velocity": 80,
      "track": 0
    },
    {
      "pitch": 72,
      "start_beat": 44.25,
      "duration_beat": 0.12291666666666856,
      "velocity": 100,
      "track": 2
    },
    {
      "pitch": 76,
      "start_beat": 44.25,
      "duration_beat": 0.12291666666666856,
      "velocity": 100,
      "track": 2
    },
    {
      "pitch": 79,
      "start_beat": 44.25,
      "duration_beat": 0.12291666666666856,
      "velocity": 100,
      "track": 2
    },
    {
      "pitch": 72,
      "start_beat": 44.25,
      "duration_beat": 0.125,
      "velocity": 127,
      "track": 3
    },
    {
      "pitch": 75,
      "start_beat": 44.375,
      "duration_beat": 0.125,
      "velocity": 127,
      "track": 3
    },
    {
      "pitch": 79,
      "start_beat": 44.5,
      "duration_beat": 0.125,
      "velocity": 127,
      "track": 3
    },
    {
      "pitch": 84,
      "start_beat": 44.625,
      "duration_beat": 0.125,
      "velocity": 127,
      "track": 3
    },
    {
      "pitch": 87,
      "start_beat": 44.75,
      "duration_beat": 0.125,
      "velocity": 127,
      "track": 3
    },
    {
      "pitch": 76,
      "start_beat": 44.375,
      "duration_beat": 0.12291666666666856,
      "velocity": 80,
      "track": 0
    },
    {
      "pitch": 76,
      "start_beat": 44.375,
      "duration_beat": 0.12291666666666856,
      "velocity": 100,
      "track": 2
    },
    {
      "pitch": 80,
      "start_beat": 44.375,
      "duration_beat": 0.12291666666666856,
      "velocity": 100,
      "track": 2
    },
    {
      "pitch": 83,
      "start_beat": 44.375,
      "duration_beat": 0.12291666666666856,
      "velocity": 100,
      "track": 2
    },
    {
      "pitch": 76,
      "start_beat": 44.375,
      "duration_beat": 0.125,
      "velocity": 127,
      "track": 3
    },
    {
      "pitch": 79,
      "start_beat": 44.5,
      "duration_beat": 0.125,
      "velocity": 127,
      "track": 3
    },
    {
      "pitch": 83,
      "start_beat": 44.625,
      "duration_beat": 0.125,
      "velocity": 127,
      "track": 3
    },
    {
      "pitch": 88,
      "start_beat": 44.75,
      "duration_beat": 0.125,
      "velocity": 127,
      "track": 3
    },
    {
      "pitch": 91,
      "start_beat": 44.875,
      "duration_beat": 0.125,
      "velocity": 127,
      "track": 3
    },
    {
      "pitch": 79,
      "start_beat": 44.5,
      "duration_beat": 0.12291666666666856,
      "velocity": 80,
      "track": 0
    },
    {
      "pitch": 79,
      "start_beat": 44.5,
      "duration_beat": 0.12291666666666856,
      "velocity": 100,
      "track": 2
    },
    {
      "pitch": 83,
      "start_beat": 44.5,
      "duration_beat": 0.12291666666666856,
      "velocity": 100,
      "track": 2
    },
    {
      "pitch": 86,
      "start_beat": 44.5,
      "duration_beat": 0.12291666666666856,
      "velocity": 100,
      "track": 2
    },
    {
      "pitch": 79,
      "start_beat": 44.5,
      "duration_beat": 0.125,
      "velocity": 127,
      "track": 3
    },
    {
      "pitch": 82,
      "start_beat": 44.625,
      "duration_beat": 0.125,
      "velocity": 127,
      "track": 3
    },
    {
      "pitch": 86,
      "start_beat": 44.75,
      "duration_beat": 0.125,
      "velocity": 127,
      "track": 3
    },
    {
      "pitch": 91,
      "start_beat": 44.875,
      "duration_beat": 0.125,
      "velocity": 127,
      "track": 3
    },
    {
      "pitch": 94,
      "start_beat": 45.0,
      "duration_beat": 0.125,
      "velocity": 127,
      "track": 3
    },
    {
      "pitch": 84,
      "start_beat": 44.625,
      "duration_beat": 0.12291666666666856,
      "velocity": 80,
      "track": 0
    },
    {
      "pitch": 84,
      "start_beat": 44.625,
      "duration_beat": 0.12291666666666856,
      "velocity": 100,
      "track": 2
    },
    {
      "pitch": 88,
      "start_beat": 44.625,
      "duration_beat": 0.12291666666666856,
      "velocity": 100,
      "track": 2
    },
    {
      "pitch": 91,
      "start_beat": 44.625,
      "duration_beat": 0.12291666666666856,
      "velocity": 100,
      "track": 2
    },
    {
      "pitch": 84,
      "start_beat": 44.625,
      "duration_beat": 0.125,
      "velocity": 127,
      "track": 3
    },
    {
      "pitch": 87,
      "start_beat": 44.75,
      "duration_beat": 0.125,
      "velocity": 127,
      "track": 3
    },
    {
      "pitch": 91,
      "start_beat": 44.875,
      "duration_beat": 0.125,
      "velocity": 127,
      "track": 3
    },
    {
      "pitch": 96,
      "start_beat": 45.0,
      "duration_beat": 0.125,
      "velocity": 127,
      "track": 3
    },
    {
      "pitch": 99,
      "start_beat": 45.125,
      "duration_beat": 0.125,
      "velocity": 127,
      "track": 3
    },
    {
      "pitch": 88,
      "start_beat": 44.75,
      "duration_beat": 0.12291666666666856,
      "velocity": 80,
      "track": 0
    },
    {
      "pitch": 88,
      "start_beat": 44.75,
      "duration_beat": 0.12291666666666856,
      "velocity": 100,
      "track": 2
    },
    {
      "pitch": 92,
      "start_beat": 44.75,
      "duration_beat": 0.12291666666666856,
      "velocity": 100,
      "track": 2
    },
    {
      "pitch": 95,
      "start_beat": 44.75,
      "duration_beat": 0.12291666666666856,
      "velocity": 100,
      "track": 2
    },
    {
      "pitch": 88,
      "start_beat": 44.75,
      "duration_beat": 0.125,
      "velocity": 127,
      "track": 3
    },
    {
      "pitch": 91,
      "start_beat": 44.875,
      "duration_beat": 0.125,
      "velocity": 127,
      "track": 3
    },
    {
      "pitch": 95,
      "start_beat": 45.0,
      "duration_beat": 0.125,
      "velocity": 127,
      "track": 3
    },
    {
      "pitch": 100,
      "start_beat": 45.125,
      "duration_beat": 0.125,
      "velocity": 127,
      "track": 3
    },
    {
      "pitch": 103,
      "start_beat": 45.25,
      "duration_beat": 0.125,
      "velocity": 127,
      "track": 3
    },
    {
      "pitch": 91,
      "start_beat": 44.875,
      "duration_beat": 0.12291666666666856,
      "velocity": 80,
      "track": 0
    },
    {
      "pitch": 91,
      "start_beat": 44.875,
      "duration_beat": 0.12291666666666856,
      "velocity": 100,
      "track": 2
    },
    {
      "pitch": 95,
      "start_beat": 44.875,
      "duration_beat": 0.12291666666666856,
      "velocity": 100,
      "track": 2
    },
    {
      "pitch": 98,
      "start_beat": 44.875,
      "duration_beat": 0.12291666666666856,
      "velocity": 100,
      "track": 2
    },
    {
      "pitch": 91,
      "start_beat": 44.875,
      "duration_beat": 0.125,
      "velocity": 127,
      "track": 3
    },
    {
      "pitch": 94,
      "start_beat": 45.0,
      "duration_beat": 0.125,
      "velocity": 127,
      "track": 3
    },
    {
      "pitch": 98,
      "start_beat": 45.125,
      "duration_beat": 0.125,
      "velocity": 127,
      "track": 3
    },
    {
      "pitch": 103,
      "start_beat": 45.25,
      "duration_beat": 0.125,
      "velocity": 127,
      "track": 3
    },
    {
      "pitch": 106,
      "start_beat": 45.375,
      "duration_beat": 0.125,
      "velocity": 127,
      "track": 3
    },
    {
      "pitch": 96,
      "start_beat": 45.0,
      "duration_beat": 0.12291666666666856,
      "velocity": 80,
      "track": 0
    },
    {
      "pitch": 96,
      "start_beat": 45.0,
      "duration_beat": 0.12291666666666856,
      "velocity": 100,
      "track": 2
    },
    {
      "pitch": 100,
      "start_beat": 45.0,
      "duration_beat": 0.12291666666666856,
      "velocity": 100,
      "track": 2
    },
    {
      "pitch": 103,
      "start_beat": 45.0,
      "duration_beat": 0.12291666666666856,
      "velocity": 100,
      "track": 2
    },
    {
      "pitch": 96,
      "start_beat": 45.0,
      "duration_beat": 0.125,
      "velocity": 127,
      "track": 3
    },
    {
      "pitch": 99,
      "start_beat": 45.125,
      "duration_beat": 0.125,
      "velocity": 127,
      "track": 3
    },
    {
      "pitch": 103,
      "start_beat": 45.25,
      "duration_beat": 0.125,
      "velocity": 127,
      "track": 3
    },
    {
      "pitch": 108,
      "start_beat": 45.375,
      "duration_beat": 0.125,
      "velocity": 127,
      "track": 3
    },
    {
      "pitch": 111,
      "start_beat": 45.5,
      "duration_beat": 0.125,
      "velocity": 127,
      "track": 3
    },
    {
      "pitch": 100,
      "start_beat": 45.125,
      "duration_beat": 0.12291666666666856,
      "velocity": 80,
      "track": 0
    },
    {
      "pitch": 100,
      "start_beat": 45.125,
      "duration_beat": 0.12291666666666856,
      "velocity": 100,
      "track": 2
    },
    {
      "pitch": 104,
      "start_beat": 45.125,
      "duration_beat": 0.12291666666666856,
      "velocity": 100,
      "track": 2
    },
    {
      "pitch": 107,
      "start_beat": 45.125,
      "duration_beat": 0.12291666666666856,
      "velocity": 100,
      "track": 2
    },
    {
      "pitch": 100,
      "start_beat": 45.125,
      "duration_beat": 0.125,
      "velocity": 127,
      "track": 3
    },
    {
      "pitch": 103,
      "start_beat": 45.25,
      "duration_beat": 0.125,
      "velocity": 127,
      "track": 3
    },
    {
      "pitch": 107,
      "start_beat": 45.375,
      "duration_beat": 0.125,
      "velocity": 127,
      "track": 3
    },
    {
      "pitch": 112,
      "start_beat": 45.5,
      "duration_beat": 0.125,
      "velocity": 127,
      "track": 3
    },
    {
      "pitch": 115,
      "start_beat": 45.625,
      "duration_beat": 0.125,
      "velocity": 127,
      "track": 3
    },
    {
      "pitch": 103,
      "start_beat": 45.25,
      "duration_beat": 0.12291666666666856,
      "velocity": 80,
      "track": 0
    },
    {
      "pitch": 103,
      "start_beat": 45.25,
      "duration_beat": 0.12291666666666856,
      "velocity": 100,
      "track": 2
    },
    {
      "pitch": 107,
      "start_beat": 45.25,
      "duration_beat": 0.12291666666666856,
      "velocity": 100,
      "track": 2
    },
    {
      "pitch": 110,
      "start_beat": 45.25,
      "duration_beat": 0.12291666666666856,
      "velocity": 100,
      "track": 2
    },
    {
      "pitch": 103,
      "start_beat": 45.25,
      "duration_beat": 0.125,
      "velocity": 127,
      "track": 3
    },
    {
      "pitch": 106,
      "start_beat": 45.375,
      "duration_beat": 0.125,
      "velocity": 127,
      "track": 3
    },
    {
      "pitch": 110,
      "start_beat": 45.5,
      "duration_beat": 0.125,
      "velocity": 127,
      "track": 3
    },
    {
      "pitch": 115,
      "start_beat": 45.625,
      "duration_beat": 0.125,
      "velocity": 127,
      "track": 3
    },
    {
      "pitch": 118,
      "start_beat": 45.75,
      "duration_beat": 0.125,
      "velocity": 127,
      "track": 3
    },
    {
      "pitch": 108,
      "start_beat": 45.375,
      "duration_beat": 0.9979166666666686,
      "velocity": 80,
      "track": 0
    },
    {
      "pitch": 108,
      "start_beat": 45.375,
      "duration_beat": 0.9979166666666686,
      "velocity": 100,
      "track": 2
    },
    {
      "pitch": 112,
      "start_beat": 45.375,
      "duration_beat": 0.9979166666666686,
      "velocity": 100,
      "track": 2
    },
    {
      "pitch": 115,
      "start_beat": 45.375,
      "duration_beat": 0.9979166666666686,
      "velocity": 100,
      "track": 2
    },
    {
      "pitch": 108,
      "start_beat": 45.375,
      "duration_beat": 0.125,
      "velocity": 127,
      "track": 3
    },
    {
      "pitch": 111,
      "start_beat": 45.5,
      "duration_beat": 0.125,
      "velocity": 127,
      "track": 3
    },
    {
      "pitch": 115,
      "start_beat": 45.625,
      "duration_beat": 0.125,
      "velocity": 127,
      "track": 3
    },
    {
      "pitch": 120,
      "start_beat": 45.75,
      "duration_beat": 0.125,
      "velocity": 127,
      "track": 3
    },
    {
      "pitch": 123,
      "start_beat": 45.875,
      "duration_beat": 0.125,
      "velocity": 127,
      "track": 3
    },
    {
      "pitch": 60,
      "start_beat": 0.0,
      "duration_beat": 0.25,
      "velocity": 110,
      "track": 4
    },
    {
      "pitch": 61,
      "start_beat": 0.25,
      "duration_beat": 0.25,
      "velocity": 110,
      "track": 4
    },
    {
      "pitch": 62,
      "start_beat": 0.5,
      "duration_beat": 0.25,
      "velocity": 110,
      "track": 4
    },
    {
      "pitch": 63,
      "start_beat": 0.75,
      "duration_beat": 0.25,
      "velocity": 110,
      "track": 4
    },
    {
      "pitch": 64,
      "start_beat": 1.0,
      "duration_beat": 0.25,
      "velocity": 110,
      "track": 4
    },
    {
      "pitch": 65,
      "start_beat": 1.25,
      "duration_beat": 0.25,
      "velocity": 110,
      "track": 4
    },
    {
      "pitch": 66,
      "start_beat": 1.5,
      "duration_beat": 0.25,
      "velocity": 110,
      "track": 4
    },
    {
      "pitch": 67,
      "start_beat": 1.75,
      "duration_beat": 0.25,
      "velocity": 110,
      "track": 4
    },
    {
      "pitch": 60,
      "start_beat": 4.0,
      "duration_beat": 0.25,
      "velocity": 110,
      "track": 4
    },
    {
      "pitch": 61,
      "start_beat": 4.25,
      "duration_beat": 0.25,
      "velocity": 110,
      "track": 4
    },
    {
      "pitch": 62,
      "start_beat": 4.5,
      "duration_beat": 0.25,
      "velocity": 110,
      "track": 4
    },
    {
      "pitch": 63,
      "start_beat": 4.75,
      "duration_beat": 0.25,
      "velocity": 110,
      "track": 4
    },
    {
      "pitch": 64,
      "start_beat": 5.0,
      "duration_beat": 0.25,
      "velocity": 110,
      "track": 4
    },
    {
      "pitch": 65,
      "start_beat": 5.25,
      "duration_beat": 0.25,
      "velocity": 110,
      "track": 4
    },
    {
      "pitch": 66,
      "start_beat": 5.5,
      "duration_beat": 0.25,
      "velocity": 110,
      "track": 4
    },
    {
      "pitch": 67,
      "start_beat": 5.75,
      "duration_beat": 0.25,
      "velocity": 110,
      "track": 4
    },
    {
      "pitch": 60,
      "start_beat": 8.0,
      "duration_beat": 0.25,
      "velocity": 110,
      "track": 4
    },
    {
      "pitch": 61,
      "start_beat": 8.25,
      "duration_beat": 0.25,
      "velocity": 110,
      "track": 4
    },
    {
      "pitch": 62,
      "start_beat": 8.5,
      "duration_beat": 0.25,
      "velocity": 110,
      "track": 4
    },
    {
      "pitch": 63,
      "start_beat": 8.75,
      "duration_beat": 0.25,
      "velocity": 110,
      "track": 4
    },
    {
      "pitch": 64,
      "start_beat": 9.0,
      "duration_beat": 0.25,
      "velocity": 110,
      "track": 4
    },
    {
      "pitch": 65,
      "start_beat": 9.25,
      "duration_beat": 0.25,
      "velocity": 110,
      "track": 4
    },
    {
      "pitch": 66,
      "start_beat": 9.5,
      "duration_beat": 0.25,
      "velocity": 110,
      "track": 4
    },
    {
      "pitch": 67,
      "start_beat": 9.75,
      "duration_beat": 0.25,
      "velocity": 110,
      "track": 4
    },
    {
      "pitch": 60,
      "start_beat": 12.0,
      "duration_beat": 0.25,
      "velocity": 110,
      "track": 4
    },
    {
      "pitch": 61,
      "start_beat": 12.25,
      "duration_beat": 0.25,
      "velocity": 110,
      "track": 4
    },
    {
      "pitch": 62,
      "start_beat": 12.5,
      "duration_beat": 0.25,
      "velocity": 110,
      "track": 4
    },
    {
      "pitch": 63,
      "start_beat": 12.75,
      "duration_beat": 0.25,
      "velocity": 110,
      "track": 4
    },
    {
      "pitch": 64,
      "start_beat": 13.0,
      "duration_beat": 0.25,
      "velocity": 110,
      "track": 4
    },
    {
      "pitch": 65,
      "start_beat": 13.25,
      "duration_beat": 0.25,
      "velocity": 110,
      "track": 4
    },
    {
      "pitch": 66,
      "start_beat": 13.5,
      "duration_beat": 0.25,
      "velocity": 110,
      "track": 4
    },
    {
      "pitch": 67,
      "start_beat": 13.75,
      "duration_beat": 0.25,
      "velocity": 110,
      "track": 4
    },
    {
      "pitch": 60,
      "start_beat": 16.0,
      "duration_beat": 0.25,
      "velocity": 110,
      "track": 4
    },
    {
      "pitch": 61,
      "start_beat": 16.25,
      "duration_beat": 0.25,
      "velocity": 110,
      "track": 4
    },
    {
      "pitch": 62,
      "start_beat": 16.5,
      "duration_beat": 0.25,
      "velocity": 110,
      "track": 4
    },
    {
      "pitch": 63,
      "start_beat": 16.75,
      "duration_beat": 0.25,
      "velocity": 110,
      "track": 4
    },
    {
      "pitch": 64,
      "start_beat": 17.0,
      "duration_beat": 0.25,
      "velocity": 110,
      "track": 4
    },
    {
      "pitch": 65,
      "start_beat": 17.25,
      "duration_beat": 0.25,
      "velocity": 110,
      "track": 4
    },
    {
      "pitch": 66,
      "start_beat": 17.5,
      "duration_beat": 0.25,
      "velocity": 110,
      "track": 4
    },
    {
      "pitch": 67,
      "start_beat": 17.75,
      "duration_beat": 0.25,
      "velocity": 110,
      "track": 4
    },
    {
      "pitch": 60,
      "start_beat": 20.0,
      "duration_beat": 0.25,
      "velocity": 110,
      "track": 4
    },
    {
      "pitch": 61,
      "start_beat": 20.25,
      "duration_beat": 0.25,
      "velocity": 110,
      "track": 4
    },
    {
      "pitch": 62,
      "start_beat": 20.5,
      "duration_beat": 0.25,
      "velocity": 110,
      "track": 4
    },
    {
      "pitch": 63,
      "start_beat": 20.75,
      "duration_beat": 0.25,
      "velocity": 110,
      "track": 4
    },
    {
      "pitch": 64,
      "start_beat": 21.0,
      "duration_beat": 0.25,
      "velocity": 110,
      "track": 4
    },
    {
      "pitch": 65,
      "start_beat": 21.25,
      "duration_beat": 0.25,
      "velocity": 110,
      "track": 4
    },
    {
      "pitch": 66,
      "start_beat": 21.5,
      "duration_beat": 0.25,
      "velocity": 110,
      "track": 4
    },
    {
      "pitch": 67,
      "start_beat": 21.75,
      "duration_beat": 0.25,
      "velocity": 110,
      "track": 4
    },
    {
      "pitch": 60,
      "start_beat": 24.0,
      "duration_beat": 0.25,
      "velocity": 110,
      "track": 4
    },
    {
      "pitch": 61,
      "start_beat": 24.25,
      "duration_beat": 0.25,
      "velocity": 110,
      "track": 4
    },
    {
      "pitch": 62,
      "start_beat": 24.5,
      "duration_beat": 0.25,
      "velocity": 110,
      "track": 4
    },
    {
      "pitch": 63,
      "start_beat": 24.75,
      "duration_beat": 0.25,
      "velocity": 110,
      "track": 4
    },
    {
      "pitch": 64,
      "start_beat": 25.0,
      "duration_beat": 0.25,
      "velocity": 110,
      "track": 4
    },
    {
      "pitch": 65,
      "start_beat": 25.25,
      "duration_beat": 0.25,
      "velocity": 110,
      "track": 4
    },
    {
      "pitch": 66,
      "start_beat": 25.5,
      "duration_beat": 0.25,
      "velocity": 110,
      "track": 4
    },
    {
      "pitch": 67,
      "start_beat": 25.75,
      "duration_beat": 0.25,
      "velocity": 110,
      "track": 4
    },
    {
      "pitch": 60,
      "start_beat": 28.0,
      "duration_beat": 0.25,
      "velocity": 110,
      "track": 4
    },
    {
      "pitch": 61,
      "start_beat": 28.25,
      "duration_beat": 0.25,
      "velocity": 110,
      "track": 4
    },
    {
      "pitch": 62,
      "start_beat": 28.5,
      "duration_beat": 0.25,
      "velocity": 110,
      "track": 4
    },
    {
      "pitch": 63,
      "start_beat": 28.75,
      "duration_beat": 0.25,
      "velocity": 110,
      "track": 4
    },
    {
      "pitch": 64,
      "start_beat": 29.0,
      "duration_beat": 0.25,
      "velocity": 110,
      "track": 4
    },
    {
      "pitch": 65,
      "start_beat": 29.25,
      "duration_beat": 0.25,
      "velocity": 110,
      "track": 4
    },
    {
      "pitch": 66,
      "start_beat": 29.5,
      "duration_beat": 0.25,
      "velocity": 110,
      "track": 4
    },
    {
      "pitch": 67,
      "start_beat": 29.75,
      "duration_beat": 0.25,
      "velocity": 110,
      "track": 4
    },
    {
      "pitch": 60,
      "start_beat": 32.0,
      "duration_beat": 0.25,
      "velocity": 110,
      "track": 4
    },
    {
      "pitch": 61,
      "start_beat": 32.25,
      "duration_beat": 0.25,
      "velocity": 110,
      "track": 4
    },
    {
      "pitch": 62,
      "start_beat": 32.5,
      "duration_beat": 0.25,
      "velocity": 110,
      "track": 4
    },
    {
      "pitch": 63,
      "start_beat": 32.75,
      "duration_beat": 0.25,
      "velocity": 110,
      "track": 4
    },
    {
      "pitch": 64,
      "start_beat": 33.0,
      "duration_beat": 0.25,
      "velocity": 110,
      "track": 4
    },
    {
      "pitch": 65,
      "start_beat": 33.25,
      "duration_beat": 0.25,
      "velocity": 110,
      "track": 4
    },
    {
      "pitch": 66,
      "start_beat": 33.5,
      "duration_beat": 0.25,
      "velocity": 110,
      "track": 4
    },
    {
      "pitch": 67,
      "start_beat": 33.75,
      "duration_beat": 0.25,
      "velocity": 110,
      "track": 4
    },
    {
      "pitch": 60,
      "start_beat": 36.0,
      "duration_beat": 0.25,
      "velocity": 110,
      "track": 4
    },
    {
      "pitch": 61,
      "start_beat": 36.25,
      "duration_beat": 0.25,
      "velocity": 110,
      "track": 4
    },
    {
      "pitch": 62,
      "start_beat": 36.5,
      "duration_beat": 0.25,
      "velocity": 110,
      "track": 4
    },
    {
      "pitch": 63,
      "start_beat": 36.75,
      "duration_beat": 0.25,
      "velocity": 110,
      "track": 4
    },
    {
      "pitch": 64,
      "start_beat": 37.0,
      "duration_beat": 0.25,
      "velocity": 110,
      "track": 4
    },
    {
      "pitch": 65,
      "start_beat": 37.25,
      "duration_beat": 0.25,
      "velocity": 110,
      "track": 4
    },
    {
      "pitch": 66,
      "start_beat": 37.5,
      "duration_beat": 0.25,
      "velocity": 110,
      "track": 4
    },
    {
      "pitch": 67,
      "start_beat": 37.75,
      "duration_beat": 0.25,
      "velocity": 110,
      "track": 4
    },
    {
      "pitch": 60,
      "start_beat": 40.0,
      "duration_beat": 0.25,
      "velocity": 110,
      "track": 4
    },
    {
      "pitch": 61,
      "start_beat": 40.25,
      "duration_beat": 0.25,
      "velocity": 110,
      "track": 4
    },
    {
      "pitch": 62,
      "start_beat": 40.5,
      "duration_beat": 0.25,
      "velocity": 110,
      "track": 4
    },
    {
      "pitch": 63,
      "start_beat": 40.75,
      "duration_beat": 0.25,
      "velocity": 110,
      "track": 4
    },
    {
      "pitch": 64,
      "start_beat": 41.0,
      "duration_beat": 0.25,
      "velocity": 110,
      "track": 4
    },
    {
      "pitch": 65,
      "start_beat": 41.25,
      "duration_beat": 0.25,
      "velocity": 110,
      "track": 4
    },
    {
      "pitch": 66,
      "start_beat": 41.5,
      "duration_beat": 0.25,
      "velocity": 110,
      "track": 4
    },
    {
      "pitch": 67,
      "start_beat": 41.75,
      "duration_beat": 0.25,
      "velocity": 110,
      "track": 4
    },
    {
      "pitch": 60,
      "start_beat": 44.0,
      "duration_beat": 0.25,
      "velocity": 110,
      "track": 4
    },
    {
      "pitch": 61,
      "start_beat": 44.25,
      "duration_beat": 0.25,
      "velocity": 110,
      "track": 4
    },
    {
      "pitch": 62,
      "start_beat": 44.5,
      "duration_beat": 0.25,
      "velocity": 110,
      "track": 4
    },
    {
      "pitch": 63,
      "start_beat": 44.75,
      "duration_beat": 0.25,
      "velocity": 110,
      "track": 4
    },
    {
      "pitch": 64,
      "start_beat": 45.0,
      "duration_beat": 0.25,
      "velocity": 110,
      "track": 4
    },
    {
      "pitch": 65,
      "start_beat": 45.25,
      "duration_beat": 0.25,
      "velocity": 110,
      "track": 4
    },
    {
      "pitch": 66,
      "start_beat": 45.5,
      "duration_beat": 0.25,
      "velocity": 110,
      "track": 4
    },
    {
      "pitch": 67,
      "start_beat": 45.75,
      "duration_beat": 0.25,
      "velocity": 110,
      "track": 4
    }
  ]
}