{
    "resolution": 480,
    "tempo_map": [
        {
            "beat": 0.0,
            "bpm": 67.99999546666697
        },
        {
            "beat": 3.0,
            "bpm": 83.99996640001345
        },
        {
            "beat": 22.0,
            "bpm": 70.00023333411112
        },
        {
            "beat": 28.0,
            "bpm": 122.00006913337249
        },
        {
            "beat": 173.5,
            "bpm": 114.37503574219868
        },
        {
            "beat": 181.0,
            "bpm": 106.74997909479575
        },
        {
            "beat": 188.5,
            "bpm": 99.12505617086518
        },
        {
            "beat": 196.0,
            "bpm": 91.49995882501854
        },
        {
            "beat": 197.0,
            "bpm": 122.00006913337249
        },
        {
            "beat": 220.0,
            "bpm": 133.00024161710562
        },
        {
            "beat": 223.0,
            "bpm": 152.99994645001874
        },
        {
            "beat": 226.0,
            "bpm": 172.99990485005233
        },
        {
            "beat": 229.0,
            "bpm": 192.99989385005838
        },
        {
            "beat": 232.0,
            "bpm": 213.00010650005322
        },
        {
            "beat": 235.0,
            "bpm": 232.9997553502569
        },
        {
            "beat": 238.0,
            "bpm": 253.0001602334348
        },
        {
            "beat": 241.0,
            "bpm": 273.000273000273
        },
        {
            "beat": 247.0,
            "bpm": 281.99994360001125
        },
        {
            "beat": 366.5,
            "bpm": 240.0
        },
        {
            "beat": 368.5,
            "bpm": 180.00018000018
        },
        {
            "beat": 376.0,
            "bpm": 160.0
        },
        {
            "beat": 388.0,
            "bpm": 137.99987580011177
        },
        {
            "beat": 533.0,
            "bpm": 115.00024916720655
        },
        {
            "beat": 539.0,
            "bpm": 109.99970666744888
        },
        {
            "beat": 541.0,
            "bpm": 100.00016666694444
        },
        {
            "beat": 544.0,
            "bpm": 121.99982106692909
        },
        {
            "beat": 617.0,
            "bpm": 142.0000710000355
        },
        {
            "beat": 621.0,
            "bpm": 172.00010320006191
        },
        {
            "beat": 691.0,
            "bpm": 181.99962993408576
        },
        {
            "beat": 715.0,
            "bpm": 192.0
        },
        {
            "beat": 722.0,
            "bpm": 150.0
        },
        {
            "beat": 725.0,
            "bpm": 252.00025200025198
        },
        {
            "beat": 955.0,
            "bpm": 311.9995008007987
        },
        {
            "beat": 976.0,
            "bpm": 180.00018000018
        },
        {
            "beat": 1126.75,
            "bpm": 168.74978906276368
        },
        {
            "beat": 1127.5,
            "bpm": 157.5001575001575
        },
        {
            "beat": 1128.25,
            "bpm": 146.25014625014626
        },
        {
            "beat": 1129.0,
            "bpm": 135.000135000135
        },
        {
            "beat": 1144.0,
            "bpm": 120.0
        },
        {
            "beat": 1225.0,
            "bpm": 100.00016666694444
        },
        {
            "beat": 1226.0,
            "bpm": 89.9999550000225
        },
        {
            "beat": 1226.5,
            "bpm": 70.00023333411112
        },
        {
            "beat": 1228.0,
            "bpm": 160.0
        },
        {
            "beat": 1229.0,
            "bpm": 279.9996266671644
        },
        {
            "beat": 1380.0,
            "bpm": 200.0
        },
        {
            "beat": 1388.0,
            "bpm": 160.0
        },
        {
            "beat": 1404.0,
            "bpm": 79.99978666723555
        },
        {
            "beat": 1410.0,
            "bpm": 120.0
        },
        {
            "beat": 1420.5,
            "bpm": 79.99978666723555
        },
        {
            "beat": 1428.0,
            "bpm": 40.000026666684434
        },
        {
            "beat": 1430.6666666666667,
            "bpm": 60.0
        },
        {
            "beat": 1432.0,
            "bpm": 79.99978666723555
        },
        {
            "beat": 1433.3333333333333,
            "bpm": 120.0
        },
        {
            "beat": 1435.3333333333333,
            "bpm": 160.0
        },
        {
            "beat": 1438.0,
            "bpm": 180.00018000018
        },
        {
            "beat": 1452.0,
            "bpm": 45.000011250002814
        },
        {
            "beat": 1455.9979166666667,
            "bpm": 180.00018000018
        }
    ],
    "notes": [
        {
            "pitch": 48,
            "start_beat": 0.0,
            "duration_beat": 2.497916666666667,
            "velocity": 96,
            "track": 0
        },
        {
            "pitch": 36,
            "start_beat": 0.0,
            "duration_beat": 2.497916666666667,
            "velocity": 96,
            "track": 1
        },
        {
            "pitch": 51,
            "start_beat": 2.5,
            "duration_beat": 0.4979166666666668,
            "velocity": 96,
            "track": 0
        },
        {
            "pitch": 39,
            "start_beat": 2.5,
            "duration_beat": 0.4979166666666668,
            "velocity": 96,
            "track": 1
        },
        {
            "pitch": 56,
            "start_beat": 3.0,
            "duration_beat": 0.4979166666666668,
            "velocity": 96,
            "track": 0
        },
        {
            "pitch": 44,
            "start_beat": 3.0,
            "duration_beat": 0.4979166666666668,
            "velocity": 96,
            "track": 1
        },
        {
            "pitch": 58,
            "start_beat": 3.5,
            "duration_beat": 0.4979166666666668,
            "velocity": 96,
            "track": 0
        },
        {
            "pitch": 46,
            "start_beat": 3.5,
            "duration_beat": 0.4979166666666668,
            "velocity": 96,
            "track": 1
        },
        {
            "pitch": 60,
            "start_beat": 4.0,
            "duration_beat": 0.4979166666666668,
            "velocity": 96,
            "track": 0
        },
        {
            "pitch": 48,
            "start_beat": 4.0,
            "duration_beat": 0.4979166666666668,
            "velocity": 96,
            "track": 1
        },
        {
            "pitch": 56,
            "start_beat": 4.5,
            "duration_beat": 0.4979166666666668,
            "velocity": 96,
            "track": 0
        },
        {
            "pitch": 44,
            "start_beat": 4.5,
            "duration_beat": 0.4979166666666668,
            "velocity": 96,
            "track": 1
        },
        {
            "pitch": 63,
            "start_beat": 5.0,
            "duration_beat": 0.4979166666666668,
            "velocity": 96,
            "track": 0
        },
        {
            "pitch": 51,
            "start_beat": 5.0,
            "duration_beat": 0.4979166666666668,
            "velocity": 96,
            "track": 1
        },
        {
            "pitch": 70,
            "start_beat": 5.5,
            "duration_beat": 0.4979166666666668,
            "velocity": 93,
            "track": 0
        },
        {
            "pitch": 58,
            "start_beat": 5.5,
            "duration_beat": 0.4979166666666668,
            "velocity": 93,
            "track": 1
        },
        {
            "pitch": 72,
            "start_beat": 6.0,
            "duration_beat": 0.4979166666666668,
            "velocity": 90,
            "track": 0
        },
        {
            "pitch": 60,
            "start_beat": 6.0,
            "duration_beat": 0.4979166666666668,
            "velocity": 90,
            "track": 1
        },
        {
            "pitch": 68,
            "start_beat": 6.5,
            "duration_beat": 0.4979166666666668,
            "velocity": 87,
            "track": 0
        },
        {
            "pitch": 56,
            "start_beat": 6.5,
            "duration_beat": 0.4979166666666668,
            "velocity": 87,
            "track": 1
        },
        {
            "pitch": 75,
            "start_beat": 7.0,
            "duration_beat": 0.4979166666666668,
            "velocity": 84,
            "track": 0
        },
        {
            "pitch": 63,
            "start_beat": 7.0,
            "duration_beat": 0.4979166666666668,
            "velocity": 84,
            "track": 1
        },
        {
            "pitch": 82,
            "start_beat": 7.5,
            "duration_beat": 0.4979166666666668,
            "velocity": 81,
            "track": 0
        },
        {
            "pitch": 70,
            "start_beat": 7.5,
            "duration_beat": 0.4979166666666668,
            "velocity": 81,
            "track": 1
        },
        {
            "pitch": 84,
            "start_beat": 8.0,
            "duration_beat": 0.4979166666666668,
            "velocity": 78,
            "track": 0
        },
        {
            "pitch": 72,
            "start_beat": 8.0,
            "duration_beat": 0.4979166666666668,
            "velocity": 78,
            "track": 1
        },
        {
            "pitch": 79,
            "start_beat": 8.5,
            "duration_beat": 0.4979166666666668,
            "velocity": 75,
            "track": 0
        },
        {
            "pitch": 67,
            "start_beat": 8.5,
            "duration_beat": 0.4979166666666668,
            "velocity": 75,
            "track": 1
        },
        {
            "pitch": 82,
            "start_beat": 9.0,
            "duration_beat": 0.4979166666666668,
            "velocity": 71,
            "track": 0
        },
        {
            "pitch": 70,
            "start_beat": 9.0,
            "duration_beat": 0.4979166666666668,
            "velocity": 71,
            "track": 1
        },
        {
            "pitch": 80,
            "start_beat": 9.5,
            "duration_beat": 0.4979166666666668,
            "velocity": 68,
            "track": 0
        },
        {
            "pitch": 68,
            "start_beat": 9.5,
            "duration_beat": 0.4979166666666668,
            "velocity": 68,
            "track": 1
        },
        {
            "pitch": 79,
            "start_beat": 10.0,
            "duration_beat": 0.9979166666666668,
            "velocity": 65,
            "track": 0
        },
        {
            "pitch": 67,
            "start_beat": 10.0,
            "duration_beat": 0.9979166666666668,
            "velocity": 65,
            "track": 1
        },
        {
            "pitch": 78,
            "start_beat": 11.0,
            "duration_beat": 0.47291666666666643,
            "velocity": 59,
            "track": 0
        },
        {
            "pitch": 66,
            "start_beat": 11.0,
            "duration_beat": 0.47291666666666643,
            "velocity": 59,
            "track": 1
        },
        {
            "pitch": 78,
            "start_beat": 12.5,
            "duration_beat": 0.4979166666666668,
            "velocity": 49,
            "track": 0
        },
        {
            "pitch": 66,
            "start_beat": 12.5,
            "duration_beat": 0.47291666666666643,
            "velocity": 49,
            "track": 1
        },
        {
            "pitch": 79,
            "start_beat": 13.0,
            "duration_beat": 0.4979166666666668,
            "velocity": 49,
            "track": 0
        },
        {
            "pitch": 67,
            "start_beat": 13.0,
            "duration_beat": 0.47291666666666643,
            "velocity": 49,
            "track": 1
        },
        {
            "pitch": 78,
            "start_beat": 13.5,
            "duration_beat": 0.4979166666666668,
            "velocity": 49,
            "track": 0
        },
        {
            "pitch": 66,
            "start_beat": 13.5,
            "duration_beat": 0.47291666666666643,
            "velocity": 49,
            "track": 1
        },
        {
            "pitch": 77,
            "start_beat": 14.0,
            "duration_beat": 0.4979166666666668,
            "velocity": 49,
            "track": 0
        },
        {
            "pitch": 65,
            "start_beat": 14.0,
            "duration_beat": 0.47291666666666643,
            "velocity": 49,
            "track": 1
        },
        {
            "pitch": 78,
            "start_beat": 14.5,
            "duration_beat": 0.4979166666666668,
            "velocity": 49,
            "track": 0
        },
        {
            "pitch": 66,
            "start_beat": 14.5,
            "duration_beat": 0.47291666666666643,
            "velocity": 49,
            "track": 1
        },
        {
            "pitch": 81,
            "start_beat": 15.0,
            "duration_beat": 0.3312500000000007,
            "velocity": 49,
            "track": 0
        },
        {
            "pitch": 69,
            "start_beat": 15.0,
            "duration_beat": 0.3145833333333332,
            "velocity": 49,
            "track": 1
        },
        {
            "pitch": 79,
            "start_beat": 15.333333333333334,
            "duration_beat": 0.33124999999999893,
            "velocity": 49,
            "track": 0
        },
        {
            "pitch": 67,
            "start_beat": 15.333333333333334,
            "duration_beat": 0.3145833333333332,
            "velocity": 49,
            "track": 1
        },
        {
            "pitch": 75,
            "start_beat": 15.666666666666666,
            "duration_beat": 0.3312500000000007,
            "velocity": 49,
            "track": 0
        },
        {
            "pitch": 63,
            "start_beat": 15.666666666666666,
            "duration_beat": 0.3145833333333332,
            "velocity": 49,
            "track": 1
        },
        {
            "pitch": 75,
            "start_beat": 16.0,
            "duration_beat": 0.747916666666665,
            "velocity": 49,
            "track": 0
        },
        {
            "pitch": 63,
            "start_beat": 16.0,
            "duration_beat": 0.7104166666666671,
            "velocity": 49,
            "track": 1
        },
        {
            "pitch": 74,
            "start_beat": 16.75,
            "duration_beat": 0.247916666666665,
            "velocity": 49,
            "track": 0
        },
        {
            "pitch": 62,
            "start_beat": 16.75,
            "duration_beat": 0.23541666666666572,
            "velocity": 49,
            "track": 1
        },
        {
            "pitch": 77,
            "start_beat": 17.0,
            "duration_beat": 0.3312500000000007,
            "velocity": 49,
            "track": 0
        },
        {
            "pitch": 65,
            "start_beat": 17.0,
            "duration_beat": 0.314583333333335,
            "velocity": 49,
            "track": 1
        },
        {
            "pitch": 75,
            "start_beat": 17.333333333333332,
            "duration_beat": 0.3312500000000007,
            "velocity": 49,
            "track": 0
        },
        {
            "pitch": 63,
            "start_beat": 17.333333333333332,
            "duration_beat": 0.314583333333335,
            "velocity": 49,
            "track": 1
        },
        {
            "pitch": 74,
            "start_beat": 17.666666666666668,
            "duration_beat": 0.31458333333333144,
            "velocity": 49,
            "track": 0
        },
        {
            "pitch": 62,
            "start_beat": 17.666666666666668,
            "duration_beat": 0.31458333333333144,
            "velocity": 49,
            "track": 1
        },
        {
            "pitch": 74,
            "start_beat": 18.0,
            "duration_beat": 0.9479166666666679,
            "velocity": 49,
            "track": 0
        },
        {
            "pitch": 62,
            "start_beat": 18.0,
            "duration_beat": 0.9479166666666679,
            "velocity": 49,
            "track": 1
        },
        {
            "pitch": 72,
            "start_beat": 22.0,
            "duration_beat": 1.497916666666665,
            "velocity": 49,
            "track": 0
        },
        {
            "pitch": 51,
            "start_beat": 22.0,
            "duration_beat": 1.997916666666665,
            "velocity": 49,
            "track": 1
        },
        {
            "pitch": 55,
            "start_beat": 22.0,
            "duration_beat": 1.997916666666665,
            "velocity": 49,
            "track": 1
        },
        {
            "pitch": 60,
            "start_beat": 22.0,
            "duration_beat": 1.997916666666665,
            "velocity": 49,
            "track": 1
        },
        {
            "pitch": 67,
            "start_beat": 23.5,
            "duration_beat": 0.497916666666665,
            "velocity": 84,
            "track": 0
        },
        {
            "pitch": 50,
            "start_beat": 24.0,
            "duration_beat": 3.997916666666665,
            "velocity": 80,
            "track": 2
        },
        {
            "pitch": 55,
            "start_beat": 24.075,
            "duration_beat": 3.9208333333333343,
            "velocity": 80,
            "track": 2
        },
        {
            "pitch": 62,
            "start_beat": 24.15,
            "duration_beat": 3.845833333333335,
            "velocity": 80,
            "track": 2
        },
        {
            "pitch": 70,
            "start_beat": 24.25,
            "duration_beat": 3.085416666666667,
            "velocity": 96,
            "track": 0
        },
        {
            "pitch": 38,
            "start_beat": 31.0,
            "duration_beat": 0.9479166666666679,
            "velocity": 49,
            "track": 1
        },
        {
            "pitch": 60,
            "start_beat": 31.5,
            "duration_beat": 1.9979166666666686,
            "velocity": 49,
            "track": 0
        },
        {
            "pitch": 62,
            "start_beat": 32.0,
            "duration_beat": 1.4979166666666686,
            "velocity": 49,
            "track": 0
        },
        {
            "pitch": 66,
            "start_beat": 32.5,
            "duration_beat": 0.9979166666666686,
            "velocity": 49,
            "track": 0
        },
        {
            "pitch": 70,
            "start_beat": 33.0,
            "duration_beat": 0.49791666666666856,
            "velocity": 49,
            "track": 0
        },
        {
            "pitch": 69,
            "start_beat": 33.5,
            "duration_beat": 0.49791666666666856,
            "velocity": 49,
            "track": 0
        },
        {
            "pitch": 67,
            "start_beat": 34.0,
            "duration_beat": 2.84791666666667,
            "velocity": 49,
            "track": 0
        },
        {
            "pitch": 58,
            "start_beat": 35.0,
            "duration_beat": 0.49791666666666856,
            "velocity": 49,
            "track": 0
        },
        {
            "pitch": 62,
            "start_beat": 35.0,
            "duration_beat": 0.49791666666666856,
            "velocity": 49,
            "track": 0
        },
        {
            "pitch": 43,
            "start_beat": 35.0,
            "duration_beat": 0.49791666666666856,
            "velocity": 49,
            "track": 1
        },
        {
            "pitch": 58,
            "start_beat": 36.0,
            "duration_beat": 0.49791666666666856,
            "velocity": 49,
            "track": 0
        },
        {
            "pitch": 62,
            "start_beat": 36.0,
            "duration_beat": 0.49791666666666856,
            "velocity": 49,
            "track": 0
        },
        {
            "pitch": 43,
            "start_beat": 36.0,
            "duration_beat": 0.49791666666666856,
            "velocity": 49,
            "track": 1
        },
        {
            "pitch": 74,
            "start_beat": 37.0,
            "duration_beat": 2.9979166666666686,
            "velocity": 49,
            "track": 0
        },
        {
            "pitch": 62,
            "start_beat": 38.0,
            "duration_beat": 0.49791666666666856,
            "velocity": 49,
            "track": 0
        },
        {
            "pitch": 67,
            "start_beat": 38.0,
            "duration_beat": 0.49791666666666856,
            "velocity": 49,
            "track": 0
        },
        {
            "pitch": 58,
            "start_beat": 38.0,
            "duration_beat": 0.49791666666666856,
            "velocity": 49,
            "track": 1
        },
        {
            "pitch": 62,
            "start_beat": 39.0,
            "duration_beat": 0.49791666666666856,
            "velocity": 49,
            "track": 0
        },
        {
            "pitch": 67,
            "start_beat": 39.0,
            "duration_beat": 0.49791666666666856,
            "velocity": 49,
            "track": 0
        },
        {
            "pitch": 58,
            "start_beat": 39.0,
            "duration_beat": 0.49791666666666856,
            "velocity": 49,
            "track": 1
        },
        {
            "pitch": 72,
            "start_beat": 40.0,
            "duration_beat": 2.84791666666667,
            "velocity": 49,
            "track": 0
        },
        {
            "pitch": 63,
            "start_beat": 41.0,
            "duration_beat": 0.49791666666666856,
            "velocity": 49,
            "track": 0
        },
        {
            "pitch": 67,
            "start_beat": 41.0,
            "duration_beat": 0.49791666666666856,
            "velocity": 49,
            "track": 0
        },
        {
            "pitch": 57,
            "start_beat": 41.0,
            "duration_beat": 0.49791666666666856,
            "velocity": 49,
            "track": 1
        },
        {
            "pitch": 60,
            "start_beat": 41.0,
            "duration_beat": 0.49791666666666856,
            "velocity": 49,
            "track": 1
        },
        {
            "pitch": 63,
            "start_beat": 42.0,
            "duration_beat": 0.49791666666666856,
            "velocity": 49,
            "track": 0
        },
        {
            "pitch": 67,
            "start_beat": 42.0,
            "duration_beat": 0.49791666666666856,
            "velocity": 49,
            "track": 0
        },
        {
            "pitch": 57,
            "start_beat": 42.0,
            "duration_beat": 0.49791666666666856,
            "velocity": 49,
            "track": 1
        },
        {
            "pitch": 60,
            "start_beat": 42.0,
            "duration_beat": 0.49791666666666856,
            "velocity": 49,
            "track": 1
        },
        {
            "pitch": 60,
            "start_beat": 43.5,
            "duration_beat": 1.9979166666666686,
            "velocity": 49,
            "track": 0
        },
        {
            "pitch": 62,
            "start_beat": 44.0,
            "duration_beat": 1.4979166666666686,
            "velocity": 49,
            "track": 0
        },
        {
            "pitch": 38,
            "start_beat": 44.0,
            "duration_beat": 0.49791666666666856,
            "velocity": 49,
            "track": 1
        },
        {
            "pitch": 66,
            "start_beat": 44.5,
            "duration_beat": 0.9979166666666686,
            "velocity": 49,
            "track": 0
        },
        {
            "pitch": 70,
            "start_beat": 45.0,
            "duration_beat": 0.49791666666666856,
            "velocity": 49,
            "track": 0
        },
        {
            "pitch": 38,
            "start_beat": 45.0,
            "duration_beat": 0.49791666666666856,
            "velocity": 49,
            "track": 1
        },
        {
            "pitch": 69,
            "start_beat": 45.5,
            "duration_beat": 0.49791666666666856,
            "velocity": 49,
            "track": 0
        },
        {
            "pitch": 67,
            "start_beat": 46.0,
            "duration_beat": 2.84791666666667,
            "velocity": 49,
            "track": 0
        },
        {
            "pitch": 58,
            "start_beat": 47.0,
            "duration_beat": 0.49791666666666856,
            "velocity": 49,
            "track": 0
        },
        {
            "pitch": 62,
            "start_beat": 47.0,
            "duration_beat": 0.49791666666666856,
            "velocity": 49,
            "track": 0
        },
        {
            "pitch": 43,
            "start_beat": 47.0,
            "duration_beat": 0.49791666666666856,
            "velocity": 49,
            "track": 1
        },
        {
            "pitch": 58,
            "start_beat": 48.0,
            "duration_beat": 0.49791666666666856,
            "velocity": 49,
            "track": 0
        },
        {
            "pitch": 62,
            "start_beat": 48.0,
            "duration_beat": 0.49791666666666856,
            "velocity": 49,
            "track": 0
        },
        {
            "pitch": 43,
            "start_beat": 48.0,
            "duration_beat": 0.49791666666666856,
            "velocity": 49,
            "track": 1
        },
        {
            "pitch": 64,
            "start_beat": 49.0,
            "duration_beat": 2.9979166666666686,
            "velocity": 49,
            "track": 0
        },
        {
            "pitch": 55,
            "start_beat": 50.0,
            "duration_beat": 0.49791666666666856,
            "velocity": 49,
            "track": 0
        },
        {
            "pitch": 57,
            "start_beat": 50.0,
            "duration_beat": 0.49791666666666856,
            "velocity": 49,
            "track": 0
        },
        {
            "pitch": 61,
            "start_beat": 50.0,
            "duration_beat": 0.49791666666666856,
            "velocity": 49,
            "track": 0
        },
        {
            "pitch": 45,
            "start_beat": 50.0,
            "duration_beat": 0.49791666666666856,
            "velocity": 49,
            "track": 1
        },
        {
            "pitch": 55,
            "start_beat": 51.0,
            "duration_beat": 0.49791666666666856,
            "velocity": 49,
            "track": 0
        },
        {
            "pitch": 57,
            "start_beat": 51.0,
            "duration_beat": 0.49791666666666856,
            "velocity": 49,
            "track": 0
        },
        {
            "pitch": 61,
            "start_beat": 51.0,
            "duration_beat": 0.49791666666666856,
            "velocity": 49,
            "track": 0
        },
        {
            "pitch": 45,
            "start_beat": 51.0,
            "duration_beat": 0.49791666666666856,
            "velocity": 49,
            "track": 1
        },
        {
            "pitch": 66,
            "start_beat": 52.0,
            "duration_beat": 2.84791666666667,
            "velocity": 49,
            "track": 0
        },
        {
            "pitch": 54,
            "start_beat": 53.0,
            "duration_beat": 0.49791666666666856,
            "velocity": 49,
            "track": 0
        },
        {
            "pitch": 57,
            "start_beat": 53.0,
            "duration_beat": 0.49791666666666856,
            "velocity": 49,
            "track": 0
        },
        {
            "pitch": 62,
            "start_beat": 53.0,
            "duration_beat": 0.49791666666666856,
            "velocity": 49,
            "track": 0
        },
        {
            "pitch": 38,
            "start_beat": 53.0,
            "duration_beat": 0.49791666666666856,
            "velocity": 49,
            "track": 1
        },
        {
            "pitch": 54,
            "start_beat": 54.0,
            "duration_beat": 0.49791666666666856,
            "velocity": 49,
            "track": 0
        },
        {
            "pitch": 57,
            "start_beat": 54.0,
            "duration_beat": 0.49791666666666856,
            "velocity": 49,
            "track": 0
        },
        {
            "pitch": 62,
            "start_beat": 54.0,
            "duration_beat": 0.49791666666666856,
            "velocity": 49,
            "track": 0
        },
        {
            "pitch": 38,
            "start_beat": 54.0,
            "duration_beat": 0.49791666666666856,
            "velocity": 49,
            "track": 1
        },
        {
            "pitch": 60,
            "start_beat": 55.5,
            "duration_beat": 1.9979166666666686,
            "velocity": 49,
            "track": 0
        },
        {
            "pitch": 62,
            "start_beat": 56.0,
            "duration_beat": 1.4979166666666686,
            "velocity": 49,
            "track": 0
        },
        {
            "pitch": 50,
            "start_beat": 56.0,
            "duration_beat": 0.49791666666666856,
            "velocity": 49,
            "track": 1
        },
        {
            "pitch": 66,
            "start_beat": 56.5,
            "duration_beat": 0.9979166666666686,
            "velocity": 49,
            "track": 0
        },
        {
            "pitch": 70,
            "start_beat": 57.0,
            "duration_beat": 0.49791666666666856,
            "velocity": 49,
            "track": 0
        },
        {
            "pitch": 50,
            "start_beat": 57.0,
            "duration_beat": 0.49791666666666856,
            "velocity": 49,
            "track": 1
        },
        {
            "pitch": 69,
            "start_beat": 57.5,
            "duration_beat": 0.49791666666666856,
            "velocity": 49,
            "track": 0
        },
        {
            "pitch": 67,
            "start_beat": 58.0,
            "duration_beat": 2.84791666666667,
            "velocity": 49,
            "track": 0
        },
        {
            "pitch": 58,
            "start_beat": 59.0,
            "duration_beat": 0.49791666666666856,
            "velocity": 49,
            "track": 0
        },
        {
            "pitch": 62,
            "start_beat": 59.0,
            "duration_beat": 0.49791666666666856,
            "velocity": 49,
            "track": 0
        },
        {
            "pitch": 43,
            "start_beat": 59.0,
            "duration_beat": 0.49791666666666856,
            "velocity": 49,
            "track": 1
        },
        {
            "pitch": 58,
            "start_beat": 60.0,
            "duration_beat": 0.49791666666666856,
            "velocity": 49,
            "track": 0
        },
        {
            "pitch": 62,
            "start_beat": 60.0,
            "duration_beat": 0.49791666666666856,
            "velocity": 49,
            "track": 0
        },
        {
            "pitch": 43,
            "start_beat": 60.0,
            "duration_beat": 0.49791666666666856,
            "velocity": 49,
            "track": 1
        },
        {
            "pitch": 79,
            "start_beat": 61.0,
            "duration_beat": 2.9979166666666686,
            "velocity": 49,
            "track": 0
        },
        {
            "pitch": 67,
            "start_beat": 62.0,
            "duration_beat": 0.49791666666666856,
            "velocity": 49,
            "track": 0
        },
        {
            "pitch": 70,
            "start_beat": 62.0,
            "duration_beat": 0.49791666666666856,
            "velocity": 49,
            "track": 0
        },
        {
            "pitch": 73,
            "start_beat": 62.0,
            "duration_beat": 0.49791666666666856,
            "velocity": 49,
            "track": 0
        },
        {
            "pitch": 64,
            "start_beat": 62.0,
            "duration_beat": 0.49791666666666856,
            "velocity": 49,
            "track": 1
        },
        {
            "pitch": 67,
            "start_beat": 63.0,
            "duration_beat": 0.49791666666666856,
            "velocity": 49,
            "track": 0
        },
        {
            "pitch": 70,
            "start_beat": 63.0,
            "duration_beat": 0.49791666666666856,
            "velocity": 49,
            "track": 0
        },
        {
            "pitch": 73,
            "start_beat": 63.0,
            "duration_beat": 0.49791666666666856,
            "velocity": 49,
            "track": 0
        },
        {
            "pitch": 64,
            "start_beat": 63.0,
            "duration_beat": 0.49791666666666856,
            "velocity": 49,
            "track": 1
        },
        {
            "pitch": 77,
            "start_beat": 64.0,
            "duration_beat": 2.847916666666663,
            "velocity": 49,
            "track": 0
        },
        {
            "pitch": 70,
            "start_beat": 65.0,
            "duration_beat": 0.49791666666666856,
            "velocity": 49,
            "track": 0
        },
        {
            "pitch": 72,
            "start_beat": 65.0,
            "duration_beat": 0.49791666666666856,
            "velocity": 49,
            "track": 0
        },
        {
            "pitch": 65,
            "start_beat": 65.0,
            "duration_beat": 0.49791666666666856,
            "velocity": 49,
            "track": 1
        },
        {
            "pitch": 70,
            "start_beat": 66.0,
            "duration_beat": 0.49791666666666856,
            "velocity": 49,
            "track": 0
        },
        {
            "pitch": 72,
            "start_beat": 66.0,
            "duration_beat": 0.49791666666666856,
            "velocity": 49,
            "track": 0
        },
        {
            "pitch": 65,
            "start_beat": 66.0,
            "duration_beat": 0.49791666666666856,
            "velocity": 49,
            "track": 1
        },
        {
            "pitch": 63,
            "start_beat": 67.0,
            "duration_beat": 2.9979166666666686,
            "velocity": 49,
            "track": 0
        },
        {
            "pitch": 65,
            "start_beat": 67.5,
            "duration_beat": 0.49791666666666856,
            "velocity": 49,
            "track": 0
        },
        {
            "pitch": 69,
            "start_beat": 68.0,
            "duration_beat": 1.9979166666666686,
            "velocity": 49,
            "track": 0
        },
        {
            "pitch": 41,
            "start_beat": 68.0,
            "duration_beat": 0.49791666666666856,
            "velocity": 49,
            "track": 1
        },
        {
            "pitch": 75,
            "start_beat": 68.5,
            "duration_beat": 0.49791666666666856,
            "velocity": 49,
            "track": 0
        },
        {
            "pitch": 74,
            "start_beat": 69.0,
            "duration_beat": 0.49791666666666856,
            "velocity": 49,
            "track": 0
        },
        {
            "pitch": 41,
            "start_beat": 69.0,
            "duration_beat": 0.49791666666666856,
            "velocity": 49,
            "track": 1
        },
        {
            "pitch": 73,
            "start_beat": 69.75,
            "duration_beat": 0.24791666666666856,
            "velocity": 49,
            "track": 0
        },
        {
            "pitch": 73,
            "start_beat": 70.0,
            "duration_beat": 2.9979166666666686,
            "velocity": 49,
            "track": 0
        },
        {
            "pitch": 63,
            "start_beat": 71.0,
            "duration_beat": 0.49791666666666856,
            "velocity": 49,
            "track": 0
        },
        {
            "pitch": 65,
            "start_beat": 71.0,
            "duration_beat": 0.49791666666666856,
            "velocity": 49,
            "track": 0
        },
        {
            "pitch": 69,
            "start_beat": 71.0,
            "duration_beat": 0.49791666666666856,
            "velocity": 49,
            "track": 0
        },
        {
            "pitch": 46,
            "start_beat": 71.0,
            "duration_beat": 0.49791666666666856,
            "velocity": 49,
            "track": 1
        },
        {
            "pitch": 63,
            "start_beat": 72.0,
            "duration_beat": 0.49791666666666856,
            "velocity": 49,
            "track": 0
        },
        {
            "pitch": 65,
            "start_beat": 72.0,
            "duration_beat": 0.49791666666666856,
            "velocity": 49,
            "track": 0
        },
        {
            "pitch": 69,
            "start_beat": 72.0,
            "duration_beat": 0.49791666666666856,
            "velocity": 49,
            "track": 0
        },
        {
            "pitch": 46,
            "start_beat": 72.0,
            "duration_beat": 0.49791666666666856,
            "velocity": 49,
            "track": 1
        },
        {
            "pitch": 74,
            "start_beat": 73.0,
            "duration_beat": 2.847916666666663,
            "velocity": 49,
            "track": 0
        },
        {
            "pitch": 62,
            "start_beat": 74.0,
            "duration_beat": 0.49791666666666856,
            "velocity": 49,
            "track": 0
        },
        {
            "pitch": 65,
            "start_beat": 74.0,
            "duration_beat": 0.49791666666666856,
            "velocity": 49,
            "track": 0
        },
        {
            "pitch": 70,
            "start_beat": 74.0,
            "duration_beat": 0.49791666666666856,
            "velocity": 49,
            "track": 0
        },
        {
            "pitch": 58,
            "start_beat": 74.0,
            "duration_beat": 0.49791666666666856,
            "velocity": 49,
            "track": 1
        },
        {
            "pitch": 62,
            "start_beat": 75.0,
            "duration_beat": 0.49791666666666856,
            "velocity": 49,
            "track": 0
        },
        {
            "pitch": 65,
            "start_beat": 75.0,
            "duration_beat": 0.49791666666666856,
            "velocity": 49,
            "track": 0
        },
        {
            "pitch": 70,
            "start_beat": 75.0,
            "duration_beat": 0.49791666666666856,
            "velocity": 49,
            "track": 0
        },
        {
            "pitch": 58,
            "start_beat": 75.0,
            "duration_beat": 0.49791666666666856,
            "velocity": 49,
            "track": 1
        },
        {
            "pitch": 72,
            "start_beat": 76.0,
            "duration_beat": 2.847916666666663,
            "velocity": 49,
            "track": 0
        },
        {
            "pitch": 63,
            "start_beat": 77.0,
            "duration_beat": 0.49791666666666856,
            "velocity": 49,
            "track": 0
        },
        {
            "pitch": 67,
            "start_beat": 77.0,
            "duration_beat": 0.49791666666666856,
            "velocity": 49,
            "track": 0
        },
        {
            "pitch": 57,
            "start_beat": 77.0,
            "duration_beat": 0.49791666666666856,
            "velocity": 49,
            "track": 1
        },
        {
            "pitch": 63,
            "start_beat": 78.0,
            "duration_beat": 0.49791666666666856,
            "velocity": 49,
            "track": 0
        },
        {
            "pitch": 67,
            "start_beat": 78.0,
            "duration_beat": 0.49791666666666856,
            "velocity": 49,
            "track": 0
        },
        {
            "pitch": 57,
            "start_beat": 78.0,
            "duration_beat": 0.49791666666666856,
            "velocity": 49,
            "track": 1
        },
        {
            "pitch": 60,
            "start_beat": 79.5,
            "duration_beat": 1.9979166666666686,
            "velocity": 49,
            "track": 0
        },
        {
            "pitch": 62,
            "start_beat": 80.0,
            "duration_beat": 1.4979166666666686,
            "velocity": 49,
            "track": 0
        },
        {
            "pitch": 38,
            "start_beat": 80.0,
            "duration_beat": 0.49791666666666856,
            "velocity": 49,
            "track": 1
        },
        {
            "pitch": 66,
            "start_beat": 80.5,
            "duration_beat": 0.9979166666666686,
            "velocity": 49,
            "track": 0
        },
        {
            "pitch": 70,
            "start_beat": 81.0,
            "duration_beat": 0.49791666666666856,
            "velocity": 49,
            "track": 0
        },
        {
            "pitch": 38,
            "start_beat": 81.0,
            "duration_beat": 0.49791666666666856,
            "velocity": 49,
            "track": 1
        },
        {
            "pitch": 69,
            "start_beat": 81.5,
            "duration_beat": 0.49791666666666856,
            "velocity": 49,
            "track": 0
        },
        {
            "pitch": 67,
            "start_beat": 82.0,
            "duration_beat": 2.847916666666663,
            "velocity": 49,
            "track": 0
        },
        {
            "pitch": 58,
            "start_beat": 83.0,
            "duration_beat": 0.49791666666666856,
            "velocity": 49,
            "track": 0
        },
        {
            "pitch": 62,
            "start_beat": 83.0,
            "duration_beat": 0.49791666666666856,
            "velocity": 49,
            "track": 0
        },
        {
            "pitch": 43,
            "start_beat": 83.0,
            "duration_beat": 0.49791666666666856,
            "velocity": 49,
            "track": 1
        },
        {
            "pitch": 58,
            "start_beat": 84.0,
            "duration_beat": 0.49791666666666856,
            "velocity": 49,
            "track": 0
        },
        {
            "pitch": 62,
            "start_beat": 84.0,
            "duration_beat": 0.49791666666666856,
            "velocity": 49,
            "track": 0
        },
        {
            "pitch": 43,
            "start_beat": 84.0,
            "duration_beat": 0.49791666666666856,
            "velocity": 49,
            "track": 1
        },
        {
            "pitch": 74,
            "start_beat": 85.0,
            "duration_beat": 2.9979166666666686,
            "velocity": 49,
            "track": 0
        },
        {
            "pitch": 62,
            "start_beat": 86.0,
            "duration_beat": 0.49791666666666856,
            "velocity": 49,
            "track": 0
        },
        {
            "pitch": 67,
            "start_beat": 86.0,
            "duration_beat": 0.49791666666666856,
            "velocity": 49,
            "track": 0
        },
        {
            "pitch": 58,
            "start_beat": 86.0,
            "duration_beat": 0.49791666666666856,
            "velocity": 49,
            "track": 1
        },
        {
            "pitch": 62,
            "start_beat": 87.0,
            "duration_beat": 0.49791666666666856,
            "velocity": 49,
            "track": 0
        },
        {
            "pitch": 67,
            "start_beat": 87.0,
            "duration_beat": 0.49791666666666856,
            "velocity": 49,
            "track": 0
        },
        {
            "pitch": 58,
            "start_beat": 87.0,
            "duration_beat": 0.49791666666666856,
            "velocity": 49,
            "track": 1
        },
        {
            "pitch": 72,
            "start_beat": 88.0,
            "duration_beat": 2.847916666666663,
            "velocity": 49,
            "track": 0
        },
        {
            "pitch": 63,
            "start_beat": 89.0,
            "duration_beat": 0.49791666666666856,
            "velocity": 49,
            "track": 0
        },
        {
            "pitch": 67,
            "start_beat": 89.0,
            "duration_beat": 0.49791666666666856,
            "velocity": 49,
            "track": 0
        },
        {
            "pitch": 57,
            "start_beat": 89.0,
            "duration_beat": 0.49791666666666856,
            "velocity": 49,
            "track": 1
        },
        {
            "pitch": 60,
            "start_beat": 89.0,
            "duration_beat": 0.49791666666666856,
            "velocity": 49,
            "track": 1
        },
        {
            "pitch": 63,
            "start_beat": 90.0,
            "duration_beat": 0.49791666666666856,
            "velocity": 49,
            "track": 0
        },
        {
            "pitch": 67,
            "start_beat": 90.0,
            "duration_beat": 0.49791666666666856,
            "velocity": 49,
            "track": 0
        },
        {
            "pitch": 57,
            "start_beat": 90.0,
            "duration_beat": 0.49791666666666856,
            "velocity": 49,
            "track": 1
        },
        {
            "pitch": 60,
            "start_beat": 90.0,
            "duration_beat": 0.49791666666666856,
            "velocity": 49,
            "track": 1
        },
        {
            "pitch": 60,
            "start_beat": 91.5,
            "duration_beat": 1.9979166666666686,
            "velocity": 49,
            "track": 0
        },
        {
            "pitch": 62,
            "start_beat": 92.0,
            "duration_beat": 1.4979166666666686,
            "velocity": 49,
            "track": 0
        },
        {
            "pitch": 38,
            "start_beat": 92.0,
            "duration_beat": 0.49791666666666856,
            "velocity": 49,
            "track": 1
        },
        {
            "pitch": 66,
            "start_beat": 92.5,
            "duration_beat": 0.9979166666666686,
            "velocity": 49,
            "track": 0
        },
        {
            "pitch": 70,
            "start_beat": 93.0,
            "duration_beat": 0.49791666666666856,
            "velocity": 49,
            "track": 0
        },
        {
            "pitch": 38,
            "start_beat": 93.0,
            "duration_beat": 0.49791666666666856,
            "velocity": 49,
            "track": 1
        },
        {
            "pitch": 69,
            "start_beat": 93.5,
            "duration_beat": 0.49791666666666856,
            "velocity": 49,
            "track": 0
        },
        {
            "pitch": 67,
            "start_beat": 94.0,
            "duration_beat": 2.847916666666663,
            "velocity": 49,
            "track": 0
        },
        {
            "pitch": 58,
            "start_beat": 95.0,
            "duration_beat": 0.49791666666666856,
            "velocity": 49,
            "track": 0
        },
        {
            "pitch": 62,
            "start_beat": 95.0,
            "duration_beat": 0.49791666666666856,
            "velocity": 49,
            "track": 0
        },
        {
            "pitch": 43,
            "start_beat": 95.0,
            "duration_beat": 0.49791666666666856,
            "velocity": 49,
            "track": 1
        },
        {
            "pitch": 58,
            "start_beat": 96.0,
            "duration_beat": 0.49791666666666856,
            "velocity": 49,
            "track": 0
        },
        {
            "pitch": 62,
            "start_beat": 96.0,
            "duration_beat": 0.49791666666666856,
            "velocity": 49,
            "track": 0
        },
        {
            "pitch": 43,
            "start_beat": 96.0,
            "duration_beat": 0.49791666666666856,
            "velocity": 49,
            "track": 1
        },
        {
            "pitch": 64,
            "start_beat": 97.0,
            "duration_beat": 2.9979166666666686,
            "velocity": 49,
            "track": 0
        },
        {
            "pitch": 55,
            "start_beat": 98.0,
            "duration_beat": 0.49791666666666856,
            "velocity": 49,
            "track": 0
        },
        {
            "pitch": 57,
            "start_beat": 98.0,
            "duration_beat": 0.49791666666666856,
            "velocity": 49,
            "track": 0
        },
        {
            "pitch": 61,
            "start_beat": 98.0,
            "duration_beat": 0.49791666666666856,
            "velocity": 49,
            "track": 0
        },
        {
            "pitch": 45,
            "start_beat": 98.0,
            "duration_beat": 0.49791666666666856,
            "velocity": 49,
            "track": 1
        },
        {
            "pitch": 55,
            "start_beat": 99.0,
            "duration_beat": 0.49791666666666856,
            "velocity": 49,
            "track": 0
        },
        {
            "pitch": 57,
            "start_beat": 99.0,
            "duration_beat": 0.49791666666666856,
            "velocity": 49,
            "track": 0
        },
        {
            "pitch": 61,
            "start_beat": 99.0,
            "duration_beat": 0.49791666666666856,
            "velocity": 49,
            "track": 0
        },
        {
            "pitch": 45,
            "start_beat": 99.0,
            "duration_beat": 0.49791666666666856,
            "velocity": 49,
            "track": 1
        },
        {
            "pitch": 66,
            "start_beat": 100.0,
            "duration_beat": 2.847916666666663,
            "velocity": 49,
            "track": 0
        },
        {
            "pitch": 54,
            "start_beat": 101.0,
            "duration_beat": 0.49791666666666856,
            "velocity": 49,
            "track": 0
        },
        {
            "pitch": 57,
            "start_beat": 101.0,
            "duration_beat": 0.49791666666666856,
            "velocity": 49,
            "track": 0
        },
        {
            "pitch": 62,
            "start_beat": 101.0,
            "duration_beat": 0.49791666666666856,
            "velocity": 49,
            "track": 0
        },
        {
            "pitch": 38,
            "start_beat": 101.0,
            "duration_beat": 0.49791666666666856,
            "velocity": 49,
            "track": 1
        },
        {
            "pitch": 54,
            "start_beat": 102.0,
            "duration_beat": 0.49791666666666856,
            "velocity": 49,
            "track": 0
        },
        {
            "pitch": 57,
            "start_beat": 102.0,
            "duration_beat": 0.49791666666666856,
            "velocity": 49,
            "track": 0
        },
        {
            "pitch": 62,
            "start_beat": 102.0,
            "duration_beat": 0.49791666666666856,
            "velocity": 49,
            "track": 0
        },
        {
            "pitch": 38,
            "start_beat": 102.0,
            "duration_beat": 0.49791666666666856,
            "velocity": 49,
            "track": 1
        },
        {
            "pitch": 60,
            "start_beat": 103.5,
            "duration_beat": 1.9979166666666686,
            "velocity": 49,
            "track": 0
        },
        {
            "pitch": 62,
            "start_beat": 104.0,
            "duration_beat": 1.4979166666666686,
            "velocity": 49,
            "track": 0
        },
        {
            "pitch": 50,
            "start_beat": 104.0,
            "duration_beat": 0.49791666666666856,
            "velocity": 49,
            "track": 1
        },
        {
            "pitch": 66,
            "start_beat": 104.5,
            "duration_beat": 0.9979166666666686,
            "velocity": 49,
            "track": 0
        },
        {
            "pitch": 70,
            "start_beat": 105.0,
            "duration_beat": 0.49791666666666856,
            "velocity": 49,
            "track": 0
        },
        {
            "pitch": 50,
            "start_beat": 105.0,
            "duration_beat": 0.49791666666666856,
            "velocity": 49,
            "track": 1
        },
        {
            "pitch": 69,
            "start_beat": 105.5,
            "duration_beat": 0.49791666666666856,
            "velocity": 49,
            "track": 0
        },
        {
            "pitch": 67,
            "start_beat": 106.0,
            "duration_beat": 2.9979166666666686,
            "velocity": 49,
            "track": 0
        },
        {
            "pitch": 59,
            "start_beat": 107.0,
            "duration_beat": 0.49791666666666856,
            "velocity": 49,
            "track": 0
        },
        {
            "pitch": 62,
            "start_beat": 107.0,
            "duration_beat": 0.49791666666666856,
            "velocity": 49,
            "track": 0
        },
        {
            "pitch": 65,
            "start_beat": 107.0,
            "duration_beat": 0.49791666666666856,
            "velocity": 49,
            "track": 0
        },
        {
            "pitch": 55,
            "start_beat": 107.0,
            "duration_beat": 0.49791666666666856,
            "velocity": 49,
            "track": 1
        },
        {
            "pitch": 59,
            "start_beat": 108.0,
            "duration_beat": 0.49791666666666856,
            "velocity": 52,
            "track": 0
        },
        {
            "pitch": 62,
            "start_beat": 108.0,
            "duration_beat": 0.49791666666666856,
            "velocity": 52,
            "track": 0
        },
        {
            "pitch": 65,
            "start_beat": 108.0,
            "duration_beat": 0.49791666666666856,
            "velocity": 52,
            "track": 0
        },
        {
            "pitch": 55,
            "start_beat": 108.0,
            "duration_beat": 0.49791666666666856,
            "velocity": 52,
            "track": 1
        },
        {
            "pitch": 79,
            "start_beat": 109.0,
            "duration_beat": 2.9979166666666686,
            "velocity": 55,
            "track": 0
        },
        {
            "pitch": 65,
            "start_beat": 110.0,
            "duration_beat": 0.49791666666666856,
            "velocity": 58,
            "track": 0
        },
        {
            "pitch": 67,
            "start_beat": 110.0,
            "duration_beat": 0.49791666666666856,
            "velocity": 58,
            "track": 0
        },
        {
            "pitch": 71,
            "start_beat": 110.0,
            "duration_beat": 0.49791666666666856,
            "velocity": 58,
            "track": 0
        },
        {
            "pitch": 74,
            "start_beat": 110.0,
            "duration_beat": 0.49791666666666856,
            "velocity": 58,
            "track": 0
        },
        {
            "pitch": 43,
            "start_beat": 110.0,
            "duration_beat": 0.49791666666666856,
            "velocity": 58,
            "track": 1
        },
        {
            "pitch": 65,
            "start_beat": 111.0,
            "duration_beat": 0.49791666666666856,
            "velocity": 61,
            "track": 0
        },
        {
            "pitch": 67,
            "start_beat": 111.0,
            "duration_beat": 0.49791666666666856,
            "velocity": 61,
            "track": 0
        },
        {
            "pitch": 71,
            "start_beat": 111.0,
            "duration_beat": 0.49791666666666856,
            "velocity": 61,
            "track": 0
        },
        {
            "pitch": 74,
            "start_beat": 111.0,
            "duration_beat": 0.49791666666666856,
            "velocity": 61,
            "track": 0
        },
        {
            "pitch": 43,
            "start_beat": 111.0,
            "duration_beat": 0.49791666666666856,
            "velocity": 61,
            "track": 1
        },
        {
            "pitch": 79,
            "start_beat": 112.0,
            "duration_beat": 2.9979166666666686,
            "velocity": 65,
            "track": 0
        },
        {
            "pitch": 67,
            "start_beat": 113.0,
            "duration_beat": 0.49791666666666856,
            "velocity": 60,
            "track": 0
        },
        {
            "pitch": 72,
            "start_beat": 113.0,
            "duration_beat": 0.49791666666666856,
            "velocity": 60,
            "track": 0
        },
        {
            "pitch": 75,
            "start_beat": 113.0,
            "duration_beat": 0.49791666666666856,
            "velocity": 60,
            "track": 0
        },
        {
            "pitch": 36,
            "start_beat": 113.0,
            "duration_beat": 0.49791666666666856,
            "velocity": 60,
            "track": 1
        },
        {
            "pitch": 48,
            "start_beat": 113.0,
            "duration_beat": 1.9979166666666686,
            "velocity": 60,
            "track": 1
        },
        {
            "pitch": 67,
            "start_beat": 114.0,
            "duration_beat": 0.49791666666666856,
            "velocity": 55,
            "track": 0
        },
        {
            "pitch": 72,
            "start_beat": 114.0,
            "duration_beat": 0.49791666666666856,
            "velocity": 55,
            "track": 0
        },
        {
            "pitch": 75,
            "start_beat": 114.0,
            "duration_beat": 0.49791666666666856,
            "velocity": 55,
            "track": 0
        },
        {
            "pitch": 55,
            "start_beat": 114.0,
            "duration_beat": 0.49791666666666856,
            "velocity": 55,
            "track": 1
        },
        {
            "pitch": 74,
            "start_beat": 115.0,
            "duration_beat": 2.9979166666666686,
            "velocity": 49,
            "track": 0
        },
        {
            "pitch": 62,
            "start_beat": 116.0,
            "duration_beat": 0.49791666666666856,
            "velocity": 49,
            "track": 0
        },
        {
            "pitch": 67,
            "start_beat": 116.0,
            "duration_beat": 0.49791666666666856,
            "velocity": 49,
            "track": 0
        },
        {
            "pitch": 38,
            "start_beat": 116.0,
            "duration_beat": 0.49791666666666856,
            "velocity": 49,
            "track": 1
        },
        {
            "pitch": 50,
            "start_beat": 116.0,
            "duration_beat": 1.9979166666666686,
            "velocity": 49,
            "track": 1
        },
        {
            "pitch": 62,
            "start_beat": 117.0,
            "duration_beat": 0.49791666666666856,
            "velocity": 49,
            "track": 0
        },
        {
            "pitch": 67,
            "start_beat": 117.0,
            "duration_beat": 0.49791666666666856,
            "velocity": 49,
            "track": 0
        },
        {
            "pitch": 55,
            "start_beat": 117.0,
            "duration_beat": 0.49791666666666856,
            "velocity": 49,
            "track": 1
        },
        {
            "pitch": 72,
            "start_beat": 118.0,
            "duration_beat": 2.9979166666666686,
            "velocity": 49,
            "track": 0
        },
        {
            "pitch": 60,
            "start_beat": 119.0,
            "duration_beat": 0.49791666666666856,
            "velocity": 49,
            "track": 0
        },
        {
            "pitch": 67,
            "start_beat": 119.0,
            "duration_beat": 0.49791666666666856,
            "velocity": 49,
            "track": 0
        },
        {
            "pitch": 39,
            "start_beat": 119.0,
            "duration_beat": 0.49791666666666856,
            "velocity": 49,
            "track": 1
        },
        {
            "pitch": 51,
            "start_beat": 119.0,
            "duration_beat": 1.9979166666666686,
            "velocity": 49,
            "track": 1
        },
        {
            "pitch": 60,
            "start_beat": 120.0,
            "duration_beat": 0.49791666666666856,
            "velocity": 49,
            "track": 0
        },
        {
            "pitch": 67,
            "start_beat": 120.0,
            "duration_beat": 0.49791666666666856,
            "velocity": 49,
            "track": 0
        },
        {
            "pitch": 55,
            "start_beat": 120.0,
            "duration_beat": 0.49791666666666856,
            "velocity": 49,
            "track": 1
        },
        {
            "pitch": 67,
            "start_beat": 121.0,
            "duration_beat": 2.9979166666666686,
            "velocity": 49,
            "track": 0
        },
        {
            "pitch": 58,
            "start_beat": 122.0,
            "duration_beat": 0.49791666666666856,
            "velocity": 49,
            "track": 0
        },
        {
            "pitch": 62,
            "start_beat": 122.0,
            "duration_beat": 0.49791666666666856,
            "velocity": 49,
            "track": 0
        },
        {
            "pitch": 38,
            "start_beat": 122.0,
            "duration_beat": 0.49791666666666856,
            "velocity": 49,
            "track": 1
        },
        {
            "pitch": 50,
            "start_beat": 122.0,
            "duration_beat": 1.9979166666666686,
            "velocity": 49,
            "track": 1
        },
        {
            "pitch": 58,
            "start_beat": 123.0,
            "duration_beat": 0.49791666666666856,
            "velocity": 57,
            "track": 0
        },
        {
            "pitch": 62,
            "start_beat": 123.0,
            "duration_beat": 0.49791666666666856,
            "velocity": 57,
            "track": 0
        },
        {
            "pitch": 55,
            "start_beat": 123.0,
            "duration_beat": 0.49791666666666856,
            "velocity": 57,
            "track": 1
        },
        {
            "pitch": 79,
            "start_beat": 124.0,
            "duration_beat": 2.9979166666666686,
            "velocity": 65,
            "track": 0
        },
        {
            "pitch": 47,
            "start_beat": 124.0,
            "duration_beat": 0.49791666666666856,
            "velocity": 65,
            "track": 1
        },
        {
            "pitch": 48,
            "start_beat": 124.5,
            "duration_beat": 0.49791666666666856,
            "velocity": 63,
            "track": 1
        },
        {
            "pitch": 67,
            "start_beat": 125.0,
            "duration_beat": 0.49791666666666856,
            "velocity": 60,
            "track": 0
        },
        {
            "pitch": 72,
            "start_beat": 125.0,
            "duration_beat": 0.49791666666666856,
            "velocity": 60,
            "track": 0
        },
        {
            "pitch": 75,
            "start_beat": 125.0,
            "duration_beat": 0.49791666666666856,
            "velocity": 60,
            "track": 0
        },
        {
            "pitch": 50,
            "start_beat": 125.0,
            "duration_beat": 0.49791666666666856,
            "velocity": 60,
            "track": 1
        },
        {
            "pitch": 48,
            "start_beat": 125.5,
            "duration_beat": 0.49791666666666856,
            "velocity": 57,
            "track": 1
        },
        {
            "pitch": 67,
            "start_beat": 126.0,
            "duration_beat": 0.49791666666666856,
            "velocity": 55,
            "track": 0
        },
        {
            "pitch": 72,
            "start_beat": 126.0,
            "duration_beat": 0.49791666666666856,
            "velocity": 55,
            "track": 0
        },
        {
            "pitch": 75,
            "start_beat": 126.0,
            "duration_beat": 0.49791666666666856,
            "velocity": 55,
            "track": 0
        },
        {
            "pitch": 55,
            "start_beat": 126.0,
            "duration_beat": 0.9479166666666714,
            "velocity": 55,
            "track": 1
        },
        {
            "pitch": 74,
            "start_beat": 127.0,
            "duration_beat": 2.9979166666666686,
            "velocity": 49,
            "track": 0
        },
        {
            "pitch": 49,
            "start_beat": 127.0,
            "duration_beat": 0.49791666666666856,
            "velocity": 49,
            "track": 1
        },
        {
            "pitch": 50,
            "start_beat": 127.5,
            "duration_beat": 0.49791666666666856,
            "velocity": 49,
            "track": 1
        },
        {
            "pitch": 62,
            "start_beat": 128.0,
            "duration_beat": 0.49791666666666856,
            "velocity": 49,
            "track": 0
        },
        {
            "pitch": 67,
            "start_beat": 128.0,
            "duration_beat": 0.49791666666666856,
            "velocity": 49,
            "track": 0
        },
        {
            "pitch": 51,
            "start_beat": 128.0,
            "duration_beat": 0.49791666666666856,
            "velocity": 49,
            "track": 1
        },
        {
            "pitch": 50,
            "start_beat": 128.5,
            "duration_beat": 0.49791666666666856,
            "velocity": 49,
            "track": 1
        },
        {
            "pitch": 62,
            "start_beat": 129.0,
            "duration_beat": 0.49791666666666856,
            "velocity": 49,
            "track": 0
        },
        {
            "pitch": 67,
            "start_beat": 129.0,
            "duration_beat": 0.49791666666666856,
            "velocity": 49,
            "track": 0
        },
        {
            "pitch": 55,
            "start_beat": 129.0,
            "duration_beat": 0.9479166666666572,
            "velocity": 49,
            "track": 1
        },
        {
            "pitch": 72,
            "start_beat": 130.0,
            "duration_beat": 2.9979166666666686,
            "velocity": 49,
            "track": 0
        },
        {
            "pitch": 50,
            "start_beat": 130.0,
            "duration_beat": 0.49791666666666856,
            "velocity": 49,
            "track": 1
        },
        {
            "pitch": 51,
            "start_beat": 130.5,
            "duration_beat": 0.49791666666666856,
            "velocity": 49,
            "track": 1
        },
        {
            "pitch": 60,
            "start_beat": 131.0,
            "duration_beat": 0.49791666666666856,
            "velocity": 49,
            "track": 0
        },
        {
            "pitch": 67,
            "start_beat": 131.0,
            "duration_beat": 0.49791666666666856,
            "velocity": 49,
            "track": 0
        },
        {
            "pitch": 53,
            "start_beat": 131.0,
            "duration_beat": 0.49791666666666856,
            "velocity": 49,
            "track": 1
        },
        {
            "pitch": 51,
            "start_beat": 131.5,
            "duration_beat": 0.49791666666666856,
            "velocity": 49,
            "track": 1
        },
        {
            "pitch": 60,
            "start_beat": 132.0,
            "duration_beat": 0.49791666666666856,
            "velocity": 49,
            "track": 0
        },
        {
            "pitch": 67,
            "start_beat": 132.0,
            "duration_beat": 0.49791666666666856,
            "velocity": 49,
            "track": 0
        },
        {
            "pitch": 55,
            "start_beat": 132.0,
            "duration_beat": 0.4729166666666629,
            "velocity": 49,
            "track": 1
        },
        {
            "pitch": 67,
            "start_beat": 133.0,
            "duration_beat": 2.9979166666666686,
            "velocity": 49,
            "track": 0
        },
        {
            "pitch": 51,
            "start_beat": 133.0,
            "duration_beat": 0.12291666666666856,
            "velocity": 49,
            "track": 1
        },
        {
            "pitch": 52,
            "start_beat": 133.125,
            "duration_beat": 0.12291666666666856,
            "velocity": 49,
            "track": 1
        },
        {
            "pitch": 53,
            "start_beat": 133.25,
            "duration_beat": 0.12291666666666856,
            "velocity": 49,
            "track": 1
        },
        {
            "pitch": 52,
            "start_beat": 133.375,
            "duration_beat": 0.12083333333333712,
            "velocity": 49,
            "track": 1
        },
        {
            "pitch": 53,
            "start_beat": 133.49791666666667,
            "duration_beat": 0.12083333333333712,
            "velocity": 49,
            "track": 1
        },
        {
            "pitch": 52,
            "start_beat": 133.625,
            "duration_beat": 0.12083333333333712,
            "velocity": 49,
            "track": 1
        },
        {
            "pitch": 53,
            "start_beat": 133.74791666666667,
            "duration_beat": 0.12083333333333712,
            "velocity": 49,
            "track": 1
        },
        {
            "pitch": 52,
            "start_beat": 133.875,
            "duration_beat": 0.12083333333333712,
            "velocity": 49,
            "track": 1
        },
        {
            "pitch": 53,
            "start_beat": 133.99791666666667,
            "duration_beat": 0.12083333333333712,
            "velocity": 49,
            "track": 1
        },
        {
            "pitch": 58,
            "start_beat": 134.0,
            "duration_beat": 0.49791666666666856,
            "velocity": 49,
            "track": 0
        },
        {
            "pitch": 61,
            "start_beat": 134.0,
            "duration_beat": 0.49791666666666856,
            "velocity": 49,
            "track": 0
        },
        {
            "pitch": 52,
            "start_beat": 134.125,
            "duration_beat": 0.12083333333333712,
            "velocity": 49,
            "track": 1
        },
        {
            "pitch": 53,
            "start_beat": 134.24791666666667,
            "duration_beat": 0.12083333333333712,
            "velocity": 49,
            "track": 1
        },
        {
            "pitch": 52,
            "start_beat": 134.375,
            "duration_beat": 0.12083333333333712,
            "velocity": 49,
            "track": 1
        },
        {
            "pitch": 53,
            "start_beat": 134.49791666666667,
            "duration_beat": 0.12083333333333712,
            "velocity": 49,
            "track": 1
        },
        {
            "pitch": 52,
            "start_beat": 134.625,
            "duration_beat": 0.12083333333333712,
            "velocity": 49,
            "track": 1
        },
        {
            "pitch": 53,
            "start_beat": 134.74791666666667,
            "duration_beat": 0.12083333333333712,
            "velocity": 49,
            "track": 1
        },
        {
            "pitch": 52,
            "start_beat": 134.875,
            "duration_beat": 0.12083333333333712,
            "velocity": 49,
            "track": 1
        },
        {
            "pitch": 53,
            "start_beat": 134.99791666666667,
            "duration_beat": 0.12083333333333712,
            "velocity": 49,
            "track": 1
        },
        {
            "pitch": 58,
            "start_beat": 135.0,
            "duration_beat": 0.49791666666666856,
            "velocity": 49,
            "track": 0
        },
        {
            "pitch": 61,
            "start_beat": 135.0,
            "duration_beat": 0.49791666666666856,
            "velocity": 49,
            "track": 0
        },
        {
            "pitch": 52,
            "start_beat": 135.125,
            "duration_beat": 0.12083333333333712,
            "velocity": 49,
            "track": 1
        },
        {
            "pitch": 53,
            "start_beat": 135.24791666666667,
            "duration_beat": 0.12083333333333712,
            "velocity": 49,
            "track": 1
        },
        {
            "pitch": 52,
            "start_beat": 135.375,
            "duration_beat": 0.12083333333333712,
            "velocity": 49,
            "track": 1
        },
        {
            "pitch": 53,
            "start_beat": 135.49791666666667,
            "duration_beat": 0.24791666666666856,
            "velocity": 49,
            "track": 1
        },
        {
            "pitch": 51,
            "start_beat": 135.75,
            "duration_beat": 0.11666666666667425,
            "velocity": 49,
            "track": 1
        },
        {
            "pitch": 52,
            "start_beat": 135.875,
            "duration_beat": 0.11666666666667425,
            "velocity": 49,
            "track": 1
        },
        {
            "pitch": 65,
            "start_beat": 136.0,
            "duration_beat": 2.847916666666663,
            "velocity": 49,
            "track": 0
        },
        {
            "pitch": 53,
            "start_beat": 136.0,
            "duration_beat": 3.9979166666666686,
            "velocity": 49,
            "track": 1
        },
        {
            "pitch": 58,
            "start_beat": 137.0,
            "duration_beat": 0.49791666666666856,
            "velocity": 49,
            "track": 0
        },
        {
            "pitch": 62,
            "start_beat": 137.0,
            "duration_beat": 0.49791666666666856,
            "velocity": 49,
            "track": 0
        },
        {
            "pitch": 58,
            "start_beat": 138.0,
            "duration_beat": 0.49791666666666856,
            "velocity": 49,
            "track": 0
        },
        {
            "pitch": 62,
            "start_beat": 138.0,
            "duration_beat": 0.49791666666666856,
            "velocity": 49,
            "track": 0
        },
        {
            "pitch": 74,
            "start_beat": 139.0,
            "duration_beat": 3.4979166666666686,
            "velocity": 49,
            "track": 0
        },
        {
            "pitch": 62,
            "start_beat": 140.0,
            "duration_beat": 0.49791666666666856,
            "velocity": 49,
            "track": 0
        },
        {
            "pitch": 65,
            "start_beat": 140.0,
            "duration_beat": 0.49791666666666856,
            "velocity": 49,
            "track": 0
        },
        {
            "pitch": 70,
            "start_beat": 140.0,
            "duration_beat": 0.49791666666666856,
            "velocity": 49,
            "track": 0
        },
        {
            "pitch": 40,
            "start_beat": 140.0,
            "duration_beat": 0.9979166666666686,
            "velocity": 49,
            "track": 1
        },
        {
            "pitch": 52,
            "start_beat": 140.0,
            "duration_beat": 0.9979166666666686,
            "velocity": 49,
            "track": 1
        },
        {
            "pitch": 62,
            "start_beat": 141.0,
            "duration_beat": 0.49791666666666856,
            "velocity": 49,
            "track": 0
        },
        {
            "pitch": 65,
            "start_beat": 141.0,
            "duration_beat": 0.49791666666666856,
            "velocity": 49,
            "track": 0
        },
        {
            "pitch": 70,
            "start_beat": 141.0,
            "duration_beat": 0.49791666666666856,
            "velocity": 49,
            "track": 0
        },
        {
            "pitch": 41,
            "start_beat": 141.0,
            "duration_beat": 0.9979166666666686,
            "velocity": 49,
            "track": 1
        },
        {
            "pitch": 53,
            "start_beat": 141.0,
            "duration_beat": 0.9979166666666686,
            "velocity": 49,
            "track": 1
        },
        {
            "pitch": 63,
            "start_beat": 142.0,
            "duration_beat": 0.9979166666666686,
            "velocity": 49,
            "track": 0
        },
        {
            "pitch": 69,
            "start_beat": 142.0,
            "duration_beat": 0.9979166666666686,
            "velocity": 49,
            "track": 0
        },
        {
            "pitch": 42,
            "start_beat": 142.0,
            "duration_beat": 3.9979166666666686,
            "velocity": 49,
            "track": 1
        },
        {
            "pitch": 54,
            "start_beat": 142.0,
            "duration_beat": 3.9979166666666686,
            "velocity": 49,
            "track": 1
        },
        {
            "pitch": 74,
            "start_beat": 142.5,
            "duration_beat": 0.49791666666666856,
            "velocity": 51,
            "track": 0
        },
        {
            "pitch": 72,
            "start_beat": 143.0,
            "duration_beat": 0.9979166666666686,
            "velocity": 51,
            "track": 0
        },
        {
            "pitch": 63,
            "start_beat": 143.0,
            "duration_beat": 0.9979166666666686,
            "velocity": 51,
            "track": 0
        },
        {
            "pitch": 69,
            "start_beat": 143.0,
            "duration_beat": 0.9979166666666686,
            "velocity": 51,
            "track": 0
        },
        {
            "pitch": 71,
            "start_beat": 144.0,
            "duration_beat": 0.9979166666666686,
            "velocity": 54,
            "track": 0
        },
        {
            "pitch": 63,
            "start_beat": 144.0,
            "duration_beat": 0.9979166666666686,
            "velocity": 54,
            "track": 0
        },
        {
            "pitch": 69,
            "start_beat": 144.0,
            "duration_beat": 0.9979166666666686,
            "velocity": 54,
            "track": 0
        },
        {
            "pitch": 72,
            "start_beat": 145.0,
            "duration_beat": 0.9979166666666686,
            "velocity": 57,
            "track": 0
        },
        {
            "pitch": 63,
            "start_beat": 145.0,
            "duration_beat": 0.9979166666666686,
            "velocity": 57,
            "track": 0
        },
        {
            "pitch": 69,
            "start_beat": 145.0,
            "duration_beat": 0.9979166666666686,
            "velocity": 57,
            "track": 0
        },
        {
            "pitch": 74,
            "start_beat": 146.0,
            "duration_beat": 0.9979166666666686,
            "velocity": 59,
            "track": 0
        },
        {
            "pitch": 63,
            "start_beat": 146.0,
            "duration_beat": 0.9979166666666686,
            "velocity": 59,
            "track": 0
        },
        {
            "pitch": 69,
            "start_beat": 146.0,
            "duration_beat": 0.9979166666666686,
            "velocity": 59,
            "track": 0
        },
        {
            "pitch": 41,
            "start_beat": 146.0,
            "duration_beat": 0.9979166666666686,
            "velocity": 59,
            "track": 1
        },
        {
            "pitch": 53,
            "start_beat": 146.0,
            "duration_beat": 0.9979166666666686,
            "velocity": 59,
            "track": 1
        },
        {
            "pitch": 75,
            "start_beat": 147.0,
            "duration_beat": 0.9979166666666686,
            "velocity": 62,
            "track": 0
        },
        {
            "pitch": 63,
            "start_beat": 147.0,
            "duration_beat": 0.9979166666666686,
            "velocity": 62,
            "track": 0
        },
        {
            "pitch": 69,
            "start_beat": 147.0,
            "duration_beat": 0.9979166666666686,
            "velocity": 62,
            "track": 0
        },
        {
            "pitch": 42,
            "start_beat": 147.0,
            "duration_beat": 0.9479166666666572,
            "velocity": 62,
            "track": 1
        },
        {
            "pitch": 54,
            "start_beat": 147.0,
            "duration_beat": 0.9479166666666572,
            "velocity": 62,
            "track": 1
        },
        {
            "pitch": 75,
            "start_beat": 148.0,
            "duration_beat": 2.9979166666666686,
            "velocity": 65,
            "track": 0
        },
        {
            "pitch": 43,
            "start_beat": 148.0,
            "duration_beat": 5.997916666666669,
            "velocity": 65,
            "track": 1
        },
        {
            "pitch": 55,
            "start_beat": 148.0,
            "duration_beat": 5.997916666666669,
            "velocity": 65,
            "track": 1
        },
        {
            "pitch": 63,
            "start_beat": 149.0,
            "duration_beat": 0.9979166666666686,
            "velocity": 63,
            "track": 0
        },
        {
            "pitch": 70,
            "start_beat": 149.0,
            "duration_beat": 0.9979166666666686,
            "velocity": 63,
            "track": 0
        },
        {
            "pitch": 63,
            "start_beat": 150.0,
            "duration_beat": 0.9979166666666686,
            "velocity": 60,
            "track": 0
        },
        {
            "pitch": 70,
            "start_beat": 150.0,
            "duration_beat": 0.9979166666666686,
            "velocity": 60,
            "track": 0
        },
        {
            "pitch": 62,
            "start_beat": 151.0,
            "duration_beat": 0.9479166666666572,
            "velocity": 57,
            "track": 0
        },
        {
            "pitch": 70,
            "start_beat": 151.0,
            "duration_beat": 0.9479166666666572,
            "velocity": 57,
            "track": 0
        },
        {
            "pitch": 74,
            "start_beat": 151.0,
            "duration_beat": 2.847916666666663,
            "velocity": 57,
            "track": 0
        },
        {
            "pitch": 62,
            "start_beat": 152.0,
            "duration_beat": 0.9479166666666572,
            "velocity": 55,
            "track": 0
        },
        {
            "pitch": 70,
            "start_beat": 152.0,
            "duration_beat": 0.9479166666666572,
            "velocity": 55,
            "track": 0
        },
        {
            "pitch": 62,
            "start_beat": 153.0,
            "duration_beat": 0.9479166666666572,
            "velocity": 52,
            "track": 0
        },
        {
            "pitch": 70,
            "start_beat": 153.0,
            "duration_beat": 0.9479166666666572,
            "velocity": 52,
            "track": 0
        },
        {
            "pitch": 60,
            "start_beat": 154.0,
            "duration_beat": 0.9479166666666572,
            "velocity": 49,
            "track": 0
        },
        {
            "pitch": 66,
            "start_beat": 154.0,
            "duration_beat": 0.9479166666666572,
            "velocity": 49,
            "track": 0
        },
        {
            "pitch": 38,
            "start_beat": 154.0,
            "duration_beat": 5.997916666666669,
            "velocity": 49,
            "track": 1
        },
        {
            "pitch": 50,
            "start_beat": 154.0,
            "duration_beat": 5.997916666666669,
            "velocity": 49,
            "track": 1
        },
        {
            "pitch": 70,
            "start_beat": 154.5,
            "duration_beat": 0.49791666666666856,
            "velocity": 49,
            "track": 0
        },
        {
            "pitch": 69,
            "start_beat": 155.0,
            "duration_beat": 0.9979166666666686,
            "velocity": 49,
            "track": 0
        },
        {
            "pitch": 60,
            "start_beat": 155.0,
            "duration_beat": 0.9979166666666686,
            "velocity": 49,
            "track": 0
        },
        {
            "pitch": 66,
            "start_beat": 155.0,
            "duration_beat": 0.9979166666666686,
            "velocity": 49,
            "track": 0
        },
        {
            "pitch": 68,
            "start_beat": 156.0,
            "duration_beat": 0.9979166666666686,
            "velocity": 52,
            "track": 0
        },
        {
            "pitch": 60,
            "start_beat": 156.0,
            "duration_beat": 0.9979166666666686,
            "velocity": 52,
            "track": 0
        },
        {
            "pitch": 66,
            "start_beat": 156.0,
            "duration_beat": 0.9979166666666686,
            "velocity": 52,
            "track": 0
        },
        {
            "pitch": 69,
            "start_beat": 157.0,
            "duration_beat": 0.9979166666666686,
            "velocity": 55,
            "track": 0
        },
        {
            "pitch": 60,
            "start_beat": 157.0,
            "duration_beat": 0.9979166666666686,
            "velocity": 55,
            "track": 0
        },
        {
            "pitch": 66,
            "start_beat": 157.0,
            "duration_beat": 0.9979166666666686,
            "velocity": 55,
            "track": 0
        },
        {
            "pitch": 70,
            "start_beat": 158.0,
            "duration_beat": 0.9979166666666686,
            "velocity": 58,
            "track": 0
        },
        {
            "pitch": 60,
            "start_beat": 158.0,
            "duration_beat": 0.9979166666666686,
            "velocity": 58,
            "track": 0
        },
        {
            "pitch": 66,
            "start_beat": 158.0,
            "duration_beat": 0.9979166666666686,
            "velocity": 58,
            "track": 0
        },
        {
            "pitch": 72,
            "start_beat": 159.0,
            "duration_beat": 0.9979166666666686,
            "velocity": 61,
            "track": 0
        },
        {
            "pitch": 60,
            "start_beat": 159.0,
            "duration_beat": 0.9979166666666686,
            "velocity": 61,
            "track": 0
        },
        {
            "pitch": 66,
            "start_beat": 159.0,
            "duration_beat": 0.9979166666666686,
            "velocity": 61,
            "track": 0
        },
        {
            "pitch": 72,
            "start_beat": 160.0,
            "duration_beat": 2.9979166666666686,
            "velocity": 65,
            "track": 0
        },
        {
            "pitch": 39,
            "start_beat": 160.0,
            "duration_beat": 5.997916666666669,
            "velocity": 65,
            "track": 1
        },
        {
            "pitch": 51,
            "start_beat": 160.0,
            "duration_beat": 5.997916666666669,
            "velocity": 65,
            "track": 1
        },
        {
            "pitch": 60,
            "start_beat": 161.0,
            "duration_beat": 0.9979166666666686,
            "velocity": 60,
            "track": 0
        },
        {
            "pitch": 67,
            "start_beat": 161.0,
            "duration_beat": 0.9979166666666686,
            "velocity": 60,
            "track": 0
        },
        {
            "pitch": 60,
            "start_beat": 162.0,
            "duration_beat": 0.9979166666666686,
            "velocity": 55,
            "track": 0
        },
        {
            "pitch": 67,
            "start_beat": 162.0,
            "duration_beat": 0.9979166666666686,
            "velocity": 55,
            "track": 0
        },
        {
            "pitch": 58,
            "start_beat": 163.0,
            "duration_beat": 0.9979166666666686,
            "velocity": 49,
            "track": 0
        },
        {
            "pitch": 67,
            "start_beat": 163.0,
            "duration_beat": 0.9979166666666686,
            "velocity": 49,
            "track": 0
        },
        {
            "pitch": 70,
            "start_beat": 163.0,
            "duration_beat": 2.9979166666666686,
            "velocity": 49,
            "track": 0
        },
        {
            "pitch": 58,
            "start_beat": 164.0,
            "duration_beat": 0.9979166666666686,
            "velocity": 49,
            "track": 0
        },
        {
            "pitch": 67,
            "start_beat": 164.0,
            "duration_beat": 0.9979166666666686,
            "velocity": 49,
            "track": 0
        },
        {
            "pitch": 58,
            "start_beat": 165.0,
            "duration_beat": 0.9979166666666686,
            "velocity": 49,
            "track": 0
        },
        {
            "pitch": 67,
            "start_beat": 165.0,
            "duration_beat": 0.9979166666666686,
            "velocity": 49,
            "track": 0
        },
        {
            "pitch": 63,
            "start_beat": 166.0,
            "duration_beat": 0.9979166666666686,
            "velocity": 49,
            "track": 0
        },
        {
            "pitch": 67,
            "start_beat": 166.0,
            "duration_beat": 0.9979166666666686,
            "velocity": 49,
            "track": 0
        },
        {
            "pitch": 69,
            "start_beat": 166.0,
            "duration_beat": 2.9979166666666686,
            "velocity": 49,
            "track": 0
        },
        {
            "pitch": 36,
            "start_beat": 166.0,
            "duration_beat": 2.9979166666666686,
            "velocity": 49,
            "track": 1
        },
        {
            "pitch": 48,
            "start_beat": 166.0,
            "duration_beat": 2.9979166666666686,
            "velocity": 49,
            "track": 1
        },
        {
            "pitch": 63,
            "start_beat": 167.0,
            "duration_beat": 0.9979166666666686,
            "velocity": 49,
            "track": 0
        },
        {
            "pitch": 67,
            "start_beat": 167.0,
            "duration_beat": 0.9979166666666686,
            "velocity": 49,
            "track": 0
        },
        {
            "pitch": 63,
            "start_beat": 168.0,
            "duration_beat": 0.9979166666666686,
            "velocity": 49,
            "track": 0
        },
        {
            "pitch": 67,
            "start_beat": 168.0,
            "duration_beat": 0.9979166666666686,
            "velocity": 49,
            "track": 0
        },
        {
            "pitch": 62,
            "start_beat": 169.0,
            "duration_beat": 0.9979166666666686,
            "velocity": 53,
            "track": 0
        },
        {
            "pitch": 66,
            "start_beat": 169.0,
            "duration_beat": 0.9979166666666686,
            "velocity": 53,
            "track": 0
        },
        {
            "pitch": 69,
            "start_beat": 169.0,
            "duration_beat": 2.4979166666666686,
            "velocity": 53,
            "track": 0
        },
        {
            "pitch": 38,
            "start_beat": 169.0,
            "duration_beat": 2.9979166666666686,
            "velocity": 53,
            "track": 1
        },
        {
            "pitch": 50,
            "start_beat": 169.0,
            "duration_beat": 2.9979166666666686,
            "velocity": 53,
            "track": 1
        },
        {
            "pitch": 62,
            "start_beat": 170.0,
            "duration_beat": 0.9979166666666686,
            "velocity": 57,
            "track": 0
        },
        {
            "pitch": 66,
            "start_beat": 170.0,
            "duration_beat": 0.9979166666666686,
            "velocity": 57,
            "track": 0
        },
        {
            "pitch": 62,
            "start_beat": 171.0,
            "duration_beat": 0.9979166666666686,
            "velocity": 61,
            "track": 0
        },
        {
            "pitch": 66,
            "start_beat": 171.0,
            "duration_beat": 0.9979166666666686,
            "velocity": 61,
            "track": 0
        },
        {
            "pitch": 69,
            "start_beat": 171.5,
            "duration_beat": 0.49791666666666856,
            "velocity": 63,
            "track": 0
        },
        {
            "pitch": 57,
            "start_beat": 172.0,
            "duration_beat": 0.9979166666666686,
            "velocity": 33,
            "track": 0
        },
        {
            "pitch": 37,
            "start_beat": 172.0,
            "duration_beat": 0.9979166666666686,
            "velocity": 33,
            "track": 1
        },
        {
            "pitch": 64,
            "start_beat": 172.13333333333333,
            "duration_beat": 0.8625000000000114,
            "velocity": 33,
            "track": 0
        },
        {
            "pitch": 49,
            "start_beat": 172.13333333333333,
            "duration_beat": 0.8625000000000114,
            "velocity": 33,
            "track": 1
        },
        {
            "pitch": 69,
            "start_beat": 172.25,
            "duration_beat": 3.9979166666666686,
            "velocity": 33,
            "track": 0
        },
        {
            "pitch": 52,
            "start_beat": 173.0,
            "duration_beat": 0.49791666666666856,
            "velocity": 34,
            "track": 1
        },
        {
            "pitch": 57,
            "start_beat": 173.0,
            "duration_beat": 0.49791666666666856,
            "velocity": 34,
            "track": 1
        },
        {
            "pitch": 64,
            "start_beat": 173.0,
            "duration_beat": 0.49791666666666856,
            "velocity": 34,
            "track": 1
        },
        {
            "pitch": 52,
            "start_beat": 174.0,
            "duration_beat": 0.49791666666666856,
            "velocity": 36,
            "track": 1
        },
        {
            "pitch": 57,
            "start_beat": 174.0,
            "duration_beat": 0.49791666666666856,
            "velocity": 36,
            "track": 1
        },
        {
            "pitch": 64,
            "start_beat": 174.0,
            "duration_beat": 0.49791666666666856,
            "velocity": 36,
            "track": 1
        },
        {
            "pitch": 52,
            "start_beat": 175.0,
            "duration_beat": 0.49791666666666856,
            "velocity": 38,
            "track": 1
        },
        {
            "pitch": 57,
            "start_beat": 175.0,
            "duration_beat": 0.49791666666666856,
            "velocity": 38,
            "track": 1
        },
        {
            "pitch": 64,
            "start_beat": 175.0,
            "duration_beat": 0.49791666666666856,
            "velocity": 38,
            "track": 1
        },
        {
            "pitch": 52,
            "start_beat": 176.0,
            "duration_beat": 0.49791666666666856,
            "velocity": 39,
            "track": 1
        },
        {
            "pitch": 57,
            "start_beat": 176.0,
            "duration_beat": 0.49791666666666856,
            "velocity": 39,
            "track": 1
        },
        {
            "pitch": 64,
            "start_beat": 176.0,
            "duration_beat": 0.49791666666666856,
            "velocity": 39,
            "track": 1
        },
        {
            "pitch": 69,
            "start_beat": 177.0,
            "duration_beat": 1.2479166666666686,
            "velocity": 41,
            "track": 0
        },
        {
            "pitch": 52,
            "start_beat": 177.0,
            "duration_beat": 0.49791666666666856,
            "velocity": 41,
            "track": 1
        },
        {
            "pitch": 57,
            "start_beat": 177.0,
            "duration_beat": 0.49791666666666856,
            "velocity": 41,
            "track": 1
        },
        {
            "pitch": 64,
            "start_beat": 177.0,
            "duration_beat": 0.49791666666666856,
            "velocity": 41,
            "track": 1
        },
        {
            "pitch": 36,
            "start_beat": 178.0,
            "duration_beat": 0.9479166666666572,
            "velocity": 43,
            "track": 1
        },
        {
            "pitch": 48,
            "start_beat": 178.0,
            "duration_beat": 0.9479166666666572,
            "velocity": 43,
            "track": 1
        },
        {
            "pitch": 70,
            "start_beat": 178.25,
            "duration_beat": 0.24791666666666856,
            "velocity": 43,
            "track": 0
        },
        {
            "pitch": 69,
            "start_beat": 178.5,
            "duration_beat": 0.24791666666666856,
            "velocity": 44,
            "track": 0
        },
        {
            "pitch": 68,
            "start_beat": 178.75,
            "duration_beat": 0.24791666666666856,
            "velocity": 44,
            "track": 0
        },
        {
            "pitch": 69,
            "start_beat": 179.0,
            "duration_beat": 0.24791666666666856,
            "velocity": 45,
            "track": 0
        },
        {
            "pitch": 53,
            "start_beat": 179.0,
            "duration_beat": 0.49791666666666856,
            "velocity": 45,
            "track": 1
        },
        {
            "pitch": 57,
            "start_beat": 179.0,
            "duration_beat": 0.49791666666666856,
            "velocity": 45,
            "track": 1
        },
        {
            "pitch": 63,
            "start_beat": 179.0,
            "duration_beat": 0.49791666666666856,
            "velocity": 45,
            "track": 1
        },
        {
            "pitch": 65,
            "start_beat": 179.0,
            "duration_beat": 0.49791666666666856,
            "velocity": 45,
            "track": 1
        },
        {
            "pitch": 79,
            "start_beat": 179.25,
            "duration_beat": 0.24791666666666856,
            "velocity": 45,
            "track": 0
        },
        {
            "pitch": 76,
            "start_beat": 179.5,
            "duration_beat": 0.24791666666666856,
            "velocity": 46,
            "track": 0
        },
        {
            "pitch": 77,
            "start_beat": 179.75,
            "duration_beat": 0.24791666666666856,
            "velocity": 46,
            "track": 0
        },
        {
            "pitch": 77,
            "start_beat": 180.0,
            "duration_beat": 0.24791666666666856,
            "velocity": 47,
            "track": 0
        },
        {
            "pitch": 53,
            "start_beat": 180.0,
            "duration_beat": 0.49791666666666856,
            "velocity": 47,
            "track": 1
        },
        {
            "pitch": 57,
            "start_beat": 180.0,
            "duration_beat": 0.49791666666666856,
            "velocity": 47,
            "track": 1
        },
        {
            "pitch": 63,
            "start_beat": 180.0,
            "duration_beat": 0.49791666666666856,
            "velocity": 47,
            "track": 1
        },
        {
            "pitch": 65,
            "start_beat": 180.0,
            "duration_beat": 0.49791666666666856,
            "velocity": 47,
            "track": 1
        },
        {
            "pitch": 91,
            "start_beat": 180.25,
            "duration_beat": 0.24791666666666856,
            "velocity": 47,
            "track": 0
        },
        {
            "pitch": 89,
            "start_beat": 180.5,
            "duration_beat": 0.24791666666666856,
            "velocity": 48,
            "track": 0
        },
        {
            "pitch": 88,
            "start_beat": 180.75,
            "duration_beat": 0.24791666666666856,
            "velocity": 48,
            "track": 0
        },
        {
            "pitch": 87,
            "start_beat": 181.0,
            "duration_beat": 0.16458333333332575,
            "velocity": 49,
            "track": 0
        },
        {
            "pitch": 53,
            "start_beat": 181.0,
            "duration_beat": 0.49791666666666856,
            "velocity": 49,
            "track": 1
        },
        {
            "pitch": 57,
            "start_beat": 181.0,
            "duration_beat": 0.49791666666666856,
            "velocity": 49,
            "track": 1
        },
        {
            "pitch": 63,
            "start_beat": 181.0,
            "duration_beat": 0.49791666666666856,
            "velocity": 49,
            "track": 1
        },
        {
            "pitch": 65,
            "start_beat": 181.0,
            "duration_beat": 0.49791666666666856,
            "velocity": 49,
            "track": 1
        },
        {
            "pitch": 84,
            "start_beat": 181.16666666666666,
            "duration_beat": 0.16458333333335418,
            "velocity": 51,
            "track": 0
        },
        {
            "pitch": 81,
            "start_beat": 181.33333333333334,
            "duration_beat": 0.16458333333332575,
            "velocity": 53,
            "track": 0
        },
        {
            "pitch": 82,
            "start_beat": 181.5,
            "duration_beat": 0.16458333333332575,
            "velocity": 55,
            "track": 0
        },
        {
            "pitch": 86,
            "start_beat": 181.66666666666666,
            "duration_beat": 0.16458333333335418,
            "velocity": 57,
            "track": 0
        },
        {
            "pitch": 84,
            "start_beat": 181.83333333333334,
            "duration_beat": 0.16458333333332575,
            "velocity": 59,
            "track": 0
        },
        {
            "pitch": 82,
            "start_beat": 182.0,
            "duration_beat": 0.16458333333332575,
            "velocity": 61,
            "track": 0
        },
        {
            "pitch": 53,
            "start_beat": 182.0,
            "duration_beat": 0.49791666666666856,
            "velocity": 61,
            "track": 1
        },
        {
            "pitch": 57,
            "start_beat": 182.0,
            "duration_beat": 0.49791666666666856,
            "velocity": 61,
            "track": 1
        },
        {
            "pitch": 63,
            "start_beat": 182.0,
            "duration_beat": 0.49791666666666856,
            "velocity": 61,
            "track": 1
        },
        {
            "pitch": 65,
            "start_beat": 182.0,
            "duration_beat": 0.49791666666666856,
            "velocity": 61,
            "track": 1
        },
        {
            "pitch": 79,
            "start_beat": 182.16666666666666,
            "duration_beat": 0.16458333333335418,
            "velocity": 63,
            "track": 0
        },
        {
            "pitch": 77,
            "start_beat": 182.33333333333334,
            "duration_beat": 0.16458333333332575,
            "velocity": 65,
            "track": 0
        },
        {
            "pitch": 74,
            "start_beat": 182.5,
            "duration_beat": 0.16458333333332575,
            "velocity": 80,
            "track": 0
        },
        {
            "pitch": 75,
            "start_beat": 182.66666666666666,
            "duration_beat": 0.16458333333335418,
            "velocity": 80,
            "track": 0
        },
        {
            "pitch": 76,
            "start_beat": 182.83333333333334,
            "duration_beat": 0.16458333333332575,
            "velocity": 80,
            "track": 0
        },
        {
            "pitch": 77,
            "start_beat": 183.0,
            "duration_beat": 0.16458333333332575,
            "velocity": 80,
            "track": 0
        },
        {
            "pitch": 53,
            "start_beat": 183.0,
            "duration_beat": 0.49791666666666856,
            "velocity": 80,
            "track": 1
        },
        {
            "pitch": 57,
            "start_beat": 183.0,
            "duration_beat": 0.49791666666666856,
            "velocity": 80,
            "track": 1
        },
        {
            "pitch": 63,
            "start_beat": 183.0,
            "duration_beat": 0.49791666666666856,
            "velocity": 80,
            "track": 1
        },
        {
            "pitch": 65,
            "start_beat": 183.0,
            "duration_beat": 0.49791666666666856,
            "velocity": 80,
            "track": 1
        },
        {
            "pitch": 78,
            "start_beat": 183.16666666666666,
            "duration_beat": 0.16458333333335418,
            "velocity": 80,
            "track": 0
        },
        {
            "pitch": 81,
            "start_beat": 183.33333333333334,
            "duration_beat": 0.16458333333332575,
            "velocity": 80,
            "track": 0
        },
        {
            "pitch": 79,
            "start_beat": 183.5,
            "duration_beat": 0.16458333333332575,
            "velocity": 80,
            "track": 0
        },
        {
            "pitch": 77,
            "start_beat": 183.66666666666666,
            "duration_beat": 0.16458333333335418,
            "velocity": 80,
            "track": 0
        },
        {
            "pitch": 75,
            "start_beat": 183.83333333333334,
            "duration_beat": 0.16458333333332575,
            "velocity": 80,
            "track": 0
        },
        {
            "pitch": 73,
            "start_beat": 184.0,
            "duration_beat": 0.4729166666666629,
            "velocity": 80,
            "track": 0
        },
        {
            "pitch": 34,
            "start_beat": 184.0,
            "duration_beat": 0.49791666666666856,
            "velocity": 80,
            "track": 1
        },
        {
            "pitch": 46,
            "start_beat": 184.0,
            "duration_beat": 0.49791666666666856,
            "velocity": 80,
            "track": 1
        },
        {
            "pitch": 74,
            "start_beat": 185.0,
            "duration_beat": 2.9979166666666686,
            "velocity": 80,
            "track": 0
        },
        {
            "pitch": 50,
            "start_beat": 185.0,
            "duration_beat": 0.9979166666666686,
            "velocity": 80,
            "track": 1
        },
        {
            "pitch": 53,
            "start_beat": 185.0,
            "duration_beat": 0.9979166666666686,
            "velocity": 80,
            "track": 1
        },
        {
            "pitch": 58,
            "start_beat": 185.0,
            "duration_beat": 0.9979166666666686,
            "velocity": 80,
            "track": 1
        },
        {
            "pitch": 53,
            "start_beat": 186.0,
            "duration_beat": 0.9479166666666572,
            "velocity": 80,
            "track": 1
        },
        {
            "pitch": 58,
            "start_beat": 186.0,
            "duration_beat": 0.9479166666666572,
            "velocity": 80,
            "track": 1
        },
        {
            "pitch": 62,
            "start_beat": 186.0,
            "duration_beat": 0.9479166666666572,
            "velocity": 80,
            "track": 1
        },
        {
            "pitch": 39,
            "start_beat": 187.0,
            "duration_beat": 0.49791666666666856,
            "velocity": 80,
            "track": 1
        },
        {
            "pitch": 72,
            "start_beat": 188.0,
            "duration_beat": 0.9979166666666686,
            "velocity": 80,
            "track": 0
        },
        {
            "pitch": 51,
            "start_beat": 188.0,
            "duration_beat": 0.9979166666666686,
            "velocity": 80,
            "track": 1
        },
        {
            "pitch": 55,
            "start_beat": 188.0,
            "duration_beat": 0.9979166666666686,
            "velocity": 80,
            "track": 1
        },
        {
            "pitch": 60,
            "start_beat": 188.0,
            "duration_beat": 0.9979166666666686,
            "velocity": 80,
            "track": 1
        },
        {
            "pitch": 67,
            "start_beat": 189.0,
            "duration_beat": 0.9979166666666686,
            "velocity": 80,
            "track": 0
        },
        {
            "pitch": 55,
            "start_beat": 189.0,
            "duration_beat": 0.9479166666666572,
            "velocity": 80,
            "track": 1
        },
        {
            "pitch": 60,
            "start_beat": 189.0,
            "duration_beat": 0.9479166666666572,
            "velocity": 80,
            "track": 1
        },
        {
            "pitch": 63,
            "start_beat": 189.0,
            "duration_beat": 0.9479166666666572,
            "velocity": 80,
            "track": 1
        },
        {
            "pitch": 70,
            "start_beat": 190.0,
            "duration_beat": 2.9979166666666686,
            "velocity": 80,
            "track": 0
        },
        {
            "pitch": 38,
            "start_beat": 190.0,
            "duration_beat": 0.49791666666666856,
            "velocity": 80,
            "track": 1
        },
        {
            "pitch": 58,
            "start_beat": 191.0,
            "duration_beat": 0.9979166666666686,
            "velocity": 78,
            "track": 1
        },
        {
            "pitch": 63,
            "start_beat": 191.0,
            "duration_beat": 0.9979166666666686,
            "velocity": 78,
            "track": 1
        },
        {
            "pitch": 55,
            "start_beat": 191.0,
            "duration_beat": 1.9979166666666686,
            "velocity": 78,
            "track": 1
        },
        {
            "pitch": 58,
            "start_beat": 192.0,
            "duration_beat": 1.9979166666666686,
            "velocity": 75,
            "track": 1
        },
        {
            "pitch": 62,
            "start_beat": 192.0,
            "duration_beat": 1.9979166666666686,
            "velocity": 75,
            "track": 1
        },
        {
            "pitch": 66,
            "start_beat": 193.0,
            "duration_beat": 2.9979166666666686,
            "velocity": 72,
            "track": 0
        },
        {
            "pitch": 50,
            "start_beat": 193.0,
            "duration_beat": 2.9979166666666686,
            "velocity": 72,
            "track": 1
        },
        {
            "pitch": 58,
            "start_beat": 194.0,
            "duration_beat": 0.9979166666666686,
            "velocity": 70,
            "track": 1
        },
        {
            "pitch": 61,
            "start_beat": 194.0,
            "duration_beat": 0.9979166666666686,
            "velocity": 70,
            "track": 1
        },
        {
            "pitch": 57,
            "start_beat": 195.0,
            "duration_beat": 0.9979166666666686,
            "velocity": 67,
            "track": 1
        },
        {
            "pitch": 60,
            "start_beat": 195.0,
            "duration_beat": 0.9979166666666686,
            "velocity": 67,
            "track": 1
        },
        {
            "pitch": 67,
            "start_beat": 196.0,
            "duration_beat": 0.9479166666666572,
            "velocity": 64,
            "track": 0
        },
        {
            "pitch": 43,
            "start_beat": 196.0,
            "duration_beat": 0.49791666666666856,
            "velocity": 64,
            "track": 1
        },
        {
            "pitch": 70,
            "start_beat": 197.0,
            "duration_beat": 0.49791666666666856,
            "velocity": 64,
            "track": 0
        },
        {
            "pitch": 82,
            "start_beat": 197.0,
            "duration_beat": 0.9979166666666686,
            "velocity": 64,
            "track": 0
        },
        {
            "pitch": 65,
            "start_beat": 197.0,
            "duration_beat": 0.9979166666666686,
            "velocity": 64,
            "track": 1
        },
        {
            "pitch": 55,
            "start_beat": 197.0,
            "duration_beat": 1.9979166666666686,
            "velocity": 64,
            "track": 1
        },
        {
            "pitch": 58,
            "start_beat": 197.0,
            "duration_beat": 1.9979166666666686,
            "velocity": 64,
            "track": 1
        },
        {
            "pitch": 74,
            "start_beat": 197.5,
            "duration_beat": 0.49791666666666856,
            "velocity": 72,
            "track": 0
        },
        {
            "pitch": 77,
            "start_beat": 198.0,
            "duration_beat": 0.49791666666666856,
            "velocity": 80,
            "track": 0
        },
        {
            "pitch": 63,
            "start_beat": 198.0,
            "duration_beat": 0.9479166666666572,
            "velocity": 80,
            "track": 1
        },
        {
            "pitch": 75,
            "start_beat": 198.5,
            "duration_beat": 1.4479166666666572,
            "velocity": 72,
            "track": 0
        },
        {
            "pitch": 42,
            "start_beat": 199.0,
            "duration_beat": 0.49791666666666856,
            "velocity": 64,
            "track": 1
        },
        {
            "pitch": 69,
            "start_beat": 200.0,
            "duration_beat": 0.49791666666666856,
            "velocity": 64,
            "track": 0
        },
        {
            "pitch": 81,
            "start_beat": 200.0,
            "duration_beat": 0.9979166666666686,
            "velocity": 64,
            "track": 0
        },
        {
            "pitch": 63,
            "start_beat": 200.0,
            "duration_beat": 0.9979166666666686,
            "velocity": 64,
            "track": 1
        },
        {
            "pitch": 54,
            "start_beat": 200.0,
            "duration_beat": 1.9979166666666686,
            "velocity": 64,
            "track": 1
        },
        {
            "pitch": 57,
            "start_beat": 200.0,
            "duration_beat": 1.9979166666666686,
            "velocity": 64,
            "track": 1
        },
        {
            "pitch": 73,
            "start_beat": 200.5,
            "duration_beat": 0.49791666666666856,
            "velocity": 72,
            "track": 0
        },
        {
            "pitch": 75,
            "start_beat": 201.0,
            "duration_beat": 0.49791666666666856,
            "velocity": 80,
            "track": 0
        },
        {
            "pitch": 62,
            "start_beat": 201.0,
            "duration_beat": 0.9479166666666572,
            "velocity": 80,
            "track": 1
        },
        {
            "pitch": 74,
            "start_beat": 201.5,
            "duration_beat": 1.4479166666666572,
            "velocity": 72,
            "track": 0
        },
        {
            "pitch": 43,
            "start_beat": 202.0,
            "duration_beat": 0.49791666666666856,
            "velocity": 64,
            "track": 1
        },
        {
            "pitch": 70,
            "start_beat": 203.0,
            "duration_beat": 0.49791666666666856,
            "velocity": 64,
            "track": 0
        },
        {
            "pitch": 82,
            "start_beat": 203.0,
            "duration_beat": 0.9979166666666686,
            "velocity": 64,
            "track": 0
        },
        {
            "pitch": 65,
            "start_beat": 203.0,
            "duration_beat": 0.9979166666666686,
            "velocity": 64,
            "track": 1
        },
        {
            "pitch": 55,
            "start_beat": 203.0,
            "duration_beat": 1.9979166666666686,
            "velocity": 64,
            "track": 1
        },
        {
            "pitch": 58,
            "start_beat": 203.0,
            "duration_beat": 1.9979166666666686,
            "velocity": 64,
            "track": 1
        },
        {
            "pitch": 74,
            "start_beat": 203.5,
            "duration_beat": 0.49791666666666856,
            "velocity": 72,
            "track": 0
        },
        {
            "pitch": 77,
            "start_beat": 204.0,
            "duration_beat": 0.49791666666666856,
            "velocity": 80,
            "track": 0
        },
        {
            "pitch": 63,
            "start_beat": 204.0,
            "duration_beat": 0.9479166666666572,
            "velocity": 80,
            "track": 1
        },
        {
            "pitch": 75,
            "start_beat": 204.5,
            "duration_beat": 1.4479166666666572,
            "velocity": 72,
            "track": 0
        },
        {
            "pitch": 41,
            "start_beat": 205.0,
            "duration_beat": 0.49791666666666856,
            "velocity": 64,
            "track": 1
        },
        {
            "pitch": 68,
            "start_beat": 206.0,
            "duration_beat": 0.49791666666666856,
            "velocity": 64,
            "track": 0
        },
        {
            "pitch": 80,
            "start_beat": 206.0,
            "duration_beat": 0.9979166666666686,
            "velocity": 64,
            "track": 0
        },
        {
            "pitch": 63,
            "start_beat": 206.0,
            "duration_beat": 0.9979166666666686,
            "velocity": 64,
            "track": 1
        },
        {
            "pitch": 53,
            "start_beat": 206.0,
            "duration_beat": 1.9979166666666686,
            "velocity": 64,
            "track": 1
        },
        {
            "pitch": 56,
            "start_beat": 206.0,
            "duration_beat": 1.9979166666666686,
            "velocity": 64,
            "track": 1
        },
        {
            "pitch": 59,
            "start_beat": 206.0,
            "duration_beat": 1.9979166666666686,
            "velocity": 64,
            "track": 1
        },
        {
            "pitch": 73,
            "start_beat": 206.5,
            "duration_beat": 0.49791666666666856,
            "velocity": 72,
            "track": 0
        },
        {
            "pitch": 75,
            "start_beat": 207.0,
            "duration_beat": 0.49791666666666856,
            "velocity": 80,
            "track": 0
        },
        {
            "pitch": 62,
            "start_beat": 207.0,
            "duration_beat": 0.9479166666666572,
            "velocity": 80,
            "track": 1
        },
        {
            "pitch": 74,
            "start_beat": 207.5,
            "duration_beat": 1.4479166666666572,
            "velocity": 72,
            "track": 0
        },
        {
            "pitch": 39,
            "start_beat": 208.0,
            "duration_beat": 0.49791666666666856,
            "velocity": 64,
            "track": 1
        },
        {
            "pitch": 67,
            "start_beat": 209.0,
            "duration_beat": 0.49791666666666856,
            "velocity": 64,
            "track": 0
        },
        {
            "pitch": 79,
            "start_beat": 209.0,
            "duration_beat": 0.9979166666666686,
            "velocity": 64,
            "track": 0
        },
        {
            "pitch": 62,
            "start_beat": 209.0,
            "duration_beat": 0.9979166666666686,
            "velocity": 64,
            "track": 1
        },
        {
            "pitch": 51,
            "start_beat": 209.0,
            "duration_beat": 1.9979166666666686,
            "velocity": 64,
            "track": 1
        },
        {
            "pitch": 55,
            "start_beat": 209.0,
            "duration_beat": 1.9979166666666686,
            "velocity": 64,
            "track": 1
        },
        {
            "pitch": 71,
            "start_beat": 209.5,
            "duration_beat": 0.49791666666666856,
            "velocity": 64,
            "track": 0
        },
        {
            "pitch": 74,
            "start_beat": 210.0,
            "duration_beat": 0.49791666666666856,
            "velocity": 65,
            "track": 0
        },
        {
            "pitch": 60,
            "start_beat": 210.0,
            "duration_beat": 0.9479166666666572,
            "velocity": 65,
            "track": 1
        },
        {
            "pitch": 72,
            "start_beat": 210.5,
            "duration_beat": 1.4479166666666572,
            "velocity": 67,
            "track": 0
        },
        {
            "pitch": 36,
            "start_beat": 211.0,
            "duration_beat": 0.49791666666666856,
            "velocity": 68,
            "track": 1
        },
        {
            "pitch": 60,
            "start_beat": 212.0,
            "duration_beat": 0.49791666666666856,
            "velocity": 71,
            "track": 0
        },
        {
            "pitch": 72,
            "start_beat": 212.0,
            "duration_beat": 0.9979166666666686,
            "velocity": 71,
            "track": 0
        },
        {
            "pitch": 58,
            "start_beat": 212.0,
            "duration_beat": 0.9979166666666686,
            "velocity": 71,
            "track": 1
        },
        {
            "pitch": 51,
            "start_beat": 212.0,
            "duration_beat": 1.9979166666666686,
            "velocity": 71,
            "track": 1
        },
        {
            "pitch": 68,
            "start_beat": 212.5,
            "duration_beat": 0.49791666666666856,
            "velocity": 73,
            "track": 0
        },
        {
            "pitch": 70,
            "start_beat": 213.0,
            "duration_beat": 0.49791666666666856,
            "velocity": 74,
            "track": 0
        },
        {
            "pitch": 57,
            "start_beat": 213.0,
            "duration_beat": 0.9479166666666572,
            "velocity": 74,
            "track": 1
        },
        {
            "pitch": 69,
            "start_beat": 213.5,
            "duration_beat": 1.4479166666666572,
            "velocity": 76,
            "track": 0
        },
        {
            "pitch": 38,
            "start_beat": 214.0,
            "duration_beat": 0.49791666666666856,
            "velocity": 77,
            "track": 1
        },
        {
            "pitch": 63,
            "start_beat": 215.0,
            "duration_beat": 0.49791666666666856,
            "velocity": 80,
            "track": 0
        },
        {
            "pitch": 75,
            "start_beat": 215.0,
            "duration_beat": 0.9979166666666686,
            "velocity": 80,
            "track": 0
        },
        {
            "pitch": 55,
            "start_beat": 215.0,
            "duration_beat": 0.9979166666666686,
            "velocity": 80,
            "track": 1
        },
        {
            "pitch": 50,
            "start_beat": 215.0,
            "duration_beat": 1.9979166666666686,
            "velocity": 80,
            "track": 1
        },
        {
            "pitch": 60,
            "start_beat": 215.0,
            "duration_beat": 1.9979166666666686,
            "velocity": 80,
            "track": 1
        },
        {
            "pitch": 71,
            "start_beat": 215.5,
            "duration_beat": 0.49791666666666856,
            "velocity": 82,
            "track": 0
        },
        {
            "pitch": 74,
            "start_beat": 216.0,
            "duration_beat": 0.49791666666666856,
            "velocity": 83,
            "track": 0
        },
        {
            "pitch": 54,
            "start_beat": 216.0,
            "duration_beat": 0.9479166666666572,
            "velocity": 83,
            "track": 1
        },
        {
            "pitch": 72,
            "start_beat": 216.5,
            "duration_beat": 1.4479166666666572,
            "velocity": 85,
            "track": 0
        },
        {
            "pitch": 38,
            "start_beat": 217.0,
            "duration_beat": 0.49791666666666856,
            "velocity": 86,
            "track": 1
        },
        {
            "pitch": 63,
            "start_beat": 218.0,
            "duration_beat": 0.49791666666666856,
            "velocity": 89,
            "track": 0
        },
        {
            "pitch": 67,
            "start_beat": 218.0,
            "duration_beat": 0.9979166666666686,
            "velocity": 89,
            "track": 0
        },
        {
            "pitch": 57,
            "start_beat": 218.0,
            "duration_beat": 0.9979166666666686,
            "velocity": 89,
            "track": 1
        },
        {
            "pitch": 62,
            "start_beat": 218.5,
            "duration_beat": 0.49791666666666856,
            "velocity": 91,
            "track": 0
        },
        {
            "pitch": 61,
            "start_beat": 219.0,
            "duration_beat": 0.49791666666666856,
            "velocity": 92,
            "track": 0
        },
        {
            "pitch": 66,
            "start_beat": 219.0,
            "duration_beat": 0.9979166666666686,
            "velocity": 92,
            "track": 0
        },
        {
            "pitch": 69,
            "start_beat": 219.0,
            "duration_beat": 0.9979166666666686,
            "velocity": 92,
            "track": 0
        },
        {
            "pitch": 50,
            "start_beat": 219.0,
            "duration_beat": 0.9479166666666572,
            "velocity": 92,
            "track": 1
        },
        {
            "pitch": 60,
            "start_beat": 219.5,
            "duration_beat": 0.49791666666666856,
            "velocity": 94,
            "track": 0
        },
        {
            "pitch": 67,
            "start_beat": 220.0,
            "duration_beat": 0.9479166666666572,
            "velocity": 96,
            "track": 0
        },
        {
            "pitch": 70,
            "start_beat": 220.0,
            "duration_beat": 0.9479166666666572,
            "velocity": 96,
            "track": 0
        },
        {
            "pitch": 58,
            "start_beat": 220.0,
            "duration_beat": 0.9479166666666572,
            "velocity": 96,
            "track": 0
        },
        {
            "pitch": 43,
            "start_beat": 220.0,
            "duration_beat": 0.49791666666666856,
            "velocity": 96,
            "track": 1
        },
        {
            "pitch": 55,
            "start_beat": 220.0,
            "duration_beat": 0.49791666666666856,
            "velocity": 96,
            "track": 1
        },
        {
            "pitch": 70,
            "start_beat": 221.0,
            "duration_beat": 1.9979166666666686,
            "velocity": 96,
            "track": 0
        },
        {
            "pitch": 82,
            "start_beat": 221.0,
            "duration_beat": 1.9979166666666686,
            "velocity": 96,
            "track": 0
        },
        {
            "pitch": 65,
            "start_beat": 221.0,
            "duration_beat": 0.9979166666666686,
            "velocity": 96,
            "track": 1
        },
        {
            "pitch": 55,
            "start_beat": 221.0,
            "duration_beat": 1.9979166666666686,
            "velocity": 96,
            "track": 1
        },
        {
            "pitch": 74,
            "start_beat": 221.5,
            "duration_beat": 0.49791666666666856,
            "velocity": 96,
            "track": 0
        },
        {
            "pitch": 77,
            "start_beat": 222.0,
            "duration_beat": 0.49791666666666856,
            "velocity": 96,
            "track": 0
        },
        {
            "pitch": 58,
            "start_beat": 222.0,
            "duration_beat": 0.9479166666666572,
            "velocity": 96,
            "track": 1
        },
        {
            "pitch": 63,
            "start_beat": 222.0,
            "duration_beat": 0.9479166666666572,
            "velocity": 96,
            "track": 1
        },
        {
            "pitch": 75,
            "start_beat": 222.5,
            "duration_beat": 0.4729166666666629,
            "velocity": 96,
            "track": 0
        },
        {
            "pitch": 42,
            "start_beat": 223.0,
            "duration_beat": 0.49791666666666856,
            "velocity": 96,
            "track": 1
        },
        {
            "pitch": 54,
            "start_beat": 223.0,
            "duration_beat": 0.49791666666666856,
            "velocity": 96,
            "track": 1
        },
        {
            "pitch": 69,
            "start_beat": 224.0,
            "duration_beat": 1.9979166666666686,
            "velocity": 96,
            "track": 0
        },
        {
            "pitch": 81,
            "start_beat": 224.0,
            "duration_beat": 1.9979166666666686,
            "velocity": 96,
            "track": 0
        },
        {
            "pitch": 63,
            "start_beat": 224.0,
            "duration_beat": 0.9979166666666686,
            "velocity": 96,
            "track": 1
        },
        {
            "pitch": 54,
            "start_beat": 224.0,
            "duration_beat": 1.9979166666666686,
            "velocity": 96,
            "track": 1
        },
        {
            "pitch": 73,
            "start_beat": 224.5,
            "duration_beat": 0.49791666666666856,
            "velocity": 96,
            "track": 0
        },
        {
            "pitch": 75,
            "start_beat": 225.0,
            "duration_beat": 0.49791666666666856,
            "velocity": 96,
            "track": 0
        },
        {
            "pitch": 57,
            "start_beat": 225.0,
            "duration_beat": 0.9479166666666572,
            "velocity": 96,
            "track": 1
        },
        {
            "pitch": 62,
            "start_beat": 225.0,
            "duration_beat": 0.9479166666666572,
            "velocity": 96,
            "track": 1
        },
        {
            "pitch": 74,
            "start_beat": 225.5,
            "duration_beat": 0.4729166666666629,
            "velocity": 96,
            "track": 0
        },
        {
            "pitch": 43,
            "start_beat": 226.0,
            "duration_beat": 0.49791666666666856,
            "velocity": 96,
            "track": 1
        },
        {
            "pitch": 55,
            "start_beat": 226.0,
            "duration_beat": 0.49791666666666856,
            "velocity": 96,
            "track": 1
        },
        {
            "pitch": 70,
            "start_beat": 227.0,
            "duration_beat": 1.9979166666666686,
            "velocity": 96,
            "track": 0
        },
        {
            "pitch": 82,
            "start_beat": 227.0,
            "duration_beat": 1.9979166666666686,
            "velocity": 96,
            "track": 0
        },
        {
            "pitch": 65,
            "start_beat": 227.0,
            "duration_beat": 0.9979166666666686,
            "velocity": 96,
            "track": 1
        },
        {
            "pitch": 55,
            "start_beat": 227.0,
            "duration_beat": 1.9979166666666686,
            "velocity": 96,
            "track": 1
        },
        {
            "pitch": 74,
            "start_beat": 227.5,
            "duration_beat": 0.49791666666666856,
            "velocity": 96,
            "track": 0
        },
        {
            "pitch": 77,
            "start_beat": 228.0,
            "duration_beat": 0.49791666666666856,
            "velocity": 96,
            "track": 0
        },
        {
            "pitch": 58,
            "start_beat": 228.0,
            "duration_beat": 0.9479166666666572,
            "velocity": 96,
            "track": 1
        },
        {
            "pitch": 63,
            "start_beat": 228.0,
            "duration_beat": 0.9479166666666572,
            "velocity": 96,
            "track": 1
        },
        {
            "pitch": 75,
            "start_beat": 228.5,
            "duration_beat": 0.4729166666666629,
            "velocity": 96,
            "track": 0
        },
        {
            "pitch": 41,
            "start_beat": 229.0,
            "duration_beat": 0.49791666666666856,
            "velocity": 96,
            "track": 1
        },
        {
            "pitch": 53,
            "start_beat": 229.0,
            "duration_beat": 0.49791666666666856,
            "velocity": 96,
            "track": 1
        },
        {
            "pitch": 68,
            "start_beat": 230.0,
            "duration_beat": 1.9979166666666686,
            "velocity": 96,
            "track": 0
        },
        {
            "pitch": 80,
            "start_beat": 230.0,
            "duration_beat": 1.9979166666666686,
            "velocity": 96,
            "track": 0
        },
        {
            "pitch": 63,
            "start_beat": 230.0,
            "duration_beat": 0.9979166666666686,
            "velocity": 96,
            "track": 1
        },
        {
            "pitch": 53,
            "start_beat": 230.0,
            "duration_beat": 1.9979166666666686,
            "velocity": 96,
            "track": 1
        },
        {
            "pitch": 73,
            "start_beat": 230.5,
            "duration_beat": 0.49791666666666856,
            "velocity": 96,
            "track": 0
        },
        {
            "pitch": 75,
            "start_beat": 231.0,
            "duration_beat": 0.49791666666666856,
            "velocity": 96,
            "track": 0
        },
        {
            "pitch": 56,
            "start_beat": 231.0,
            "duration_beat": 0.9479166666666572,
            "velocity": 96,
            "track": 1
        },
        {
            "pitch": 59,
            "start_beat": 231.0,
            "duration_beat": 0.9479166666666572,
            "velocity": 96,
            "track": 1
        },
        {
            "pitch": 62,
            "start_beat": 231.0,
            "duration_beat": 0.9479166666666572,
            "velocity": 96,
            "track": 1
        },
        {
            "pitch": 74,
            "start_beat": 231.5,
            "duration_beat": 0.4729166666666629,
            "velocity": 96,
            "track": 0
        },
        {
            "pitch": 39,
            "start_beat": 232.0,
            "duration_beat": 0.49791666666666856,
            "velocity": 96,
            "track": 1
        },
        {
            "pitch": 51,
            "start_beat": 232.0,
            "duration_beat": 0.49791666666666856,
            "velocity": 96,
            "track": 1
        },
        {
            "pitch": 67,
            "start_beat": 233.0,
            "duration_beat": 1.9979166666666686,
            "velocity": 96,
            "track": 0
        },
        {
            "pitch": 79,
            "start_beat": 233.0,
            "duration_beat": 1.9979166666666686,
            "velocity": 96,
            "track": 0
        },
        {
            "pitch": 62,
            "start_beat": 233.0,
            "duration_beat": 0.9979166666666686,
            "velocity": 96,
            "track": 1
        },
        {
            "pitch": 51,
            "start_beat": 233.0,
            "duration_beat": 1.9979166666666686,
            "velocity": 96,
            "track": 1
        },
        {
            "pitch": 71,
            "start_beat": 233.5,
            "duration_beat": 0.49791666666666856,
            "velocity": 96,
            "track": 0
        },
        {
            "pitch": 74,
            "start_beat": 234.0,
            "duration_beat": 0.49791666666666856,
            "velocity": 96,
            "track": 0
        },
        {
            "pitch": 55,
            "start_beat": 234.0,
            "duration_beat": 0.9479166666666572,
            "velocity": 96,
            "track": 1
        },
        {
            "pitch": 60,
            "start_beat": 234.0,
            "duration_beat": 0.9479166666666572,
            "velocity": 96,
            "track": 1
        },
        {
            "pitch": 72,
            "start_beat": 234.5,
            "duration_beat": 0.4729166666666629,
            "velocity": 96,
            "track": 0
        },
        {
            "pitch": 36,
            "start_beat": 235.0,
            "duration_beat": 0.49791666666666856,
            "velocity": 96,
            "track": 1
        },
        {
            "pitch": 48,
            "start_beat": 235.0,
            "duration_beat": 0.49791666666666856,
            "velocity": 96,
            "track": 1
        },
        {
            "pitch": 60,
            "start_beat": 236.0,
            "duration_beat": 1.9979166666666686,
            "velocity": 96,
            "track": 0
        },
        {
            "pitch": 72,
            "start_beat": 236.0,
            "duration_beat": 1.9979166666666686,
            "velocity": 96,
            "track": 0
        },
        {
            "pitch": 58,
            "start_beat": 236.0,
            "duration_beat": 0.9979166666666686,
            "velocity": 96,
            "track": 1
        },
        {
            "pitch": 48,
            "start_beat": 236.0,
            "duration_beat": 1.9979166666666686,
            "velocity": 96,
            "track": 1
        },
        {
            "pitch": 68,
            "start_beat": 236.5,
            "duration_beat": 0.49791666666666856,
            "velocity": 96,
            "track": 0
        },
        {
            "pitch": 70,
            "start_beat": 237.0,
            "duration_beat": 0.49791666666666856,
            "velocity": 96,
            "track": 0
        },
        {
            "pitch": 51,
            "start_beat": 237.0,
            "duration_beat": 0.9479166666666572,
            "velocity": 96,
            "track": 1
        },
        {
            "pitch": 57,
            "start_beat": 237.0,
            "duration_beat": 0.9479166666666572,
            "velocity": 96,
            "track": 1
        },
        {
            "pitch": 69,
            "start_beat": 237.5,
            "duration_beat": 0.4729166666666629,
            "velocity": 96,
            "track": 0
        },
        {
            "pitch": 38,
            "start_beat": 238.0,
            "duration_beat": 0.49791666666666856,
            "velocity": 96,
            "track": 1
        },
        {
            "pitch": 63,
            "start_beat": 239.0,
            "duration_beat": 1.9979166666666686,
            "velocity": 96,
            "track": 0
        },
        {
            "pitch": 75,
            "start_beat": 239.0,
            "duration_beat": 1.9979166666666686,
            "velocity": 96,
            "track": 0
        },
        {
            "pitch": 45,
            "start_beat": 239.0,
            "duration_beat": 0.9979166666666686,
            "velocity": 96,
            "track": 1
        },
        {
            "pitch": 55,
            "start_beat": 239.0,
            "duration_beat": 0.9979166666666686,
            "velocity": 96,
            "track": 1
        },
        {
            "pitch": 71,
            "start_beat": 239.5,
            "duration_beat": 0.49791666666666856,
            "velocity": 96,
            "track": 0
        },
        {
            "pitch": 74,
            "start_beat": 240.0,
            "duration_beat": 0.49791666666666856,
            "velocity": 96,
            "track": 0
        },
        {
            "pitch": 48,
            "start_beat": 240.0,
            "duration_beat": 0.9479166666666572,
            "velocity": 96,
            "track": 1
        },
        {
            "pitch": 54,
            "start_beat": 240.0,
            "duration_beat": 0.9479166666666572,
            "velocity": 96,
            "track": 1
        },
        {
            "pitch": 72,
            "start_beat": 240.5,
            "duration_beat": 0.4729166666666629,
            "velocity": 96,
            "track": 0
        },
        {
            "pitch": 38,
            "start_beat": 241.0,
            "duration_beat": 0.49791666666666856,
            "velocity": 96,
            "track": 1
        },
        {
            "pitch": 54,
            "start_beat": 242.0,
            "duration_beat": 1.9979166666666686,
            "velocity": 96,
            "track": 0
        },
        {
            "pitch": 66,
            "start_beat": 242.0,
            "duration_beat": 1.9979166666666686,
            "velocity": 96,
            "track": 0
        },
        {
            "pitch": 45,
            "start_beat": 242.0,
            "duration_beat": 0.9979166666666686,
            "velocity": 96,
            "track": 1
        },
        {
            "pitch": 51,
            "start_beat": 242.0,
            "duration_beat": 0.9979166666666686,
            "velocity": 96,
            "track": 1
        },
        {
            "pitch": 61,
            "start_beat": 242.5,
            "duration_beat": 0.49791666666666856,
            "velocity": 96,
            "track": 0
        },
        {
            "pitch": 63,
            "start_beat": 243.0,
            "duration_beat": 0.49791666666666856,
            "velocity": 96,
            "track": 0
        },
        {
            "pitch": 48,
            "start_beat": 243.0,
            "duration_beat": 0.9479166666666572,
            "velocity": 96,
            "track": 1
        },
        {
            "pitch": 50,
            "start_beat": 243.0,
            "duration_beat": 1.8979166666666742,
            "velocity": 96,
            "track": 1
        },
        {
            "pitch": 62,
            "start_beat": 243.5,
            "duration_beat": 0.49791666666666856,
            "velocity": 96,
            "track": 0
        },
        {
            "pitch": 67,
            "start_beat": 244.0,
            "duration_beat": 0.49791666666666856,
            "velocity": 96,
            "track": 0
        },
        {
            "pitch": 58,
            "start_beat": 244.0,
            "duration_beat": 0.9479166666666572,
            "velocity": 96,
            "track": 0
        },
        {
            "pitch": 43,
            "start_beat": 244.0,
            "duration_beat": 0.49791666666666856,
            "velocity": 96,
            "track": 1
        },
        {
            "pitch": 60,
            "start_beat": 245.0,
            "duration_beat": 0.49791666666666856,
            "velocity": 96,
            "track": 0
        },
        {
            "pitch": 55,
            "start_beat": 245.0,
            "duration_beat": 0.9979166666666686,
            "velocity": 96,
            "track": 0
        },
        {
            "pitch": 31,
            "start_beat": 245.0,
            "duration_beat": 1.8979166666666742,
            "velocity": 96,
            "track": 1
        },
        {
            "pitch": 43,
            "start_beat": 245.0,
            "duration_beat": 1.8979166666666742,
            "velocity": 96,
            "track": 1
        },
        {
            "pitch": 58,
            "start_beat": 245.5,
            "duration_beat": 0.49791666666666856,
            "velocity": 96,
            "track": 0
        },
        {
            "pitch": 57,
            "start_beat": 246.0,
            "duration_beat": 0.49791666666666856,
            "velocity": 96,
            "track": 0
        },
        {
            "pitch": 55,
            "start_beat": 246.5,
            "duration_beat": 0.49791666666666856,
            "velocity": 96,
            "track": 0
        },
        {
            "pitch": 67,
            "start_beat": 247.0,
            "duration_beat": 0.49791666666666856,
            "velocity": 96,
            "track": 0
        },
        {
            "pitch": 58,
            "start_beat": 247.0,
            "duration_beat": 0.9479166666666572,
            "velocity": 96,
            "track": 0
        },
        {
            "pitch": 43,
            "start_beat": 247.0,
            "duration_beat": 0.49791666666666856,
            "velocity": 96,
            "track": 1
        },
        {
            "pitch": 50,
            "start_beat": 247.0,
            "duration_beat": 0.49791666666666856,
            "velocity": 96,
            "track": 1
        },
        {
            "pitch": 60,
            "start_beat": 248.0,
            "duration_beat": 0.49791666666666856,
            "velocity": 96,
            "track": 0
        },
        {
            "pitch": 55,
            "start_beat": 248.0,
            "duration_beat": 0.9979166666666686,
            "velocity": 96,
            "track": 0
        },
        {
            "pitch": 51,
            "start_beat": 248.0,
            "duration_beat": 0.4729166666666629,
            "velocity": 96,
            "track": 1
        },
        {
            "pitch": 43,
            "start_beat": 248.0,
            "duration_beat": 1.8979166666666742,
            "velocity": 96,
            "track": 1
        },
        {
            "pitch": 58,
            "start_beat": 248.5,
            "duration_beat": 0.49791666666666856,
            "velocity": 96,
            "track": 0
        },
        {
            "pitch": 50,
            "start_beat": 248.5,
            "duration_beat": 0.4729166666666629,
            "velocity": 96,
            "track": 1
        },
        {
            "pitch": 57,
            "start_beat": 249.0,
            "duration_beat": 0.49791666666666856,
            "velocity": 96,
            "track": 0
        },
        {
            "pitch": 55,
            "start_beat": 249.5,
            "duration_beat": 0.49791666666666856,
            "velocity": 96,
            "track": 0
        },
        {
            "pitch": 65,
            "start_beat": 250.0,
            "duration_beat": 0.49791666666666856,
            "velocity": 96,
            "track": 0
        },
        {
            "pitch": 43,
            "start_beat": 250.0,
            "duration_beat": 3.847916666666663,
            "velocity": 96,
            "track": 1
        },
        {
            "pitch": 48,
            "start_beat": 250.0,
            "duration_beat": 3.847916666666663,
            "velocity": 96,
            "track": 1
        },
        {
            "pitch": 51,
            "start_beat": 250.0,
            "duration_beat": 3.847916666666663,
            "velocity": 96,
            "track": 1
        },
        {
            "pitch": 60,
            "start_beat": 250.5,
            "duration_beat": 0.49791666666666856,
            "velocity": 96,
            "track": 0
        },
        {
            "pitch": 63,
            "start_beat": 251.0,
            "duration_beat": 0.49791666666666856,
            "velocity": 96,
            "track": 0
        },
        {
            "pitch": 57,
            "start_beat": 251.0,
            "duration_beat": 2.9979166666666686,
            "velocity": 96,
            "track": 1
        },
        {
            "pitch": 54,
            "start_beat": 251.5,
            "duration_beat": 0.49791666666666856,
            "velocity": 96,
            "track": 0
        },
        {
            "pitch": 60,
            "start_beat": 252.0,
            "duration_beat": 0.49791666666666856,
            "velocity": 97,
            "track": 0
        },
        {
            "pitch": 63,
            "start_beat": 252.5,
            "duration_beat": 0.49791666666666856,
            "velocity": 99,
            "track": 0
        },
        {
            "pitch": 66,
            "start_beat": 253.0,
            "duration_beat": 0.49791666666666856,
            "velocity": 101,
            "track": 0
        },
        {
            "pitch": 72,
            "start_beat": 253.5,
            "duration_beat": 0.49791666666666856,
            "velocity": 103,
            "track": 0
        },
        {
            "pitch": 77,
            "start_beat": 254.0,
            "duration_beat": 0.49791666666666856,
            "velocity": 104,
            "track": 0
        },
        {
            "pitch": 43,
            "start_beat": 254.0,
            "duration_beat": 0.9979166666666686,
            "velocity": 104,
            "track": 1
        },
        {
            "pitch": 55,
            "start_beat": 254.0,
            "duration_beat": 0.9979166666666686,
            "velocity": 104,
            "track": 1
        },
        {
            "pitch": 75,
            "start_beat": 254.5,
            "duration_beat": 0.49791666666666856,
            "velocity": 106,
            "track": 0
        },
        {
            "pitch": 74,
            "start_beat": 255.0,
            "duration_beat": 0.49791666666666856,
            "velocity": 108,
            "track": 0
        },
        {
            "pitch": 51,
            "start_beat": 255.0,
            "duration_beat": 0.9979166666666686,
            "velocity": 108,
            "track": 1
        },
        {
            "pitch": 63,
            "start_beat": 255.0,
            "duration_beat": 0.9979166666666686,
            "velocity": 108,
            "track": 1
        },
        {
            "pitch": 72,
            "start_beat": 255.5,
            "duration_beat": 0.49791666666666856,
            "velocity": 110,
            "track": 0
        },
        {
            "pitch": 79,
            "start_beat": 256.0,
            "duration_beat": 0.49791666666664014,
            "velocity": 112,
            "track": 0
        },
        {
            "pitch": 70,
            "start_beat": 256.0,
            "duration_beat": 0.9479166666666856,
            "velocity": 112,
            "track": 0
        },
        {
            "pitch": 50,
            "start_beat": 256.0,
            "duration_beat": 0.49791666666664014,
            "velocity": 112,
            "track": 1
        },
        {
            "pitch": 62,
            "start_beat": 256.0,
            "duration_beat": 0.49791666666664014,
            "velocity": 112,
            "track": 1
        },
        {
            "pitch": 72,
            "start_beat": 257.0,
            "duration_beat": 0.49791666666664014,
            "velocity": 112,
            "track": 0
        },
        {
            "pitch": 67,
            "start_beat": 257.0,
            "duration_beat": 0.9979166666666401,
            "velocity": 112,
            "track": 0
        },
        {
            "pitch": 43,
            "start_beat": 257.0,
            "duration_beat": 1.9979166666666401,
            "velocity": 112,
            "track": 1
        },
        {
            "pitch": 55,
            "start_beat": 257.0,
            "duration_beat": 1.9979166666666401,
            "velocity": 112,
            "track": 1
        },
        {
            "pitch": 70,
            "start_beat": 257.5,
            "duration_beat": 0.49791666666664014,
            "velocity": 112,
            "track": 0
        },
        {
            "pitch": 69,
            "start_beat": 258.0,
            "duration_beat": 0.49791666666664014,
            "velocity": 112,
            "track": 0
        },
        {
            "pitch": 67,
            "start_beat": 258.5,
            "duration_beat": 0.49791666666664014,
            "velocity": 112,
            "track": 0
        },
        {
            "pitch": 79,
            "start_beat": 259.0,
            "duration_beat": 0.49791666666664014,
            "velocity": 112,
            "track": 0
        },
        {
            "pitch": 70,
            "start_beat": 259.0,
            "duration_beat": 0.9479166666666856,
            "velocity": 112,
            "track": 0
        },
        {
            "pitch": 55,
            "start_beat": 259.0,
            "duration_beat": 0.49791666666664014,
            "velocity": 112,
            "track": 1
        },
        {
            "pitch": 62,
            "start_beat": 259.0,
            "duration_beat": 0.49791666666664014,
            "velocity": 112,
            "track": 1
        },
        {
            "pitch": 72,
            "start_beat": 260.0,
            "duration_beat": 0.49791666666664014,
            "velocity": 112,
            "track": 0
        },
        {
            "pitch": 67,
            "start_beat": 260.0,
            "duration_beat": 0.9979166666666401,
            "velocity": 112,
            "track": 0
        },
        {
            "pitch": 63,
            "start_beat": 260.0,
            "duration_beat": 0.49791666666664014,
            "velocity": 112,
            "track": 1
        },
        {
            "pitch": 55,
            "start_beat": 260.0,
            "duration_beat": 1.9979166666666401,
            "velocity": 112,
            "track": 1
        },
        {
            "pitch": 70,
            "start_beat": 260.5,
            "duration_beat": 0.49791666666664014,
            "velocity": 112,
            "track": 0
        },
        {
            "pitch": 62,
            "start_beat": 260.5,
            "duration_beat": 0.4729166666666629,
            "velocity": 112,
            "track": 1
        },
        {
            "pitch": 69,
            "start_beat": 261.0,
            "duration_beat": 0.49791666666664014,
            "velocity": 112,
            "track": 0
        },
        {
            "pitch": 67,
            "start_beat": 261.5,
            "duration_beat": 0.49791666666664014,
            "velocity": 112,
            "track": 0
        },
        {
            "pitch": 77,
            "start_beat": 262.0,
            "duration_beat": 0.49791666666664014,
            "velocity": 112,
            "track": 0
        },
        {
            "pitch": 55,
            "start_beat": 262.0,
            "duration_beat": 3.847916666666663,
            "velocity": 112,
            "track": 1
        },
        {
            "pitch": 60,
            "start_beat": 262.0,
            "duration_beat": 3.847916666666663,
            "velocity": 112,
            "track": 1
        },
        {
            "pitch": 63,
            "start_beat": 262.0,
            "duration_beat": 3.847916666666663,
            "velocity": 112,
            "track": 1
        },
        {
            "pitch": 72,
            "start_beat": 262.5,
            "duration_beat": 0.49791666666664014,
            "velocity": 112,
            "track": 0
        },
        {
            "pitch": 75,
            "start_beat": 263.0,
            "duration_beat": 0.49791666666664014,
            "velocity": 112,
            "track": 0
        },
        {
            "pitch": 69,
            "start_beat": 263.0,
            "duration_beat": 2.99791666666664,
            "velocity": 112,
            "track": 1
        },
        {
            "pitch": 66,
            "start_beat": 263.5,
            "duration_beat": 0.49791666666664014,
            "velocity": 112,
            "track": 0
        },
        {
            "pitch": 72,
            "start_beat": 264.0,
            "duration_beat": 0.49791666666664014,
            "velocity": 112,
            "track": 0
        },
        {
            "pitch": 75,
            "start_beat": 264.5,
            "duration_beat": 0.49791666666664014,
            "velocity": 112,
            "track": 0
        },
        {
            "pitch": 78,
            "start_beat": 265.0,
            "duration_beat": 0.49791666666664014,
            "velocity": 112,
            "track": 0
        },
        {
            "pitch": 84,
            "start_beat": 265.5,
            "duration_beat": 0.49791666666664014,
            "velocity": 112,
            "track": 0
        },
        {
            "pitch": 89,
            "start_beat": 266.0,
            "duration_beat": 0.49791666666664014,
            "velocity": 112,
            "track": 0
        },
        {
            "pitch": 55,
            "start_beat": 266.0,
            "duration_beat": 0.9979166666666401,
            "velocity": 112,
            "track": 1
        },
        {
            "pitch": 67,
            "start_beat": 266.0,
            "duration_beat": 0.9979166666666401,
            "velocity": 112,
            "track": 1
        },
        {
            "pitch": 87,
            "start_beat": 266.5,
            "duration_beat": 0.49791666666664014,
            "velocity": 112,
            "track": 0
        },
        {
            "pitch": 86,
            "start_beat": 267.0,
            "duration_beat": 0.49791666666664014,
            "velocity": 112,
            "track": 0
        },
        {
            "pitch": 63,
            "start_beat": 267.0,
            "duration_beat": 0.9979166666666401,
            "velocity": 112,
            "track": 1
        },
        {
            "pitch": 75,
            "start_beat": 267.0,
            "duration_beat": 0.9979166666666401,
            "velocity": 112,
            "track": 1
        },
        {
            "pitch": 84,
            "start_beat": 267.5,
            "duration_beat": 0.49791666666664014,
            "velocity": 112,
            "track": 0
        },
        {
            "pitch": 82,
            "start_beat": 268.0,
            "duration_beat": 0.49791666666664014,
            "velocity": 112,
            "track": 0
        },
        {
            "pitch": 91,
            "start_beat": 268.0,
            "duration_beat": 0.49791666666664014,
            "velocity": 112,
            "track": 0
        },
        {
            "pitch": 67,
            "start_beat": 268.0,
            "duration_beat": 0.49791666666664014,
            "velocity": 112,
            "track": 1
        },
        {
            "pitch": 74,
            "start_beat": 268.0,
            "duration_beat": 0.49791666666664014,
            "velocity": 112,
            "track": 1
        },
        {
            "pitch": 91,
            "start_beat": 269.5,
            "duration_beat": 0.49791666666664014,
            "velocity": 96,
            "track": 0
        },
        {
            "pitch": 96,
            "start_beat": 269.5,
            "duration_beat": 0.49791666666664014,
            "velocity": 96,
            "track": 0
        },
        {
            "pitch": 94,
            "start_beat": 270.0,
            "duration_beat": 0.49791666666664014,
            "velocity": 96,
            "track": 0
        },
        {
            "pitch": 86,
            "start_beat": 270.5,
            "duration_beat": 0.49791666666664014,
            "velocity": 96,
            "track": 0
        },
        {
            "pitch": 90,
            "start_beat": 271.0,
            "duration_beat": 0.49791666666664014,
            "velocity": 112,
            "track": 0
        },
        {
            "pitch": 94,
            "start_beat": 271.0,
            "duration_beat": 0.49791666666664014,
            "velocity": 112,
            "track": 0
        },
        {
            "pitch": 75,
            "start_beat": 271.0,
            "duration_beat": 0.9979166666666401,
            "velocity": 112,
            "track": 1
        },
        {
            "pitch": 63,
            "start_beat": 271.0,
            "duration_beat": 0.9979166666666401,
            "velocity": 112,
            "track": 1
        },
        {
            "pitch": 66,
            "start_beat": 271.0,
            "duration_beat": 0.9979166666666401,
            "velocity": 112,
            "track": 1
        },
        {
            "pitch": 69,
            "start_beat": 271.0,
            "duration_beat": 0.9979166666666401,
            "velocity": 112,
            "track": 1
        },
        {
            "pitch": 93,
            "start_beat": 271.5,
            "duration_beat": 0.49791666666664014,
            "velocity": 108,
            "track": 0
        },
        {
            "pitch": 86,
            "start_beat": 272.0,
            "duration_beat": 0.49791666666664014,
            "velocity": 103,
            "track": 0
        },
        {
            "pitch": 74,
            "start_beat": 272.0,
            "duration_beat": 0.9979166666666401,
            "velocity": 103,
            "track": 1
        },
        {
            "pitch": 78,
            "start_beat": 272.5,
            "duration_beat": 0.49791666666664014,
            "velocity": 98,
            "track": 0
        },
        {
            "pitch": 82,
            "start_beat": 272.5,
            "duration_beat": 0.49791666666664014,
            "velocity": 98,
            "track": 0
        },
        {
            "pitch": 81,
            "start_beat": 273.0,
            "duration_beat": 0.49791666666664014,
            "velocity": 94,
            "track": 0
        },
        {
            "pitch": 62,
            "start_beat": 273.0,
            "duration_beat": 0.9979166666666401,
            "velocity": 94,
            "track": 1
        },
        {
            "pitch": 74,
            "start_beat": 273.5,
            "duration_beat": 0.4729166666666629,
            "velocity": 94,
            "track": 0
        },
        {
            "pitch": 79,
            "start_beat": 274.0,
            "duration_beat": 0.49791666666664014,
            "velocity": 94,
            "track": 0
        },
        {
            "pitch": 84,
            "start_beat": 274.0,
            "duration_beat": 0.49791666666664014,
            "velocity": 94,
            "track": 0
        },
        {
            "pitch": 55,
            "start_beat": 274.0,
            "duration_beat": 0.49791666666664014,
            "velocity": 94,
            "track": 1
        },
        {
            "pitch": 82,
            "start_beat": 274.5,
            "duration_beat": 0.49791666666664014,
            "velocity": 94,
            "track": 0
        },
        {
            "pitch": 86,
            "start_beat": 275.0,
            "duration_beat": 0.49791666666664014,
            "velocity": 94,
            "track": 0
        },
        {
            "pitch": 62,
            "start_beat": 275.0,
            "duration_beat": 1.9979166666666401,
            "velocity": 94,
            "track": 1
        },
        {
            "pitch": 91,
            "start_beat": 275.5,
            "duration_beat": 0.49791666666664014,
            "velocity": 94,
            "track": 0
        },
        {
            "pitch": 96,
            "start_beat": 275.5,
            "duration_beat": 0.49791666666664014,
            "velocity": 94,
            "track": 0
        },
        {
            "pitch": 94,
            "start_beat": 276.0,
            "duration_beat": 0.49791666666664014,
            "velocity": 94,
            "track": 0
        },
        {
            "pitch": 74,
            "start_beat": 276.0,
            "duration_beat": 0.9979166666666401,
            "velocity": 94,
            "track": 1
        },
        {
            "pitch": 86,
            "start_beat": 276.5,
            "duration_beat": 0.49791666666664014,
            "velocity": 94,
            "track": 0
        },
        {
            "pitch": 90,
            "start_beat": 277.0,
            "duration_beat": 0.49791666666664014,
            "velocity": 94,
            "track": 0
        },
        {
            "pitch": 94,
            "start_beat": 277.0,
            "duration_beat": 0.49791666666664014,
            "velocity": 94,
            "track": 0
        },
        {
            "pitch": 75,
            "start_beat": 277.0,
            "duration_beat": 0.9979166666666401,
            "velocity": 94,
            "track": 1
        },
        {
            "pitch": 63,
            "start_beat": 277.0,
            "duration_beat": 0.9979166666666401,
            "velocity": 94,
            "track": 1
        },
        {
            "pitch": 66,
            "start_beat": 277.0,
            "duration_beat": 0.9979166666666401,
            "velocity": 94,
            "track": 1
        },
        {
            "pitch": 69,
            "start_beat": 277.0,
            "duration_beat": 0.9979166666666401,
            "velocity": 94,
            "track": 1
        },
        {
            "pitch": 93,
            "start_beat": 277.5,
            "duration_beat": 0.49791666666664014,
            "velocity": 94,
            "track": 0
        },
        {
            "pitch": 86,
            "start_beat": 278.0,
            "duration_beat": 0.49791666666664014,
            "velocity": 94,
            "track": 0
        },
        {
            "pitch": 74,
            "start_beat": 278.0,
            "duration_beat": 0.9979166666666401,
            "velocity": 94,
            "track": 1
        },
        {
            "pitch": 78,
            "start_beat": 278.5,
            "duration_beat": 0.49791666666664014,
            "velocity": 94,
            "track": 0
        },
        {
            "pitch": 82,
            "start_beat": 278.5,
            "duration_beat": 0.49791666666664014,
            "velocity": 94,
            "track": 0
        },
        {
            "pitch": 81,
            "start_beat": 279.0,
            "duration_beat": 0.49791666666664014,
            "velocity": 94,
            "track": 0
        },
        {
            "pitch": 62,
            "start_beat": 279.0,
            "duration_beat": 0.9979166666666401,
            "velocity": 94,
            "track": 1
        },
        {
            "pitch": 74,
            "start_beat": 279.5,
            "duration_beat": 0.4729166666666629,
            "velocity": 94,
            "track": 0
        },
        {
            "pitch": 79,
            "start_beat": 280.0,
            "duration_beat": 0.49791666666664014,
            "velocity": 94,
            "track": 0
        },
        {
            "pitch": 84,
            "start_beat": 280.0,
            "duration_beat": 0.49791666666664014,
            "velocity": 94,
            "track": 0
        },
        {
            "pitch": 55,
            "start_beat": 280.0,
            "duration_beat": 0.9479166666666856,
            "velocity": 94,
            "track": 1
        },
        {
            "pitch": 82,
            "start_beat": 280.5,
            "duration_beat": 0.49791666666664014,
            "velocity": 94,
            "track": 0
        },
        {
            "pitch": 86,
            "start_beat": 281.0,
            "duration_beat": 0.49791666666664014,
            "velocity": 94,
            "track": 0
        },
        {
            "pitch": 91,
            "start_beat": 281.5,
            "duration_beat": 0.49791666666664014,
            "velocity": 94,
            "track": 0
        },
        {
            "pitch": 96,
            "start_beat": 281.5,
            "duration_beat": 0.49791666666664014,
            "velocity": 94,
            "track": 0
        },
        {
            "pitch": 94,
            "start_beat": 282.0,
            "duration_beat": 0.49791666666664014,
            "velocity": 94,
            "track": 0
        },
        {
            "pitch": 50,
            "start_beat": 282.0,
            "duration_beat": 0.9979166666666401,
            "velocity": 94,
            "track": 1
        },
        {
            "pitch": 86,
            "start_beat": 282.5,
            "duration_beat": 0.49791666666664014,
            "velocity": 94,
            "track": 0
        },
        {
            "pitch": 90,
            "start_beat": 283.0,
            "duration_beat": 0.49791666666664014,
            "velocity": 94,
            "track": 0
        },
        {
            "pitch": 94,
            "start_beat": 283.0,
            "duration_beat": 0.49791666666664014,
            "velocity": 94,
            "track": 0
        },
        {
            "pitch": 51,
            "start_beat": 283.0,
            "duration_beat": 0.49791666666664014,
            "velocity": 94,
            "track": 1
        },
        {
            "pitch": 54,
            "start_beat": 283.0,
            "duration_beat": 0.49791666666664014,
            "velocity": 94,
            "track": 1
        },
        {
            "pitch": 57,
            "start_beat": 283.0,
            "duration_beat": 0.49791666666664014,
            "velocity": 94,
            "track": 1
        },
        {
            "pitch": 63,
            "start_beat": 283.0,
            "duration_beat": 0.9979166666666401,
            "velocity": 94,
            "track": 1
        },
        {
            "pitch": 93,
            "start_beat": 283.5,
            "duration_beat": 0.49791666666664014,
            "velocity": 94,
            "track": 0
        },
        {
            "pitch": 86,
            "start_beat": 284.0,
            "duration_beat": 0.49791666666664014,
            "velocity": 94,
            "track": 0
        },
        {
            "pitch": 62,
            "start_beat": 284.0,
            "duration_beat": 0.9979166666666401,
            "velocity": 94,
            "track": 1
        },
        {
            "pitch": 78,
            "start_beat": 284.5,
            "duration_beat": 0.49791666666664014,
            "velocity": 94,
            "track": 0
        },
        {
            "pitch": 82,
            "start_beat": 284.5,
            "duration_beat": 0.49791666666664014,
            "velocity": 94,
            "track": 0
        },
        {
            "pitch": 81,
            "start_beat": 285.0,
            "duration_beat": 0.49791666666664014,
            "velocity": 94,
            "track": 0
        },
        {
            "pitch": 50,
            "start_beat": 285.0,
            "duration_beat": 0.9979166666666401,
            "velocity": 94,
            "track": 1
        },
        {
            "pitch": 74,
            "start_beat": 285.5,
            "duration_beat": 0.4729166666666629,
            "velocity": 94,
            "track": 0
        },
        {
            "pitch": 67,
            "start_beat": 286.0,
            "duration_beat": 0.49791666666664014,
            "velocity": 94,
            "track": 0
        },
        {
            "pitch": 72,
            "start_beat": 286.0,
            "duration_beat": 0.49791666666664014,
            "velocity": 94,
            "track": 0
        },
        {
            "pitch": 43,
            "start_beat": 286.0,
            "duration_beat": 0.49791666666664014,
            "velocity": 94,
            "track": 1
        },
        {
            "pitch": 70,
            "start_beat": 286.5,
            "duration_beat": 0.49791666666664014,
            "velocity": 94,
            "track": 0
        },
        {
            "pitch": 74,
            "start_beat": 287.0,
            "duration_beat": 0.49791666666664014,
            "velocity": 94,
            "track": 0
        },
        {
            "pitch": 50,
            "start_beat": 287.0,
            "duration_beat": 1.9979166666666401,
            "velocity": 94,
            "track": 1
        },
        {
            "pitch": 79,
            "start_beat": 287.5,
            "duration_beat": 0.49791666666664014,
            "velocity": 102,
            "track": 0
        },
        {
            "pitch": 84,
            "start_beat": 287.5,
            "duration_beat": 0.49791666666664014,
            "velocity": 102,
            "track": 0
        },
        {
            "pitch": 82,
            "start_beat": 288.0,
            "duration_beat": 0.49791666666664014,
            "velocity": 110,
            "track": 0
        },
        {
            "pitch": 62,
            "start_beat": 288.0,
            "duration_beat": 0.9979166666666401,
            "velocity": 110,
            "track": 1
        },
        {
            "pitch": 74,
            "start_beat": 288.5,
            "duration_beat": 0.49791666666664014,
            "velocity": 118,
            "track": 0
        },
        {
            "pitch": 78,
            "start_beat": 289.0,
            "duration_beat": 0.49791666666664014,
            "velocity": 127,
            "track": 0
        },
        {
            "pitch": 82,
            "start_beat": 289.0,
            "duration_beat": 0.49791666666664014,
            "velocity": 127,
            "track": 0
        },
        {
            "pitch": 63,
            "start_beat": 289.0,
            "duration_beat": 0.9979166666666401,
            "velocity": 127,
            "track": 1
        },
        {
            "pitch": 51,
            "start_beat": 289.0,
            "duration_beat": 0.9979166666666401,
            "velocity": 127,
            "track": 1
        },
        {
            "pitch": 54,
            "start_beat": 289.0,
            "duration_beat": 0.9979166666666401,
            "velocity": 127,
            "track": 1
        },
        {
            "pitch": 57,
            "start_beat": 289.0,
            "duration_beat": 0.9979166666666401,
            "velocity": 127,
            "track": 1
        },
        {
            "pitch": 81,
            "start_beat": 289.5,
            "duration_beat": 0.49791666666664014,
            "velocity": 127,
            "track": 0
        },
        {
            "pitch": 74,
            "start_beat": 290.0,
            "duration_beat": 0.49791666666664014,
            "velocity": 127,
            "track": 0
        },
        {
            "pitch": 62,
            "start_beat": 290.0,
            "duration_beat": 0.9979166666666401,
            "velocity": 127,
            "track": 1
        },
        {
            "pitch": 66,
            "start_beat": 290.5,
            "duration_beat": 0.49791666666664014,
            "velocity": 127,
            "track": 0
        },
        {
            "pitch": 70,
            "start_beat": 290.5,
            "duration_beat": 0.49791666666664014,
            "velocity": 127,
            "track": 0
        },
        {
            "pitch": 69,
            "start_beat": 291.0,
            "duration_beat": 0.49791666666664014,
            "velocity": 127,
            "track": 0
        },
        {
            "pitch": 50,
            "start_beat": 291.0,
            "duration_beat": 0.9979166666666401,
            "velocity": 127,
            "track": 1
        },
        {
            "pitch": 62,
            "start_beat": 291.5,
            "duration_beat": 0.4729166666666629,
            "velocity": 127,
            "track": 0
        },
        {
            "pitch": 67,
            "start_beat": 292.0,
            "duration_beat": 0.49791666666664014,
            "velocity": 127,
            "track": 0
        },
        {
            "pitch": 72,
            "start_beat": 292.0,
            "duration_beat": 0.49791666666664014,
            "velocity": 127,
            "track": 0
        },
        {
            "pitch": 43,
            "start_beat": 292.0,
            "duration_beat": 1.9979166666666401,
            "velocity": 127,
            "track": 1
        },
        {
            "pitch": 70,
            "start_beat": 292.5,
            "duration_beat": 0.49791666666664014,
            "velocity": 127,
            "track": 0
        },
        {
            "pitch": 74,
            "start_beat": 293.0,
            "duration_beat": 0.49791666666664014,
            "velocity": 127,
            "track": 0
        },
        {
            "pitch": 50,
            "start_beat": 293.0,
            "duration_beat": 0.9479166666666856,
            "velocity": 127,
            "track": 1
        },
        {
            "pitch": 58,
            "start_beat": 293.0,
            "duration_beat": 0.9479166666666856,
            "velocity": 127,
            "track": 1
        },
        {
            "pitch": 79,
            "start_beat": 293.5,
            "duration_beat": 0.49791666666664014,
            "velocity": 127,
            "track": 0
        },
        {
            "pitch": 84,
            "start_beat": 293.5,
            "duration_beat": 0.49791666666664014,
            "velocity": 127,
            "track": 0
        },
        {
            "pitch": 82,
            "start_beat": 294.0,
            "duration_beat": 0.49791666666664014,
            "velocity": 127,
            "track": 0
        },
        {
            "pitch": 74,
            "start_beat": 294.5,
            "duration_beat": 0.49791666666664014,
            "velocity": 127,
            "track": 0
        },
        {
            "pitch": 74,
            "start_beat": 295.0,
            "duration_beat": 0.49791666666664014,
            "velocity": 127,
            "track": 0
        },
        {
            "pitch": 81,
            "start_beat": 295.0,
            "duration_beat": 0.49791666666664014,
            "velocity": 127,
            "track": 0
        },
        {
            "pitch": 37,
            "start_beat": 295.0,
            "duration_beat": 0.9979166666666401,
            "velocity": 127,
            "track": 1
        },
        {
            "pitch": 49,
            "start_beat": 295.0,
            "duration_beat": 0.9979166666666401,
            "velocity": 127,
            "track": 1
        },
        {
            "pitch": 79,
            "start_beat": 295.5,
            "duration_beat": 0.49791666666664014,
            "velocity": 127,
            "track": 0
        },
        {
            "pitch": 70,
            "start_beat": 296.0,
            "duration_beat": 0.49791666666664014,
            "velocity": 127,
            "track": 0
        },
        {
            "pitch": 38,
            "start_beat": 296.0,
            "duration_beat": 0.9479166666666856,
            "velocity": 127,
            "track": 1
        },
        {
            "pitch": 50,
            "start_beat": 296.0,
            "duration_beat": 0.9479166666666856,
            "velocity": 127,
            "track": 1
        },
        {
            "pitch": 70,
            "start_beat": 296.5,
            "duration_beat": 0.49791666666664014,
            "velocity": 127,
            "track": 0
        },
        {
            "pitch": 75,
            "start_beat": 296.5,
            "duration_beat": 0.49791666666664014,
            "velocity": 127,
            "track": 0
        },
        {
            "pitch": 74,
            "start_beat": 297.0,
            "duration_beat": 0.49791666666664014,
            "velocity": 127,
            "track": 0
        },
        {
            "pitch": 67,
            "start_beat": 297.5,
            "duration_beat": 0.4729166666666629,
            "velocity": 127,
            "track": 0
        },
        {
            "pitch": 67,
            "start_beat": 298.0,
            "duration_beat": 0.49791666666664014,
            "velocity": 127,
            "track": 0
        },
        {
            "pitch": 72,
            "start_beat": 298.0,
            "duration_beat": 0.49791666666664014,
            "velocity": 127,
            "track": 0
        },
        {
            "pitch": 31,
            "start_beat": 298.0,
            "duration_beat": 0.9979166666666401,
            "velocity": 127,
            "track": 1
        },
        {
            "pitch": 43,
            "start_beat": 298.0,
            "duration_beat": 0.9979166666666401,
            "velocity": 127,
            "track": 1
        },
        {
            "pitch": 70,
            "start_beat": 298.5,
            "duration_beat": 0.49791666666664014,
            "velocity": 127,
            "track": 0
        },
        {
            "pitch": 62,
            "start_beat": 299.0,
            "duration_beat": 0.49791666666664014,
            "velocity": 127,
            "track": 0
        },
        {
            "pitch": 50,
            "start_beat": 299.0,
            "duration_beat": 0.9479166666666856,
            "velocity": 127,
            "track": 1
        },
        {
            "pitch": 62,
            "start_beat": 299.5,
            "duration_beat": 0.49791666666664014,
            "velocity": 127,
            "track": 0
        },
        {
            "pitch": 69,
            "start_beat": 299.5,
            "duration_beat": 0.49791666666664014,
            "velocity": 127,
            "track": 0
        },
        {
            "pitch": 67,
            "start_beat": 300.0,
            "duration_beat": 0.49791666666664014,
            "velocity": 127,
            "track": 0
        },
        {
            "pitch": 58,
            "start_beat": 300.5,
            "duration_beat": 0.49791666666664014,
            "velocity": 127,
            "track": 0
        },
        {
            "pitch": 58,
            "start_beat": 301.0,
            "duration_beat": 0.49791666666664014,
            "velocity": 127,
            "track": 0
        },
        {
            "pitch": 63,
            "start_beat": 301.0,
            "duration_beat": 0.49791666666664014,
            "velocity": 127,
            "track": 0
        },
        {
            "pitch": 37,
            "start_beat": 301.0,
            "duration_beat": 0.9979166666666401,
            "velocity": 127,
            "track": 1
        },
        {
            "pitch": 62,
            "start_beat": 301.5,
            "duration_beat": 0.49791666666664014,
            "velocity": 127,
            "track": 0
        },
        {
            "pitch": 55,
            "start_beat": 302.0,
            "duration_beat": 0.49791666666664014,
            "velocity": 127,
            "track": 0
        },
        {
            "pitch": 38,
            "start_beat": 302.0,
            "duration_beat": 0.9479166666666856,
            "velocity": 127,
            "track": 1
        },
        {
            "pitch": 55,
            "start_beat": 302.5,
            "duration_beat": 0.49791666666664014,
            "velocity": 127,
            "track": 0
        },
        {
            "pitch": 60,
            "start_beat": 302.5,
            "duration_beat": 0.49791666666664014,
            "velocity": 127,
            "track": 0
        },
        {
            "pitch": 58,
            "start_beat": 303.0,
            "duration_beat": 0.49791666666664014,
            "velocity": 127,
            "track": 0
        },
        {
            "pitch": 50,
            "start_beat": 303.5,
            "duration_beat": 0.4729166666666629,
            "velocity": 127,
            "track": 0
        },
        {
            "pitch": 55,
            "start_beat": 304.0,
            "duration_beat": 0.49791666666664014,
            "velocity": 127,
            "track": 0
        },
        {
            "pitch": 60,
            "start_beat": 304.0,
            "duration_beat": 0.49791666666664014,
            "velocity": 127,
            "track": 0
        },
        {
            "pitch": 31,
            "start_beat": 304.0,
            "duration_beat": 0.9479166666666856,
            "velocity": 127,
            "track": 1
        },
        {
            "pitch": 43,
            "start_beat": 304.0,
            "duration_beat": 0.9479166666666856,
            "velocity": 127,
            "track": 1
        },
        {
            "pitch": 58,
            "start_beat": 304.5,
            "duration_beat": 0.49791666666664014,
            "velocity": 122,
            "track": 0
        },
        {
            "pitch": 50,
            "start_beat": 305.0,
            "duration_beat": 0.49791666666664014,
            "velocity": 117,
            "track": 0
        },
        {
            "pitch": 55,
            "start_beat": 305.5,
            "duration_beat": 0.49791666666664014,
            "velocity": 112,
            "track": 0
        },
        {
            "pitch": 62,
            "start_beat": 305.5,
            "duration_beat": 0.49791666666664014,
            "velocity": 112,
            "track": 0
        },
        {
            "pitch": 60,
            "start_beat": 306.0,
            "duration_beat": 0.49791666666664014,
            "velocity": 107,
            "track": 0
        },
        {
            "pitch": 36,
            "start_beat": 306.0,
            "duration_beat": 0.9979166666666401,
            "velocity": 107,
            "track": 1
        },
        {
            "pitch": 51,
            "start_beat": 306.5,
            "duration_beat": 0.49791666666664014,
            "velocity": 102,
            "track": 0
        },
        {
            "pitch": 55,
            "start_beat": 307.0,
            "duration_beat": 0.49791666666664014,
            "velocity": 96,
            "track": 0
        },
        {
            "pitch": 60,
            "start_beat": 307.0,
            "duration_beat": 0.49791666666664014,
            "velocity": 96,
            "track": 0
        },
        {
            "pitch": 31,
            "start_beat": 307.0,
            "duration_beat": 0.9479166666666856,
            "velocity": 96,
            "track": 1
        },
        {
            "pitch": 43,
            "start_beat": 307.0,
            "duration_beat": 0.9479166666666856,
            "velocity": 96,
            "track": 1
        },
        {
            "pitch": 58,
            "start_beat": 307.5,
            "duration_beat": 0.49791666666664014,
            "velocity": 96,
            "track": 0
        },
        {
            "pitch": 50,
            "start_beat": 308.0,
            "duration_beat": 0.49791666666664014,
            "velocity": 96,
            "track": 0
        },
        {
            "pitch": 55,
            "start_beat": 308.5,
            "duration_beat": 0.49791666666664014,
            "velocity": 96,
            "track": 0
        },
        {
            "pitch": 62,
            "start_beat": 308.5,
            "duration_beat": 0.49791666666664014,
            "velocity": 96,
            "track": 0
        },
        {
            "pitch": 60,
            "start_beat": 309.0,
            "duration_beat": 0.49791666666664014,
            "velocity": 96,
            "track": 0
        },
        {
            "pitch": 36,
            "start_beat": 309.0,
            "duration_beat": 0.9979166666666401,
            "velocity": 96,
            "track": 1
        },
        {
            "pitch": 51,
            "start_beat": 309.5,
            "duration_beat": 0.49791666666664014,
            "velocity": 96,
            "track": 0
        },
        {
            "pitch": 55,
            "start_beat": 310.0,
            "duration_beat": 0.49791666666664014,
            "velocity": 96,
            "track": 0
        },
        {
            "pitch": 60,
            "start_beat": 310.0,
            "duration_beat": 0.49791666666664014,
            "velocity": 96,
            "track": 0
        },
        {
            "pitch": 31,
            "start_beat": 310.0,
            "duration_beat": 0.9479166666666856,
            "velocity": 96,
            "track": 1
        },
        {
            "pitch": 43,
            "start_beat": 310.0,
            "duration_beat": 0.9479166666666856,
            "velocity": 96,
            "track": 1
        },
        {
            "pitch": 58,
            "start_beat": 310.5,
            "duration_beat": 0.49791666666664014,
            "velocity": 96,
            "track": 0
        },
        {
            "pitch": 50,
            "start_beat": 311.0,
            "duration_beat": 0.49791666666664014,
            "velocity": 96,
            "track": 0
        },
        {
            "pitch": 55,
            "start_beat": 311.5,
            "duration_beat": 0.49791666666664014,
            "velocity": 96,
            "track": 0
        },
        {
            "pitch": 62,
            "start_beat": 311.5,
            "duration_beat": 0.49791666666664014,
            "velocity": 96,
            "track": 0
        },
        {
            "pitch": 60,
            "start_beat": 312.0,
            "duration_beat": 0.49791666666664014,
            "velocity": 96,
            "track": 0
        },
        {
            "pitch": 36,
            "start_beat": 312.0,
            "duration_beat": 0.9979166666666401,
            "velocity": 96,
            "track": 1
        },
        {
            "pitch": 51,
            "start_beat": 312.5,
            "duration_beat": 0.49791666666664014,
            "velocity": 96,
            "track": 0
        },
        {
            "pitch": 55,
            "start_beat": 313.0,
            "duration_beat": 0.49791666666664014,
            "velocity": 96,
            "track": 0
        },
        {
            "pitch": 60,
            "start_beat": 313.0,
            "duration_beat": 0.49791666666664014,
            "velocity": 96,
            "track": 0
        },
        {
            "pitch": 31,
            "start_beat": 313.0,
            "duration_beat": 0.9479166666666856,
            "velocity": 96,
            "track": 1
        },
        {
            "pitch": 43,
            "start_beat": 313.0,
            "duration_beat": 0.9479166666666856,
            "velocity": 96,
            "track": 1
        },
        {
            "pitch": 58,
            "start_beat": 313.5,
            "duration_beat": 0.49791666666664014,
            "velocity": 96,
            "track": 0
        },
        {
            "pitch": 50,
            "start_beat": 314.0,
            "duration_beat": 0.49791666666664014,
            "velocity": 96,
            "track": 0
        },
        {
            "pitch": 55,
            "start_beat": 314.5,
            "duration_beat": 0.49791666666664014,
            "velocity": 96,
            "track": 0
        },
        {
            "pitch": 62,
            "start_beat": 314.5,
            "duration_beat": 0.49791666666664014,
            "velocity": 96,
            "track": 0
        },
        {
            "pitch": 60,
            "start_beat": 315.0,
            "duration_beat": 0.49791666666664014,
            "velocity": 96,
            "track": 0
        },
        {
            "pitch": 36,
            "start_beat": 315.0,
            "duration_beat": 0.9979166666666401,
            "velocity": 96,
            "track": 1
        },
        {
            "pitch": 51,
            "start_beat": 315.5,
            "duration_beat": 0.4729166666666629,
            "velocity": 96,
            "track": 0
        },
        {
            "pitch": 55,
            "start_beat": 316.0,
            "duration_beat": 0.49791666666664014,
            "velocity": 96,
            "track": 0
        },
        {
            "pitch": 31,
            "start_beat": 316.0,
            "duration_beat": 2.847916666666663,
            "velocity": 96,
            "track": 1
        },
        {
            "pitch": 43,
            "start_beat": 316.0,
            "duration_beat": 2.847916666666663,
            "velocity": 96,
            "track": 1
        },
        {
            "pitch": 62,
            "start_beat": 316.5,
            "duration_beat": 0.49791666666664014,
            "velocity": 96,
            "track": 0
        },
        {
            "pitch": 58,
            "start_beat": 317.0,
            "duration_beat": 0.49791666666664014,
            "velocity": 96,
            "track": 0
        },
        {
            "pitch": 62,
            "start_beat": 317.5,
            "duration_beat": 0.49791666666664014,
            "velocity": 96,
            "track": 0
        },
        {
            "pitch": 67,
            "start_beat": 318.0,
            "duration_beat": 0.49791666666664014,
            "velocity": 96,
            "track": 0
        },
        {
            "pitch": 70,
            "start_beat": 318.5,
            "duration_beat": 0.49791666666664014,
            "velocity": 96,
            "track": 0
        },
        {
            "pitch": 74,
            "start_beat": 319.0,
            "duration_beat": 0.49791666666664014,
            "velocity": 96,
            "track": 0
        },
        {
            "pitch": 79,
            "start_beat": 319.5,
            "duration_beat": 0.49791666666664014,
            "velocity": 96,
            "track": 0
        },
        {
            "pitch": 82,
            "start_beat": 320.0,
            "duration_beat": 0.49791666666664014,
            "velocity": 96,
            "track": 0
        },
        {
            "pitch": 62,
            "start_beat": 320.0,
            "duration_beat": 0.49791666666664014,
            "velocity": 96,
            "track": 1
        },
        {
            "pitch": 67,
            "start_beat": 320.0,
            "duration_beat": 0.49791666666664014,
            "velocity": 96,
            "track": 1
        },
        {
            "pitch": 86,
            "start_beat": 320.5,
            "duration_beat": 0.49791666666664014,
            "velocity": 96,
            "track": 0
        },
        {
            "pitch": 91,
            "start_beat": 321.0,
            "duration_beat": 0.49791666666664014,
            "velocity": 96,
            "track": 0
        },
        {
            "pitch": 55,
            "start_beat": 321.0,
            "duration_beat": 0.49791666666664014,
            "velocity": 96,
            "track": 1
        },
        {
            "pitch": 62,
            "start_beat": 321.0,
            "duration_beat": 0.49791666666664014,
            "velocity": 96,
            "track": 1
        },
        {
            "pitch": 98,
            "start_beat": 321.5,
            "duration_beat": 0.49791666666664014,
            "velocity": 96,
            "track": 0
        },
        {
            "pitch": 94,
            "start_beat": 322.0,
            "duration_beat": 0.49791666666664014,
            "velocity": 96,
            "track": 0
        },
        {
            "pitch": 62,
            "start_beat": 322.0,
            "duration_beat": 1.8979166666666742,
            "velocity": 96,
            "track": 1
        },
        {
            "pitch": 67,
            "start_beat": 322.0,
            "duration_beat": 1.8979166666666742,
            "velocity": 96,
            "track": 1
        },
        {
            "pitch": 98,
            "start_beat": 322.5,
            "duration_beat": 0.49791666666664014,
            "velocity": 96,
            "track": 0
        },
        {
            "pitch": 91,
            "start_beat": 323.0,
            "duration_beat": 0.49791666666664014,
            "velocity": 96,
            "track": 0
        },
        {
            "pitch": 86,
            "start_beat": 323.5,
            "duration_beat": 0.49791666666664014,
            "velocity": 96,
            "track": 0
        },
        {
            "pitch": 82,
            "start_beat": 324.0,
            "duration_beat": 0.49791666666664014,
            "velocity": 96,
            "track": 0
        },
        {
            "pitch": 79,
            "start_beat": 324.5,
            "duration_beat": 0.49791666666664014,
            "velocity": 96,
            "track": 0
        },
        {
            "pitch": 74,
            "start_beat": 325.0,
            "duration_beat": 0.49791666666664014,
            "velocity": 96,
            "track": 0
        },
        {
            "pitch": 70,
            "start_beat": 325.5,
            "duration_beat": 0.49791666666664014,
            "velocity": 96,
            "track": 0
        },
        {
            "pitch": 67,
            "start_beat": 326.0,
            "duration_beat": 0.49791666666664014,
            "velocity": 96,
            "track": 0
        },
        {
            "pitch": 62,
            "start_beat": 326.5,
            "duration_beat": 0.49791666666664014,
            "velocity": 96,
            "track": 0
        },
        {
            "pitch": 58,
            "start_beat": 327.0,
            "duration_beat": 0.49791666666664014,
            "velocity": 96,
            "track": 0
        },
        {
            "pitch": 38,
            "start_beat": 327.0,
            "duration_beat": 0.9979166666666401,
            "velocity": 96,
            "track": 1
        },
        {
            "pitch": 50,
            "start_beat": 327.5,
            "duration_beat": 0.49791666666664014,
            "velocity": 96,
            "track": 0
        },
        {
            "pitch": 55,
            "start_beat": 328.0,
            "duration_beat": 0.49791666666664014,
            "velocity": 96,
            "track": 0
        },
        {
            "pitch": 31,
            "start_beat": 328.0,
            "duration_beat": 4.74791666666664,
            "velocity": 96,
            "track": 1
        },
        {
            "pitch": 43,
            "start_beat": 328.0,
            "duration_beat": 4.74791666666664,
            "velocity": 96,
            "track": 1
        },
        {
            "pitch": 62,
            "start_beat": 328.5,
            "duration_beat": 0.49791666666664014,
            "velocity": 96,
            "track": 0
        },
        {
            "pitch": 58,
            "start_beat": 329.0,
            "duration_beat": 0.49791666666664014,
            "velocity": 96,
            "track": 0
        },
        {
            "pitch": 62,
            "start_beat": 329.5,
            "duration_beat": 0.49791666666664014,
            "velocity": 96,
            "track": 0
        },
        {
            "pitch": 67,
            "start_beat": 330.0,
            "duration_beat": 0.49791666666664014,
            "velocity": 96,
            "track": 0
        },
        {
            "pitch": 74,
            "start_beat": 330.5,
            "duration_beat": 0.49791666666664014,
            "velocity": 96,
            "track": 0
        },
        {
            "pitch": 70,
            "start_beat": 331.0,
            "duration_beat": 0.49791666666664014,
            "velocity": 96,
            "track": 0
        },
        {
            "pitch": 74,
            "start_beat": 331.5,
            "duration_beat": 0.49791666666664014,
            "velocity": 96,
            "track": 0
        },
        {
            "pitch": 67,
            "start_beat": 332.0,
            "duration_beat": 0.49791666666664014,
            "velocity": 96,
            "track": 0
        },
        {
            "pitch": 62,
            "start_beat": 332.5,
            "duration_beat": 0.49791666666664014,
            "velocity": 96,
            "track": 0
        },
        {
            "pitch": 58,
            "start_beat": 333.0,
            "duration_beat": 0.49791666666664014,
            "velocity": 96,
            "track": 0
        },
        {
            "pitch": 38,
            "start_beat": 333.0,
            "duration_beat": 0.9979166666666401,
            "velocity": 96,
            "track": 1
        },
        {
            "pitch": 50,
            "start_beat": 333.5,
            "duration_beat": 0.49791666666664014,
            "velocity": 96,
            "track": 0
        },
        {
            "pitch": 54,
            "start_beat": 334.0,
            "duration_beat": 0.49791666666664014,
            "velocity": 96,
            "track": 0
        },
        {
            "pitch": 30,
            "start_beat": 334.0,
            "duration_beat": 4.74791666666664,
            "velocity": 96,
            "track": 1
        },
        {
            "pitch": 42,
            "start_beat": 334.0,
            "duration_beat": 4.74791666666664,
            "velocity": 96,
            "track": 1
        },
        {
            "pitch": 62,
            "start_beat": 334.5,
            "duration_beat": 0.49791666666664014,
            "velocity": 96,
            "track": 0
        },
        {
            "pitch": 58,
            "start_beat": 335.0,
            "duration_beat": 0.49791666666664014,
            "velocity": 96,
            "track": 0
        },
        {
            "pitch": 62,
            "start_beat": 335.5,
            "duration_beat": 0.49791666666664014,
            "velocity": 96,
            "track": 0
        },
        {
            "pitch": 66,
            "start_beat": 336.0,
            "duration_beat": 0.49791666666664014,
            "velocity": 96,
            "track": 0
        },
        {
            "pitch": 74,
            "start_beat": 336.5,
            "duration_beat": 0.49791666666664014,
            "velocity": 96,
            "track": 0
        },
        {
            "pitch": 70,
            "start_beat": 337.0,
            "duration_beat": 0.49791666666664014,
            "velocity": 96,
            "track": 0
        },
        {
            "pitch": 74,
            "start_beat": 337.5,
            "duration_beat": 0.49791666666664014,
            "velocity": 96,
            "track": 0
        },
        {
            "pitch": 66,
            "start_beat": 338.0,
            "duration_beat": 0.49791666666664014,
            "velocity": 96,
            "track": 0
        },
        {
            "pitch": 62,
            "start_beat": 338.5,
            "duration_beat": 0.49791666666664014,
            "velocity": 96,
            "track": 0
        },
        {
            "pitch": 58,
            "start_beat": 339.0,
            "duration_beat": 0.49791666666664014,
            "velocity": 96,
            "track": 0
        },
        {
            "pitch": 38,
            "start_beat": 339.0,
            "duration_beat": 0.9979166666666401,
            "velocity": 96,
            "track": 1
        },
        {
            "pitch": 50,
            "start_beat": 339.5,
            "duration_beat": 0.49791666666664014,
            "velocity": 96,
            "track": 0
        },
        {
            "pitch": 55,
            "start_beat": 340.0,
            "duration_beat": 0.49791666666664014,
            "velocity": 96,
            "track": 0
        },
        {
            "pitch": 31,
            "start_beat": 340.0,
            "duration_beat": 2.847916666666663,
            "velocity": 96,
            "track": 1
        },
        {
            "pitch": 43,
            "start_beat": 340.0,
            "duration_beat": 2.847916666666663,
            "velocity": 96,
            "track": 1
        },
        {
            "pitch": 62,
            "start_beat": 340.5,
            "duration_beat": 0.49791666666664014,
            "velocity": 81,
            "track": 0
        },
        {
            "pitch": 58,
            "start_beat": 341.0,
            "duration_beat": 0.49791666666664014,
            "velocity": 65,
            "track": 0
        },
        {
            "pitch": 62,
            "start_beat": 341.5,
            "duration_beat": 0.49791666666664014,
            "velocity": 49,
            "track": 0
        },
        {
            "pitch": 67,
            "start_beat": 342.0,
            "duration_beat": 0.49791666666664014,
            "velocity": 49,
            "track": 0
        },
        {
            "pitch": 70,
            "start_beat": 342.5,
            "duration_beat": 0.49791666666664014,
            "velocity": 48,
            "track": 0
        },
        {
            "pitch": 74,
            "start_beat": 343.0,
            "duration_beat": 0.49791666666664014,
            "velocity": 47,
            "track": 0
        },
        {
            "pitch": 79,
            "start_beat": 343.5,
            "duration_beat": 0.49791666666664014,
            "velocity": 46,
            "track": 0
        },
        {
            "pitch": 82,
            "start_beat": 344.0,
            "duration_beat": 0.49791666666664014,
            "velocity": 46,
            "track": 0
        },
        {
            "pitch": 50,
            "start_beat": 344.0,
            "duration_beat": 0.49791666666664014,
            "velocity": 46,
            "track": 1
        },
        {
            "pitch": 55,
            "start_beat": 344.0,
            "duration_beat": 0.49791666666664014,
            "velocity": 46,
            "track": 1
        },
        {
            "pitch": 86,
            "start_beat": 344.5,
            "duration_beat": 0.49791666666664014,
            "velocity": 45,
            "track": 0
        },
        {
            "pitch": 91,
            "start_beat": 345.0,
            "duration_beat": 0.49791666666664014,
            "velocity": 44,
            "track": 0
        },
        {
            "pitch": 43,
            "start_beat": 345.0,
            "duration_beat": 0.49791666666664014,
            "velocity": 44,
            "track": 1
        },
        {
            "pitch": 50,
            "start_beat": 345.0,
            "duration_beat": 0.49791666666664014,
            "velocity": 44,
            "track": 1
        },
        {
            "pitch": 98,
            "start_beat": 345.5,
            "duration_beat": 0.49791666666664014,
            "velocity": 43,
            "track": 0
        },
        {
            "pitch": 94,
            "start_beat": 346.0,
            "duration_beat": 0.49791666666664014,
            "velocity": 43,
            "track": 0
        },
        {
            "pitch": 50,
            "start_beat": 346.0,
            "duration_beat": 1.8979166666666742,
            "velocity": 43,
            "track": 1
        },
        {
            "pitch": 55,
            "start_beat": 346.0,
            "duration_beat": 1.8979166666666742,
            "velocity": 43,
            "track": 1
        },
        {
            "pitch": 98,
            "start_beat": 346.5,
            "duration_beat": 0.49791666666664014,
            "velocity": 42,
            "track": 0
        },
        {
            "pitch": 91,
            "start_beat": 347.0,
            "duration_beat": 0.49791666666664014,
            "velocity": 41,
            "track": 0
        },
        {
            "pitch": 86,
            "start_beat": 347.5,
            "duration_beat": 0.49791666666664014,
            "velocity": 40,
            "track": 0
        },
        {
            "pitch": 82,
            "start_beat": 348.0,
            "duration_beat": 0.49791666666664014,
            "velocity": 40,
            "track": 0
        },
        {
            "pitch": 79,
            "start_beat": 348.5,
            "duration_beat": 0.49791666666664014,
            "velocity": 39,
            "track": 0
        },
        {
            "pitch": 74,
            "start_beat": 349.0,
            "duration_beat": 0.49791666666664014,
            "velocity": 38,
            "track": 0
        },
        {
            "pitch": 70,
            "start_beat": 349.5,
            "duration_beat": 0.49791666666664014,
            "velocity": 37,
            "track": 0
        },
        {
            "pitch": 67,
            "start_beat": 350.0,
            "duration_beat": 0.49791666666664014,
            "velocity": 37,
            "track": 0
        },
        {
            "pitch": 62,
            "start_beat": 350.5,
            "duration_beat": 0.49791666666664014,
            "velocity": 36,
            "track": 0
        },
        {
            "pitch": 58,
            "start_beat": 351.0,
            "duration_beat": 0.49791666666664014,
            "velocity": 35,
            "track": 0
        },
        {
            "pitch": 38,
            "start_beat": 351.0,
            "duration_beat": 0.9979166666666401,
            "velocity": 35,
            "track": 1
        },
        {
            "pitch": 50,
            "start_beat": 351.5,
            "duration_beat": 0.4729166666666629,
            "velocity": 34,
            "track": 0
        },
        {
            "pitch": 54,
            "start_beat": 352.0,
            "duration_beat": 0.49791666666664014,
            "velocity": 33,
            "track": 0
        },
        {
            "pitch": 30,
            "start_beat": 352.0,
            "duration_beat": 4.74791666666664,
            "velocity": 33,
            "track": 1
        },
        {
            "pitch": 42,
            "start_beat": 352.0,
            "duration_beat": 4.74791666666664,
            "velocity": 33,
            "track": 1
        },
        {
            "pitch": 62,
            "start_beat": 352.5,
            "duration_beat": 0.49791666666664014,
            "velocity": 33,
            "track": 0
        },
        {
            "pitch": 58,
            "start_beat": 353.0,
            "duration_beat": 0.49791666666664014,
            "velocity": 32,
            "track": 0
        },
        {
            "pitch": 62,
            "start_beat": 353.5,
            "duration_beat": 0.49791666666664014,
            "velocity": 31,
            "track": 0
        },
        {
            "pitch": 66,
            "start_beat": 354.0,
            "duration_beat": 0.49791666666664014,
            "velocity": 31,
            "track": 0
        },
        {
            "pitch": 74,
            "start_beat": 354.5,
            "duration_beat": 0.49791666666664014,
            "velocity": 30,
            "track": 0
        },
        {
            "pitch": 70,
            "start_beat": 355.0,
            "duration_beat": 0.49791666666664014,
            "velocity": 29,
            "track": 0
        },
        {
            "pitch": 74,
            "start_beat": 355.5,
            "duration_beat": 0.49791666666664014,
            "velocity": 29,
            "track": 0
        },
        {
            "pitch": 66,
            "start_beat": 356.0,
            "duration_beat": 0.49791666666664014,
            "velocity": 28,
            "track": 0
        },
        {
            "pitch": 62,
            "start_beat": 356.5,
            "duration_beat": 0.49791666666664014,
            "velocity": 27,
            "track": 0
        },
        {
            "pitch": 58,
            "start_beat": 357.0,
            "duration_beat": 0.49791666666664014,
            "velocity": 27,
            "track": 0
        },
        {
            "pitch": 38,
            "start_beat": 357.0,
            "duration_beat": 0.9979166666666401,
            "velocity": 27,
            "track": 1
        },
        {
            "pitch": 50,
            "start_beat": 357.5,
            "duration_beat": 0.49791666666664014,
            "velocity": 26,
            "track": 0
        },
        {
            "pitch": 53,
            "start_beat": 358.0,
            "duration_beat": 0.49791666666664014,
            "velocity": 25,
            "track": 0
        },
        {
            "pitch": 41,
            "start_beat": 358.0,
            "duration_beat": 4.847916666666663,
            "velocity": 25,
            "track": 1
        },
        {
            "pitch": 29,
            "start_beat": 358.0,
            "duration_beat": 7.597916666666663,
            "velocity": 25,
            "track": 1
        },
        {
            "pitch": 62,
            "start_beat": 358.5,
            "duration_beat": 0.49791666666664014,
            "velocity": 25,
            "track": 0
        },
        {
            "pitch": 58,
            "start_beat": 359.0,
            "duration_beat": 0.49791666666664014,
            "velocity": 24,
            "track": 0
        },
        {
            "pitch": 62,
            "start_beat": 359.5,
            "duration_beat": 0.49791666666664014,
            "velocity": 23,
            "track": 0
        },
        {
            "pitch": 65,
            "start_beat": 360.0,
            "duration_beat": 0.49791666666664014,
            "velocity": 23,
            "track": 0
        },
        {
            "pitch": 74,
            "start_beat": 360.5,
            "duration_beat": 0.49791666666664014,
            "velocity": 22,
            "track": 0
        },
        {
            "pitch": 70,
            "start_beat": 361.0,
            "duration_beat": 0.49791666666664014,
            "velocity": 21,
            "track": 0
        },
        {
            "pitch": 74,
            "start_beat": 361.5,
            "duration_beat": 0.49791666666664014,
            "velocity": 21,
            "track": 0
        },
        {
            "pitch": 65,
            "start_beat": 362.0,
            "duration_beat": 0.49791666666664014,
            "velocity": 20,
            "track": 0
        },
        {
            "pitch": 62,
            "start_beat": 362.5,
            "duration_beat": 0.49791666666664014,
            "velocity": 19,
            "track": 0
        },
        {
            "pitch": 58,
            "start_beat": 363.0,
            "duration_beat": 0.49791666666664014,
            "velocity": 19,
            "track": 0
        },
        {
            "pitch": 43,
            "start_beat": 363.0,
            "duration_beat": 0.9979166666666401,
            "velocity": 19,
            "track": 1
        },
        {
            "pitch": 50,
            "start_beat": 363.5,
            "duration_beat": 0.4729166666666629,
            "velocity": 18,
            "track": 0
        },
        {
            "pitch": 53,
            "start_beat": 364.0,
            "duration_beat": 0.49791666666664014,
            "velocity": 80,
            "track": 0
        },
        {
            "pitch": 45,
            "start_beat": 364.0,
            "duration_beat": 1.8979166666666742,
            "velocity": 80,
            "track": 1
        },
        {
            "pitch": 60,
            "start_beat": 364.5,
            "duration_beat": 0.49791666666664014,
            "velocity": 80,
            "track": 0
        },
        {
            "pitch": 57,
            "start_beat": 365.0,
            "duration_beat": 0.49791666666664014,
            "velocity": 80,
            "track": 0
        },
        {
            "pitch": 60,
            "start_beat": 365.5,
            "duration_beat": 0.49791666666664014,
            "velocity": 80,
            "track": 0
        },
        {
            "pitch": 65,
            "start_beat": 366.0,
            "duration_beat": 0.49791666666664014,
            "velocity": 80,
            "track": 0
        },
        {
            "pitch": 69,
            "start_beat": 366.5,
            "duration_beat": 0.49791666666664014,
            "velocity": 64,
            "track": 0
        },
        {
            "pitch": 72,
            "start_beat": 367.0,
            "duration_beat": 0.49791666666664014,
            "velocity": 64,
            "track": 0
        },
        {
            "pitch": 77,
            "start_beat": 367.5,
            "duration_beat": 0.49791666666664014,
            "velocity": 64,
            "track": 0
        },
        {
            "pitch": 81,
            "start_beat": 368.0,
            "duration_beat": 0.49791666666664014,
            "velocity": 49,
            "track": 0
        },
        {
            "pitch": 60,
            "start_beat": 368.0,
            "duration_beat": 0.49791666666664014,
            "velocity": 49,
            "track": 1
        },
        {
            "pitch": 65,
            "start_beat": 368.0,
            "duration_beat": 0.49791666666664014,
            "velocity": 49,
            "track": 1
        },
        {
            "pitch": 84,
            "start_beat": 368.5,
            "duration_beat": 0.49791666666664014,
            "velocity": 49,
            "track": 0
        },
        {
            "pitch": 89,
            "start_beat": 369.0,
            "duration_beat": 0.49791666666664014,
            "velocity": 49,
            "track": 0
        },
        {
            "pitch": 53,
            "start_beat": 369.0,
            "duration_beat": 0.49791666666664014,
            "velocity": 49,
            "track": 1
        },
        {
            "pitch": 60,
            "start_beat": 369.0,
            "duration_beat": 0.49791666666664014,
            "velocity": 49,
            "track": 1
        },
        {
            "pitch": 93,
            "start_beat": 369.5,
            "duration_beat": 0.49791666666664014,
            "velocity": 49,
            "track": 0
        },
        {
            "pitch": 101,
            "start_beat": 370.0,
            "duration_beat": 0.9479166666666856,
            "velocity": 49,
            "track": 0
        },
        {
            "pitch": 60,
            "start_beat": 370.0,
            "duration_beat": 4.74791666666664,
            "velocity": 49,
            "track": 1
        },
        {
            "pitch": 65,
            "start_beat": 370.0,
            "duration_beat": 4.74791666666664,
            "velocity": 49,
            "track": 1
        },
        {
            "pitch": 53,
            "start_beat": 375.0,
            "duration_beat": 0.9979166666666401,
            "velocity": 43,
            "track": 1
        },
        {
            "pitch": 60,
            "start_beat": 375.0,
            "duration_beat": 0.9979166666666401,
            "velocity": 43,
            "track": 1
        },
        {
            "pitch": 60,
            "start_beat": 376.0,
            "duration_beat": 4.74791666666664,
            "velocity": 41,
            "track": 1
        },
        {
            "pitch": 65,
            "start_beat": 376.0,
            "duration_beat": 4.74791666666664,
            "velocity": 41,
            "track": 1
        },
        {
            "pitch": 53,
            "start_beat": 381.0,
            "duration_beat": 0.9979166666666401,
            "velocity": 33,
            "track": 1
        },
        {
            "pitch": 60,
            "start_beat": 381.0,
            "duration_beat": 0.9979166666666401,
            "velocity": 33,
            "track": 1
        },
        {
            "pitch": 60,
            "start_beat": 382.0,
            "duration_beat": 1.9979166666666401,
            "velocity": 33,
            "track": 1
        },
        {
            "pitch": 65,
            "start_beat": 382.0,
            "duration_beat": 1.9979166666666401,
            "velocity": 33,
            "track": 1
        },
        {
            "pitch": 53,
            "start_beat": 384.0,
            "duration_beat": 0.9979166666666401,
            "velocity": 33,
            "track": 1
        },
        {
            "pitch": 60,
            "start_beat": 384.0,
            "duration_beat": 0.9979166666666401,
            "velocity": 33,
            "track": 1
        },
        {
            "pitch": 60,
            "start_beat": 385.0,
            "duration_beat": 0.9979166666666401,
            "velocity": 33,
            "track": 1
        },
        {
            "pitch": 65,
            "start_beat": 385.0,
            "duration_beat": 0.9979166666666401,
            "velocity": 33,
            "track": 1
        },
        {
            "pitch": 53,
            "start_beat": 386.0,
            "duration_beat": 0.9479166666666856,
            "velocity": 33,
            "track": 1
        },
        {
            "pitch": 60,
            "start_beat": 386.0,
            "duration_beat": 0.9479166666666856,
            "velocity": 33,
            "track": 1
        },
        {
            "pitch": 65,
            "start_beat": 387.0,
            "duration_beat": 3.99791666666664,
            "velocity": 33,
            "track": 0
        },
        {
            "pitch": 60,
            "start_beat": 387.0,
            "duration_beat": 3.99791666666664,
            "velocity": 33,
            "track": 0
        },
        {
            "pitch": 34,
            "start_beat": 388.0,
            "duration_beat": 0.9479166666666856,
            "velocity": 33,
            "track": 1
        },
        {
            "pitch": 46,
            "start_beat": 389.0,
            "duration_beat": 0.9979166666666401,
            "velocity": 33,
            "track": 1
        },
        {
            "pitch": 56,
            "start_beat": 390.0,
            "duration_beat": 0.9979166666666401,
            "velocity": 33,
            "track": 1
        },
        {
            "pitch": 67,
            "start_beat": 391.0,
            "duration_beat": 1.9979166666666401,
            "velocity": 33,
            "track": 0
        },
        {
            "pitch": 62,
            "start_beat": 391.0,
            "duration_beat": 2.99791666666664,
            "velocity": 33,
            "track": 0
        },
        {
            "pitch": 53,
            "start_beat": 391.0,
            "duration_beat": 0.9979166666666401,
            "velocity": 33,
            "track": 1
        },
        {
            "pitch": 60,
            "start_beat": 392.0,
            "duration_beat": 0.9979166666666401,
            "velocity": 33,
            "track": 1
        },
        {
            "pitch": 67,
            "start_beat": 393.0,
            "duration_beat": 0.9979166666666401,
            "velocity": 33,
            "track": 0
        },
        {
            "pitch": 58,
            "start_beat": 393.0,
            "duration_beat": 0.9479166666666856,
            "velocity": 33,
            "track": 1
        },
        {
            "pitch": 63,
            "start_beat": 394.0,
            "duration_beat": 3.9479166666666856,
            "velocity": 33,
            "track": 0
        },
        {
            "pitch": 39,
            "start_beat": 394.0,
            "duration_beat": 0.9979166666666401,
            "velocity": 33,
            "track": 1
        },
        {
            "pitch": 46,
            "start_beat": 395.0,
            "duration_beat": 0.9979166666666401,
            "velocity": 33,
            "track": 1
        },
        {
            "pitch": 51,
            "start_beat": 396.0,
            "duration_beat": 0.9979166666666401,
            "velocity": 33,
            "track": 1
        },
        {
            "pitch": 55,
            "start_beat": 397.0,
            "duration_beat": 0.9979166666666401,
            "velocity": 33,
            "track": 1
        },
        {
            "pitch": 75,
            "start_beat": 398.0,
            "duration_beat": 1.4979166666666401,
            "velocity": 33,
            "track": 0
        },
        {
            "pitch": 58,
            "start_beat": 398.0,
            "duration_beat": 0.9979166666666401,
            "velocity": 33,
            "track": 1
        },
        {
            "pitch": 63,
            "start_beat": 399.0,
            "duration_beat": 0.9479166666666856,
            "velocity": 33,
            "track": 1
        },
        {
            "pitch": 74,
            "start_beat": 399.5,
            "duration_beat": 0.49791666666664014,
            "velocity": 33,
            "track": 0
        },
        {
            "pitch": 72,
            "start_beat": 400.0,
            "duration_beat": 2.99791666666664,
            "velocity": 33,
            "track": 0
        },
        {
            "pitch": 67,
            "start_beat": 400.0,
            "duration_beat": 2.99791666666664,
            "velocity": 33,
            "track": 0
        },
        {
            "pitch": 60,
            "start_beat": 400.0,
            "duration_beat": 0.9979166666666401,
            "velocity": 33,
            "track": 1
        },
        {
            "pitch": 63,
            "start_beat": 401.0,
            "duration_beat": 0.9979166666666401,
            "velocity": 33,
            "track": 1
        },
        {
            "pitch": 53,
            "start_beat": 402.0,
            "duration_beat": 0.9979166666666401,
            "velocity": 33,
            "track": 1
        },
        {
            "pitch": 74,
            "start_beat": 403.0,
            "duration_beat": 1.9979166666666401,
            "velocity": 33,
            "track": 0
        },
        {
            "pitch": 69,
            "start_beat": 403.0,
            "duration_beat": 2.99791666666664,
            "velocity": 33,
            "track": 0
        },
        {
            "pitch": 63,
            "start_beat": 403.0,
            "duration_beat": 0.9979166666666401,
            "velocity": 33,
            "track": 1
        },
        {
            "pitch": 67,
            "start_beat": 404.0,
            "duration_beat": 0.9979166666666401,
            "velocity": 33,
            "track": 1
        },
        {
            "pitch": 74,
            "start_beat": 405.0,
            "duration_beat": 0.9979166666666401,
            "velocity": 33,
            "track": 0
        },
        {
            "pitch": 65,
            "start_beat": 405.0,
            "duration_beat": 0.9479166666666856,
            "velocity": 33,
            "track": 1
        },
        {
            "pitch": 70,
            "start_beat": 406.0,
            "duration_beat": 2.847916666666663,
            "velocity": 33,
            "track": 0
        },
        {
            "pitch": 46,
            "start_beat": 406.0,
            "duration_beat": 0.9979166666666401,
            "velocity": 33,
            "track": 1
        },
        {
            "pitch": 53,
            "start_beat": 407.0,
            "duration_beat": 0.9979166666666401,
            "velocity": 33,
            "track": 1
        },
        {
            "pitch": 58,
            "start_beat": 408.0,
            "duration_beat": 0.9979166666666401,
            "velocity": 33,
            "track": 1
        },
        {
            "pitch": 82,
            "start_beat": 409.0,
            "duration_beat": 1.9979166666666401,
            "velocity": 33,
            "track": 0
        },
        {
            "pitch": 62,
            "start_beat": 409.0,
            "duration_beat": 0.9979166666666401,
            "velocity": 33,
            "track": 1
        },
        {
            "pitch": 65,
            "start_beat": 410.0,
            "duration_beat": 0.9979166666666401,
            "velocity": 48,
            "track": 1
        },
        {
            "pitch": 82,
            "start_beat": 411.0,
            "duration_beat": 0.9979166666666401,
            "velocity": 64,
            "track": 0
        },
        {
            "pitch": 70,
            "start_beat": 411.0,
            "duration_beat": 0.9479166666666856,
            "velocity": 64,
            "track": 1
        },
        {
            "pitch": 82,
            "start_beat": 412.0,
            "duration_beat": 1.9979166666666401,
            "velocity": 80,
            "track": 0
        },
        {
            "pitch": 60,
            "start_beat": 412.0,
            "duration_beat": 0.9979166666666401,
            "velocity": 80,
            "track": 1
        },
        {
            "pitch": 63,
            "start_beat": 413.0,
            "duration_beat": 0.9979166666666401,
            "velocity": 80,
            "track": 1
        },
        {
            "pitch": 80,
            "start_beat": 414.0,
            "duration_beat": 0.9979166666666401,
            "velocity": 33,
            "track": 0
        },
        {
            "pitch": 53,
            "start_beat": 414.0,
            "duration_beat": 0.9979166666666401,
            "velocity": 33,
            "track": 1
        },
        {
            "pitch": 80,
            "start_beat": 415.0,
            "duration_beat": 0.9979166666666401,
            "velocity": 33,
            "track": 0
        },
        {
            "pitch": 58,
            "start_beat": 415.0,
            "duration_beat": 0.9979166666666401,
            "velocity": 33,
            "track": 1
        },
        {
            "pitch": 79,
            "start_beat": 416.0,
            "duration_beat": 0.9979166666666401,
            "velocity": 33,
            "track": 0
        },
        {
            "pitch": 62,
            "start_beat": 416.0,
            "duration_beat": 0.9979166666666401,
            "velocity": 33,
            "track": 1
        },
        {
            "pitch": 78,
            "start_beat": 417.0,
            "duration_beat": 0.9979166666666401,
            "velocity": 33,
            "track": 0
        },
        {
            "pitch": 68,
            "start_beat": 417.0,
            "duration_beat": 0.9479166666666856,
            "velocity": 33,
            "track": 1
        },
        {
            "pitch": 78,
            "start_beat": 418.0,
            "duration_beat": 1.9979166666666401,
            "velocity": 33,
            "track": 0
        },
        {
            "pitch": 58,
            "start_beat": 418.0,
            "duration_beat": 0.9979166666666401,
            "velocity": 33,
            "track": 1
        },
        {
            "pitch": 62,
            "start_beat": 419.0,
            "duration_beat": 0.9979166666666401,
            "velocity": 33,
            "track": 1
        },
        {
            "pitch": 79,
            "start_beat": 420.0,
            "duration_beat": 1.8979166666666742,
            "velocity": 33,
            "track": 0
        },
        {
            "pitch": 51,
            "start_beat": 420.0,
            "duration_beat": 0.9979166666666401,
            "velocity": 33,
            "track": 1
        },
        {
            "pitch": 56,
            "start_beat": 421.0,
            "duration_beat": 0.9979166666666401,
            "velocity": 33,
            "track": 1
        },
        {
            "pitch": 80,
            "start_beat": 422.0,
            "duration_beat": 1.4979166666666401,
            "velocity": 33,
            "track": 0
        },
        {
            "pitch": 60,
            "start_beat": 422.0,
            "duration_beat": 0.9979166666666401,
            "velocity": 33,
            "track": 1
        },
        {
            "pitch": 67,
            "start_beat": 423.0,
            "duration_beat": 0.9479166666666856,
            "velocity": 33,
            "track": 1
        },
        {
            "pitch": 75,
            "start_beat": 423.5,
            "duration_beat": 0.49791666666664014,
            "velocity": 33,
            "track": 0
        },
        {
            "pitch": 79,
            "start_beat": 424.0,
            "duration_beat": 1.9979166666666401,
            "velocity": 33,
            "track": 0
        },
        {
            "pitch": 56,
            "start_beat": 424.0,
            "duration_beat": 0.9979166666666401,
            "velocity": 33,
            "track": 1
        },
        {
            "pitch": 60,
            "start_beat": 425.0,
            "duration_beat": 0.9979166666666401,
            "velocity": 33,
            "track": 1
        },
        {
            "pitch": 77,
            "start_beat": 426.0,
            "duration_beat": 1.8979166666666742,
            "velocity": 33,
            "track": 0
        },
        {
            "pitch": 50,
            "start_beat": 426.0,
            "duration_beat": 0.9979166666666401,
            "velocity": 33,
            "track": 1
        },
        {
            "pitch": 55,
            "start_beat": 427.0,
            "duration_beat": 0.9979166666666401,
            "velocity": 33,
            "track": 1
        },
        {
            "pitch": 79,
            "start_beat": 428.0,
            "duration_beat": 1.4979166666666401,
            "velocity": 33,
            "track": 0
        },
        {
            "pitch": 59,
            "start_beat": 428.0,
            "duration_beat": 0.9979166666666401,
            "velocity": 33,
            "track": 1
        },
        {
            "pitch": 65,
            "start_beat": 429.0,
            "duration_beat": 0.9479166666666856,
            "velocity": 33,
            "track": 1
        },
        {
            "pitch": 74,
            "start_beat": 429.5,
            "duration_beat": 0.49791666666664014,
            "velocity": 33,
            "track": 0
        },
        {
            "pitch": 77,
            "start_beat": 430.0,
            "duration_beat": 0.9979166666666401,
            "velocity": 33,
            "track": 0
        },
        {
            "pitch": 55,
            "start_beat": 430.0,
            "duration_beat": 0.9979166666666401,
            "velocity": 33,
            "track": 1
        },
        {
            "pitch": 75,
            "start_beat": 431.0,
            "duration_beat": 0.9979166666666401,
            "velocity": 33,
            "track": 0
        },
        {
            "pitch": 60,
            "start_beat": 431.0,
            "duration_beat": 0.9979166666666401,
            "velocity": 33,
            "track": 1
        },
        {
            "pitch": 74,
            "start_beat": 432.0,
            "duration_beat": 0.9979166666666401,
            "velocity": 33,
            "track": 0
        },
        {
            "pitch": 48,
            "start_beat": 432.0,
            "duration_beat": 0.9979166666666401,
            "velocity": 33,
            "track": 1
        },
        {
            "pitch": 72,
            "start_beat": 433.0,
            "duration_beat": 0.33125000000001137,
            "velocity": 33,
            "track": 0
        },
        {
            "pitch": 53,
            "start_beat": 433.0,
            "duration_beat": 0.9979166666666401,
            "velocity": 33,
            "track": 1
        },
        {
            "pitch": 74,
            "start_beat": 433.3333333333333,
            "duration_beat": 0.33125000000001137,
            "velocity": 33,
            "track": 0
        },
        {
            "pitch": 72,
            "start_beat": 433.6666666666667,
            "duration_beat": 0.3312499999999545,
            "velocity": 33,
            "track": 0
        },
        {
            "pitch": 71,
            "start_beat": 434.0,
            "duration_beat": 0.49791666666664014,
            "velocity": 33,
            "track": 0
        },
        {
            "pitch": 57,
            "start_beat": 434.0,
            "duration_beat": 0.9979166666666401,
            "velocity": 33,
            "track": 1
        },
        {
            "pitch": 72,
            "start_beat": 434.5,
            "duration_beat": 0.49791666666664014,
            "velocity": 33,
            "track": 0
        },
        {
            "pitch": 74,
            "start_beat": 435.0,
            "duration_beat": 0.49791666666664014,
            "velocity": 33,
            "track": 0
        },
        {
            "pitch": 63,
            "start_beat": 435.0,
            "duration_beat": 0.9479166666666856,
            "velocity": 33,
            "track": 1
        },
        {
            "pitch": 75,
            "start_beat": 435.5,
            "duration_beat": 0.49791666666664014,
            "velocity": 33,
            "track": 0
        },
        {
            "pitch": 65,
            "start_beat": 436.0,
            "duration_beat": 2.99791666666664,
            "velocity": 33,
            "track": 0
        },
        {
            "pitch": 60,
            "start_beat": 436.0,
            "duration_beat": 2.99791666666664,
            "velocity": 33,
            "track": 0
        },
        {
            "pitch": 53,
            "start_beat": 436.0,
            "duration_beat": 0.9979166666666401,
            "velocity": 33,
            "track": 1
        },
        {
            "pitch": 56,
            "start_beat": 437.0,
            "duration_beat": 0.9979166666666401,
            "velocity": 33,
            "track": 1
        },
        {
            "pitch": 46,
            "start_beat": 438.0,
            "duration_beat": 0.9979166666666401,
            "velocity": 33,
            "track": 1
        },
        {
            "pitch": 67,
            "start_beat": 439.0,
            "duration_beat": 1.9979166666666401,
            "velocity": 33,
            "track": 0
        },
        {
            "pitch": 62,
            "start_beat": 439.0,
            "duration_beat": 2.99791666666664,
            "velocity": 33,
            "track": 0
        },
        {
            "pitch": 56,
            "start_beat": 439.0,
            "duration_beat": 0.9979166666666401,
            "velocity": 33,
            "track": 1
        },
        {
            "pitch": 60,
            "start_beat": 440.0,
            "duration_beat": 0.9979166666666401,
            "velocity": 33,
            "track": 1
        },
        {
            "pitch": 67,
            "start_beat": 441.0,
            "duration_beat": 0.9979166666666401,
            "velocity": 33,
            "track": 0
        },
        {
            "pitch": 58,
            "start_beat": 441.0,
            "duration_beat": 0.9479166666666856,
            "velocity": 33,
            "track": 1
        },
        {
            "pitch": 63,
            "start_beat": 442.0,
            "duration_beat": 3.7979166666666515,
            "velocity": 33,
            "track": 0
        },
        {
            "pitch": 39,
            "start_beat": 442.0,
            "duration_beat": 0.9979166666666401,
            "velocity": 33,
            "track": 1
        },
        {
            "pitch": 46,
            "start_beat": 443.0,
            "duration_beat": 0.9979166666666401,
            "velocity": 33,
            "track": 1
        },
        {
            "pitch": 51,
            "start_beat": 444.0,
            "duration_beat": 0.9979166666666401,
            "velocity": 33,
            "track": 1
        },
        {
            "pitch": 55,
            "start_beat": 445.0,
            "duration_beat": 0.9979166666666401,
            "velocity": 33,
            "track": 1
        },
        {
            "pitch": 75,
            "start_beat": 446.0,
            "duration_beat": 1.4979166666666401,
            "velocity": 33,
            "track": 0
        },
        {
            "pitch": 58,
            "start_beat": 446.0,
            "duration_beat": 0.9979166666666401,
            "velocity": 33,
            "track": 1
        },
        {
            "pitch": 63,
            "start_beat": 447.0,
            "duration_beat": 0.9479166666666856,
            "velocity": 33,
            "track": 1
        },
        {
            "pitch": 74,
            "start_beat": 447.5,
            "duration_beat": 0.49791666666664014,
            "velocity": 33,
            "track": 0
        },
        {
            "pitch": 72,
            "start_beat": 448.0,
            "duration_beat": 2.99791666666664,
            "velocity": 33,
            "track": 0
        },
        {
            "pitch": 67,
            "start_beat": 448.0,
            "duration_beat": 2.99791666666664,
            "velocity": 33,
            "track": 0
        },
        {
            "pitch": 60,
            "start_beat": 448.0,
            "duration_beat": 0.9979166666666401,
            "velocity": 33,
            "track": 1
        },
        {
            "pitch": 63,
            "start_beat": 449.0,
            "duration_beat": 0.9979166666666401,
            "velocity": 33,
            "track": 1
        },
        {
            "pitch": 53,
            "start_beat": 450.0,
            "duration_beat": 0.9979166666666401,
            "velocity": 33,
            "track": 1
        },
        {
            "pitch": 74,
            "start_beat": 451.0,
            "duration_beat": 1.9979166666666401,
            "velocity": 33,
            "track": 0
        },
        {
            "pitch": 69,
            "start_beat": 451.0,
            "duration_beat": 2.99791666666664,
            "velocity": 33,
            "track": 0
        },
        {
            "pitch": 63,
            "start_beat": 451.0,
            "duration_beat": 0.9979166666666401,
            "velocity": 33,
            "track": 1
        },
        {
            "pitch": 67,
            "start_beat": 452.0,
            "duration_beat": 0.9979166666666401,
            "velocity": 33,
            "track": 1
        },
        {
            "pitch": 74,
            "start_beat": 453.0,
            "duration_beat": 0.9979166666666401,
            "velocity": 33,
            "track": 0
        },
        {
            "pitch": 65,
            "start_beat": 453.0,
            "duration_beat": 0.9479166666666856,
            "velocity": 33,
            "track": 1
        },
        {
            "pitch": 70,
            "start_beat": 454.0,
            "duration_beat": 2.847916666666663,
            "velocity": 33,
            "track": 0
        },
        {
            "pitch": 46,
            "start_beat": 454.0,
            "duration_beat": 0.9979166666666401,
            "velocity": 33,
            "track": 1
        },
        {
            "pitch": 53,
            "start_beat": 455.0,
            "duration_beat": 0.9979166666666401,
            "velocity": 33,
            "track": 1
        },
        {
            "pitch": 58,
            "start_beat": 456.0,
            "duration_beat": 0.9979166666666401,
            "velocity": 33,
            "track": 1
        },
        {
            "pitch": 82,
            "start_beat": 457.0,
            "duration_beat": 1.9979166666666401,
            "velocity": 33,
            "track": 0
        },
        {
            "pitch": 62,
            "start_beat": 457.0,
            "duration_beat": 0.9979166666666401,
            "velocity": 33,
            "track": 1
        },
        {
            "pitch": 65,
            "start_beat": 458.0,
            "duration_beat": 0.9979166666666401,
            "velocity": 38,
            "track": 1
        },
        {
            "pitch": 82,
            "start_beat": 459.0,
            "duration_beat": 0.9979166666666401,
            "velocity": 43,
            "track": 0
        },
        {
            "pitch": 70,
            "start_beat": 459.0,
            "duration_beat": 0.9479166666666856,
            "velocity": 43,
            "track": 1
        },
        {
            "pitch": 82,
            "start_beat": 460.0,
            "duration_beat": 2.99791666666664,
            "velocity": 49,
            "track": 0
        },
        {
            "pitch": 36,
            "start_beat": 460.0,
            "duration_beat": 0.9479166666666856,
            "velocity": 49,
            "track": 1
        },
        {
            "pitch": 64,
            "start_beat": 461.0,
            "duration_beat": 0.9979166666666401,
            "velocity": 46,
            "track": 1
        },
        {
            "pitch": 58,
            "start_beat": 462.0,
            "duration_beat": 0.9979166666666401,
            "velocity": 43,
            "track": 1
        },
        {
            "pitch": 72,
            "start_beat": 463.0,
            "duration_beat": 1.8979166666666742,
            "velocity": 40,
            "track": 0
        },
        {
            "pitch": 55,
            "start_beat": 463.0,
            "duration_beat": 2.99791666666664,
            "velocity": 40,
            "track": 1
        },
        {
            "pitch": 64,
            "start_beat": 464.0,
            "duration_beat": 0.9979166666666401,
            "velocity": 37,
            "track": 1
        },
        {
            "pitch": 74,
            "start_beat": 465.0,
            "duration_beat": 0.9979166666666401,
            "velocity": 33,
            "track": 0
        },
        {
            "pitch": 58,
            "start_beat": 465.0,
            "duration_beat": 0.9979166666666401,
            "velocity": 33,
            "track": 1
        },
        {
            "pitch": 75,
            "start_beat": 466.0,
            "duration_beat": 0.33125000000001137,
            "velocity": 33,
            "track": 0
        },
        {
            "pitch": 53,
            "start_beat": 466.0,
            "duration_beat": 2.99791666666664,
            "velocity": 33,
            "track": 1
        },
        {
            "pitch": 77,
            "start_beat": 466.3333333333333,
            "duration_beat": 0.33125000000001137,
            "velocity": 33,
            "track": 0
        },
        {
            "pitch": 75,
            "start_beat": 466.6666666666667,
            "duration_beat": 0.3312499999999545,
            "velocity": 33,
            "track": 0
        },
        {
            "pitch": 74,
            "start_beat": 467.0,
            "duration_beat": 0.9979166666666401,
            "velocity": 33,
            "track": 0
        },
        {
            "pitch": 63,
            "start_beat": 467.0,
            "duration_beat": 0.9979166666666401,
            "velocity": 33,
            "track": 1
        },
        {
            "pitch": 75,
            "start_beat": 468.0,
            "duration_beat": 0.9979166666666401,
            "velocity": 33,
            "track": 0
        },
        {
            "pitch": 57,
            "start_beat": 468.0,
            "duration_beat": 0.9979166666666401,
            "velocity": 33,
            "track": 1
        },
        {
            "pitch": 79,
            "start_beat": 469.0,
            "duration_beat": 0.9479166666666856,
            "velocity": 33,
            "track": 0
        },
        {
            "pitch": 46,
            "start_beat": 469.0,
            "duration_beat": 0.9479166666666856,
            "velocity": 33,
            "track": 1
        },
        {
            "pitch": 79,
            "start_beat": 470.0,
            "duration_beat": 1.3312500000000114,
            "velocity": 33,
            "track": 0
        },
        {
            "pitch": 62,
            "start_beat": 470.0,
            "duration_beat": 0.9979166666666401,
            "velocity": 33,
            "track": 1
        },
        {
            "pitch": 56,
            "start_beat": 471.0,
            "duration_beat": 0.9479166666666856,
            "velocity": 33,
            "track": 1
        },
        {
            "pitch": 77,
            "start_beat": 471.3333333333333,
            "duration_beat": 0.33125000000001137,
            "velocity": 33,
            "track": 0
        },
        {
            "pitch": 75,
            "start_beat": 471.6666666666667,
            "duration_beat": 0.3312499999999545,
            "velocity": 33,
            "track": 0
        },
        {
            "pitch": 75,
            "start_beat": 472.0,
            "duration_beat": 2.847916666666663,
            "velocity": 33,
            "track": 0
        },
        {
            "pitch": 39,
            "start_beat": 472.0,
            "duration_beat": 0.49791666666664014,
            "velocity": 33,
            "track": 1
        },
        {
            "pitch": 46,
            "start_beat": 472.5,
            "duration_beat": 0.49791666666664014,
            "velocity": 33,
            "track": 1
        },
        {
            "pitch": 55,
            "start_beat": 473.0,
            "duration_beat": 0.49791666666664014,
            "velocity": 33,
            "track": 1
        },
        {
            "pitch": 51,
            "start_beat": 473.5,
            "duration_beat": 0.49791666666664014,
            "velocity": 33,
            "track": 1
        },
        {
            "pitch": 58,
            "start_beat": 474.0,
            "duration_beat": 0.49791666666664014,
            "velocity": 33,
            "track": 1
        },
        {
            "pitch": 55,
            "start_beat": 474.5,
            "duration_beat": 0.49791666666664014,
            "velocity": 33,
            "track": 1
        },
        {
            "pitch": 63,
            "start_beat": 475.0,
            "duration_beat": 0.9479166666666856,
            "velocity": 33,
            "track": 1
        },
        {
            "pitch": 67,
            "start_beat": 476.0,
            "duration_beat": 0.49791666666664014,
            "velocity": 33,
            "track": 0
        },
        {
            "pitch": 68,
            "start_beat": 476.5,
            "duration_beat": 0.49791666666664014,
            "velocity": 33,
            "track": 0
        },
        {
            "pitch": 70,
            "start_beat": 477.0,
            "duration_beat": 0.33125000000001137,
            "velocity": 33,
            "track": 0
        },
        {
            "pitch": 74,
            "start_beat": 477.3333333333333,
            "duration_beat": 0.33125000000001137,
            "velocity": 33,
            "track": 0
        },
        {
            "pitch": 72,
            "start_beat": 477.6666666666667,
            "duration_beat": 0.3312499999999545,
            "velocity": 33,
            "track": 0
        },
        {
            "pitch": 70,
            "start_beat": 478.0,
            "duration_beat": 3.7979166666666515,
            "velocity": 33,
            "track": 0
        },
        {
            "pitch": 39,
            "start_beat": 478.0,
            "duration_beat": 0.49791666666664014,
            "velocity": 33,
            "track": 1
        },
        {
            "pitch": 46,
            "start_beat": 478.5,
            "duration_beat": 0.49791666666664014,
            "velocity": 33,
            "track": 1
        },
        {
            "pitch": 55,
            "start_beat": 479.0,
            "duration_beat": 0.49791666666664014,
            "velocity": 33,
            "track": 1
        },
        {
            "pitch": 51,
            "start_beat": 479.5,
            "duration_beat": 0.49791666666664014,
            "velocity": 33,
            "track": 1
        },
        {
            "pitch": 58,
            "start_beat": 480.0,
            "duration_beat": 0.49791666666664014,
            "velocity": 33,
            "track": 1
        },
        {
            "pitch": 55,
            "start_beat": 480.5,
            "duration_beat": 0.49791666666664014,
            "velocity": 33,
            "track": 1
        },
        {
            "pitch": 63,
            "start_beat": 481.0,
            "duration_beat": 0.9479166666666856,
            "velocity": 33,
            "track": 1
        },
        {
            "pitch": 67,
            "start_beat": 482.0,
            "duration_beat": 0.49791666666664014,
            "velocity": 33,
            "track": 0
        },
        {
            "pitch": 68,
            "start_beat": 482.5,
            "duration_beat": 0.49791666666664014,
            "velocity": 33,
            "track": 0
        },
        {
            "pitch": 70,
            "start_beat": 483.0,
            "duration_beat": 0.33125000000001137,
            "velocity": 33,
            "track": 0
        },
        {
            "pitch": 74,
            "start_beat": 483.3333333333333,
            "duration_beat": 0.33125000000001137,
            "velocity": 33,
            "track": 0
        },
        {
            "pitch": 72,
            "start_beat": 483.6666666666667,
            "duration_beat": 0.3312499999999545,
            "velocity": 33,
            "track": 0
        },
        {
            "pitch": 70,
            "start_beat": 484.0,
            "duration_beat": 3.7979166666666515,
            "velocity": 33,
            "track": 0
        },
        {
            "pitch": 39,
            "start_beat": 484.0,
            "duration_beat": 0.49791666666664014,
            "velocity": 33,
            "track": 1
        },
        {
            "pitch": 46,
            "start_beat": 484.5,
            "duration_beat": 0.49791666666664014,
            "velocity": 33,
            "track": 1
        },
        {
            "pitch": 56,
            "start_beat": 485.0,
            "duration_beat": 0.49791666666664014,
            "velocity": 33,
            "track": 1
        },
        {
            "pitch": 53,
            "start_beat": 485.5,
            "duration_beat": 0.49791666666664014,
            "velocity": 33,
            "track": 1
        },
        {
            "pitch": 58,
            "start_beat": 486.0,
            "duration_beat": 0.49791666666664014,
            "velocity": 33,
            "track": 1
        },
        {
            "pitch": 56,
            "start_beat": 486.5,
            "duration_beat": 0.49791666666664014,
            "velocity": 33,
            "track": 1
        },
        {
            "pitch": 62,
            "start_beat": 487.0,
            "duration_beat": 0.9479166666666856,
            "velocity": 33,
            "track": 1
        },
        {
            "pitch": 65,
            "start_beat": 488.0,
            "duration_beat": 0.49791666666664014,
            "velocity": 33,
            "track": 0
        },
        {
            "pitch": 68,
            "start_beat": 488.5,
            "duration_beat": 0.49791666666664014,
            "velocity": 33,
            "track": 0
        },
        {
            "pitch": 70,
            "start_beat": 489.0,
            "duration_beat": 0.33125000000001137,
            "velocity": 33,
            "track": 0
        },
        {
            "pitch": 74,
            "start_beat": 489.3333333333333,
            "duration_beat": 0.33125000000001137,
            "velocity": 33,
            "track": 0
        },
        {
            "pitch": 72,
            "start_beat": 489.6666666666667,
            "duration_beat": 0.3312499999999545,
            "velocity": 33,
            "track": 0
        },
        {
            "pitch": 70,
            "start_beat": 490.0,
            "duration_beat": 1.2645833333333485,
            "velocity": 33,
            "track": 0
        },
        {
            "pitch": 39,
            "start_beat": 490.0,
            "duration_beat": 0.49791666666664014,
            "velocity": 33,
            "track": 1
        },
        {
            "pitch": 46,
            "start_beat": 490.5,
            "duration_beat": 0.49791666666664014,
            "velocity": 33,
            "track": 1
        },
        {
            "pitch": 55,
            "start_beat": 491.0,
            "duration_beat": 0.9479166666666856,
            "velocity": 33,
            "track": 1
        },
        {
            "pitch": 61,
            "start_beat": 491.3333333333333,
            "duration_beat": 0.6645833333333258,
            "velocity": 33,
            "track": 0
        },
        {
            "pitch": 63,
            "start_beat": 491.6666666666667,
            "duration_beat": 0.3312499999999545,
            "velocity": 33,
            "track": 0
        },
        {
            "pitch": 67,
            "start_beat": 492.0,
            "duration_beat": 0.33125000000001137,
            "velocity": 33,
            "track": 0
        },
        {
            "pitch": 72,
            "start_beat": 492.3333333333333,
            "duration_beat": 0.33125000000001137,
            "velocity": 33,
            "track": 0
        },
        {
            "pitch": 70,
            "start_beat": 492.6666666666667,
            "duration_beat": 0.3312499999999545,
            "velocity": 33,
            "track": 0
        },
        {
            "pitch": 68,
            "start_beat": 493.0,
            "duration_beat": 1.4979166666666401,
            "velocity": 33,
            "track": 0
        },
        {
            "pitch": 39,
            "start_beat": 493.0,
            "duration_beat": 0.49791666666664014,
            "velocity": 33,
            "track": 1
        },
        {
            "pitch": 47,
            "start_beat": 493.5,
            "duration_beat": 0.49791666666664014,
            "velocity": 33,
            "track": 1
        },
        {
            "pitch": 56,
            "start_beat": 494.0,
            "duration_beat": 0.9479166666666856,
            "velocity": 33,
            "track": 1
        },
        {
            "pitch": 59,
            "start_beat": 494.5,
            "duration_beat": 0.9979166666666401,
            "velocity": 33,
            "track": 0
        },
        {
            "pitch": 63,
            "start_beat": 495.0,
            "duration_beat": 0.49791666666664014,
            "velocity": 33,
            "track": 0
        },
        {
            "pitch": 65,
            "start_beat": 495.5,
            "duration_beat": 0.49791666666664014,
            "velocity": 33,
            "track": 0
        },
        {
            "pitch": 67,
            "start_beat": 496.0,
            "duration_beat": 1.8979166666666742,
            "velocity": 33,
            "track": 0
        },
        {
            "pitch": 39,
            "start_beat": 496.0,
            "duration_beat": 0.49791666666664014,
            "velocity": 33,
            "track": 1
        },
        {
            "pitch": 46,
            "start_beat": 496.5,
            "duration_beat": 0.49791666666664014,
            "velocity": 33,
            "track": 1
        },
        {
            "pitch": 55,
            "start_beat": 497.0,
            "duration_beat": 0.49791666666664014,
            "velocity": 33,
            "track": 1
        },
        {
            "pitch": 51,
            "start_beat": 497.5,
            "duration_beat": 0.49791666666664014,
            "velocity": 33,
            "track": 1
        },
        {
            "pitch": 58,
            "start_beat": 498.0,
            "duration_beat": 0.9979166666666401,
            "velocity": 33,
            "track": 1
        },
        {
            "pitch": 55,
            "start_beat": 498.5,
            "duration_beat": 0.49791666666664014,
            "velocity": 33,
            "track": 1
        },
        {
            "pitch": 63,
            "start_beat": 499.0,
            "duration_beat": 0.9479166666666856,
            "velocity": 33,
            "track": 1
        },
        {
            "pitch": 67,
            "start_beat": 500.0,
            "duration_beat": 0.49791666666664014,
            "velocity": 33,
            "track": 0
        },
        {
            "pitch": 68,
            "start_beat": 500.5,
            "duration_beat": 0.49791666666664014,
            "velocity": 33,
            "track": 0
        },
        {
            "pitch": 70,
            "start_beat": 501.0,
            "duration_beat": 0.33125000000001137,
            "velocity": 33,
            "track": 0
        },
        {
            "pitch": 74,
            "start_beat": 501.3333333333333,
            "duration_beat": 0.33125000000001137,
            "velocity": 33,
            "track": 0
        },
        {
            "pitch": 72,
            "start_beat": 501.6666666666667,
            "duration_beat": 0.3312499999999545,
            "velocity": 33,
            "track": 0
        },
        {
            "pitch": 70,
            "start_beat": 502.0,
            "duration_beat": 0.9479166666666856,
            "velocity": 33,
            "track": 0
        },
        {
            "pitch": 39,
            "start_beat": 502.0,
            "duration_beat": 0.49791666666664014,
            "velocity": 33,
            "track": 1
        },
        {
            "pitch": 46,
            "start_beat": 502.5,
            "duration_beat": 0.49791666666664014,
            "velocity": 33,
            "track": 1
        },
        {
            "pitch": 82,
            "start_beat": 503.0,
            "duration_beat": 2.847916666666663,
            "velocity": 33,
            "track": 0
        },
        {
            "pitch": 55,
            "start_beat": 503.0,
            "duration_beat": 0.49791666666664014,
            "velocity": 33,
            "track": 1
        },
        {
            "pitch": 51,
            "start_beat": 503.5,
            "duration_beat": 0.49791666666664014,
            "velocity": 33,
            "track": 1
        },
        {
            "pitch": 58,
            "start_beat": 504.0,
            "duration_beat": 0.49791666666664014,
            "velocity": 33,
            "track": 1
        },
        {
            "pitch": 55,
            "start_beat": 504.5,
            "duration_beat": 0.49791666666664014,
            "velocity": 33,
            "track": 1
        },
        {
            "pitch": 63,
            "start_beat": 505.0,
            "duration_beat": 0.9479166666666856,
            "velocity": 33,
            "track": 1
        },
        {
            "pitch": 67,
            "start_beat": 506.3333333333333,
            "duration_beat": 0.33125000000001137,
            "velocity": 33,
            "track": 0
        },
        {
            "pitch": 68,
            "start_beat": 506.6666666666667,
            "duration_beat": 0.3312499999999545,
            "velocity": 33,
            "track": 0
        },
        {
            "pitch": 70,
            "start_beat": 507.0,
            "duration_beat": 0.33125000000001137,
            "velocity": 33,
            "track": 0
        },
        {
            "pitch": 74,
            "start_beat": 507.3333333333333,
            "duration_beat": 0.33125000000001137,
            "velocity": 33,
            "track": 0
        },
        {
            "pitch": 72,
            "start_beat": 507.6666666666667,
            "duration_beat": 0.3312499999999545,
            "velocity": 33,
            "track": 0
        },
        {
            "pitch": 70,
            "start_beat": 508.0,
            "duration_beat": 0.9479166666666856,
            "velocity": 33,
            "track": 0
        },
        {
            "pitch": 39,
            "start_beat": 508.0,
            "duration_beat": 0.49791666666664014,
            "velocity": 33,
            "track": 1
        },
        {
            "pitch": 46,
            "start_beat": 508.5,
            "duration_beat": 0.49791666666664014,
            "velocity": 33,
            "track": 1
        },
        {
            "pitch": 82,
            "start_beat": 509.0,
            "duration_beat": 2.847916666666663,
            "velocity": 33,
            "track": 0
        },
        {
            "pitch": 56,
            "start_beat": 509.0,
            "duration_beat": 0.49791666666664014,
            "velocity": 33,
            "track": 1
        },
        {
            "pitch": 53,
            "start_beat": 509.5,
            "duration_beat": 0.49791666666664014,
            "velocity": 33,
            "track": 1
        },
        {
            "pitch": 58,
            "start_beat": 510.0,
            "duration_beat": 0.49791666666664014,
            "velocity": 33,
            "track": 1
        },
        {
            "pitch": 56,
            "start_beat": 510.5,
            "duration_beat": 0.49791666666664014,
            "velocity": 33,
            "track": 1
        },
        {
            "pitch": 62,
            "start_beat": 511.0,
            "duration_beat": 0.9479166666666856,
            "velocity": 33,
            "track": 1
        },
        {
            "pitch": 65,
            "start_beat": 512.3333333333334,
            "duration_beat": 0.3312499999999545,
            "velocity": 33,
            "track": 0
        },
        {
            "pitch": 68,
            "start_beat": 512.6666666666666,
            "duration_beat": 0.3312500000000682,
            "velocity": 33,
            "track": 0
        },
        {
            "pitch": 70,
            "start_beat": 513.0,
            "duration_beat": 0.3312499999999545,
            "velocity": 33,
            "track": 0
        },
        {
            "pitch": 74,
            "start_beat": 513.3333333333334,
            "duration_beat": 0.3312499999999545,
            "velocity": 33,
            "track": 0
        },
        {
            "pitch": 72,
            "start_beat": 513.6666666666666,
            "duration_beat": 0.3312500000000682,
            "velocity": 33,
            "track": 0
        },
        {
            "pitch": 70,
            "start_beat": 514.0,
            "duration_beat": 1.2645833333333485,
            "velocity": 33,
            "track": 0
        },
        {
            "pitch": 39,
            "start_beat": 514.0,
            "duration_beat": 0.497916666666697,
            "velocity": 33,
            "track": 1
        },
        {
            "pitch": 46,
            "start_beat": 514.5,
            "duration_beat": 0.497916666666697,
            "velocity": 33,
            "track": 1
        },
        {
            "pitch": 55,
            "start_beat": 515.0,
            "duration_beat": 0.9479166666666288,
            "velocity": 33,
            "track": 1
        },
        {
            "pitch": 61,
            "start_beat": 515.3333333333334,
            "duration_beat": 0.6645833333333258,
            "velocity": 33,
            "track": 0
        },
        {
            "pitch": 63,
            "start_beat": 515.6666666666666,
            "duration_beat": 0.3312500000000682,
            "velocity": 33,
            "track": 0
        },
        {
            "pitch": 67,
            "start_beat": 516.0,
            "duration_beat": 0.3312499999999545,
            "velocity": 33,
            "track": 0
        },
        {
            "pitch": 72,
            "start_beat": 516.3333333333334,
            "duration_beat": 0.3312499999999545,
            "velocity": 33,
            "track": 0
        },
        {
            "pitch": 70,
            "start_beat": 516.6666666666666,
            "duration_beat": 0.3312500000000682,
            "velocity": 33,
            "track": 0
        },
        {
            "pitch": 68,
            "start_beat": 517.0,
            "duration_beat": 1.497916666666697,
            "velocity": 33,
            "track": 0
        },
        {
            "pitch": 39,
            "start_beat": 517.0,
            "duration_beat": 0.497916666666697,
            "velocity": 33,
            "track": 1
        },
        {
            "pitch": 47,
            "start_beat": 517.5,
            "duration_beat": 0.497916666666697,
            "velocity": 33,
            "track": 1
        },
        {
            "pitch": 56,
            "start_beat": 518.0,
            "duration_beat": 0.9479166666666288,
            "velocity": 33,
            "track": 1
        },
        {
            "pitch": 59,
            "start_beat": 518.5,
            "duration_beat": 0.997916666666697,
            "velocity": 33,
            "track": 0
        },
        {
            "pitch": 63,
            "start_beat": 519.0,
            "duration_beat": 0.497916666666697,
            "velocity": 33,
            "track": 0
        },
        {
            "pitch": 65,
            "start_beat": 519.5,
            "duration_beat": 0.497916666666697,
            "velocity": 33,
            "track": 0
        },
        {
            "pitch": 67,
            "start_beat": 520.0,
            "duration_beat": 3.3229166666666288,
            "velocity": 33,
            "track": 0
        },
        {
            "pitch": 39,
            "start_beat": 520.0,
            "duration_beat": 0.4729166666667197,
            "velocity": 33,
            "track": 1
        },
        {
            "pitch": 46,
            "start_beat": 520.5,
            "duration_beat": 0.4729166666667197,
            "velocity": 29,
            "track": 1
        },
        {
            "pitch": 55,
            "start_beat": 521.0,
            "duration_beat": 0.4729166666667197,
            "velocity": 25,
            "track": 1
        },
        {
            "pitch": 51,
            "start_beat": 521.5,
            "duration_beat": 0.4729166666667197,
            "velocity": 21,
            "track": 1
        },
        {
            "pitch": 58,
            "start_beat": 522.0,
            "duration_beat": 0.9479166666666288,
            "velocity": 49,
            "track": 1
        },
        {
            "pitch": 55,
            "start_beat": 522.5,
            "duration_beat": 0.4729166666667197,
            "velocity": 49,
            "track": 1
        },
        {
            "pitch": 63,
            "start_beat": 523.0,
            "duration_beat": 0.9479166666666288,
            "velocity": 49,
            "track": 1
        },
        {
            "pitch": 67,
            "start_beat": 523.5,
            "duration_beat": 0.497916666666697,
            "velocity": 49,
            "track": 0
        },
        {
            "pitch": 70,
            "start_beat": 524.0,
            "duration_beat": 0.497916666666697,
            "velocity": 49,
            "track": 0
        },
        {
            "pitch": 79,
            "start_beat": 524.5,
            "duration_beat": 0.497916666666697,
            "velocity": 49,
            "track": 0
        },
        {
            "pitch": 77,
            "start_beat": 525.0,
            "duration_beat": 0.497916666666697,
            "velocity": 49,
            "track": 0
        },
        {
            "pitch": 75,
            "start_beat": 525.5,
            "duration_beat": 0.497916666666697,
            "velocity": 49,
            "track": 0
        },
        {
            "pitch": 74,
            "start_beat": 526.0,
            "duration_beat": 3.3229166666666288,
            "velocity": 49,
            "track": 0
        },
        {
            "pitch": 43,
            "start_beat": 526.0,
            "duration_beat": 0.497916666666697,
            "velocity": 49,
            "track": 1
        },
        {
            "pitch": 50,
            "start_beat": 526.5,
            "duration_beat": 0.497916666666697,
            "velocity": 49,
            "track": 1
        },
        {
            "pitch": 58,
            "start_beat": 527.0,
            "duration_beat": 0.497916666666697,
            "velocity": 49,
            "track": 1
        },
        {
            "pitch": 55,
            "start_beat": 527.5,
            "duration_beat": 0.497916666666697,
            "velocity": 49,
            "track": 1
        },
        {
            "pitch": 62,
            "start_beat": 528.0,
            "duration_beat": 0.497916666666697,
            "velocity": 49,
            "track": 1
        },
        {
            "pitch": 58,
            "start_beat": 528.5,
            "duration_beat": 0.497916666666697,
            "velocity": 49,
            "track": 1
        },
        {
            "pitch": 67,
            "start_beat": 529.0,
            "duration_beat": 0.9479166666666288,
            "velocity": 49,
            "track": 1
        },
        {
            "pitch": 70,
            "start_beat": 529.5,
            "duration_beat": 0.497916666666697,
            "velocity": 49,
            "track": 0
        },
        {
            "pitch": 74,
            "start_beat": 530.0,
            "duration_beat": 0.497916666666697,
            "velocity": 49,
            "track": 0
        },
        {
            "pitch": 82,
            "start_beat": 530.5,
            "duration_beat": 0.497916666666697,
            "velocity": 49,
            "track": 0
        },
        {
            "pitch": 74,
            "start_beat": 531.0,
            "duration_beat": 0.497916666666697,
            "velocity": 49,
            "track": 0
        },
        {
            "pitch": 75,
            "start_beat": 531.5,
            "duration_beat": 0.497916666666697,
            "velocity": 49,
            "track": 0
        },
        {
            "pitch": 76,
            "start_beat": 532.0,
            "duration_beat": 0.997916666666697,
            "velocity": 49,
            "track": 0
        },
        {
            "pitch": 46,
            "start_beat": 532.0,
            "duration_beat": 0.497916666666697,
            "velocity": 49,
            "track": 1
        },
        {
            "pitch": 53,
            "start_beat": 532.5,
            "duration_beat": 0.497916666666697,
            "velocity": 49,
            "track": 1
        },
        {
            "pitch": 77,
            "start_beat": 533.0,
            "duration_beat": 2.372916666666697,
            "velocity": 49,
            "track": 0
        },
        {
            "pitch": 62,
            "start_beat": 533.0,
            "duration_beat": 0.497916666666697,
            "velocity": 49,
            "track": 1
        },
        {
            "pitch": 58,
            "start_beat": 533.5,
            "duration_beat": 0.497916666666697,
            "velocity": 49,
            "track": 1
        },
        {
            "pitch": 65,
            "start_beat": 534.0,
            "duration_beat": 0.497916666666697,
            "velocity": 49,
            "track": 1
        },
        {
            "pitch": 62,
            "start_beat": 534.5,
            "duration_beat": 0.497916666666697,
            "velocity": 49,
            "track": 1
        },
        {
            "pitch": 70,
            "start_beat": 535.0,
            "duration_beat": 0.9479166666666288,
            "velocity": 49,
            "track": 1
        },
        {
            "pitch": 74,
            "start_beat": 535.5,
            "duration_beat": 0.497916666666697,
            "velocity": 49,
            "track": 0
        },
        {
            "pitch": 77,
            "start_beat": 536.0,
            "duration_beat": 0.497916666666697,
            "velocity": 49,
            "track": 0
        },
        {
            "pitch": 86,
            "start_beat": 536.5,
            "duration_beat": 0.497916666666697,
            "velocity": 49,
            "track": 0
        },
        {
            "pitch": 84,
            "start_beat": 537.0,
            "duration_beat": 0.497916666666697,
            "velocity": 49,
            "track": 0
        },
        {
            "pitch": 82,
            "start_beat": 537.5,
            "duration_beat": 0.497916666666697,
            "velocity": 49,
            "track": 0
        },
        {
            "pitch": 80,
            "start_beat": 538.0,
            "duration_beat": 0.497916666666697,
            "velocity": 49,
            "track": 0
        },
        {
            "pitch": 50,
            "start_beat": 538.0,
            "duration_beat": 0.497916666666697,
            "velocity": 49,
            "track": 1
        },
        {
            "pitch": 81,
            "start_beat": 538.5,
            "duration_beat": 0.497916666666697,
            "velocity": 56,
            "track": 0
        },
        {
            "pitch": 57,
            "start_beat": 538.5,
            "duration_beat": 0.497916666666697,
            "velocity": 56,
            "track": 1
        },
        {
            "pitch": 89,
            "start_beat": 539.0,
            "duration_beat": 0.497916666666697,
            "velocity": 64,
            "track": 0
        },
        {
            "pitch": 65,
            "start_beat": 539.0,
            "duration_beat": 0.497916666666697,
            "velocity": 64,
            "track": 1
        },
        {
            "pitch": 88,
            "start_beat": 539.5,
            "duration_beat": 0.497916666666697,
            "velocity": 64,
            "track": 0
        },
        {
            "pitch": 62,
            "start_beat": 539.5,
            "duration_beat": 0.497916666666697,
            "velocity": 64,
            "track": 1
        },
        {
            "pitch": 86,
            "start_beat": 540.0,
            "duration_beat": 0.497916666666697,
            "velocity": 54,
            "track": 0
        },
        {
            "pitch": 69,
            "start_beat": 540.0,
            "duration_beat": 0.497916666666697,
            "velocity": 54,
            "track": 1
        },
        {
            "pitch": 81,
            "start_beat": 540.5,
            "duration_beat": 0.497916666666697,
            "velocity": 44,
            "track": 0
        },
        {
            "pitch": 65,
            "start_beat": 540.5,
            "duration_beat": 0.497916666666697,
            "velocity": 44,
            "track": 1
        },
        {
            "pitch": 74,
            "start_beat": 541.0,
            "duration_beat": 0.9479166666666288,
            "velocity": 33,
            "track": 1
        },
        {
            "pitch": 69,
            "start_beat": 541.5,
            "duration_beat": 0.497916666666697,
            "velocity": 33,
            "track": 0
        },
        {
            "pitch": 65,
            "start_beat": 542.0,
            "duration_beat": 0.497916666666697,
            "velocity": 33,
            "track": 0
        },
        {
            "pitch": 62,
            "start_beat": 542.5,
            "duration_beat": 0.497916666666697,
            "velocity": 33,
            "track": 0
        },
        {
            "pitch": 64,
            "start_beat": 543.0,
            "duration_beat": 0.24791666666669698,
            "velocity": 33,
            "track": 0
        },
        {
            "pitch": 67,
            "start_beat": 543.25,
            "duration_beat": 0.24791666666669698,
            "velocity": 33,
            "track": 0
        },
        {
            "pitch": 65,
            "start_beat": 543.5,
            "duration_beat": 0.497916666666697,
            "velocity": 33,
            "track": 0
        },
        {
            "pitch": 52,
            "start_beat": 544.0,
            "duration_beat": 2.8479166666667197,
            "velocity": 33,
            "track": 0
        },
        {
            "pitch": 40,
            "start_beat": 545.0,
            "duration_beat": 0.497916666666697,
            "velocity": 33,
            "track": 1
        },
        {
            "pitch": 40,
            "start_beat": 546.0,
            "duration_beat": 0.497916666666697,
            "velocity": 33,
            "track": 1
        },
        {
            "pitch": 62,
            "start_beat": 547.5,
            "duration_beat": 1.997916666666697,
            "velocity": 33,
            "track": 0
        },
        {
            "pitch": 64,
            "start_beat": 548.0,
            "duration_beat": 1.497916666666697,
            "velocity": 33,
            "track": 0
        },
        {
            "pitch": 40,
            "start_beat": 548.0,
            "duration_beat": 0.497916666666697,
            "velocity": 33,
            "track": 1
        },
        {
            "pitch": 68,
            "start_beat": 548.5,
            "duration_beat": 0.997916666666697,
            "velocity": 33,
            "track": 0
        },
        {
            "pitch": 72,
            "start_beat": 549.0,
            "duration_beat": 0.497916666666697,
            "velocity": 33,
            "track": 0
        },
        {
            "pitch": 40,
            "start_beat": 549.0,
            "duration_beat": 0.497916666666697,
            "velocity": 33,
            "track": 1
        },
        {
            "pitch": 71,
            "start_beat": 549.5,
            "duration_beat": 0.497916666666697,
            "velocity": 33,
            "track": 0
        },
        {
            "pitch": 69,
            "start_beat": 550.0,
            "duration_beat": 2.8479166666667197,
            "velocity": 33,
            "track": 0
        },
        {
            "pitch": 60,
            "start_beat": 551.0,
            "duration_beat": 0.497916666666697,
            "velocity": 33,
            "track": 0
        },
        {
            "pitch": 64,
            "start_beat": 551.0,
            "duration_beat": 0.497916666666697,
            "velocity": 33,
            "track": 0
        },
        {
            "pitch": 40,
            "start_beat": 551.0,
            "duration_beat": 0.497916666666697,
            "velocity": 33,
            "track": 1
        },
        {
            "pitch": 60,
            "start_beat": 552.0,
            "duration_beat": 0.497916666666697,
            "velocity": 33,
            "track": 0
        },
        {
            "pitch": 64,
            "start_beat": 552.0,
            "duration_beat": 0.497916666666697,
            "velocity": 33,
            "track": 0
        },
        {
            "pitch": 40,
            "start_beat": 552.0,
            "duration_beat": 0.497916666666697,
            "velocity": 33,
            "track": 1
        },
        {
            "pitch": 76,
            "start_beat": 553.0,
            "duration_beat": 2.997916666666697,
            "velocity": 33,
            "track": 0
        },
        {
            "pitch": 64,
            "start_beat": 553.0,
            "duration_beat": 2.997916666666697,
            "velocity": 33,
            "track": 1
        },
        {
            "pitch": 69,
            "start_beat": 554.0,
            "duration_beat": 0.497916666666697,
            "velocity": 33,
            "track": 0
        },
        {
            "pitch": 52,
            "start_beat": 554.0,
            "duration_beat": 0.497916666666697,
            "velocity": 33,
            "track": 1
        },
        {
            "pitch": 57,
            "start_beat": 554.0,
            "duration_beat": 0.497916666666697,
            "velocity": 33,
            "track": 1
        },
        {
            "pitch": 69,
            "start_beat": 555.0,
            "duration_beat": 0.497916666666697,
            "velocity": 33,
            "track": 0
        },
        {
            "pitch": 52,
            "start_beat": 555.0,
            "duration_beat": 0.497916666666697,
            "velocity": 33,
            "track": 1
        },
        {
            "pitch": 57,
            "start_beat": 555.0,
            "duration_beat": 0.497916666666697,
            "velocity": 33,
            "track": 1
        },
        {
            "pitch": 74,
            "start_beat": 556.0,
            "duration_beat": 2.8479166666667197,
            "velocity": 33,
            "track": 0
        },
        {
            "pitch": 62,
            "start_beat": 556.0,
            "duration_beat": 2.8479166666667197,
            "velocity": 33,
            "track": 1
        },
        {
            "pitch": 65,
            "start_beat": 557.0,
            "duration_beat": 0.497916666666697,
            "velocity": 33,
            "track": 0
        },
        {
            "pitch": 69,
            "start_beat": 557.0,
            "duration_beat": 0.497916666666697,
            "velocity": 33,
            "track": 0
        },
        {
            "pitch": 52,
            "start_beat": 557.0,
            "duration_beat": 0.497916666666697,
            "velocity": 33,
            "track": 1
        },
        {
            "pitch": 57,
            "start_beat": 557.0,
            "duration_beat": 0.497916666666697,
            "velocity": 33,
            "track": 1
        },
        {
            "pitch": 65,
            "start_beat": 558.0,
            "duration_beat": 0.497916666666697,
            "velocity": 33,
            "track": 0
        },
        {
            "pitch": 69,
            "start_beat": 558.0,
            "duration_beat": 0.497916666666697,
            "velocity": 33,
            "track": 0
        },
        {
            "pitch": 52,
            "start_beat": 558.0,
            "duration_beat": 0.497916666666697,
            "velocity": 33,
            "track": 1
        },
        {
            "pitch": 57,
            "start_beat": 558.0,
            "duration_beat": 0.497916666666697,
            "velocity": 33,
            "track": 1
        },
        {
            "pitch": 62,
            "start_beat": 559.5,
            "duration_beat": 1.997916666666697,
            "velocity": 33,
            "track": 0
        },
        {
            "pitch": 64,
            "start_beat": 560.0,
            "duration_beat": 1.497916666666697,
            "velocity": 33,
            "track": 0
        },
        {
            "pitch": 40,
            "start_beat": 560.0,
            "duration_beat": 0.497916666666697,
            "velocity": 33,
            "track": 1
        },
        {
            "pitch": 68,
            "start_beat": 560.5,
            "duration_beat": 0.997916666666697,
            "velocity": 33,
            "track": 0
        },
        {
            "pitch": 72,
            "start_beat": 561.0,
            "duration_beat": 0.497916666666697,
            "velocity": 33,
            "track": 0
        },
        {
            "pitch": 40,
            "start_beat": 561.0,
            "duration_beat": 0.497916666666697,
            "velocity": 33,
            "track": 1
        },
        {
            "pitch": 71,
            "start_beat": 561.5,
            "duration_beat": 0.497916666666697,
            "velocity": 33,
            "track": 0
        },
        {
            "pitch": 69,
            "start_beat": 562.0,
            "duration_beat": 2.8479166666667197,
            "velocity": 33,
            "track": 0
        },
        {
            "pitch": 60,
            "start_beat": 563.0,
            "duration_beat": 0.497916666666697,
            "velocity": 33,
            "track": 0
        },
        {
            "pitch": 64,
            "start_beat": 563.0,
            "duration_beat": 0.497916666666697,
            "velocity": 33,
            "track": 0
        },
        {
            "pitch": 40,
            "start_beat": 563.0,
            "duration_beat": 0.497916666666697,
            "velocity": 33,
            "track": 1
        },
        {
            "pitch": 60,
            "start_beat": 564.0,
            "duration_beat": 0.497916666666697,
            "velocity": 33,
            "track": 0
        },
        {
            "pitch": 64,
            "start_beat": 564.0,
            "duration_beat": 0.497916666666697,
            "velocity": 33,
            "track": 0
        },
        {
            "pitch": 40,
            "start_beat": 564.0,
            "duration_beat": 0.497916666666697,
            "velocity": 33,
            "track": 1
        },
        {
            "pitch": 66,
            "start_beat": 565.0,
            "duration_beat": 2.997916666666697,
            "velocity": 33,
            "track": 0
        },
        {
            "pitch": 54,
            "start_beat": 565.0,
            "duration_beat": 2.997916666666697,
            "velocity": 33,
            "track": 1
        },
        {
            "pitch": 57,
            "start_beat": 566.0,
            "duration_beat": 0.497916666666697,
            "velocity": 33,
            "track": 0
        },
        {
            "pitch": 60,
            "start_beat": 566.0,
            "duration_beat": 0.497916666666697,
            "velocity": 33,
            "track": 0
        },
        {
            "pitch": 64,
            "start_beat": 566.0,
            "duration_beat": 0.497916666666697,
            "velocity": 33,
            "track": 0
        },
        {
            "pitch": 40,
            "start_beat": 566.0,
            "duration_beat": 0.497916666666697,
            "velocity": 33,
            "track": 1
        },
        {
            "pitch": 57,
            "start_beat": 567.0,
            "duration_beat": 0.497916666666697,
            "velocity": 33,
            "track": 0
        },
        {
            "pitch": 60,
            "start_beat": 567.0,
            "duration_beat": 0.497916666666697,
            "velocity": 33,
            "track": 0
        },
        {
            "pitch": 64,
            "start_beat": 567.0,
            "duration_beat": 0.497916666666697,
            "velocity": 33,
            "track": 0
        },
        {
            "pitch": 40,
            "start_beat": 567.0,
            "duration_beat": 0.497916666666697,
            "velocity": 33,
            "track": 1
        },
        {
            "pitch": 68,
            "start_beat": 568.0,
            "duration_beat": 2.8479166666667197,
            "velocity": 33,
            "track": 0
        },
        {
            "pitch": 56,
            "start_beat": 568.0,
            "duration_beat": 2.8479166666667197,
            "velocity": 33,
            "track": 1
        },
        {
            "pitch": 59,
            "start_beat": 569.0,
            "duration_beat": 0.497916666666697,
            "velocity": 33,
            "track": 0
        },
        {
            "pitch": 64,
            "start_beat": 569.0,
            "duration_beat": 0.497916666666697,
            "velocity": 33,
            "track": 0
        },
        {
            "pitch": 40,
            "start_beat": 569.0,
            "duration_beat": 0.497916666666697,
            "velocity": 33,
            "track": 1
        },
        {
            "pitch": 59,
            "start_beat": 570.0,
            "duration_beat": 0.497916666666697,
            "velocity": 33,
            "track": 0
        },
        {
            "pitch": 64,
            "start_beat": 570.0,
            "duration_beat": 0.497916666666697,
            "velocity": 33,
            "track": 0
        },
        {
            "pitch": 40,
            "start_beat": 570.0,
            "duration_beat": 0.497916666666697,
            "velocity": 33,
            "track": 1
        },
        {
            "pitch": 62,
            "start_beat": 571.5,
            "duration_beat": 1.997916666666697,
            "velocity": 33,
            "track": 0
        },
        {
            "pitch": 64,
            "start_beat": 572.0,
            "duration_beat": 1.497916666666697,
            "velocity": 49,
            "track": 0
        },
        {
            "pitch": 40,
            "start_beat": 572.0,
            "duration_beat": 0.497916666666697,
            "velocity": 49,
            "track": 1
        },
        {
            "pitch": 68,
            "start_beat": 572.5,
            "duration_beat": 0.997916666666697,
            "velocity": 49,
            "track": 0
        },
        {
            "pitch": 72,
            "start_beat": 573.0,
            "duration_beat": 0.497916666666697,
            "velocity": 49,
            "track": 0
        },
        {
            "pitch": 40,
            "start_beat": 573.0,
            "duration_beat": 0.497916666666697,
            "velocity": 49,
            "track": 1
        },
        {
            "pitch": 71,
            "start_beat": 573.5,
            "duration_beat": 0.497916666666697,
            "velocity": 49,
            "track": 0
        },
        {
            "pitch": 69,
            "start_beat": 574.0,
            "duration_beat": 2.8479166666667197,
            "velocity": 49,
            "track": 0
        },
        {
            "pitch": 60,
            "start_beat": 575.0,
            "duration_beat": 0.497916666666697,
            "velocity": 59,
            "track": 0
        },
        {
            "pitch": 64,
            "start_beat": 575.0,
            "duration_beat": 0.497916666666697,
            "velocity": 59,
            "track": 0
        },
        {
            "pitch": 40,
            "start_beat": 575.0,
            "duration_beat": 0.497916666666697,
            "velocity": 59,
            "track": 1
        },
        {
            "pitch": 60,
            "start_beat": 576.0,
            "duration_beat": 0.497916666666697,
            "velocity": 70,
            "track": 0
        },
        {
            "pitch": 64,
            "start_beat": 576.0,
            "duration_beat": 0.497916666666697,
            "velocity": 70,
            "track": 0
        },
        {
            "pitch": 40,
            "start_beat": 576.0,
            "duration_beat": 0.497916666666697,
            "velocity": 70,
            "track": 1
        },
        {
            "pitch": 76,
            "start_beat": 577.0,
            "duration_beat": 2.997916666666697,
            "velocity": 80,
            "track": 0
        },
        {
            "pitch": 64,
            "start_beat": 577.0,
            "duration_beat": 2.997916666666697,
            "velocity": 80,
            "track": 1
        },
        {
            "pitch": 69,
            "start_beat": 578.0,
            "duration_beat": 0.497916666666697,
            "velocity": 91,
            "track": 0
        },
        {
            "pitch": 72,
            "start_beat": 578.0,
            "duration_beat": 0.497916666666697,
            "velocity": 91,
            "track": 0
        },
        {
            "pitch": 52,
            "start_beat": 578.0,
            "duration_beat": 0.497916666666697,
            "velocity": 91,
            "track": 1
        },
        {
            "pitch": 57,
            "start_beat": 578.0,
            "duration_beat": 0.497916666666697,
            "velocity": 91,
            "track": 1
        },
        {
            "pitch": 60,
            "start_beat": 578.0,
            "duration_beat": 0.497916666666697,
            "velocity": 91,
            "track": 1
        },
        {
            "pitch": 69,
            "start_beat": 579.0,
            "duration_beat": 0.497916666666697,
            "velocity": 101,
            "track": 0
        },
        {
            "pitch": 72,
            "start_beat": 579.0,
            "duration_beat": 0.497916666666697,
            "velocity": 101,
            "track": 0
        },
        {
            "pitch": 52,
            "start_beat": 579.0,
            "duration_beat": 0.497916666666697,
            "velocity": 101,
            "track": 1
        },
        {
            "pitch": 57,
            "start_beat": 579.0,
            "duration_beat": 0.497916666666697,
            "velocity": 101,
            "track": 1
        },
        {
            "pitch": 60,
            "start_beat": 579.0,
            "duration_beat": 0.497916666666697,
            "velocity": 101,
            "track": 1
        },
        {
            "pitch": 78,
            "start_beat": 580.0,
            "duration_beat": 2.8479166666667197,
            "velocity": 112,
            "track": 0
        },
        {
            "pitch": 66,
            "start_beat": 580.0,
            "duration_beat": 2.8479166666667197,
            "velocity": 112,
            "track": 1
        },
        {
            "pitch": 64,
            "start_beat": 581.0,
            "duration_beat": 0.497916666666697,
            "velocity": 94,
            "track": 0
        },
        {
            "pitch": 69,
            "start_beat": 581.0,
            "duration_beat": 0.497916666666697,
            "velocity": 94,
            "track": 0
        },
        {
            "pitch": 72,
            "start_beat": 581.0,
            "duration_beat": 0.497916666666697,
            "velocity": 94,
            "track": 0
        },
        {
            "pitch": 52,
            "start_beat": 581.0,
            "duration_beat": 0.497916666666697,
            "velocity": 94,
            "track": 1
        },
        {
            "pitch": 57,
            "start_beat": 581.0,
            "duration_beat": 0.497916666666697,
            "velocity": 94,
            "track": 1
        },
        {
            "pitch": 60,
            "start_beat": 581.0,
            "duration_beat": 0.497916666666697,
            "velocity": 94,
            "track": 1
        },
        {
            "pitch": 64,
            "start_beat": 582.0,
            "duration_beat": 0.497916666666697,
            "velocity": 94,
            "track": 0
        },
        {
            "pitch": 69,
            "start_beat": 582.0,
            "duration_beat": 0.497916666666697,
            "velocity": 94,
            "track": 0
        },
        {
            "pitch": 72,
            "start_beat": 582.0,
            "duration_beat": 0.497916666666697,
            "velocity": 94,
            "track": 0
        },
        {
            "pitch": 52,
            "start_beat": 582.0,
            "duration_beat": 0.497916666666697,
            "velocity": 94,
            "track": 1
        },
        {
            "pitch": 57,
            "start_beat": 582.0,
            "duration_beat": 0.497916666666697,
            "velocity": 94,
            "track": 1
        },
        {
            "pitch": 60,
            "start_beat": 582.0,
            "duration_beat": 0.497916666666697,
            "velocity": 94,
            "track": 1
        },
        {
            "pitch": 60,
            "start_beat": 583.5,
            "duration_beat": 1.997916666666697,
            "velocity": 33,
            "track": 0
        },
        {
            "pitch": 64,
            "start_beat": 584.0,
            "duration_beat": 1.497916666666697,
            "velocity": 33,
            "track": 0
        },
        {
            "pitch": 40,
            "start_beat": 584.0,
            "duration_beat": 0.497916666666697,
            "velocity": 33,
            "track": 1
        },
        {
            "pitch": 68,
            "start_beat": 584.5,
            "duration_beat": 0.997916666666697,
            "velocity": 33,
            "track": 0
        },
        {
            "pitch": 71,
            "start_beat": 585.0,
            "duration_beat": 0.497916666666697,
            "velocity": 33,
            "track": 0
        },
        {
            "pitch": 40,
            "start_beat": 585.0,
            "duration_beat": 0.497916666666697,
            "velocity": 33,
            "track": 1
        },
        {
            "pitch": 69,
            "start_beat": 585.5,
            "duration_beat": 0.497916666666697,
            "velocity": 33,
            "track": 0
        },
        {
            "pitch": 69,
            "start_beat": 586.0,
            "duration_beat": 2.8479166666667197,
            "velocity": 33,
            "track": 0
        },
        {
            "pitch": 60,
            "start_beat": 587.0,
            "duration_beat": 0.497916666666697,
            "velocity": 33,
            "track": 0
        },
        {
            "pitch": 64,
            "start_beat": 587.0,
            "duration_beat": 0.497916666666697,
            "velocity": 33,
            "track": 0
        },
        {
            "pitch": 40,
            "start_beat": 587.0,
            "duration_beat": 0.497916666666697,
            "velocity": 33,
            "track": 1
        },
        {
            "pitch": 60,
            "start_beat": 588.0,
            "duration_beat": 0.497916666666697,
            "velocity": 48,
            "track": 0
        },
        {
            "pitch": 64,
            "start_beat": 588.0,
            "duration_beat": 0.497916666666697,
            "velocity": 48,
            "track": 0
        },
        {
            "pitch": 40,
            "start_beat": 588.0,
            "duration_beat": 0.497916666666697,
            "velocity": 48,
            "track": 1
        },
        {
            "pitch": 78,
            "start_beat": 589.0,
            "duration_beat": 2.997916666666697,
            "velocity": 64,
            "track": 0
        },
        {
            "pitch": 66,
            "start_beat": 589.0,
            "duration_beat": 2.997916666666697,
            "velocity": 64,
            "track": 1
        },
        {
            "pitch": 64,
            "start_beat": 590.0,
            "duration_beat": 0.497916666666697,
            "velocity": 80,
            "track": 0
        },
        {
            "pitch": 69,
            "start_beat": 590.0,
            "duration_beat": 0.497916666666697,
            "velocity": 80,
            "track": 0
        },
        {
            "pitch": 72,
            "start_beat": 590.0,
            "duration_beat": 0.497916666666697,
            "velocity": 80,
            "track": 0
        },
        {
            "pitch": 52,
            "start_beat": 590.0,
            "duration_beat": 0.497916666666697,
            "velocity": 80,
            "track": 1
        },
        {
            "pitch": 57,
            "start_beat": 590.0,
            "duration_beat": 0.497916666666697,
            "velocity": 80,
            "track": 1
        },
        {
            "pitch": 60,
            "start_beat": 590.0,
            "duration_beat": 0.497916666666697,
            "velocity": 80,
            "track": 1
        },
        {
            "pitch": 64,
            "start_beat": 591.0,
            "duration_beat": 0.497916666666697,
            "velocity": 96,
            "track": 0
        },
        {
            "pitch": 69,
            "start_beat": 591.0,
            "duration_beat": 0.497916666666697,
            "velocity": 96,
            "track": 0
        },
        {
            "pitch": 72,
            "start_beat": 591.0,
            "duration_beat": 0.497916666666697,
            "velocity": 96,
            "track": 0
        },
        {
            "pitch": 52,
            "start_beat": 591.0,
            "duration_beat": 0.497916666666697,
            "velocity": 96,
            "track": 1
        },
        {
            "pitch": 57,
            "start_beat": 591.0,
            "duration_beat": 0.497916666666697,
            "velocity": 96,
            "track": 1
        },
        {
            "pitch": 60,
            "start_beat": 591.0,
            "duration_beat": 0.497916666666697,
            "velocity": 96,
            "track": 1
        },
        {
            "pitch": 80,
            "start_beat": 592.0,
            "duration_beat": 2.997916666666697,
            "velocity": 112,
            "track": 0
        },
        {
            "pitch": 68,
            "start_beat": 592.0,
            "duration_beat": 2.997916666666697,
            "velocity": 112,
            "track": 1
        },
        {
            "pitch": 69,
            "start_beat": 593.0,
            "duration_beat": 0.497916666666697,
            "velocity": 94,
            "track": 0
        },
        {
            "pitch": 72,
            "start_beat": 593.0,
            "duration_beat": 0.497916666666697,
            "velocity": 94,
            "track": 0
        },
        {
            "pitch": 75,
            "start_beat": 593.0,
            "duration_beat": 0.497916666666697,
            "velocity": 94,
            "track": 0
        },
        {
            "pitch": 52,
            "start_beat": 593.0,
            "duration_beat": 0.497916666666697,
            "velocity": 94,
            "track": 1
        },
        {
            "pitch": 57,
            "start_beat": 593.0,
            "duration_beat": 0.497916666666697,
            "velocity": 94,
            "track": 1
        },
        {
            "pitch": 60,
            "start_beat": 593.0,
            "duration_beat": 0.497916666666697,
            "velocity": 94,
            "track": 1
        },
        {
            "pitch": 69,
            "start_beat": 594.0,
            "duration_beat": 0.497916666666697,
            "velocity": 97,
            "track": 0
        },
        {
            "pitch": 72,
            "start_beat": 594.0,
            "duration_beat": 0.497916666666697,
            "velocity": 97,
            "track": 0
        },
        {
            "pitch": 75,
            "start_beat": 594.0,
            "duration_beat": 0.497916666666697,
            "velocity": 97,
            "track": 0
        },
        {
            "pitch": 52,
            "start_beat": 594.0,
            "duration_beat": 0.497916666666697,
            "velocity": 97,
            "track": 1
        },
        {
            "pitch": 57,
            "start_beat": 594.0,
            "duration_beat": 0.497916666666697,
            "velocity": 97,
            "track": 1
        },
        {
            "pitch": 60,
            "start_beat": 594.0,
            "duration_beat": 0.497916666666697,
            "velocity": 97,
            "track": 1
        },
        {
            "pitch": 78,
            "start_beat": 595.0,
            "duration_beat": 1.8979166666666742,
            "velocity": 101,
            "track": 0
        },
        {
            "pitch": 66,
            "start_beat": 595.0,
            "duration_beat": 1.8979166666666742,
            "velocity": 101,
            "track": 1
        },
        {
            "pitch": 69,
            "start_beat": 596.0,
            "duration_beat": 0.9479166666666288,
            "velocity": 104,
            "track": 0
        },
        {
            "pitch": 72,
            "start_beat": 596.0,
            "duration_beat": 0.9479166666666288,
            "velocity": 104,
            "track": 0
        },
        {
            "pitch": 75,
            "start_beat": 596.0,
            "duration_beat": 0.9479166666666288,
            "velocity": 104,
            "track": 0
        },
        {
            "pitch": 52,
            "start_beat": 596.0,
            "duration_beat": 0.9479166666666288,
            "velocity": 104,
            "track": 1
        },
        {
            "pitch": 57,
            "start_beat": 596.0,
            "duration_beat": 0.9479166666666288,
            "velocity": 104,
            "track": 1
        },
        {
            "pitch": 60,
            "start_beat": 596.0,
            "duration_beat": 0.9479166666666288,
            "velocity": 104,
            "track": 1
        },
        {
            "pitch": 80,
            "start_beat": 597.5,
            "duration_beat": 0.4729166666667197,
            "velocity": 110,
            "track": 0
        },
        {
            "pitch": 68,
            "start_beat": 597.5,
            "duration_beat": 0.4729166666667197,
            "velocity": 110,
            "track": 1
        },
        {
            "pitch": 80,
            "start_beat": 598.0,
            "duration_beat": 2.997916666666697,
            "velocity": 112,
            "track": 0
        },
        {
            "pitch": 68,
            "start_beat": 598.0,
            "duration_beat": 2.997916666666697,
            "velocity": 112,
            "track": 1
        },
        {
            "pitch": 69,
            "start_beat": 599.0,
            "duration_beat": 0.997916666666697,
            "velocity": 112,
            "track": 0
        },
        {
            "pitch": 72,
            "start_beat": 599.0,
            "duration_beat": 0.997916666666697,
            "velocity": 112,
            "track": 0
        },
        {
            "pitch": 75,
            "start_beat": 599.0,
            "duration_beat": 0.997916666666697,
            "velocity": 112,
            "track": 0
        },
        {
            "pitch": 52,
            "start_beat": 599.0,
            "duration_beat": 0.997916666666697,
            "velocity": 112,
            "track": 1
        },
        {
            "pitch": 57,
            "start_beat": 599.0,
            "duration_beat": 0.997916666666697,
            "velocity": 112,
            "track": 1
        },
        {
            "pitch": 60,
            "start_beat": 599.0,
            "duration_beat": 0.997916666666697,
            "velocity": 112,
            "track": 1
        },
        {
            "pitch": 69,
            "start_beat": 600.0,
            "duration_beat": 0.997916666666697,
            "velocity": 112,
            "track": 0
        },
        {
            "pitch": 72,
            "start_beat": 600.0,
            "duration_beat": 0.997916666666697,
            "velocity": 112,
            "track": 0
        },
        {
            "pitch": 75,
            "start_beat": 600.0,
            "duration_beat": 0.997916666666697,
            "velocity": 112,
            "track": 0
        },
        {
            "pitch": 52,
            "start_beat": 600.0,
            "duration_beat": 0.997916666666697,
            "velocity": 112,
            "track": 1
        },
        {
            "pitch": 57,
            "start_beat": 600.0,
            "duration_beat": 0.997916666666697,
            "velocity": 112,
            "track": 1
        },
        {
            "pitch": 60,
            "start_beat": 600.0,
            "duration_beat": 0.997916666666697,
            "velocity": 112,
            "track": 1
        },
        {
            "pitch": 78,
            "start_beat": 601.0,
            "duration_beat": 1.8979166666666742,
            "velocity": 112,
            "track": 0
        },
        {
            "pitch": 66,
            "start_beat": 601.0,
            "duration_beat": 1.8979166666666742,
            "velocity": 112,
            "track": 1
        },
        {
            "pitch": 69,
            "start_beat": 602.0,
            "duration_beat": 0.9479166666666288,
            "velocity": 112,
            "track": 0
        },
        {
            "pitch": 72,
            "start_beat": 602.0,
            "duration_beat": 0.9479166666666288,
            "velocity": 112,
            "track": 0
        },
        {
            "pitch": 75,
            "start_beat": 602.0,
            "duration_beat": 0.9479166666666288,
            "velocity": 112,
            "track": 0
        },
        {
            "pitch": 52,
            "start_beat": 602.0,
            "duration_beat": 0.9479166666666288,
            "velocity": 112,
            "track": 1
        },
        {
            "pitch": 57,
            "start_beat": 602.0,
            "duration_beat": 0.9479166666666288,
            "velocity": 112,
            "track": 1
        },
        {
            "pitch": 60,
            "start_beat": 602.0,
            "duration_beat": 0.9479166666666288,
            "velocity": 112,
            "track": 1
        },
        {
            "pitch": 80,
            "start_beat": 603.5,
            "duration_beat": 0.4729166666667197,
            "velocity": 112,
            "track": 0
        },
        {
            "pitch": 68,
            "start_beat": 603.5,
            "duration_beat": 0.4729166666667197,
            "velocity": 112,
            "track": 1
        },
        {
            "pitch": 80,
            "start_beat": 604.0,
            "duration_beat": 2.997916666666697,
            "velocity": 112,
            "track": 0
        },
        {
            "pitch": 68,
            "start_beat": 604.0,
            "duration_beat": 2.997916666666697,
            "velocity": 112,
            "track": 1
        },
        {
            "pitch": 69,
            "start_beat": 605.0,
            "duration_beat": 0.997916666666697,
            "velocity": 112,
            "track": 0
        },
        {
            "pitch": 72,
            "start_beat": 605.0,
            "duration_beat": 0.997916666666697,
            "velocity": 112,
            "track": 0
        },
        {
            "pitch": 75,
            "start_beat": 605.0,
            "duration_beat": 0.997916666666697,
            "velocity": 112,
            "track": 0
        },
        {
            "pitch": 52,
            "start_beat": 605.0,
            "duration_beat": 0.997916666666697,
            "velocity": 112,
            "track": 1
        },
        {
            "pitch": 57,
            "start_beat": 605.0,
            "duration_beat": 0.997916666666697,
            "velocity": 112,
            "track": 1
        },
        {
            "pitch": 60,
            "start_beat": 605.0,
            "duration_beat": 0.997916666666697,
            "velocity": 112,
            "track": 1
        },
        {
            "pitch": 69,
            "start_beat": 606.0,
            "duration_beat": 0.997916666666697,
            "velocity": 112,
            "track": 0
        },
        {
            "pitch": 72,
            "start_beat": 606.0,
            "duration_beat": 0.997916666666697,
            "velocity": 112,
            "track": 0
        },
        {
            "pitch": 75,
            "start_beat": 606.0,
            "duration_beat": 0.997916666666697,
            "velocity": 112,
            "track": 0
        },
        {
            "pitch": 52,
            "start_beat": 606.0,
            "duration_beat": 0.997916666666697,
            "velocity": 112,
            "track": 1
        },
        {
            "pitch": 57,
            "start_beat": 606.0,
            "duration_beat": 0.997916666666697,
            "velocity": 112,
            "track": 1
        },
        {
            "pitch": 60,
            "start_beat": 606.0,
            "duration_beat": 0.997916666666697,
            "velocity": 112,
            "track": 1
        },
        {
            "pitch": 78,
            "start_beat": 607.0,
            "duration_beat": 1.8979166666666742,
            "velocity": 112,
            "track": 0
        },
        {
            "pitch": 66,
            "start_beat": 607.0,
            "duration_beat": 1.8979166666666742,
            "velocity": 112,
            "track": 1
        },
        {
            "pitch": 69,
            "start_beat": 608.0,
            "duration_beat": 0.9479166666666288,
            "velocity": 112,
            "track": 0
        },
        {
            "pitch": 72,
            "start_beat": 608.0,
            "duration_beat": 0.9479166666666288,
            "velocity": 112,
            "track": 0
        },
        {
            "pitch": 75,
            "start_beat": 608.0,
            "duration_beat": 0.9479166666666288,
            "velocity": 112,
            "track": 0
        },
        {
            "pitch": 52,
            "start_beat": 608.0,
            "duration_beat": 0.9479166666666288,
            "velocity": 112,
            "track": 1
        },
        {
            "pitch": 57,
            "start_beat": 608.0,
            "duration_beat": 0.9479166666666288,
            "velocity": 112,
            "track": 1
        },
        {
            "pitch": 60,
            "start_beat": 608.0,
            "duration_beat": 0.9479166666666288,
            "velocity": 112,
            "track": 1
        },
        {
            "pitch": 80,
            "start_beat": 609.5,
            "duration_beat": 0.4729166666667197,
            "velocity": 112,
            "track": 0
        },
        {
            "pitch": 68,
            "start_beat": 609.5,
            "duration_beat": 0.4729166666667197,
            "velocity": 112,
            "track": 1
        },
        {
            "pitch": 81,
            "start_beat": 610.0,
            "duration_beat": 2.997916666666697,
            "velocity": 112,
            "track": 0
        },
        {
            "pitch": 69,
            "start_beat": 610.0,
            "duration_beat": 2.997916666666697,
            "velocity": 112,
            "track": 1
        },
        {
            "pitch": 72,
            "start_beat": 611.0,
            "duration_beat": 0.997916666666697,
            "velocity": 112,
            "track": 0
        },
        {
            "pitch": 75,
            "start_beat": 611.0,
            "duration_beat": 0.997916666666697,
            "velocity": 112,
            "track": 0
        },
        {
            "pitch": 78,
            "start_beat": 611.0,
            "duration_beat": 0.997916666666697,
            "velocity": 112,
            "track": 0
        },
        {
            "pitch": 52,
            "start_beat": 611.0,
            "duration_beat": 0.997916666666697,
            "velocity": 112,
            "track": 1
        },
        {
            "pitch": 57,
            "start_beat": 611.0,
            "duration_beat": 0.997916666666697,
            "velocity": 112,
            "track": 1
        },
        {
            "pitch": 60,
            "start_beat": 611.0,
            "duration_beat": 0.997916666666697,
            "velocity": 112,
            "track": 1
        },
        {
            "pitch": 72,
            "start_beat": 612.0,
            "duration_beat": 0.997916666666697,
            "velocity": 112,
            "track": 0
        },
        {
            "pitch": 75,
            "start_beat": 612.0,
            "duration_beat": 0.997916666666697,
            "velocity": 112,
            "track": 0
        },
        {
            "pitch": 78,
            "start_beat": 612.0,
            "duration_beat": 0.997916666666697,
            "velocity": 112,
            "track": 0
        },
        {
            "pitch": 52,
            "start_beat": 612.0,
            "duration_beat": 0.997916666666697,
            "velocity": 112,
            "track": 1
        },
        {
            "pitch": 57,
            "start_beat": 612.0,
            "duration_beat": 0.997916666666697,
            "velocity": 112,
            "track": 1
        },
        {
            "pitch": 60,
            "start_beat": 612.0,
            "duration_beat": 0.997916666666697,
            "velocity": 112,
            "track": 1
        },
        {
            "pitch": 80,
            "start_beat": 613.0,
            "duration_beat": 1.997916666666697,
            "velocity": 112,
            "track": 0
        },
        {
            "pitch": 68,
            "start_beat": 613.0,
            "duration_beat": 1.997916666666697,
            "velocity": 112,
            "track": 1
        },
        {
            "pitch": 72,
            "start_beat": 614.0,
            "duration_beat": 0.997916666666697,
            "velocity": 112,
            "track": 0
        },
        {
            "pitch": 75,
            "start_beat": 614.0,
            "duration_beat": 0.997916666666697,
            "velocity": 112,
            "track": 0
        },
        {
            "pitch": 78,
            "start_beat": 614.0,
            "duration_beat": 0.997916666666697,
            "velocity": 112,
            "track": 0
        },
        {
            "pitch": 52,
            "start_beat": 614.0,
            "duration_beat": 0.997916666666697,
            "velocity": 112,
            "track": 1
        },
        {
            "pitch": 57,
            "start_beat": 614.0,
            "duration_beat": 0.997916666666697,
            "velocity": 112,
            "track": 1
        },
        {
            "pitch": 60,
            "start_beat": 614.0,
            "duration_beat": 0.997916666666697,
            "velocity": 112,
            "track": 1
        },
        {
            "pitch": 81,
            "start_beat": 615.0,
            "duration_beat": 0.9479166666666288,
            "velocity": 112,
            "track": 0
        },
        {
            "pitch": 72,
            "start_beat": 615.0,
            "duration_beat": 0.9479166666666288,
            "velocity": 112,
            "track": 0
        },
        {
            "pitch": 75,
            "start_beat": 615.0,
            "duration_beat": 0.9479166666666288,
            "velocity": 112,
            "track": 0
        },
        {
            "pitch": 78,
            "start_beat": 615.0,
            "duration_beat": 0.9479166666666288,
            "velocity": 112,
            "track": 0
        },
        {
            "pitch": 52,
            "start_beat": 615.0,
            "duration_beat": 0.997916666666697,
            "velocity": 112,
            "track": 1
        },
        {
            "pitch": 57,
            "start_beat": 615.1333333333333,
            "duration_beat": 0.8624999999999545,
            "velocity": 112,
            "track": 1
        },
        {
            "pitch": 69,
            "start_beat": 615.25,
            "duration_beat": 0.7104166666666742,
            "velocity": 112,
            "track": 1
        },
        {
            "pitch": 60,
            "start_beat": 615.26875,
            "duration_beat": 0.7270833333333258,
            "velocity": 112,
            "track": 1
        },
        {
            "pitch": 71,
            "start_beat": 616.0,
            "duration_beat": 2.997916666666697,
            "velocity": 112,
            "track": 0
        },
        {
            "pitch": 74,
            "start_beat": 616.0,
            "duration_beat": 2.997916666666697,
            "velocity": 112,
            "track": 0
        },
        {
            "pitch": 76,
            "start_beat": 616.0,
            "duration_beat": 2.997916666666697,
            "velocity": 112,
            "track": 0
        },
        {
            "pitch": 80,
            "start_beat": 616.0,
            "duration_beat": 2.997916666666697,
            "velocity": 112,
            "track": 0
        },
        {
            "pitch": 83,
            "start_beat": 616.0,
            "duration_beat": 2.997916666666697,
            "velocity": 112,
            "track": 0
        },
        {
            "pitch": 28,
            "start_beat": 616.0,
            "duration_beat": 0.997916666666697,
            "velocity": 112,
            "track": 1
        },
        {
            "pitch": 40,
            "start_beat": 616.1333333333333,
            "duration_beat": 0.8624999999999545,
            "velocity": 112,
            "track": 1
        },
        {
            "pitch": 52,
            "start_beat": 617.0,
            "duration_beat": 0.997916666666697,
            "velocity": 112,
            "track": 1
        },
        {
            "pitch": 56,
            "start_beat": 617.0,
            "duration_beat": 0.997916666666697,
            "velocity": 112,
            "track": 1
        },
        {
            "pitch": 62,
            "start_beat": 617.0,
            "duration_beat": 0.997916666666697,
            "velocity": 112,
            "track": 1
        },
        {
            "pitch": 56,
            "start_beat": 618.0,
            "duration_beat": 0.997916666666697,
            "velocity": 112,
            "track": 1
        },
        {
            "pitch": 62,
            "start_beat": 618.0,
            "duration_beat": 0.997916666666697,
            "velocity": 112,
            "track": 1
        },
        {
            "pitch": 64,
            "start_beat": 618.0,
            "duration_beat": 0.997916666666697,
            "velocity": 112,
            "track": 1
        },
        {
            "pitch": 74,
            "start_beat": 619.0,
            "duration_beat": 1.997916666666697,
            "velocity": 112,
            "track": 0
        },
        {
            "pitch": 76,
            "start_beat": 619.0,
            "duration_beat": 1.997916666666697,
            "velocity": 112,
            "track": 0
        },
        {
            "pitch": 80,
            "start_beat": 619.0,
            "duration_beat": 1.997916666666697,
            "velocity": 112,
            "track": 0
        },
        {
            "pitch": 85,
            "start_beat": 619.0,
            "duration_beat": 1.997916666666697,
            "velocity": 112,
            "track": 0
        },
        {
            "pitch": 59,
            "start_beat": 619.0,
            "duration_beat": 0.997916666666697,
            "velocity": 112,
            "track": 1
        },
        {
            "pitch": 62,
            "start_beat": 619.0,
            "duration_beat": 0.997916666666697,
            "velocity": 112,
            "track": 1
        },
        {
            "pitch": 68,
            "start_beat": 619.0,
            "duration_beat": 0.997916666666697,
            "velocity": 112,
            "track": 1
        },
        {
            "pitch": 56,
            "start_beat": 620.0,
            "duration_beat": 0.997916666666697,
            "velocity": 112,
            "track": 1
        },
        {
            "pitch": 62,
            "start_beat": 620.0,
            "duration_beat": 0.997916666666697,
            "velocity": 112,
            "track": 1
        },
        {
            "pitch": 64,
            "start_beat": 620.0,
            "duration_beat": 0.997916666666697,
            "velocity": 112,
            "track": 1
        },
        {
            "pitch": 74,
            "start_beat": 621.0,
            "duration_beat": 0.997916666666697,
            "velocity": 112,
            "track": 0
        },
        {
            "pitch": 76,
            "start_beat": 621.0,
            "duration_beat": 0.997916666666697,
            "velocity": 112,
            "track": 0
        },
        {
            "pitch": 80,
            "start_beat": 621.0,
            "duration_beat": 0.997916666666697,
            "velocity": 112,
            "track": 0
        },
        {
            "pitch": 85,
            "start_beat": 621.0,
            "duration_beat": 0.997916666666697,
            "velocity": 112,
            "track": 0
        },
        {
            "pitch": 52,
            "start_beat": 621.0,
            "duration_beat": 0.9479166666666288,
            "velocity": 112,
            "track": 1
        },
        {
            "pitch": 56,
            "start_beat": 621.0,
            "duration_beat": 0.9479166666666288,
            "velocity": 112,
            "track": 1
        },
        {
            "pitch": 62,
            "start_beat": 621.0,
            "duration_beat": 0.9479166666666288,
            "velocity": 112,
            "track": 1
        },
        {
            "pitch": 69,
            "start_beat": 622.0,
            "duration_beat": 2.8479166666667197,
            "velocity": 112,
            "track": 0
        },
        {
            "pitch": 73,
            "start_beat": 622.0,
            "duration_beat": 2.8479166666667197,
            "velocity": 112,
            "track": 0
        },
        {
            "pitch": 81,
            "start_beat": 622.0,
            "duration_beat": 2.8479166666667197,
            "velocity": 112,
            "track": 0
        },
        {
            "pitch": 33,
            "start_beat": 622.0,
            "duration_beat": 0.9479166666666288,
            "velocity": 112,
            "track": 1
        },
        {
            "pitch": 45,
            "start_beat": 622.0,
            "duration_beat": 0.9479166666666288,
            "velocity": 112,
            "track": 1
        },
        {
            "pitch": 52,
            "start_beat": 623.0,
            "duration_beat": 0.997916666666697,
            "velocity": 112,
            "track": 1
        },
        {
            "pitch": 61,
            "start_beat": 623.0,
            "duration_beat": 0.997916666666697,
            "velocity": 112,
            "track": 1
        },
        {
            "pitch": 57,
            "start_beat": 624.0,
            "duration_beat": 0.997916666666697,
            "velocity": 112,
            "track": 1
        },
        {
            "pitch": 64,
            "start_beat": 624.0,
            "duration_beat": 0.997916666666697,
            "velocity": 112,
            "track": 1
        },
        {
            "pitch": 81,
            "start_beat": 625.0,
            "duration_beat": 1.997916666666697,
            "velocity": 112,
            "track": 0
        },
        {
            "pitch": 85,
            "start_beat": 625.0,
            "duration_beat": 1.997916666666697,
            "velocity": 112,
            "track": 0
        },
        {
            "pitch": 93,
            "start_beat": 625.0,
            "duration_beat": 1.997916666666697,
            "velocity": 112,
            "track": 0
        },
        {
            "pitch": 61,
            "start_beat": 625.0,
            "duration_beat": 0.997916666666697,
            "velocity": 112,
            "track": 1
        },
        {
            "pitch": 69,
            "start_beat": 625.0,
            "duration_beat": 0.997916666666697,
            "velocity": 112,
            "track": 1
        },
        {
            "pitch": 57,
            "start_beat": 626.0,
            "duration_beat": 0.997916666666697,
            "velocity": 112,
            "track": 1
        },
        {
            "pitch": 64,
            "start_beat": 626.0,
            "duration_beat": 0.997916666666697,
            "velocity": 112,
            "track": 1
        },
        {
            "pitch": 80,
            "start_beat": 627.0,
            "duration_beat": 0.997916666666697,
            "velocity": 112,
            "track": 0
        },
        {
            "pitch": 85,
            "start_beat": 627.0,
            "duration_beat": 0.997916666666697,
            "velocity": 112,
            "track": 0
        },
        {
            "pitch": 92,
            "start_beat": 627.0,
            "duration_beat": 0.997916666666697,
            "velocity": 112,
            "track": 0
        },
        {
            "pitch": 52,
            "start_beat": 627.0,
            "duration_beat": 0.9479166666666288,
            "velocity": 112,
            "track": 1
        },
        {
            "pitch": 61,
            "start_beat": 627.0,
            "duration_beat": 0.9479166666666288,
            "velocity": 112,
            "track": 1
        },
        {
            "pitch": 78,
            "start_beat": 628.0,
            "duration_beat": 2.997916666666697,
            "velocity": 112,
            "track": 0
        },
        {
            "pitch": 85,
            "start_beat": 628.0,
            "duration_beat": 2.997916666666697,
            "velocity": 112,
            "track": 0
        },
        {
            "pitch": 90,
            "start_beat": 628.0,
            "duration_beat": 2.997916666666697,
            "velocity": 112,
            "track": 0
        },
        {
            "pitch": 35,
            "start_beat": 628.0,
            "duration_beat": 0.9479166666666288,
            "velocity": 112,
            "track": 1
        },
        {
            "pitch": 47,
            "start_beat": 628.0,
            "duration_beat": 0.9479166666666288,
            "velocity": 112,
            "track": 1
        },
        {
            "pitch": 54,
            "start_beat": 629.0,
            "duration_beat": 0.997916666666697,
            "velocity": 112,
            "track": 1
        },
        {
            "pitch": 59,
            "start_beat": 629.0,
            "duration_beat": 0.997916666666697,
            "velocity": 112,
            "track": 1
        },
        {
            "pitch": 57,
            "start_beat": 630.0,
            "duration_beat": 0.997916666666697,
            "velocity": 112,
            "track": 1
        },
        {
            "pitch": 63,
            "start_beat": 630.0,
            "duration_beat": 0.997916666666697,
            "velocity": 112,
            "track": 1
        },
        {
            "pitch": 83,
            "start_beat": 631.0,
            "duration_beat": 1.997916666666697,
            "velocity": 112,
            "track": 0
        },
        {
            "pitch": 87,
            "start_beat": 631.0,
            "duration_beat": 1.997916666666697,
            "velocity": 112,
            "track": 0
        },
        {
            "pitch": 92,
            "start_beat": 631.0,
            "duration_beat": 1.997916666666697,
            "velocity": 112,
            "track": 0
        },
        {
            "pitch": 59,
            "start_beat": 631.0,
            "duration_beat": 0.997916666666697,
            "velocity": 112,
            "track": 1
        },
        {
            "pitch": 66,
            "start_beat": 631.0,
            "duration_beat": 0.997916666666697,
            "velocity": 112,
            "track": 1
        },
        {
            "pitch": 57,
            "start_beat": 632.0,
            "duration_beat": 0.997916666666697,
            "velocity": 112,
            "track": 1
        },
        {
            "pitch": 63,
            "start_beat": 632.0,
            "duration_beat": 0.997916666666697,
            "velocity": 112,
            "track": 1
        },
        {
            "pitch": 81,
            "start_beat": 633.0,
            "duration_beat": 0.997916666666697,
            "velocity": 112,
            "track": 0
        },
        {
            "pitch": 87,
            "start_beat": 633.0,
            "duration_beat": 0.997916666666697,
            "velocity": 112,
            "track": 0
        },
        {
            "pitch": 92,
            "start_beat": 633.0,
            "duration_beat": 0.997916666666697,
            "velocity": 112,
            "track": 0
        },
        {
            "pitch": 54,
            "start_beat": 633.0,
            "duration_beat": 0.9479166666666288,
            "velocity": 112,
            "track": 1
        },
        {
            "pitch": 59,
            "start_beat": 633.0,
            "duration_beat": 0.9479166666666288,
            "velocity": 112,
            "track": 1
        },
        {
            "pitch": 76,
            "start_beat": 634.0,
            "duration_beat": 2.8479166666667197,
            "velocity": 112,
            "track": 0
        },
        {
            "pitch": 80,
            "start_beat": 634.0,
            "duration_beat": 2.8479166666667197,
            "velocity": 112,
            "track": 0
        },
        {
            "pitch": 88,
            "start_beat": 634.0,
            "duration_beat": 2.8479166666667197,
            "velocity": 112,
            "track": 0
        },
        {
            "pitch": 40,
            "start_beat": 634.0,
            "duration_beat": 0.9479166666666288,
            "velocity": 112,
            "track": 1
        },
        {
            "pitch": 52,
            "start_beat": 634.0,
            "duration_beat": 0.9479166666666288,
            "velocity": 112,
            "track": 1
        },
        {
            "pitch": 52,
            "start_beat": 635.0,
            "duration_beat": 0.997916666666697,
            "velocity": 112,
            "track": 1
        },
        {
            "pitch": 59,
            "start_beat": 635.0,
            "duration_beat": 0.997916666666697,
            "velocity": 112,
            "track": 1
        },
        {
            "pitch": 56,
            "start_beat": 636.0,
            "duration_beat": 0.997916666666697,
            "velocity": 112,
            "track": 1
        },
        {
            "pitch": 64,
            "start_beat": 636.0,
            "duration_beat": 0.997916666666697,
            "velocity": 112,
            "track": 1
        },
        {
            "pitch": 76,
            "start_beat": 637.0,
            "duration_beat": 1.3374999999999773,
            "velocity": 127,
            "track": 0
        },
        {
            "pitch": 88,
            "start_beat": 637.0,
            "duration_beat": 1.3374999999999773,
            "velocity": 127,
            "track": 0
        },
        {
            "pitch": 59,
            "start_beat": 637.0,
            "duration_beat": 0.997916666666697,
            "velocity": 112,
            "track": 1
        },
        {
            "pitch": 68,
            "start_beat": 637.0,
            "duration_beat": 0.997916666666697,
            "velocity": 112,
            "track": 1
        },
        {
            "pitch": 56,
            "start_beat": 638.0,
            "duration_beat": 0.997916666666697,
            "velocity": 112,
            "track": 1
        },
        {
            "pitch": 64,
            "start_beat": 638.0,
            "duration_beat": 0.997916666666697,
            "velocity": 112,
            "track": 1
        },
        {
            "pitch": 76,
            "start_beat": 639.0,
            "duration_beat": 0.6666666666666288,
            "velocity": 127,
            "track": 0
        },
        {
            "pitch": 88,
            "start_beat": 639.0,
            "duration_beat": 0.6666666666666288,
            "velocity": 127,
            "track": 0
        },
        {
            "pitch": 52,
            "start_beat": 639.0,
            "duration_beat": 0.9479166666666288,
            "velocity": 112,
            "track": 1
        },
        {
            "pitch": 59,
            "start_beat": 639.0,
            "duration_beat": 0.9479166666666288,
            "velocity": 112,
            "track": 1
        },
        {
            "pitch": 76,
            "start_beat": 640.0,
            "duration_beat": 1.997916666666697,
            "velocity": 112,
            "track": 0
        },
        {
            "pitch": 88,
            "start_beat": 640.0,
            "duration_beat": 1.997916666666697,
            "velocity": 112,
            "track": 0
        },
        {
            "pitch": 81,
            "start_beat": 640.0,
            "duration_beat": 5.997916666666697,
            "velocity": 112,
            "track": 0
        },
        {
            "pitch": 42,
            "start_beat": 640.0,
            "duration_beat": 0.9479166666666288,
            "velocity": 112,
            "track": 1
        },
        {
            "pitch": 54,
            "start_beat": 640.0,
            "duration_beat": 0.9479166666666288,
            "velocity": 112,
            "track": 1
        },
        {
            "pitch": 54,
            "start_beat": 641.0,
            "duration_beat": 0.997916666666697,
            "velocity": 112,
            "track": 1
        },
        {
            "pitch": 62,
            "start_beat": 641.0,
            "duration_beat": 0.997916666666697,
            "velocity": 112,
            "track": 1
        },
        {
            "pitch": 74,
            "start_beat": 642.0,
            "duration_beat": 0.9479166666666288,
            "velocity": 112,
            "track": 0
        },
        {
            "pitch": 86,
            "start_beat": 642.0,
            "duration_beat": 0.9479166666666288,
            "velocity": 112,
            "track": 0
        },
        {
            "pitch": 57,
            "start_beat": 642.0,
            "duration_beat": 0.9479166666666288,
            "velocity": 112,
            "track": 1
        },
        {
            "pitch": 69,
            "start_beat": 642.0,
            "duration_beat": 0.9479166666666288,
            "velocity": 112,
            "track": 1
        },
        {
            "pitch": 74,
            "start_beat": 643.0,
            "duration_beat": 0.3312499999999545,
            "velocity": 112,
            "track": 0
        },
        {
            "pitch": 86,
            "start_beat": 643.0,
            "duration_beat": 0.3312499999999545,
            "velocity": 112,
            "track": 0
        },
        {
            "pitch": 35,
            "start_beat": 643.0,
            "duration_beat": 0.9479166666666288,
            "velocity": 112,
            "track": 1
        },
        {
            "pitch": 47,
            "start_beat": 643.0,
            "duration_beat": 0.9479166666666288,
            "velocity": 112,
            "track": 1
        },
        {
            "pitch": 76,
            "start_beat": 643.3333333333334,
            "duration_beat": 0.3312499999999545,
            "velocity": 112,
            "track": 0
        },
        {
            "pitch": 88,
            "start_beat": 643.3333333333334,
            "duration_beat": 0.3312499999999545,
            "velocity": 112,
            "track": 0
        },
        {
            "pitch": 74,
            "start_beat": 643.6666666666666,
            "duration_beat": 0.3312500000000682,
            "velocity": 112,
            "track": 0
        },
        {
            "pitch": 86,
            "start_beat": 643.6666666666666,
            "duration_beat": 0.3312500000000682,
            "velocity": 112,
            "track": 0
        },
        {
            "pitch": 73,
            "start_beat": 644.0,
            "duration_beat": 0.497916666666697,
            "velocity": 112,
            "track": 0
        },
        {
            "pitch": 85,
            "start_beat": 644.0,
            "duration_beat": 0.497916666666697,
            "velocity": 112,
            "track": 0
        },
        {
            "pitch": 54,
            "start_beat": 644.0,
            "duration_beat": 0.997916666666697,
            "velocity": 112,
            "track": 1
        },
        {
            "pitch": 62,
            "start_beat": 644.0,
            "duration_beat": 1.997916666666697,
            "velocity": 112,
            "track": 1
        },
        {
            "pitch": 74,
            "start_beat": 644.5,
            "duration_beat": 0.497916666666697,
            "velocity": 112,
            "track": 0
        },
        {
            "pitch": 86,
            "start_beat": 644.5,
            "duration_beat": 0.497916666666697,
            "velocity": 112,
            "track": 0
        },
        {
            "pitch": 78,
            "start_beat": 645.0,
            "duration_beat": 0.497916666666697,
            "velocity": 112,
            "track": 0
        },
        {
            "pitch": 90,
            "start_beat": 645.0,
            "duration_beat": 0.497916666666697,
            "velocity": 112,
            "track": 0
        },
        {
            "pitch": 59,
            "start_beat": 645.0,
            "duration_beat": 0.9479166666666288,
            "velocity": 112,
            "track": 1
        },
        {
            "pitch": 69,
            "start_beat": 645.0,
            "duration_beat": 0.9479166666666288,
            "velocity": 112,
            "track": 1
        },
        {
            "pitch": 76,
            "start_beat": 645.5,
            "duration_beat": 0.4729166666667197,
            "velocity": 112,
            "track": 0
        },
        {
            "pitch": 88,
            "start_beat": 645.5,
            "duration_beat": 0.4729166666667197,
            "velocity": 112,
            "track": 0
        },
        {
            "pitch": 74,
            "start_beat": 646.0,
            "duration_beat": 1.997916666666697,
            "velocity": 112,
            "track": 0
        },
        {
            "pitch": 86,
            "start_beat": 646.0,
            "duration_beat": 1.997916666666697,
            "velocity": 112,
            "track": 0
        },
        {
            "pitch": 80,
            "start_beat": 646.0,
            "duration_beat": 5.997916666666697,
            "velocity": 112,
            "track": 0
        },
        {
            "pitch": 40,
            "start_beat": 646.0,
            "duration_beat": 0.9479166666666288,
            "velocity": 112,
            "track": 1
        },
        {
            "pitch": 52,
            "start_beat": 646.0,
            "duration_beat": 0.9479166666666288,
            "velocity": 112,
            "track": 1
        },
        {
            "pitch": 52,
            "start_beat": 647.0,
            "duration_beat": 0.997916666666697,
            "velocity": 112,
            "track": 1
        },
        {
            "pitch": 61,
            "start_beat": 647.0,
            "duration_beat": 0.997916666666697,
            "velocity": 112,
            "track": 1
        },
        {
            "pitch": 73,
            "start_beat": 648.0,
            "duration_beat": 0.9479166666666288,
            "velocity": 112,
            "track": 0
        },
        {
            "pitch": 85,
            "start_beat": 648.0,
            "duration_beat": 0.9479166666666288,
            "velocity": 112,
            "track": 0
        },
        {
            "pitch": 56,
            "start_beat": 648.0,
            "duration_beat": 0.9479166666666288,
            "velocity": 112,
            "track": 1
        },
        {
            "pitch": 68,
            "start_beat": 648.0,
            "duration_beat": 0.9479166666666288,
            "velocity": 112,
            "track": 1
        },
        {
            "pitch": 73,
            "start_beat": 649.0,
            "duration_beat": 0.3312499999999545,
            "velocity": 112,
            "track": 0
        },
        {
            "pitch": 85,
            "start_beat": 649.0,
            "duration_beat": 0.3312499999999545,
            "velocity": 112,
            "track": 0
        },
        {
            "pitch": 33,
            "start_beat": 649.0,
            "duration_beat": 0.9479166666666288,
            "velocity": 112,
            "track": 1
        },
        {
            "pitch": 45,
            "start_beat": 649.0,
            "duration_beat": 0.9479166666666288,
            "velocity": 112,
            "track": 1
        },
        {
            "pitch": 74,
            "start_beat": 649.3333333333334,
            "duration_beat": 0.3312499999999545,
            "velocity": 112,
            "track": 0
        },
        {
            "pitch": 86,
            "start_beat": 649.3333333333334,
            "duration_beat": 0.3312499999999545,
            "velocity": 112,
            "track": 0
        },
        {
            "pitch": 73,
            "start_beat": 649.6666666666666,
            "duration_beat": 0.3312500000000682,
            "velocity": 112,
            "track": 0
        },
        {
            "pitch": 85,
            "start_beat": 649.6666666666666,
            "duration_beat": 0.3312500000000682,
            "velocity": 112,
            "track": 0
        },
        {
            "pitch": 72,
            "start_beat": 650.0,
            "duration_beat": 0.497916666666697,
            "velocity": 112,
            "track": 0
        },
        {
            "pitch": 84,
            "start_beat": 650.0,
            "duration_beat": 0.497916666666697,
            "velocity": 112,
            "track": 0
        },
        {
            "pitch": 52,
            "start_beat": 650.0,
            "duration_beat": 0.997916666666697,
            "velocity": 112,
            "track": 1
        },
        {
            "pitch": 61,
            "start_beat": 650.0,
            "duration_beat": 1.997916666666697,
            "velocity": 112,
            "track": 1
        },
        {
            "pitch": 73,
            "start_beat": 650.5,
            "duration_beat": 0.497916666666697,
            "velocity": 112,
            "track": 0
        },
        {
            "pitch": 85,
            "start_beat": 650.5,
            "duration_beat": 0.497916666666697,
            "velocity": 112,
            "track": 0
        },
        {
            "pitch": 76,
            "start_beat": 651.0,
            "duration_beat": 0.497916666666697,
            "velocity": 112,
            "track": 0
        },
        {
            "pitch": 88,
            "start_beat": 651.0,
            "duration_beat": 0.497916666666697,
            "velocity": 112,
            "track": 0
        },
        {
            "pitch": 57,
            "start_beat": 651.0,
            "duration_beat": 0.9479166666666288,
            "velocity": 112,
            "track": 1
        },
        {
            "pitch": 68,
            "start_beat": 651.0,
            "duration_beat": 0.9479166666666288,
            "velocity": 112,
            "track": 1
        },
        {
            "pitch": 74,
            "start_beat": 651.5,
            "duration_beat": 0.4729166666667197,
            "velocity": 112,
            "track": 0
        },
        {
            "pitch": 86,
            "start_beat": 651.5,
            "duration_beat": 0.4729166666667197,
            "velocity": 112,
            "track": 0
        },
        {
            "pitch": 73,
            "start_beat": 652.0,
            "duration_beat": 0.997916666666697,
            "velocity": 112,
            "track": 0
        },
        {
            "pitch": 85,
            "start_beat": 652.0,
            "duration_beat": 0.997916666666697,
            "velocity": 112,
            "track": 0
        },
        {
            "pitch": 78,
            "start_beat": 652.0,
            "duration_beat": 2.997916666666697,
            "velocity": 112,
            "track": 0
        },
        {
            "pitch": 38,
            "start_beat": 652.0,
            "duration_beat": 0.9479166666666288,
            "velocity": 112,
            "track": 1
        },
        {
            "pitch": 50,
            "start_beat": 652.0,
            "duration_beat": 0.9479166666666288,
            "velocity": 112,
            "track": 1
        },
        {
            "pitch": 71,
            "start_beat": 653.0,
            "duration_beat": 1.497916666666697,
            "velocity": 112,
            "track": 0
        },
        {
            "pitch": 83,
            "start_beat": 653.0,
            "duration_beat": 1.497916666666697,
            "velocity": 112,
            "track": 0
        },
        {
            "pitch": 50,
            "start_beat": 653.0,
            "duration_beat": 0.997916666666697,
            "velocity": 112,
            "track": 1
        },
        {
            "pitch": 59,
            "start_beat": 653.0,
            "duration_beat": 0.997916666666697,
            "velocity": 112,
            "track": 1
        },
        {
            "pitch": 54,
            "start_beat": 654.0,
            "duration_beat": 0.9479166666666288,
            "velocity": 112,
            "track": 1
        },
        {
            "pitch": 66,
            "start_beat": 654.0,
            "duration_beat": 0.9479166666666288,
            "velocity": 112,
            "track": 1
        },
        {
            "pitch": 70,
            "start_beat": 654.5,
            "duration_beat": 0.4729166666667197,
            "velocity": 112,
            "track": 0
        },
        {
            "pitch": 82,
            "start_beat": 654.5,
            "duration_beat": 0.4729166666667197,
            "velocity": 112,
            "track": 0
        },
        {
            "pitch": 71,
            "start_beat": 655.0,
            "duration_beat": 0.747916666666697,
            "velocity": 112,
            "track": 0
        },
        {
            "pitch": 83,
            "start_beat": 655.0,
            "duration_beat": 0.747916666666697,
            "velocity": 112,
            "track": 0
        },
        {
            "pitch": 77,
            "start_beat": 655.0,
            "duration_beat": 2.997916666666697,
            "velocity": 112,
            "track": 0
        },
        {
            "pitch": 37,
            "start_beat": 655.0,
            "duration_beat": 0.9479166666666288,
            "velocity": 112,
            "track": 1
        },
        {
            "pitch": 49,
            "start_beat": 655.0,
            "duration_beat": 0.9479166666666288,
            "velocity": 112,
            "track": 1
        },
        {
            "pitch": 72,
            "start_beat": 655.75,
            "duration_beat": 0.747916666666697,
            "velocity": 112,
            "track": 0
        },
        {
            "pitch": 84,
            "start_beat": 655.75,
            "duration_beat": 0.747916666666697,
            "velocity": 112,
            "track": 0
        },
        {
            "pitch": 56,
            "start_beat": 656.0,
            "duration_beat": 0.997916666666697,
            "velocity": 112,
            "track": 1
        },
        {
            "pitch": 61,
            "start_beat": 656.0,
            "duration_beat": 0.997916666666697,
            "velocity": 112,
            "track": 1
        },
        {
            "pitch": 73,
            "start_beat": 656.5,
            "duration_beat": 0.747916666666697,
            "velocity": 112,
            "track": 0
        },
        {
            "pitch": 85,
            "start_beat": 656.5,
            "duration_beat": 0.747916666666697,
            "velocity": 112,
            "track": 0
        },
        {
            "pitch": 59,
            "start_beat": 657.0,
            "duration_beat": 0.9479166666666288,
            "velocity": 112,
            "track": 1
        },
        {
            "pitch": 65,
            "start_beat": 657.0,
            "duration_beat": 0.9479166666666288,
            "velocity": 112,
            "track": 1
        },
        {
            "pitch": 68,
            "start_beat": 657.25,
            "duration_beat": 0.7104166666666742,
            "velocity": 112,
            "track": 0
        },
        {
            "pitch": 80,
            "start_beat": 657.25,
            "duration_beat": 0.7104166666666742,
            "velocity": 112,
            "track": 0
        },
        {
            "pitch": 71,
            "start_beat": 658.0,
            "duration_beat": 0.997916666666697,
            "velocity": 112,
            "track": 0
        },
        {
            "pitch": 83,
            "start_beat": 658.0,
            "duration_beat": 0.997916666666697,
            "velocity": 112,
            "track": 0
        },
        {
            "pitch": 73,
            "start_beat": 658.0,
            "duration_beat": 2.997916666666697,
            "velocity": 112,
            "track": 0
        },
        {
            "pitch": 78,
            "start_beat": 658.0,
            "duration_beat": 2.997916666666697,
            "velocity": 112,
            "track": 0
        },
        {
            "pitch": 30,
            "start_beat": 658.0,
            "duration_beat": 0.9479166666666288,
            "velocity": 112,
            "track": 1
        },
        {
            "pitch": 42,
            "start_beat": 658.0,
            "duration_beat": 0.9479166666666288,
            "velocity": 112,
            "track": 1
        },
        {
            "pitch": 81,
            "start_beat": 659.0,
            "duration_beat": 1.497916666666697,
            "velocity": 112,
            "track": 0
        },
        {
            "pitch": 69,
            "start_beat": 659.0,
            "duration_beat": 1.997916666666697,
            "velocity": 112,
            "track": 0
        },
        {
            "pitch": 61,
            "start_beat": 659.0,
            "duration_beat": 0.997916666666697,
            "velocity": 112,
            "track": 1
        },
        {
            "pitch": 57,
            "start_beat": 660.0,
            "duration_beat": 0.9479166666666288,
            "velocity": 112,
            "track": 1
        },
        {
            "pitch": 66,
            "start_beat": 660.0,
            "duration_beat": 0.9479166666666288,
            "velocity": 112,
            "track": 1
        },
        {
            "pitch": 80,
            "start_beat": 660.5,
            "duration_beat": 0.497916666666697,
            "velocity": 112,
            "track": 0
        },
        {
            "pitch": 78,
            "start_beat": 661.0,
            "duration_beat": 0.12291666666669698,
            "velocity": 112,
            "track": 0
        },
        {
            "pitch": 69,
            "start_beat": 661.0,
            "duration_beat": 0.9479166666666288,
            "velocity": 112,
            "track": 0
        },
        {
            "pitch": 71,
            "start_beat": 661.0,
            "duration_beat": 0.9479166666666288,
            "velocity": 112,
            "track": 0
        },
        {
            "pitch": 75,
            "start_beat": 661.0,
            "duration_beat": 0.9479166666666288,
            "velocity": 112,
            "track": 0
        },
        {
            "pitch": 35,
            "start_beat": 661.0,
            "duration_beat": 0.9479166666666288,
            "velocity": 112,
            "track": 1
        },
        {
            "pitch": 47,
            "start_beat": 661.0,
            "duration_beat": 0.9479166666666288,
            "velocity": 112,
            "track": 1
        },
        {
            "pitch": 80,
            "start_beat": 661.125,
            "duration_beat": 0.12291666666669698,
            "velocity": 112,
            "track": 0
        },
        {
            "pitch": 78,
            "start_beat": 661.25,
            "duration_beat": 0.7083333333333712,
            "velocity": 112,
            "track": 0
        },
        {
            "pitch": 77,
            "start_beat": 662.0,
            "duration_beat": 0.24791666666669698,
            "velocity": 112,
            "track": 0
        },
        {
            "pitch": 69,
            "start_beat": 662.0,
            "duration_beat": 0.497916666666697,
            "velocity": 112,
            "track": 0
        },
        {
            "pitch": 71,
            "start_beat": 662.0,
            "duration_beat": 0.497916666666697,
            "velocity": 112,
            "track": 0
        },
        {
            "pitch": 75,
            "start_beat": 662.0,
            "duration_beat": 0.497916666666697,
            "velocity": 112,
            "track": 0
        },
        {
            "pitch": 59,
            "start_beat": 662.0,
            "duration_beat": 0.997916666666697,
            "velocity": 112,
            "track": 1
        },
        {
            "pitch": 78,
            "start_beat": 662.5,
            "duration_beat": 0.24791666666669698,
            "velocity": 112,
            "track": 0
        },
        {
            "pitch": 69,
            "start_beat": 662.5,
            "duration_beat": 0.497916666666697,
            "velocity": 112,
            "track": 0
        },
        {
            "pitch": 71,
            "start_beat": 662.5,
            "duration_beat": 0.497916666666697,
            "velocity": 112,
            "track": 0
        },
        {
            "pitch": 75,
            "start_beat": 662.5,
            "duration_beat": 0.497916666666697,
            "velocity": 112,
            "track": 0
        },
        {
            "pitch": 80,
            "start_beat": 663.0,
            "duration_beat": 0.24791666666669698,
            "velocity": 112,
            "track": 0
        },
        {
            "pitch": 69,
            "start_beat": 663.0,
            "duration_beat": 0.497916666666697,
            "velocity": 112,
            "track": 0
        },
        {
            "pitch": 71,
            "start_beat": 663.0,
            "duration_beat": 0.497916666666697,
            "velocity": 112,
            "track": 0
        },
        {
            "pitch": 75,
            "start_beat": 663.0,
            "duration_beat": 0.497916666666697,
            "velocity": 112,
            "track": 0
        },
        {
            "pitch": 57,
            "start_beat": 663.0,
            "duration_beat": 0.9479166666666288,
            "velocity": 112,
            "track": 1
        },
        {
            "pitch": 63,
            "start_beat": 663.0,
            "duration_beat": 0.9479166666666288,
            "velocity": 112,
            "track": 1
        },
        {
            "pitch": 81,
            "start_beat": 663.5,
            "duration_beat": 0.24791666666669698,
            "velocity": 112,
            "track": 0
        },
        {
            "pitch": 69,
            "start_beat": 663.5,
            "duration_beat": 0.4729166666667197,
            "velocity": 112,
            "track": 0
        },
        {
            "pitch": 71,
            "start_beat": 663.5,
            "duration_beat": 0.4729166666667197,
            "velocity": 112,
            "track": 0
        },
        {
            "pitch": 75,
            "start_beat": 663.5,
            "duration_beat": 0.4729166666667197,
            "velocity": 112,
            "track": 0
        },
        {
            "pitch": 62,
            "start_beat": 664.0,
            "duration_beat": 2.997916666666697,
            "velocity": 112,
            "track": 0
        },
        {
            "pitch": 64,
            "start_beat": 664.0,
            "duration_beat": 2.997916666666697,
            "velocity": 112,
            "track": 0
        },
        {
            "pitch": 68,
            "start_beat": 664.0,
            "duration_beat": 2.997916666666697,
            "velocity": 112,
            "track": 0
        },
        {
            "pitch": 71,
            "start_beat": 664.0,
            "duration_beat": 2.997916666666697,
            "velocity": 112,
            "track": 0
        },
        {
            "pitch": 28,
            "start_beat": 664.0,
            "duration_beat": 0.9479166666666288,
            "velocity": 112,
            "track": 1
        },
        {
            "pitch": 40,
            "start_beat": 664.0,
            "duration_beat": 0.9479166666666288,
            "velocity": 112,
            "track": 1
        },
        {
            "pitch": 47,
            "start_beat": 665.0,
            "duration_beat": 0.9479166666666288,
            "velocity": 112,
            "track": 1
        },
        {
            "pitch": 56,
            "start_beat": 665.0,
            "duration_beat": 0.9479166666666288,
            "velocity": 112,
            "track": 1
        },
        {
            "pitch": 52,
            "start_beat": 666.0,
            "duration_beat": 0.9479166666666288,
            "velocity": 112,
            "track": 1
        },
        {
            "pitch": 59,
            "start_beat": 666.0,
            "duration_beat": 0.9479166666666288,
            "velocity": 112,
            "track": 1
        },
        {
            "pitch": 64,
            "start_beat": 667.0,
            "duration_beat": 1.997916666666697,
            "velocity": 112,
            "track": 0
        },
        {
            "pitch": 68,
            "start_beat": 667.0,
            "duration_beat": 1.997916666666697,
            "velocity": 112,
            "track": 0
        },
        {
            "pitch": 73,
            "start_beat": 667.0,
            "duration_beat": 1.997916666666697,
            "velocity": 112,
            "track": 0
        },
        {
            "pitch": 76,
            "start_beat": 667.0,
            "duration_beat": 1.997916666666697,
            "velocity": 112,
            "track": 0
        },
        {
            "pitch": 56,
            "start_beat": 667.0,
            "duration_beat": 0.9479166666666288,
            "velocity": 112,
            "track": 1
        },
        {
            "pitch": 62,
            "start_beat": 667.0,
            "duration_beat": 0.9479166666666288,
            "velocity": 112,
            "track": 1
        },
        {
            "pitch": 52,
            "start_beat": 668.0,
            "duration_beat": 0.9479166666666288,
            "velocity": 112,
            "track": 1
        },
        {
            "pitch": 59,
            "start_beat": 668.0,
            "duration_beat": 0.9479166666666288,
            "velocity": 112,
            "track": 1
        },
        {
            "pitch": 62,
            "start_beat": 669.0,
            "duration_beat": 0.997916666666697,
            "velocity": 112,
            "track": 0
        },
        {
            "pitch": 64,
            "start_beat": 669.0,
            "duration_beat": 0.997916666666697,
            "velocity": 112,
            "track": 0
        },
        {
            "pitch": 68,
            "start_beat": 669.0,
            "duration_beat": 0.997916666666697,
            "velocity": 112,
            "track": 0
        },
        {
            "pitch": 73,
            "start_beat": 669.0,
            "duration_beat": 0.997916666666697,
            "velocity": 112,
            "track": 0
        },
        {
            "pitch": 76,
            "start_beat": 669.0,
            "duration_beat": 0.997916666666697,
            "velocity": 112,
            "track": 0
        },
        {
            "pitch": 47,
            "start_beat": 669.0,
            "duration_beat": 0.9479166666666288,
            "velocity": 112,
            "track": 1
        },
        {
            "pitch": 56,
            "start_beat": 669.0,
            "duration_beat": 0.9479166666666288,
            "velocity": 112,
            "track": 1
        },
        {
            "pitch": 57,
            "start_beat": 670.0,
            "duration_beat": 0.9479166666666288,
            "velocity": 112,
            "track": 0
        },
        {
            "pitch": 61,
            "start_beat": 670.0,
            "duration_beat": 0.9479166666666288,
            "velocity": 112,
            "track": 0
        },
        {
            "pitch": 69,
            "start_beat": 670.0,
            "duration_beat": 0.9479166666666288,
            "velocity": 112,
            "track": 0
        },
        {
            "pitch": 33,
            "start_beat": 670.0,
            "duration_beat": 0.9479166666666288,
            "velocity": 112,
            "track": 1
        },
        {
            "pitch": 45,
            "start_beat": 670.0,
            "duration_beat": 0.9479166666666288,
            "velocity": 112,
            "track": 1
        },
        {
            "pitch": 52,
            "start_beat": 671.0,
            "duration_beat": 0.9479166666666288,
            "velocity": 112,
            "track": 1
        },
        {
            "pitch": 61,
            "start_beat": 671.0,
            "duration_beat": 0.9479166666666288,
            "velocity": 112,
            "track": 1
        },
        {
            "pitch": 69,
            "start_beat": 672.0,
            "duration_beat": 0.997916666666697,
            "velocity": 112,
            "track": 0
        },
        {
            "pitch": 73,
            "start_beat": 672.0,
            "duration_beat": 0.997916666666697,
            "velocity": 112,
            "track": 0
        },
        {
            "pitch": 81,
            "start_beat": 672.0,
            "duration_beat": 0.997916666666697,
            "velocity": 112,
            "track": 0
        },
        {
            "pitch": 57,
            "start_beat": 672.0,
            "duration_beat": 0.9479166666666288,
            "velocity": 112,
            "track": 1
        },
        {
            "pitch": 64,
            "start_beat": 672.0,
            "duration_beat": 0.9479166666666288,
            "velocity": 112,
            "track": 1
        },
        {
            "pitch": 81,
            "start_beat": 673.0,
            "duration_beat": 1.997916666666697,
            "velocity": 112,
            "track": 0
        },
        {
            "pitch": 85,
            "start_beat": 673.0,
            "duration_beat": 1.997916666666697,
            "velocity": 112,
            "track": 0
        },
        {
            "pitch": 93,
            "start_beat": 673.0,
            "duration_beat": 1.997916666666697,
            "velocity": 112,
            "track": 0
        },
        {
            "pitch": 61,
            "start_beat": 673.0,
            "duration_beat": 0.9479166666666288,
            "velocity": 112,
            "track": 1
        },
        {
            "pitch": 69,
            "start_beat": 673.0,
            "duration_beat": 0.9479166666666288,
            "velocity": 112,
            "track": 1
        },
        {
            "pitch": 57,
            "start_beat": 674.0,
            "duration_beat": 0.9479166666666288,
            "velocity": 112,
            "track": 1
        },
        {
            "pitch": 64,
            "start_beat": 674.0,
            "duration_beat": 0.9479166666666288,
            "velocity": 112,
            "track": 1
        },
        {
            "pitch": 80,
            "start_beat": 675.0,
            "duration_beat": 0.997916666666697,
            "velocity": 112,
            "track": 0
        },
        {
            "pitch": 85,
            "start_beat": 675.0,
            "duration_beat": 0.997916666666697,
            "velocity": 112,
            "track": 0
        },
        {
            "pitch": 92,
            "start_beat": 675.0,
            "duration_beat": 0.997916666666697,
            "velocity": 112,
            "track": 0
        },
        {
            "pitch": 52,
            "start_beat": 675.0,
            "duration_beat": 0.9479166666666288,
            "velocity": 112,
            "track": 1
        },
        {
            "pitch": 61,
            "start_beat": 675.0,
            "duration_beat": 0.9479166666666288,
            "velocity": 112,
            "track": 1
        },
        {
            "pitch": 78,
            "start_beat": 676.0,
            "duration_beat": 2.997916666666697,
            "velocity": 112,
            "track": 0
        },
        {
            "pitch": 85,
            "start_beat": 676.0,
            "duration_beat": 2.997916666666697,
            "velocity": 112,
            "track": 0
        },
        {
            "pitch": 90,
            "start_beat": 676.0,
            "duration_beat": 2.997916666666697,
            "velocity": 112,
            "track": 0
        },
        {
            "pitch": 35,
            "start_beat": 676.0,
            "duration_beat": 0.9479166666666288,
            "velocity": 112,
            "track": 1
        },
        {
            "pitch": 47,
            "start_beat": 676.0,
            "duration_beat": 0.9479166666666288,
            "velocity": 112,
            "track": 1
        },
        {
            "pitch": 54,
            "start_beat": 677.0,
            "duration_beat": 0.9479166666666288,
            "velocity": 112,
            "track": 1
        },
        {
            "pitch": 59,
            "start_beat": 677.0,
            "duration_beat": 0.9479166666666288,
            "velocity": 112,
            "track": 1
        },
        {
            "pitch": 57,
            "start_beat": 678.0,
            "duration_beat": 0.9479166666666288,
            "velocity": 112,
            "track": 1
        },
        {
            "pitch": 63,
            "start_beat": 678.0,
            "duration_beat": 0.9479166666666288,
            "velocity": 112,
            "track": 1
        },
        {
            "pitch": 83,
            "start_beat": 679.0,
            "duration_beat": 1.997916666666697,
            "velocity": 112,
            "track": 0
        },
        {
            "pitch": 87,
            "start_beat": 679.0,
            "duration_beat": 1.997916666666697,
            "velocity": 112,
            "track": 0
        },
        {
            "pitch": 92,
            "start_beat": 679.0,
            "duration_beat": 1.997916666666697,
            "velocity": 112,
            "track": 0
        },
        {
            "pitch": 59,
            "start_beat": 679.0,
            "duration_beat": 0.9479166666666288,
            "velocity": 112,
            "track": 1
        },
        {
            "pitch": 66,
            "start_beat": 679.0,
            "duration_beat": 0.9479166666666288,
            "velocity": 112,
            "track": 1
        },
        {
            "pitch": 57,
            "start_beat": 680.0,
            "duration_beat": 0.9479166666666288,
            "velocity": 112,
            "track": 1
        },
        {
            "pitch": 63,
            "start_beat": 680.0,
            "duration_beat": 0.9479166666666288,
            "velocity": 112,
            "track": 1
        },
        {
            "pitch": 81,
            "start_beat": 681.0,
            "duration_beat": 0.997916666666697,
            "velocity": 112,
            "track": 0
        },
        {
            "pitch": 87,
            "start_beat": 681.0,
            "duration_beat": 0.997916666666697,
            "velocity": 112,
            "track": 0
        },
        {
            "pitch": 92,
            "start_beat": 681.0,
            "duration_beat": 0.997916666666697,
            "velocity": 112,
            "track": 0
        },
        {
            "pitch": 54,
            "start_beat": 681.0,
            "duration_beat": 0.9479166666666288,
            "velocity": 112,
            "track": 1
        },
        {
            "pitch": 59,
            "start_beat": 681.0,
            "duration_beat": 0.9479166666666288,
            "velocity": 112,
            "track": 1
        },
        {
            "pitch": 76,
            "start_beat": 682.0,
            "duration_beat": 1.8979166666666742,
            "velocity": 112,
            "track": 0
        },
        {
            "pitch": 80,
            "start_beat": 682.0,
            "duration_beat": 1.8979166666666742,
            "velocity": 112,
            "track": 0
        },
        {
            "pitch": 88,
            "start_beat": 682.0,
            "duration_beat": 1.8979166666666742,
            "velocity": 112,
            "track": 0
        },
        {
            "pitch": 40,
            "start_beat": 682.0,
            "duration_beat": 0.9479166666666288,
            "velocity": 112,
            "track": 1
        },
        {
            "pitch": 52,
            "start_beat": 682.0,
            "duration_beat": 0.9479166666666288,
            "velocity": 112,
            "track": 1
        },
        {
            "pitch": 52,
            "start_beat": 683.0,
            "duration_beat": 0.9479166666666288,
            "velocity": 112,
            "track": 1
        },
        {
            "pitch": 59,
            "start_beat": 683.0,
            "duration_beat": 0.9479166666666288,
            "velocity": 112,
            "track": 1
        },
        {
            "pitch": 56,
            "start_beat": 684.0,
            "duration_beat": 0.9479166666666288,
            "velocity": 112,
            "track": 1
        },
        {
            "pitch": 64,
            "start_beat": 684.0,
            "duration_beat": 0.9479166666666288,
            "velocity": 112,
            "track": 1
        },
        {
            "pitch": 88,
            "start_beat": 685.0,
            "duration_beat": 2.6104166666666515,
            "velocity": 112,
            "track": 0
        },
        {
            "pitch": 100,
            "start_beat": 685.0,
            "duration_beat": 2.6104166666666515,
            "velocity": 112,
            "track": 0
        },
        {
            "pitch": 59,
            "start_beat": 685.0,
            "duration_beat": 0.9479166666666288,
            "velocity": 112,
            "track": 1
        },
        {
            "pitch": 68,
            "start_beat": 685.0,
            "duration_beat": 0.9479166666666288,
            "velocity": 112,
            "track": 1
        },
        {
            "pitch": 56,
            "start_beat": 686.0,
            "duration_beat": 0.9479166666666288,
            "velocity": 112,
            "track": 1
        },
        {
            "pitch": 64,
            "start_beat": 686.0,
            "duration_beat": 0.9479166666666288,
            "velocity": 112,
            "track": 1
        },
        {
            "pitch": 52,
            "start_beat": 687.0,
            "duration_beat": 0.9479166666666288,
            "velocity": 112,
            "track": 1
        },
        {
            "pitch": 59,
            "start_beat": 687.0,
            "duration_beat": 0.9479166666666288,
            "velocity": 112,
            "track": 1
        },
        {
            "pitch": 88,
            "start_beat": 687.75,
            "duration_beat": 0.2354166666666515,
            "velocity": 112,
            "track": 0
        },
        {
            "pitch": 100,
            "start_beat": 687.75,
            "duration_beat": 0.2354166666666515,
            "velocity": 112,
            "track": 0
        },
        {
            "pitch": 88,
            "start_beat": 688.0,
            "duration_beat": 0.497916666666697,
            "velocity": 112,
            "track": 0
        },
        {
            "pitch": 100,
            "start_beat": 688.0,
            "duration_beat": 0.497916666666697,
            "velocity": 112,
            "track": 0
        },
        {
            "pitch": 40,
            "start_beat": 688.0,
            "duration_beat": 0.9479166666666288,
            "velocity": 112,
            "track": 1
        },
        {
            "pitch": 52,
            "start_beat": 688.0,
            "duration_beat": 0.9479166666666288,
            "velocity": 112,
            "track": 1
        },
        {
            "pitch": 52,
            "start_beat": 689.0,
            "duration_beat": 0.9479166666666288,
            "velocity": 112,
            "track": 1
        },
        {
            "pitch": 58,
            "start_beat": 689.0,
            "duration_beat": 0.9479166666666288,
            "velocity": 112,
            "track": 1
        },
        {
            "pitch": 54,
            "start_beat": 690.0,
            "duration_beat": 0.9479166666666288,
            "velocity": 112,
            "track": 1
        },
        {
            "pitch": 61,
            "start_beat": 690.0,
            "duration_beat": 0.9479166666666288,
            "velocity": 112,
            "track": 1
        },
        {
            "pitch": 66,
            "start_beat": 691.0,
            "duration_beat": 3.7979166666666515,
            "velocity": 96,
            "track": 0
        },
        {
            "pitch": 78,
            "start_beat": 691.0,
            "duration_beat": 3.7979166666666515,
            "velocity": 96,
            "track": 0
        },
        {
            "pitch": 58,
            "start_beat": 691.0,
            "duration_beat": 0.9479166666666288,
            "velocity": 96,
            "track": 1
        },
        {
            "pitch": 64,
            "start_beat": 691.0,
            "duration_beat": 0.9479166666666288,
            "velocity": 96,
            "track": 1
        },
        {
            "pitch": 54,
            "start_beat": 692.0,
            "duration_beat": 0.9479166666666288,
            "velocity": 96,
            "track": 1
        },
        {
            "pitch": 61,
            "start_beat": 692.0,
            "duration_beat": 0.9479166666666288,
            "velocity": 96,
            "track": 1
        },
        {
            "pitch": 52,
            "start_beat": 693.0,
            "duration_beat": 0.9479166666666288,
            "velocity": 96,
            "track": 1
        },
        {
            "pitch": 58,
            "start_beat": 693.0,
            "duration_beat": 0.9479166666666288,
            "velocity": 96,
            "track": 1
        },
        {
            "pitch": 28,
            "start_beat": 694.0,
            "duration_beat": 0.9479166666666288,
            "velocity": 96,
            "track": 1
        },
        {
            "pitch": 40,
            "start_beat": 694.0,
            "duration_beat": 0.9479166666666288,
            "velocity": 96,
            "track": 1
        },
        {
            "pitch": 66,
            "start_beat": 695.0,
            "duration_beat": 0.3312499999999545,
            "velocity": 96,
            "track": 0
        },
        {
            "pitch": 78,
            "start_beat": 695.0,
            "duration_beat": 0.3312499999999545,
            "velocity": 96,
            "track": 0
        },
        {
            "pitch": 52,
            "start_beat": 695.0,
            "duration_beat": 0.9479166666666288,
            "velocity": 96,
            "track": 1
        },
        {
            "pitch": 58,
            "start_beat": 695.0,
            "duration_beat": 0.9479166666666288,
            "velocity": 96,
            "track": 1
        },
        {
            "pitch": 68,
            "start_beat": 695.3333333333334,
            "duration_beat": 0.3312499999999545,
            "velocity": 96,
            "track": 0
        },
        {
            "pitch": 80,
            "start_beat": 695.3333333333334,
            "duration_beat": 0.3312499999999545,
            "velocity": 96,
            "track": 0
        },
        {
            "pitch": 66,
            "start_beat": 695.6666666666666,
            "duration_beat": 0.3312500000000682,
            "velocity": 96,
            "track": 0
        },
        {
            "pitch": 78,
            "start_beat": 695.6666666666666,
            "duration_beat": 0.3312500000000682,
            "velocity": 96,
            "track": 0
        },
        {
            "pitch": 65,
            "start_beat": 696.0,
            "duration_beat": 0.497916666666697,
            "velocity": 96,
            "track": 0
        },
        {
            "pitch": 77,
            "start_beat": 696.0,
            "duration_beat": 0.497916666666697,
            "velocity": 96,
            "track": 0
        },
        {
            "pitch": 54,
            "start_beat": 696.0,
            "duration_beat": 0.9479166666666288,
            "velocity": 96,
            "track": 1
        },
        {
            "pitch": 61,
            "start_beat": 696.0,
            "duration_beat": 0.9479166666666288,
            "velocity": 96,
            "track": 1
        },
        {
            "pitch": 66,
            "start_beat": 696.5,
            "duration_beat": 0.497916666666697,
            "velocity": 98,
            "track": 0
        },
        {
            "pitch": 78,
            "start_beat": 696.5,
            "duration_beat": 0.497916666666697,
            "velocity": 98,
            "track": 0
        },
        {
            "pitch": 68,
            "start_beat": 697.0,
            "duration_beat": 0.497916666666697,
            "velocity": 100,
            "track": 0
        },
        {
            "pitch": 80,
            "start_beat": 697.0,
            "duration_beat": 0.497916666666697,
            "velocity": 100,
            "track": 0
        },
        {
            "pitch": 58,
            "start_beat": 697.0,
            "duration_beat": 0.9479166666666288,
            "velocity": 100,
            "track": 1
        },
        {
            "pitch": 64,
            "start_beat": 697.0,
            "duration_beat": 0.9479166666666288,
            "velocity": 100,
            "track": 1
        },
        {
            "pitch": 70,
            "start_beat": 697.5,
            "duration_beat": 0.497916666666697,
            "velocity": 102,
            "track": 0
        },
        {
            "pitch": 82,
            "start_beat": 697.5,
            "duration_beat": 0.497916666666697,
            "velocity": 102,
            "track": 0
        },
        {
            "pitch": 71,
            "start_beat": 698.0,
            "duration_beat": 0.497916666666697,
            "velocity": 104,
            "track": 0
        },
        {
            "pitch": 83,
            "start_beat": 698.0,
            "duration_beat": 0.497916666666697,
            "velocity": 104,
            "track": 0
        },
        {
            "pitch": 54,
            "start_beat": 698.0,
            "duration_beat": 0.9479166666666288,
            "velocity": 104,
            "track": 1
        },
        {
            "pitch": 61,
            "start_beat": 698.0,
            "duration_beat": 0.9479166666666288,
            "velocity": 104,
            "track": 1
        },
        {
            "pitch": 73,
            "start_beat": 698.5,
            "duration_beat": 0.497916666666697,
            "velocity": 106,
            "track": 0
        },
        {
            "pitch": 85,
            "start_beat": 698.5,
            "duration_beat": 0.497916666666697,
            "velocity": 106,
            "track": 0
        },
        {
            "pitch": 74,
            "start_beat": 699.0,
            "duration_beat": 0.497916666666697,
            "velocity": 108,
            "track": 0
        },
        {
            "pitch": 86,
            "start_beat": 699.0,
            "duration_beat": 0.497916666666697,
            "velocity": 108,
            "track": 0
        },
        {
            "pitch": 52,
            "start_beat": 699.0,
            "duration_beat": 0.9479166666666288,
            "velocity": 108,
            "track": 1
        },
        {
            "pitch": 58,
            "start_beat": 699.0,
            "duration_beat": 0.9479166666666288,
            "velocity": 108,
            "track": 1
        },
        {
            "pitch": 76,
            "start_beat": 699.5,
            "duration_beat": 0.497916666666697,
            "velocity": 110,
            "track": 0
        },
        {
            "pitch": 88,
            "start_beat": 699.5,
            "duration_beat": 0.497916666666697,
            "velocity": 110,
            "track": 0
        },
        {
            "pitch": 78,
            "start_beat": 700.0,
            "duration_beat": 0.497916666666697,
            "velocity": 112,
            "track": 0
        },
        {
            "pitch": 90,
            "start_beat": 700.0,
            "duration_beat": 0.497916666666697,
            "velocity": 112,
            "track": 0
        },
        {
            "pitch": 40,
            "start_beat": 700.0,
            "duration_beat": 0.9479166666666288,
            "velocity": 112,
            "track": 1
        },
        {
            "pitch": 52,
            "start_beat": 700.0,
            "duration_beat": 0.9479166666666288,
            "velocity": 112,
            "track": 1
        },
        {
            "pitch": 52,
            "start_beat": 701.0,
            "duration_beat": 0.9479166666666288,
            "velocity": 112,
            "track": 1
        },
        {
            "pitch": 60,
            "start_beat": 701.0,
            "duration_beat": 0.9479166666666288,
            "velocity": 112,
            "track": 1
        },
        {
            "pitch": 56,
            "start_beat": 702.0,
            "duration_beat": 0.9479166666666288,
            "velocity": 112,
            "track": 1
        },
        {
            "pitch": 63,
            "start_beat": 702.0,
            "duration_beat": 0.9479166666666288,
            "velocity": 112,
            "track": 1
        },
        {
            "pitch": 68,
            "start_beat": 703.0,
            "duration_beat": 1.8979166666666742,
            "velocity": 112,
            "track": 0
        },
        {
            "pitch": 80,
            "start_beat": 703.0,
            "duration_beat": 1.8979166666666742,
            "velocity": 112,
            "track": 0
        },
        {
            "pitch": 60,
            "start_beat": 703.0,
            "duration_beat": 0.9479166666666288,
            "velocity": 112,
            "track": 1
        },
        {
            "pitch": 66,
            "start_beat": 703.0,
            "duration_beat": 0.9479166666666288,
            "velocity": 112,
            "track": 1
        },
        {
            "pitch": 56,
            "start_beat": 704.0,
            "duration_beat": 0.9479166666666288,
            "velocity": 112,
            "track": 1
        },
        {
            "pitch": 63,
            "start_beat": 704.0,
            "duration_beat": 0.9479166666666288,
            "velocity": 112,
            "track": 1
        },
        {
            "pitch": 68,
            "start_beat": 705.0,
            "duration_beat": 0.6666666666666288,
            "velocity": 127,
            "track": 0
        },
        {
            "pitch": 80,
            "start_beat": 705.0,
            "duration_beat": 0.6666666666666288,
            "velocity": 127,
            "track": 0
        },
        {
            "pitch": 52,
            "start_beat": 705.0,
            "duration_beat": 0.9479166666666288,
            "velocity": 112,
            "track": 1
        },
        {
            "pitch": 60,
            "start_beat": 705.0,
            "duration_beat": 0.9479166666666288,
            "velocity": 112,
            "track": 1
        },
        {
            "pitch": 68,
            "start_beat": 706.0,
            "duration_beat": 1.3374999999999773,
            "velocity": 127,
            "track": 0
        },
        {
            "pitch": 28,
            "start_beat": 706.0,
            "duration_beat": 0.9479166666666288,
            "velocity": 112,
            "track": 1
        },
        {
            "pitch": 40,
            "start_beat": 706.0,
            "duration_beat": 0.9479166666666288,
            "velocity": 112,
            "track": 1
        },
        {
            "pitch": 80,
            "start_beat": 706.5,
            "duration_beat": 0.497916666666697,
            "velocity": 112,
            "track": 0
        },
        {
            "pitch": 81,
            "start_beat": 707.0,
            "duration_beat": 0.497916666666697,
            "velocity": 112,
            "track": 0
        },
        {
            "pitch": 52,
            "start_beat": 707.0,
            "duration_beat": 0.9479166666666288,
            "velocity": 112,
            "track": 1
        },
        {
            "pitch": 60,
            "start_beat": 707.0,
            "duration_beat": 0.9479166666666288,
            "velocity": 112,
            "track": 1
        },
        {
            "pitch": 80,
            "start_beat": 707.5,
            "duration_beat": 0.497916666666697,
            "velocity": 112,
            "track": 0
        },
        {
            "pitch": 67,
            "start_beat": 708.0,
            "duration_beat": 0.497916666666697,
            "velocity": 112,
            "track": 0
        },
        {
            "pitch": 79,
            "start_beat": 708.0,
            "duration_beat": 0.497916666666697,
            "velocity": 112,
            "track": 0
        },
        {
            "pitch": 56,
            "start_beat": 708.0,
            "duration_beat": 0.9479166666666288,
            "velocity": 112,
            "track": 1
        },
        {
            "pitch": 63,
            "start_beat": 708.0,
            "duration_beat": 0.9479166666666288,
            "velocity": 112,
            "track": 1
        },
        {
            "pitch": 68,
            "start_beat": 708.5,
            "duration_beat": 0.497916666666697,
            "velocity": 113,
            "track": 0
        },
        {
            "pitch": 80,
            "start_beat": 708.5,
            "duration_beat": 0.497916666666697,
            "velocity": 113,
            "track": 0
        },
        {
            "pitch": 70,
            "start_beat": 709.0,
            "duration_beat": 0.497916666666697,
            "velocity": 115,
            "track": 0
        },
        {
            "pitch": 82,
            "start_beat": 709.0,
            "duration_beat": 0.497916666666697,
            "velocity": 115,
            "track": 0
        },
        {
            "pitch": 60,
            "start_beat": 709.0,
            "duration_beat": 0.9479166666666288,
            "velocity": 115,
            "track": 1
        },
        {
            "pitch": 66,
            "start_beat": 709.0,
            "duration_beat": 0.9479166666666288,
            "velocity": 115,
            "track": 1
        },
        {
            "pitch": 72,
            "start_beat": 709.5,
            "duration_beat": 0.497916666666697,
            "velocity": 116,
            "track": 0
        },
        {
            "pitch": 84,
            "start_beat": 709.5,
            "duration_beat": 0.497916666666697,
            "velocity": 116,
            "track": 0
        },
        {
            "pitch": 73,
            "start_beat": 710.0,
            "duration_beat": 0.497916666666697,
            "velocity": 118,
            "track": 0
        },
        {
            "pitch": 85,
            "start_beat": 710.0,
            "duration_beat": 0.497916666666697,
            "velocity": 118,
            "track": 0
        },
        {
            "pitch": 56,
            "start_beat": 710.0,
            "duration_beat": 0.9479166666666288,
            "velocity": 118,
            "track": 1
        },
        {
            "pitch": 63,
            "start_beat": 710.0,
            "duration_beat": 0.9479166666666288,
            "velocity": 118,
            "track": 1
        },
        {
            "pitch": 75,
            "start_beat": 710.5,
            "duration_beat": 0.497916666666697,
            "velocity": 119,
            "track": 0
        },
        {
            "pitch": 87,
            "start_beat": 710.5,
            "duration_beat": 0.497916666666697,
            "velocity": 119,
            "track": 0
        },
        {
            "pitch": 76,
            "start_beat": 711.0,
            "duration_beat": 0.497916666666697,
            "velocity": 121,
            "track": 0
        },
        {
            "pitch": 88,
            "start_beat": 711.0,
            "duration_beat": 0.497916666666697,
            "velocity": 121,
            "track": 0
        },
        {
            "pitch": 52,
            "start_beat": 711.0,
            "duration_beat": 0.9479166666666288,
            "velocity": 121,
            "track": 1
        },
        {
            "pitch": 60,
            "start_beat": 711.0,
            "duration_beat": 0.9479166666666288,
            "velocity": 121,
            "track": 1
        },
        {
            "pitch": 78,
            "start_beat": 711.5,
            "duration_beat": 0.497916666666697,
            "velocity": 122,
            "track": 0
        },
        {
            "pitch": 90,
            "start_beat": 711.5,
            "duration_beat": 0.497916666666697,
            "velocity": 122,
            "track": 0
        },
        {
            "pitch": 80,
            "start_beat": 712.0,
            "duration_beat": 0.497916666666697,
            "velocity": 124,
            "track": 0
        },
        {
            "pitch": 92,
            "start_beat": 712.0,
            "duration_beat": 0.497916666666697,
            "velocity": 124,
            "track": 0
        },
        {
            "pitch": 40,
            "start_beat": 712.0,
            "duration_beat": 0.9479166666666288,
            "velocity": 124,
            "track": 1
        },
        {
            "pitch": 52,
            "start_beat": 712.0,
            "duration_beat": 0.9479166666666288,
            "velocity": 124,
            "track": 1
        },
        {
            "pitch": 52,
            "start_beat": 713.0,
            "duration_beat": 0.9479166666666288,
            "velocity": 127,
            "track": 1
        },
        {
            "pitch": 61,
            "start_beat": 713.0,
            "duration_beat": 0.9479166666666288,
            "velocity": 127,
            "track": 1
        },
        {
            "pitch": 56,
            "start_beat": 714.0,
            "duration_beat": 0.9479166666666288,
            "velocity": 127,
            "track": 1
        },
        {
            "pitch": 64,
            "start_beat": 714.0,
            "duration_beat": 0.9479166666666288,
            "velocity": 127,
            "track": 1
        },
        {
            "pitch": 68,
            "start_beat": 715.0,
            "duration_beat": 1.3374999999999773,
            "velocity": 127,
            "track": 0
        },
        {
            "pitch": 80,
            "start_beat": 715.0,
            "duration_beat": 1.3374999999999773,
            "velocity": 127,
            "track": 0
        },
        {
            "pitch": 39,
            "start_beat": 715.0,
            "duration_beat": 0.9479166666666288,
            "velocity": 127,
            "track": 1
        },
        {
            "pitch": 51,
            "start_beat": 715.0,
            "duration_beat": 0.9479166666666288,
            "velocity": 127,
            "track": 1
        },
        {
            "pitch": 51,
            "start_beat": 716.0,
            "duration_beat": 0.9479166666666288,
            "velocity": 127,
            "track": 1
        },
        {
            "pitch": 59,
            "start_beat": 716.0,
            "duration_beat": 0.9479166666666288,
            "velocity": 127,
            "track": 1
        },
        {
            "pitch": 68,
            "start_beat": 717.0,
            "duration_beat": 0.6666666666666288,
            "velocity": 127,
            "track": 0
        },
        {
            "pitch": 80,
            "start_beat": 717.0,
            "duration_beat": 0.6666666666666288,
            "velocity": 127,
            "track": 0
        },
        {
            "pitch": 56,
            "start_beat": 717.0,
            "duration_beat": 0.9479166666666288,
            "velocity": 127,
            "track": 1
        },
        {
            "pitch": 63,
            "start_beat": 717.0,
            "duration_beat": 0.9479166666666288,
            "velocity": 127,
            "track": 1
        },
        {
            "pitch": 68,
            "start_beat": 718.0,
            "duration_beat": 0.3312499999999545,
            "velocity": 127,
            "track": 0
        },
        {
            "pitch": 80,
            "start_beat": 718.0,
            "duration_beat": 0.3312499999999545,
            "velocity": 127,
            "track": 0
        },
        {
            "pitch": 37,
            "start_beat": 718.0,
            "duration_beat": 0.9479166666666288,
            "velocity": 127,
            "track": 1
        },
        {
            "pitch": 49,
            "start_beat": 718.0,
            "duration_beat": 0.9479166666666288,
            "velocity": 127,
            "track": 1
        },
        {
            "pitch": 70,
            "start_beat": 718.3333333333334,
            "duration_beat": 0.3312499999999545,
            "velocity": 127,
            "track": 0
        },
        {
            "pitch": 82,
            "start_beat": 718.3333333333334,
            "duration_beat": 0.3312499999999545,
            "velocity": 127,
            "track": 0
        },
        {
            "pitch": 68,
            "start_beat": 718.6666666666666,
            "duration_beat": 0.3312500000000682,
            "velocity": 127,
            "track": 0
        },
        {
            "pitch": 80,
            "start_beat": 718.6666666666666,
            "duration_beat": 0.3312500000000682,
            "velocity": 127,
            "track": 0
        },
        {
            "pitch": 67,
            "start_beat": 719.0,
            "duration_beat": 0.497916666666697,
            "velocity": 127,
            "track": 0
        },
        {
            "pitch": 79,
            "start_beat": 719.0,
            "duration_beat": 0.497916666666697,
            "velocity": 127,
            "track": 0
        },
        {
            "pitch": 49,
            "start_beat": 719.0,
            "duration_beat": 0.9479166666666288,
            "velocity": 127,
            "track": 1
        },
        {
            "pitch": 56,
            "start_beat": 719.0,
            "duration_beat": 0.9479166666666288,
            "velocity": 127,
            "track": 1
        },
        {
            "pitch": 68,
            "start_beat": 719.5,
            "duration_beat": 0.497916666666697,
            "velocity": 127,
            "track": 0
        },
        {
            "pitch": 80,
            "start_beat": 719.5,
            "duration_beat": 0.497916666666697,
            "velocity": 127,
            "track": 0
        },
        {
            "pitch": 70,
            "start_beat": 720.0,
            "duration_beat": 0.497916666666697,
            "velocity": 127,
            "track": 0
        },
        {
            "pitch": 82,
            "start_beat": 720.0,
            "duration_beat": 0.497916666666697,
            "velocity": 127,
            "track": 0
        },
        {
            "pitch": 52,
            "start_beat": 720.0,
            "duration_beat": 0.9479166666666288,
            "velocity": 127,
            "track": 1
        },
        {
            "pitch": 61,
            "start_beat": 720.0,
            "duration_beat": 0.9479166666666288,
            "velocity": 127,
            "track": 1
        },
        {
            "pitch": 71,
            "start_beat": 720.5,
            "duration_beat": 0.497916666666697,
            "velocity": 127,
            "track": 0
        },
        {
            "pitch": 83,
            "start_beat": 720.5,
            "duration_beat": 0.497916666666697,
            "velocity": 127,
            "track": 0
        },
        {
            "pitch": 73,
            "start_beat": 721.0,
            "duration_beat": 0.497916666666697,
            "velocity": 127,
            "track": 0
        },
        {
            "pitch": 85,
            "start_beat": 721.0,
            "duration_beat": 0.497916666666697,
            "velocity": 127,
            "track": 0
        },
        {
            "pitch": 32,
            "start_beat": 721.0,
            "duration_beat": 0.9479166666666288,
            "velocity": 127,
            "track": 1
        },
        {
            "pitch": 44,
            "start_beat": 721.0,
            "duration_beat": 0.9479166666666288,
            "velocity": 127,
            "track": 1
        },
        {
            "pitch": 75,
            "start_beat": 721.5,
            "duration_beat": 0.497916666666697,
            "velocity": 127,
            "track": 0
        },
        {
            "pitch": 87,
            "start_beat": 721.5,
            "duration_beat": 0.497916666666697,
            "velocity": 127,
            "track": 0
        },
        {
            "pitch": 77,
            "start_beat": 722.0,
            "duration_beat": 0.497916666666697,
            "velocity": 127,
            "track": 0
        },
        {
            "pitch": 89,
            "start_beat": 722.0,
            "duration_beat": 0.497916666666697,
            "velocity": 127,
            "track": 0
        },
        {
            "pitch": 47,
            "start_beat": 722.0,
            "duration_beat": 0.9479166666666288,
            "velocity": 127,
            "track": 1
        },
        {
            "pitch": 56,
            "start_beat": 722.0,
            "duration_beat": 0.9479166666666288,
            "velocity": 127,
            "track": 1
        },
        {
            "pitch": 79,
            "start_beat": 722.5,
            "duration_beat": 0.497916666666697,
            "velocity": 127,
            "track": 0
        },
        {
            "pitch": 91,
            "start_beat": 722.5,
            "duration_beat": 0.497916666666697,
            "velocity": 127,
            "track": 0
        },
        {
            "pitch": 80,
            "start_beat": 723.0,
            "duration_beat": 0.497916666666697,
            "velocity": 127,
            "track": 0
        },
        {
            "pitch": 92,
            "start_beat": 723.0,
            "duration_beat": 0.497916666666697,
            "velocity": 127,
            "track": 0
        },
        {
            "pitch": 51,
            "start_beat": 723.0,
            "duration_beat": 0.9479166666666288,
            "velocity": 127,
            "track": 1
        },
        {
            "pitch": 59,
            "start_beat": 723.0,
            "duration_beat": 0.9479166666666288,
            "velocity": 127,
            "track": 1
        },
        {
            "pitch": 82,
            "start_beat": 723.5,
            "duration_beat": 0.497916666666697,
            "velocity": 127,
            "track": 0
        },
        {
            "pitch": 94,
            "start_beat": 723.5,
            "duration_beat": 0.497916666666697,
            "velocity": 127,
            "track": 0
        },
        {
            "pitch": 83,
            "start_beat": 724.0,
            "duration_beat": 0.497916666666697,
            "velocity": 112,
            "track": 0
        },
        {
            "pitch": 93,
            "start_beat": 724.0,
            "duration_beat": 0.497916666666697,
            "velocity": 112,
            "track": 0
        },
        {
            "pitch": 29,
            "start_beat": 724.0,
            "duration_beat": 0.497916666666697,
            "velocity": 112,
            "track": 1
        },
        {
            "pitch": 41,
            "start_beat": 724.0,
            "duration_beat": 0.497916666666697,
            "velocity": 112,
            "track": 1
        },
        {
            "pitch": 92,
            "start_beat": 725.0,
            "duration_beat": 0.3312499999999545,
            "velocity": 112,
            "track": 0
        },
        {
            "pitch": 95,
            "start_beat": 725.0,
            "duration_beat": 0.3312499999999545,
            "velocity": 112,
            "track": 0
        },
        {
            "pitch": 89,
            "start_beat": 725.5,
            "duration_beat": 0.497916666666697,
            "velocity": 94,
            "track": 0
        },
        {
            "pitch": 87,
            "start_beat": 726.0,
            "duration_beat": 0.497916666666697,
            "velocity": 94,
            "track": 0
        },
        {
            "pitch": 83,
            "start_beat": 726.5,
            "duration_beat": 0.497916666666697,
            "velocity": 94,
            "track": 0
        },
        {
            "pitch": 80,
            "start_beat": 727.0,
            "duration_beat": 0.497916666666697,
            "velocity": 94,
            "track": 0
        },
        {
            "pitch": 83,
            "start_beat": 727.0,
            "duration_beat": 0.497916666666697,
            "velocity": 94,
            "track": 0
        },
        {
            "pitch": 53,
            "start_beat": 727.0,
            "duration_beat": 1.997916666666697,
            "velocity": 94,
            "track": 1
        },
        {
            "pitch": 59,
            "start_beat": 727.275,
            "duration_beat": 1.720833333333303,
            "velocity": 94,
            "track": 1
        },
        {
            "pitch": 77,
            "start_beat": 727.5,
            "duration_beat": 0.497916666666697,
            "velocity": 94,
            "track": 0
        },
        {
            "pitch": 63,
            "start_beat": 727.55625,
            "duration_beat": 1.439583333333303,
            "velocity": 94,
            "track": 1
        },
        {
            "pitch": 68,
            "start_beat": 727.8395833333333,
            "duration_beat": 1.15625,
            "velocity": 94,
            "track": 1
        },
        {
            "pitch": 75,
            "start_beat": 728.0,
            "duration_beat": 0.497916666666697,
            "velocity": 94,
            "track": 0
        },
        {
            "pitch": 71,
            "start_beat": 728.5,
            "duration_beat": 0.497916666666697,
            "velocity": 94,
            "track": 0
        },
        {
            "pitch": 68,
            "start_beat": 729.0,
            "duration_beat": 0.497916666666697,
            "velocity": 94,
            "track": 0
        },
        {
            "pitch": 71,
            "start_beat": 729.0,
            "duration_beat": 0.497916666666697,
            "velocity": 94,
            "track": 0
        },
        {
            "pitch": 65,
            "start_beat": 729.5,
            "duration_beat": 0.497916666666697,
            "velocity": 94,
            "track": 0
        },
        {
            "pitch": 63,
            "start_beat": 730.0,
            "duration_beat": 0.497916666666697,
            "velocity": 94,
            "track": 0
        },
        {
            "pitch": 59,
            "start_beat": 730.5,
            "duration_beat": 0.497916666666697,
            "velocity": 91,
            "track": 0
        },
        {
            "pitch": 56,
            "start_beat": 731.0,
            "duration_beat": 0.497916666666697,
            "velocity": 87,
            "track": 0
        },
        {
            "pitch": 59,
            "start_beat": 731.0,
            "duration_beat": 0.497916666666697,
            "velocity": 87,
            "track": 0
        },
        {
            "pitch": 53,
            "start_beat": 731.5,
            "duration_beat": 0.497916666666697,
            "velocity": 83,
            "track": 0
        },
        {
            "pitch": 51,
            "start_beat": 732.0,
            "duration_beat": 0.497916666666697,
            "velocity": 79,
            "track": 0
        },
        {
            "pitch": 47,
            "start_beat": 732.5,
            "duration_beat": 0.497916666666697,
            "velocity": 76,
            "track": 0
        },
        {
            "pitch": 56,
            "start_beat": 733.0,
            "duration_beat": 0.497916666666697,
            "velocity": 72,
            "track": 0
        },
        {
            "pitch": 59,
            "start_beat": 733.0,
            "duration_beat": 0.497916666666697,
            "velocity": 72,
            "track": 0
        },
        {
            "pitch": 53,
            "start_beat": 733.5,
            "duration_beat": 0.497916666666697,
            "velocity": 68,
            "track": 0
        },
        {
            "pitch": 51,
            "start_beat": 734.0,
            "duration_beat": 0.497916666666697,
            "velocity": 64,
            "track": 0
        },
        {
            "pitch": 47,
            "start_beat": 734.5,
            "duration_beat": 0.497916666666697,
            "velocity": 61,
            "track": 0
        },
        {
            "pitch": 56,
            "start_beat": 735.0,
            "duration_beat": 0.4729166666667197,
            "velocity": 57,
            "track": 0
        },
        {
            "pitch": 59,
            "start_beat": 735.0,
            "duration_beat": 0.9479166666666288,
            "velocity": 57,
            "track": 0
        },
        {
            "pitch": 53,
            "start_beat": 735.5,
            "duration_beat": 0.4729166666667197,
            "velocity": 53,
            "track": 0
        },
        {
            "pitch": 58,
            "start_beat": 736.0,
            "duration_beat": 0.497916666666697,
            "velocity": 49,
            "track": 0
        },
        {
            "pitch": 34,
            "start_beat": 736.0,
            "duration_beat": 0.997916666666697,
            "velocity": 49,
            "track": 1
        },
        {
            "pitch": 56,
            "start_beat": 736.5,
            "duration_beat": 0.497916666666697,
            "velocity": 49,
            "track": 0
        },
        {
            "pitch": 59,
            "start_beat": 737.0,
            "duration_beat": 0.497916666666697,
            "velocity": 49,
            "track": 0
        },
        {
            "pitch": 50,
            "start_beat": 737.0,
            "duration_beat": 0.9479166666666288,
            "velocity": 49,
            "track": 1
        },
        {
            "pitch": 53,
            "start_beat": 737.5,
            "duration_beat": 0.497916666666697,
            "velocity": 49,
            "track": 0
        },
        {
            "pitch": 58,
            "start_beat": 738.0,
            "duration_beat": 0.497916666666697,
            "velocity": 49,
            "track": 0
        },
        {
            "pitch": 56,
            "start_beat": 738.5,
            "duration_beat": 0.497916666666697,
            "velocity": 49,
            "track": 0
        },
        {
            "pitch": 59,
            "start_beat": 739.0,
            "duration_beat": 0.497916666666697,
            "velocity": 49,
            "track": 0
        },
        {
            "pitch": 34,
            "start_beat": 739.0,
            "duration_beat": 0.997916666666697,
            "velocity": 49,
            "track": 1
        },
        {
            "pitch": 53,
            "start_beat": 739.5,
            "duration_beat": 0.497916666666697,
            "velocity": 50,
            "track": 0
        },
        {
            "pitch": 58,
            "start_beat": 740.0,
            "duration_beat": 0.497916666666697,
            "velocity": 52,
            "track": 0
        },
        {
            "pitch": 50,
            "start_beat": 740.0,
            "duration_beat": 0.9479166666666288,
            "velocity": 52,
            "track": 1
        },
        {
            "pitch": 56,
            "start_beat": 740.5,
            "duration_beat": 0.497916666666697,
            "velocity": 53,
            "track": 0
        },
        {
            "pitch": 59,
            "start_beat": 741.0,
            "duration_beat": 0.497916666666697,
            "velocity": 55,
            "track": 0
        },
        {
            "pitch": 53,
            "start_beat": 741.5,
            "duration_beat": 0.497916666666697,
            "velocity": 56,
            "track": 0
        },
        {
            "pitch": 58,
            "start_beat": 742.0,
            "duration_beat": 0.497916666666697,
            "velocity": 58,
            "track": 0
        },
        {
            "pitch": 34,
            "start_beat": 742.0,
            "duration_beat": 0.997916666666697,
            "velocity": 58,
            "track": 1
        },
        {
            "pitch": 56,
            "start_beat": 742.5,
            "duration_beat": 0.497916666666697,
            "velocity": 60,
            "track": 0
        },
        {
            "pitch": 59,
            "start_beat": 743.0,
            "duration_beat": 0.497916666666697,
            "velocity": 61,
            "track": 0
        },
        {
            "pitch": 50,
            "start_beat": 743.0,
            "duration_beat": 0.9479166666666288,
            "velocity": 61,
            "track": 1
        },
        {
            "pitch": 53,
            "start_beat": 743.5,
            "duration_beat": 0.497916666666697,
            "velocity": 63,
            "track": 0
        },
        {
            "pitch": 58,
            "start_beat": 744.0,
            "duration_beat": 0.497916666666697,
            "velocity": 64,
            "track": 0
        },
        {
            "pitch": 56,
            "start_beat": 744.5,
            "duration_beat": 0.497916666666697,
            "velocity": 66,
            "track": 0
        },
        {
            "pitch": 59,
            "start_beat": 745.0,
            "duration_beat": 0.497916666666697,
            "velocity": 67,
            "track": 0
        },
        {
            "pitch": 34,
            "start_beat": 745.0,
            "duration_beat": 0.997916666666697,
            "velocity": 67,
            "track": 1
        },
        {
            "pitch": 53,
            "start_beat": 745.5,
            "duration_beat": 0.497916666666697,
            "velocity": 69,
            "track": 0
        },
        {
            "pitch": 58,
            "start_beat": 746.0,
            "duration_beat": 0.497916666666697,
            "velocity": 71,
            "track": 0
        },
        {
            "pitch": 50,
            "start_beat": 746.0,
            "duration_beat": 0.9479166666666288,
            "velocity": 71,
            "track": 1
        },
        {
            "pitch": 56,
            "start_beat": 746.5,
            "duration_beat": 0.497916666666697,
            "velocity": 72,
            "track": 0
        },
        {
            "pitch": 59,
            "start_beat": 747.0,
            "duration_beat": 0.497916666666697,
            "velocity": 74,
            "track": 0
        },
        {
            "pitch": 53,
            "start_beat": 747.5,
            "duration_beat": 0.497916666666697,
            "velocity": 75,
            "track": 0
        },
        {
            "pitch": 58,
            "start_beat": 748.0,
            "duration_beat": 0.497916666666697,
            "velocity": 77,
            "track": 0
        },
        {
            "pitch": 50,
            "start_beat": 748.0,
            "duration_beat": 0.997916666666697,
            "velocity": 77,
            "track": 1
        },
        {
            "pitch": 56,
            "start_beat": 748.5,
            "duration_beat": 0.497916666666697,
            "velocity": 78,
            "track": 0
        },
        {
            "pitch": 59,
            "start_beat": 749.0,
            "duration_beat": 0.497916666666697,
            "velocity": 80,
            "track": 0
        },
        {
            "pitch": 65,
            "start_beat": 749.0,
            "duration_beat": 0.9479166666666288,
            "velocity": 80,
            "track": 1
        },
        {
            "pitch": 53,
            "start_beat": 749.5,
            "duration_beat": 0.497916666666697,
            "velocity": 82,
            "track": 0
        },
        {
            "pitch": 58,
            "start_beat": 750.0,
            "duration_beat": 0.497916666666697,
            "velocity": 83,
            "track": 0
        },
        {
            "pitch": 56,
            "start_beat": 750.5,
            "duration_beat": 0.497916666666697,
            "velocity": 85,
            "track": 0
        },
        {
            "pitch": 59,
            "start_beat": 751.0,
            "duration_beat": 0.497916666666697,
            "velocity": 86,
            "track": 0
        },
        {
            "pitch": 50,
            "start_beat": 751.0,
            "duration_beat": 0.997916666666697,
            "velocity": 86,
            "track": 1
        },
        {
            "pitch": 53,
            "start_beat": 751.5,
            "duration_beat": 0.497916666666697,
            "velocity": 88,
            "track": 0
        },
        {
            "pitch": 58,
            "start_beat": 752.0,
            "duration_beat": 0.497916666666697,
            "velocity": 89,
            "track": 0
        },
        {
            "pitch": 65,
            "start_beat": 752.0,
            "duration_beat": 0.9479166666666288,
            "velocity": 89,
            "track": 1
        },
        {
            "pitch": 56,
            "start_beat": 752.5,
            "duration_beat": 0.497916666666697,
            "velocity": 91,
            "track": 0
        },
        {
            "pitch": 59,
            "start_beat": 753.0,
            "duration_beat": 0.497916666666697,
            "velocity": 93,
            "track": 0
        },
        {
            "pitch": 53,
            "start_beat": 753.5,
            "duration_beat": 0.497916666666697,
            "velocity": 94,
            "track": 0
        },
        {
            "pitch": 58,
            "start_beat": 754.0,
            "duration_beat": 0.497916666666697,
            "velocity": 96,
            "track": 0
        },
        {
            "pitch": 50,
            "start_beat": 754.0,
            "duration_beat": 0.997916666666697,
            "velocity": 96,
            "track": 1
        },
        {
            "pitch": 56,
            "start_beat": 754.5,
            "duration_beat": 0.497916666666697,
            "velocity": 97,
            "track": 0
        },
        {
            "pitch": 59,
            "start_beat": 755.0,
            "duration_beat": 0.497916666666697,
            "velocity": 99,
            "track": 0
        },
        {
            "pitch": 65,
            "start_beat": 755.0,
            "duration_beat": 0.9479166666666288,
            "velocity": 99,
            "track": 1
        },
        {
            "pitch": 53,
            "start_beat": 755.5,
            "duration_beat": 0.497916666666697,
            "velocity": 100,
            "track": 0
        },
        {
            "pitch": 58,
            "start_beat": 756.0,
            "duration_beat": 0.497916666666697,
            "velocity": 102,
            "track": 0
        },
        {
            "pitch": 56,
            "start_beat": 756.5,
            "duration_beat": 0.497916666666697,
            "velocity": 104,
            "track": 0
        },
        {
            "pitch": 59,
            "start_beat": 757.0,
            "duration_beat": 0.497916666666697,
            "velocity": 105,
            "track": 0
        },
        {
            "pitch": 50,
            "start_beat": 757.0,
            "duration_beat": 0.997916666666697,
            "velocity": 105,
            "track": 1
        },
        {
            "pitch": 53,
            "start_beat": 757.5,
            "duration_beat": 0.497916666666697,
            "velocity": 107,
            "track": 0
        },
        {
            "pitch": 58,
            "start_beat": 758.0,
            "duration_beat": 0.497916666666697,
            "velocity": 108,
            "track": 0
        },
        {
            "pitch": 65,
            "start_beat": 758.0,
            "duration_beat": 0.9479166666666288,
            "velocity": 108,
            "track": 1
        },
        {
            "pitch": 56,
            "start_beat": 758.5,
            "duration_beat": 0.497916666666697,
            "velocity": 110,
            "track": 0
        },
        {
            "pitch": 59,
            "start_beat": 759.0,
            "duration_beat": 0.497916666666697,
            "velocity": 112,
            "track": 0
        },
        {
            "pitch": 53,
            "start_beat": 759.5,
            "duration_beat": 0.497916666666697,
            "velocity": 112,
            "track": 0
        },
        {
            "pitch": 58,
            "start_beat": 760.0,
            "duration_beat": 0.497916666666697,
            "velocity": 96,
            "track": 0
        },
        {
            "pitch": 22,
            "start_beat": 760.0,
            "duration_beat": 0.9479166666666288,
            "velocity": 96,
            "track": 1
        },
        {
            "pitch": 58,
            "start_beat": 761.0,
            "duration_beat": 0.497916666666697,
            "velocity": 78,
            "track": 0
        },
        {
            "pitch": 62,
            "start_beat": 761.5,
            "duration_beat": 0.497916666666697,
            "velocity": 78,
            "track": 0
        },
        {
            "pitch": 59,
            "start_beat": 762.0,
            "duration_beat": 0.497916666666697,
            "velocity": 78,
            "track": 0
        },
        {
            "pitch": 62,
            "start_beat": 762.5,
            "duration_beat": 0.497916666666697,
            "velocity": 78,
            "track": 0
        },
        {
            "pitch": 61,
            "start_beat": 763.0,
            "duration_beat": 0.497916666666697,
            "velocity": 78,
            "track": 0
        },
        {
            "pitch": 46,
            "start_beat": 763.0,
            "duration_beat": 0.9479166666666288,
            "velocity": 78,
            "track": 1
        },
        {
            "pitch": 53,
            "start_beat": 763.0,
            "duration_beat": 0.9479166666666288,
            "velocity": 78,
            "track": 1
        },
        {
            "pitch": 56,
            "start_beat": 763.0,
            "duration_beat": 0.9479166666666288,
            "velocity": 78,
            "track": 1
        },
        {
            "pitch": 65,
            "start_beat": 763.5,
            "duration_beat": 0.497916666666697,
            "velocity": 78,
            "track": 0
        },
        {
            "pitch": 62,
            "start_beat": 764.0,
            "duration_beat": 0.497916666666697,
            "velocity": 78,
            "track": 0
        },
        {
            "pitch": 68,
            "start_beat": 764.5,
            "duration_beat": 0.497916666666697,
            "velocity": 78,
            "track": 0
        },
        {
            "pitch": 64,
            "start_beat": 765.0,
            "duration_beat": 0.497916666666697,
            "velocity": 78,
            "track": 0
        },
        {
            "pitch": 68,
            "start_beat": 765.5,
            "duration_beat": 0.497916666666697,
            "velocity": 78,
            "track": 0
        },
        {
            "pitch": 65,
            "start_beat": 766.0,
            "duration_beat": 0.497916666666697,
            "velocity": 78,
            "track": 0
        },
        {
            "pitch": 53,
            "start_beat": 766.0,
            "duration_beat": 0.9479166666666288,
            "velocity": 78,
            "track": 1
        },
        {
            "pitch": 56,
            "start_beat": 766.0,
            "duration_beat": 0.9479166666666288,
            "velocity": 78,
            "track": 1
        },
        {
            "pitch": 62,
            "start_beat": 766.0,
            "duration_beat": 0.9479166666666288,
            "velocity": 78,
            "track": 1
        },
        {
            "pitch": 71,
            "start_beat": 766.5,
            "duration_beat": 0.497916666666697,
            "velocity": 78,
            "track": 0
        },
        {
            "pitch": 67,
            "start_beat": 767.0,
            "duration_beat": 0.497916666666697,
            "velocity": 78,
            "track": 0
        },
        {
            "pitch": 71,
            "start_beat": 767.5,
            "duration_beat": 0.497916666666697,
            "velocity": 78,
            "track": 0
        },
        {
            "pitch": 68,
            "start_beat": 768.0,
            "duration_beat": 0.497916666666697,
            "velocity": 78,
            "track": 0
        },
        {
            "pitch": 74,
            "start_beat": 768.5,
            "duration_beat": 0.497916666666697,
            "velocity": 78,
            "track": 0
        },
        {
            "pitch": 70,
            "start_beat": 769.0,
            "duration_beat": 0.497916666666697,
            "velocity": 78,
            "track": 0
        },
        {
            "pitch": 56,
            "start_beat": 769.0,
            "duration_beat": 0.9479166666666288,
            "velocity": 78,
            "track": 1
        },
        {
            "pitch": 62,
            "start_beat": 769.0,
            "duration_beat": 0.9479166666666288,
            "velocity": 78,
            "track": 1
        },
        {
            "pitch": 65,
            "start_beat": 769.0,
            "duration_beat": 0.9479166666666288,
            "velocity": 78,
            "track": 1
        },
        {
            "pitch": 74,
            "start_beat": 769.5,
            "duration_beat": 0.497916666666697,
            "velocity": 78,
            "track": 0
        },
        {
            "pitch": 71,
            "start_beat": 770.0,
            "duration_beat": 0.497916666666697,
            "velocity": 78,
            "track": 0
        },
        {
            "pitch": 74,
            "start_beat": 770.5,
            "duration_beat": 0.497916666666697,
            "velocity": 78,
            "track": 0
        },
        {
            "pitch": 73,
            "start_beat": 771.0,
            "duration_beat": 0.497916666666697,
            "velocity": 78,
            "track": 0
        },
        {
            "pitch": 77,
            "start_beat": 771.5,
            "duration_beat": 0.497916666666697,
            "velocity": 78,
            "track": 0
        },
        {
            "pitch": 74,
            "start_beat": 772.0,
            "duration_beat": 0.497916666666697,
            "velocity": 78,
            "track": 0
        },
        {
            "pitch": 58,
            "start_beat": 772.0,
            "duration_beat": 0.9479166666666288,
            "velocity": 78,
            "track": 1
        },
        {
            "pitch": 65,
            "start_beat": 772.0,
            "duration_beat": 0.9479166666666288,
            "velocity": 78,
            "track": 1
        },
        {
            "pitch": 68,
            "start_beat": 772.0,
            "duration_beat": 0.9479166666666288,
            "velocity": 78,
            "track": 1
        },
        {
            "pitch": 80,
            "start_beat": 772.5,
            "duration_beat": 0.497916666666697,
            "velocity": 78,
            "track": 0
        },
        {
            "pitch": 76,
            "start_beat": 773.0,
            "duration_beat": 0.497916666666697,
            "velocity": 78,
            "track": 0
        },
        {
            "pitch": 80,
            "start_beat": 773.5,
            "duration_beat": 0.497916666666697,
            "velocity": 78,
            "track": 0
        },
        {
            "pitch": 77,
            "start_beat": 774.0,
            "duration_beat": 0.497916666666697,
            "velocity": 78,
            "track": 0
        },
        {
            "pitch": 83,
            "start_beat": 774.5,
            "duration_beat": 0.497916666666697,
            "velocity": 78,
            "track": 0
        },
        {
            "pitch": 79,
            "start_beat": 775.0,
            "duration_beat": 0.497916666666697,
            "velocity": 78,
            "track": 0
        },
        {
            "pitch": 65,
            "start_beat": 775.0,
            "duration_beat": 0.9479166666666288,
            "velocity": 78,
            "track": 1
        },
        {
            "pitch": 68,
            "start_beat": 775.0,
            "duration_beat": 0.9479166666666288,
            "velocity": 78,
            "track": 1
        },
        {
            "pitch": 74,
            "start_beat": 775.0,
            "duration_beat": 0.9479166666666288,
            "velocity": 78,
            "track": 1
        },
        {
            "pitch": 83,
            "start_beat": 775.5,
            "duration_beat": 0.497916666666697,
            "velocity": 78,
            "track": 0
        },
        {
            "pitch": 80,
            "start_beat": 776.0,
            "duration_beat": 0.497916666666697,
            "velocity": 78,
            "track": 0
        },
        {
            "pitch": 86,
            "start_beat": 776.5,
            "duration_beat": 0.497916666666697,
            "velocity": 78,
            "track": 0
        },
        {
            "pitch": 82,
            "start_beat": 777.0,
            "duration_beat": 0.497916666666697,
            "velocity": 78,
            "track": 0
        },
        {
            "pitch": 86,
            "start_beat": 777.5,
            "duration_beat": 0.497916666666697,
            "velocity": 78,
            "track": 0
        },
        {
            "pitch": 83,
            "start_beat": 778.0,
            "duration_beat": 0.497916666666697,
            "velocity": 80,
            "track": 0
        },
        {
            "pitch": 68,
            "start_beat": 778.0,
            "duration_beat": 0.9479166666666288,
            "velocity": 80,
            "track": 1
        },
        {
            "pitch": 74,
            "start_beat": 778.0,
            "duration_beat": 0.9479166666666288,
            "velocity": 80,
            "track": 1
        },
        {
            "pitch": 77,
            "start_beat": 778.0,
            "duration_beat": 0.9479166666666288,
            "velocity": 80,
            "track": 1
        },
        {
            "pitch": 86,
            "start_beat": 778.5,
            "duration_beat": 0.497916666666697,
            "velocity": 79,
            "track": 0
        },
        {
            "pitch": 85,
            "start_beat": 779.0,
            "duration_beat": 0.497916666666697,
            "velocity": 78,
            "track": 0
        },
        {
            "pitch": 89,
            "start_beat": 779.5,
            "duration_beat": 0.497916666666697,
            "velocity": 76,
            "track": 0
        },
        {
            "pitch": 86,
            "start_beat": 780.0,
            "duration_beat": 0.497916666666697,
            "velocity": 75,
            "track": 0
        },
        {
            "pitch": 92,
            "start_beat": 780.5,
            "duration_beat": 0.497916666666697,
            "velocity": 74,
            "track": 0
        },
        {
            "pitch": 88,
            "start_beat": 781.0,
            "duration_beat": 0.497916666666697,
            "velocity": 72,
            "track": 0
        },
        {
            "pitch": 70,
            "start_beat": 781.0,
            "duration_beat": 0.9479166666666288,
            "velocity": 72,
            "track": 1
        },
        {
            "pitch": 77,
            "start_beat": 781.0,
            "duration_beat": 0.9479166666666288,
            "velocity": 72,
            "track": 1
        },
        {
            "pitch": 80,
            "start_beat": 781.0,
            "duration_beat": 0.9479166666666288,
            "velocity": 72,
            "track": 1
        },
        {
            "pitch": 92,
            "start_beat": 781.5,
            "duration_beat": 0.497916666666697,
            "velocity": 71,
            "track": 0
        },
        {
            "pitch": 89,
            "start_beat": 782.0,
            "duration_beat": 0.497916666666697,
            "velocity": 70,
            "track": 0
        },
        {
            "pitch": 95,
            "start_beat": 782.5,
            "duration_beat": 0.497916666666697,
            "velocity": 68,
            "track": 0
        },
        {
            "pitch": 91,
            "start_beat": 783.0,
            "duration_beat": 0.497916666666697,
            "velocity": 67,
            "track": 0
        },
        {
            "pitch": 95,
            "start_beat": 783.5,
            "duration_beat": 0.497916666666697,
            "velocity": 66,
            "track": 0
        },
        {
            "pitch": 94,
            "start_beat": 784.0,
            "duration_beat": 0.497916666666697,
            "velocity": 64,
            "track": 0
        },
        {
            "pitch": 77,
            "start_beat": 784.0,
            "duration_beat": 8.997916666666697,
            "velocity": 64,
            "track": 1
        },
        {
            "pitch": 80,
            "start_beat": 784.0,
            "duration_beat": 8.997916666666697,
            "velocity": 64,
            "track": 1
        },
        {
            "pitch": 86,
            "start_beat": 784.0,
            "duration_beat": 8.997916666666697,
            "velocity": 64,
            "track": 1
        },
        {
            "pitch": 92,
            "start_beat": 784.5,
            "duration_beat": 0.497916666666697,
            "velocity": 64,
            "track": 0
        },
        {
            "pitch": 95,
            "start_beat": 785.0,
            "duration_beat": 0.24791666666669698,
            "velocity": 64,
            "track": 0
        },
        {
            "pitch": 89,
            "start_beat": 785.5,
            "duration_beat": 0.497916666666697,
            "velocity": 64,
            "track": 0
        },
        {
            "pitch": 94,
            "start_beat": 786.0,
            "duration_beat": 0.497916666666697,
            "velocity": 64,
            "track": 0
        },
        {
            "pitch": 92,
            "start_beat": 786.5,
            "duration_beat": 0.497916666666697,
            "velocity": 64,
            "track": 0
        },
        {
            "pitch": 96,
            "start_beat": 787.0,
            "duration_beat": 0.24791666666669698,
            "velocity": 64,
            "track": 0
        },
        {
            "pitch": 89,
            "start_beat": 787.5,
            "duration_beat": 0.497916666666697,
            "velocity": 64,
            "track": 0
        },
        {
            "pitch": 94,
            "start_beat": 788.0,
            "duration_beat": 0.497916666666697,
            "velocity": 64,
            "track": 0
        },
        {
            "pitch": 92,
            "start_beat": 788.5,
            "duration_beat": 0.497916666666697,
            "velocity": 64,
            "track": 0
        },
        {
            "pitch": 97,
            "start_beat": 789.0,
            "duration_beat": 0.24791666666669698,
            "velocity": 64,
            "track": 0
        },
        {
            "pitch": 89,
            "start_beat": 789.5,
            "duration_beat": 0.497916666666697,
            "velocity": 64,
            "track": 0
        },
        {
            "pitch": 94,
            "start_beat": 790.0,
            "duration_beat": 0.497916666666697,
            "velocity": 64,
            "track": 0
        },
        {
            "pitch": 92,
            "start_beat": 790.5,
            "duration_beat": 0.497916666666697,
            "velocity": 64,
            "track": 0
        },
        {
            "pitch": 98,
            "start_beat": 791.0,
            "duration_beat": 0.24791666666669698,
            "velocity": 64,
            "track": 0
        },
        {
            "pitch": 89,
            "start_beat": 791.5,
            "duration_beat": 0.497916666666697,
            "velocity": 64,
            "track": 0
        },
        {
            "pitch": 94,
            "start_beat": 792.0,
            "duration_beat": 0.497916666666697,
            "velocity": 64,
            "track": 0
        },
        {
            "pitch": 92,
            "start_beat": 792.5,
            "duration_beat": 0.497916666666697,
            "velocity": 64,
            "track": 0
        },
        {
            "pitch": 99,
            "start_beat": 793.0,
            "duration_beat": 0.24791666666669698,
            "velocity": 64,
            "track": 0
        },
        {
            "pitch": 75,
            "start_beat": 793.0,
            "duration_beat": 2.8479166666667197,
            "velocity": 64,
            "track": 1
        },
        {
            "pitch": 80,
            "start_beat": 793.0,
            "duration_beat": 2.8479166666667197,
            "velocity": 64,
            "track": 1
        },
        {
            "pitch": 84,
            "start_beat": 793.0,
            "duration_beat": 2.8479166666667197,
            "velocity": 64,
            "track": 1
        },
        {
            "pitch": 89,
            "start_beat": 793.5,
            "duration_beat": 0.497916666666697,
            "velocity": 64,
            "track": 0
        },
        {
            "pitch": 94,
            "start_beat": 794.0,
            "duration_beat": 0.497916666666697,
            "velocity": 64,
            "track": 0
        },
        {
            "pitch": 92,
            "start_beat": 794.5,
            "duration_beat": 0.497916666666697,
            "velocity": 64,
            "track": 0
        },
        {
            "pitch": 100,
            "start_beat": 795.0,
            "duration_beat": 0.24791666666669698,
            "velocity": 64,
            "track": 0
        },
        {
            "pitch": 89,
            "start_beat": 795.5,
            "duration_beat": 0.497916666666697,
            "velocity": 64,
            "track": 0
        },
        {
            "pitch": 101,
            "start_beat": 796.0,
            "duration_beat": 0.497916666666697,
            "velocity": 64,
            "track": 0
        },
        {
            "pitch": 75,
            "start_beat": 796.0,
            "duration_beat": 2.997916666666697,
            "velocity": 64,
            "track": 1
        },
        {
            "pitch": 84,
            "start_beat": 796.0,
            "duration_beat": 2.997916666666697,
            "velocity": 64,
            "track": 1
        },
        {
            "pitch": 80,
            "start_beat": 796.0,
            "duration_beat": 3.9479166666666288,
            "velocity": 64,
            "track": 1
        },
        {
            "pitch": 98,
            "start_beat": 796.5,
            "duration_beat": 0.497916666666697,
            "velocity": 64,
            "track": 0
        },
        {
            "pitch": 97,
            "start_beat": 797.0,
            "duration_beat": 0.497916666666697,
            "velocity": 64,
            "track": 0
        },
        {
            "pitch": 100,
            "start_beat": 797.5,
            "duration_beat": 0.497916666666697,
            "velocity": 64,
            "track": 0
        },
        {
            "pitch": 99,
            "start_beat": 798.0,
            "duration_beat": 0.497916666666697,
            "velocity": 64,
            "track": 0
        },
        {
            "pitch": 96,
            "start_beat": 798.5,
            "duration_beat": 0.497916666666697,
            "velocity": 64,
            "track": 0
        },
        {
            "pitch": 95,
            "start_beat": 799.0,
            "duration_beat": 0.497916666666697,
            "velocity": 64,
            "track": 0
        },
        {
            "pitch": 74,
            "start_beat": 799.0,
            "duration_beat": 0.9479166666666288,
            "velocity": 64,
            "track": 1
        },
        {
            "pitch": 82,
            "start_beat": 799.0,
            "duration_beat": 0.9479166666666288,
            "velocity": 64,
            "track": 1
        },
        {
            "pitch": 98,
            "start_beat": 799.5,
            "duration_beat": 0.497916666666697,
            "velocity": 64,
            "track": 0
        },
        {
            "pitch": 97,
            "start_beat": 800.0,
            "duration_beat": 0.497916666666697,
            "velocity": 64,
            "track": 0
        },
        {
            "pitch": 94,
            "start_beat": 800.5,
            "duration_beat": 0.497916666666697,
            "velocity": 64,
            "track": 0
        },
        {
            "pitch": 93,
            "start_beat": 801.0,
            "duration_beat": 0.497916666666697,
            "velocity": 64,
            "track": 0
        },
        {
            "pitch": 96,
            "start_beat": 801.5,
            "duration_beat": 0.497916666666697,
            "velocity": 64,
            "track": 0
        },
        {
            "pitch": 95,
            "start_beat": 802.0,
            "duration_beat": 0.497916666666697,
            "velocity": 64,
            "track": 0
        },
        {
            "pitch": 92,
            "start_beat": 802.5,
            "duration_beat": 0.497916666666697,
            "velocity": 64,
            "track": 0
        },
        {
            "pitch": 91,
            "start_beat": 803.0,
            "duration_beat": 0.497916666666697,
            "velocity": 64,
            "track": 0
        },
        {
            "pitch": 94,
            "start_beat": 803.5,
            "duration_beat": 0.497916666666697,
            "velocity": 64,
            "track": 0
        },
        {
            "pitch": 92,
            "start_beat": 804.0,
            "duration_beat": 0.497916666666697,
            "velocity": 64,
            "track": 0
        },
        {
            "pitch": 89,
            "start_beat": 804.5,
            "duration_beat": 0.497916666666697,
            "velocity": 64,
            "track": 0
        },
        {
            "pitch": 86,
            "start_beat": 805.0,
            "duration_beat": 0.497916666666697,
            "velocity": 64,
            "track": 0
        },
        {
            "pitch": 82,
            "start_beat": 805.5,
            "duration_beat": 0.497916666666697,
            "velocity": 64,
            "track": 0
        },
        {
            "pitch": 81,
            "start_beat": 806.0,
            "duration_beat": 0.997916666666697,
            "velocity": 64,
            "track": 0
        },
        {
            "pitch": 82,
            "start_beat": 806.5,
            "duration_beat": 0.497916666666697,
            "velocity": 64,
            "track": 0
        },
        {
            "pitch": 80,
            "start_beat": 807.0,
            "duration_beat": 0.997916666666697,
            "velocity": 64,
            "track": 0
        },
        {
            "pitch": 82,
            "start_beat": 807.5,
            "duration_beat": 0.4729166666667197,
            "velocity": 64,
            "track": 0
        },
        {
            "pitch": 78,
            "start_beat": 808.0,
            "duration_beat": 0.497916666666697,
            "velocity": 49,
            "track": 0
        },
        {
            "pitch": 51,
            "start_beat": 808.0,
            "duration_beat": 0.497916666666697,
            "velocity": 49,
            "track": 1
        },
        {
            "pitch": 79,
            "start_beat": 808.5,
            "duration_beat": 0.497916666666697,
            "velocity": 49,
            "track": 0
        },
        {
            "pitch": 91,
            "start_beat": 809.0,
            "duration_beat": 0.497916666666697,
            "velocity": 49,
            "track": 0
        },
        {
            "pitch": 72,
            "start_beat": 809.0,
            "duration_beat": 0.997916666666697,
            "velocity": 49,
            "track": 1
        },
        {
            "pitch": 63,
            "start_beat": 809.0,
            "duration_beat": 1.997916666666697,
            "velocity": 49,
            "track": 1
        },
        {
            "pitch": 67,
            "start_beat": 809.0,
            "duration_beat": 1.997916666666697,
            "velocity": 49,
            "track": 1
        },
        {
            "pitch": 86,
            "start_beat": 809.5,
            "duration_beat": 0.497916666666697,
            "velocity": 49,
            "track": 0
        },
        {
            "pitch": 87,
            "start_beat": 810.0,
            "duration_beat": 0.497916666666697,
            "velocity": 49,
            "track": 0
        },
        {
            "pitch": 70,
            "start_beat": 810.0,
            "duration_beat": 0.9479166666666288,
            "velocity": 49,
            "track": 1
        },
        {
            "pitch": 83,
            "start_beat": 810.5,
            "duration_beat": 0.497916666666697,
            "velocity": 49,
            "track": 0
        },
        {
            "pitch": 84,
            "start_beat": 811.0,
            "duration_beat": 0.497916666666697,
            "velocity": 49,
            "track": 0
        },
        {
            "pitch": 46,
            "start_beat": 811.0,
            "duration_beat": 0.497916666666697,
            "velocity": 49,
            "track": 1
        },
        {
            "pitch": 79,
            "start_beat": 811.5,
            "duration_beat": 0.497916666666697,
            "velocity": 49,
            "track": 0
        },
        {
            "pitch": 82,
            "start_beat": 812.0,
            "duration_beat": 0.497916666666697,
            "velocity": 49,
            "track": 0
        },
        {
            "pitch": 57,
            "start_beat": 812.0,
            "duration_beat": 0.997916666666697,
            "velocity": 49,
            "track": 1
        },
        {
            "pitch": 62,
            "start_beat": 812.0,
            "duration_beat": 1.997916666666697,
            "velocity": 49,
            "track": 1
        },
        {
            "pitch": 68,
            "start_beat": 812.0,
            "duration_beat": 1.997916666666697,
            "velocity": 49,
            "track": 1
        },
        {
            "pitch": 80,
            "start_beat": 812.5,
            "duration_beat": 0.497916666666697,
            "velocity": 49,
            "track": 0
        },
        {
            "pitch": 79,
            "start_beat": 813.0,
            "duration_beat": 0.497916666666697,
            "velocity": 49,
            "track": 0
        },
        {
            "pitch": 58,
            "start_beat": 813.0,
            "duration_beat": 0.9479166666666288,
            "velocity": 49,
            "track": 1
        },
        {
            "pitch": 77,
            "start_beat": 813.5,
            "duration_beat": 0.4729166666667197,
            "velocity": 49,
            "track": 0
        },
        {
            "pitch": 78,
            "start_beat": 814.0,
            "duration_beat": 0.497916666666697,
            "velocity": 49,
            "track": 0
        },
        {
            "pitch": 51,
            "start_beat": 814.0,
            "duration_beat": 0.497916666666697,
            "velocity": 49,
            "track": 1
        },
        {
            "pitch": 79,
            "start_beat": 814.5,
            "duration_beat": 0.497916666666697,
            "velocity": 49,
            "track": 0
        },
        {
            "pitch": 91,
            "start_beat": 815.0,
            "duration_beat": 0.497916666666697,
            "velocity": 49,
            "track": 0
        },
        {
            "pitch": 72,
            "start_beat": 815.0,
            "duration_beat": 0.997916666666697,
            "velocity": 49,
            "track": 1
        },
        {
            "pitch": 63,
            "start_beat": 815.0,
            "duration_beat": 1.997916666666697,
            "velocity": 49,
            "track": 1
        },
        {
            "pitch": 67,
            "start_beat": 815.0,
            "duration_beat": 1.997916666666697,
            "velocity": 49,
            "track": 1
        },
        {
            "pitch": 86,
            "start_beat": 815.5,
            "duration_beat": 0.497916666666697,
            "velocity": 49,
            "track": 0
        },
        {
            "pitch": 87,
            "start_beat": 816.0,
            "duration_beat": 0.497916666666697,
            "velocity": 49,
            "track": 0
        },
        {
            "pitch": 70,
            "start_beat": 816.0,
            "duration_beat": 0.9479166666666288,
            "velocity": 49,
            "track": 1
        },
        {
            "pitch": 83,
            "start_beat": 816.5,
            "duration_beat": 0.497916666666697,
            "velocity": 49,
            "track": 0
        },
        {
            "pitch": 84,
            "start_beat": 817.0,
            "duration_beat": 0.497916666666697,
            "velocity": 49,
            "track": 0
        },
        {
            "pitch": 46,
            "start_beat": 817.0,
            "duration_beat": 0.497916666666697,
            "velocity": 49,
            "track": 1
        },
        {
            "pitch": 79,
            "start_beat": 817.5,
            "duration_beat": 0.497916666666697,
            "velocity": 49,
            "track": 0
        },
        {
            "pitch": 82,
            "start_beat": 818.0,
            "duration_beat": 0.497916666666697,
            "velocity": 49,
            "track": 0
        },
        {
            "pitch": 57,
            "start_beat": 818.0,
            "duration_beat": 0.997916666666697,
            "velocity": 49,
            "track": 1
        },
        {
            "pitch": 62,
            "start_beat": 818.0,
            "duration_beat": 1.997916666666697,
            "velocity": 49,
            "track": 1
        },
        {
            "pitch": 68,
            "start_beat": 818.0,
            "duration_beat": 1.997916666666697,
            "velocity": 49,
            "track": 1
        },
        {
            "pitch": 80,
            "start_beat": 818.5,
            "duration_beat": 0.497916666666697,
            "velocity": 49,
            "track": 0
        },
        {
            "pitch": 79,
            "start_beat": 819.0,
            "duration_beat": 0.497916666666697,
            "velocity": 49,
            "track": 0
        },
        {
            "pitch": 58,
            "start_beat": 819.0,
            "duration_beat": 0.9479166666666288,
            "velocity": 49,
            "track": 1
        },
        {
            "pitch": 77,
            "start_beat": 819.5,
            "duration_beat": 0.4729166666667197,
            "velocity": 49,
            "track": 0
        },
        {
            "pitch": 78,
            "start_beat": 820.0,
            "duration_beat": 0.497916666666697,
            "velocity": 49,
            "track": 0
        },
        {
            "pitch": 51,
            "start_beat": 820.0,
            "duration_beat": 0.497916666666697,
            "velocity": 49,
            "track": 1
        },
        {
            "pitch": 79,
            "start_beat": 820.5,
            "duration_beat": 0.497916666666697,
            "velocity": 50,
            "track": 0
        },
        {
            "pitch": 91,
            "start_beat": 821.0,
            "duration_beat": 0.497916666666697,
            "velocity": 51,
            "track": 0
        },
        {
            "pitch": 68,
            "start_beat": 821.0,
            "duration_beat": 0.997916666666697,
            "velocity": 51,
            "track": 1
        },
        {
            "pitch": 58,
            "start_beat": 821.0,
            "duration_beat": 1.997916666666697,
            "velocity": 51,
            "track": 1
        },
        {
            "pitch": 63,
            "start_beat": 821.0,
            "duration_beat": 1.997916666666697,
            "velocity": 51,
            "track": 1
        },
        {
            "pitch": 86,
            "start_beat": 821.5,
            "duration_beat": 0.497916666666697,
            "velocity": 53,
            "track": 0
        },
        {
            "pitch": 87,
            "start_beat": 822.0,
            "duration_beat": 0.497916666666697,
            "velocity": 54,
            "track": 0
        },
        {
            "pitch": 67,
            "start_beat": 822.0,
            "duration_beat": 0.9479166666666288,
            "velocity": 54,
            "track": 1
        },
        {
            "pitch": 83,
            "start_beat": 822.5,
            "duration_beat": 0.497916666666697,
            "velocity": 55,
            "track": 0
        },
        {
            "pitch": 84,
            "start_beat": 823.0,
            "duration_beat": 0.497916666666697,
            "velocity": 57,
            "track": 0
        },
        {
            "pitch": 44,
            "start_beat": 823.0,
            "duration_beat": 0.497916666666697,
            "velocity": 57,
            "track": 1
        },
        {
            "pitch": 79,
            "start_beat": 823.5,
            "duration_beat": 0.497916666666697,
            "velocity": 58,
            "track": 0
        },
        {
            "pitch": 82,
            "start_beat": 824.0,
            "duration_beat": 0.497916666666697,
            "velocity": 59,
            "track": 0
        },
        {
            "pitch": 67,
            "start_beat": 824.0,
            "duration_beat": 0.997916666666697,
            "velocity": 59,
            "track": 1
        },
        {
            "pitch": 56,
            "start_beat": 824.0,
            "duration_beat": 1.997916666666697,
            "velocity": 59,
            "track": 1
        },
        {
            "pitch": 60,
            "start_beat": 824.0,
            "duration_beat": 1.997916666666697,
            "velocity": 59,
            "track": 1
        },
        {
            "pitch": 80,
            "start_beat": 824.5,
            "duration_beat": 0.497916666666697,
            "velocity": 61,
            "track": 0
        },
        {
            "pitch": 79,
            "start_beat": 825.0,
            "duration_beat": 0.497916666666697,
            "velocity": 62,
            "track": 0
        },
        {
            "pitch": 65,
            "start_beat": 825.0,
            "duration_beat": 0.9479166666666288,
            "velocity": 62,
            "track": 1
        },
        {
            "pitch": 77,
            "start_beat": 825.5,
            "duration_beat": 0.497916666666697,
            "velocity": 63,
            "track": 0
        },
        {
            "pitch": 75,
            "start_beat": 826.0,
            "duration_beat": 1.497916666666697,
            "velocity": 65,
            "track": 0
        },
        {
            "pitch": 46,
            "start_beat": 826.0,
            "duration_beat": 0.497916666666697,
            "velocity": 65,
            "track": 1
        },
        {
            "pitch": 80,
            "start_beat": 826.5,
            "duration_beat": 0.497916666666697,
            "velocity": 64,
            "track": 0
        },
        {
            "pitch": 77,
            "start_beat": 827.0,
            "duration_beat": 0.497916666666697,
            "velocity": 63,
            "track": 0
        },
        {
            "pitch": 63,
            "start_beat": 827.0,
            "duration_beat": 0.997916666666697,
            "velocity": 63,
            "track": 1
        },
        {
            "pitch": 53,
            "start_beat": 827.0,
            "duration_beat": 1.997916666666697,
            "velocity": 63,
            "track": 1
        },
        {
            "pitch": 56,
            "start_beat": 827.0,
            "duration_beat": 1.997916666666697,
            "velocity": 63,
            "track": 1
        },
        {
            "pitch": 74,
            "start_beat": 827.5,
            "duration_beat": 1.497916666666697,
            "velocity": 61,
            "track": 0
        },
        {
            "pitch": 80,
            "start_beat": 828.0,
            "duration_beat": 0.497916666666697,
            "velocity": 60,
            "track": 0
        },
        {
            "pitch": 62,
            "start_beat": 828.0,
            "duration_beat": 0.9479166666666288,
            "velocity": 60,
            "track": 1
        },
        {
            "pitch": 77,
            "start_beat": 828.5,
            "duration_beat": 0.497916666666697,
            "velocity": 59,
            "track": 0
        },
        {
            "pitch": 72,
            "start_beat": 829.0,
            "duration_beat": 1.497916666666697,
            "velocity": 57,
            "track": 0
        },
        {
            "pitch": 46,
            "start_beat": 829.0,
            "duration_beat": 0.497916666666697,
            "velocity": 57,
            "track": 1
        },
        {
            "pitch": 80,
            "start_beat": 829.5,
            "duration_beat": 0.497916666666697,
            "velocity": 56,
            "track": 0
        },
        {
            "pitch": 77,
            "start_beat": 830.0,
            "duration_beat": 0.497916666666697,
            "velocity": 55,
            "track": 0
        },
        {
            "pitch": 60,
            "start_beat": 830.0,
            "duration_beat": 0.997916666666697,
            "velocity": 55,
            "track": 1
        },
        {
            "pitch": 53,
            "start_beat": 830.0,
            "duration_beat": 1.997916666666697,
            "velocity": 55,
            "track": 1
        },
        {
            "pitch": 56,
            "start_beat": 830.0,
            "duration_beat": 1.997916666666697,
            "velocity": 55,
            "track": 1
        },
        {
            "pitch": 70,
            "start_beat": 830.5,
            "duration_beat": 1.497916666666697,
            "velocity": 53,
            "track": 0
        },
        {
            "pitch": 80,
            "start_beat": 831.0,
            "duration_beat": 0.497916666666697,
            "velocity": 52,
            "track": 0
        },
        {
            "pitch": 58,
            "start_beat": 831.0,
            "duration_beat": 0.9479166666666288,
            "velocity": 52,
            "track": 1
        },
        {
            "pitch": 77,
            "start_beat": 831.5,
            "duration_beat": 0.4729166666667197,
            "velocity": 51,
            "track": 0
        },
        {
            "pitch": 78,
            "start_beat": 832.0,
            "duration_beat": 0.497916666666697,
            "velocity": 49,
            "track": 0
        },
        {
            "pitch": 51,
            "start_beat": 832.0,
            "duration_beat": 0.497916666666697,
            "velocity": 49,
            "track": 1
        },
        {
            "pitch": 79,
            "start_beat": 832.5,
            "duration_beat": 0.497916666666697,
            "velocity": 49,
            "track": 0
        },
        {
            "pitch": 91,
            "start_beat": 833.0,
            "duration_beat": 0.497916666666697,
            "velocity": 50,
            "track": 0
        },
        {
            "pitch": 72,
            "start_beat": 833.0,
            "duration_beat": 0.997916666666697,
            "velocity": 50,
            "track": 1
        },
        {
            "pitch": 63,
            "start_beat": 833.0,
            "duration_beat": 1.997916666666697,
            "velocity": 50,
            "track": 1
        },
        {
            "pitch": 67,
            "start_beat": 833.0,
            "duration_beat": 1.997916666666697,
            "velocity": 50,
            "track": 1
        },
        {
            "pitch": 86,
            "start_beat": 833.5,
            "duration_beat": 0.497916666666697,
            "velocity": 51,
            "track": 0
        },
        {
            "pitch": 87,
            "start_beat": 834.0,
            "duration_beat": 0.497916666666697,
            "velocity": 51,
            "track": 0
        },
        {
            "pitch": 70,
            "start_beat": 834.0,
            "duration_beat": 0.9479166666666288,
            "velocity": 51,
            "track": 1
        },
        {
            "pitch": 83,
            "start_beat": 834.5,
            "duration_beat": 0.497916666666697,
            "velocity": 52,
            "track": 0
        },
        {
            "pitch": 84,
            "start_beat": 835.0,
            "duration_beat": 0.497916666666697,
            "velocity": 53,
            "track": 0
        },
        {
            "pitch": 46,
            "start_beat": 835.0,
            "duration_beat": 0.497916666666697,
            "velocity": 53,
            "track": 1
        },
        {
            "pitch": 79,
            "start_beat": 835.5,
            "duration_beat": 0.497916666666697,
            "velocity": 53,
            "track": 0
        },
        {
            "pitch": 82,
            "start_beat": 836.0,
            "duration_beat": 0.497916666666697,
            "velocity": 54,
            "track": 0
        },
        {
            "pitch": 57,
            "start_beat": 836.0,
            "duration_beat": 0.997916666666697,
            "velocity": 54,
            "track": 1
        },
        {
            "pitch": 62,
            "start_beat": 836.0,
            "duration_beat": 1.997916666666697,
            "velocity": 54,
            "track": 1
        },
        {
            "pitch": 68,
            "start_beat": 836.0,
            "duration_beat": 1.997916666666697,
            "velocity": 54,
            "track": 1
        },
        {
            "pitch": 80,
            "start_beat": 836.5,
            "duration_beat": 0.497916666666697,
            "velocity": 55,
            "track": 0
        },
        {
            "pitch": 79,
            "start_beat": 837.0,
            "duration_beat": 0.497916666666697,
            "velocity": 55,
            "track": 0
        },
        {
            "pitch": 58,
            "start_beat": 837.0,
            "duration_beat": 0.9479166666666288,
            "velocity": 55,
            "track": 1
        },
        {
            "pitch": 77,
            "start_beat": 837.5,
            "duration_beat": 0.4729166666667197,
            "velocity": 56,
            "track": 0
        },
        {
            "pitch": 78,
            "start_beat": 838.0,
            "duration_beat": 0.497916666666697,
            "velocity": 57,
            "track": 0
        },
        {
            "pitch": 51,
            "start_beat": 838.0,
            "duration_beat": 0.497916666666697,
            "velocity": 57,
            "track": 1
        },
        {
            "pitch": 79,
            "start_beat": 838.5,
            "duration_beat": 0.497916666666697,
            "velocity": 57,
            "track": 0
        },
        {
            "pitch": 91,
            "start_beat": 839.0,
            "duration_beat": 0.497916666666697,
            "velocity": 58,
            "track": 0
        },
        {
            "pitch": 72,
            "start_beat": 839.0,
            "duration_beat": 0.997916666666697,
            "velocity": 58,
            "track": 1
        },
        {
            "pitch": 63,
            "start_beat": 839.0,
            "duration_beat": 1.997916666666697,
            "velocity": 58,
            "track": 1
        },
        {
            "pitch": 67,
            "start_beat": 839.0,
            "duration_beat": 1.997916666666697,
            "velocity": 58,
            "track": 1
        },
        {
            "pitch": 86,
            "start_beat": 839.5,
            "duration_beat": 0.497916666666697,
            "velocity": 59,
            "track": 0
        },
        {
            "pitch": 87,
            "start_beat": 840.0,
            "duration_beat": 0.497916666666697,
            "velocity": 59,
            "track": 0
        },
        {
            "pitch": 70,
            "start_beat": 840.0,
            "duration_beat": 0.9479166666666288,
            "velocity": 59,
            "track": 1
        },
        {
            "pitch": 83,
            "start_beat": 840.5,
            "duration_beat": 0.497916666666697,
            "velocity": 60,
            "track": 0
        },
        {
            "pitch": 84,
            "start_beat": 841.0,
            "duration_beat": 0.497916666666697,
            "velocity": 61,
            "track": 0
        },
        {
            "pitch": 46,
            "start_beat": 841.0,
            "duration_beat": 0.497916666666697,
            "velocity": 61,
            "track": 1
        },
        {
            "pitch": 79,
            "start_beat": 841.5,
            "duration_beat": 0.497916666666697,
            "velocity": 61,
            "track": 0
        },
        {
            "pitch": 82,
            "start_beat": 842.0,
            "duration_beat": 0.497916666666697,
            "velocity": 62,
            "track": 0
        },
        {
            "pitch": 57,
            "start_beat": 842.0,
            "duration_beat": 0.997916666666697,
            "velocity": 62,
            "track": 1
        },
        {
            "pitch": 62,
            "start_beat": 842.0,
            "duration_beat": 1.997916666666697,
            "velocity": 62,
            "track": 1
        },
        {
            "pitch": 68,
            "start_beat": 842.0,
            "duration_beat": 1.997916666666697,
            "velocity": 62,
            "track": 1
        },
        {
            "pitch": 80,
            "start_beat": 842.5,
            "duration_beat": 0.497916666666697,
            "velocity": 63,
            "track": 0
        },
        {
            "pitch": 79,
            "start_beat": 843.0,
            "duration_beat": 0.497916666666697,
            "velocity": 63,
            "track": 0
        },
        {
            "pitch": 58,
            "start_beat": 843.0,
            "duration_beat": 0.9479166666666288,
            "velocity": 63,
            "track": 1
        },
        {
            "pitch": 77,
            "start_beat": 843.5,
            "duration_beat": 0.4729166666667197,
            "velocity": 64,
            "track": 0
        },
        {
            "pitch": 78,
            "start_beat": 844.0,
            "duration_beat": 0.497916666666697,
            "velocity": 65,
            "track": 0
        },
        {
            "pitch": 51,
            "start_beat": 844.0,
            "duration_beat": 0.497916666666697,
            "velocity": 65,
            "track": 1
        },
        {
            "pitch": 79,
            "start_beat": 844.5,
            "duration_beat": 0.497916666666697,
            "velocity": 65,
            "track": 0
        },
        {
            "pitch": 91,
            "start_beat": 845.0,
            "duration_beat": 0.497916666666697,
            "velocity": 65,
            "track": 0
        },
        {
            "pitch": 77,
            "start_beat": 845.0,
            "duration_beat": 0.997916666666697,
            "velocity": 65,
            "track": 1
        },
        {
            "pitch": 67,
            "start_beat": 845.0,
            "duration_beat": 1.997916666666697,
            "velocity": 65,
            "track": 1
        },
        {
            "pitch": 70,
            "start_beat": 845.0,
            "duration_beat": 1.997916666666697,
            "velocity": 65,
            "track": 1
        },
        {
            "pitch": 86,
            "start_beat": 845.5,
            "duration_beat": 0.497916666666697,
            "velocity": 65,
            "track": 0
        },
        {
            "pitch": 87,
            "start_beat": 846.0,
            "duration_beat": 0.497916666666697,
            "velocity": 65,
            "track": 0
        },
        {
            "pitch": 75,
            "start_beat": 846.0,
            "duration_beat": 0.9479166666666288,
            "velocity": 65,
            "track": 1
        },
        {
            "pitch": 83,
            "start_beat": 846.5,
            "duration_beat": 0.497916666666697,
            "velocity": 65,
            "track": 0
        },
        {
            "pitch": 84,
            "start_beat": 847.0,
            "duration_beat": 0.497916666666697,
            "velocity": 65,
            "track": 0
        },
        {
            "pitch": 44,
            "start_beat": 847.0,
            "duration_beat": 0.497916666666697,
            "velocity": 65,
            "track": 1
        },
        {
            "pitch": 79,
            "start_beat": 847.5,
            "duration_beat": 0.497916666666697,
            "velocity": 65,
            "track": 0
        },
        {
            "pitch": 82,
            "start_beat": 848.0,
            "duration_beat": 0.497916666666697,
            "velocity": 65,
            "track": 0
        },
        {
            "pitch": 67,
            "start_beat": 848.0,
            "duration_beat": 0.997916666666697,
            "velocity": 65,
            "track": 1
        },
        {
            "pitch": 56,
            "start_beat": 848.0,
            "duration_beat": 1.997916666666697,
            "velocity": 65,
            "track": 1
        },
        {
            "pitch": 60,
            "start_beat": 848.0,
            "duration_beat": 1.997916666666697,
            "velocity": 65,
            "track": 1
        },
        {
            "pitch": 80,
            "start_beat": 848.5,
            "duration_beat": 0.497916666666697,
            "velocity": 65,
            "track": 0
        },
        {
            "pitch": 79,
            "start_beat": 849.0,
            "duration_beat": 0.497916666666697,
            "velocity": 65,
            "track": 0
        },
        {
            "pitch": 65,
            "start_beat": 849.0,
            "duration_beat": 0.9479166666666288,
            "velocity": 65,
            "track": 1
        },
        {
            "pitch": 77,
            "start_beat": 849.5,
            "duration_beat": 0.497916666666697,
            "velocity": 65,
            "track": 0
        },
        {
            "pitch": 76,
            "start_beat": 850.0,
            "duration_beat": 0.497916666666697,
            "velocity": 65,
            "track": 0
        },
        {
            "pitch": 46,
            "start_beat": 850.0,
            "duration_beat": 0.9479166666666288,
            "velocity": 65,
            "track": 1
        },
        {
            "pitch": 75,
            "start_beat": 850.5,
            "duration_beat": 0.497916666666697,
            "velocity": 65,
            "track": 0
        },
        {
            "pitch": 74,
            "start_beat": 851.0,
            "duration_beat": 0.497916666666697,
            "velocity": 65,
            "track": 0
        },
        {
            "pitch": 73,
            "start_beat": 851.5,
            "duration_beat": 0.497916666666697,
            "velocity": 65,
            "track": 0
        },
        {
            "pitch": 72,
            "start_beat": 852.0,
            "duration_beat": 0.497916666666697,
            "velocity": 65,
            "track": 0
        },
        {
            "pitch": 53,
            "start_beat": 852.0,
            "duration_beat": 0.9479166666666288,
            "velocity": 65,
            "track": 1
        },
        {
            "pitch": 56,
            "start_beat": 852.0,
            "duration_beat": 0.9479166666666288,
            "velocity": 65,
            "track": 1
        },
        {
            "pitch": 62,
            "start_beat": 852.0,
            "duration_beat": 0.9479166666666288,
            "velocity": 65,
            "track": 1
        },
        {
            "pitch": 71,
            "start_beat": 852.5,
            "duration_beat": 0.497916666666697,
            "velocity": 65,
            "track": 0
        },
        {
            "pitch": 70,
            "start_beat": 853.0,
            "duration_beat": 0.497916666666697,
            "velocity": 65,
            "track": 0
        },
        {
            "pitch": 53,
            "start_beat": 853.0,
            "duration_beat": 0.9479166666666288,
            "velocity": 65,
            "track": 1
        },
        {
            "pitch": 56,
            "start_beat": 853.0,
            "duration_beat": 0.9479166666666288,
            "velocity": 65,
            "track": 1
        },
        {
            "pitch": 62,
            "start_beat": 853.0,
            "duration_beat": 0.9479166666666288,
            "velocity": 65,
            "track": 1
        },
        {
            "pitch": 69,
            "start_beat": 853.5,
            "duration_beat": 0.497916666666697,
            "velocity": 65,
            "track": 0
        },
        {
            "pitch": 72,
            "start_beat": 854.0,
            "duration_beat": 0.497916666666697,
            "velocity": 65,
            "track": 0
        },
        {
            "pitch": 53,
            "start_beat": 854.0,
            "duration_beat": 0.9479166666666288,
            "velocity": 65,
            "track": 1
        },
        {
            "pitch": 56,
            "start_beat": 854.0,
            "duration_beat": 0.9479166666666288,
            "velocity": 65,
            "track": 1
        },
        {
            "pitch": 62,
            "start_beat": 854.0,
            "duration_beat": 0.9479166666666288,
            "velocity": 65,
            "track": 1
        },
        {
            "pitch": 70,
            "start_beat": 854.5,
            "duration_beat": 0.497916666666697,
            "velocity": 65,
            "track": 0
        },
        {
            "pitch": 69,
            "start_beat": 855.0,
            "duration_beat": 0.497916666666697,
            "velocity": 65,
            "track": 0
        },
        {
            "pitch": 53,
            "start_beat": 855.0,
            "duration_beat": 0.9479166666666288,
            "velocity": 65,
            "track": 1
        },
        {
            "pitch": 56,
            "start_beat": 855.0,
            "duration_beat": 0.9479166666666288,
            "velocity": 65,
            "track": 1
        },
        {
            "pitch": 62,
            "start_beat": 855.0,
            "duration_beat": 0.9479166666666288,
            "velocity": 65,
            "track": 1
        },
        {
            "pitch": 68,
            "start_beat": 855.5,
            "duration_beat": 0.4729166666667197,
            "velocity": 65,
            "track": 0
        },
        {
            "pitch": 67,
            "start_beat": 856.0,
            "duration_beat": 0.497916666666697,
            "velocity": 65,
            "track": 0
        },
        {
            "pitch": 51,
            "start_beat": 856.0,
            "duration_beat": 0.6666666666666288,
            "velocity": 78,
            "track": 1
        },
        {
            "pitch": 58,
            "start_beat": 856.0,
            "duration_beat": 0.6666666666666288,
            "velocity": 78,
            "track": 1
        },
        {
            "pitch": 61,
            "start_beat": 856.0,
            "duration_beat": 0.6666666666666288,
            "velocity": 78,
            "track": 1
        },
        {
            "pitch": 68,
            "start_beat": 856.5,
            "duration_beat": 0.497916666666697,
            "velocity": 66,
            "track": 0
        },
        {
            "pitch": 69,
            "start_beat": 857.0,
            "duration_beat": 0.497916666666697,
            "velocity": 67,
            "track": 0
        },
        {
            "pitch": 70,
            "start_beat": 857.5,
            "duration_beat": 0.497916666666697,
            "velocity": 69,
            "track": 0
        },
        {
            "pitch": 39,
            "start_beat": 857.5,
            "duration_beat": 0.4729166666667197,
            "velocity": 69,
            "track": 1
        },
        {
            "pitch": 51,
            "start_beat": 857.5,
            "duration_beat": 0.4729166666667197,
            "velocity": 69,
            "track": 1
        },
        {
            "pitch": 72,
            "start_beat": 858.0,
            "duration_beat": 0.497916666666697,
            "velocity": 70,
            "track": 0
        },
        {
            "pitch": 39,
            "start_beat": 858.0,
            "duration_beat": 0.497916666666697,
            "velocity": 70,
            "track": 1
        },
        {
            "pitch": 51,
            "start_beat": 858.0,
            "duration_beat": 0.497916666666697,
            "velocity": 70,
            "track": 1
        },
        {
            "pitch": 70,
            "start_beat": 858.5,
            "duration_beat": 0.497916666666697,
            "velocity": 71,
            "track": 0
        },
        {
            "pitch": 68,
            "start_beat": 859.0,
            "duration_beat": 0.497916666666697,
            "velocity": 73,
            "track": 0
        },
        {
            "pitch": 56,
            "start_beat": 859.0,
            "duration_beat": 0.6666666666666288,
            "velocity": 87,
            "track": 1
        },
        {
            "pitch": 60,
            "start_beat": 859.0,
            "duration_beat": 0.6666666666666288,
            "velocity": 87,
            "track": 1
        },
        {
            "pitch": 70,
            "start_beat": 859.5,
            "duration_beat": 0.497916666666697,
            "velocity": 74,
            "track": 0
        },
        {
            "pitch": 71,
            "start_beat": 860.0,
            "duration_beat": 0.497916666666697,
            "velocity": 75,
            "track": 0
        },
        {
            "pitch": 43,
            "start_beat": 860.0,
            "duration_beat": 0.497916666666697,
            "velocity": 75,
            "track": 1
        },
        {
            "pitch": 55,
            "start_beat": 860.0,
            "duration_beat": 0.497916666666697,
            "velocity": 75,
            "track": 1
        },
        {
            "pitch": 72,
            "start_beat": 860.5,
            "duration_beat": 0.497916666666697,
            "velocity": 77,
            "track": 0
        },
        {
            "pitch": 73,
            "start_beat": 861.0,
            "duration_beat": 0.497916666666697,
            "velocity": 78,
            "track": 0
        },
        {
            "pitch": 42,
            "start_beat": 861.0,
            "duration_beat": 0.497916666666697,
            "velocity": 78,
            "track": 1
        },
        {
            "pitch": 54,
            "start_beat": 861.0,
            "duration_beat": 0.497916666666697,
            "velocity": 78,
            "track": 1
        },
        {
            "pitch": 72,
            "start_beat": 861.5,
            "duration_beat": 0.4729166666667197,
            "velocity": 79,
            "track": 0
        },
        {
            "pitch": 69,
            "start_beat": 862.0,
            "duration_beat": 0.497916666666697,
            "velocity": 81,
            "track": 0
        },
        {
            "pitch": 57,
            "start_beat": 862.0,
            "duration_beat": 0.6666666666666288,
            "velocity": 97,
            "track": 1
        },
        {
            "pitch": 63,
            "start_beat": 862.0,
            "duration_beat": 0.6666666666666288,
            "velocity": 97,
            "track": 1
        },
        {
            "pitch": 70,
            "start_beat": 862.5,
            "duration_beat": 0.497916666666697,
            "velocity": 82,
            "track": 0
        },
        {
            "pitch": 71,
            "start_beat": 863.0,
            "duration_beat": 0.497916666666697,
            "velocity": 83,
            "track": 0
        },
        {
            "pitch": 72,
            "start_beat": 863.5,
            "duration_beat": 0.497916666666697,
            "velocity": 85,
            "track": 0
        },
        {
            "pitch": 41,
            "start_beat": 863.5,
            "duration_beat": 0.4729166666667197,
            "velocity": 85,
            "track": 1
        },
        {
            "pitch": 53,
            "start_beat": 863.5,
            "duration_beat": 0.4729166666667197,
            "velocity": 85,
            "track": 1
        },
        {
            "pitch": 74,
            "start_beat": 864.0,
            "duration_beat": 0.497916666666697,
            "velocity": 86,
            "track": 0
        },
        {
            "pitch": 41,
            "start_beat": 864.0,
            "duration_beat": 0.497916666666697,
            "velocity": 86,
            "track": 1
        },
        {
            "pitch": 53,
            "start_beat": 864.0,
            "duration_beat": 0.497916666666697,
            "velocity": 86,
            "track": 1
        },
        {
            "pitch": 72,
            "start_beat": 864.5,
            "duration_beat": 0.497916666666697,
            "velocity": 87,
            "track": 0
        },
        {
            "pitch": 70,
            "start_beat": 865.0,
            "duration_beat": 0.497916666666697,
            "velocity": 89,
            "track": 0
        },
        {
            "pitch": 58,
            "start_beat": 865.0,
            "duration_beat": 0.6666666666666288,
            "velocity": 106,
            "track": 1
        },
        {
            "pitch": 62,
            "start_beat": 865.0,
            "duration_beat": 0.6666666666666288,
            "velocity": 106,
            "track": 1
        },
        {
            "pitch": 72,
            "start_beat": 865.5,
            "duration_beat": 0.497916666666697,
            "velocity": 90,
            "track": 0
        },
        {
            "pitch": 73,
            "start_beat": 866.0,
            "duration_beat": 0.497916666666697,
            "velocity": 91,
            "track": 0
        },
        {
            "pitch": 45,
            "start_beat": 866.0,
            "duration_beat": 0.497916666666697,
            "velocity": 91,
            "track": 1
        },
        {
            "pitch": 57,
            "start_beat": 866.0,
            "duration_beat": 0.497916666666697,
            "velocity": 91,
            "track": 1
        },
        {
            "pitch": 74,
            "start_beat": 866.5,
            "duration_beat": 0.497916666666697,
            "velocity": 93,
            "track": 0
        },
        {
            "pitch": 75,
            "start_beat": 867.0,
            "duration_beat": 0.497916666666697,
            "velocity": 94,
            "track": 0
        },
        {
            "pitch": 44,
            "start_beat": 867.0,
            "duration_beat": 0.497916666666697,
            "velocity": 94,
            "track": 1
        },
        {
            "pitch": 56,
            "start_beat": 867.0,
            "duration_beat": 0.497916666666697,
            "velocity": 94,
            "track": 1
        },
        {
            "pitch": 74,
            "start_beat": 867.5,
            "duration_beat": 0.4729166666667197,
            "velocity": 95,
            "track": 0
        },
        {
            "pitch": 71,
            "start_beat": 868.0,
            "duration_beat": 0.497916666666697,
            "velocity": 97,
            "track": 0
        },
        {
            "pitch": 59,
            "start_beat": 868.0,
            "duration_beat": 0.9479166666666288,
            "velocity": 97,
            "track": 1
        },
        {
            "pitch": 65,
            "start_beat": 868.0,
            "duration_beat": 0.9479166666666288,
            "velocity": 97,
            "track": 1
        },
        {
            "pitch": 72,
            "start_beat": 868.5,
            "duration_beat": 0.497916666666697,
            "velocity": 98,
            "track": 0
        },
        {
            "pitch": 73,
            "start_beat": 869.0,
            "duration_beat": 0.497916666666697,
            "velocity": 99,
            "track": 0
        },
        {
            "pitch": 74,
            "start_beat": 869.5,
            "duration_beat": 0.497916666666697,
            "velocity": 101,
            "track": 0
        },
        {
            "pitch": 43,
            "start_beat": 869.5,
            "duration_beat": 0.4729166666667197,
            "velocity": 101,
            "track": 1
        },
        {
            "pitch": 55,
            "start_beat": 869.5,
            "duration_beat": 0.4729166666667197,
            "velocity": 101,
            "track": 1
        },
        {
            "pitch": 75,
            "start_beat": 870.0,
            "duration_beat": 0.497916666666697,
            "velocity": 102,
            "track": 0
        },
        {
            "pitch": 43,
            "start_beat": 870.0,
            "duration_beat": 0.497916666666697,
            "velocity": 102,
            "track": 1
        },
        {
            "pitch": 55,
            "start_beat": 870.0,
            "duration_beat": 0.497916666666697,
            "velocity": 102,
            "track": 1
        },
        {
            "pitch": 74,
            "start_beat": 870.5,
            "duration_beat": 0.497916666666697,
            "velocity": 103,
            "track": 0
        },
        {
            "pitch": 72,
            "start_beat": 871.0,
            "duration_beat": 0.497916666666697,
            "velocity": 105,
            "track": 0
        },
        {
            "pitch": 60,
            "start_beat": 871.0,
            "duration_beat": 0.997916666666697,
            "velocity": 105,
            "track": 1
        },
        {
            "pitch": 63,
            "start_beat": 871.0,
            "duration_beat": 0.997916666666697,
            "velocity": 105,
            "track": 1
        },
        {
            "pitch": 73,
            "start_beat": 871.5,
            "duration_beat": 0.497916666666697,
            "velocity": 106,
            "track": 0
        },
        {
            "pitch": 74,
            "start_beat": 872.0,
            "duration_beat": 0.497916666666697,
            "velocity": 107,
            "track": 0
        },
        {
            "pitch": 36,
            "start_beat": 872.0,
            "duration_beat": 0.9479166666666288,
            "velocity": 107,
            "track": 1
        },
        {
            "pitch": 48,
            "start_beat": 872.0,
            "duration_beat": 0.9479166666666288,
            "velocity": 107,
            "track": 1
        },
        {
            "pitch": 75,
            "start_beat": 872.5,
            "duration_beat": 0.497916666666697,
            "velocity": 109,
            "track": 0
        },
        {
            "pitch": 76,
            "start_beat": 873.0,
            "duration_beat": 0.497916666666697,
            "velocity": 110,
            "track": 0
        },
        {
            "pitch": 77,
            "start_beat": 873.5,
            "duration_beat": 0.497916666666697,
            "velocity": 111,
            "track": 0
        },
        {
            "pitch": 79,
            "start_beat": 874.0,
            "duration_beat": 0.497916666666697,
            "velocity": 113,
            "track": 0
        },
        {
            "pitch": 56,
            "start_beat": 874.0,
            "duration_beat": 0.997916666666697,
            "velocity": 113,
            "track": 1
        },
        {
            "pitch": 63,
            "start_beat": 874.0,
            "duration_beat": 0.997916666666697,
            "velocity": 113,
            "track": 1
        },
        {
            "pitch": 77,
            "start_beat": 874.5,
            "duration_beat": 0.497916666666697,
            "velocity": 112,
            "track": 0
        },
        {
            "pitch": 76,
            "start_beat": 875.0,
            "duration_beat": 0.497916666666697,
            "velocity": 111,
            "track": 0
        },
        {
            "pitch": 47,
            "start_beat": 875.0,
            "duration_beat": 0.9479166666666288,
            "velocity": 111,
            "track": 1
        },
        {
            "pitch": 75,
            "start_beat": 875.5,
            "duration_beat": 0.497916666666697,
            "velocity": 109,
            "track": 0
        },
        {
            "pitch": 74,
            "start_beat": 876.0,
            "duration_beat": 0.497916666666697,
            "velocity": 108,
            "track": 0
        },
        {
            "pitch": 73,
            "start_beat": 876.5,
            "duration_beat": 0.497916666666697,
            "velocity": 107,
            "track": 0
        },
        {
            "pitch": 72,
            "start_beat": 877.0,
            "duration_beat": 0.497916666666697,
            "velocity": 105,
            "track": 0
        },
        {
            "pitch": 56,
            "start_beat": 877.0,
            "duration_beat": 0.997916666666697,
            "velocity": 105,
            "track": 1
        },
        {
            "pitch": 62,
            "start_beat": 877.0,
            "duration_beat": 0.997916666666697,
            "velocity": 105,
            "track": 1
        },
        {
            "pitch": 71,
            "start_beat": 877.5,
            "duration_beat": 0.497916666666697,
            "velocity": 104,
            "track": 0
        },
        {
            "pitch": 70,
            "start_beat": 878.0,
            "duration_beat": 0.497916666666697,
            "velocity": 103,
            "track": 0
        },
        {
            "pitch": 46,
            "start_beat": 878.0,
            "duration_beat": 0.9479166666666288,
            "velocity": 103,
            "track": 1
        },
        {
            "pitch": 69,
            "start_beat": 878.5,
            "duration_beat": 0.497916666666697,
            "velocity": 101,
            "track": 0
        },
        {
            "pitch": 70,
            "start_beat": 879.0,
            "duration_beat": 0.497916666666697,
            "velocity": 100,
            "track": 0
        },
        {
            "pitch": 68,
            "start_beat": 879.5,
            "duration_beat": 0.497916666666697,
            "velocity": 99,
            "track": 0
        },
        {
            "pitch": 67,
            "start_beat": 880.0,
            "duration_beat": 0.9479166666666288,
            "velocity": 97,
            "track": 0
        },
        {
            "pitch": 39,
            "start_beat": 880.0,
            "duration_beat": 0.9479166666666288,
            "velocity": 97,
            "track": 1
        },
        {
            "pitch": 51,
            "start_beat": 880.0,
            "duration_beat": 0.9479166666666288,
            "velocity": 97,
            "track": 1
        },
        {
            "pitch": 58,
            "start_beat": 881.0,
            "duration_beat": 0.497916666666697,
            "velocity": 97,
            "track": 0
        },
        {
            "pitch": 43,
            "start_beat": 881.0,
            "duration_beat": 0.9479166666666288,
            "velocity": 97,
            "track": 1
        },
        {
            "pitch": 55,
            "start_beat": 881.0,
            "duration_beat": 0.9479166666666288,
            "velocity": 97,
            "track": 1
        },
        {
            "pitch": 70,
            "start_beat": 881.5,
            "duration_beat": 0.497916666666697,
            "velocity": 97,
            "track": 0
        },
        {
            "pitch": 62,
            "start_beat": 882.0,
            "duration_beat": 0.997916666666697,
            "velocity": 98,
            "track": 0
        },
        {
            "pitch": 44,
            "start_beat": 882.0,
            "duration_beat": 0.9479166666666288,
            "velocity": 98,
            "track": 1
        },
        {
            "pitch": 56,
            "start_beat": 882.0,
            "duration_beat": 0.9479166666666288,
            "velocity": 98,
            "track": 1
        },
        {
            "pitch": 71,
            "start_beat": 882.5,
            "duration_beat": 0.497916666666697,
            "velocity": 98,
            "track": 0
        },
        {
            "pitch": 58,
            "start_beat": 883.0,
            "duration_beat": 0.497916666666697,
            "velocity": 98,
            "track": 0
        },
        {
            "pitch": 43,
            "start_beat": 883.0,
            "duration_beat": 0.9479166666666288,
            "velocity": 98,
            "track": 1
        },
        {
            "pitch": 55,
            "start_beat": 883.0,
            "duration_beat": 0.9479166666666288,
            "velocity": 98,
            "track": 1
        },
        {
            "pitch": 70,
            "start_beat": 883.5,
            "duration_beat": 0.497916666666697,
            "velocity": 99,
            "track": 0
        },
        {
            "pitch": 63,
            "start_beat": 884.0,
            "duration_beat": 0.997916666666697,
            "velocity": 99,
            "track": 0
        },
        {
            "pitch": 39,
            "start_beat": 884.0,
            "duration_beat": 0.9479166666666288,
            "velocity": 99,
            "track": 1
        },
        {
            "pitch": 51,
            "start_beat": 884.0,
            "duration_beat": 0.9479166666666288,
            "velocity": 99,
            "track": 1
        },
        {
            "pitch": 67,
            "start_beat": 884.5,
            "duration_beat": 0.497916666666697,
            "velocity": 99,
            "track": 0
        },
        {
            "pitch": 64,
            "start_beat": 885.0,
            "duration_beat": 1.997916666666697,
            "velocity": 100,
            "track": 0
        },
        {
            "pitch": 46,
            "start_beat": 885.0,
            "duration_beat": 0.9479166666666288,
            "velocity": 100,
            "track": 1
        },
        {
            "pitch": 58,
            "start_beat": 885.0,
            "duration_beat": 0.9479166666666288,
            "velocity": 100,
            "track": 1
        },
        {
            "pitch": 73,
            "start_beat": 885.5,
            "duration_beat": 0.497916666666697,
            "velocity": 100,
            "track": 0
        },
        {
            "pitch": 60,
            "start_beat": 886.0,
            "duration_beat": 0.497916666666697,
            "velocity": 100,
            "track": 0
        },
        {
            "pitch": 45,
            "start_beat": 886.0,
            "duration_beat": 0.9479166666666288,
            "velocity": 100,
            "track": 1
        },
        {
            "pitch": 57,
            "start_beat": 886.0,
            "duration_beat": 0.9479166666666288,
            "velocity": 100,
            "track": 1
        },
        {
            "pitch": 72,
            "start_beat": 886.5,
            "duration_beat": 0.497916666666697,
            "velocity": 101,
            "track": 0
        },
        {
            "pitch": 65,
            "start_beat": 887.0,
            "duration_beat": 0.997916666666697,
            "velocity": 101,
            "track": 0
        },
        {
            "pitch": 41,
            "start_beat": 887.0,
            "duration_beat": 0.9479166666666288,
            "velocity": 101,
            "track": 1
        },
        {
            "pitch": 53,
            "start_beat": 887.0,
            "duration_beat": 0.9479166666666288,
            "velocity": 101,
            "track": 1
        },
        {
            "pitch": 69,
            "start_beat": 887.5,
            "duration_beat": 0.497916666666697,
            "velocity": 101,
            "track": 0
        },
        {
            "pitch": 64,
            "start_beat": 888.0,
            "duration_beat": 1.997916666666697,
            "velocity": 102,
            "track": 0
        },
        {
            "pitch": 46,
            "start_beat": 888.0,
            "duration_beat": 0.9479166666666288,
            "velocity": 102,
            "track": 1
        },
        {
            "pitch": 58,
            "start_beat": 888.0,
            "duration_beat": 0.9479166666666288,
            "velocity": 102,
            "track": 1
        },
        {
            "pitch": 73,
            "start_beat": 888.5,
            "duration_beat": 0.497916666666697,
            "velocity": 102,
            "track": 0
        },
        {
            "pitch": 60,
            "start_beat": 889.0,
            "duration_beat": 0.497916666666697,
            "velocity": 102,
            "track": 0
        },
        {
            "pitch": 45,
            "start_beat": 889.0,
            "duration_beat": 0.9479166666666288,
            "velocity": 102,
            "track": 1
        },
        {
            "pitch": 57,
            "start_beat": 889.0,
            "duration_beat": 0.9479166666666288,
            "velocity": 102,
            "track": 1
        },
        {
            "pitch": 72,
            "start_beat": 889.5,
            "duration_beat": 0.497916666666697,
            "velocity": 102,
            "track": 0
        },
        {
            "pitch": 65,
            "start_beat": 890.0,
            "duration_beat": 0.997916666666697,
            "velocity": 103,
            "track": 0
        },
        {
            "pitch": 41,
            "start_beat": 890.0,
            "duration_beat": 0.9479166666666288,
            "velocity": 103,
            "track": 1
        },
        {
            "pitch": 53,
            "start_beat": 890.0,
            "duration_beat": 0.9479166666666288,
            "velocity": 103,
            "track": 1
        },
        {
            "pitch": 69,
            "start_beat": 890.5,
            "duration_beat": 0.497916666666697,
            "velocity": 103,
            "track": 0
        },
        {
            "pitch": 66,
            "start_beat": 891.0,
            "duration_beat": 1.997916666666697,
            "velocity": 103,
            "track": 0
        },
        {
            "pitch": 48,
            "start_beat": 891.0,
            "duration_beat": 0.9479166666666288,
            "velocity": 103,
            "track": 1
        },
        {
            "pitch": 60,
            "start_beat": 891.0,
            "duration_beat": 0.9479166666666288,
            "velocity": 103,
            "track": 1
        },
        {
            "pitch": 75,
            "start_beat": 891.5,
            "duration_beat": 0.497916666666697,
            "velocity": 104,
            "track": 0
        },
        {
            "pitch": 62,
            "start_beat": 892.0,
            "duration_beat": 0.497916666666697,
            "velocity": 104,
            "track": 0
        },
        {
            "pitch": 47,
            "start_beat": 892.0,
            "duration_beat": 0.9479166666666288,
            "velocity": 104,
            "track": 1
        },
        {
            "pitch": 59,
            "start_beat": 892.0,
            "duration_beat": 0.9479166666666288,
            "velocity": 104,
            "track": 1
        },
        {
            "pitch": 74,
            "start_beat": 892.5,
            "duration_beat": 0.497916666666697,
            "velocity": 104,
            "track": 0
        },
        {
            "pitch": 67,
            "start_beat": 893.0,
            "duration_beat": 0.997916666666697,
            "velocity": 105,
            "track": 0
        },
        {
            "pitch": 43,
            "start_beat": 893.0,
            "duration_beat": 0.9479166666666288,
            "velocity": 105,
            "track": 1
        },
        {
            "pitch": 55,
            "start_beat": 893.0,
            "duration_beat": 0.9479166666666288,
            "velocity": 105,
            "track": 1
        },
        {
            "pitch": 71,
            "start_beat": 893.5,
            "duration_beat": 0.497916666666697,
            "velocity": 105,
            "track": 0
        },
        {
            "pitch": 66,
            "start_beat": 894.0,
            "duration_beat": 1.997916666666697,
            "velocity": 105,
            "track": 0
        },
        {
            "pitch": 48,
            "start_beat": 894.0,
            "duration_beat": 0.9479166666666288,
            "velocity": 105,
            "track": 1
        },
        {
            "pitch": 60,
            "start_beat": 894.0,
            "duration_beat": 0.9479166666666288,
            "velocity": 105,
            "track": 1
        },
        {
            "pitch": 75,
            "start_beat": 894.5,
            "duration_beat": 0.497916666666697,
            "velocity": 106,
            "track": 0
        },
        {
            "pitch": 62,
            "start_beat": 895.0,
            "duration_beat": 0.497916666666697,
            "velocity": 106,
            "track": 0
        },
        {
            "pitch": 47,
            "start_beat": 895.0,
            "duration_beat": 0.9479166666666288,
            "velocity": 106,
            "track": 1
        },
        {
            "pitch": 59,
            "start_beat": 895.0,
            "duration_beat": 0.9479166666666288,
            "velocity": 106,
            "track": 1
        },
        {
            "pitch": 74,
            "start_beat": 895.5,
            "duration_beat": 0.497916666666697,
            "velocity": 106,
            "track": 0
        },
        {
            "pitch": 67,
            "start_beat": 896.0,
            "duration_beat": 0.997916666666697,
            "velocity": 107,
            "track": 0
        },
        {
            "pitch": 43,
            "start_beat": 896.0,
            "duration_beat": 0.9479166666666288,
            "velocity": 107,
            "track": 1
        },
        {
            "pitch": 55,
            "start_beat": 896.0,
            "duration_beat": 0.9479166666666288,
            "velocity": 107,
            "track": 1
        },
        {
            "pitch": 71,
            "start_beat": 896.5,
            "duration_beat": 0.497916666666697,
            "velocity": 107,
            "track": 0
        },
        {
            "pitch": 68,
            "start_beat": 897.0,
            "duration_beat": 1.997916666666697,
            "velocity": 107,
            "track": 0
        },
        {
            "pitch": 50,
            "start_beat": 897.0,
            "duration_beat": 0.9479166666666288,
            "velocity": 107,
            "track": 1
        },
        {
            "pitch": 62,
            "start_beat": 897.0,
            "duration_beat": 0.9479166666666288,
            "velocity": 107,
            "track": 1
        },
        {
            "pitch": 77,
            "start_beat": 897.5,
            "duration_beat": 0.497916666666697,
            "velocity": 107,
            "track": 0
        },
        {
            "pitch": 64,
            "start_beat": 898.0,
            "duration_beat": 0.497916666666697,
            "velocity": 108,
            "track": 0
        },
        {
            "pitch": 49,
            "start_beat": 898.0,
            "duration_beat": 0.9479166666666288,
            "velocity": 108,
            "track": 1
        },
        {
            "pitch": 61,
            "start_beat": 898.0,
            "duration_beat": 0.9479166666666288,
            "velocity": 108,
            "track": 1
        },
        {
            "pitch": 76,
            "start_beat": 898.5,
            "duration_beat": 0.497916666666697,
            "velocity": 108,
            "track": 0
        },
        {
            "pitch": 69,
            "start_beat": 899.0,
            "duration_beat": 0.997916666666697,
            "velocity": 108,
            "track": 0
        },
        {
            "pitch": 45,
            "start_beat": 899.0,
            "duration_beat": 0.9479166666666288,
            "velocity": 108,
            "track": 1
        },
        {
            "pitch": 57,
            "start_beat": 899.0,
            "duration_beat": 0.9479166666666288,
            "velocity": 108,
            "track": 1
        },
        {
            "pitch": 73,
            "start_beat": 899.5,
            "duration_beat": 0.497916666666697,
            "velocity": 109,
            "track": 0
        },
        {
            "pitch": 70,
            "start_beat": 900.0,
            "duration_beat": 1.997916666666697,
            "velocity": 109,
            "track": 0
        },
        {
            "pitch": 52,
            "start_beat": 900.0,
            "duration_beat": 0.9479166666666288,
            "velocity": 109,
            "track": 1
        },
        {
            "pitch": 64,
            "start_beat": 900.0,
            "duration_beat": 0.9479166666666288,
            "velocity": 109,
            "track": 1
        },
        {
            "pitch": 79,
            "start_beat": 900.5,
            "duration_beat": 0.497916666666697,
            "velocity": 109,
            "track": 0
        },
        {
            "pitch": 66,
            "start_beat": 901.0,
            "duration_beat": 0.497916666666697,
            "velocity": 110,
            "track": 0
        },
        {
            "pitch": 51,
            "start_beat": 901.0,
            "duration_beat": 0.9479166666666288,
            "velocity": 110,
            "track": 1
        },
        {
            "pitch": 63,
            "start_beat": 901.0,
            "duration_beat": 0.9479166666666288,
            "velocity": 110,
            "track": 1
        },
        {
            "pitch": 78,
            "start_beat": 901.5,
            "duration_beat": 0.497916666666697,
            "velocity": 110,
            "track": 0
        },
        {
            "pitch": 71,
            "start_beat": 902.0,
            "duration_beat": 0.997916666666697,
            "velocity": 110,
            "track": 0
        },
        {
            "pitch": 47,
            "start_beat": 902.0,
            "duration_beat": 0.9479166666666288,
            "velocity": 110,
            "track": 1
        },
        {
            "pitch": 59,
            "start_beat": 902.0,
            "duration_beat": 0.9479166666666288,
            "velocity": 110,
            "track": 1
        },
        {
            "pitch": 75,
            "start_beat": 902.5,
            "duration_beat": 0.497916666666697,
            "velocity": 111,
            "track": 0
        },
        {
            "pitch": 72,
            "start_beat": 903.0,
            "duration_beat": 0.997916666666697,
            "velocity": 111,
            "track": 0
        },
        {
            "pitch": 50,
            "start_beat": 903.0,
            "duration_beat": 0.9479166666666288,
            "velocity": 111,
            "track": 1
        },
        {
            "pitch": 62,
            "start_beat": 903.0,
            "duration_beat": 0.9479166666666288,
            "velocity": 111,
            "track": 1
        },
        {
            "pitch": 81,
            "start_beat": 903.5,
            "duration_beat": 0.497916666666697,
            "velocity": 111,
            "track": 0
        },
        {
            "pitch": 73,
            "start_beat": 904.0,
            "duration_beat": 0.497916666666697,
            "velocity": 112,
            "track": 0
        },
        {
            "pitch": 78,
            "start_beat": 904.0,
            "duration_beat": 0.497916666666697,
            "velocity": 112,
            "track": 0
        },
        {
            "pitch": 81,
            "start_beat": 904.0,
            "duration_beat": 0.497916666666697,
            "velocity": 112,
            "track": 0
        },
        {
            "pitch": 85,
            "start_beat": 904.0,
            "duration_beat": 0.497916666666697,
            "velocity": 112,
            "track": 0
        },
        {
            "pitch": 37,
            "start_beat": 904.0,
            "duration_beat": 0.497916666666697,
            "velocity": 112,
            "track": 1
        },
        {
            "pitch": 49,
            "start_beat": 904.0,
            "duration_beat": 0.497916666666697,
            "velocity": 112,
            "track": 1
        },
        {
            "pitch": 72,
            "start_beat": 905.0,
            "duration_beat": 0.497916666666697,
            "velocity": 112,
            "track": 0
        },
        {
            "pitch": 73,
            "start_beat": 905.5,
            "duration_beat": 0.497916666666697,
            "velocity": 112,
            "track": 0
        },
        {
            "pitch": 57,
            "start_beat": 905.5,
            "duration_beat": 0.4729166666667197,
            "velocity": 112,
            "track": 1
        },
        {
            "pitch": 61,
            "start_beat": 905.5,
            "duration_beat": 0.4729166666667197,
            "velocity": 112,
            "track": 1
        },
        {
            "pitch": 66,
            "start_beat": 905.5,
            "duration_beat": 0.4729166666667197,
            "velocity": 112,
            "track": 1
        },
        {
            "pitch": 69,
            "start_beat": 905.5,
            "duration_beat": 0.4729166666667197,
            "velocity": 112,
            "track": 1
        },
        {
            "pitch": 75,
            "start_beat": 906.0,
            "duration_beat": 0.497916666666697,
            "velocity": 112,
            "track": 0
        },
        {
            "pitch": 57,
            "start_beat": 906.0,
            "duration_beat": 0.497916666666697,
            "velocity": 112,
            "track": 1
        },
        {
            "pitch": 61,
            "start_beat": 906.0,
            "duration_beat": 0.497916666666697,
            "velocity": 112,
            "track": 1
        },
        {
            "pitch": 66,
            "start_beat": 906.0,
            "duration_beat": 0.497916666666697,
            "velocity": 112,
            "track": 1
        },
        {
            "pitch": 69,
            "start_beat": 906.0,
            "duration_beat": 0.497916666666697,
            "velocity": 112,
            "track": 1
        },
        {
            "pitch": 77,
            "start_beat": 906.5,
            "duration_beat": 0.497916666666697,
            "velocity": 112,
            "track": 0
        },
        {
            "pitch": 78,
            "start_beat": 907.0,
            "duration_beat": 0.497916666666697,
            "velocity": 112,
            "track": 0
        },
        {
            "pitch": 57,
            "start_beat": 907.0,
            "duration_beat": 0.497916666666697,
            "velocity": 112,
            "track": 1
        },
        {
            "pitch": 61,
            "start_beat": 907.0,
            "duration_beat": 0.497916666666697,
            "velocity": 112,
            "track": 1
        },
        {
            "pitch": 66,
            "start_beat": 907.0,
            "duration_beat": 0.497916666666697,
            "velocity": 112,
            "track": 1
        },
        {
            "pitch": 69,
            "start_beat": 907.0,
            "duration_beat": 0.497916666666697,
            "velocity": 112,
            "track": 1
        },
        {
            "pitch": 80,
            "start_beat": 907.5,
            "duration_beat": 0.497916666666697,
            "velocity": 112,
            "track": 0
        },
        {
            "pitch": 81,
            "start_beat": 908.0,
            "duration_beat": 0.497916666666697,
            "velocity": 112,
            "track": 0
        },
        {
            "pitch": 57,
            "start_beat": 908.0,
            "duration_beat": 0.497916666666697,
            "velocity": 112,
            "track": 1
        },
        {
            "pitch": 61,
            "start_beat": 908.0,
            "duration_beat": 0.497916666666697,
            "velocity": 112,
            "track": 1
        },
        {
            "pitch": 66,
            "start_beat": 908.0,
            "duration_beat": 0.497916666666697,
            "velocity": 112,
            "track": 1
        },
        {
            "pitch": 69,
            "start_beat": 908.0,
            "duration_beat": 0.497916666666697,
            "velocity": 112,
            "track": 1
        },
        {
            "pitch": 83,
            "start_beat": 908.5,
            "duration_beat": 0.497916666666697,
            "velocity": 112,
            "track": 0
        },
        {
            "pitch": 85,
            "start_beat": 909.0,
            "duration_beat": 0.497916666666697,
            "velocity": 112,
            "track": 0
        },
        {
            "pitch": 57,
            "start_beat": 909.0,
            "duration_beat": 0.497916666666697,
            "velocity": 112,
            "track": 1
        },
        {
            "pitch": 61,
            "start_beat": 909.0,
            "duration_beat": 0.497916666666697,
            "velocity": 112,
            "track": 1
        },
        {
            "pitch": 66,
            "start_beat": 909.0,
            "duration_beat": 0.497916666666697,
            "velocity": 112,
            "track": 1
        },
        {
            "pitch": 69,
            "start_beat": 909.0,
            "duration_beat": 0.497916666666697,
            "velocity": 112,
            "track": 1
        },
        {
            "pitch": 87,
            "start_beat": 909.5,
            "duration_beat": 0.497916666666697,
            "velocity": 112,
            "track": 0
        },
        {
            "pitch": 89,
            "start_beat": 910.0,
            "duration_beat": 0.497916666666697,
            "velocity": 112,
            "track": 0
        },
        {
            "pitch": 57,
            "start_beat": 910.0,
            "duration_beat": 2.8479166666667197,
            "velocity": 112,
            "track": 1
        },
        {
            "pitch": 61,
            "start_beat": 910.0,
            "duration_beat": 2.8479166666667197,
            "velocity": 112,
            "track": 1
        },
        {
            "pitch": 66,
            "start_beat": 910.0,
            "duration_beat": 2.8479166666667197,
            "velocity": 112,
            "track": 1
        },
        {
            "pitch": 69,
            "start_beat": 910.0,
            "duration_beat": 2.8479166666667197,
            "velocity": 112,
            "track": 1
        },
        {
            "pitch": 90,
            "start_beat": 910.5,
            "duration_beat": 0.497916666666697,
            "velocity": 112,
            "track": 0
        },
        {
            "pitch": 92,
            "start_beat": 911.0,
            "duration_beat": 0.497916666666697,
            "velocity": 112,
            "track": 0
        },
        {
            "pitch": 93,
            "start_beat": 911.5,
            "duration_beat": 0.497916666666697,
            "velocity": 112,
            "track": 0
        },
        {
            "pitch": 90,
            "start_beat": 912.0,
            "duration_beat": 0.497916666666697,
            "velocity": 112,
            "track": 0
        },
        {
            "pitch": 85,
            "start_beat": 912.5,
            "duration_beat": 0.497916666666697,
            "velocity": 112,
            "track": 0
        },
        {
            "pitch": 81,
            "start_beat": 913.0,
            "duration_beat": 0.497916666666697,
            "velocity": 112,
            "track": 0
        },
        {
            "pitch": 78,
            "start_beat": 913.5,
            "duration_beat": 0.497916666666697,
            "velocity": 112,
            "track": 0
        },
        {
            "pitch": 73,
            "start_beat": 914.0,
            "duration_beat": 0.497916666666697,
            "velocity": 112,
            "track": 0
        },
        {
            "pitch": 69,
            "start_beat": 914.5,
            "duration_beat": 0.497916666666697,
            "velocity": 112,
            "track": 0
        },
        {
            "pitch": 66,
            "start_beat": 915.0,
            "duration_beat": 0.497916666666697,
            "velocity": 112,
            "track": 0
        },
        {
            "pitch": 37,
            "start_beat": 915.0,
            "duration_beat": 0.497916666666697,
            "velocity": 112,
            "track": 1
        },
        {
            "pitch": 49,
            "start_beat": 915.0,
            "duration_beat": 0.497916666666697,
            "velocity": 112,
            "track": 1
        },
        {
            "pitch": 61,
            "start_beat": 915.5,
            "duration_beat": 0.4729166666667197,
            "velocity": 112,
            "track": 0
        },
        {
            "pitch": 57,
            "start_beat": 916.0,
            "duration_beat": 0.497916666666697,
            "velocity": 112,
            "track": 0
        },
        {
            "pitch": 36,
            "start_beat": 916.0,
            "duration_beat": 0.9479166666666288,
            "velocity": 112,
            "track": 1
        },
        {
            "pitch": 48,
            "start_beat": 916.0,
            "duration_beat": 0.9479166666666288,
            "velocity": 112,
            "track": 1
        },
        {
            "pitch": 66,
            "start_beat": 916.5,
            "duration_beat": 0.497916666666697,
            "velocity": 112,
            "track": 0
        },
        {
            "pitch": 63,
            "start_beat": 917.0,
            "duration_beat": 0.497916666666697,
            "velocity": 113,
            "track": 0
        },
        {
            "pitch": 69,
            "start_beat": 917.5,
            "duration_beat": 0.497916666666697,
            "velocity": 114,
            "track": 0
        },
        {
            "pitch": 54,
            "start_beat": 917.5,
            "duration_beat": 0.4729166666667197,
            "velocity": 114,
            "track": 1
        },
        {
            "pitch": 57,
            "start_beat": 917.5,
            "duration_beat": 0.4729166666667197,
            "velocity": 114,
            "track": 1
        },
        {
            "pitch": 63,
            "start_beat": 917.5,
            "duration_beat": 0.4729166666667197,
            "velocity": 114,
            "track": 1
        },
        {
            "pitch": 69,
            "start_beat": 918.0,
            "duration_beat": 0.497916666666697,
            "velocity": 116,
            "track": 0
        },
        {
            "pitch": 54,
            "start_beat": 918.0,
            "duration_beat": 0.997916666666697,
            "velocity": 116,
            "track": 1
        },
        {
            "pitch": 57,
            "start_beat": 918.0,
            "duration_beat": 0.997916666666697,
            "velocity": 116,
            "track": 1
        },
        {
            "pitch": 63,
            "start_beat": 918.0,
            "duration_beat": 0.997916666666697,
            "velocity": 116,
            "track": 1
        },
        {
            "pitch": 78,
            "start_beat": 918.5,
            "duration_beat": 0.497916666666697,
            "velocity": 117,
            "track": 0
        },
        {
            "pitch": 75,
            "start_beat": 919.0,
            "duration_beat": 0.497916666666697,
            "velocity": 118,
            "track": 0
        },
        {
            "pitch": 54,
            "start_beat": 919.0,
            "duration_beat": 0.497916666666697,
            "velocity": 118,
            "track": 1
        },
        {
            "pitch": 57,
            "start_beat": 919.0,
            "duration_beat": 0.497916666666697,
            "velocity": 118,
            "track": 1
        },
        {
            "pitch": 63,
            "start_beat": 919.0,
            "duration_beat": 0.497916666666697,
            "velocity": 118,
            "track": 1
        },
        {
            "pitch": 81,
            "start_beat": 919.5,
            "duration_beat": 0.497916666666697,
            "velocity": 120,
            "track": 0
        },
        {
            "pitch": 81,
            "start_beat": 920.0,
            "duration_beat": 0.497916666666697,
            "velocity": 121,
            "track": 0
        },
        {
            "pitch": 90,
            "start_beat": 920.5,
            "duration_beat": 0.497916666666697,
            "velocity": 122,
            "track": 0
        },
        {
            "pitch": 87,
            "start_beat": 921.0,
            "duration_beat": 0.497916666666697,
            "velocity": 124,
            "track": 0
        },
        {
            "pitch": 36,
            "start_beat": 921.0,
            "duration_beat": 0.997916666666697,
            "velocity": 124,
            "track": 1
        },
        {
            "pitch": 48,
            "start_beat": 921.0,
            "duration_beat": 0.997916666666697,
            "velocity": 124,
            "track": 1
        },
        {
            "pitch": 93,
            "start_beat": 921.5,
            "duration_beat": 0.497916666666697,
            "velocity": 125,
            "track": 0
        },
        {
            "pitch": 90,
            "start_beat": 922.0,
            "duration_beat": 0.497916666666697,
            "velocity": 127,
            "track": 0
        },
        {
            "pitch": 35,
            "start_beat": 922.0,
            "duration_beat": 0.9479166666666288,
            "velocity": 127,
            "track": 1
        },
        {
            "pitch": 47,
            "start_beat": 922.0,
            "duration_beat": 0.9479166666666288,
            "velocity": 127,
            "track": 1
        },
        {
            "pitch": 93,
            "start_beat": 922.5,
            "duration_beat": 0.497916666666697,
            "velocity": 125,
            "track": 0
        },
        {
            "pitch": 87,
            "start_beat": 923.0,
            "duration_beat": 0.497916666666697,
            "velocity": 122,
            "track": 0
        },
        {
            "pitch": 81,
            "start_beat": 923.5,
            "duration_beat": 0.497916666666697,
            "velocity": 119,
            "track": 0
        },
        {
            "pitch": 54,
            "start_beat": 923.5,
            "duration_beat": 0.4729166666667197,
            "velocity": 119,
            "track": 1
        },
        {
            "pitch": 57,
            "start_beat": 923.5,
            "duration_beat": 0.4729166666667197,
            "velocity": 119,
            "track": 1
        },
        {
            "pitch": 63,
            "start_beat": 923.5,
            "duration_beat": 0.4729166666667197,
            "velocity": 119,
            "track": 1
        },
        {
            "pitch": 78,
            "start_beat": 924.0,
            "duration_beat": 0.497916666666697,
            "velocity": 117,
            "track": 0
        },
        {
            "pitch": 54,
            "start_beat": 924.0,
            "duration_beat": 0.997916666666697,
            "velocity": 117,
            "track": 1
        },
        {
            "pitch": 57,
            "start_beat": 924.0,
            "duration_beat": 0.997916666666697,
            "velocity": 117,
            "track": 1
        },
        {
            "pitch": 63,
            "start_beat": 924.0,
            "duration_beat": 0.997916666666697,
            "velocity": 117,
            "track": 1
        },
        {
            "pitch": 81,
            "start_beat": 924.5,
            "duration_beat": 0.497916666666697,
            "velocity": 114,
            "track": 0
        },
        {
            "pitch": 75,
            "start_beat": 925.0,
            "duration_beat": 0.497916666666697,
            "velocity": 111,
            "track": 0
        },
        {
            "pitch": 54,
            "start_beat": 925.0,
            "duration_beat": 0.497916666666697,
            "velocity": 111,
            "track": 1
        },
        {
            "pitch": 57,
            "start_beat": 925.0,
            "duration_beat": 0.497916666666697,
            "velocity": 111,
            "track": 1
        },
        {
            "pitch": 63,
            "start_beat": 925.0,
            "duration_beat": 0.497916666666697,
            "velocity": 111,
            "track": 1
        },
        {
            "pitch": 69,
            "start_beat": 925.5,
            "duration_beat": 0.497916666666697,
            "velocity": 111,
            "track": 0
        },
        {
            "pitch": 66,
            "start_beat": 926.0,
            "duration_beat": 0.497916666666697,
            "velocity": 111,
            "track": 0
        },
        {
            "pitch": 69,
            "start_beat": 926.5,
            "duration_beat": 0.497916666666697,
            "velocity": 111,
            "track": 0
        },
        {
            "pitch": 63,
            "start_beat": 927.0,
            "duration_beat": 0.497916666666697,
            "velocity": 111,
            "track": 0
        },
        {
            "pitch": 35,
            "start_beat": 927.0,
            "duration_beat": 0.997916666666697,
            "velocity": 111,
            "track": 1
        },
        {
            "pitch": 47,
            "start_beat": 927.0,
            "duration_beat": 0.997916666666697,
            "velocity": 111,
            "track": 1
        },
        {
            "pitch": 57,
            "start_beat": 927.5,
            "duration_beat": 0.497916666666697,
            "velocity": 111,
            "track": 0
        },
        {
            "pitch": 58,
            "start_beat": 928.0,
            "duration_beat": 0.9479166666666288,
            "velocity": 112,
            "track": 0
        },
        {
            "pitch": 63,
            "start_beat": 928.0,
            "duration_beat": 0.9479166666666288,
            "velocity": 112,
            "track": 0
        },
        {
            "pitch": 67,
            "start_beat": 928.0,
            "duration_beat": 0.9479166666666288,
            "velocity": 112,
            "track": 0
        },
        {
            "pitch": 70,
            "start_beat": 928.0,
            "duration_beat": 0.9479166666666288,
            "velocity": 112,
            "track": 0
        },
        {
            "pitch": 34,
            "start_beat": 928.0,
            "duration_beat": 0.497916666666697,
            "velocity": 112,
            "track": 1
        },
        {
            "pitch": 46,
            "start_beat": 928.0,
            "duration_beat": 0.497916666666697,
            "velocity": 112,
            "track": 1
        },
        {
            "pitch": 57,
            "start_beat": 929.0,
            "duration_beat": 0.497916666666697,
            "velocity": 49,
            "track": 0
        },
        {
            "pitch": 58,
            "start_beat": 929.5,
            "duration_beat": 0.497916666666697,
            "velocity": 49,
            "track": 0
        },
        {
            "pitch": 60,
            "start_beat": 930.0,
            "duration_beat": 0.497916666666697,
            "velocity": 49,
            "track": 0
        },
        {
            "pitch": 62,
            "start_beat": 930.5,
            "duration_beat": 0.497916666666697,
            "velocity": 49,
            "track": 0
        },
        {
            "pitch": 63,
            "start_beat": 931.0,
            "duration_beat": 0.497916666666697,
            "velocity": 50,
            "track": 0
        },
        {
            "pitch": 64,
            "start_beat": 931.5,
            "duration_beat": 0.497916666666697,
            "velocity": 50,
            "track": 0
        },
        {
            "pitch": 67,
            "start_beat": 932.0,
            "duration_beat": 0.497916666666697,
            "velocity": 51,
            "track": 0
        },
        {
            "pitch": 57,
            "start_beat": 932.0,
            "duration_beat": 0.9479166666666288,
            "velocity": 51,
            "track": 1
        },
        {
            "pitch": 60,
            "start_beat": 932.0,
            "duration_beat": 0.9479166666666288,
            "velocity": 51,
            "track": 1
        },
        {
            "pitch": 63,
            "start_beat": 932.0,
            "duration_beat": 0.9479166666666288,
            "velocity": 51,
            "track": 1
        },
        {
            "pitch": 65,
            "start_beat": 932.5,
            "duration_beat": 0.497916666666697,
            "velocity": 51,
            "track": 0
        },
        {
            "pitch": 67,
            "start_beat": 933.0,
            "duration_beat": 0.497916666666697,
            "velocity": 52,
            "track": 0
        },
        {
            "pitch": 56,
            "start_beat": 933.0,
            "duration_beat": 0.9479166666666288,
            "velocity": 52,
            "track": 1
        },
        {
            "pitch": 58,
            "start_beat": 933.0,
            "duration_beat": 0.9479166666666288,
            "velocity": 52,
            "track": 1
        },
        {
            "pitch": 62,
            "start_beat": 933.0,
            "duration_beat": 0.9479166666666288,
            "velocity": 52,
            "track": 1
        },
        {
            "pitch": 65,
            "start_beat": 933.5,
            "duration_beat": 0.497916666666697,
            "velocity": 52,
            "track": 0
        },
        {
            "pitch": 72,
            "start_beat": 934.0,
            "duration_beat": 0.497916666666697,
            "velocity": 53,
            "track": 0
        },
        {
            "pitch": 55,
            "start_beat": 934.0,
            "duration_beat": 0.9479166666666288,
            "velocity": 53,
            "track": 1
        },
        {
            "pitch": 58,
            "start_beat": 934.0,
            "duration_beat": 0.9479166666666288,
            "velocity": 53,
            "track": 1
        },
        {
            "pitch": 63,
            "start_beat": 934.0,
            "duration_beat": 0.9479166666666288,
            "velocity": 53,
            "track": 1
        },
        {
            "pitch": 70,
            "start_beat": 934.5,
            "duration_beat": 0.4729166666667197,
            "velocity": 53,
            "track": 0
        },
        {
            "pitch": 69,
            "start_beat": 935.0,
            "duration_beat": 0.497916666666697,
            "velocity": 54,
            "track": 0
        },
        {
            "pitch": 70,
            "start_beat": 935.5,
            "duration_beat": 0.497916666666697,
            "velocity": 54,
            "track": 0
        },
        {
            "pitch": 72,
            "start_beat": 936.0,
            "duration_beat": 0.497916666666697,
            "velocity": 55,
            "track": 0
        },
        {
            "pitch": 74,
            "start_beat": 936.5,
            "duration_beat": 0.497916666666697,
            "velocity": 55,
            "track": 0
        },
        {
            "pitch": 75,
            "start_beat": 937.0,
            "duration_beat": 0.497916666666697,
            "velocity": 56,
            "track": 0
        },
        {
            "pitch": 76,
            "start_beat": 937.5,
            "duration_beat": 0.497916666666697,
            "velocity": 56,
            "track": 0
        },
        {
            "pitch": 79,
            "start_beat": 938.0,
            "duration_beat": 0.497916666666697,
            "velocity": 57,
            "track": 0
        },
        {
            "pitch": 69,
            "start_beat": 938.0,
            "duration_beat": 0.997916666666697,
            "velocity": 57,
            "track": 1
        },
        {
            "pitch": 72,
            "start_beat": 938.0,
            "duration_beat": 0.997916666666697,
            "velocity": 57,
            "track": 1
        },
        {
            "pitch": 75,
            "start_beat": 938.0,
            "duration_beat": 0.997916666666697,
            "velocity": 57,
            "track": 1
        },
        {
            "pitch": 77,
            "start_beat": 938.5,
            "duration_beat": 0.497916666666697,
            "velocity": 57,
            "track": 0
        },
        {
            "pitch": 79,
            "start_beat": 939.0,
            "duration_beat": 0.497916666666697,
            "velocity": 58,
            "track": 0
        },
        {
            "pitch": 68,
            "start_beat": 939.0,
            "duration_beat": 0.997916666666697,
            "velocity": 58,
            "track": 1
        },
        {
            "pitch": 70,
            "start_beat": 939.0,
            "duration_beat": 0.997916666666697,
            "velocity": 58,
            "track": 1
        },
        {
            "pitch": 74,
            "start_beat": 939.0,
            "duration_beat": 0.997916666666697,
            "velocity": 58,
            "track": 1
        },
        {
            "pitch": 77,
            "start_beat": 939.5,
            "duration_beat": 0.497916666666697,
            "velocity": 58,
            "track": 0
        },
        {
            "pitch": 84,
            "start_beat": 940.0,
            "duration_beat": 0.497916666666697,
            "velocity": 59,
            "track": 0
        },
        {
            "pitch": 67,
            "start_beat": 940.0,
            "duration_beat": 0.9479166666666288,
            "velocity": 59,
            "track": 1
        },
        {
            "pitch": 70,
            "start_beat": 940.0,
            "duration_beat": 0.9479166666666288,
            "velocity": 59,
            "track": 1
        },
        {
            "pitch": 75,
            "start_beat": 940.0,
            "duration_beat": 0.9479166666666288,
            "velocity": 59,
            "track": 1
        },
        {
            "pitch": 82,
            "start_beat": 940.5,
            "duration_beat": 0.4729166666667197,
            "velocity": 59,
            "track": 0
        },
        {
            "pitch": 81,
            "start_beat": 941.0,
            "duration_beat": 0.497916666666697,
            "velocity": 60,
            "track": 0
        },
        {
            "pitch": 82,
            "start_beat": 941.5,
            "duration_beat": 0.497916666666697,
            "velocity": 60,
            "track": 0
        },
        {
            "pitch": 84,
            "start_beat": 942.0,
            "duration_beat": 0.497916666666697,
            "velocity": 61,
            "track": 0
        },
        {
            "pitch": 86,
            "start_beat": 942.5,
            "duration_beat": 0.497916666666697,
            "velocity": 61,
            "track": 0
        },
        {
            "pitch": 87,
            "start_beat": 943.0,
            "duration_beat": 0.497916666666697,
            "velocity": 62,
            "track": 0
        },
        {
            "pitch": 88,
            "start_beat": 943.5,
            "duration_beat": 0.497916666666697,
            "velocity": 62,
            "track": 0
        },
        {
            "pitch": 91,
            "start_beat": 944.0,
            "duration_beat": 0.497916666666697,
            "velocity": 63,
            "track": 0
        },
        {
            "pitch": 81,
            "start_beat": 944.0,
            "duration_beat": 0.997916666666697,
            "velocity": 63,
            "track": 1
        },
        {
            "pitch": 84,
            "start_beat": 944.0,
            "duration_beat": 0.997916666666697,
            "velocity": 63,
            "track": 1
        },
        {
            "pitch": 87,
            "start_beat": 944.0,
            "duration_beat": 0.997916666666697,
            "velocity": 63,
            "track": 1
        },
        {
            "pitch": 89,
            "start_beat": 944.5,
            "duration_beat": 0.497916666666697,
            "velocity": 63,
            "track": 0
        },
        {
            "pitch": 91,
            "start_beat": 945.0,
            "duration_beat": 0.497916666666697,
            "velocity": 64,
            "track": 0
        },
        {
            "pitch": 80,
            "start_beat": 945.0,
            "duration_beat": 0.997916666666697,
            "velocity": 64,
            "track": 1
        },
        {
            "pitch": 82,
            "start_beat": 945.0,
            "duration_beat": 0.997916666666697,
            "velocity": 64,
            "track": 1
        },
        {
            "pitch": 86,
            "start_beat": 945.0,
            "duration_beat": 0.997916666666697,
            "velocity": 64,
            "track": 1
        },
        {
            "pitch": 89,
            "start_beat": 945.5,
            "duration_beat": 0.497916666666697,
            "velocity": 64,
            "track": 0
        },
        {
            "pitch": 94,
            "start_beat": 946.0,
            "duration_beat": 0.497916666666697,
            "velocity": 65,
            "track": 0
        },
        {
            "pitch": 79,
            "start_beat": 946.0,
            "duration_beat": 0.9479166666666288,
            "velocity": 65,
            "track": 1
        },
        {
            "pitch": 82,
            "start_beat": 946.0,
            "duration_beat": 0.9479166666666288,
            "velocity": 65,
            "track": 1
        },
        {
            "pitch": 87,
            "start_beat": 946.0,
            "duration_beat": 0.9479166666666288,
            "velocity": 65,
            "track": 1
        },
        {
            "pitch": 81,
            "start_beat": 947.0,
            "duration_beat": 0.497916666666697,
            "velocity": 65,
            "track": 0
        },
        {
            "pitch": 82,
            "start_beat": 947.5,
            "duration_beat": 0.497916666666697,
            "velocity": 65,
            "track": 0
        },
        {
            "pitch": 84,
            "start_beat": 948.0,
            "duration_beat": 0.497916666666697,
            "velocity": 96,
            "track": 0
        },
        {
            "pitch": 86,
            "start_beat": 948.5,
            "duration_beat": 0.497916666666697,
            "velocity": 96,
            "track": 0
        },
        {
            "pitch": 87,
            "start_beat": 949.0,
            "duration_beat": 0.497916666666697,
            "velocity": 96,
            "track": 0
        },
        {
            "pitch": 88,
            "start_beat": 949.5,
            "duration_beat": 0.497916666666697,
            "velocity": 96,
            "track": 0
        },
        {
            "pitch": 91,
            "start_beat": 950.0,
            "duration_beat": 0.497916666666697,
            "velocity": 96,
            "track": 0
        },
        {
            "pitch": 81,
            "start_beat": 950.0,
            "duration_beat": 0.997916666666697,
            "velocity": 96,
            "track": 1
        },
        {
            "pitch": 84,
            "start_beat": 950.0,
            "duration_beat": 0.997916666666697,
            "velocity": 96,
            "track": 1
        },
        {
            "pitch": 87,
            "start_beat": 950.0,
            "duration_beat": 0.997916666666697,
            "velocity": 96,
            "track": 1
        },
        {
            "pitch": 89,
            "start_beat": 950.5,
            "duration_beat": 0.497916666666697,
            "velocity": 96,
            "track": 0
        },
        {
            "pitch": 91,
            "start_beat": 951.0,
            "duration_beat": 0.497916666666697,
            "velocity": 96,
            "track": 0
        },
        {
            "pitch": 80,
            "start_beat": 951.0,
            "duration_beat": 0.997916666666697,
            "velocity": 96,
            "track": 1
        },
        {
            "pitch": 82,
            "start_beat": 951.0,
            "duration_beat": 0.997916666666697,
            "velocity": 96,
            "track": 1
        },
        {
            "pitch": 86,
            "start_beat": 951.0,
            "duration_beat": 0.997916666666697,
            "velocity": 96,
            "track": 1
        },
        {
            "pitch": 89,
            "start_beat": 951.5,
            "duration_beat": 0.497916666666697,
            "velocity": 96,
            "track": 0
        },
        {
            "pitch": 94,
            "start_beat": 952.0,
            "duration_beat": 0.497916666666697,
            "velocity": 96,
            "track": 0
        },
        {
            "pitch": 79,
            "start_beat": 952.0,
            "duration_beat": 0.9479166666666288,
            "velocity": 96,
            "track": 1
        },
        {
            "pitch": 82,
            "start_beat": 952.0,
            "duration_beat": 0.9479166666666288,
            "velocity": 96,
            "track": 1
        },
        {
            "pitch": 87,
            "start_beat": 952.0,
            "duration_beat": 0.9479166666666288,
            "velocity": 96,
            "track": 1
        },
        {
            "pitch": 89,
            "start_beat": 954.5,
            "duration_beat": 0.4729166666667197,
            "velocity": 96,
            "track": 0
        },
        {
            "pitch": 101,
            "start_beat": 955.0,
            "duration_beat": 0.497916666666697,
            "velocity": 96,
            "track": 0
        },
        {
            "pitch": 60,
            "start_beat": 955.0,
            "duration_beat": 0.497916666666697,
            "velocity": 96,
            "track": 1
        },
        {
            "pitch": 63,
            "start_beat": 955.0,
            "duration_beat": 0.497916666666697,
            "velocity": 96,
            "track": 1
        },
        {
            "pitch": 65,
            "start_beat": 955.0,
            "duration_beat": 0.497916666666697,
            "velocity": 96,
            "track": 1
        },
        {
            "pitch": 69,
            "start_beat": 955.0,
            "duration_beat": 0.497916666666697,
            "velocity": 96,
            "track": 1
        },
        {
            "pitch": 100,
            "start_beat": 955.5,
            "duration_beat": 0.497916666666697,
            "velocity": 96,
            "track": 0
        },
        {
            "pitch": 99,
            "start_beat": 956.0,
            "duration_beat": 0.497916666666697,
            "velocity": 96,
            "track": 0
        },
        {
            "pitch": 98,
            "start_beat": 956.5,
            "duration_beat": 0.497916666666697,
            "velocity": 96,
            "track": 0
        },
        {
            "pitch": 96,
            "start_beat": 957.0,
            "duration_beat": 0.497916666666697,
            "velocity": 96,
            "track": 0
        },
        {
            "pitch": 94,
            "start_beat": 957.5,
            "duration_beat": 0.497916666666697,
            "velocity": 96,
            "track": 0
        },
        {
            "pitch": 93,
            "start_beat": 958.0,
            "duration_beat": 0.497916666666697,
            "velocity": 96,
            "track": 0
        },
        {
            "pitch": 91,
            "start_beat": 958.5,
            "duration_beat": 0.497916666666697,
            "velocity": 96,
            "track": 0
        },
        {
            "pitch": 89,
            "start_beat": 959.0,
            "duration_beat": 0.497916666666697,
            "velocity": 96,
            "track": 0
        },
        {
            "pitch": 88,
            "start_beat": 959.5,
            "duration_beat": 0.497916666666697,
            "velocity": 96,
            "track": 0
        },
        {
            "pitch": 87,
            "start_beat": 960.0,
            "duration_beat": 0.497916666666697,
            "velocity": 96,
            "track": 0
        },
        {
            "pitch": 86,
            "start_beat": 960.5,
            "duration_beat": 0.497916666666697,
            "velocity": 96,
            "track": 0
        },
        {
            "pitch": 84,
            "start_beat": 961.0,
            "duration_beat": 0.497916666666697,
            "velocity": 96,
            "track": 0
        },
        {
            "pitch": 82,
            "start_beat": 961.5,
            "duration_beat": 0.497916666666697,
            "velocity": 96,
            "track": 0
        },
        {
            "pitch": 81,
            "start_beat": 962.0,
            "duration_beat": 0.497916666666697,
            "velocity": 96,
            "track": 0
        },
        {
            "pitch": 79,
            "start_beat": 962.5,
            "duration_beat": 0.497916666666697,
            "velocity": 96,
            "track": 0
        },
        {
            "pitch": 77,
            "start_beat": 963.0,
            "duration_beat": 0.497916666666697,
            "velocity": 96,
            "track": 0
        },
        {
            "pitch": 76,
            "start_beat": 963.5,
            "duration_beat": 0.497916666666697,
            "velocity": 96,
            "track": 0
        },
        {
            "pitch": 75,
            "start_beat": 964.0,
            "duration_beat": 0.497916666666697,
            "velocity": 112,
            "track": 0
        },
        {
            "pitch": 47,
            "start_beat": 964.0,
            "duration_beat": 0.997916666666697,
            "velocity": 112,
            "track": 1
        },
        {
            "pitch": 51,
            "start_beat": 964.34375,
            "duration_beat": 0.6520833333332803,
            "velocity": 112,
            "track": 1
        },
        {
            "pitch": 73,
            "start_beat": 964.5,
            "duration_beat": 0.497916666666697,
            "velocity": 112,
            "track": 0
        },
        {
            "pitch": 56,
            "start_beat": 964.6895833333333,
            "duration_beat": 0.30624999999997726,
            "velocity": 112,
            "track": 1
        },
        {
            "pitch": 71,
            "start_beat": 965.0,
            "duration_beat": 0.497916666666697,
            "velocity": 112,
            "track": 0
        },
        {
            "pitch": 70,
            "start_beat": 965.5,
            "duration_beat": 0.497916666666697,
            "velocity": 112,
            "track": 0
        },
        {
            "pitch": 68,
            "start_beat": 966.0,
            "duration_beat": 0.497916666666697,
            "velocity": 112,
            "track": 0
        },
        {
            "pitch": 66,
            "start_beat": 966.5,
            "duration_beat": 0.497916666666697,
            "velocity": 112,
            "track": 0
        },
        {
            "pitch": 65,
            "start_beat": 967.0,
            "duration_beat": 0.497916666666697,
            "velocity": 112,
            "track": 0
        },
        {
            "pitch": 63,
            "start_beat": 967.5,
            "duration_beat": 0.497916666666697,
            "velocity": 112,
            "track": 0
        },
        {
            "pitch": 61,
            "start_beat": 968.0,
            "duration_beat": 0.497916666666697,
            "velocity": 112,
            "track": 0
        },
        {
            "pitch": 59,
            "start_beat": 968.5,
            "duration_beat": 0.497916666666697,
            "velocity": 112,
            "track": 0
        },
        {
            "pitch": 58,
            "start_beat": 969.0,
            "duration_beat": 0.497916666666697,
            "velocity": 112,
            "track": 0
        },
        {
            "pitch": 56,
            "start_beat": 969.5,
            "duration_beat": 0.497916666666697,
            "velocity": 112,
            "track": 0
        },
        {
            "pitch": 54,
            "start_beat": 970.0,
            "duration_beat": 0.497916666666697,
            "velocity": 112,
            "track": 0
        },
        {
            "pitch": 35,
            "start_beat": 970.0,
            "duration_beat": 0.9479166666666288,
            "velocity": 112,
            "track": 1
        },
        {
            "pitch": 53,
            "start_beat": 970.5,
            "duration_beat": 0.497916666666697,
            "velocity": 112,
            "track": 0
        },
        {
            "pitch": 51,
            "start_beat": 971.0,
            "duration_beat": 0.497916666666697,
            "velocity": 112,
            "track": 0
        },
        {
            "pitch": 49,
            "start_beat": 971.5,
            "duration_beat": 0.497916666666697,
            "velocity": 112,
            "track": 0
        },
        {
            "pitch": 47,
            "start_beat": 972.0,
            "duration_beat": 0.497916666666697,
            "velocity": 112,
            "track": 0
        },
        {
            "pitch": 46,
            "start_beat": 972.5,
            "duration_beat": 0.497916666666697,
            "velocity": 112,
            "track": 0
        },
        {
            "pitch": 44,
            "start_beat": 973.0,
            "duration_beat": 0.497916666666697,
            "velocity": 112,
            "track": 0
        },
        {
            "pitch": 42,
            "start_beat": 973.5,
            "duration_beat": 0.497916666666697,
            "velocity": 112,
            "track": 0
        },
        {
            "pitch": 41,
            "start_beat": 974.0,
            "duration_beat": 0.497916666666697,
            "velocity": 112,
            "track": 0
        },
        {
            "pitch": 39,
            "start_beat": 974.5,
            "duration_beat": 0.497916666666697,
            "velocity": 112,
            "track": 0
        },
        {
            "pitch": 37,
            "start_beat": 975.0,
            "duration_beat": 0.497916666666697,
            "velocity": 112,
            "track": 0
        },
        {
            "pitch": 35,
            "start_beat": 975.5,
            "duration_beat": 0.497916666666697,
            "velocity": 112,
            "track": 0
        },
        {
            "pitch": 34,
            "start_beat": 976.0,
            "duration_beat": 0.497916666666697,
            "velocity": 112,
            "track": 1
        },
        {
            "pitch": 41,
            "start_beat": 976.5,
            "duration_beat": 0.497916666666697,
            "velocity": 112,
            "track": 1
        },
        {
            "pitch": 46,
            "start_beat": 977.0,
            "duration_beat": 0.497916666666697,
            "velocity": 112,
            "track": 1
        },
        {
            "pitch": 50,
            "start_beat": 977.5,
            "duration_beat": 0.497916666666697,
            "velocity": 112,
            "track": 1
        },
        {
            "pitch": 46,
            "start_beat": 978.0,
            "duration_beat": 0.497916666666697,
            "velocity": 112,
            "track": 1
        },
        {
            "pitch": 41,
            "start_beat": 978.5,
            "duration_beat": 0.497916666666697,
            "velocity": 112,
            "track": 1
        },
        {
            "pitch": 58,
            "start_beat": 979.0,
            "duration_beat": 1.3374999999999773,
            "velocity": 127,
            "track": 0
        },
        {
            "pitch": 62,
            "start_beat": 979.0,
            "duration_beat": 1.3374999999999773,
            "velocity": 127,
            "track": 0
        },
        {
            "pitch": 67,
            "start_beat": 979.0,
            "duration_beat": 1.3374999999999773,
            "velocity": 127,
            "track": 0
        },
        {
            "pitch": 34,
            "start_beat": 979.0,
            "duration_beat": 0.497916666666697,
            "velocity": 112,
            "track": 1
        },
        {
            "pitch": 41,
            "start_beat": 979.5,
            "duration_beat": 0.497916666666697,
            "velocity": 112,
            "track": 1
        },
        {
            "pitch": 46,
            "start_beat": 980.0,
            "duration_beat": 0.497916666666697,
            "velocity": 112,
            "track": 1
        },
        {
            "pitch": 53,
            "start_beat": 980.5,
            "duration_beat": 0.497916666666697,
            "velocity": 112,
            "track": 1
        },
        {
            "pitch": 56,
            "start_beat": 981.0,
            "duration_beat": 0.997916666666697,
            "velocity": 112,
            "track": 0
        },
        {
            "pitch": 62,
            "start_beat": 981.0,
            "duration_beat": 0.997916666666697,
            "velocity": 112,
            "track": 0
        },
        {
            "pitch": 67,
            "start_beat": 981.0,
            "duration_beat": 0.997916666666697,
            "velocity": 112,
            "track": 0
        },
        {
            "pitch": 46,
            "start_beat": 981.0,
            "duration_beat": 0.497916666666697,
            "velocity": 112,
            "track": 1
        },
        {
            "pitch": 41,
            "start_beat": 981.5,
            "duration_beat": 0.4729166666667197,
            "velocity": 112,
            "track": 1
        },
        {
            "pitch": 55,
            "start_beat": 982.0,
            "duration_beat": 0.9479166666666288,
            "velocity": 112,
            "track": 0
        },
        {
            "pitch": 63,
            "start_beat": 982.0,
            "duration_beat": 0.9479166666666288,
            "velocity": 112,
            "track": 0
        },
        {
            "pitch": 39,
            "start_beat": 982.0,
            "duration_beat": 0.497916666666697,
            "velocity": 112,
            "track": 1
        },
        {
            "pitch": 46,
            "start_beat": 982.5,
            "duration_beat": 0.497916666666697,
            "velocity": 112,
            "track": 1
        },
        {
            "pitch": 51,
            "start_beat": 983.0,
            "duration_beat": 0.497916666666697,
            "velocity": 112,
            "track": 1
        },
        {
            "pitch": 55,
            "start_beat": 983.5,
            "duration_beat": 0.497916666666697,
            "velocity": 112,
            "track": 1
        },
        {
            "pitch": 63,
            "start_beat": 984.0,
            "duration_beat": 2.997916666666697,
            "velocity": 112,
            "track": 0
        },
        {
            "pitch": 67,
            "start_beat": 984.0,
            "duration_beat": 2.997916666666697,
            "velocity": 112,
            "track": 0
        },
        {
            "pitch": 75,
            "start_beat": 984.0,
            "duration_beat": 2.997916666666697,
            "velocity": 112,
            "track": 0
        },
        {
            "pitch": 51,
            "start_beat": 984.0,
            "duration_beat": 0.497916666666697,
            "velocity": 112,
            "track": 1
        },
        {
            "pitch": 46,
            "start_beat": 984.5,
            "duration_beat": 0.497916666666697,
            "velocity": 112,
            "track": 1
        },
        {
            "pitch": 39,
            "start_beat": 985.0,
            "duration_beat": 0.497916666666697,
            "velocity": 112,
            "track": 1
        },
        {
            "pitch": 48,
            "start_beat": 985.5,
            "duration_beat": 0.497916666666697,
            "velocity": 112,
            "track": 1
        },
        {
            "pitch": 51,
            "start_beat": 986.0,
            "duration_beat": 0.497916666666697,
            "velocity": 112,
            "track": 1
        },
        {
            "pitch": 58,
            "start_beat": 986.5,
            "duration_beat": 0.497916666666697,
            "velocity": 112,
            "track": 1
        },
        {
            "pitch": 63,
            "start_beat": 987.0,
            "duration_beat": 0.997916666666697,
            "velocity": 112,
            "track": 0
        },
        {
            "pitch": 70,
            "start_beat": 987.0,
            "duration_beat": 0.997916666666697,
            "velocity": 112,
            "track": 0
        },
        {
            "pitch": 74,
            "start_beat": 987.0,
            "duration_beat": 0.997916666666697,
            "velocity": 112,
            "track": 0
        },
        {
            "pitch": 51,
            "start_beat": 987.0,
            "duration_beat": 0.497916666666697,
            "velocity": 112,
            "track": 1
        },
        {
            "pitch": 46,
            "start_beat": 987.5,
            "duration_beat": 0.4729166666667197,
            "velocity": 112,
            "track": 1
        },
        {
            "pitch": 63,
            "start_beat": 988.0,
            "duration_beat": 2.997916666666697,
            "velocity": 112,
            "track": 0
        },
        {
            "pitch": 70,
            "start_beat": 988.0,
            "duration_beat": 2.997916666666697,
            "velocity": 112,
            "track": 0
        },
        {
            "pitch": 72,
            "start_beat": 988.0,
            "duration_beat": 2.997916666666697,
            "velocity": 112,
            "track": 0
        },
        {
            "pitch": 41,
            "start_beat": 988.0,
            "duration_beat": 0.497916666666697,
            "velocity": 112,
            "track": 1
        },
        {
            "pitch": 48,
            "start_beat": 988.5,
            "duration_beat": 0.497916666666697,
            "velocity": 112,
            "track": 1
        },
        {
            "pitch": 51,
            "start_beat": 989.0,
            "duration_beat": 0.497916666666697,
            "velocity": 112,
            "track": 1
        },
        {
            "pitch": 58,
            "start_beat": 989.5,
            "duration_beat": 0.497916666666697,
            "velocity": 112,
            "track": 1
        },
        {
            "pitch": 51,
            "start_beat": 990.0,
            "duration_beat": 0.497916666666697,
            "velocity": 112,
            "track": 1
        },
        {
            "pitch": 48,
            "start_beat": 990.5,
            "duration_beat": 0.4729166666667197,
            "velocity": 112,
            "track": 1
        },
        {
            "pitch": 65,
            "start_beat": 991.0,
            "duration_beat": 1.997916666666697,
            "velocity": 112,
            "track": 0
        },
        {
            "pitch": 69,
            "start_beat": 991.0,
            "duration_beat": 1.997916666666697,
            "velocity": 112,
            "track": 0
        },
        {
            "pitch": 74,
            "start_beat": 991.0,
            "duration_beat": 1.997916666666697,
            "velocity": 112,
            "track": 0
        },
        {
            "pitch": 41,
            "start_beat": 991.0,
            "duration_beat": 0.497916666666697,
            "velocity": 112,
            "track": 1
        },
        {
            "pitch": 48,
            "start_beat": 991.5,
            "duration_beat": 0.497916666666697,
            "velocity": 112,
            "track": 1
        },
        {
            "pitch": 51,
            "start_beat": 992.0,
            "duration_beat": 0.497916666666697,
            "velocity": 112,
            "track": 1
        },
        {
            "pitch": 57,
            "start_beat": 992.5,
            "duration_beat": 0.497916666666697,
            "velocity": 112,
            "track": 1
        },
        {
            "pitch": 63,
            "start_beat": 993.0,
            "duration_beat": 0.997916666666697,
            "velocity": 112,
            "track": 0
        },
        {
            "pitch": 69,
            "start_beat": 993.0,
            "duration_beat": 0.997916666666697,
            "velocity": 112,
            "track": 0
        },
        {
            "pitch": 74,
            "start_beat": 993.0,
            "duration_beat": 0.997916666666697,
            "velocity": 112,
            "track": 0
        },
        {
            "pitch": 51,
            "start_beat": 993.0,
            "duration_beat": 0.497916666666697,
            "velocity": 112,
            "track": 1
        },
        {
            "pitch": 48,
            "start_beat": 993.5,
            "duration_beat": 0.4729166666667197,
            "velocity": 112,
            "track": 1
        },
        {
            "pitch": 62,
            "start_beat": 994.0,
            "duration_beat": 0.9479166666666288,
            "velocity": 112,
            "track": 0
        },
        {
            "pitch": 70,
            "start_beat": 994.0,
            "duration_beat": 0.9479166666666288,
            "velocity": 112,
            "track": 0
        },
        {
            "pitch": 46,
            "start_beat": 994.0,
            "duration_beat": 0.497916666666697,
            "velocity": 112,
            "track": 1
        },
        {
            "pitch": 53,
            "start_beat": 994.5,
            "duration_beat": 0.497916666666697,
            "velocity": 112,
            "track": 1
        },
        {
            "pitch": 58,
            "start_beat": 995.0,
            "duration_beat": 0.497916666666697,
            "velocity": 112,
            "track": 1
        },
        {
            "pitch": 62,
            "start_beat": 995.5,
            "duration_beat": 0.497916666666697,
            "velocity": 112,
            "track": 1
        },
        {
            "pitch": 58,
            "start_beat": 996.0,
            "duration_beat": 0.497916666666697,
            "velocity": 112,
            "track": 1
        },
        {
            "pitch": 53,
            "start_beat": 996.5,
            "duration_beat": 0.4729166666667197,
            "velocity": 112,
            "track": 1
        },
        {
            "pitch": 70,
            "start_beat": 997.0,
            "duration_beat": 1.8979166666666742,
            "velocity": 112,
            "track": 0
        },
        {
            "pitch": 82,
            "start_beat": 997.0,
            "duration_beat": 1.8979166666666742,
            "velocity": 112,
            "track": 0
        },
        {
            "pitch": 46,
            "start_beat": 997.0,
            "duration_beat": 0.497916666666697,
            "velocity": 112,
            "track": 1
        },
        {
            "pitch": 53,
            "start_beat": 997.5,
            "duration_beat": 0.497916666666697,
            "velocity": 112,
            "track": 1
        },
        {
            "pitch": 58,
            "start_beat": 998.0,
            "duration_beat": 0.497916666666697,
            "velocity": 112,
            "track": 1
        },
        {
            "pitch": 65,
            "start_beat": 998.5,
            "duration_beat": 0.497916666666697,
            "velocity": 112,
            "track": 1
        },
        {
            "pitch": 71,
            "start_beat": 999.0,
            "duration_beat": 0.9479166666666288,
            "velocity": 112,
            "track": 0
        },
        {
            "pitch": 83,
            "start_beat": 999.0,
            "duration_beat": 0.9479166666666288,
            "velocity": 112,
            "track": 0
        },
        {
            "pitch": 58,
            "start_beat": 999.0,
            "duration_beat": 0.497916666666697,
            "velocity": 112,
            "track": 1
        },
        {
            "pitch": 53,
            "start_beat": 999.5,
            "duration_beat": 0.4729166666667197,
            "velocity": 112,
            "track": 1
        },
        {
            "pitch": 72,
            "start_beat": 1000.0,
            "duration_beat": 0.5979166666667197,
            "velocity": 112,
            "track": 0
        },
        {
            "pitch": 84,
            "start_beat": 1000.0,
            "duration_beat": 0.5979166666667197,
            "velocity": 112,
            "track": 0
        },
        {
            "pitch": 46,
            "start_beat": 1000.0,
            "duration_beat": 0.497916666666697,
            "velocity": 112,
            "track": 1
        },
        {
            "pitch": 55,
            "start_beat": 1000.5,
            "duration_beat": 0.497916666666697,
            "velocity": 112,
            "track": 1
        },
        {
            "pitch": 82,
            "start_beat": 1000.6,
            "duration_beat": 0.597916666666606,
            "velocity": 112,
            "track": 0
        },
        {
            "pitch": 85,
            "start_beat": 1000.6,
            "duration_beat": 0.597916666666606,
            "velocity": 112,
            "track": 0
        },
        {
            "pitch": 60,
            "start_beat": 1001.0,
            "duration_beat": 0.497916666666697,
            "velocity": 112,
            "track": 1
        },
        {
            "pitch": 76,
            "start_beat": 1001.2,
            "duration_beat": 0.597916666666606,
            "velocity": 112,
            "track": 0
        },
        {
            "pitch": 84,
            "start_beat": 1001.2,
            "duration_beat": 0.597916666666606,
            "velocity": 112,
            "track": 0
        },
        {
            "pitch": 64,
            "start_beat": 1001.5,
            "duration_beat": 0.497916666666697,
            "velocity": 112,
            "track": 1
        },
        {
            "pitch": 82,
            "start_beat": 1001.8,
            "duration_beat": 0.5979166666667197,
            "velocity": 112,
            "track": 0
        },
        {
            "pitch": 83,
            "start_beat": 1001.8,
            "duration_beat": 0.5979166666667197,
            "velocity": 112,
            "track": 0
        },
        {
            "pitch": 60,
            "start_beat": 1002.0,
            "duration_beat": 0.497916666666697,
            "velocity": 112,
            "track": 1
        },
        {
            "pitch": 84,
            "start_beat": 1002.4,
            "duration_beat": 0.10000000000002274,
            "velocity": 112,
            "track": 0
        },
        {
            "pitch": 76,
            "start_beat": 1002.4,
            "duration_beat": 0.5666666666667197,
            "velocity": 112,
            "track": 0
        },
        {
            "pitch": 80,
            "start_beat": 1002.5,
            "duration_beat": 0.497916666666697,
            "velocity": 112,
            "track": 0
        },
        {
            "pitch": 84,
            "start_beat": 1002.5,
            "duration_beat": 0.497916666666697,
            "velocity": 112,
            "track": 0
        },
        {
            "pitch": 55,
            "start_beat": 1002.5,
            "duration_beat": 0.4729166666667197,
            "velocity": 112,
            "track": 1
        },
        {
            "pitch": 80,
            "start_beat": 1003.0,
            "duration_beat": 0.497916666666697,
            "velocity": 112,
            "track": 0
        },
        {
            "pitch": 92,
            "start_beat": 1003.0,
            "duration_beat": 0.497916666666697,
            "velocity": 112,
            "track": 0
        },
        {
            "pitch": 46,
            "start_beat": 1003.0,
            "duration_beat": 0.497916666666697,
            "velocity": 112,
            "track": 1
        },
        {
            "pitch": 56,
            "start_beat": 1003.5,
            "duration_beat": 0.497916666666697,
            "velocity": 112,
            "track": 1
        },
        {
            "pitch": 60,
            "start_beat": 1004.0,
            "duration_beat": 0.497916666666697,
            "velocity": 112,
            "track": 1
        },
        {
            "pitch": 65,
            "start_beat": 1004.5,
            "duration_beat": 0.497916666666697,
            "velocity": 112,
            "track": 1
        },
        {
            "pitch": 60,
            "start_beat": 1005.0,
            "duration_beat": 0.497916666666697,
            "velocity": 112,
            "track": 1
        },
        {
            "pitch": 75,
            "start_beat": 1005.5,
            "duration_beat": 0.4729166666667197,
            "velocity": 112,
            "track": 0
        },
        {
            "pitch": 84,
            "start_beat": 1005.5,
            "duration_beat": 0.4729166666667197,
            "velocity": 112,
            "track": 0
        },
        {
            "pitch": 56,
            "start_beat": 1005.5,
            "duration_beat": 0.4729166666667197,
            "velocity": 112,
            "track": 1
        },
        {
            "pitch": 74,
            "start_beat": 1006.0,
            "duration_beat": 0.5979166666667197,
            "velocity": 112,
            "track": 0
        },
        {
            "pitch": 82,
            "start_beat": 1006.0,
            "duration_beat": 0.5979166666667197,
            "velocity": 112,
            "track": 0
        },
        {
            "pitch": 46,
            "start_beat": 1006.0,
            "duration_beat": 0.497916666666697,
            "velocity": 112,
            "track": 1
        },
        {
            "pitch": 53,
            "start_beat": 1006.5,
            "duration_beat": 0.497916666666697,
            "velocity": 112,
            "track": 1
        },
        {
            "pitch": 80,
            "start_beat": 1006.6,
            "duration_beat": 0.597916666666606,
            "velocity": 112,
            "track": 0
        },
        {
            "pitch": 84,
            "start_beat": 1006.6,
            "duration_beat": 0.597916666666606,
            "velocity": 112,
            "track": 0
        },
        {
            "pitch": 56,
            "start_beat": 1007.0,
            "duration_beat": 0.497916666666697,
            "velocity": 112,
            "track": 1
        },
        {
            "pitch": 74,
            "start_beat": 1007.2,
            "duration_beat": 0.597916666666606,
            "velocity": 112,
            "track": 0
        },
        {
            "pitch": 82,
            "start_beat": 1007.2,
            "duration_beat": 0.597916666666606,
            "velocity": 112,
            "track": 0
        },
        {
            "pitch": 62,
            "start_beat": 1007.5,
            "duration_beat": 0.497916666666697,
            "velocity": 112,
            "track": 1
        },
        {
            "pitch": 80,
            "start_beat": 1007.8,
            "duration_beat": 0.5979166666667197,
            "velocity": 112,
            "track": 0
        },
        {
            "pitch": 81,
            "start_beat": 1007.8,
            "duration_beat": 0.5979166666667197,
            "velocity": 112,
            "track": 0
        },
        {
            "pitch": 56,
            "start_beat": 1008.0,
            "duration_beat": 0.497916666666697,
            "velocity": 112,
            "track": 1
        },
        {
            "pitch": 82,
            "start_beat": 1008.4,
            "duration_beat": 0.10000000000002274,
            "velocity": 112,
            "track": 0
        },
        {
            "pitch": 74,
            "start_beat": 1008.4,
            "duration_beat": 0.5666666666667197,
            "velocity": 112,
            "track": 0
        },
        {
            "pitch": 79,
            "start_beat": 1008.5,
            "duration_beat": 0.497916666666697,
            "velocity": 112,
            "track": 0
        },
        {
            "pitch": 82,
            "start_beat": 1008.5,
            "duration_beat": 0.497916666666697,
            "velocity": 112,
            "track": 0
        },
        {
            "pitch": 53,
            "start_beat": 1008.5,
            "duration_beat": 0.4729166666667197,
            "velocity": 112,
            "track": 1
        },
        {
            "pitch": 79,
            "start_beat": 1009.0,
            "duration_beat": 0.497916666666697,
            "velocity": 112,
            "track": 0
        },
        {
            "pitch": 91,
            "start_beat": 1009.0,
            "duration_beat": 0.497916666666697,
            "velocity": 112,
            "track": 0
        },
        {
            "pitch": 46,
            "start_beat": 1009.0,
            "duration_beat": 0.497916666666697,
            "velocity": 112,
            "track": 1
        },
        {
            "pitch": 51,
            "start_beat": 1009.5,
            "duration_beat": 0.497916666666697,
            "velocity": 112,
            "track": 1
        },
        {
            "pitch": 55,
            "start_beat": 1010.0,
            "duration_beat": 0.497916666666697,
            "velocity": 112,
            "track": 1
        },
        {
            "pitch": 63,
            "start_beat": 1010.5,
            "duration_beat": 0.497916666666697,
            "velocity": 112,
            "track": 1
        },
        {
            "pitch": 55,
            "start_beat": 1011.0,
            "duration_beat": 0.497916666666697,
            "velocity": 112,
            "track": 1
        },
        {
            "pitch": 74,
            "start_beat": 1011.5,
            "duration_beat": 0.4729166666667197,
            "velocity": 112,
            "track": 0
        },
        {
            "pitch": 82,
            "start_beat": 1011.5,
            "duration_beat": 0.4729166666667197,
            "velocity": 112,
            "track": 0
        },
        {
            "pitch": 51,
            "start_beat": 1011.5,
            "duration_beat": 0.4729166666667197,
            "velocity": 112,
            "track": 1
        },
        {
            "pitch": 72,
            "start_beat": 1012.0,
            "duration_beat": 0.5979166666667197,
            "velocity": 112,
            "track": 0
        },
        {
            "pitch": 80,
            "start_beat": 1012.0,
            "duration_beat": 0.5979166666667197,
            "velocity": 112,
            "track": 0
        },
        {
            "pitch": 46,
            "start_beat": 1012.0,
            "duration_beat": 0.497916666666697,
            "velocity": 112,
            "track": 1
        },
        {
            "pitch": 51,
            "start_beat": 1012.5,
            "duration_beat": 0.497916666666697,
            "velocity": 112,
            "track": 1
        },
        {
            "pitch": 75,
            "start_beat": 1012.6,
            "duration_beat": 0.597916666666606,
            "velocity": 112,
            "track": 0
        },
        {
            "pitch": 82,
            "start_beat": 1012.6,
            "duration_beat": 0.597916666666606,
            "velocity": 112,
            "track": 0
        },
        {
            "pitch": 56,
            "start_beat": 1013.0,
            "duration_beat": 0.497916666666697,
            "velocity": 112,
            "track": 1
        },
        {
            "pitch": 72,
            "start_beat": 1013.2,
            "duration_beat": 0.597916666666606,
            "velocity": 112,
            "track": 0
        },
        {
            "pitch": 80,
            "start_beat": 1013.2,
            "duration_beat": 0.597916666666606,
            "velocity": 112,
            "track": 0
        },
        {
            "pitch": 60,
            "start_beat": 1013.5,
            "duration_beat": 0.497916666666697,
            "velocity": 112,
            "track": 1
        },
        {
            "pitch": 75,
            "start_beat": 1013.8,
            "duration_beat": 0.5979166666667197,
            "velocity": 112,
            "track": 0
        },
        {
            "pitch": 79,
            "start_beat": 1013.8,
            "duration_beat": 0.5979166666667197,
            "velocity": 112,
            "track": 0
        },
        {
            "pitch": 56,
            "start_beat": 1014.0,
            "duration_beat": 0.497916666666697,
            "velocity": 112,
            "track": 1
        },
        {
            "pitch": 80,
            "start_beat": 1014.4,
            "duration_beat": 0.10000000000002274,
            "velocity": 112,
            "track": 0
        },
        {
            "pitch": 72,
            "start_beat": 1014.4,
            "duration_beat": 0.5666666666667197,
            "velocity": 112,
            "track": 0
        },
        {
            "pitch": 77,
            "start_beat": 1014.5,
            "duration_beat": 0.497916666666697,
            "velocity": 112,
            "track": 0
        },
        {
            "pitch": 80,
            "start_beat": 1014.5,
            "duration_beat": 0.497916666666697,
            "velocity": 112,
            "track": 0
        },
        {
            "pitch": 51,
            "start_beat": 1014.5,
            "duration_beat": 0.4729166666667197,
            "velocity": 112,
            "track": 1
        },
        {
            "pitch": 77,
            "start_beat": 1015.0,
            "duration_beat": 0.497916666666697,
            "velocity": 112,
            "track": 0
        },
        {
            "pitch": 89,
            "start_beat": 1015.0,
            "duration_beat": 0.497916666666697,
            "velocity": 112,
            "track": 0
        },
        {
            "pitch": 46,
            "start_beat": 1015.0,
            "duration_beat": 0.497916666666697,
            "velocity": 112,
            "track": 1
        },
        {
            "pitch": 53,
            "start_beat": 1015.5,
            "duration_beat": 0.497916666666697,
            "velocity": 112,
            "track": 1
        },
        {
            "pitch": 56,
            "start_beat": 1016.0,
            "duration_beat": 0.497916666666697,
            "velocity": 112,
            "track": 1
        },
        {
            "pitch": 62,
            "start_beat": 1016.5,
            "duration_beat": 0.497916666666697,
            "velocity": 112,
            "track": 1
        },
        {
            "pitch": 77,
            "start_beat": 1017.0,
            "duration_beat": 0.997916666666697,
            "velocity": 112,
            "track": 0
        },
        {
            "pitch": 80,
            "start_beat": 1017.0,
            "duration_beat": 0.997916666666697,
            "velocity": 112,
            "track": 0
        },
        {
            "pitch": 56,
            "start_beat": 1017.0,
            "duration_beat": 0.497916666666697,
            "velocity": 112,
            "track": 1
        },
        {
            "pitch": 53,
            "start_beat": 1017.5,
            "duration_beat": 0.4729166666667197,
            "velocity": 112,
            "track": 1
        },
        {
            "pitch": 77,
            "start_beat": 1018.0,
            "duration_beat": 0.9479166666666288,
            "velocity": 112,
            "track": 0
        },
        {
            "pitch": 79,
            "start_beat": 1018.0,
            "duration_beat": 0.9479166666666288,
            "velocity": 112,
            "track": 0
        },
        {
            "pitch": 47,
            "start_beat": 1018.0,
            "duration_beat": 0.497916666666697,
            "velocity": 112,
            "track": 1
        },
        {
            "pitch": 82,
            "start_beat": 1018.5,
            "duration_beat": 0.497916666666697,
            "velocity": 112,
            "track": 0
        },
        {
            "pitch": 53,
            "start_beat": 1018.5,
            "duration_beat": 0.497916666666697,
            "velocity": 112,
            "track": 1
        },
        {
            "pitch": 77,
            "start_beat": 1019.0,
            "duration_beat": 1.497916666666697,
            "velocity": 112,
            "track": 0
        },
        {
            "pitch": 80,
            "start_beat": 1019.0,
            "duration_beat": 1.497916666666697,
            "velocity": 112,
            "track": 0
        },
        {
            "pitch": 55,
            "start_beat": 1019.0,
            "duration_beat": 0.497916666666697,
            "velocity": 112,
            "track": 1
        },
        {
            "pitch": 62,
            "start_beat": 1019.5,
            "duration_beat": 0.497916666666697,
            "velocity": 112,
            "track": 1
        },
        {
            "pitch": 55,
            "start_beat": 1020.0,
            "duration_beat": 0.497916666666697,
            "velocity": 112,
            "track": 1
        },
        {
            "pitch": 77,
            "start_beat": 1020.5,
            "duration_beat": 0.4729166666667197,
            "velocity": 112,
            "track": 0
        },
        {
            "pitch": 79,
            "start_beat": 1020.5,
            "duration_beat": 0.4729166666667197,
            "velocity": 112,
            "track": 0
        },
        {
            "pitch": 53,
            "start_beat": 1020.5,
            "duration_beat": 0.4729166666667197,
            "velocity": 112,
            "track": 1
        },
        {
            "pitch": 75,
            "start_beat": 1021.0,
            "duration_beat": 0.497916666666697,
            "velocity": 112,
            "track": 0
        },
        {
            "pitch": 79,
            "start_beat": 1021.0,
            "duration_beat": 0.497916666666697,
            "velocity": 112,
            "track": 0
        },
        {
            "pitch": 48,
            "start_beat": 1021.0,
            "duration_beat": 0.497916666666697,
            "velocity": 112,
            "track": 1
        },
        {
            "pitch": 51,
            "start_beat": 1021.5,
            "duration_beat": 0.497916666666697,
            "velocity": 112,
            "track": 1
        },
        {
            "pitch": 75,
            "start_beat": 1022.0,
            "duration_beat": 0.497916666666697,
            "velocity": 112,
            "track": 0
        },
        {
            "pitch": 80,
            "start_beat": 1022.0,
            "duration_beat": 0.497916666666697,
            "velocity": 112,
            "track": 0
        },
        {
            "pitch": 55,
            "start_beat": 1022.0,
            "duration_beat": 0.497916666666697,
            "velocity": 112,
            "track": 1
        },
        {
            "pitch": 63,
            "start_beat": 1022.5,
            "duration_beat": 0.497916666666697,
            "velocity": 112,
            "track": 1
        },
        {
            "pitch": 75,
            "start_beat": 1023.0,
            "duration_beat": 0.497916666666697,
            "velocity": 112,
            "track": 0
        },
        {
            "pitch": 81,
            "start_beat": 1023.0,
            "duration_beat": 0.497916666666697,
            "velocity": 112,
            "track": 0
        },
        {
            "pitch": 54,
            "start_beat": 1023.0,
            "duration_beat": 0.497916666666697,
            "velocity": 112,
            "track": 1
        },
        {
            "pitch": 51,
            "start_beat": 1023.5,
            "duration_beat": 0.4729166666667197,
            "velocity": 112,
            "track": 1
        },
        {
            "pitch": 82,
            "start_beat": 1024.0,
            "duration_beat": 2.006249999999909,
            "velocity": 127,
            "track": 0
        },
        {
            "pitch": 68,
            "start_beat": 1024.0,
            "duration_beat": 2.997916666666697,
            "velocity": 112,
            "track": 0
        },
        {
            "pitch": 70,
            "start_beat": 1024.0,
            "duration_beat": 2.997916666666697,
            "velocity": 112,
            "track": 0
        },
        {
            "pitch": 77,
            "start_beat": 1024.0,
            "duration_beat": 2.997916666666697,
            "velocity": 112,
            "track": 0
        },
        {
            "pitch": 50,
            "start_beat": 1024.0,
            "duration_beat": 0.497916666666697,
            "velocity": 112,
            "track": 1
        },
        {
            "pitch": 56,
            "start_beat": 1024.5,
            "duration_beat": 0.497916666666697,
            "velocity": 112,
            "track": 1
        },
        {
            "pitch": 58,
            "start_beat": 1025.0,
            "duration_beat": 0.497916666666697,
            "velocity": 112,
            "track": 1
        },
        {
            "pitch": 65,
            "start_beat": 1025.5,
            "duration_beat": 0.497916666666697,
            "velocity": 112,
            "track": 1
        },
        {
            "pitch": 58,
            "start_beat": 1026.0,
            "duration_beat": 0.497916666666697,
            "velocity": 112,
            "track": 1
        },
        {
            "pitch": 56,
            "start_beat": 1026.5,
            "duration_beat": 0.47291666666660603,
            "velocity": 112,
            "track": 1
        },
        {
            "pitch": 82,
            "start_beat": 1027.0,
            "duration_beat": 1.997916666666697,
            "velocity": 112,
            "track": 0
        },
        {
            "pitch": 68,
            "start_beat": 1027.0,
            "duration_beat": 1.997916666666697,
            "velocity": 112,
            "track": 0
        },
        {
            "pitch": 70,
            "start_beat": 1027.0,
            "duration_beat": 1.997916666666697,
            "velocity": 112,
            "track": 0
        },
        {
            "pitch": 74,
            "start_beat": 1027.0,
            "duration_beat": 1.997916666666697,
            "velocity": 112,
            "track": 0
        },
        {
            "pitch": 79,
            "start_beat": 1027.0,
            "duration_beat": 1.997916666666697,
            "velocity": 112,
            "track": 0
        },
        {
            "pitch": 46,
            "start_beat": 1027.0,
            "duration_beat": 0.497916666666697,
            "velocity": 112,
            "track": 1
        },
        {
            "pitch": 53,
            "start_beat": 1027.5,
            "duration_beat": 0.497916666666697,
            "velocity": 112,
            "track": 1
        },
        {
            "pitch": 58,
            "start_beat": 1028.0,
            "duration_beat": 0.497916666666697,
            "velocity": 112,
            "track": 1
        },
        {
            "pitch": 62,
            "start_beat": 1028.5,
            "duration_beat": 0.497916666666697,
            "velocity": 112,
            "track": 1
        },
        {
            "pitch": 82,
            "start_beat": 1029.0,
            "duration_beat": 0.997916666666697,
            "velocity": 112,
            "track": 0
        },
        {
            "pitch": 68,
            "start_beat": 1029.0,
            "duration_beat": 0.997916666666697,
            "velocity": 112,
            "track": 0
        },
        {
            "pitch": 70,
            "start_beat": 1029.0,
            "duration_beat": 0.997916666666697,
            "velocity": 112,
            "track": 0
        },
        {
            "pitch": 74,
            "start_beat": 1029.0,
            "duration_beat": 0.997916666666697,
            "velocity": 112,
            "track": 0
        },
        {
            "pitch": 79,
            "start_beat": 1029.0,
            "duration_beat": 0.997916666666697,
            "velocity": 112,
            "track": 0
        },
        {
            "pitch": 58,
            "start_beat": 1029.0,
            "duration_beat": 0.497916666666697,
            "velocity": 112,
            "track": 1
        },
        {
            "pitch": 53,
            "start_beat": 1029.5,
            "duration_beat": 0.47291666666660603,
            "velocity": 112,
            "track": 1
        },
        {
            "pitch": 75,
            "start_beat": 1030.0,
            "duration_beat": 0.9479166666667425,
            "velocity": 112,
            "track": 0
        },
        {
            "pitch": 67,
            "start_beat": 1030.0,
            "duration_beat": 0.9479166666667425,
            "velocity": 112,
            "track": 0
        },
        {
            "pitch": 39,
            "start_beat": 1030.0,
            "duration_beat": 0.497916666666697,
            "velocity": 112,
            "track": 1
        },
        {
            "pitch": 46,
            "start_beat": 1030.5,
            "duration_beat": 0.497916666666697,
            "velocity": 112,
            "track": 1
        },
        {
            "pitch": 51,
            "start_beat": 1031.0,
            "duration_beat": 0.497916666666697,
            "velocity": 112,
            "track": 1
        },
        {
            "pitch": 55,
            "start_beat": 1031.5,
            "duration_beat": 0.497916666666697,
            "velocity": 112,
            "track": 1
        },
        {
            "pitch": 58,
            "start_beat": 1032.0,
            "duration_beat": 0.497916666666697,
            "velocity": 112,
            "track": 1
        },
        {
            "pitch": 63,
            "start_beat": 1032.5,
            "duration_beat": 0.497916666666697,
            "velocity": 112,
            "track": 1
        },
        {
            "pitch": 75,
            "start_beat": 1033.0,
            "duration_beat": 1.997916666666697,
            "velocity": 112,
            "track": 0
        },
        {
            "pitch": 79,
            "start_beat": 1033.0,
            "duration_beat": 1.997916666666697,
            "velocity": 112,
            "track": 0
        },
        {
            "pitch": 87,
            "start_beat": 1033.0,
            "duration_beat": 1.997916666666697,
            "velocity": 112,
            "track": 0
        },
        {
            "pitch": 67,
            "start_beat": 1033.0,
            "duration_beat": 0.497916666666697,
            "velocity": 112,
            "track": 1
        },
        {
            "pitch": 63,
            "start_beat": 1033.5,
            "duration_beat": 0.497916666666697,
            "velocity": 112,
            "track": 1
        },
        {
            "pitch": 58,
            "start_beat": 1034.0,
            "duration_beat": 0.497916666666697,
            "velocity": 112,
            "track": 1
        },
        {
            "pitch": 55,
            "start_beat": 1034.5,
            "duration_beat": 0.497916666666697,
            "velocity": 112,
            "track": 1
        },
        {
            "pitch": 75,
            "start_beat": 1035.0,
            "duration_beat": 0.997916666666697,
            "velocity": 112,
            "track": 0
        },
        {
            "pitch": 82,
            "start_beat": 1035.0,
            "duration_beat": 0.997916666666697,
            "velocity": 112,
            "track": 0
        },
        {
            "pitch": 86,
            "start_beat": 1035.0,
            "duration_beat": 0.997916666666697,
            "velocity": 112,
            "track": 0
        },
        {
            "pitch": 51,
            "start_beat": 1035.0,
            "duration_beat": 0.497916666666697,
            "velocity": 112,
            "track": 1
        },
        {
            "pitch": 46,
            "start_beat": 1035.5,
            "duration_beat": 0.47291666666660603,
            "velocity": 112,
            "track": 1
        },
        {
            "pitch": 75,
            "start_beat": 1036.0,
            "duration_beat": 2.997916666666697,
            "velocity": 112,
            "track": 0
        },
        {
            "pitch": 82,
            "start_beat": 1036.0,
            "duration_beat": 2.997916666666697,
            "velocity": 112,
            "track": 0
        },
        {
            "pitch": 84,
            "start_beat": 1036.0,
            "duration_beat": 2.997916666666697,
            "velocity": 112,
            "track": 0
        },
        {
            "pitch": 41,
            "start_beat": 1036.0,
            "duration_beat": 0.497916666666697,
            "velocity": 112,
            "track": 1
        },
        {
            "pitch": 48,
            "start_beat": 1036.5,
            "duration_beat": 0.497916666666697,
            "velocity": 112,
            "track": 1
        },
        {
            "pitch": 51,
            "start_beat": 1037.0,
            "duration_beat": 0.497916666666697,
            "velocity": 112,
            "track": 1
        },
        {
            "pitch": 58,
            "start_beat": 1037.5,
            "duration_beat": 0.497916666666697,
            "velocity": 112,
            "track": 1
        },
        {
            "pitch": 51,
            "start_beat": 1038.0,
            "duration_beat": 0.497916666666697,
            "velocity": 112,
            "track": 1
        },
        {
            "pitch": 48,
            "start_beat": 1038.5,
            "duration_beat": 0.47291666666660603,
            "velocity": 112,
            "track": 1
        },
        {
            "pitch": 77,
            "start_beat": 1039.0,
            "duration_beat": 1.997916666666697,
            "velocity": 112,
            "track": 0
        },
        {
            "pitch": 81,
            "start_beat": 1039.0,
            "duration_beat": 1.997916666666697,
            "velocity": 112,
            "track": 0
        },
        {
            "pitch": 86,
            "start_beat": 1039.0,
            "duration_beat": 1.997916666666697,
            "velocity": 112,
            "track": 0
        },
        {
            "pitch": 41,
            "start_beat": 1039.0,
            "duration_beat": 0.497916666666697,
            "velocity": 112,
            "track": 1
        },
        {
            "pitch": 48,
            "start_beat": 1039.5,
            "duration_beat": 0.497916666666697,
            "velocity": 112,
            "track": 1
        },
        {
            "pitch": 51,
            "start_beat": 1040.0,
            "duration_beat": 0.497916666666697,
            "velocity": 112,
            "track": 1
        },
        {
            "pitch": 57,
            "start_beat": 1040.5,
            "duration_beat": 0.497916666666697,
            "velocity": 112,
            "track": 1
        },
        {
            "pitch": 75,
            "start_beat": 1041.0,
            "duration_beat": 0.997916666666697,
            "velocity": 112,
            "track": 0
        },
        {
            "pitch": 81,
            "start_beat": 1041.0,
            "duration_beat": 0.997916666666697,
            "velocity": 112,
            "track": 0
        },
        {
            "pitch": 86,
            "start_beat": 1041.0,
            "duration_beat": 0.997916666666697,
            "velocity": 112,
            "track": 0
        },
        {
            "pitch": 51,
            "start_beat": 1041.0,
            "duration_beat": 0.497916666666697,
            "velocity": 112,
            "track": 1
        },
        {
            "pitch": 48,
            "start_beat": 1041.5,
            "duration_beat": 0.47291666666660603,
            "velocity": 112,
            "track": 1
        },
        {
            "pitch": 74,
            "start_beat": 1042.0,
            "duration_beat": 0.9479166666667425,
            "velocity": 112,
            "track": 0
        },
        {
            "pitch": 82,
            "start_beat": 1042.0,
            "duration_beat": 0.9479166666667425,
            "velocity": 112,
            "track": 0
        },
        {
            "pitch": 34,
            "start_beat": 1042.0,
            "duration_beat": 0.497916666666697,
            "velocity": 112,
            "track": 1
        },
        {
            "pitch": 46,
            "start_beat": 1042.5,
            "duration_beat": 0.497916666666697,
            "velocity": 112,
            "track": 1
        },
        {
            "pitch": 53,
            "start_beat": 1043.0,
            "duration_beat": 0.497916666666697,
            "velocity": 112,
            "track": 1
        },
        {
            "pitch": 58,
            "start_beat": 1043.5,
            "duration_beat": 0.497916666666697,
            "velocity": 112,
            "track": 1
        },
        {
            "pitch": 62,
            "start_beat": 1044.0,
            "duration_beat": 0.497916666666697,
            "velocity": 112,
            "track": 1
        },
        {
            "pitch": 65,
            "start_beat": 1044.5,
            "duration_beat": 0.497916666666697,
            "velocity": 112,
            "track": 1
        },
        {
            "pitch": 82,
            "start_beat": 1045.0,
            "duration_beat": 1.997916666666697,
            "velocity": 112,
            "track": 0
        },
        {
            "pitch": 94,
            "start_beat": 1045.0,
            "duration_beat": 1.997916666666697,
            "velocity": 112,
            "track": 0
        },
        {
            "pitch": 74,
            "start_beat": 1045.0,
            "duration_beat": 0.497916666666697,
            "velocity": 112,
            "track": 1
        },
        {
            "pitch": 70,
            "start_beat": 1045.5,
            "duration_beat": 0.497916666666697,
            "velocity": 112,
            "track": 1
        },
        {
            "pitch": 65,
            "start_beat": 1046.0,
            "duration_beat": 0.497916666666697,
            "velocity": 112,
            "track": 1
        },
        {
            "pitch": 62,
            "start_beat": 1046.5,
            "duration_beat": 0.497916666666697,
            "velocity": 112,
            "track": 1
        },
        {
            "pitch": 58,
            "start_beat": 1047.0,
            "duration_beat": 0.497916666666697,
            "velocity": 112,
            "track": 1
        },
        {
            "pitch": 82,
            "start_beat": 1047.5,
            "duration_beat": 0.497916666666697,
            "velocity": 112,
            "track": 0
        },
        {
            "pitch": 94,
            "start_beat": 1047.5,
            "duration_beat": 0.497916666666697,
            "velocity": 112,
            "track": 0
        },
        {
            "pitch": 53,
            "start_beat": 1047.5,
            "duration_beat": 0.47291666666660603,
            "velocity": 112,
            "track": 1
        },
        {
            "pitch": 82,
            "start_beat": 1048.0,
            "duration_beat": 1.997916666666697,
            "velocity": 112,
            "track": 0
        },
        {
            "pitch": 94,
            "start_beat": 1048.0,
            "duration_beat": 1.997916666666697,
            "velocity": 112,
            "track": 0
        },
        {
            "pitch": 46,
            "start_beat": 1048.0,
            "duration_beat": 0.497916666666697,
            "velocity": 112,
            "track": 1
        },
        {
            "pitch": 52,
            "start_beat": 1048.5,
            "duration_beat": 0.497916666666697,
            "velocity": 112,
            "track": 1
        },
        {
            "pitch": 55,
            "start_beat": 1049.0,
            "duration_beat": 0.497916666666697,
            "velocity": 112,
            "track": 1
        },
        {
            "pitch": 60,
            "start_beat": 1049.5,
            "duration_beat": 0.497916666666697,
            "velocity": 112,
            "track": 1
        },
        {
            "pitch": 55,
            "start_beat": 1050.0,
            "duration_beat": 0.497916666666697,
            "velocity": 112,
            "track": 1
        },
        {
            "pitch": 52,
            "start_beat": 1050.5,
            "duration_beat": 0.47291666666660603,
            "velocity": 112,
            "track": 1
        },
        {
            "pitch": 60,
            "start_beat": 1051.0,
            "duration_beat": 0.497916666666697,
            "velocity": 112,
            "track": 0
        },
        {
            "pitch": 72,
            "start_beat": 1051.0,
            "duration_beat": 1.997916666666697,
            "velocity": 112,
            "track": 0
        },
        {
            "pitch": 46,
            "start_beat": 1051.0,
            "duration_beat": 0.497916666666697,
            "velocity": 112,
            "track": 1
        },
        {
            "pitch": 52,
            "start_beat": 1051.5,
            "duration_beat": 0.497916666666697,
            "velocity": 112,
            "track": 1
        },
        {
            "pitch": 55,
            "start_beat": 1052.0,
            "duration_beat": 0.497916666666697,
            "velocity": 112,
            "track": 1
        },
        {
            "pitch": 60,
            "start_beat": 1052.5,
            "duration_beat": 0.497916666666697,
            "velocity": 112,
            "track": 1
        },
        {
            "pitch": 62,
            "start_beat": 1053.0,
            "duration_beat": 0.497916666666697,
            "velocity": 112,
            "track": 0
        },
        {
            "pitch": 74,
            "start_beat": 1053.0,
            "duration_beat": 0.997916666666697,
            "velocity": 112,
            "track": 0
        },
        {
            "pitch": 55,
            "start_beat": 1053.0,
            "duration_beat": 0.497916666666697,
            "velocity": 112,
            "track": 1
        },
        {
            "pitch": 52,
            "start_beat": 1053.5,
            "duration_beat": 0.47291666666660603,
            "velocity": 112,
            "track": 1
        },
        {
            "pitch": 75,
            "start_beat": 1054.0,
            "duration_beat": 0.12083333333339397,
            "velocity": 112,
            "track": 0
        },
        {
            "pitch": 63,
            "start_beat": 1054.0,
            "duration_beat": 0.372916666666697,
            "velocity": 112,
            "track": 0
        },
        {
            "pitch": 46,
            "start_beat": 1054.0,
            "duration_beat": 0.497916666666697,
            "velocity": 112,
            "track": 1
        },
        {
            "pitch": 77,
            "start_beat": 1054.1229166666667,
            "duration_beat": 0.12083333333339397,
            "velocity": 112,
            "track": 0
        },
        {
            "pitch": 75,
            "start_beat": 1054.2479166666667,
            "duration_beat": 0.12083333333339397,
            "velocity": 112,
            "track": 0
        },
        {
            "pitch": 77,
            "start_beat": 1054.375,
            "duration_beat": 0.12083333333339397,
            "velocity": 112,
            "track": 0
        },
        {
            "pitch": 75,
            "start_beat": 1054.4979166666667,
            "duration_beat": 0.12083333333339397,
            "velocity": 112,
            "track": 0
        },
        {
            "pitch": 53,
            "start_beat": 1054.5,
            "duration_beat": 0.497916666666697,
            "velocity": 112,
            "track": 1
        },
        {
            "pitch": 77,
            "start_beat": 1054.6229166666667,
            "duration_beat": 0.12083333333339397,
            "velocity": 112,
            "track": 0
        },
        {
            "pitch": 62,
            "start_beat": 1054.75,
            "duration_beat": 0.372916666666697,
            "velocity": 112,
            "track": 0
        },
        {
            "pitch": 74,
            "start_beat": 1054.75,
            "duration_beat": 0.747916666666697,
            "velocity": 112,
            "track": 0
        },
        {
            "pitch": 57,
            "start_beat": 1055.0,
            "duration_beat": 0.497916666666697,
            "velocity": 112,
            "track": 1
        },
        {
            "pitch": 63,
            "start_beat": 1055.5,
            "duration_beat": 0.372916666666697,
            "velocity": 112,
            "track": 0
        },
        {
            "pitch": 75,
            "start_beat": 1055.5,
            "duration_beat": 0.747916666666697,
            "velocity": 112,
            "track": 0
        },
        {
            "pitch": 60,
            "start_beat": 1055.5,
            "duration_beat": 0.497916666666697,
            "velocity": 112,
            "track": 1
        },
        {
            "pitch": 57,
            "start_beat": 1056.0,
            "duration_beat": 0.497916666666697,
            "velocity": 112,
            "track": 1
        },
        {
            "pitch": 67,
            "start_beat": 1056.25,
            "duration_beat": 0.372916666666697,
            "velocity": 112,
            "track": 0
        },
        {
            "pitch": 79,
            "start_beat": 1056.25,
            "duration_beat": 0.747916666666697,
            "velocity": 112,
            "track": 0
        },
        {
            "pitch": 53,
            "start_beat": 1056.5,
            "duration_beat": 0.47291666666660603,
            "velocity": 112,
            "track": 1
        },
        {
            "pitch": 67,
            "start_beat": 1057.0,
            "duration_beat": 0.372916666666697,
            "velocity": 112,
            "track": 0
        },
        {
            "pitch": 74,
            "start_beat": 1057.0,
            "duration_beat": 0.747916666666697,
            "velocity": 112,
            "track": 0
        },
        {
            "pitch": 79,
            "start_beat": 1057.0,
            "duration_beat": 0.747916666666697,
            "velocity": 112,
            "track": 0
        },
        {
            "pitch": 46,
            "start_beat": 1057.0,
            "duration_beat": 0.497916666666697,
            "velocity": 112,
            "track": 1
        },
        {
            "pitch": 53,
            "start_beat": 1057.5,
            "duration_beat": 0.497916666666697,
            "velocity": 112,
            "track": 1
        },
        {
            "pitch": 68,
            "start_beat": 1057.75,
            "duration_beat": 0.372916666666697,
            "velocity": 112,
            "track": 0
        },
        {
            "pitch": 79,
            "start_beat": 1057.75,
            "duration_beat": 1.252083333333303,
            "velocity": 127,
            "track": 0
        },
        {
            "pitch": 74,
            "start_beat": 1057.75,
            "duration_beat": 2.247916666666697,
            "velocity": 112,
            "track": 0
        },
        {
            "pitch": 56,
            "start_beat": 1058.0,
            "duration_beat": 0.497916666666697,
            "velocity": 112,
            "track": 1
        },
        {
            "pitch": 70,
            "start_beat": 1058.5,
            "duration_beat": 0.372916666666697,
            "velocity": 112,
            "track": 0
        },
        {
            "pitch": 62,
            "start_beat": 1058.5,
            "duration_beat": 0.497916666666697,
            "velocity": 112,
            "track": 1
        },
        {
            "pitch": 56,
            "start_beat": 1059.0,
            "duration_beat": 0.497916666666697,
            "velocity": 112,
            "track": 1
        },
        {
            "pitch": 68,
            "start_beat": 1059.25,
            "duration_beat": 0.372916666666697,
            "velocity": 112,
            "track": 0
        },
        {
            "pitch": 77,
            "start_beat": 1059.5,
            "duration_beat": 0.24791666666669698,
            "velocity": 112,
            "track": 0
        },
        {
            "pitch": 53,
            "start_beat": 1059.5,
            "duration_beat": 0.47291666666660603,
            "velocity": 112,
            "track": 1
        },
        {
            "pitch": 75,
            "start_beat": 1059.75,
            "duration_beat": 0.24791666666669698,
            "velocity": 112,
            "track": 0
        },
        {
            "pitch": 75,
            "start_beat": 1060.0,
            "duration_beat": 1.8979166666665606,
            "velocity": 112,
            "track": 0
        },
        {
            "pitch": 67,
            "start_beat": 1060.0,
            "duration_beat": 1.8979166666665606,
            "velocity": 112,
            "track": 0
        },
        {
            "pitch": 39,
            "start_beat": 1060.0,
            "duration_beat": 0.497916666666697,
            "velocity": 112,
            "track": 1
        },
        {
            "pitch": 46,
            "start_beat": 1060.5,
            "duration_beat": 0.497916666666697,
            "velocity": 112,
            "track": 1
        },
        {
            "pitch": 51,
            "start_beat": 1061.0,
            "duration_beat": 0.497916666666697,
            "velocity": 112,
            "track": 1
        },
        {
            "pitch": 55,
            "start_beat": 1061.5,
            "duration_beat": 0.497916666666697,
            "velocity": 112,
            "track": 1
        },
        {
            "pitch": 51,
            "start_beat": 1062.0,
            "duration_beat": 0.497916666666697,
            "velocity": 112,
            "track": 1
        },
        {
            "pitch": 46,
            "start_beat": 1062.5,
            "duration_beat": 0.497916666666697,
            "velocity": 112,
            "track": 1
        },
        {
            "pitch": 39,
            "start_beat": 1063.0,
            "duration_beat": 0.497916666666697,
            "velocity": 112,
            "track": 1
        },
        {
            "pitch": 46,
            "start_beat": 1063.5,
            "duration_beat": 0.497916666666697,
            "velocity": 112,
            "track": 1
        },
        {
            "pitch": 51,
            "start_beat": 1064.0,
            "duration_beat": 0.497916666666697,
            "velocity": 112,
            "track": 1
        },
        {
            "pitch": 67,
            "start_beat": 1064.3333333333333,
            "duration_beat": 0.3312500000001819,
            "velocity": 112,
            "track": 0
        },
        {
            "pitch": 58,
            "start_beat": 1064.5,
            "duration_beat": 0.497916666666697,
            "velocity": 112,
            "track": 1
        },
        {
            "pitch": 68,
            "start_beat": 1064.6666666666667,
            "duration_beat": 0.3312499999999545,
            "velocity": 112,
            "track": 0
        },
        {
            "pitch": 70,
            "start_beat": 1065.0,
            "duration_beat": 0.3312499999999545,
            "velocity": 112,
            "track": 0
        },
        {
            "pitch": 51,
            "start_beat": 1065.0,
            "duration_beat": 0.497916666666697,
            "velocity": 112,
            "track": 1
        },
        {
            "pitch": 74,
            "start_beat": 1065.3333333333333,
            "duration_beat": 0.3312500000001819,
            "velocity": 112,
            "track": 0
        },
        {
            "pitch": 46,
            "start_beat": 1065.5,
            "duration_beat": 0.497916666666697,
            "velocity": 112,
            "track": 1
        },
        {
            "pitch": 72,
            "start_beat": 1065.6666666666667,
            "duration_beat": 0.3312499999999545,
            "velocity": 112,
            "track": 0
        },
        {
            "pitch": 70,
            "start_beat": 1066.0,
            "duration_beat": 2.847916666666606,
            "velocity": 112,
            "track": 0
        },
        {
            "pitch": 39,
            "start_beat": 1066.0,
            "duration_beat": 0.497916666666697,
            "velocity": 112,
            "track": 1
        },
        {
            "pitch": 46,
            "start_beat": 1066.5,
            "duration_beat": 0.497916666666697,
            "velocity": 112,
            "track": 1
        },
        {
            "pitch": 51,
            "start_beat": 1067.0,
            "duration_beat": 0.497916666666697,
            "velocity": 112,
            "track": 1
        },
        {
            "pitch": 55,
            "start_beat": 1067.5,
            "duration_beat": 0.497916666666697,
            "velocity": 112,
            "track": 1
        },
        {
            "pitch": 51,
            "start_beat": 1068.0,
            "duration_beat": 0.497916666666697,
            "velocity": 112,
            "track": 1
        },
        {
            "pitch": 46,
            "start_beat": 1068.5,
            "duration_beat": 0.497916666666697,
            "velocity": 112,
            "track": 1
        },
        {
            "pitch": 39,
            "start_beat": 1069.0,
            "duration_beat": 0.497916666666697,
            "velocity": 112,
            "track": 1
        },
        {
            "pitch": 46,
            "start_beat": 1069.5,
            "duration_beat": 0.497916666666697,
            "velocity": 112,
            "track": 1
        },
        {
            "pitch": 51,
            "start_beat": 1070.0,
            "duration_beat": 0.497916666666697,
            "velocity": 112,
            "track": 1
        },
        {
            "pitch": 67,
            "start_beat": 1070.3333333333333,
            "duration_beat": 0.3312500000001819,
            "velocity": 112,
            "track": 0
        },
        {
            "pitch": 58,
            "start_beat": 1070.5,
            "duration_beat": 0.497916666666697,
            "velocity": 112,
            "track": 1
        },
        {
            "pitch": 68,
            "start_beat": 1070.6666666666667,
            "duration_beat": 0.3312499999999545,
            "velocity": 112,
            "track": 0
        },
        {
            "pitch": 70,
            "start_beat": 1071.0,
            "duration_beat": 0.3312499999999545,
            "velocity": 112,
            "track": 0
        },
        {
            "pitch": 51,
            "start_beat": 1071.0,
            "duration_beat": 0.497916666666697,
            "velocity": 112,
            "track": 1
        },
        {
            "pitch": 74,
            "start_beat": 1071.3333333333333,
            "duration_beat": 0.3312500000001819,
            "velocity": 112,
            "track": 0
        },
        {
            "pitch": 46,
            "start_beat": 1071.5,
            "duration_beat": 0.47291666666660603,
            "velocity": 112,
            "track": 1
        },
        {
            "pitch": 72,
            "start_beat": 1071.6666666666667,
            "duration_beat": 0.3312499999999545,
            "velocity": 112,
            "track": 0
        },
        {
            "pitch": 70,
            "start_beat": 1072.0,
            "duration_beat": 2.847916666666606,
            "velocity": 112,
            "track": 0
        },
        {
            "pitch": 39,
            "start_beat": 1072.0,
            "duration_beat": 0.497916666666697,
            "velocity": 112,
            "track": 1
        },
        {
            "pitch": 46,
            "start_beat": 1072.5,
            "duration_beat": 0.497916666666697,
            "velocity": 112,
            "track": 1
        },
        {
            "pitch": 50,
            "start_beat": 1073.0,
            "duration_beat": 0.497916666666697,
            "velocity": 112,
            "track": 1
        },
        {
            "pitch": 56,
            "start_beat": 1073.5,
            "duration_beat": 0.497916666666697,
            "velocity": 112,
            "track": 1
        },
        {
            "pitch": 50,
            "start_beat": 1074.0,
            "duration_beat": 0.497916666666697,
            "velocity": 112,
            "track": 1
        },
        {
            "pitch": 46,
            "start_beat": 1074.5,
            "duration_beat": 0.497916666666697,
            "velocity": 112,
            "track": 1
        },
        {
            "pitch": 39,
            "start_beat": 1075.0,
            "duration_beat": 0.497916666666697,
            "velocity": 112,
            "track": 1
        },
        {
            "pitch": 46,
            "start_beat": 1075.5,
            "duration_beat": 0.497916666666697,
            "velocity": 112,
            "track": 1
        },
        {
            "pitch": 50,
            "start_beat": 1076.0,
            "duration_beat": 0.497916666666697,
            "velocity": 112,
            "track": 1
        },
        {
            "pitch": 65,
            "start_beat": 1076.3333333333333,
            "duration_beat": 0.3312500000001819,
            "velocity": 112,
            "track": 0
        },
        {
            "pitch": 58,
            "start_beat": 1076.5,
            "duration_beat": 0.497916666666697,
            "velocity": 112,
            "track": 1
        },
        {
            "pitch": 68,
            "start_beat": 1076.6666666666667,
            "duration_beat": 0.3312499999999545,
            "velocity": 112,
            "track": 0
        },
        {
            "pitch": 70,
            "start_beat": 1077.0,
            "duration_beat": 0.3312499999999545,
            "velocity": 112,
            "track": 0
        },
        {
            "pitch": 50,
            "start_beat": 1077.0,
            "duration_beat": 0.497916666666697,
            "velocity": 112,
            "track": 1
        },
        {
            "pitch": 74,
            "start_beat": 1077.3333333333333,
            "duration_beat": 0.3312500000001819,
            "velocity": 112,
            "track": 0
        },
        {
            "pitch": 46,
            "start_beat": 1077.5,
            "duration_beat": 0.497916666666697,
            "velocity": 112,
            "track": 1
        },
        {
            "pitch": 72,
            "start_beat": 1077.6666666666667,
            "duration_beat": 0.3312499999999545,
            "velocity": 112,
            "track": 0
        },
        {
            "pitch": 70,
            "start_beat": 1078.0,
            "duration_beat": 0.9479166666667425,
            "velocity": 112,
            "track": 0
        },
        {
            "pitch": 39,
            "start_beat": 1078.0,
            "duration_beat": 0.497916666666697,
            "velocity": 112,
            "track": 1
        },
        {
            "pitch": 46,
            "start_beat": 1078.5,
            "duration_beat": 0.497916666666697,
            "velocity": 112,
            "track": 1
        },
        {
            "pitch": 51,
            "start_beat": 1079.0,
            "duration_beat": 0.497916666666697,
            "velocity": 112,
            "track": 1
        },
        {
            "pitch": 62,
            "start_beat": 1079.3333333333333,
            "duration_beat": 0.6645833333334394,
            "velocity": 112,
            "track": 0
        },
        {
            "pitch": 55,
            "start_beat": 1079.5,
            "duration_beat": 0.497916666666697,
            "velocity": 112,
            "track": 1
        },
        {
            "pitch": 63,
            "start_beat": 1079.6666666666667,
            "duration_beat": 0.3312499999999545,
            "velocity": 112,
            "track": 0
        },
        {
            "pitch": 67,
            "start_beat": 1080.0,
            "duration_beat": 0.3312499999999545,
            "velocity": 112,
            "track": 0
        },
        {
            "pitch": 51,
            "start_beat": 1080.0,
            "duration_beat": 0.497916666666697,
            "velocity": 112,
            "track": 1
        },
        {
            "pitch": 72,
            "start_beat": 1080.3333333333333,
            "duration_beat": 0.3312500000001819,
            "velocity": 112,
            "track": 0
        },
        {
            "pitch": 46,
            "start_beat": 1080.5,
            "duration_beat": 0.47291666666660603,
            "velocity": 112,
            "track": 1
        },
        {
            "pitch": 70,
            "start_beat": 1080.6666666666667,
            "duration_beat": 0.3312499999999545,
            "velocity": 112,
            "track": 0
        },
        {
            "pitch": 68,
            "start_beat": 1081.0,
            "duration_beat": 1.497916666666697,
            "velocity": 112,
            "track": 0
        },
        {
            "pitch": 39,
            "start_beat": 1081.0,
            "duration_beat": 0.497916666666697,
            "velocity": 112,
            "track": 1
        },
        {
            "pitch": 47,
            "start_beat": 1081.5,
            "duration_beat": 0.497916666666697,
            "velocity": 112,
            "track": 1
        },
        {
            "pitch": 51,
            "start_beat": 1082.0,
            "duration_beat": 0.497916666666697,
            "velocity": 112,
            "track": 1
        },
        {
            "pitch": 59,
            "start_beat": 1082.5,
            "duration_beat": 0.997916666666697,
            "velocity": 112,
            "track": 0
        },
        {
            "pitch": 56,
            "start_beat": 1082.5,
            "duration_beat": 0.497916666666697,
            "velocity": 112,
            "track": 1
        },
        {
            "pitch": 63,
            "start_beat": 1083.0,
            "duration_beat": 0.497916666666697,
            "velocity": 112,
            "track": 0
        },
        {
            "pitch": 51,
            "start_beat": 1083.0,
            "duration_beat": 0.497916666666697,
            "velocity": 112,
            "track": 1
        },
        {
            "pitch": 65,
            "start_beat": 1083.5,
            "duration_beat": 0.497916666666697,
            "velocity": 112,
            "track": 0
        },
        {
            "pitch": 47,
            "start_beat": 1083.5,
            "duration_beat": 0.47291666666660603,
            "velocity": 112,
            "track": 1
        },
        {
            "pitch": 67,
            "start_beat": 1084.0,
            "duration_beat": 0.9479166666667425,
            "velocity": 112,
            "track": 0
        },
        {
            "pitch": 39,
            "start_beat": 1084.0,
            "duration_beat": 0.497916666666697,
            "velocity": 112,
            "track": 1
        },
        {
            "pitch": 46,
            "start_beat": 1084.5,
            "duration_beat": 0.497916666666697,
            "velocity": 112,
            "track": 1
        },
        {
            "pitch": 51,
            "start_beat": 1085.0,
            "duration_beat": 0.497916666666697,
            "velocity": 112,
            "track": 1
        },
        {
            "pitch": 55,
            "start_beat": 1085.5,
            "duration_beat": 0.497916666666697,
            "velocity": 112,
            "track": 1
        },
        {
            "pitch": 51,
            "start_beat": 1086.0,
            "duration_beat": 0.497916666666697,
            "velocity": 96,
            "track": 1
        },
        {
            "pitch": 46,
            "start_beat": 1086.5,
            "duration_beat": 0.497916666666697,
            "velocity": 96,
            "track": 1
        },
        {
            "pitch": 39,
            "start_beat": 1087.0,
            "duration_beat": 0.497916666666697,
            "velocity": 96,
            "track": 1
        },
        {
            "pitch": 46,
            "start_beat": 1087.5,
            "duration_beat": 0.497916666666697,
            "velocity": 96,
            "track": 1
        },
        {
            "pitch": 51,
            "start_beat": 1088.0,
            "duration_beat": 0.497916666666697,
            "velocity": 96,
            "track": 1
        },
        {
            "pitch": 67,
            "start_beat": 1088.3333333333333,
            "duration_beat": 0.3312500000001819,
            "velocity": 96,
            "track": 0
        },
        {
            "pitch": 58,
            "start_beat": 1088.5,
            "duration_beat": 0.497916666666697,
            "velocity": 96,
            "track": 1
        },
        {
            "pitch": 68,
            "start_beat": 1088.6666666666667,
            "duration_beat": 0.3312499999999545,
            "velocity": 96,
            "track": 0
        },
        {
            "pitch": 70,
            "start_beat": 1089.0,
            "duration_beat": 0.3312499999999545,
            "velocity": 96,
            "track": 0
        },
        {
            "pitch": 51,
            "start_beat": 1089.0,
            "duration_beat": 0.497916666666697,
            "velocity": 96,
            "track": 1
        },
        {
            "pitch": 74,
            "start_beat": 1089.3333333333333,
            "duration_beat": 0.3312500000001819,
            "velocity": 96,
            "track": 0
        },
        {
            "pitch": 46,
            "start_beat": 1089.5,
            "duration_beat": 0.497916666666697,
            "velocity": 96,
            "track": 1
        },
        {
            "pitch": 72,
            "start_beat": 1089.6666666666667,
            "duration_beat": 0.3312499999999545,
            "velocity": 96,
            "track": 0
        },
        {
            "pitch": 70,
            "start_beat": 1090.0,
            "duration_beat": 0.24791666666669698,
            "velocity": 96,
            "track": 0
        },
        {
            "pitch": 39,
            "start_beat": 1090.0,
            "duration_beat": 0.497916666666697,
            "velocity": 96,
            "track": 1
        },
        {
            "pitch": 82,
            "start_beat": 1090.5,
            "duration_beat": 0.24791666666669698,
            "velocity": 96,
            "track": 0
        },
        {
            "pitch": 46,
            "start_beat": 1090.5,
            "duration_beat": 0.497916666666697,
            "velocity": 96,
            "track": 1
        },
        {
            "pitch": 94,
            "start_beat": 1091.0,
            "duration_beat": 0.497916666666697,
            "velocity": 96,
            "track": 0
        },
        {
            "pitch": 51,
            "start_beat": 1091.0,
            "duration_beat": 0.497916666666697,
            "velocity": 96,
            "track": 1
        },
        {
            "pitch": 55,
            "start_beat": 1091.5,
            "duration_beat": 0.497916666666697,
            "velocity": 96,
            "track": 1
        },
        {
            "pitch": 51,
            "start_beat": 1092.0,
            "duration_beat": 0.497916666666697,
            "velocity": 96,
            "track": 1
        },
        {
            "pitch": 46,
            "start_beat": 1092.5,
            "duration_beat": 0.497916666666697,
            "velocity": 96,
            "track": 1
        },
        {
            "pitch": 39,
            "start_beat": 1093.0,
            "duration_beat": 0.497916666666697,
            "velocity": 96,
            "track": 1
        },
        {
            "pitch": 46,
            "start_beat": 1093.5,
            "duration_beat": 0.497916666666697,
            "velocity": 96,
            "track": 1
        },
        {
            "pitch": 51,
            "start_beat": 1094.0,
            "duration_beat": 0.497916666666697,
            "velocity": 96,
            "track": 1
        },
        {
            "pitch": 67,
            "start_beat": 1094.3333333333333,
            "duration_beat": 0.3312500000001819,
            "velocity": 96,
            "track": 0
        },
        {
            "pitch": 58,
            "start_beat": 1094.5,
            "duration_beat": 0.497916666666697,
            "velocity": 96,
            "track": 1
        },
        {
            "pitch": 68,
            "start_beat": 1094.6666666666667,
            "duration_beat": 0.3312499999999545,
            "velocity": 96,
            "track": 0
        },
        {
            "pitch": 70,
            "start_beat": 1095.0,
            "duration_beat": 0.3312499999999545,
            "velocity": 96,
            "track": 0
        },
        {
            "pitch": 51,
            "start_beat": 1095.0,
            "duration_beat": 0.497916666666697,
            "velocity": 96,
            "track": 1
        },
        {
            "pitch": 74,
            "start_beat": 1095.3333333333333,
            "duration_beat": 0.3312500000001819,
            "velocity": 96,
            "track": 0
        },
        {
            "pitch": 46,
            "start_beat": 1095.5,
            "duration_beat": 0.47291666666660603,
            "velocity": 96,
            "track": 1
        },
        {
            "pitch": 72,
            "start_beat": 1095.6666666666667,
            "duration_beat": 0.3312499999999545,
            "velocity": 96,
            "track": 0
        },
        {
            "pitch": 70,
            "start_beat": 1096.0,
            "duration_beat": 0.24791666666669698,
            "velocity": 96,
            "track": 0
        },
        {
            "pitch": 39,
            "start_beat": 1096.0,
            "duration_beat": 0.497916666666697,
            "velocity": 96,
            "track": 1
        },
        {
            "pitch": 82,
            "start_beat": 1096.5,
            "duration_beat": 0.24791666666669698,
            "velocity": 96,
            "track": 0
        },
        {
            "pitch": 46,
            "start_beat": 1096.5,
            "duration_beat": 0.497916666666697,
            "velocity": 96,
            "track": 1
        },
        {
            "pitch": 94,
            "start_beat": 1097.0,
            "duration_beat": 0.497916666666697,
            "velocity": 96,
            "track": 0
        },
        {
            "pitch": 50,
            "start_beat": 1097.0,
            "duration_beat": 0.497916666666697,
            "velocity": 96,
            "track": 1
        },
        {
            "pitch": 56,
            "start_beat": 1097.5,
            "duration_beat": 0.497916666666697,
            "velocity": 96,
            "track": 1
        },
        {
            "pitch": 50,
            "start_beat": 1098.0,
            "duration_beat": 0.497916666666697,
            "velocity": 96,
            "track": 1
        },
        {
            "pitch": 46,
            "start_beat": 1098.5,
            "duration_beat": 0.497916666666697,
            "velocity": 96,
            "track": 1
        },
        {
            "pitch": 39,
            "start_beat": 1099.0,
            "duration_beat": 0.497916666666697,
            "velocity": 96,
            "track": 1
        },
        {
            "pitch": 46,
            "start_beat": 1099.5,
            "duration_beat": 0.497916666666697,
            "velocity": 96,
            "track": 1
        },
        {
            "pitch": 50,
            "start_beat": 1100.0,
            "duration_beat": 0.497916666666697,
            "velocity": 96,
            "track": 1
        },
        {
            "pitch": 65,
            "start_beat": 1100.3333333333333,
            "duration_beat": 0.3312500000001819,
            "velocity": 96,
            "track": 0
        },
        {
            "pitch": 58,
            "start_beat": 1100.5,
            "duration_beat": 0.497916666666697,
            "velocity": 96,
            "track": 1
        },
        {
            "pitch": 68,
            "start_beat": 1100.6666666666667,
            "duration_beat": 0.3312499999999545,
            "velocity": 96,
            "track": 0
        },
        {
            "pitch": 70,
            "start_beat": 1101.0,
            "duration_beat": 0.3312499999999545,
            "velocity": 96,
            "track": 0
        },
        {
            "pitch": 50,
            "start_beat": 1101.0,
            "duration_beat": 0.497916666666697,
            "velocity": 96,
            "track": 1
        },
        {
            "pitch": 74,
            "start_beat": 1101.3333333333333,
            "duration_beat": 0.3312500000001819,
            "velocity": 96,
            "track": 0
        },
        {
            "pitch": 46,
            "start_beat": 1101.5,
            "duration_beat": 0.497916666666697,
            "velocity": 96,
            "track": 1
        },
        {
            "pitch": 72,
            "start_beat": 1101.6666666666667,
            "duration_beat": 0.3312499999999545,
            "velocity": 96,
            "track": 0
        },
        {
            "pitch": 70,
            "start_beat": 1102.0,
            "duration_beat": 0.9479166666667425,
            "velocity": 96,
            "track": 0
        },
        {
            "pitch": 39,
            "start_beat": 1102.0,
            "duration_beat": 0.497916666666697,
            "velocity": 96,
            "track": 1
        },
        {
            "pitch": 46,
            "start_beat": 1102.5,
            "duration_beat": 0.497916666666697,
            "velocity": 96,
            "track": 1
        },
        {
            "pitch": 51,
            "start_beat": 1103.0,
            "duration_beat": 0.497916666666697,
            "velocity": 96,
            "track": 1
        },
        {
            "pitch": 62,
            "start_beat": 1103.3333333333333,
            "duration_beat": 0.6645833333334394,
            "velocity": 96,
            "track": 0
        },
        {
            "pitch": 55,
            "start_beat": 1103.5,
            "duration_beat": 0.497916666666697,
            "velocity": 96,
            "track": 1
        },
        {
            "pitch": 63,
            "start_beat": 1103.6666666666667,
            "duration_beat": 0.3312499999999545,
            "velocity": 96,
            "track": 0
        },
        {
            "pitch": 67,
            "start_beat": 1104.0,
            "duration_beat": 0.3312499999999545,
            "velocity": 96,
            "track": 0
        },
        {
            "pitch": 51,
            "start_beat": 1104.0,
            "duration_beat": 0.497916666666697,
            "velocity": 96,
            "track": 1
        },
        {
            "pitch": 72,
            "start_beat": 1104.3333333333333,
            "duration_beat": 0.3312500000001819,
            "velocity": 96,
            "track": 0
        },
        {
            "pitch": 46,
            "start_beat": 1104.5,
            "duration_beat": 0.47291666666660603,
            "velocity": 96,
            "track": 1
        },
        {
            "pitch": 70,
            "start_beat": 1104.6666666666667,
            "duration_beat": 0.3312499999999545,
            "velocity": 96,
            "track": 0
        },
        {
            "pitch": 68,
            "start_beat": 1105.0,
            "duration_beat": 1.497916666666697,
            "velocity": 96,
            "track": 0
        },
        {
            "pitch": 39,
            "start_beat": 1105.0,
            "duration_beat": 0.497916666666697,
            "velocity": 96,
            "track": 1
        },
        {
            "pitch": 47,
            "start_beat": 1105.5,
            "duration_beat": 0.497916666666697,
            "velocity": 96,
            "track": 1
        },
        {
            "pitch": 51,
            "start_beat": 1106.0,
            "duration_beat": 0.497916666666697,
            "velocity": 96,
            "track": 1
        },
        {
            "pitch": 59,
            "start_beat": 1106.5,
            "duration_beat": 0.997916666666697,
            "velocity": 96,
            "track": 0
        },
        {
            "pitch": 56,
            "start_beat": 1106.5,
            "duration_beat": 0.497916666666697,
            "velocity": 96,
            "track": 1
        },
        {
            "pitch": 63,
            "start_beat": 1107.0,
            "duration_beat": 0.497916666666697,
            "velocity": 96,
            "track": 0
        },
        {
            "pitch": 51,
            "start_beat": 1107.0,
            "duration_beat": 0.497916666666697,
            "velocity": 96,
            "track": 1
        },
        {
            "pitch": 65,
            "start_beat": 1107.5,
            "duration_beat": 0.497916666666697,
            "velocity": 96,
            "track": 0
        },
        {
            "pitch": 47,
            "start_beat": 1107.5,
            "duration_beat": 0.47291666666660603,
            "velocity": 96,
            "track": 1
        },
        {
            "pitch": 67,
            "start_beat": 1108.0,
            "duration_beat": 3.3229166666667425,
            "velocity": 96,
            "track": 0
        },
        {
            "pitch": 39,
            "start_beat": 1108.0,
            "duration_beat": 0.497916666666697,
            "velocity": 96,
            "track": 1
        },
        {
            "pitch": 46,
            "start_beat": 1108.5,
            "duration_beat": 0.497916666666697,
            "velocity": 96,
            "track": 1
        },
        {
            "pitch": 51,
            "start_beat": 1109.0,
            "duration_beat": 0.497916666666697,
            "velocity": 96,
            "track": 1
        },
        {
            "pitch": 55,
            "start_beat": 1109.5,
            "duration_beat": 0.497916666666697,
            "velocity": 96,
            "track": 1
        },
        {
            "pitch": 51,
            "start_beat": 1110.0,
            "duration_beat": 0.497916666666697,
            "velocity": 96,
            "track": 1
        },
        {
            "pitch": 46,
            "start_beat": 1110.5,
            "duration_beat": 0.497916666666697,
            "velocity": 96,
            "track": 1
        },
        {
            "pitch": 39,
            "start_beat": 1111.0,
            "duration_beat": 0.497916666666697,
            "velocity": 96,
            "track": 1
        },
        {
            "pitch": 67,
            "start_beat": 1111.5,
            "duration_beat": 0.497916666666697,
            "velocity": 96,
            "track": 0
        },
        {
            "pitch": 46,
            "start_beat": 1111.5,
            "duration_beat": 0.497916666666697,
            "velocity": 96,
            "track": 1
        },
        {
            "pitch": 70,
            "start_beat": 1112.0,
            "duration_beat": 0.497916666666697,
            "velocity": 96,
            "track": 0
        },
        {
            "pitch": 51,
            "start_beat": 1112.0,
            "duration_beat": 0.497916666666697,
            "velocity": 96,
            "track": 1
        },
        {
            "pitch": 79,
            "start_beat": 1112.5,
            "duration_beat": 0.497916666666697,
            "velocity": 96,
            "track": 0
        },
        {
            "pitch": 58,
            "start_beat": 1112.5,
            "duration_beat": 0.497916666666697,
            "velocity": 96,
            "track": 1
        },
        {
            "pitch": 77,
            "start_beat": 1113.0,
            "duration_beat": 0.497916666666697,
            "velocity": 96,
            "track": 0
        },
        {
            "pitch": 51,
            "start_beat": 1113.0,
            "duration_beat": 0.497916666666697,
            "velocity": 96,
            "track": 1
        },
        {
            "pitch": 75,
            "start_beat": 1113.5,
            "duration_beat": 0.497916666666697,
            "velocity": 96,
            "track": 0
        },
        {
            "pitch": 46,
            "start_beat": 1113.5,
            "duration_beat": 0.497916666666697,
            "velocity": 96,
            "track": 1
        },
        {
            "pitch": 70,
            "start_beat": 1114.0,
            "duration_beat": 3.497916666666697,
            "velocity": 96,
            "track": 0
        },
        {
            "pitch": 39,
            "start_beat": 1114.0,
            "duration_beat": 0.497916666666697,
            "velocity": 96,
            "track": 1
        },
        {
            "pitch": 46,
            "start_beat": 1114.5,
            "duration_beat": 0.497916666666697,
            "velocity": 96,
            "track": 1
        },
        {
            "pitch": 51,
            "start_beat": 1115.0,
            "duration_beat": 0.497916666666697,
            "velocity": 96,
            "track": 1
        },
        {
            "pitch": 55,
            "start_beat": 1115.5,
            "duration_beat": 0.497916666666697,
            "velocity": 96,
            "track": 1
        },
        {
            "pitch": 51,
            "start_beat": 1116.0,
            "duration_beat": 0.497916666666697,
            "velocity": 96,
            "track": 1
        },
        {
            "pitch": 46,
            "start_beat": 1116.5,
            "duration_beat": 0.497916666666697,
            "velocity": 96,
            "track": 1
        },
        {
            "pitch": 39,
            "start_beat": 1117.0,
            "duration_beat": 0.497916666666697,
            "velocity": 96,
            "track": 1
        },
        {
            "pitch": 67,
            "start_beat": 1117.5,
            "duration_beat": 0.497916666666697,
            "velocity": 96,
            "track": 0
        },
        {
            "pitch": 46,
            "start_beat": 1117.5,
            "duration_beat": 0.497916666666697,
            "velocity": 96,
            "track": 1
        },
        {
            "pitch": 70,
            "start_beat": 1118.0,
            "duration_beat": 0.497916666666697,
            "velocity": 96,
            "track": 0
        },
        {
            "pitch": 51,
            "start_beat": 1118.0,
            "duration_beat": 0.497916666666697,
            "velocity": 96,
            "track": 1
        },
        {
            "pitch": 79,
            "start_beat": 1118.5,
            "duration_beat": 0.497916666666697,
            "velocity": 96,
            "track": 0
        },
        {
            "pitch": 58,
            "start_beat": 1118.5,
            "duration_beat": 0.497916666666697,
            "velocity": 96,
            "track": 1
        },
        {
            "pitch": 77,
            "start_beat": 1119.0,
            "duration_beat": 0.497916666666697,
            "velocity": 96,
            "track": 0
        },
        {
            "pitch": 51,
            "start_beat": 1119.0,
            "duration_beat": 0.497916666666697,
            "velocity": 96,
            "track": 1
        },
        {
            "pitch": 75,
            "start_beat": 1119.5,
            "duration_beat": 0.497916666666697,
            "velocity": 96,
            "track": 0
        },
        {
            "pitch": 46,
            "start_beat": 1119.5,
            "duration_beat": 0.47291666666660603,
            "velocity": 96,
            "track": 1
        },
        {
            "pitch": 74,
            "start_beat": 1120.0,
            "duration_beat": 3.497916666666697,
            "velocity": 96,
            "track": 0
        },
        {
            "pitch": 43,
            "start_beat": 1120.0,
            "duration_beat": 0.497916666666697,
            "velocity": 96,
            "track": 1
        },
        {
            "pitch": 50,
            "start_beat": 1120.5,
            "duration_beat": 0.497916666666697,
            "velocity": 96,
            "track": 1
        },
        {
            "pitch": 55,
            "start_beat": 1121.0,
            "duration_beat": 0.497916666666697,
            "velocity": 96,
            "track": 1
        },
        {
            "pitch": 58,
            "start_beat": 1121.5,
            "duration_beat": 0.497916666666697,
            "velocity": 96,
            "track": 1
        },
        {
            "pitch": 62,
            "start_beat": 1122.0,
            "duration_beat": 0.497916666666697,
            "velocity": 96,
            "track": 1
        },
        {
            "pitch": 58,
            "start_beat": 1122.5,
            "duration_beat": 0.497916666666697,
            "velocity": 96,
            "track": 1
        },
        {
            "pitch": 67,
            "start_beat": 1123.0,
            "duration_beat": 0.497916666666697,
            "velocity": 96,
            "track": 1
        },
        {
            "pitch": 70,
            "start_beat": 1123.5,
            "duration_beat": 0.497916666666697,
            "velocity": 96,
            "track": 0
        },
        {
            "pitch": 62,
            "start_beat": 1123.5,
            "duration_beat": 0.497916666666697,
            "velocity": 96,
            "track": 1
        },
        {
            "pitch": 74,
            "start_beat": 1124.0,
            "duration_beat": 0.497916666666697,
            "velocity": 96,
            "track": 0
        },
        {
            "pitch": 58,
            "start_beat": 1124.0,
            "duration_beat": 0.497916666666697,
            "velocity": 96,
            "track": 1
        },
        {
            "pitch": 82,
            "start_beat": 1124.5,
            "duration_beat": 0.497916666666697,
            "velocity": 96,
            "track": 0
        },
        {
            "pitch": 55,
            "start_beat": 1124.5,
            "duration_beat": 0.497916666666697,
            "velocity": 96,
            "track": 1
        },
        {
            "pitch": 81,
            "start_beat": 1125.0,
            "duration_beat": 0.497916666666697,
            "velocity": 96,
            "track": 0
        },
        {
            "pitch": 50,
            "start_beat": 1125.0,
            "duration_beat": 0.497916666666697,
            "velocity": 96,
            "track": 1
        },
        {
            "pitch": 79,
            "start_beat": 1125.5,
            "duration_beat": 0.497916666666697,
            "velocity": 96,
            "track": 0
        },
        {
            "pitch": 43,
            "start_beat": 1125.5,
            "duration_beat": 0.497916666666697,
            "velocity": 96,
            "track": 1
        },
        {
            "pitch": 74,
            "start_beat": 1126.0,
            "duration_beat": 3.497916666666697,
            "velocity": 96,
            "track": 0
        },
        {
            "pitch": 31,
            "start_beat": 1126.0,
            "duration_beat": 0.47291666666660603,
            "velocity": 96,
            "track": 1
        },
        {
            "pitch": 43,
            "start_beat": 1126.5,
            "duration_beat": 0.497916666666697,
            "velocity": 96,
            "track": 1
        },
        {
            "pitch": 50,
            "start_beat": 1127.0,
            "duration_beat": 0.497916666666697,
            "velocity": 96,
            "track": 1
        },
        {
            "pitch": 55,
            "start_beat": 1127.5,
            "duration_beat": 0.497916666666697,
            "velocity": 96,
            "track": 1
        },
        {
            "pitch": 58,
            "start_beat": 1128.0,
            "duration_beat": 0.497916666666697,
            "velocity": 96,
            "track": 1
        },
        {
            "pitch": 62,
            "start_beat": 1128.5,
            "duration_beat": 0.497916666666697,
            "velocity": 96,
            "track": 1
        },
        {
            "pitch": 70,
            "start_beat": 1129.0,
            "duration_beat": 0.497916666666697,
            "velocity": 96,
            "track": 1
        },
        {
            "pitch": 70,
            "start_beat": 1129.5,
            "duration_beat": 0.497916666666697,
            "velocity": 96,
            "track": 0
        },
        {
            "pitch": 67,
            "start_beat": 1129.5,
            "duration_beat": 0.497916666666697,
            "velocity": 96,
            "track": 1
        },
        {
            "pitch": 74,
            "start_beat": 1130.0,
            "duration_beat": 0.497916666666697,
            "velocity": 96,
            "track": 0
        },
        {
            "pitch": 62,
            "start_beat": 1130.0,
            "duration_beat": 0.497916666666697,
            "velocity": 96,
            "track": 1
        },
        {
            "pitch": 82,
            "start_beat": 1130.5,
            "duration_beat": 0.497916666666697,
            "velocity": 96,
            "track": 0
        },
        {
            "pitch": 58,
            "start_beat": 1130.5,
            "duration_beat": 0.497916666666697,
            "velocity": 96,
            "track": 1
        },
        {
            "pitch": 81,
            "start_beat": 1131.0,
            "duration_beat": 0.497916666666697,
            "velocity": 96,
            "track": 0
        },
        {
            "pitch": 55,
            "start_beat": 1131.0,
            "duration_beat": 0.497916666666697,
            "velocity": 96,
            "track": 1
        },
        {
            "pitch": 79,
            "start_beat": 1131.5,
            "duration_beat": 0.497916666666697,
            "velocity": 96,
            "track": 0
        },
        {
            "pitch": 50,
            "start_beat": 1131.5,
            "duration_beat": 0.497916666666697,
            "velocity": 96,
            "track": 1
        },
        {
            "pitch": 74,
            "start_beat": 1132.0,
            "duration_beat": 0.497916666666697,
            "velocity": 96,
            "track": 0
        },
        {
            "pitch": 43,
            "start_beat": 1132.0,
            "duration_beat": 0.497916666666697,
            "velocity": 96,
            "track": 1
        },
        {
            "pitch": 70,
            "start_beat": 1132.5,
            "duration_beat": 0.497916666666697,
            "velocity": 94,
            "track": 0
        },
        {
            "pitch": 50,
            "start_beat": 1132.5,
            "duration_beat": 0.497916666666697,
            "velocity": 94,
            "track": 1
        },
        {
            "pitch": 74,
            "start_beat": 1133.0,
            "duration_beat": 0.497916666666697,
            "velocity": 91,
            "track": 0
        },
        {
            "pitch": 62,
            "start_beat": 1133.0,
            "duration_beat": 0.9479166666667425,
            "velocity": 91,
            "track": 1
        },
        {
            "pitch": 82,
            "start_beat": 1133.5,
            "duration_beat": 0.497916666666697,
            "velocity": 89,
            "track": 0
        },
        {
            "pitch": 81,
            "start_beat": 1134.0,
            "duration_beat": 0.497916666666697,
            "velocity": 86,
            "track": 0
        },
        {
            "pitch": 79,
            "start_beat": 1134.5,
            "duration_beat": 0.497916666666697,
            "velocity": 83,
            "track": 0
        },
        {
            "pitch": 74,
            "start_beat": 1135.0,
            "duration_beat": 0.497916666666697,
            "velocity": 81,
            "track": 0
        },
        {
            "pitch": 70,
            "start_beat": 1135.5,
            "duration_beat": 0.497916666666697,
            "velocity": 78,
            "track": 0
        },
        {
            "pitch": 74,
            "start_beat": 1136.0,
            "duration_beat": 0.497916666666697,
            "velocity": 75,
            "track": 0
        },
        {
            "pitch": 82,
            "start_beat": 1136.5,
            "duration_beat": 0.497916666666697,
            "velocity": 73,
            "track": 0
        },
        {
            "pitch": 81,
            "start_beat": 1137.0,
            "duration_beat": 0.497916666666697,
            "velocity": 70,
            "track": 0
        },
        {
            "pitch": 79,
            "start_beat": 1137.5,
            "duration_beat": 0.497916666666697,
            "velocity": 68,
            "track": 0
        },
        {
            "pitch": 74,
            "start_beat": 1138.0,
            "duration_beat": 0.497916666666697,
            "velocity": 65,
            "track": 0
        },
        {
            "pitch": 81,
            "start_beat": 1138.5,
            "duration_beat": 0.497916666666697,
            "velocity": 62,
            "track": 0
        },
        {
            "pitch": 84,
            "start_beat": 1139.0,
            "duration_beat": 0.497916666666697,
            "velocity": 60,
            "track": 0
        },
        {
            "pitch": 82,
            "start_beat": 1139.5,
            "duration_beat": 0.497916666666697,
            "velocity": 57,
            "track": 0
        },
        {
            "pitch": 79,
            "start_beat": 1140.0,
            "duration_beat": 0.497916666666697,
            "velocity": 54,
            "track": 0
        },
        {
            "pitch": 74,
            "start_beat": 1140.5,
            "duration_beat": 0.497916666666697,
            "velocity": 52,
            "track": 0
        },
        {
            "pitch": 70,
            "start_beat": 1141.0,
            "duration_beat": 0.497916666666697,
            "velocity": 49,
            "track": 0
        },
        {
            "pitch": 67,
            "start_beat": 1141.5,
            "duration_beat": 0.497916666666697,
            "velocity": 47,
            "track": 0
        },
        {
            "pitch": 60,
            "start_beat": 1142.0,
            "duration_beat": 0.497916666666697,
            "velocity": 44,
            "track": 0
        },
        {
            "pitch": 62,
            "start_beat": 1142.5,
            "duration_beat": 0.497916666666697,
            "velocity": 41,
            "track": 0
        },
        {
            "pitch": 65,
            "start_beat": 1143.0,
            "duration_beat": 0.497916666666697,
            "velocity": 39,
            "track": 0
        },
        {
            "pitch": 63,
            "start_beat": 1143.5,
            "duration_beat": 0.497916666666697,
            "velocity": 36,
            "track": 0
        },
        {
            "pitch": 50,
            "start_beat": 1144.0,
            "duration_beat": 2.847916666666606,
            "velocity": 33,
            "track": 0
        },
        {
            "pitch": 38,
            "start_beat": 1145.0,
            "duration_beat": 0.497916666666697,
            "velocity": 33,
            "track": 1
        },
        {
            "pitch": 38,
            "start_beat": 1146.0,
            "duration_beat": 0.497916666666697,
            "velocity": 33,
            "track": 1
        },
        {
            "pitch": 60,
            "start_beat": 1147.5,
            "duration_beat": 1.997916666666697,
            "velocity": 33,
            "track": 0
        },
        {
            "pitch": 62,
            "start_beat": 1148.0,
            "duration_beat": 1.497916666666697,
            "velocity": 33,
            "track": 0
        },
        {
            "pitch": 38,
            "start_beat": 1148.0,
            "duration_beat": 0.497916666666697,
            "velocity": 33,
            "track": 1
        },
        {
            "pitch": 66,
            "start_beat": 1148.5,
            "duration_beat": 0.997916666666697,
            "velocity": 33,
            "track": 0
        },
        {
            "pitch": 70,
            "start_beat": 1149.0,
            "duration_beat": 0.497916666666697,
            "velocity": 33,
            "track": 0
        },
        {
            "pitch": 38,
            "start_beat": 1149.0,
            "duration_beat": 0.497916666666697,
            "velocity": 33,
            "track": 1
        },
        {
            "pitch": 69,
            "start_beat": 1149.5,
            "duration_beat": 0.497916666666697,
            "velocity": 33,
            "track": 0
        },
        {
            "pitch": 67,
            "start_beat": 1150.0,
            "duration_beat": 2.847916666666606,
            "velocity": 33,
            "track": 0
        },
        {
            "pitch": 58,
            "start_beat": 1151.0,
            "duration_beat": 0.497916666666697,
            "velocity": 33,
            "track": 0
        },
        {
            "pitch": 62,
            "start_beat": 1151.0,
            "duration_beat": 0.497916666666697,
            "velocity": 33,
            "track": 0
        },
        {
            "pitch": 38,
            "start_beat": 1151.0,
            "duration_beat": 0.497916666666697,
            "velocity": 33,
            "track": 1
        },
        {
            "pitch": 58,
            "start_beat": 1152.0,
            "duration_beat": 0.497916666666697,
            "velocity": 33,
            "track": 0
        },
        {
            "pitch": 62,
            "start_beat": 1152.0,
            "duration_beat": 0.497916666666697,
            "velocity": 33,
            "track": 0
        },
        {
            "pitch": 38,
            "start_beat": 1152.0,
            "duration_beat": 0.497916666666697,
            "velocity": 33,
            "track": 1
        },
        {
            "pitch": 74,
            "start_beat": 1153.0,
            "duration_beat": 2.997916666666697,
            "velocity": 33,
            "track": 0
        },
        {
            "pitch": 62,
            "start_beat": 1153.0,
            "duration_beat": 2.997916666666697,
            "velocity": 33,
            "track": 1
        },
        {
            "pitch": 67,
            "start_beat": 1154.0,
            "duration_beat": 0.497916666666697,
            "velocity": 33,
            "track": 0
        },
        {
            "pitch": 50,
            "start_beat": 1154.0,
            "duration_beat": 0.497916666666697,
            "velocity": 33,
            "track": 1
        },
        {
            "pitch": 55,
            "start_beat": 1154.0,
            "duration_beat": 0.497916666666697,
            "velocity": 33,
            "track": 1
        },
        {
            "pitch": 67,
            "start_beat": 1155.0,
            "duration_beat": 0.497916666666697,
            "velocity": 33,
            "track": 0
        },
        {
            "pitch": 50,
            "start_beat": 1155.0,
            "duration_beat": 0.497916666666697,
            "velocity": 33,
            "track": 1
        },
        {
            "pitch": 55,
            "start_beat": 1155.0,
            "duration_beat": 0.497916666666697,
            "velocity": 33,
            "track": 1
        },
        {
            "pitch": 72,
            "start_beat": 1156.0,
            "duration_beat": 2.847916666666606,
            "velocity": 33,
            "track": 0
        },
        {
            "pitch": 60,
            "start_beat": 1156.0,
            "duration_beat": 2.847916666666606,
            "velocity": 33,
            "track": 1
        },
        {
            "pitch": 63,
            "start_beat": 1157.0,
            "duration_beat": 0.497916666666697,
            "velocity": 33,
            "track": 0
        },
        {
            "pitch": 67,
            "start_beat": 1157.0,
            "duration_beat": 0.497916666666697,
            "velocity": 33,
            "track": 0
        },
        {
            "pitch": 50,
            "start_beat": 1157.0,
            "duration_beat": 0.497916666666697,
            "velocity": 33,
            "track": 1
        },
        {
            "pitch": 55,
            "start_beat": 1157.0,
            "duration_beat": 0.497916666666697,
            "velocity": 33,
            "track": 1
        },
        {
            "pitch": 63,
            "start_beat": 1158.0,
            "duration_beat": 0.497916666666697,
            "velocity": 33,
            "track": 0
        },
        {
            "pitch": 67,
            "start_beat": 1158.0,
            "duration_beat": 0.497916666666697,
            "velocity": 33,
            "track": 0
        },
        {
            "pitch": 50,
            "start_beat": 1158.0,
            "duration_beat": 0.497916666666697,
            "velocity": 33,
            "track": 1
        },
        {
            "pitch": 55,
            "start_beat": 1158.0,
            "duration_beat": 0.497916666666697,
            "velocity": 33,
            "track": 1
        },
        {
            "pitch": 60,
            "start_beat": 1159.5,
            "duration_beat": 1.997916666666697,
            "velocity": 33,
            "track": 0
        },
        {
            "pitch": 62,
            "start_beat": 1160.0,
            "duration_beat": 1.497916666666697,
            "velocity": 33,
            "track": 0
        },
        {
            "pitch": 38,
            "start_beat": 1160.0,
            "duration_beat": 0.497916666666697,
            "velocity": 33,
            "track": 1
        },
        {
            "pitch": 66,
            "start_beat": 1160.5,
            "duration_beat": 0.997916666666697,
            "velocity": 33,
            "track": 0
        },
        {
            "pitch": 70,
            "start_beat": 1161.0,
            "duration_beat": 0.497916666666697,
            "velocity": 33,
            "track": 0
        },
        {
            "pitch": 38,
            "start_beat": 1161.0,
            "duration_beat": 0.497916666666697,
            "velocity": 33,
            "track": 1
        },
        {
            "pitch": 69,
            "start_beat": 1161.5,
            "duration_beat": 0.497916666666697,
            "velocity": 33,
            "track": 0
        },
        {
            "pitch": 67,
            "start_beat": 1162.0,
            "duration_beat": 2.847916666666606,
            "velocity": 33,
            "track": 0
        },
        {
            "pitch": 58,
            "start_beat": 1163.0,
            "duration_beat": 0.497916666666697,
            "velocity": 33,
            "track": 0
        },
        {
            "pitch": 62,
            "start_beat": 1163.0,
            "duration_beat": 0.497916666666697,
            "velocity": 33,
            "track": 0
        },
        {
            "pitch": 38,
            "start_beat": 1163.0,
            "duration_beat": 0.497916666666697,
            "velocity": 33,
            "track": 1
        },
        {
            "pitch": 58,
            "start_beat": 1164.0,
            "duration_beat": 0.497916666666697,
            "velocity": 33,
            "track": 0
        },
        {
            "pitch": 62,
            "start_beat": 1164.0,
            "duration_beat": 0.497916666666697,
            "velocity": 33,
            "track": 0
        },
        {
            "pitch": 38,
            "start_beat": 1164.0,
            "duration_beat": 0.497916666666697,
            "velocity": 33,
            "track": 1
        },
        {
            "pitch": 64,
            "start_beat": 1165.0,
            "duration_beat": 2.997916666666697,
            "velocity": 33,
            "track": 0
        },
        {
            "pitch": 55,
            "start_beat": 1166.0,
            "duration_beat": 0.497916666666697,
            "velocity": 33,
            "track": 0
        },
        {
            "pitch": 58,
            "start_beat": 1166.0,
            "duration_beat": 0.497916666666697,
            "velocity": 33,
            "track": 0
        },
        {
            "pitch": 61,
            "start_beat": 1166.0,
            "duration_beat": 0.497916666666697,
            "velocity": 33,
            "track": 0
        },
        {
            "pitch": 38,
            "start_beat": 1166.0,
            "duration_beat": 0.497916666666697,
            "velocity": 33,
            "track": 1
        },
        {
            "pitch": 55,
            "start_beat": 1167.0,
            "duration_beat": 0.497916666666697,
            "velocity": 33,
            "track": 0
        },
        {
            "pitch": 58,
            "start_beat": 1167.0,
            "duration_beat": 0.497916666666697,
            "velocity": 33,
            "track": 0
        },
        {
            "pitch": 61,
            "start_beat": 1167.0,
            "duration_beat": 0.497916666666697,
            "velocity": 33,
            "track": 0
        },
        {
            "pitch": 38,
            "start_beat": 1167.0,
            "duration_beat": 0.497916666666697,
            "velocity": 33,
            "track": 1
        },
        {
            "pitch": 66,
            "start_beat": 1168.0,
            "duration_beat": 2.847916666666606,
            "velocity": 33,
            "track": 0
        },
        {
            "pitch": 54,
            "start_beat": 1169.0,
            "duration_beat": 0.497916666666697,
            "velocity": 33,
            "track": 0
        },
        {
            "pitch": 57,
            "start_beat": 1169.0,
            "duration_beat": 0.497916666666697,
            "velocity": 33,
            "track": 0
        },
        {
            "pitch": 62,
            "start_beat": 1169.0,
            "duration_beat": 0.497916666666697,
            "velocity": 33,
            "track": 0
        },
        {
            "pitch": 38,
            "start_beat": 1169.0,
            "duration_beat": 0.497916666666697,
            "velocity": 33,
            "track": 1
        },
        {
            "pitch": 54,
            "start_beat": 1170.0,
            "duration_beat": 0.497916666666697,
            "velocity": 33,
            "track": 0
        },
        {
            "pitch": 57,
            "start_beat": 1170.0,
            "duration_beat": 0.497916666666697,
            "velocity": 33,
            "track": 0
        },
        {
            "pitch": 62,
            "start_beat": 1170.0,
            "duration_beat": 0.497916666666697,
            "velocity": 33,
            "track": 0
        },
        {
            "pitch": 38,
            "start_beat": 1170.0,
            "duration_beat": 0.497916666666697,
            "velocity": 33,
            "track": 1
        },
        {
            "pitch": 60,
            "start_beat": 1171.5,
            "duration_beat": 1.997916666666697,
            "velocity": 33,
            "track": 0
        },
        {
            "pitch": 62,
            "start_beat": 1172.0,
            "duration_beat": 1.497916666666697,
            "velocity": 33,
            "track": 0
        },
        {
            "pitch": 38,
            "start_beat": 1172.0,
            "duration_beat": 0.497916666666697,
            "velocity": 33,
            "track": 1
        },
        {
            "pitch": 66,
            "start_beat": 1172.5,
            "duration_beat": 0.997916666666697,
            "velocity": 33,
            "track": 0
        },
        {
            "pitch": 70,
            "start_beat": 1173.0,
            "duration_beat": 0.497916666666697,
            "velocity": 33,
            "track": 0
        },
        {
            "pitch": 38,
            "start_beat": 1173.0,
            "duration_beat": 0.497916666666697,
            "velocity": 33,
            "track": 1
        },
        {
            "pitch": 69,
            "start_beat": 1173.5,
            "duration_beat": 0.497916666666697,
            "velocity": 33,
            "track": 0
        },
        {
            "pitch": 67,
            "start_beat": 1174.0,
            "duration_beat": 2.847916666666606,
            "velocity": 33,
            "track": 0
        },
        {
            "pitch": 58,
            "start_beat": 1175.0,
            "duration_beat": 0.497916666666697,
            "velocity": 43,
            "track": 0
        },
        {
            "pitch": 62,
            "start_beat": 1175.0,
            "duration_beat": 0.497916666666697,
            "velocity": 43,
            "track": 0
        },
        {
            "pitch": 38,
            "start_beat": 1175.0,
            "duration_beat": 0.497916666666697,
            "velocity": 43,
            "track": 1
        },
        {
            "pitch": 58,
            "start_beat": 1176.0,
            "duration_beat": 0.497916666666697,
            "velocity": 54,
            "track": 0
        },
        {
            "pitch": 62,
            "start_beat": 1176.0,
            "duration_beat": 0.497916666666697,
            "velocity": 54,
            "track": 0
        },
        {
            "pitch": 38,
            "start_beat": 1176.0,
            "duration_beat": 0.497916666666697,
            "velocity": 54,
            "track": 1
        },
        {
            "pitch": 74,
            "start_beat": 1177.0,
            "duration_beat": 2.997916666666697,
            "velocity": 64,
            "track": 0
        },
        {
            "pitch": 62,
            "start_beat": 1177.0,
            "duration_beat": 2.997916666666697,
            "velocity": 64,
            "track": 1
        },
        {
            "pitch": 67,
            "start_beat": 1178.0,
            "duration_beat": 0.497916666666697,
            "velocity": 75,
            "track": 0
        },
        {
            "pitch": 70,
            "start_beat": 1178.0,
            "duration_beat": 0.497916666666697,
            "velocity": 75,
            "track": 0
        },
        {
            "pitch": 50,
            "start_beat": 1178.0,
            "duration_beat": 0.497916666666697,
            "velocity": 75,
            "track": 1
        },
        {
            "pitch": 55,
            "start_beat": 1178.0,
            "duration_beat": 0.497916666666697,
            "velocity": 75,
            "track": 1
        },
        {
            "pitch": 58,
            "start_beat": 1178.0,
            "duration_beat": 0.497916666666697,
            "velocity": 75,
            "track": 1
        },
        {
            "pitch": 67,
            "start_beat": 1179.0,
            "duration_beat": 0.497916666666697,
            "velocity": 85,
            "track": 0
        },
        {
            "pitch": 70,
            "start_beat": 1179.0,
            "duration_beat": 0.497916666666697,
            "velocity": 85,
            "track": 0
        },
        {
            "pitch": 50,
            "start_beat": 1179.0,
            "duration_beat": 0.497916666666697,
            "velocity": 85,
            "track": 1
        },
        {
            "pitch": 55,
            "start_beat": 1179.0,
            "duration_beat": 0.497916666666697,
            "velocity": 85,
            "track": 1
        },
        {
            "pitch": 58,
            "start_beat": 1179.0,
            "duration_beat": 0.497916666666697,
            "velocity": 85,
            "track": 1
        },
        {
            "pitch": 76,
            "start_beat": 1180.0,
            "duration_beat": 2.847916666666606,
            "velocity": 96,
            "track": 0
        },
        {
            "pitch": 64,
            "start_beat": 1180.0,
            "duration_beat": 2.847916666666606,
            "velocity": 96,
            "track": 1
        },
        {
            "pitch": 67,
            "start_beat": 1181.0,
            "duration_beat": 0.497916666666697,
            "velocity": 96,
            "track": 0
        },
        {
            "pitch": 70,
            "start_beat": 1181.0,
            "duration_beat": 0.497916666666697,
            "velocity": 96,
            "track": 0
        },
        {
            "pitch": 50,
            "start_beat": 1181.0,
            "duration_beat": 0.497916666666697,
            "velocity": 96,
            "track": 1
        },
        {
            "pitch": 55,
            "start_beat": 1181.0,
            "duration_beat": 0.497916666666697,
            "velocity": 96,
            "track": 1
        },
        {
            "pitch": 58,
            "start_beat": 1181.0,
            "duration_beat": 0.497916666666697,
            "velocity": 96,
            "track": 1
        },
        {
            "pitch": 67,
            "start_beat": 1182.0,
            "duration_beat": 0.497916666666697,
            "velocity": 96,
            "track": 0
        },
        {
            "pitch": 70,
            "start_beat": 1182.0,
            "duration_beat": 0.497916666666697,
            "velocity": 96,
            "track": 0
        },
        {
            "pitch": 50,
            "start_beat": 1182.0,
            "duration_beat": 0.497916666666697,
            "velocity": 96,
            "track": 1
        },
        {
            "pitch": 55,
            "start_beat": 1182.0,
            "duration_beat": 0.497916666666697,
            "velocity": 96,
            "track": 1
        },
        {
            "pitch": 58,
            "start_beat": 1182.0,
            "duration_beat": 0.497916666666697,
            "velocity": 96,
            "track": 1
        },
        {
            "pitch": 58,
            "start_beat": 1183.5,
            "duration_beat": 1.997916666666697,
            "velocity": 49,
            "track": 0
        },
        {
            "pitch": 61,
            "start_beat": 1184.0,
            "duration_beat": 1.497916666666697,
            "velocity": 49,
            "track": 0
        },
        {
            "pitch": 38,
            "start_beat": 1184.0,
            "duration_beat": 0.497916666666697,
            "velocity": 49,
            "track": 1
        },
        {
            "pitch": 64,
            "start_beat": 1184.5,
            "duration_beat": 0.997916666666697,
            "velocity": 49,
            "track": 0
        },
        {
            "pitch": 69,
            "start_beat": 1185.0,
            "duration_beat": 0.497916666666697,
            "velocity": 49,
            "track": 0
        },
        {
            "pitch": 38,
            "start_beat": 1185.0,
            "duration_beat": 0.497916666666697,
            "velocity": 49,
            "track": 1
        },
        {
            "pitch": 67,
            "start_beat": 1185.5,
            "duration_beat": 0.497916666666697,
            "velocity": 49,
            "track": 0
        },
        {
            "pitch": 67,
            "start_beat": 1186.0,
            "duration_beat": 2.847916666666606,
            "velocity": 49,
            "track": 0
        },
        {
            "pitch": 58,
            "start_beat": 1187.0,
            "duration_beat": 0.9479166666667425,
            "velocity": 49,
            "track": 0
        },
        {
            "pitch": 61,
            "start_beat": 1187.0,
            "duration_beat": 0.9479166666667425,
            "velocity": 49,
            "track": 0
        },
        {
            "pitch": 64,
            "start_beat": 1187.0,
            "duration_beat": 0.9479166666667425,
            "velocity": 49,
            "track": 0
        },
        {
            "pitch": 38,
            "start_beat": 1187.0,
            "duration_beat": 0.497916666666697,
            "velocity": 49,
            "track": 1
        },
        {
            "pitch": 58,
            "start_beat": 1188.0,
            "duration_beat": 0.9479166666667425,
            "velocity": 49,
            "track": 0
        },
        {
            "pitch": 61,
            "start_beat": 1188.0,
            "duration_beat": 0.9479166666667425,
            "velocity": 49,
            "track": 0
        },
        {
            "pitch": 64,
            "start_beat": 1188.0,
            "duration_beat": 0.9479166666667425,
            "velocity": 49,
            "track": 0
        },
        {
            "pitch": 38,
            "start_beat": 1188.0,
            "duration_beat": 0.497916666666697,
            "velocity": 49,
            "track": 1
        },
        {
            "pitch": 76,
            "start_beat": 1189.0,
            "duration_beat": 2.997916666666697,
            "velocity": 49,
            "track": 0
        },
        {
            "pitch": 64,
            "start_beat": 1189.0,
            "duration_beat": 2.997916666666697,
            "velocity": 49,
            "track": 1
        },
        {
            "pitch": 67,
            "start_beat": 1190.0,
            "duration_beat": 0.997916666666697,
            "velocity": 49,
            "track": 0
        },
        {
            "pitch": 70,
            "start_beat": 1190.0,
            "duration_beat": 0.997916666666697,
            "velocity": 49,
            "track": 0
        },
        {
            "pitch": 73,
            "start_beat": 1190.0,
            "duration_beat": 0.997916666666697,
            "velocity": 49,
            "track": 0
        },
        {
            "pitch": 50,
            "start_beat": 1190.0,
            "duration_beat": 0.497916666666697,
            "velocity": 49,
            "track": 1
        },
        {
            "pitch": 55,
            "start_beat": 1190.0,
            "duration_beat": 0.497916666666697,
            "velocity": 49,
            "track": 1
        },
        {
            "pitch": 58,
            "start_beat": 1190.0,
            "duration_beat": 0.497916666666697,
            "velocity": 49,
            "track": 1
        },
        {
            "pitch": 67,
            "start_beat": 1191.0,
            "duration_beat": 0.997916666666697,
            "velocity": 49,
            "track": 0
        },
        {
            "pitch": 70,
            "start_beat": 1191.0,
            "duration_beat": 0.997916666666697,
            "velocity": 49,
            "track": 0
        },
        {
            "pitch": 73,
            "start_beat": 1191.0,
            "duration_beat": 0.997916666666697,
            "velocity": 49,
            "track": 0
        },
        {
            "pitch": 50,
            "start_beat": 1191.0,
            "duration_beat": 0.497916666666697,
            "velocity": 49,
            "track": 1
        },
        {
            "pitch": 55,
            "start_beat": 1191.0,
            "duration_beat": 0.497916666666697,
            "velocity": 49,
            "track": 1
        },
        {
            "pitch": 58,
            "start_beat": 1191.0,
            "duration_beat": 0.497916666666697,
            "velocity": 49,
            "track": 1
        },
        {
            "pitch": 78,
            "start_beat": 1192.0,
            "duration_beat": 2.997916666666697,
            "velocity": 112,
            "track": 0
        },
        {
            "pitch": 66,
            "start_beat": 1192.0,
            "duration_beat": 2.997916666666697,
            "velocity": 112,
            "track": 1
        },
        {
            "pitch": 67,
            "start_beat": 1193.0,
            "duration_beat": 0.997916666666697,
            "velocity": 94,
            "track": 0
        },
        {
            "pitch": 70,
            "start_beat": 1193.0,
            "duration_beat": 0.997916666666697,
            "velocity": 94,
            "track": 0
        },
        {
            "pitch": 73,
            "start_beat": 1193.0,
            "duration_beat": 0.997916666666697,
            "velocity": 94,
            "track": 0
        },
        {
            "pitch": 50,
            "start_beat": 1193.0,
            "duration_beat": 0.497916666666697,
            "velocity": 94,
            "track": 1
        },
        {
            "pitch": 55,
            "start_beat": 1193.0,
            "duration_beat": 0.497916666666697,
            "velocity": 94,
            "track": 1
        },
        {
            "pitch": 58,
            "start_beat": 1193.0,
            "duration_beat": 0.497916666666697,
            "velocity": 94,
            "track": 1
        },
        {
            "pitch": 67,
            "start_beat": 1194.0,
            "duration_beat": 0.997916666666697,
            "velocity": 97,
            "track": 0
        },
        {
            "pitch": 70,
            "start_beat": 1194.0,
            "duration_beat": 0.997916666666697,
            "velocity": 97,
            "track": 0
        },
        {
            "pitch": 73,
            "start_beat": 1194.0,
            "duration_beat": 0.997916666666697,
            "velocity": 97,
            "track": 0
        },
        {
            "pitch": 50,
            "start_beat": 1194.0,
            "duration_beat": 0.497916666666697,
            "velocity": 97,
            "track": 1
        },
        {
            "pitch": 55,
            "start_beat": 1194.0,
            "duration_beat": 0.497916666666697,
            "velocity": 97,
            "track": 1
        },
        {
            "pitch": 58,
            "start_beat": 1194.0,
            "duration_beat": 0.497916666666697,
            "velocity": 97,
            "track": 1
        },
        {
            "pitch": 76,
            "start_beat": 1195.0,
            "duration_beat": 1.8979166666665606,
            "velocity": 101,
            "track": 0
        },
        {
            "pitch": 64,
            "start_beat": 1195.0,
            "duration_beat": 1.8979166666665606,
            "velocity": 101,
            "track": 1
        },
        {
            "pitch": 67,
            "start_beat": 1196.0,
            "duration_beat": 0.9479166666667425,
            "velocity": 104,
            "track": 0
        },
        {
            "pitch": 70,
            "start_beat": 1196.0,
            "duration_beat": 0.9479166666667425,
            "velocity": 104,
            "track": 0
        },
        {
            "pitch": 73,
            "start_beat": 1196.0,
            "duration_beat": 0.9479166666667425,
            "velocity": 104,
            "track": 0
        },
        {
            "pitch": 50,
            "start_beat": 1196.0,
            "duration_beat": 0.9479166666667425,
            "velocity": 104,
            "track": 1
        },
        {
            "pitch": 55,
            "start_beat": 1196.0,
            "duration_beat": 0.9479166666667425,
            "velocity": 104,
            "track": 1
        },
        {
            "pitch": 58,
            "start_beat": 1196.0,
            "duration_beat": 0.9479166666667425,
            "velocity": 104,
            "track": 1
        },
        {
            "pitch": 78,
            "start_beat": 1197.5,
            "duration_beat": 0.47291666666660603,
            "velocity": 110,
            "track": 0
        },
        {
            "pitch": 66,
            "start_beat": 1197.5,
            "duration_beat": 0.47291666666660603,
            "velocity": 110,
            "track": 1
        },
        {
            "pitch": 78,
            "start_beat": 1198.0,
            "duration_beat": 2.997916666666697,
            "velocity": 112,
            "track": 0
        },
        {
            "pitch": 66,
            "start_beat": 1198.0,
            "duration_beat": 2.997916666666697,
            "velocity": 112,
            "track": 1
        },
        {
            "pitch": 67,
            "start_beat": 1199.0,
            "duration_beat": 0.997916666666697,
            "velocity": 112,
            "track": 0
        },
        {
            "pitch": 70,
            "start_beat": 1199.0,
            "duration_beat": 0.997916666666697,
            "velocity": 112,
            "track": 0
        },
        {
            "pitch": 73,
            "start_beat": 1199.0,
            "duration_beat": 0.997916666666697,
            "velocity": 112,
            "track": 0
        },
        {
            "pitch": 50,
            "start_beat": 1199.0,
            "duration_beat": 0.497916666666697,
            "velocity": 112,
            "track": 1
        },
        {
            "pitch": 55,
            "start_beat": 1199.0,
            "duration_beat": 0.497916666666697,
            "velocity": 112,
            "track": 1
        },
        {
            "pitch": 58,
            "start_beat": 1199.0,
            "duration_beat": 0.497916666666697,
            "velocity": 112,
            "track": 1
        },
        {
            "pitch": 67,
            "start_beat": 1200.0,
            "duration_beat": 0.997916666666697,
            "velocity": 112,
            "track": 0
        },
        {
            "pitch": 70,
            "start_beat": 1200.0,
            "duration_beat": 0.997916666666697,
            "velocity": 112,
            "track": 0
        },
        {
            "pitch": 73,
            "start_beat": 1200.0,
            "duration_beat": 0.997916666666697,
            "velocity": 112,
            "track": 0
        },
        {
            "pitch": 50,
            "start_beat": 1200.0,
            "duration_beat": 0.497916666666697,
            "velocity": 112,
            "track": 1
        },
        {
            "pitch": 55,
            "start_beat": 1200.0,
            "duration_beat": 0.497916666666697,
            "velocity": 112,
            "track": 1
        },
        {
            "pitch": 58,
            "start_beat": 1200.0,
            "duration_beat": 0.497916666666697,
            "velocity": 112,
            "track": 1
        },
        {
            "pitch": 76,
            "start_beat": 1201.0,
            "duration_beat": 1.8979166666665606,
            "velocity": 112,
            "track": 0
        },
        {
            "pitch": 64,
            "start_beat": 1201.0,
            "duration_beat": 1.8979166666665606,
            "velocity": 112,
            "track": 1
        },
        {
            "pitch": 67,
            "start_beat": 1202.0,
            "duration_beat": 0.9479166666667425,
            "velocity": 112,
            "track": 0
        },
        {
            "pitch": 70,
            "start_beat": 1202.0,
            "duration_beat": 0.9479166666667425,
            "velocity": 112,
            "track": 0
        },
        {
            "pitch": 73,
            "start_beat": 1202.0,
            "duration_beat": 0.9479166666667425,
            "velocity": 112,
            "track": 0
        },
        {
            "pitch": 50,
            "start_beat": 1202.0,
            "duration_beat": 0.9479166666667425,
            "velocity": 112,
            "track": 1
        },
        {
            "pitch": 55,
            "start_beat": 1202.0,
            "duration_beat": 0.9479166666667425,
            "velocity": 112,
            "track": 1
        },
        {
            "pitch": 58,
            "start_beat": 1202.0,
            "duration_beat": 0.9479166666667425,
            "velocity": 112,
            "track": 1
        },
        {
            "pitch": 78,
            "start_beat": 1203.5,
            "duration_beat": 0.47291666666660603,
            "velocity": 112,
            "track": 0
        },
        {
            "pitch": 66,
            "start_beat": 1203.5,
            "duration_beat": 0.47291666666660603,
            "velocity": 112,
            "track": 1
        },
        {
            "pitch": 78,
            "start_beat": 1204.0,
            "duration_beat": 2.997916666666697,
            "velocity": 112,
            "track": 0
        },
        {
            "pitch": 66,
            "start_beat": 1204.0,
            "duration_beat": 2.997916666666697,
            "velocity": 112,
            "track": 1
        },
        {
            "pitch": 67,
            "start_beat": 1205.0,
            "duration_beat": 0.997916666666697,
            "velocity": 112,
            "track": 0
        },
        {
            "pitch": 70,
            "start_beat": 1205.0,
            "duration_beat": 0.997916666666697,
            "velocity": 112,
            "track": 0
        },
        {
            "pitch": 73,
            "start_beat": 1205.0,
            "duration_beat": 0.997916666666697,
            "velocity": 112,
            "track": 0
        },
        {
            "pitch": 50,
            "start_beat": 1205.0,
            "duration_beat": 0.997916666666697,
            "velocity": 112,
            "track": 1
        },
        {
            "pitch": 55,
            "start_beat": 1205.0,
            "duration_beat": 0.997916666666697,
            "velocity": 112,
            "track": 1
        },
        {
            "pitch": 58,
            "start_beat": 1205.0,
            "duration_beat": 0.997916666666697,
            "velocity": 112,
            "track": 1
        },
        {
            "pitch": 67,
            "start_beat": 1206.0,
            "duration_beat": 0.997916666666697,
            "velocity": 112,
            "track": 0
        },
        {
            "pitch": 70,
            "start_beat": 1206.0,
            "duration_beat": 0.997916666666697,
            "velocity": 112,
            "track": 0
        },
        {
            "pitch": 73,
            "start_beat": 1206.0,
            "duration_beat": 0.997916666666697,
            "velocity": 112,
            "track": 0
        },
        {
            "pitch": 50,
            "start_beat": 1206.0,
            "duration_beat": 0.997916666666697,
            "velocity": 112,
            "track": 1
        },
        {
            "pitch": 55,
            "start_beat": 1206.0,
            "duration_beat": 0.997916666666697,
            "velocity": 112,
            "track": 1
        },
        {
            "pitch": 58,
            "start_beat": 1206.0,
            "duration_beat": 0.997916666666697,
            "velocity": 112,
            "track": 1
        },
        {
            "pitch": 76,
            "start_beat": 1207.0,
            "duration_beat": 1.8979166666665606,
            "velocity": 112,
            "track": 0
        },
        {
            "pitch": 64,
            "start_beat": 1207.0,
            "duration_beat": 1.8979166666665606,
            "velocity": 112,
            "track": 1
        },
        {
            "pitch": 67,
            "start_beat": 1208.0,
            "duration_beat": 0.9479166666667425,
            "velocity": 112,
            "track": 0
        },
        {
            "pitch": 70,
            "start_beat": 1208.0,
            "duration_beat": 0.9479166666667425,
            "velocity": 112,
            "track": 0
        },
        {
            "pitch": 73,
            "start_beat": 1208.0,
            "duration_beat": 0.9479166666667425,
            "velocity": 112,
            "track": 0
        },
        {
            "pitch": 50,
            "start_beat": 1208.0,
            "duration_beat": 0.9479166666667425,
            "velocity": 112,
            "track": 1
        },
        {
            "pitch": 55,
            "start_beat": 1208.0,
            "duration_beat": 0.9479166666667425,
            "velocity": 112,
            "track": 1
        },
        {
            "pitch": 58,
            "start_beat": 1208.0,
            "duration_beat": 0.9479166666667425,
            "velocity": 112,
            "track": 1
        },
        {
            "pitch": 78,
            "start_beat": 1209.5,
            "duration_beat": 0.47291666666660603,
            "velocity": 112,
            "track": 0
        },
        {
            "pitch": 66,
            "start_beat": 1209.5,
            "duration_beat": 0.47291666666660603,
            "velocity": 112,
            "track": 1
        },
        {
            "pitch": 81,
            "start_beat": 1210.0,
            "duration_beat": 2.997916666666697,
            "velocity": 112,
            "track": 0
        },
        {
            "pitch": 69,
            "start_beat": 1210.0,
            "duration_beat": 2.997916666666697,
            "velocity": 112,
            "track": 1
        },
        {
            "pitch": 70,
            "start_beat": 1211.0,
            "duration_beat": 0.997916666666697,
            "velocity": 113,
            "track": 0
        },
        {
            "pitch": 73,
            "start_beat": 1211.0,
            "duration_beat": 0.997916666666697,
            "velocity": 113,
            "track": 0
        },
        {
            "pitch": 76,
            "start_beat": 1211.0,
            "duration_beat": 0.997916666666697,
            "velocity": 113,
            "track": 0
        },
        {
            "pitch": 58,
            "start_beat": 1211.0,
            "duration_beat": 0.997916666666697,
            "velocity": 113,
            "track": 1
        },
        {
            "pitch": 61,
            "start_beat": 1211.0,
            "duration_beat": 0.997916666666697,
            "velocity": 113,
            "track": 1
        },
        {
            "pitch": 64,
            "start_beat": 1211.0,
            "duration_beat": 0.997916666666697,
            "velocity": 113,
            "track": 1
        },
        {
            "pitch": 70,
            "start_beat": 1212.0,
            "duration_beat": 0.997916666666697,
            "velocity": 115,
            "track": 0
        },
        {
            "pitch": 73,
            "start_beat": 1212.0,
            "duration_beat": 0.997916666666697,
            "velocity": 115,
            "track": 0
        },
        {
            "pitch": 76,
            "start_beat": 1212.0,
            "duration_beat": 0.997916666666697,
            "velocity": 115,
            "track": 0
        },
        {
            "pitch": 58,
            "start_beat": 1212.0,
            "duration_beat": 0.997916666666697,
            "velocity": 115,
            "track": 1
        },
        {
            "pitch": 61,
            "start_beat": 1212.0,
            "duration_beat": 0.997916666666697,
            "velocity": 115,
            "track": 1
        },
        {
            "pitch": 64,
            "start_beat": 1212.0,
            "duration_beat": 0.997916666666697,
            "velocity": 115,
            "track": 1
        },
        {
            "pitch": 79,
            "start_beat": 1213.0,
            "duration_beat": 1.997916666666697,
            "velocity": 117,
            "track": 0
        },
        {
            "pitch": 67,
            "start_beat": 1213.0,
            "duration_beat": 2.847916666666606,
            "velocity": 117,
            "track": 1
        },
        {
            "pitch": 70,
            "start_beat": 1214.0,
            "duration_beat": 0.997916666666697,
            "velocity": 119,
            "track": 0
        },
        {
            "pitch": 73,
            "start_beat": 1214.0,
            "duration_beat": 0.997916666666697,
            "velocity": 119,
            "track": 0
        },
        {
            "pitch": 76,
            "start_beat": 1214.0,
            "duration_beat": 0.997916666666697,
            "velocity": 119,
            "track": 0
        },
        {
            "pitch": 58,
            "start_beat": 1214.0,
            "duration_beat": 0.9479166666667425,
            "velocity": 119,
            "track": 1
        },
        {
            "pitch": 61,
            "start_beat": 1214.0,
            "duration_beat": 0.9479166666667425,
            "velocity": 119,
            "track": 1
        },
        {
            "pitch": 64,
            "start_beat": 1214.0,
            "duration_beat": 0.9479166666667425,
            "velocity": 119,
            "track": 1
        },
        {
            "pitch": 81,
            "start_beat": 1215.0,
            "duration_beat": 0.997916666666697,
            "velocity": 121,
            "track": 0
        },
        {
            "pitch": 69,
            "start_beat": 1215.0,
            "duration_beat": 0.997916666666697,
            "velocity": 121,
            "track": 0
        },
        {
            "pitch": 70,
            "start_beat": 1216.0,
            "duration_beat": 0.9479166666667425,
            "velocity": 123,
            "track": 0
        },
        {
            "pitch": 74,
            "start_beat": 1216.0,
            "duration_beat": 0.9479166666667425,
            "velocity": 123,
            "track": 0
        },
        {
            "pitch": 82,
            "start_beat": 1216.0,
            "duration_beat": 0.9479166666667425,
            "velocity": 123,
            "track": 0
        },
        {
            "pitch": 26,
            "start_beat": 1216.0,
            "duration_beat": 0.997916666666697,
            "velocity": 123,
            "track": 1
        },
        {
            "pitch": 38,
            "start_beat": 1216.13125,
            "duration_beat": 0.8645833333334849,
            "velocity": 123,
            "track": 1
        },
        {
            "pitch": 50,
            "start_beat": 1217.0,
            "duration_beat": 0.997916666666697,
            "velocity": 125,
            "track": 1
        },
        {
            "pitch": 58,
            "start_beat": 1217.0,
            "duration_beat": 0.997916666666697,
            "velocity": 125,
            "track": 1
        },
        {
            "pitch": 86,
            "start_beat": 1217.5,
            "duration_beat": 0.24791666666669698,
            "velocity": 126,
            "track": 0
        },
        {
            "pitch": 94,
            "start_beat": 1217.5,
            "duration_beat": 0.24791666666669698,
            "velocity": 126,
            "track": 0
        },
        {
            "pitch": 87,
            "start_beat": 1218.0,
            "duration_beat": 0.24791666666669698,
            "velocity": 126,
            "track": 0
        },
        {
            "pitch": 96,
            "start_beat": 1218.0,
            "duration_beat": 0.24791666666669698,
            "velocity": 126,
            "track": 0
        },
        {
            "pitch": 55,
            "start_beat": 1218.0,
            "duration_beat": 0.997916666666697,
            "velocity": 126,
            "track": 1
        },
        {
            "pitch": 62,
            "start_beat": 1218.0,
            "duration_beat": 0.997916666666697,
            "velocity": 126,
            "track": 1
        },
        {
            "pitch": 86,
            "start_beat": 1218.5,
            "duration_beat": 0.24791666666669698,
            "velocity": 126,
            "track": 0
        },
        {
            "pitch": 94,
            "start_beat": 1218.5,
            "duration_beat": 0.24791666666669698,
            "velocity": 126,
            "track": 0
        },
        {
            "pitch": 84,
            "start_beat": 1219.0,
            "duration_beat": 0.24791666666669698,
            "velocity": 126,
            "track": 0
        },
        {
            "pitch": 93,
            "start_beat": 1219.0,
            "duration_beat": 0.24791666666669698,
            "velocity": 126,
            "track": 0
        },
        {
            "pitch": 58,
            "start_beat": 1219.0,
            "duration_beat": 0.997916666666697,
            "velocity": 126,
            "track": 1
        },
        {
            "pitch": 67,
            "start_beat": 1219.0,
            "duration_beat": 0.997916666666697,
            "velocity": 126,
            "track": 1
        },
        {
            "pitch": 82,
            "start_beat": 1219.5,
            "duration_beat": 0.24791666666669698,
            "velocity": 126,
            "track": 0
        },
        {
            "pitch": 91,
            "start_beat": 1219.5,
            "duration_beat": 0.24791666666669698,
            "velocity": 126,
            "track": 0
        },
        {
            "pitch": 81,
            "start_beat": 1220.0,
            "duration_beat": 0.24791666666669698,
            "velocity": 126,
            "track": 0
        },
        {
            "pitch": 90,
            "start_beat": 1220.0,
            "duration_beat": 0.24791666666669698,
            "velocity": 126,
            "track": 0
        },
        {
            "pitch": 55,
            "start_beat": 1220.0,
            "duration_beat": 0.997916666666697,
            "velocity": 126,
            "track": 1
        },
        {
            "pitch": 62,
            "start_beat": 1220.0,
            "duration_beat": 0.997916666666697,
            "velocity": 126,
            "track": 1
        },
        {
            "pitch": 82,
            "start_beat": 1220.5,
            "duration_beat": 0.24791666666669698,
            "velocity": 126,
            "track": 0
        },
        {
            "pitch": 91,
            "start_beat": 1220.5,
            "duration_beat": 0.24791666666669698,
            "velocity": 126,
            "track": 0
        },
        {
            "pitch": 81,
            "start_beat": 1221.0,
            "duration_beat": 0.24791666666669698,
            "velocity": 126,
            "track": 0
        },
        {
            "pitch": 89,
            "start_beat": 1221.0,
            "duration_beat": 0.24791666666669698,
            "velocity": 126,
            "track": 0
        },
        {
            "pitch": 50,
            "start_beat": 1221.0,
            "duration_beat": 0.9479166666667425,
            "velocity": 126,
            "track": 1
        },
        {
            "pitch": 58,
            "start_beat": 1221.0,
            "duration_beat": 0.9479166666667425,
            "velocity": 126,
            "track": 1
        },
        {
            "pitch": 79,
            "start_beat": 1221.75,
            "duration_beat": 0.12291666666669698,
            "velocity": 126,
            "track": 0
        },
        {
            "pitch": 87,
            "start_beat": 1221.75,
            "duration_beat": 0.12291666666669698,
            "velocity": 126,
            "track": 0
        },
        {
            "pitch": 79,
            "start_beat": 1222.0,
            "duration_beat": 0.24791666666669698,
            "velocity": 126,
            "track": 0
        },
        {
            "pitch": 87,
            "start_beat": 1222.0,
            "duration_beat": 0.24791666666669698,
            "velocity": 126,
            "track": 0
        },
        {
            "pitch": 26,
            "start_beat": 1222.0,
            "duration_beat": 0.9479166666667425,
            "velocity": 126,
            "track": 1
        },
        {
            "pitch": 38,
            "start_beat": 1222.0,
            "duration_beat": 0.9479166666667425,
            "velocity": 126,
            "track": 1
        },
        {
            "pitch": 78,
            "start_beat": 1222.5,
            "duration_beat": 0.24791666666669698,
            "velocity": 126,
            "track": 0
        },
        {
            "pitch": 86,
            "start_beat": 1222.5,
            "duration_beat": 0.24791666666669698,
            "velocity": 126,
            "track": 0
        },
        {
            "pitch": 75,
            "start_beat": 1223.0,
            "duration_beat": 0.24791666666669698,
            "velocity": 126,
            "track": 0
        },
        {
            "pitch": 84,
            "start_beat": 1223.0,
            "duration_beat": 0.24791666666669698,
            "velocity": 126,
            "track": 0
        },
        {
            "pitch": 50,
            "start_beat": 1223.0,
            "duration_beat": 0.997916666666697,
            "velocity": 126,
            "track": 1
        },
        {
            "pitch": 54,
            "start_beat": 1223.0,
            "duration_beat": 0.997916666666697,
            "velocity": 126,
            "track": 1
        },
        {
            "pitch": 60,
            "start_beat": 1223.0,
            "duration_beat": 0.997916666666697,
            "velocity": 126,
            "track": 1
        },
        {
            "pitch": 74,
            "start_beat": 1223.5,
            "duration_beat": 0.24791666666669698,
            "velocity": 126,
            "track": 0
        },
        {
            "pitch": 82,
            "start_beat": 1223.5,
            "duration_beat": 0.24791666666669698,
            "velocity": 126,
            "track": 0
        },
        {
            "pitch": 72,
            "start_beat": 1224.0,
            "duration_beat": 0.24791666666669698,
            "velocity": 126,
            "track": 0
        },
        {
            "pitch": 81,
            "start_beat": 1224.0,
            "duration_beat": 0.24791666666669698,
            "velocity": 126,
            "track": 0
        },
        {
            "pitch": 54,
            "start_beat": 1224.0,
            "duration_beat": 0.997916666666697,
            "velocity": 126,
            "track": 1
        },
        {
            "pitch": 60,
            "start_beat": 1224.0,
            "duration_beat": 0.997916666666697,
            "velocity": 126,
            "track": 1
        },
        {
            "pitch": 62,
            "start_beat": 1224.0,
            "duration_beat": 0.997916666666697,
            "velocity": 126,
            "track": 1
        },
        {
            "pitch": 70,
            "start_beat": 1224.5,
            "duration_beat": 0.24791666666669698,
            "velocity": 126,
            "track": 0
        },
        {
            "pitch": 79,
            "start_beat": 1224.5,
            "duration_beat": 0.24791666666669698,
            "velocity": 126,
            "track": 0
        },
        {
            "pitch": 69,
            "start_beat": 1225.0,
            "duration_beat": 0.16458333333343944,
            "velocity": 126,
            "track": 0
        },
        {
            "pitch": 78,
            "start_beat": 1225.0,
            "duration_beat": 0.16458333333343944,
            "velocity": 126,
            "track": 0
        },
        {
            "pitch": 57,
            "start_beat": 1225.0,
            "duration_beat": 0.997916666666697,
            "velocity": 126,
            "track": 1
        },
        {
            "pitch": 60,
            "start_beat": 1225.0,
            "duration_beat": 0.997916666666697,
            "velocity": 126,
            "track": 1
        },
        {
            "pitch": 66,
            "start_beat": 1225.0,
            "duration_beat": 0.997916666666697,
            "velocity": 126,
            "track": 1
        },
        {
            "pitch": 72,
            "start_beat": 1225.3333333333333,
            "duration_beat": 0.16458333333343944,
            "velocity": 126,
            "track": 0
        },
        {
            "pitch": 75,
            "start_beat": 1225.3333333333333,
            "duration_beat": 0.16458333333343944,
            "velocity": 126,
            "track": 0
        },
        {
            "pitch": 72,
            "start_beat": 1225.6666666666667,
            "duration_beat": 0.16458333333321207,
            "velocity": 126,
            "track": 0
        },
        {
            "pitch": 74,
            "start_beat": 1225.6666666666667,
            "duration_beat": 0.16458333333321207,
            "velocity": 126,
            "track": 0
        },
        {
            "pitch": 71,
            "start_beat": 1226.0,
            "duration_beat": 0.09791666666660603,
            "velocity": 126,
            "track": 0
        },
        {
            "pitch": 74,
            "start_beat": 1226.0,
            "duration_beat": 0.09791666666660603,
            "velocity": 126,
            "track": 0
        },
        {
            "pitch": 54,
            "start_beat": 1226.0,
            "duration_beat": 0.997916666666697,
            "velocity": 126,
            "track": 1
        },
        {
            "pitch": 60,
            "start_beat": 1226.0,
            "duration_beat": 0.997916666666697,
            "velocity": 126,
            "track": 1
        },
        {
            "pitch": 62,
            "start_beat": 1226.0,
            "duration_beat": 0.997916666666697,
            "velocity": 126,
            "track": 1
        },
        {
            "pitch": 70,
            "start_beat": 1226.2,
            "duration_beat": 0.09791666666660603,
            "velocity": 126,
            "track": 0
        },
        {
            "pitch": 74,
            "start_beat": 1226.2,
            "duration_beat": 0.09791666666660603,
            "velocity": 126,
            "track": 0
        },
        {
            "pitch": 69,
            "start_beat": 1226.4,
            "duration_beat": 0.09791666666660603,
            "velocity": 126,
            "track": 0
        },
        {
            "pitch": 74,
            "start_beat": 1226.4,
            "duration_beat": 0.09791666666660603,
            "velocity": 126,
            "track": 0
        },
        {
            "pitch": 68,
            "start_beat": 1226.6,
            "duration_beat": 0.09791666666683341,
            "velocity": 126,
            "track": 0
        },
        {
            "pitch": 74,
            "start_beat": 1226.6,
            "duration_beat": 0.09791666666683341,
            "velocity": 126,
            "track": 0
        },
        {
            "pitch": 69,
            "start_beat": 1226.8,
            "duration_beat": 0.09791666666660603,
            "velocity": 126,
            "track": 0
        },
        {
            "pitch": 74,
            "start_beat": 1226.8,
            "duration_beat": 0.09791666666660603,
            "velocity": 126,
            "track": 0
        },
        {
            "pitch": 70,
            "start_beat": 1227.0,
            "duration_beat": 0.12291666666669698,
            "velocity": 126,
            "track": 0
        },
        {
            "pitch": 74,
            "start_beat": 1227.0,
            "duration_beat": 0.12291666666669698,
            "velocity": 126,
            "track": 0
        },
        {
            "pitch": 50,
            "start_beat": 1227.0,
            "duration_beat": 0.9479166666667425,
            "velocity": 126,
            "track": 1
        },
        {
            "pitch": 54,
            "start_beat": 1227.0,
            "duration_beat": 0.9479166666667425,
            "velocity": 126,
            "track": 1
        },
        {
            "pitch": 60,
            "start_beat": 1227.0,
            "duration_beat": 0.9479166666667425,
            "velocity": 126,
            "track": 1
        },
        {
            "pitch": 69,
            "start_beat": 1227.25,
            "duration_beat": 0.12291666666669698,
            "velocity": 126,
            "track": 0
        },
        {
            "pitch": 74,
            "start_beat": 1227.25,
            "duration_beat": 0.12291666666669698,
            "velocity": 126,
            "track": 0
        },
        {
            "pitch": 72,
            "start_beat": 1227.5,
            "duration_beat": 0.12291666666669698,
            "velocity": 126,
            "track": 0
        },
        {
            "pitch": 74,
            "start_beat": 1227.5,
            "duration_beat": 0.12291666666669698,
            "velocity": 126,
            "track": 0
        },
        {
            "pitch": 70,
            "start_beat": 1227.75,
            "duration_beat": 0.12291666666669698,
            "velocity": 126,
            "track": 0
        },
        {
            "pitch": 74,
            "start_beat": 1227.75,
            "duration_beat": 0.12291666666669698,
            "velocity": 126,
            "track": 0
        },
        {
            "pitch": 67,
            "start_beat": 1228.0,
            "duration_beat": 0.47291666666660603,
            "velocity": 112,
            "track": 0
        },
        {
            "pitch": 74,
            "start_beat": 1228.0,
            "duration_beat": 0.47291666666660603,
            "velocity": 112,
            "track": 0
        },
        {
            "pitch": 31,
            "start_beat": 1228.0,
            "duration_beat": 0.9479166666667425,
            "velocity": 112,
            "track": 1
        },
        {
            "pitch": 43,
            "start_beat": 1228.0,
            "duration_beat": 0.9479166666667425,
            "velocity": 112,
            "track": 1
        },
        {
            "pitch": 86,
            "start_beat": 1229.0,
            "duration_beat": 0.497916666666697,
            "velocity": 112,
            "track": 0
        },
        {
            "pitch": 91,
            "start_beat": 1229.0,
            "duration_beat": 0.497916666666697,
            "velocity": 112,
            "track": 0
        },
        {
            "pitch": 94,
            "start_beat": 1229.0,
            "duration_beat": 0.497916666666697,
            "velocity": 112,
            "track": 0
        },
        {
            "pitch": 81,
            "start_beat": 1229.5,
            "duration_beat": 0.47291666666660603,
            "velocity": 112,
            "track": 0
        },
        {
            "pitch": 58,
            "start_beat": 1230.0,
            "duration_beat": 0.9479166666667425,
            "velocity": 112,
            "track": 1
        },
        {
            "pitch": 62,
            "start_beat": 1230.0,
            "duration_beat": 0.9479166666667425,
            "velocity": 112,
            "track": 1
        },
        {
            "pitch": 67,
            "start_beat": 1230.0,
            "duration_beat": 0.9479166666667425,
            "velocity": 112,
            "track": 1
        },
        {
            "pitch": 82,
            "start_beat": 1230.5,
            "duration_beat": 0.47291666666660603,
            "velocity": 112,
            "track": 0
        },
        {
            "pitch": 86,
            "start_beat": 1230.5,
            "duration_beat": 0.47291666666660603,
            "velocity": 112,
            "track": 0
        },
        {
            "pitch": 91,
            "start_beat": 1230.5,
            "duration_beat": 0.47291666666660603,
            "velocity": 112,
            "track": 0
        },
        {
            "pitch": 82,
            "start_beat": 1231.0,
            "duration_beat": 0.497916666666697,
            "velocity": 112,
            "track": 0
        },
        {
            "pitch": 86,
            "start_beat": 1231.0,
            "duration_beat": 0.497916666666697,
            "velocity": 112,
            "track": 0
        },
        {
            "pitch": 91,
            "start_beat": 1231.0,
            "duration_beat": 0.497916666666697,
            "velocity": 112,
            "track": 0
        },
        {
            "pitch": 46,
            "start_beat": 1231.0,
            "duration_beat": 0.497916666666697,
            "velocity": 112,
            "track": 1
        },
        {
            "pitch": 78,
            "start_beat": 1231.5,
            "duration_beat": 0.47291666666660603,
            "velocity": 112,
            "track": 0
        },
        {
            "pitch": 58,
            "start_beat": 1232.0,
            "duration_beat": 0.9479166666667425,
            "velocity": 112,
            "track": 1
        },
        {
            "pitch": 62,
            "start_beat": 1232.0,
            "duration_beat": 0.9479166666667425,
            "velocity": 112,
            "track": 1
        },
        {
            "pitch": 67,
            "start_beat": 1232.0,
            "duration_beat": 0.9479166666667425,
            "velocity": 112,
            "track": 1
        },
        {
            "pitch": 79,
            "start_beat": 1232.5,
            "duration_beat": 0.47291666666660603,
            "velocity": 112,
            "track": 0
        },
        {
            "pitch": 82,
            "start_beat": 1232.5,
            "duration_beat": 0.47291666666660603,
            "velocity": 112,
            "track": 0
        },
        {
            "pitch": 86,
            "start_beat": 1232.5,
            "duration_beat": 0.47291666666660603,
            "velocity": 112,
            "track": 0
        },
        {
            "pitch": 79,
            "start_beat": 1233.0,
            "duration_beat": 0.497916666666697,
            "velocity": 112,
            "track": 0
        },
        {
            "pitch": 82,
            "start_beat": 1233.0,
            "duration_beat": 0.497916666666697,
            "velocity": 112,
            "track": 0
        },
        {
            "pitch": 86,
            "start_beat": 1233.0,
            "duration_beat": 0.497916666666697,
            "velocity": 112,
            "track": 0
        },
        {
            "pitch": 50,
            "start_beat": 1233.0,
            "duration_beat": 0.497916666666697,
            "velocity": 112,
            "track": 1
        },
        {
            "pitch": 73,
            "start_beat": 1233.5,
            "duration_beat": 0.47291666666660603,
            "velocity": 112,
            "track": 0
        },
        {
            "pitch": 58,
            "start_beat": 1234.0,
            "duration_beat": 0.9479166666667425,
            "velocity": 112,
            "track": 1
        },
        {
            "pitch": 62,
            "start_beat": 1234.0,
            "duration_beat": 0.9479166666667425,
            "velocity": 112,
            "track": 1
        },
        {
            "pitch": 67,
            "start_beat": 1234.0,
            "duration_beat": 0.9479166666667425,
            "velocity": 112,
            "track": 1
        },
        {
            "pitch": 74,
            "start_beat": 1234.5,
            "duration_beat": 0.47291666666660603,
            "velocity": 112,
            "track": 0
        },
        {
            "pitch": 79,
            "start_beat": 1234.5,
            "duration_beat": 0.47291666666660603,
            "velocity": 112,
            "track": 0
        },
        {
            "pitch": 82,
            "start_beat": 1234.5,
            "duration_beat": 0.47291666666660603,
            "velocity": 112,
            "track": 0
        },
        {
            "pitch": 74,
            "start_beat": 1235.0,
            "duration_beat": 0.497916666666697,
            "velocity": 112,
            "track": 0
        },
        {
            "pitch": 79,
            "start_beat": 1235.0,
            "duration_beat": 0.497916666666697,
            "velocity": 112,
            "track": 0
        },
        {
            "pitch": 82,
            "start_beat": 1235.0,
            "duration_beat": 0.497916666666697,
            "velocity": 112,
            "track": 0
        },
        {
            "pitch": 55,
            "start_beat": 1235.0,
            "duration_beat": 0.497916666666697,
            "velocity": 112,
            "track": 1
        },
        {
            "pitch": 70,
            "start_beat": 1235.5,
            "duration_beat": 0.47291666666660603,
            "velocity": 112,
            "track": 0
        },
        {
            "pitch": 57,
            "start_beat": 1236.0,
            "duration_beat": 0.9479166666667425,
            "velocity": 112,
            "track": 1
        },
        {
            "pitch": 60,
            "start_beat": 1236.0,
            "duration_beat": 0.9479166666667425,
            "velocity": 112,
            "track": 1
        },
        {
            "pitch": 67,
            "start_beat": 1236.0,
            "duration_beat": 0.9479166666667425,
            "velocity": 112,
            "track": 1
        },
        {
            "pitch": 75,
            "start_beat": 1236.5,
            "duration_beat": 0.47291666666660603,
            "velocity": 112,
            "track": 0
        },
        {
            "pitch": 79,
            "start_beat": 1236.5,
            "duration_beat": 0.47291666666660603,
            "velocity": 112,
            "track": 0
        },
        {
            "pitch": 84,
            "start_beat": 1236.5,
            "duration_beat": 0.47291666666660603,
            "velocity": 112,
            "track": 0
        },
        {
            "pitch": 75,
            "start_beat": 1237.0,
            "duration_beat": 0.497916666666697,
            "velocity": 112,
            "track": 0
        },
        {
            "pitch": 79,
            "start_beat": 1237.0,
            "duration_beat": 0.497916666666697,
            "velocity": 112,
            "track": 0
        },
        {
            "pitch": 84,
            "start_beat": 1237.0,
            "duration_beat": 0.497916666666697,
            "velocity": 112,
            "track": 0
        },
        {
            "pitch": 45,
            "start_beat": 1237.0,
            "duration_beat": 0.497916666666697,
            "velocity": 112,
            "track": 1
        },
        {
            "pitch": 74,
            "start_beat": 1237.5,
            "duration_beat": 0.497916666666697,
            "velocity": 112,
            "track": 0
        },
        {
            "pitch": 73,
            "start_beat": 1238.0,
            "duration_beat": 0.497916666666697,
            "velocity": 112,
            "track": 0
        },
        {
            "pitch": 60,
            "start_beat": 1238.0,
            "duration_beat": 0.9479166666667425,
            "velocity": 112,
            "track": 1
        },
        {
            "pitch": 63,
            "start_beat": 1238.0,
            "duration_beat": 0.9479166666667425,
            "velocity": 112,
            "track": 1
        },
        {
            "pitch": 67,
            "start_beat": 1238.0,
            "duration_beat": 0.9479166666667425,
            "velocity": 112,
            "track": 1
        },
        {
            "pitch": 72,
            "start_beat": 1238.5,
            "duration_beat": 0.497916666666697,
            "velocity": 112,
            "track": 0
        },
        {
            "pitch": 75,
            "start_beat": 1239.0,
            "duration_beat": 0.497916666666697,
            "velocity": 112,
            "track": 0
        },
        {
            "pitch": 79,
            "start_beat": 1239.0,
            "duration_beat": 0.497916666666697,
            "velocity": 112,
            "track": 0
        },
        {
            "pitch": 84,
            "start_beat": 1239.0,
            "duration_beat": 0.497916666666697,
            "velocity": 112,
            "track": 0
        },
        {
            "pitch": 57,
            "start_beat": 1239.0,
            "duration_beat": 0.497916666666697,
            "velocity": 112,
            "track": 1
        },
        {
            "pitch": 74,
            "start_beat": 1239.5,
            "duration_beat": 0.497916666666697,
            "velocity": 112,
            "track": 0
        },
        {
            "pitch": 73,
            "start_beat": 1240.0,
            "duration_beat": 0.497916666666697,
            "velocity": 112,
            "track": 0
        },
        {
            "pitch": 60,
            "start_beat": 1240.0,
            "duration_beat": 0.9479166666667425,
            "velocity": 112,
            "track": 1
        },
        {
            "pitch": 62,
            "start_beat": 1240.0,
            "duration_beat": 0.9479166666667425,
            "velocity": 112,
            "track": 1
        },
        {
            "pitch": 66,
            "start_beat": 1240.0,
            "duration_beat": 0.9479166666667425,
            "velocity": 112,
            "track": 1
        },
        {
            "pitch": 72,
            "start_beat": 1240.5,
            "duration_beat": 0.497916666666697,
            "velocity": 112,
            "track": 0
        },
        {
            "pitch": 75,
            "start_beat": 1241.0,
            "duration_beat": 0.497916666666697,
            "velocity": 112,
            "track": 0
        },
        {
            "pitch": 78,
            "start_beat": 1241.0,
            "duration_beat": 0.497916666666697,
            "velocity": 112,
            "track": 0
        },
        {
            "pitch": 84,
            "start_beat": 1241.0,
            "duration_beat": 0.497916666666697,
            "velocity": 112,
            "track": 0
        },
        {
            "pitch": 50,
            "start_beat": 1241.0,
            "duration_beat": 0.497916666666697,
            "velocity": 112,
            "track": 1
        },
        {
            "pitch": 74,
            "start_beat": 1241.5,
            "duration_beat": 0.497916666666697,
            "velocity": 112,
            "track": 0
        },
        {
            "pitch": 73,
            "start_beat": 1242.0,
            "duration_beat": 0.497916666666697,
            "velocity": 112,
            "track": 0
        },
        {
            "pitch": 60,
            "start_beat": 1242.0,
            "duration_beat": 0.9479166666667425,
            "velocity": 112,
            "track": 1
        },
        {
            "pitch": 62,
            "start_beat": 1242.0,
            "duration_beat": 0.9479166666667425,
            "velocity": 112,
            "track": 1
        },
        {
            "pitch": 66,
            "start_beat": 1242.0,
            "duration_beat": 0.9479166666667425,
            "velocity": 112,
            "track": 1
        },
        {
            "pitch": 72,
            "start_beat": 1242.5,
            "duration_beat": 0.497916666666697,
            "velocity": 112,
            "track": 0
        },
        {
            "pitch": 74,
            "start_beat": 1243.0,
            "duration_beat": 0.497916666666697,
            "velocity": 112,
            "track": 0
        },
        {
            "pitch": 78,
            "start_beat": 1243.0,
            "duration_beat": 0.497916666666697,
            "velocity": 112,
            "track": 0
        },
        {
            "pitch": 81,
            "start_beat": 1243.0,
            "duration_beat": 0.497916666666697,
            "velocity": 112,
            "track": 0
        },
        {
            "pitch": 57,
            "start_beat": 1243.0,
            "duration_beat": 0.497916666666697,
            "velocity": 112,
            "track": 1
        },
        {
            "pitch": 72,
            "start_beat": 1243.5,
            "duration_beat": 0.47291666666660603,
            "velocity": 112,
            "track": 0
        },
        {
            "pitch": 70,
            "start_beat": 1244.0,
            "duration_beat": 0.497916666666697,
            "velocity": 112,
            "track": 0
        },
        {
            "pitch": 74,
            "start_beat": 1244.0,
            "duration_beat": 0.497916666666697,
            "velocity": 112,
            "track": 0
        },
        {
            "pitch": 79,
            "start_beat": 1244.0,
            "duration_beat": 0.497916666666697,
            "velocity": 112,
            "track": 0
        },
        {
            "pitch": 82,
            "start_beat": 1244.0,
            "duration_beat": 0.497916666666697,
            "velocity": 112,
            "track": 0
        },
        {
            "pitch": 55,
            "start_beat": 1244.0,
            "duration_beat": 0.9479166666667425,
            "velocity": 112,
            "track": 1
        },
        {
            "pitch": 62,
            "start_beat": 1244.0,
            "duration_beat": 0.9479166666667425,
            "velocity": 112,
            "track": 1
        },
        {
            "pitch": 67,
            "start_beat": 1244.0,
            "duration_beat": 0.9479166666667425,
            "velocity": 112,
            "track": 1
        },
        {
            "pitch": 86,
            "start_beat": 1245.0,
            "duration_beat": 0.497916666666697,
            "velocity": 103,
            "track": 0
        },
        {
            "pitch": 91,
            "start_beat": 1245.0,
            "duration_beat": 0.497916666666697,
            "velocity": 103,
            "track": 0
        },
        {
            "pitch": 94,
            "start_beat": 1245.0,
            "duration_beat": 0.497916666666697,
            "velocity": 103,
            "track": 0
        },
        {
            "pitch": 43,
            "start_beat": 1245.0,
            "duration_beat": 0.497916666666697,
            "velocity": 103,
            "track": 1
        },
        {
            "pitch": 81,
            "start_beat": 1245.5,
            "duration_beat": 0.47291666666660603,
            "velocity": 98,
            "track": 0
        },
        {
            "pitch": 58,
            "start_beat": 1246.0,
            "duration_beat": 0.9479166666667425,
            "velocity": 94,
            "track": 1
        },
        {
            "pitch": 62,
            "start_beat": 1246.0,
            "duration_beat": 0.9479166666667425,
            "velocity": 94,
            "track": 1
        },
        {
            "pitch": 67,
            "start_beat": 1246.0,
            "duration_beat": 0.9479166666667425,
            "velocity": 94,
            "track": 1
        },
        {
            "pitch": 82,
            "start_beat": 1246.5,
            "duration_beat": 0.47291666666660603,
            "velocity": 94,
            "track": 0
        },
        {
            "pitch": 86,
            "start_beat": 1246.5,
            "duration_beat": 0.47291666666660603,
            "velocity": 94,
            "track": 0
        },
        {
            "pitch": 91,
            "start_beat": 1246.5,
            "duration_beat": 0.47291666666660603,
            "velocity": 94,
            "track": 0
        },
        {
            "pitch": 82,
            "start_beat": 1247.0,
            "duration_beat": 0.497916666666697,
            "velocity": 94,
            "track": 0
        },
        {
            "pitch": 86,
            "start_beat": 1247.0,
            "duration_beat": 0.497916666666697,
            "velocity": 94,
            "track": 0
        },
        {
            "pitch": 91,
            "start_beat": 1247.0,
            "duration_beat": 0.497916666666697,
            "velocity": 94,
            "track": 0
        },
        {
            "pitch": 46,
            "start_beat": 1247.0,
            "duration_beat": 0.497916666666697,
            "velocity": 94,
            "track": 1
        },
        {
            "pitch": 78,
            "start_beat": 1247.5,
            "duration_beat": 0.47291666666660603,
            "velocity": 94,
            "track": 0
        },
        {
            "pitch": 58,
            "start_beat": 1248.0,
            "duration_beat": 0.9479166666667425,
            "velocity": 94,
            "track": 1
        },
        {
            "pitch": 62,
            "start_beat": 1248.0,
            "duration_beat": 0.9479166666667425,
            "velocity": 94,
            "track": 1
        },
        {
            "pitch": 67,
            "start_beat": 1248.0,
            "duration_beat": 0.9479166666667425,
            "velocity": 94,
            "track": 1
        },
        {
            "pitch": 79,
            "start_beat": 1248.5,
            "duration_beat": 0.47291666666660603,
            "velocity": 94,
            "track": 0
        },
        {
            "pitch": 82,
            "start_beat": 1248.5,
            "duration_beat": 0.47291666666660603,
            "velocity": 94,
            "track": 0
        },
        {
            "pitch": 86,
            "start_beat": 1248.5,
            "duration_beat": 0.47291666666660603,
            "velocity": 94,
            "track": 0
        },
        {
            "pitch": 79,
            "start_beat": 1249.0,
            "duration_beat": 0.497916666666697,
            "velocity": 94,
            "track": 0
        },
        {
            "pitch": 82,
            "start_beat": 1249.0,
            "duration_beat": 0.497916666666697,
            "velocity": 94,
            "track": 0
        },
        {
            "pitch": 86,
            "start_beat": 1249.0,
            "duration_beat": 0.497916666666697,
            "velocity": 94,
            "track": 0
        },
        {
            "pitch": 50,
            "start_beat": 1249.0,
            "duration_beat": 0.497916666666697,
            "velocity": 94,
            "track": 1
        },
        {
            "pitch": 73,
            "start_beat": 1249.5,
            "duration_beat": 0.47291666666660603,
            "velocity": 94,
            "track": 0
        },
        {
            "pitch": 58,
            "start_beat": 1250.0,
            "duration_beat": 0.9479166666667425,
            "velocity": 94,
            "track": 1
        },
        {
            "pitch": 62,
            "start_beat": 1250.0,
            "duration_beat": 0.9479166666667425,
            "velocity": 94,
            "track": 1
        },
        {
            "pitch": 67,
            "start_beat": 1250.0,
            "duration_beat": 0.9479166666667425,
            "velocity": 94,
            "track": 1
        },
        {
            "pitch": 74,
            "start_beat": 1250.5,
            "duration_beat": 0.47291666666660603,
            "velocity": 94,
            "track": 0
        },
        {
            "pitch": 79,
            "start_beat": 1250.5,
            "duration_beat": 0.47291666666660603,
            "velocity": 94,
            "track": 0
        },
        {
            "pitch": 82,
            "start_beat": 1250.5,
            "duration_beat": 0.47291666666660603,
            "velocity": 94,
            "track": 0
        },
        {
            "pitch": 74,
            "start_beat": 1251.0,
            "duration_beat": 0.497916666666697,
            "velocity": 94,
            "track": 0
        },
        {
            "pitch": 79,
            "start_beat": 1251.0,
            "duration_beat": 0.497916666666697,
            "velocity": 94,
            "track": 0
        },
        {
            "pitch": 82,
            "start_beat": 1251.0,
            "duration_beat": 0.497916666666697,
            "velocity": 94,
            "track": 0
        },
        {
            "pitch": 55,
            "start_beat": 1251.0,
            "duration_beat": 0.497916666666697,
            "velocity": 94,
            "track": 1
        },
        {
            "pitch": 70,
            "start_beat": 1251.5,
            "duration_beat": 0.47291666666660603,
            "velocity": 94,
            "track": 0
        },
        {
            "pitch": 57,
            "start_beat": 1252.0,
            "duration_beat": 0.9479166666667425,
            "velocity": 94,
            "track": 1
        },
        {
            "pitch": 60,
            "start_beat": 1252.0,
            "duration_beat": 0.9479166666667425,
            "velocity": 94,
            "track": 1
        },
        {
            "pitch": 67,
            "start_beat": 1252.0,
            "duration_beat": 0.9479166666667425,
            "velocity": 94,
            "track": 1
        },
        {
            "pitch": 75,
            "start_beat": 1252.5,
            "duration_beat": 0.47291666666660603,
            "velocity": 94,
            "track": 0
        },
        {
            "pitch": 79,
            "start_beat": 1252.5,
            "duration_beat": 0.47291666666660603,
            "velocity": 94,
            "track": 0
        },
        {
            "pitch": 84,
            "start_beat": 1252.5,
            "duration_beat": 0.47291666666660603,
            "velocity": 94,
            "track": 0
        },
        {
            "pitch": 75,
            "start_beat": 1253.0,
            "duration_beat": 0.497916666666697,
            "velocity": 94,
            "track": 0
        },
        {
            "pitch": 79,
            "start_beat": 1253.0,
            "duration_beat": 0.497916666666697,
            "velocity": 94,
            "track": 0
        },
        {
            "pitch": 84,
            "start_beat": 1253.0,
            "duration_beat": 0.497916666666697,
            "velocity": 94,
            "track": 0
        },
        {
            "pitch": 45,
            "start_beat": 1253.0,
            "duration_beat": 0.497916666666697,
            "velocity": 94,
            "track": 1
        },
        {
            "pitch": 74,
            "start_beat": 1253.5,
            "duration_beat": 0.47291666666660603,
            "velocity": 94,
            "track": 0
        },
        {
            "pitch": 73,
            "start_beat": 1254.0,
            "duration_beat": 0.47291666666660603,
            "velocity": 94,
            "track": 0
        },
        {
            "pitch": 60,
            "start_beat": 1254.0,
            "duration_beat": 0.9479166666667425,
            "velocity": 94,
            "track": 1
        },
        {
            "pitch": 63,
            "start_beat": 1254.0,
            "duration_beat": 0.9479166666667425,
            "velocity": 94,
            "track": 1
        },
        {
            "pitch": 67,
            "start_beat": 1254.0,
            "duration_beat": 0.9479166666667425,
            "velocity": 94,
            "track": 1
        },
        {
            "pitch": 72,
            "start_beat": 1254.5,
            "duration_beat": 0.47291666666660603,
            "velocity": 94,
            "track": 0
        },
        {
            "pitch": 75,
            "start_beat": 1255.0,
            "duration_beat": 0.497916666666697,
            "velocity": 94,
            "track": 0
        },
        {
            "pitch": 79,
            "start_beat": 1255.0,
            "duration_beat": 0.497916666666697,
            "velocity": 94,
            "track": 0
        },
        {
            "pitch": 84,
            "start_beat": 1255.0,
            "duration_beat": 0.497916666666697,
            "velocity": 94,
            "track": 0
        },
        {
            "pitch": 57,
            "start_beat": 1255.0,
            "duration_beat": 0.497916666666697,
            "velocity": 94,
            "track": 1
        },
        {
            "pitch": 74,
            "start_beat": 1255.5,
            "duration_beat": 0.497916666666697,
            "velocity": 94,
            "track": 0
        },
        {
            "pitch": 73,
            "start_beat": 1256.0,
            "duration_beat": 0.497916666666697,
            "velocity": 94,
            "track": 0
        },
        {
            "pitch": 60,
            "start_beat": 1256.0,
            "duration_beat": 0.9479166666667425,
            "velocity": 94,
            "track": 1
        },
        {
            "pitch": 62,
            "start_beat": 1256.0,
            "duration_beat": 0.9479166666667425,
            "velocity": 94,
            "track": 1
        },
        {
            "pitch": 66,
            "start_beat": 1256.0,
            "duration_beat": 0.9479166666667425,
            "velocity": 94,
            "track": 1
        },
        {
            "pitch": 72,
            "start_beat": 1256.5,
            "duration_beat": 0.497916666666697,
            "velocity": 94,
            "track": 0
        },
        {
            "pitch": 75,
            "start_beat": 1257.0,
            "duration_beat": 0.497916666666697,
            "velocity": 94,
            "track": 0
        },
        {
            "pitch": 78,
            "start_beat": 1257.0,
            "duration_beat": 0.497916666666697,
            "velocity": 94,
            "track": 0
        },
        {
            "pitch": 84,
            "start_beat": 1257.0,
            "duration_beat": 0.497916666666697,
            "velocity": 94,
            "track": 0
        },
        {
            "pitch": 50,
            "start_beat": 1257.0,
            "duration_beat": 0.497916666666697,
            "velocity": 94,
            "track": 1
        },
        {
            "pitch": 74,
            "start_beat": 1257.5,
            "duration_beat": 0.497916666666697,
            "velocity": 94,
            "track": 0
        },
        {
            "pitch": 73,
            "start_beat": 1258.0,
            "duration_beat": 0.497916666666697,
            "velocity": 94,
            "track": 0
        },
        {
            "pitch": 60,
            "start_beat": 1258.0,
            "duration_beat": 0.9479166666667425,
            "velocity": 94,
            "track": 1
        },
        {
            "pitch": 62,
            "start_beat": 1258.0,
            "duration_beat": 0.9479166666667425,
            "velocity": 94,
            "track": 1
        },
        {
            "pitch": 66,
            "start_beat": 1258.0,
            "duration_beat": 0.9479166666667425,
            "velocity": 94,
            "track": 1
        },
        {
            "pitch": 72,
            "start_beat": 1258.5,
            "duration_beat": 0.497916666666697,
            "velocity": 94,
            "track": 0
        },
        {
            "pitch": 74,
            "start_beat": 1259.0,
            "duration_beat": 0.497916666666697,
            "velocity": 94,
            "track": 0
        },
        {
            "pitch": 78,
            "start_beat": 1259.0,
            "duration_beat": 0.497916666666697,
            "velocity": 94,
            "track": 0
        },
        {
            "pitch": 81,
            "start_beat": 1259.0,
            "duration_beat": 0.497916666666697,
            "velocity": 94,
            "track": 0
        },
        {
            "pitch": 57,
            "start_beat": 1259.0,
            "duration_beat": 0.497916666666697,
            "velocity": 94,
            "track": 1
        },
        {
            "pitch": 72,
            "start_beat": 1259.5,
            "duration_beat": 0.47291666666660603,
            "velocity": 94,
            "track": 0
        },
        {
            "pitch": 70,
            "start_beat": 1260.0,
            "duration_beat": 0.497916666666697,
            "velocity": 94,
            "track": 0
        },
        {
            "pitch": 74,
            "start_beat": 1260.0,
            "duration_beat": 0.497916666666697,
            "velocity": 94,
            "track": 0
        },
        {
            "pitch": 79,
            "start_beat": 1260.0,
            "duration_beat": 0.497916666666697,
            "velocity": 94,
            "track": 0
        },
        {
            "pitch": 82,
            "start_beat": 1260.0,
            "duration_beat": 0.497916666666697,
            "velocity": 94,
            "track": 0
        },
        {
            "pitch": 55,
            "start_beat": 1260.0,
            "duration_beat": 0.497916666666697,
            "velocity": 94,
            "track": 1
        },
        {
            "pitch": 62,
            "start_beat": 1260.0,
            "duration_beat": 0.497916666666697,
            "velocity": 94,
            "track": 1
        },
        {
            "pitch": 67,
            "start_beat": 1260.0,
            "duration_beat": 0.497916666666697,
            "velocity": 94,
            "track": 1
        },
        {
            "pitch": 80,
            "start_beat": 1261.0,
            "duration_beat": 0.6666666666667425,
            "velocity": 112,
            "track": 0
        },
        {
            "pitch": 48,
            "start_beat": 1261.0,
            "duration_beat": 2.997916666666697,
            "velocity": 94,
            "track": 1
        },
        {
            "pitch": 87,
            "start_beat": 1261.5,
            "duration_beat": 0.497916666666697,
            "velocity": 94,
            "track": 0
        },
        {
            "pitch": 92,
            "start_beat": 1261.5,
            "duration_beat": 0.497916666666697,
            "velocity": 94,
            "track": 0
        },
        {
            "pitch": 80,
            "start_beat": 1262.0,
            "duration_beat": 0.497916666666697,
            "velocity": 94,
            "track": 0
        },
        {
            "pitch": 80,
            "start_beat": 1262.5,
            "duration_beat": 0.997916666666697,
            "velocity": 94,
            "track": 0
        },
        {
            "pitch": 67,
            "start_beat": 1263.0,
            "duration_beat": 0.997916666666697,
            "velocity": 94,
            "track": 0
        },
        {
            "pitch": 56,
            "start_beat": 1263.0,
            "duration_beat": 0.997916666666697,
            "velocity": 94,
            "track": 1
        },
        {
            "pitch": 63,
            "start_beat": 1263.0,
            "duration_beat": 0.997916666666697,
            "velocity": 94,
            "track": 1
        },
        {
            "pitch": 75,
            "start_beat": 1263.5,
            "duration_beat": 0.497916666666697,
            "velocity": 94,
            "track": 0
        },
        {
            "pitch": 79,
            "start_beat": 1263.5,
            "duration_beat": 0.497916666666697,
            "velocity": 94,
            "track": 0
        },
        {
            "pitch": 66,
            "start_beat": 1264.0,
            "duration_beat": 0.997916666666697,
            "velocity": 94,
            "track": 0
        },
        {
            "pitch": 50,
            "start_beat": 1264.0,
            "duration_beat": 0.9479166666667425,
            "velocity": 94,
            "track": 1
        },
        {
            "pitch": 69,
            "start_beat": 1264.5,
            "duration_beat": 0.497916666666697,
            "velocity": 94,
            "track": 0
        },
        {
            "pitch": 78,
            "start_beat": 1264.5,
            "duration_beat": 0.497916666666697,
            "velocity": 94,
            "track": 0
        },
        {
            "pitch": 78,
            "start_beat": 1265.0,
            "duration_beat": 0.497916666666697,
            "velocity": 94,
            "track": 0
        },
        {
            "pitch": 57,
            "start_beat": 1265.0,
            "duration_beat": 0.9479166666667425,
            "velocity": 94,
            "track": 1
        },
        {
            "pitch": 60,
            "start_beat": 1265.0,
            "duration_beat": 0.9479166666667425,
            "velocity": 94,
            "track": 1
        },
        {
            "pitch": 62,
            "start_beat": 1265.0,
            "duration_beat": 0.9479166666667425,
            "velocity": 94,
            "track": 1
        },
        {
            "pitch": 81,
            "start_beat": 1265.5,
            "duration_beat": 0.497916666666697,
            "velocity": 94,
            "track": 0
        },
        {
            "pitch": 90,
            "start_beat": 1265.5,
            "duration_beat": 0.497916666666697,
            "velocity": 94,
            "track": 0
        },
        {
            "pitch": 79,
            "start_beat": 1266.0,
            "duration_beat": 0.997916666666697,
            "velocity": 94,
            "track": 0
        },
        {
            "pitch": 43,
            "start_beat": 1266.0,
            "duration_beat": 0.9479166666667425,
            "velocity": 94,
            "track": 1
        },
        {
            "pitch": 82,
            "start_beat": 1266.5,
            "duration_beat": 0.497916666666697,
            "velocity": 94,
            "track": 0
        },
        {
            "pitch": 91,
            "start_beat": 1266.5,
            "duration_beat": 0.497916666666697,
            "velocity": 94,
            "track": 0
        },
        {
            "pitch": 79,
            "start_beat": 1267.0,
            "duration_beat": 0.497916666666697,
            "velocity": 94,
            "track": 0
        },
        {
            "pitch": 55,
            "start_beat": 1267.0,
            "duration_beat": 0.9479166666667425,
            "velocity": 94,
            "track": 1
        },
        {
            "pitch": 58,
            "start_beat": 1267.0,
            "duration_beat": 0.9479166666667425,
            "velocity": 94,
            "track": 1
        },
        {
            "pitch": 62,
            "start_beat": 1267.0,
            "duration_beat": 0.9479166666667425,
            "velocity": 94,
            "track": 1
        },
        {
            "pitch": 70,
            "start_beat": 1267.5,
            "duration_beat": 0.47291666666660603,
            "velocity": 94,
            "track": 0
        },
        {
            "pitch": 79,
            "start_beat": 1267.5,
            "duration_beat": 0.47291666666660603,
            "velocity": 94,
            "track": 0
        },
        {
            "pitch": 68,
            "start_beat": 1268.0,
            "duration_beat": 0.997916666666697,
            "velocity": 94,
            "track": 0
        },
        {
            "pitch": 48,
            "start_beat": 1268.0,
            "duration_beat": 3.997916666666697,
            "velocity": 94,
            "track": 1
        },
        {
            "pitch": 75,
            "start_beat": 1268.5,
            "duration_beat": 0.497916666666697,
            "velocity": 94,
            "track": 0
        },
        {
            "pitch": 80,
            "start_beat": 1268.5,
            "duration_beat": 0.497916666666697,
            "velocity": 94,
            "track": 0
        },
        {
            "pitch": 80,
            "start_beat": 1269.0,
            "duration_beat": 0.997916666666697,
            "velocity": 94,
            "track": 0
        },
        {
            "pitch": 56,
            "start_beat": 1269.0,
            "duration_beat": 1.997916666666697,
            "velocity": 94,
            "track": 1
        },
        {
            "pitch": 63,
            "start_beat": 1269.0,
            "duration_beat": 1.997916666666697,
            "velocity": 94,
            "track": 1
        },
        {
            "pitch": 87,
            "start_beat": 1269.5,
            "duration_beat": 0.497916666666697,
            "velocity": 94,
            "track": 0
        },
        {
            "pitch": 92,
            "start_beat": 1269.5,
            "duration_beat": 0.497916666666697,
            "velocity": 94,
            "track": 0
        },
        {
            "pitch": 80,
            "start_beat": 1270.0,
            "duration_beat": 0.497916666666697,
            "velocity": 94,
            "track": 0
        },
        {
            "pitch": 75,
            "start_beat": 1270.5,
            "duration_beat": 0.497916666666697,
            "velocity": 94,
            "track": 0
        },
        {
            "pitch": 80,
            "start_beat": 1270.5,
            "duration_beat": 0.497916666666697,
            "velocity": 94,
            "track": 0
        },
        {
            "pitch": 67,
            "start_beat": 1271.0,
            "duration_beat": 0.997916666666697,
            "velocity": 94,
            "track": 0
        },
        {
            "pitch": 56,
            "start_beat": 1271.0,
            "duration_beat": 0.997916666666697,
            "velocity": 94,
            "track": 1
        },
        {
            "pitch": 63,
            "start_beat": 1271.0,
            "duration_beat": 0.997916666666697,
            "velocity": 94,
            "track": 1
        },
        {
            "pitch": 75,
            "start_beat": 1271.5,
            "duration_beat": 0.497916666666697,
            "velocity": 94,
            "track": 0
        },
        {
            "pitch": 79,
            "start_beat": 1271.5,
            "duration_beat": 0.497916666666697,
            "velocity": 94,
            "track": 0
        },
        {
            "pitch": 66,
            "start_beat": 1272.0,
            "duration_beat": 0.997916666666697,
            "velocity": 94,
            "track": 0
        },
        {
            "pitch": 50,
            "start_beat": 1272.0,
            "duration_beat": 0.9479166666667425,
            "velocity": 94,
            "track": 1
        },
        {
            "pitch": 69,
            "start_beat": 1272.5,
            "duration_beat": 0.497916666666697,
            "velocity": 94,
            "track": 0
        },
        {
            "pitch": 78,
            "start_beat": 1272.5,
            "duration_beat": 0.497916666666697,
            "velocity": 94,
            "track": 0
        },
        {
            "pitch": 78,
            "start_beat": 1273.0,
            "duration_beat": 0.497916666666697,
            "velocity": 94,
            "track": 0
        },
        {
            "pitch": 57,
            "start_beat": 1273.0,
            "duration_beat": 0.9479166666667425,
            "velocity": 94,
            "track": 1
        },
        {
            "pitch": 60,
            "start_beat": 1273.0,
            "duration_beat": 0.9479166666667425,
            "velocity": 94,
            "track": 1
        },
        {
            "pitch": 62,
            "start_beat": 1273.0,
            "duration_beat": 0.9479166666667425,
            "velocity": 94,
            "track": 1
        },
        {
            "pitch": 81,
            "start_beat": 1273.5,
            "duration_beat": 0.497916666666697,
            "velocity": 94,
            "track": 0
        },
        {
            "pitch": 90,
            "start_beat": 1273.5,
            "duration_beat": 0.497916666666697,
            "velocity": 94,
            "track": 0
        },
        {
            "pitch": 79,
            "start_beat": 1274.0,
            "duration_beat": 0.997916666666697,
            "velocity": 94,
            "track": 0
        },
        {
            "pitch": 43,
            "start_beat": 1274.0,
            "duration_beat": 0.9479166666667425,
            "velocity": 94,
            "track": 1
        },
        {
            "pitch": 82,
            "start_beat": 1274.5,
            "duration_beat": 0.497916666666697,
            "velocity": 94,
            "track": 0
        },
        {
            "pitch": 91,
            "start_beat": 1274.5,
            "duration_beat": 0.497916666666697,
            "velocity": 94,
            "track": 0
        },
        {
            "pitch": 79,
            "start_beat": 1275.0,
            "duration_beat": 0.497916666666697,
            "velocity": 94,
            "track": 0
        },
        {
            "pitch": 55,
            "start_beat": 1275.0,
            "duration_beat": 0.9479166666667425,
            "velocity": 94,
            "track": 1
        },
        {
            "pitch": 58,
            "start_beat": 1275.0,
            "duration_beat": 0.9479166666667425,
            "velocity": 94,
            "track": 1
        },
        {
            "pitch": 62,
            "start_beat": 1275.0,
            "duration_beat": 0.9479166666667425,
            "velocity": 94,
            "track": 1
        },
        {
            "pitch": 70,
            "start_beat": 1275.5,
            "duration_beat": 0.47291666666660603,
            "velocity": 94,
            "track": 0
        },
        {
            "pitch": 79,
            "start_beat": 1275.5,
            "duration_beat": 0.47291666666660603,
            "velocity": 94,
            "track": 0
        },
        {
            "pitch": 65,
            "start_beat": 1276.0,
            "duration_beat": 0.997916666666697,
            "velocity": 94,
            "track": 0
        },
        {
            "pitch": 47,
            "start_beat": 1276.0,
            "duration_beat": 1.997916666666697,
            "velocity": 94,
            "track": 1
        },
        {
            "pitch": 68,
            "start_beat": 1276.5,
            "duration_beat": 0.497916666666697,
            "velocity": 94,
            "track": 0
        },
        {
            "pitch": 77,
            "start_beat": 1276.5,
            "duration_beat": 0.497916666666697,
            "velocity": 94,
            "track": 0
        },
        {
            "pitch": 77,
            "start_beat": 1277.0,
            "duration_beat": 0.497916666666697,
            "velocity": 94,
            "track": 0
        },
        {
            "pitch": 53,
            "start_beat": 1277.0,
            "duration_beat": 0.997916666666697,
            "velocity": 94,
            "track": 1
        },
        {
            "pitch": 56,
            "start_beat": 1277.0,
            "duration_beat": 0.997916666666697,
            "velocity": 94,
            "track": 1
        },
        {
            "pitch": 62,
            "start_beat": 1277.0,
            "duration_beat": 0.997916666666697,
            "velocity": 94,
            "track": 1
        },
        {
            "pitch": 80,
            "start_beat": 1277.5,
            "duration_beat": 0.497916666666697,
            "velocity": 94,
            "track": 0
        },
        {
            "pitch": 89,
            "start_beat": 1277.5,
            "duration_beat": 0.497916666666697,
            "velocity": 94,
            "track": 0
        },
        {
            "pitch": 77,
            "start_beat": 1278.0,
            "duration_beat": 0.497916666666697,
            "velocity": 94,
            "track": 0
        },
        {
            "pitch": 48,
            "start_beat": 1278.0,
            "duration_beat": 1.997916666666697,
            "velocity": 94,
            "track": 1
        },
        {
            "pitch": 68,
            "start_beat": 1278.5,
            "duration_beat": 0.497916666666697,
            "velocity": 94,
            "track": 0
        },
        {
            "pitch": 75,
            "start_beat": 1278.5,
            "duration_beat": 0.497916666666697,
            "velocity": 94,
            "track": 0
        },
        {
            "pitch": 63,
            "start_beat": 1279.0,
            "duration_beat": 0.997916666666697,
            "velocity": 94,
            "track": 0
        },
        {
            "pitch": 51,
            "start_beat": 1279.0,
            "duration_beat": 0.997916666666697,
            "velocity": 94,
            "track": 1
        },
        {
            "pitch": 56,
            "start_beat": 1279.0,
            "duration_beat": 0.997916666666697,
            "velocity": 94,
            "track": 1
        },
        {
            "pitch": 60,
            "start_beat": 1279.0,
            "duration_beat": 0.997916666666697,
            "velocity": 94,
            "track": 1
        },
        {
            "pitch": 68,
            "start_beat": 1279.5,
            "duration_beat": 0.497916666666697,
            "velocity": 94,
            "track": 0
        },
        {
            "pitch": 75,
            "start_beat": 1279.5,
            "duration_beat": 0.497916666666697,
            "velocity": 94,
            "track": 0
        },
        {
            "pitch": 62,
            "start_beat": 1280.0,
            "duration_beat": 0.997916666666697,
            "velocity": 94,
            "track": 0
        },
        {
            "pitch": 50,
            "start_beat": 1280.0,
            "duration_beat": 1.997916666666697,
            "velocity": 94,
            "track": 1
        },
        {
            "pitch": 68,
            "start_beat": 1280.5,
            "duration_beat": 0.497916666666697,
            "velocity": 94,
            "track": 0
        },
        {
            "pitch": 74,
            "start_beat": 1280.5,
            "duration_beat": 0.497916666666697,
            "velocity": 94,
            "track": 0
        },
        {
            "pitch": 74,
            "start_beat": 1281.0,
            "duration_beat": 0.497916666666697,
            "velocity": 94,
            "track": 0
        },
        {
            "pitch": 53,
            "start_beat": 1281.0,
            "duration_beat": 0.997916666666697,
            "velocity": 94,
            "track": 1
        },
        {
            "pitch": 56,
            "start_beat": 1281.0,
            "duration_beat": 0.997916666666697,
            "velocity": 94,
            "track": 1
        },
        {
            "pitch": 59,
            "start_beat": 1281.0,
            "duration_beat": 0.997916666666697,
            "velocity": 94,
            "track": 1
        },
        {
            "pitch": 80,
            "start_beat": 1281.5,
            "duration_beat": 0.497916666666697,
            "velocity": 94,
            "track": 0
        },
        {
            "pitch": 86,
            "start_beat": 1281.5,
            "duration_beat": 0.497916666666697,
            "velocity": 94,
            "track": 0
        },
        {
            "pitch": 74,
            "start_beat": 1282.0,
            "duration_beat": 0.497916666666697,
            "velocity": 94,
            "track": 0
        },
        {
            "pitch": 51,
            "start_beat": 1282.0,
            "duration_beat": 1.997916666666697,
            "velocity": 94,
            "track": 1
        },
        {
            "pitch": 68,
            "start_beat": 1282.5,
            "duration_beat": 0.497916666666697,
            "velocity": 94,
            "track": 0
        },
        {
            "pitch": 72,
            "start_beat": 1282.5,
            "duration_beat": 0.497916666666697,
            "velocity": 94,
            "track": 0
        },
        {
            "pitch": 60,
            "start_beat": 1283.0,
            "duration_beat": 0.997916666666697,
            "velocity": 94,
            "track": 0
        },
        {
            "pitch": 56,
            "start_beat": 1283.0,
            "duration_beat": 0.997916666666697,
            "velocity": 94,
            "track": 1
        },
        {
            "pitch": 68,
            "start_beat": 1283.5,
            "duration_beat": 0.47291666666660603,
            "velocity": 94,
            "track": 0
        },
        {
            "pitch": 72,
            "start_beat": 1283.5,
            "duration_beat": 0.47291666666660603,
            "velocity": 94,
            "track": 0
        },
        {
            "pitch": 60,
            "start_beat": 1284.0,
            "duration_beat": 0.497916666666697,
            "velocity": 94,
            "track": 0
        },
        {
            "pitch": 42,
            "start_beat": 1284.0,
            "duration_beat": 0.497916666666697,
            "velocity": 94,
            "track": 1
        },
        {
            "pitch": 63,
            "start_beat": 1284.5,
            "duration_beat": 0.497916666666697,
            "velocity": 94,
            "track": 0
        },
        {
            "pitch": 72,
            "start_beat": 1284.5,
            "duration_beat": 0.497916666666697,
            "velocity": 94,
            "track": 0
        },
        {
            "pitch": 72,
            "start_beat": 1285.0,
            "duration_beat": 0.997916666666697,
            "velocity": 94,
            "track": 0
        },
        {
            "pitch": 54,
            "start_beat": 1285.0,
            "duration_beat": 0.997916666666697,
            "velocity": 94,
            "track": 1
        },
        {
            "pitch": 60,
            "start_beat": 1285.0,
            "duration_beat": 0.997916666666697,
            "velocity": 94,
            "track": 1
        },
        {
            "pitch": 63,
            "start_beat": 1285.0,
            "duration_beat": 0.997916666666697,
            "velocity": 94,
            "track": 1
        },
        {
            "pitch": 75,
            "start_beat": 1285.5,
            "duration_beat": 0.497916666666697,
            "velocity": 94,
            "track": 0
        },
        {
            "pitch": 84,
            "start_beat": 1285.5,
            "duration_beat": 0.497916666666697,
            "velocity": 94,
            "track": 0
        },
        {
            "pitch": 72,
            "start_beat": 1286.0,
            "duration_beat": 0.997916666666697,
            "velocity": 94,
            "track": 0
        },
        {
            "pitch": 55,
            "start_beat": 1286.0,
            "duration_beat": 0.9479166666667425,
            "velocity": 94,
            "track": 1
        },
        {
            "pitch": 58,
            "start_beat": 1286.0,
            "duration_beat": 0.9479166666667425,
            "velocity": 94,
            "track": 1
        },
        {
            "pitch": 62,
            "start_beat": 1286.0,
            "duration_beat": 0.9479166666667425,
            "velocity": 94,
            "track": 1
        },
        {
            "pitch": 75,
            "start_beat": 1286.5,
            "duration_beat": 0.497916666666697,
            "velocity": 94,
            "track": 0
        },
        {
            "pitch": 84,
            "start_beat": 1286.5,
            "duration_beat": 0.497916666666697,
            "velocity": 94,
            "track": 0
        },
        {
            "pitch": 70,
            "start_beat": 1287.0,
            "duration_beat": 0.997916666666697,
            "velocity": 94,
            "track": 0
        },
        {
            "pitch": 43,
            "start_beat": 1287.0,
            "duration_beat": 0.497916666666697,
            "velocity": 94,
            "track": 1
        },
        {
            "pitch": 74,
            "start_beat": 1287.5,
            "duration_beat": 0.47291666666660603,
            "velocity": 94,
            "track": 0
        },
        {
            "pitch": 82,
            "start_beat": 1287.5,
            "duration_beat": 0.47291666666660603,
            "velocity": 94,
            "track": 0
        },
        {
            "pitch": 70,
            "start_beat": 1288.0,
            "duration_beat": 0.997916666666697,
            "velocity": 94,
            "track": 0
        },
        {
            "pitch": 48,
            "start_beat": 1288.0,
            "duration_beat": 0.9479166666667425,
            "velocity": 94,
            "track": 1
        },
        {
            "pitch": 74,
            "start_beat": 1288.5,
            "duration_beat": 0.497916666666697,
            "velocity": 94,
            "track": 0
        },
        {
            "pitch": 82,
            "start_beat": 1288.5,
            "duration_beat": 0.497916666666697,
            "velocity": 94,
            "track": 0
        },
        {
            "pitch": 69,
            "start_beat": 1289.0,
            "duration_beat": 0.997916666666697,
            "velocity": 94,
            "track": 0
        },
        {
            "pitch": 57,
            "start_beat": 1289.0,
            "duration_beat": 0.9479166666667425,
            "velocity": 94,
            "track": 1
        },
        {
            "pitch": 63,
            "start_beat": 1289.0,
            "duration_beat": 0.9479166666667425,
            "velocity": 94,
            "track": 1
        },
        {
            "pitch": 67,
            "start_beat": 1289.0,
            "duration_beat": 0.9479166666667425,
            "velocity": 94,
            "track": 1
        },
        {
            "pitch": 72,
            "start_beat": 1289.5,
            "duration_beat": 0.497916666666697,
            "velocity": 94,
            "track": 0
        },
        {
            "pitch": 81,
            "start_beat": 1289.5,
            "duration_beat": 0.497916666666697,
            "velocity": 94,
            "track": 0
        },
        {
            "pitch": 67,
            "start_beat": 1290.0,
            "duration_beat": 0.997916666666697,
            "velocity": 94,
            "track": 0
        },
        {
            "pitch": 50,
            "start_beat": 1290.0,
            "duration_beat": 1.997916666666697,
            "velocity": 94,
            "track": 1
        },
        {
            "pitch": 70,
            "start_beat": 1290.5,
            "duration_beat": 0.497916666666697,
            "velocity": 94,
            "track": 0
        },
        {
            "pitch": 79,
            "start_beat": 1290.5,
            "duration_beat": 0.497916666666697,
            "velocity": 94,
            "track": 0
        },
        {
            "pitch": 66,
            "start_beat": 1291.0,
            "duration_beat": 0.997916666666697,
            "velocity": 94,
            "track": 0
        },
        {
            "pitch": 57,
            "start_beat": 1291.0,
            "duration_beat": 0.997916666666697,
            "velocity": 94,
            "track": 1
        },
        {
            "pitch": 62,
            "start_beat": 1291.0,
            "duration_beat": 0.997916666666697,
            "velocity": 94,
            "track": 1
        },
        {
            "pitch": 69,
            "start_beat": 1291.5,
            "duration_beat": 0.47291666666660603,
            "velocity": 94,
            "track": 0
        },
        {
            "pitch": 78,
            "start_beat": 1291.5,
            "duration_beat": 0.47291666666660603,
            "velocity": 94,
            "track": 0
        },
        {
            "pitch": 67,
            "start_beat": 1292.0,
            "duration_beat": 0.497916666666697,
            "velocity": 94,
            "track": 0
        },
        {
            "pitch": 70,
            "start_beat": 1292.0,
            "duration_beat": 0.497916666666697,
            "velocity": 94,
            "track": 0
        },
        {
            "pitch": 79,
            "start_beat": 1292.0,
            "duration_beat": 0.497916666666697,
            "velocity": 94,
            "track": 0
        },
        {
            "pitch": 58,
            "start_beat": 1292.0,
            "duration_beat": 0.9479166666667425,
            "velocity": 94,
            "track": 1
        },
        {
            "pitch": 62,
            "start_beat": 1292.0,
            "duration_beat": 0.9479166666667425,
            "velocity": 94,
            "track": 1
        },
        {
            "pitch": 55,
            "start_beat": 1292.0,
            "duration_beat": 0.9479166666667425,
            "velocity": 94,
            "track": 1
        },
        {
            "pitch": 80,
            "start_beat": 1293.0,
            "duration_beat": 0.6666666666667425,
            "velocity": 112,
            "track": 0
        },
        {
            "pitch": 48,
            "start_beat": 1293.0,
            "duration_beat": 2.997916666666697,
            "velocity": 94,
            "track": 1
        },
        {
            "pitch": 87,
            "start_beat": 1293.5,
            "duration_beat": 0.497916666666697,
            "velocity": 94,
            "track": 0
        },
        {
            "pitch": 92,
            "start_beat": 1293.5,
            "duration_beat": 0.497916666666697,
            "velocity": 94,
            "track": 0
        },
        {
            "pitch": 80,
            "start_beat": 1294.0,
            "duration_beat": 0.497916666666697,
            "velocity": 94,
            "track": 0
        },
        {
            "pitch": 80,
            "start_beat": 1294.5,
            "duration_beat": 0.997916666666697,
            "velocity": 94,
            "track": 0
        },
        {
            "pitch": 67,
            "start_beat": 1295.0,
            "duration_beat": 0.997916666666697,
            "velocity": 94,
            "track": 0
        },
        {
            "pitch": 56,
            "start_beat": 1295.0,
            "duration_beat": 0.997916666666697,
            "velocity": 94,
            "track": 1
        },
        {
            "pitch": 63,
            "start_beat": 1295.0,
            "duration_beat": 0.997916666666697,
            "velocity": 94,
            "track": 1
        },
        {
            "pitch": 75,
            "start_beat": 1295.5,
            "duration_beat": 0.497916666666697,
            "velocity": 94,
            "track": 0
        },
        {
            "pitch": 79,
            "start_beat": 1295.5,
            "duration_beat": 0.497916666666697,
            "velocity": 94,
            "track": 0
        },
        {
            "pitch": 66,
            "start_beat": 1296.0,
            "duration_beat": 0.997916666666697,
            "velocity": 94,
            "track": 0
        },
        {
            "pitch": 50,
            "start_beat": 1296.0,
            "duration_beat": 0.9479166666667425,
            "velocity": 94,
            "track": 1
        },
        {
            "pitch": 69,
            "start_beat": 1296.5,
            "duration_beat": 0.497916666666697,
            "velocity": 94,
            "track": 0
        },
        {
            "pitch": 78,
            "start_beat": 1296.5,
            "duration_beat": 0.497916666666697,
            "velocity": 94,
            "track": 0
        },
        {
            "pitch": 78,
            "start_beat": 1297.0,
            "duration_beat": 0.497916666666697,
            "velocity": 94,
            "track": 0
        },
        {
            "pitch": 57,
            "start_beat": 1297.0,
            "duration_beat": 0.9479166666667425,
            "velocity": 94,
            "track": 1
        },
        {
            "pitch": 60,
            "start_beat": 1297.0,
            "duration_beat": 0.9479166666667425,
            "velocity": 94,
            "track": 1
        },
        {
            "pitch": 62,
            "start_beat": 1297.0,
            "duration_beat": 0.9479166666667425,
            "velocity": 94,
            "track": 1
        },
        {
            "pitch": 81,
            "start_beat": 1297.5,
            "duration_beat": 0.497916666666697,
            "velocity": 94,
            "track": 0
        },
        {
            "pitch": 90,
            "start_beat": 1297.5,
            "duration_beat": 0.497916666666697,
            "velocity": 94,
            "track": 0
        },
        {
            "pitch": 79,
            "start_beat": 1298.0,
            "duration_beat": 0.997916666666697,
            "velocity": 94,
            "track": 0
        },
        {
            "pitch": 43,
            "start_beat": 1298.0,
            "duration_beat": 0.9479166666667425,
            "velocity": 94,
            "track": 1
        },
        {
            "pitch": 82,
            "start_beat": 1298.5,
            "duration_beat": 0.497916666666697,
            "velocity": 94,
            "track": 0
        },
        {
            "pitch": 91,
            "start_beat": 1298.5,
            "duration_beat": 0.497916666666697,
            "velocity": 94,
            "track": 0
        },
        {
            "pitch": 79,
            "start_beat": 1299.0,
            "duration_beat": 0.497916666666697,
            "velocity": 94,
            "track": 0
        },
        {
            "pitch": 55,
            "start_beat": 1299.0,
            "duration_beat": 0.9479166666667425,
            "velocity": 94,
            "track": 1
        },
        {
            "pitch": 58,
            "start_beat": 1299.0,
            "duration_beat": 0.9479166666667425,
            "velocity": 94,
            "track": 1
        },
        {
            "pitch": 62,
            "start_beat": 1299.0,
            "duration_beat": 0.9479166666667425,
            "velocity": 94,
            "track": 1
        },
        {
            "pitch": 70,
            "start_beat": 1299.5,
            "duration_beat": 0.47291666666660603,
            "velocity": 94,
            "track": 0
        },
        {
            "pitch": 79,
            "start_beat": 1299.5,
            "duration_beat": 0.47291666666660603,
            "velocity": 94,
            "track": 0
        },
        {
            "pitch": 68,
            "start_beat": 1300.0,
            "duration_beat": 0.997916666666697,
            "velocity": 94,
            "track": 0
        },
        {
            "pitch": 48,
            "start_beat": 1300.0,
            "duration_beat": 1.997916666666697,
            "velocity": 94,
            "track": 1
        },
        {
            "pitch": 75,
            "start_beat": 1300.5,
            "duration_beat": 0.497916666666697,
            "velocity": 94,
            "track": 0
        },
        {
            "pitch": 80,
            "start_beat": 1300.5,
            "duration_beat": 0.497916666666697,
            "velocity": 94,
            "track": 0
        },
        {
            "pitch": 80,
            "start_beat": 1301.0,
            "duration_beat": 0.997916666666697,
            "velocity": 94,
            "track": 0
        },
        {
            "pitch": 56,
            "start_beat": 1301.0,
            "duration_beat": 2.997916666666697,
            "velocity": 94,
            "track": 1
        },
        {
            "pitch": 63,
            "start_beat": 1301.0,
            "duration_beat": 2.997916666666697,
            "velocity": 94,
            "track": 1
        },
        {
            "pitch": 87,
            "start_beat": 1301.5,
            "duration_beat": 0.497916666666697,
            "velocity": 94,
            "track": 0
        },
        {
            "pitch": 92,
            "start_beat": 1301.5,
            "duration_beat": 0.497916666666697,
            "velocity": 94,
            "track": 0
        },
        {
            "pitch": 80,
            "start_beat": 1302.0,
            "duration_beat": 0.497916666666697,
            "velocity": 94,
            "track": 0
        },
        {
            "pitch": 50,
            "start_beat": 1302.0,
            "duration_beat": 0.997916666666697,
            "velocity": 94,
            "track": 1
        },
        {
            "pitch": 75,
            "start_beat": 1302.5,
            "duration_beat": 0.497916666666697,
            "velocity": 94,
            "track": 0
        },
        {
            "pitch": 80,
            "start_beat": 1302.5,
            "duration_beat": 0.497916666666697,
            "velocity": 94,
            "track": 0
        },
        {
            "pitch": 67,
            "start_beat": 1303.0,
            "duration_beat": 0.997916666666697,
            "velocity": 94,
            "track": 0
        },
        {
            "pitch": 51,
            "start_beat": 1303.0,
            "duration_beat": 0.997916666666697,
            "velocity": 94,
            "track": 1
        },
        {
            "pitch": 72,
            "start_beat": 1303.5,
            "duration_beat": 0.497916666666697,
            "velocity": 94,
            "track": 0
        },
        {
            "pitch": 79,
            "start_beat": 1303.5,
            "duration_beat": 0.497916666666697,
            "velocity": 94,
            "track": 0
        },
        {
            "pitch": 66,
            "start_beat": 1304.0,
            "duration_beat": 0.997916666666697,
            "velocity": 94,
            "track": 0
        },
        {
            "pitch": 50,
            "start_beat": 1304.0,
            "duration_beat": 0.9479166666667425,
            "velocity": 94,
            "track": 1
        },
        {
            "pitch": 69,
            "start_beat": 1304.5,
            "duration_beat": 0.497916666666697,
            "velocity": 94,
            "track": 0
        },
        {
            "pitch": 78,
            "start_beat": 1304.5,
            "duration_beat": 0.497916666666697,
            "velocity": 94,
            "track": 0
        },
        {
            "pitch": 78,
            "start_beat": 1305.0,
            "duration_beat": 0.497916666666697,
            "velocity": 94,
            "track": 0
        },
        {
            "pitch": 57,
            "start_beat": 1305.0,
            "duration_beat": 0.9479166666667425,
            "velocity": 94,
            "track": 1
        },
        {
            "pitch": 60,
            "start_beat": 1305.0,
            "duration_beat": 0.9479166666667425,
            "velocity": 94,
            "track": 1
        },
        {
            "pitch": 62,
            "start_beat": 1305.0,
            "duration_beat": 0.9479166666667425,
            "velocity": 94,
            "track": 1
        },
        {
            "pitch": 81,
            "start_beat": 1305.5,
            "duration_beat": 0.497916666666697,
            "velocity": 94,
            "track": 0
        },
        {
            "pitch": 90,
            "start_beat": 1305.5,
            "duration_beat": 0.497916666666697,
            "velocity": 94,
            "track": 0
        },
        {
            "pitch": 79,
            "start_beat": 1306.0,
            "duration_beat": 0.997916666666697,
            "velocity": 94,
            "track": 0
        },
        {
            "pitch": 43,
            "start_beat": 1306.0,
            "duration_beat": 0.9479166666667425,
            "velocity": 94,
            "track": 1
        },
        {
            "pitch": 82,
            "start_beat": 1306.5,
            "duration_beat": 0.497916666666697,
            "velocity": 94,
            "track": 0
        },
        {
            "pitch": 91,
            "start_beat": 1306.5,
            "duration_beat": 0.497916666666697,
            "velocity": 94,
            "track": 0
        },
        {
            "pitch": 79,
            "start_beat": 1307.0,
            "duration_beat": 0.497916666666697,
            "velocity": 94,
            "track": 0
        },
        {
            "pitch": 55,
            "start_beat": 1307.0,
            "duration_beat": 0.9479166666667425,
            "velocity": 94,
            "track": 1
        },
        {
            "pitch": 58,
            "start_beat": 1307.0,
            "duration_beat": 0.9479166666667425,
            "velocity": 94,
            "track": 1
        },
        {
            "pitch": 62,
            "start_beat": 1307.0,
            "duration_beat": 0.9479166666667425,
            "velocity": 94,
            "track": 1
        },
        {
            "pitch": 70,
            "start_beat": 1307.5,
            "duration_beat": 0.47291666666660603,
            "velocity": 94,
            "track": 0
        },
        {
            "pitch": 79,
            "start_beat": 1307.5,
            "duration_beat": 0.47291666666660603,
            "velocity": 94,
            "track": 0
        },
        {
            "pitch": 65,
            "start_beat": 1308.0,
            "duration_beat": 0.997916666666697,
            "velocity": 94,
            "track": 0
        },
        {
            "pitch": 35,
            "start_beat": 1308.0,
            "duration_beat": 0.497916666666697,
            "velocity": 94,
            "track": 1
        },
        {
            "pitch": 47,
            "start_beat": 1308.0,
            "duration_beat": 0.497916666666697,
            "velocity": 94,
            "track": 1
        },
        {
            "pitch": 68,
            "start_beat": 1308.5,
            "duration_beat": 0.497916666666697,
            "velocity": 94,
            "track": 0
        },
        {
            "pitch": 77,
            "start_beat": 1308.5,
            "duration_beat": 0.497916666666697,
            "velocity": 94,
            "track": 0
        },
        {
            "pitch": 77,
            "start_beat": 1309.0,
            "duration_beat": 0.497916666666697,
            "velocity": 94,
            "track": 0
        },
        {
            "pitch": 53,
            "start_beat": 1309.0,
            "duration_beat": 0.9479166666667425,
            "velocity": 94,
            "track": 1
        },
        {
            "pitch": 56,
            "start_beat": 1309.0,
            "duration_beat": 0.9479166666667425,
            "velocity": 94,
            "track": 1
        },
        {
            "pitch": 62,
            "start_beat": 1309.0,
            "duration_beat": 0.9479166666667425,
            "velocity": 94,
            "track": 1
        },
        {
            "pitch": 80,
            "start_beat": 1309.5,
            "duration_beat": 0.497916666666697,
            "velocity": 94,
            "track": 0
        },
        {
            "pitch": 89,
            "start_beat": 1309.5,
            "duration_beat": 0.497916666666697,
            "velocity": 94,
            "track": 0
        },
        {
            "pitch": 77,
            "start_beat": 1310.0,
            "duration_beat": 0.497916666666697,
            "velocity": 94,
            "track": 0
        },
        {
            "pitch": 36,
            "start_beat": 1310.0,
            "duration_beat": 0.497916666666697,
            "velocity": 94,
            "track": 1
        },
        {
            "pitch": 48,
            "start_beat": 1310.0,
            "duration_beat": 0.497916666666697,
            "velocity": 94,
            "track": 1
        },
        {
            "pitch": 67,
            "start_beat": 1310.5,
            "duration_beat": 0.497916666666697,
            "velocity": 94,
            "track": 0
        },
        {
            "pitch": 75,
            "start_beat": 1310.5,
            "duration_beat": 0.497916666666697,
            "velocity": 94,
            "track": 0
        },
        {
            "pitch": 63,
            "start_beat": 1311.0,
            "duration_beat": 0.997916666666697,
            "velocity": 94,
            "track": 0
        },
        {
            "pitch": 51,
            "start_beat": 1311.0,
            "duration_beat": 0.9479166666667425,
            "velocity": 94,
            "track": 1
        },
        {
            "pitch": 55,
            "start_beat": 1311.0,
            "duration_beat": 0.9479166666667425,
            "velocity": 94,
            "track": 1
        },
        {
            "pitch": 60,
            "start_beat": 1311.0,
            "duration_beat": 0.9479166666667425,
            "velocity": 94,
            "track": 1
        },
        {
            "pitch": 67,
            "start_beat": 1311.5,
            "duration_beat": 0.497916666666697,
            "velocity": 94,
            "track": 0
        },
        {
            "pitch": 75,
            "start_beat": 1311.5,
            "duration_beat": 0.497916666666697,
            "velocity": 94,
            "track": 0
        },
        {
            "pitch": 62,
            "start_beat": 1312.0,
            "duration_beat": 0.997916666666697,
            "velocity": 94,
            "track": 0
        },
        {
            "pitch": 38,
            "start_beat": 1312.0,
            "duration_beat": 0.497916666666697,
            "velocity": 94,
            "track": 1
        },
        {
            "pitch": 50,
            "start_beat": 1312.0,
            "duration_beat": 0.497916666666697,
            "velocity": 94,
            "track": 1
        },
        {
            "pitch": 66,
            "start_beat": 1312.5,
            "duration_beat": 0.497916666666697,
            "velocity": 94,
            "track": 0
        },
        {
            "pitch": 74,
            "start_beat": 1312.5,
            "duration_beat": 0.497916666666697,
            "velocity": 94,
            "track": 0
        },
        {
            "pitch": 74,
            "start_beat": 1313.0,
            "duration_beat": 0.497916666666697,
            "velocity": 94,
            "track": 0
        },
        {
            "pitch": 54,
            "start_beat": 1313.0,
            "duration_beat": 0.9479166666667425,
            "velocity": 94,
            "track": 1
        },
        {
            "pitch": 57,
            "start_beat": 1313.0,
            "duration_beat": 0.9479166666667425,
            "velocity": 94,
            "track": 1
        },
        {
            "pitch": 78,
            "start_beat": 1313.5,
            "duration_beat": 0.497916666666697,
            "velocity": 94,
            "track": 0
        },
        {
            "pitch": 86,
            "start_beat": 1313.5,
            "duration_beat": 0.497916666666697,
            "velocity": 94,
            "track": 0
        },
        {
            "pitch": 74,
            "start_beat": 1314.0,
            "duration_beat": 0.497916666666697,
            "velocity": 94,
            "track": 0
        },
        {
            "pitch": 40,
            "start_beat": 1314.0,
            "duration_beat": 0.497916666666697,
            "velocity": 94,
            "track": 1
        },
        {
            "pitch": 52,
            "start_beat": 1314.0,
            "duration_beat": 0.497916666666697,
            "velocity": 94,
            "track": 1
        },
        {
            "pitch": 64,
            "start_beat": 1314.5,
            "duration_beat": 0.497916666666697,
            "velocity": 94,
            "track": 0
        },
        {
            "pitch": 73,
            "start_beat": 1314.5,
            "duration_beat": 0.497916666666697,
            "velocity": 94,
            "track": 0
        },
        {
            "pitch": 61,
            "start_beat": 1315.0,
            "duration_beat": 0.997916666666697,
            "velocity": 94,
            "track": 0
        },
        {
            "pitch": 55,
            "start_beat": 1315.0,
            "duration_beat": 0.9479166666667425,
            "velocity": 94,
            "track": 1
        },
        {
            "pitch": 58,
            "start_beat": 1315.0,
            "duration_beat": 0.9479166666667425,
            "velocity": 94,
            "track": 1
        },
        {
            "pitch": 64,
            "start_beat": 1315.5,
            "duration_beat": 0.497916666666697,
            "velocity": 94,
            "track": 0
        },
        {
            "pitch": 73,
            "start_beat": 1315.5,
            "duration_beat": 0.497916666666697,
            "velocity": 94,
            "track": 0
        },
        {
            "pitch": 60,
            "start_beat": 1316.0,
            "duration_beat": 0.997916666666697,
            "velocity": 94,
            "track": 0
        },
        {
            "pitch": 42,
            "start_beat": 1316.0,
            "duration_beat": 0.497916666666697,
            "velocity": 94,
            "track": 1
        },
        {
            "pitch": 54,
            "start_beat": 1316.0,
            "duration_beat": 0.497916666666697,
            "velocity": 94,
            "track": 1
        },
        {
            "pitch": 63,
            "start_beat": 1316.5,
            "duration_beat": 0.47291666666660603,
            "velocity": 94,
            "track": 0
        },
        {
            "pitch": 72,
            "start_beat": 1316.5,
            "duration_beat": 0.47291666666660603,
            "velocity": 94,
            "track": 0
        },
        {
            "pitch": 72,
            "start_beat": 1317.0,
            "duration_beat": 0.997916666666697,
            "velocity": 94,
            "track": 0
        },
        {
            "pitch": 54,
            "start_beat": 1317.0,
            "duration_beat": 0.9479166666667425,
            "velocity": 94,
            "track": 1
        },
        {
            "pitch": 60,
            "start_beat": 1317.0,
            "duration_beat": 0.9479166666667425,
            "velocity": 94,
            "track": 1
        },
        {
            "pitch": 63,
            "start_beat": 1317.0,
            "duration_beat": 0.9479166666667425,
            "velocity": 94,
            "track": 1
        },
        {
            "pitch": 75,
            "start_beat": 1317.5,
            "duration_beat": 0.497916666666697,
            "velocity": 94,
            "track": 0
        },
        {
            "pitch": 84,
            "start_beat": 1317.5,
            "duration_beat": 0.497916666666697,
            "velocity": 94,
            "track": 0
        },
        {
            "pitch": 71,
            "start_beat": 1318.0,
            "duration_beat": 0.997916666666697,
            "velocity": 94,
            "track": 0
        },
        {
            "pitch": 55,
            "start_beat": 1318.0,
            "duration_beat": 0.9479166666667425,
            "velocity": 94,
            "track": 1
        },
        {
            "pitch": 60,
            "start_beat": 1318.0,
            "duration_beat": 0.9479166666667425,
            "velocity": 94,
            "track": 1
        },
        {
            "pitch": 63,
            "start_beat": 1318.0,
            "duration_beat": 0.9479166666667425,
            "velocity": 94,
            "track": 1
        },
        {
            "pitch": 75,
            "start_beat": 1318.5,
            "duration_beat": 0.497916666666697,
            "velocity": 94,
            "track": 0
        },
        {
            "pitch": 83,
            "start_beat": 1318.5,
            "duration_beat": 0.497916666666697,
            "velocity": 94,
            "track": 0
        },
        {
            "pitch": 72,
            "start_beat": 1319.0,
            "duration_beat": 0.997916666666697,
            "velocity": 95,
            "track": 0
        },
        {
            "pitch": 43,
            "start_beat": 1319.0,
            "duration_beat": 0.497916666666697,
            "velocity": 95,
            "track": 1
        },
        {
            "pitch": 55,
            "start_beat": 1319.0,
            "duration_beat": 0.497916666666697,
            "velocity": 95,
            "track": 1
        },
        {
            "pitch": 75,
            "start_beat": 1319.5,
            "duration_beat": 0.497916666666697,
            "velocity": 95,
            "track": 0
        },
        {
            "pitch": 84,
            "start_beat": 1319.5,
            "duration_beat": 0.497916666666697,
            "velocity": 95,
            "track": 0
        },
        {
            "pitch": 72,
            "start_beat": 1320.0,
            "duration_beat": 0.997916666666697,
            "velocity": 96,
            "track": 0
        },
        {
            "pitch": 44,
            "start_beat": 1320.0,
            "duration_beat": 0.497916666666697,
            "velocity": 96,
            "track": 1
        },
        {
            "pitch": 56,
            "start_beat": 1320.0,
            "duration_beat": 0.497916666666697,
            "velocity": 96,
            "track": 1
        },
        {
            "pitch": 75,
            "start_beat": 1320.5,
            "duration_beat": 0.47291666666660603,
            "velocity": 97,
            "track": 0
        },
        {
            "pitch": 84,
            "start_beat": 1320.5,
            "duration_beat": 0.47291666666660603,
            "velocity": 97,
            "track": 0
        },
        {
            "pitch": 75,
            "start_beat": 1321.0,
            "duration_beat": 0.997916666666697,
            "velocity": 97,
            "track": 0
        },
        {
            "pitch": 56,
            "start_beat": 1321.0,
            "duration_beat": 0.9479166666667425,
            "velocity": 97,
            "track": 1
        },
        {
            "pitch": 63,
            "start_beat": 1321.0,
            "duration_beat": 0.9479166666667425,
            "velocity": 97,
            "track": 1
        },
        {
            "pitch": 66,
            "start_beat": 1321.0,
            "duration_beat": 0.9479166666667425,
            "velocity": 97,
            "track": 1
        },
        {
            "pitch": 78,
            "start_beat": 1321.5,
            "duration_beat": 0.497916666666697,
            "velocity": 98,
            "track": 0
        },
        {
            "pitch": 87,
            "start_beat": 1321.5,
            "duration_beat": 0.497916666666697,
            "velocity": 98,
            "track": 0
        },
        {
            "pitch": 74,
            "start_beat": 1322.0,
            "duration_beat": 0.997916666666697,
            "velocity": 99,
            "track": 0
        },
        {
            "pitch": 57,
            "start_beat": 1322.0,
            "duration_beat": 0.9479166666667425,
            "velocity": 99,
            "track": 1
        },
        {
            "pitch": 63,
            "start_beat": 1322.0,
            "duration_beat": 0.9479166666667425,
            "velocity": 99,
            "track": 1
        },
        {
            "pitch": 66,
            "start_beat": 1322.0,
            "duration_beat": 0.9479166666667425,
            "velocity": 99,
            "track": 1
        },
        {
            "pitch": 78,
            "start_beat": 1322.5,
            "duration_beat": 0.497916666666697,
            "velocity": 99,
            "track": 0
        },
        {
            "pitch": 86,
            "start_beat": 1322.5,
            "duration_beat": 0.497916666666697,
            "velocity": 99,
            "track": 0
        },
        {
            "pitch": 75,
            "start_beat": 1323.0,
            "duration_beat": 0.997916666666697,
            "velocity": 100,
            "track": 0
        },
        {
            "pitch": 45,
            "start_beat": 1323.0,
            "duration_beat": 0.497916666666697,
            "velocity": 100,
            "track": 1
        },
        {
            "pitch": 57,
            "start_beat": 1323.0,
            "duration_beat": 0.497916666666697,
            "velocity": 100,
            "track": 1
        },
        {
            "pitch": 78,
            "start_beat": 1323.5,
            "duration_beat": 0.497916666666697,
            "velocity": 101,
            "track": 0
        },
        {
            "pitch": 87,
            "start_beat": 1323.5,
            "duration_beat": 0.497916666666697,
            "velocity": 101,
            "track": 0
        },
        {
            "pitch": 75,
            "start_beat": 1324.0,
            "duration_beat": 0.997916666666697,
            "velocity": 101,
            "track": 0
        },
        {
            "pitch": 46,
            "start_beat": 1324.0,
            "duration_beat": 0.497916666666697,
            "velocity": 101,
            "track": 1
        },
        {
            "pitch": 58,
            "start_beat": 1324.0,
            "duration_beat": 0.497916666666697,
            "velocity": 101,
            "track": 1
        },
        {
            "pitch": 78,
            "start_beat": 1324.5,
            "duration_beat": 0.47291666666660603,
            "velocity": 102,
            "track": 0
        },
        {
            "pitch": 87,
            "start_beat": 1324.5,
            "duration_beat": 0.47291666666660603,
            "velocity": 102,
            "track": 0
        },
        {
            "pitch": 78,
            "start_beat": 1325.0,
            "duration_beat": 0.997916666666697,
            "velocity": 103,
            "track": 0
        },
        {
            "pitch": 58,
            "start_beat": 1325.0,
            "duration_beat": 0.9479166666667425,
            "velocity": 103,
            "track": 1
        },
        {
            "pitch": 63,
            "start_beat": 1325.0,
            "duration_beat": 0.9479166666667425,
            "velocity": 103,
            "track": 1
        },
        {
            "pitch": 66,
            "start_beat": 1325.0,
            "duration_beat": 0.9479166666667425,
            "velocity": 103,
            "track": 1
        },
        {
            "pitch": 82,
            "start_beat": 1325.5,
            "duration_beat": 0.497916666666697,
            "velocity": 103,
            "track": 0
        },
        {
            "pitch": 90,
            "start_beat": 1325.5,
            "duration_beat": 0.497916666666697,
            "velocity": 103,
            "track": 0
        },
        {
            "pitch": 77,
            "start_beat": 1326.0,
            "duration_beat": 0.997916666666697,
            "velocity": 104,
            "track": 0
        },
        {
            "pitch": 59,
            "start_beat": 1326.0,
            "duration_beat": 0.9479166666667425,
            "velocity": 104,
            "track": 1
        },
        {
            "pitch": 63,
            "start_beat": 1326.0,
            "duration_beat": 0.9479166666667425,
            "velocity": 104,
            "track": 1
        },
        {
            "pitch": 69,
            "start_beat": 1326.0,
            "duration_beat": 0.9479166666667425,
            "velocity": 104,
            "track": 1
        },
        {
            "pitch": 80,
            "start_beat": 1326.5,
            "duration_beat": 0.497916666666697,
            "velocity": 104,
            "track": 0
        },
        {
            "pitch": 89,
            "start_beat": 1326.5,
            "duration_beat": 0.497916666666697,
            "velocity": 104,
            "track": 0
        },
        {
            "pitch": 78,
            "start_beat": 1327.0,
            "duration_beat": 0.997916666666697,
            "velocity": 105,
            "track": 0
        },
        {
            "pitch": 47,
            "start_beat": 1327.0,
            "duration_beat": 0.497916666666697,
            "velocity": 105,
            "track": 1
        },
        {
            "pitch": 59,
            "start_beat": 1327.0,
            "duration_beat": 0.497916666666697,
            "velocity": 105,
            "track": 1
        },
        {
            "pitch": 81,
            "start_beat": 1327.5,
            "duration_beat": 0.497916666666697,
            "velocity": 106,
            "track": 0
        },
        {
            "pitch": 90,
            "start_beat": 1327.5,
            "duration_beat": 0.497916666666697,
            "velocity": 106,
            "track": 0
        },
        {
            "pitch": 78,
            "start_beat": 1328.0,
            "duration_beat": 0.997916666666697,
            "velocity": 106,
            "track": 0
        },
        {
            "pitch": 48,
            "start_beat": 1328.0,
            "duration_beat": 0.9479166666667425,
            "velocity": 106,
            "track": 1
        },
        {
            "pitch": 60,
            "start_beat": 1328.0,
            "duration_beat": 0.9479166666667425,
            "velocity": 106,
            "track": 1
        },
        {
            "pitch": 81,
            "start_beat": 1328.5,
            "duration_beat": 0.47291666666660603,
            "velocity": 107,
            "track": 0
        },
        {
            "pitch": 90,
            "start_beat": 1328.5,
            "duration_beat": 0.47291666666660603,
            "velocity": 107,
            "track": 0
        },
        {
            "pitch": 81,
            "start_beat": 1329.0,
            "duration_beat": 0.997916666666697,
            "velocity": 108,
            "track": 0
        },
        {
            "pitch": 60,
            "start_beat": 1329.0,
            "duration_beat": 1.997916666666697,
            "velocity": 108,
            "track": 1
        },
        {
            "pitch": 62,
            "start_beat": 1329.0,
            "duration_beat": 1.997916666666697,
            "velocity": 108,
            "track": 1
        },
        {
            "pitch": 66,
            "start_beat": 1329.0,
            "duration_beat": 1.997916666666697,
            "velocity": 108,
            "track": 1
        },
        {
            "pitch": 69,
            "start_beat": 1329.0,
            "duration_beat": 1.997916666666697,
            "velocity": 108,
            "track": 1
        },
        {
            "pitch": 84,
            "start_beat": 1329.5,
            "duration_beat": 0.497916666666697,
            "velocity": 108,
            "track": 0
        },
        {
            "pitch": 93,
            "start_beat": 1329.5,
            "duration_beat": 0.497916666666697,
            "velocity": 108,
            "track": 0
        },
        {
            "pitch": 82,
            "start_beat": 1330.0,
            "duration_beat": 0.997916666666697,
            "velocity": 109,
            "track": 0
        },
        {
            "pitch": 86,
            "start_beat": 1330.5,
            "duration_beat": 0.497916666666697,
            "velocity": 110,
            "track": 0
        },
        {
            "pitch": 94,
            "start_beat": 1330.5,
            "duration_beat": 0.497916666666697,
            "velocity": 110,
            "track": 0
        },
        {
            "pitch": 84,
            "start_beat": 1331.0,
            "duration_beat": 0.997916666666697,
            "velocity": 110,
            "track": 0
        },
        {
            "pitch": 60,
            "start_beat": 1331.0,
            "duration_beat": 0.9479166666667425,
            "velocity": 110,
            "track": 1
        },
        {
            "pitch": 62,
            "start_beat": 1331.0,
            "duration_beat": 0.9479166666667425,
            "velocity": 110,
            "track": 1
        },
        {
            "pitch": 66,
            "start_beat": 1331.0,
            "duration_beat": 0.9479166666667425,
            "velocity": 110,
            "track": 1
        },
        {
            "pitch": 69,
            "start_beat": 1331.0,
            "duration_beat": 0.9479166666667425,
            "velocity": 110,
            "track": 1
        },
        {
            "pitch": 87,
            "start_beat": 1331.5,
            "duration_beat": 0.47291666666660603,
            "velocity": 111,
            "track": 0
        },
        {
            "pitch": 96,
            "start_beat": 1331.5,
            "duration_beat": 0.47291666666660603,
            "velocity": 111,
            "track": 0
        },
        {
            "pitch": 84,
            "start_beat": 1332.0,
            "duration_beat": 0.997916666666697,
            "velocity": 112,
            "track": 0
        },
        {
            "pitch": 46,
            "start_beat": 1332.0,
            "duration_beat": 0.497916666666697,
            "velocity": 112,
            "track": 1
        },
        {
            "pitch": 58,
            "start_beat": 1332.0,
            "duration_beat": 0.497916666666697,
            "velocity": 112,
            "track": 1
        },
        {
            "pitch": 87,
            "start_beat": 1332.5,
            "duration_beat": 0.497916666666697,
            "velocity": 113,
            "track": 0
        },
        {
            "pitch": 96,
            "start_beat": 1332.5,
            "duration_beat": 0.497916666666697,
            "velocity": 113,
            "track": 0
        },
        {
            "pitch": 82,
            "start_beat": 1333.0,
            "duration_beat": 0.997916666666697,
            "velocity": 115,
            "track": 0
        },
        {
            "pitch": 55,
            "start_beat": 1333.0,
            "duration_beat": 0.9479166666667425,
            "velocity": 115,
            "track": 1
        },
        {
            "pitch": 62,
            "start_beat": 1333.0,
            "duration_beat": 0.9479166666667425,
            "velocity": 115,
            "track": 1
        },
        {
            "pitch": 67,
            "start_beat": 1333.0,
            "duration_beat": 0.9479166666667425,
            "velocity": 115,
            "track": 1
        },
        {
            "pitch": 86,
            "start_beat": 1333.5,
            "duration_beat": 0.47291666666660603,
            "velocity": 117,
            "track": 0
        },
        {
            "pitch": 94,
            "start_beat": 1333.5,
            "duration_beat": 0.47291666666660603,
            "velocity": 117,
            "track": 0
        },
        {
            "pitch": 82,
            "start_beat": 1334.0,
            "duration_beat": 0.997916666666697,
            "velocity": 119,
            "track": 0
        },
        {
            "pitch": 48,
            "start_beat": 1334.0,
            "duration_beat": 0.497916666666697,
            "velocity": 119,
            "track": 1
        },
        {
            "pitch": 60,
            "start_beat": 1334.0,
            "duration_beat": 0.497916666666697,
            "velocity": 119,
            "track": 1
        },
        {
            "pitch": 86,
            "start_beat": 1334.5,
            "duration_beat": 0.497916666666697,
            "velocity": 121,
            "track": 0
        },
        {
            "pitch": 94,
            "start_beat": 1334.5,
            "duration_beat": 0.497916666666697,
            "velocity": 121,
            "track": 0
        },
        {
            "pitch": 81,
            "start_beat": 1335.0,
            "duration_beat": 0.997916666666697,
            "velocity": 123,
            "track": 0
        },
        {
            "pitch": 57,
            "start_beat": 1335.0,
            "duration_beat": 0.9479166666667425,
            "velocity": 123,
            "track": 1
        },
        {
            "pitch": 63,
            "start_beat": 1335.0,
            "duration_beat": 0.9479166666667425,
            "velocity": 123,
            "track": 1
        },
        {
            "pitch": 67,
            "start_beat": 1335.0,
            "duration_beat": 0.9479166666667425,
            "velocity": 123,
            "track": 1
        },
        {
            "pitch": 84,
            "start_beat": 1335.5,
            "duration_beat": 0.47291666666660603,
            "velocity": 125,
            "track": 0
        },
        {
            "pitch": 93,
            "start_beat": 1335.5,
            "duration_beat": 0.47291666666660603,
            "velocity": 125,
            "track": 0
        },
        {
            "pitch": 81,
            "start_beat": 1336.0,
            "duration_beat": 0.997916666666697,
            "velocity": 127,
            "track": 0
        },
        {
            "pitch": 50,
            "start_beat": 1336.0,
            "duration_beat": 0.497916666666697,
            "velocity": 127,
            "track": 1
        },
        {
            "pitch": 62,
            "start_beat": 1336.0,
            "duration_beat": 0.497916666666697,
            "velocity": 127,
            "track": 1
        },
        {
            "pitch": 84,
            "start_beat": 1336.5,
            "duration_beat": 0.497916666666697,
            "velocity": 127,
            "track": 0
        },
        {
            "pitch": 93,
            "start_beat": 1336.5,
            "duration_beat": 0.497916666666697,
            "velocity": 127,
            "track": 0
        },
        {
            "pitch": 79,
            "start_beat": 1337.0,
            "duration_beat": 0.997916666666697,
            "velocity": 127,
            "track": 0
        },
        {
            "pitch": 62,
            "start_beat": 1337.0,
            "duration_beat": 0.9479166666667425,
            "velocity": 127,
            "track": 1
        },
        {
            "pitch": 67,
            "start_beat": 1337.0,
            "duration_beat": 0.9479166666667425,
            "velocity": 127,
            "track": 1
        },
        {
            "pitch": 70,
            "start_beat": 1337.0,
            "duration_beat": 0.9479166666667425,
            "velocity": 127,
            "track": 1
        },
        {
            "pitch": 82,
            "start_beat": 1337.5,
            "duration_beat": 0.47291666666660603,
            "velocity": 127,
            "track": 0
        },
        {
            "pitch": 91,
            "start_beat": 1337.5,
            "duration_beat": 0.47291666666660603,
            "velocity": 127,
            "track": 0
        },
        {
            "pitch": 79,
            "start_beat": 1338.0,
            "duration_beat": 0.997916666666697,
            "velocity": 127,
            "track": 0
        },
        {
            "pitch": 48,
            "start_beat": 1338.0,
            "duration_beat": 0.497916666666697,
            "velocity": 127,
            "track": 1
        },
        {
            "pitch": 60,
            "start_beat": 1338.0,
            "duration_beat": 0.497916666666697,
            "velocity": 127,
            "track": 1
        },
        {
            "pitch": 82,
            "start_beat": 1338.5,
            "duration_beat": 0.497916666666697,
            "velocity": 127,
            "track": 0
        },
        {
            "pitch": 91,
            "start_beat": 1338.5,
            "duration_beat": 0.497916666666697,
            "velocity": 127,
            "track": 0
        },
        {
            "pitch": 74,
            "start_beat": 1339.0,
            "duration_beat": 0.997916666666697,
            "velocity": 127,
            "track": 0
        },
        {
            "pitch": 60,
            "start_beat": 1339.0,
            "duration_beat": 0.9479166666667425,
            "velocity": 127,
            "track": 1
        },
        {
            "pitch": 62,
            "start_beat": 1339.0,
            "duration_beat": 0.9479166666667425,
            "velocity": 127,
            "track": 1
        },
        {
            "pitch": 66,
            "start_beat": 1339.0,
            "duration_beat": 0.9479166666667425,
            "velocity": 127,
            "track": 1
        },
        {
            "pitch": 69,
            "start_beat": 1339.0,
            "duration_beat": 0.9479166666667425,
            "velocity": 127,
            "track": 1
        },
        {
            "pitch": 78,
            "start_beat": 1339.5,
            "duration_beat": 0.47291666666660603,
            "velocity": 127,
            "track": 0
        },
        {
            "pitch": 86,
            "start_beat": 1339.5,
            "duration_beat": 0.47291666666660603,
            "velocity": 127,
            "track": 0
        },
        {
            "pitch": 46,
            "start_beat": 1340.0,
            "duration_beat": 0.497916666666697,
            "velocity": 127,
            "track": 1
        },
        {
            "pitch": 58,
            "start_beat": 1340.0,
            "duration_beat": 0.497916666666697,
            "velocity": 127,
            "track": 1
        },
        {
            "pitch": 82,
            "start_beat": 1340.5,
            "duration_beat": 0.497916666666697,
            "velocity": 127,
            "track": 0
        },
        {
            "pitch": 86,
            "start_beat": 1341.0,
            "duration_beat": 0.497916666666697,
            "velocity": 127,
            "track": 0
        },
        {
            "pitch": 94,
            "start_beat": 1341.0,
            "duration_beat": 0.497916666666697,
            "velocity": 127,
            "track": 0
        },
        {
            "pitch": 55,
            "start_beat": 1341.0,
            "duration_beat": 0.9479166666667425,
            "velocity": 127,
            "track": 1
        },
        {
            "pitch": 62,
            "start_beat": 1341.0,
            "duration_beat": 0.9479166666667425,
            "velocity": 127,
            "track": 1
        },
        {
            "pitch": 67,
            "start_beat": 1341.0,
            "duration_beat": 0.9479166666667425,
            "velocity": 127,
            "track": 1
        },
        {
            "pitch": 82,
            "start_beat": 1341.5,
            "duration_beat": 0.497916666666697,
            "velocity": 127,
            "track": 0
        },
        {
            "pitch": 85,
            "start_beat": 1342.0,
            "duration_beat": 0.497916666666697,
            "velocity": 127,
            "track": 0
        },
        {
            "pitch": 94,
            "start_beat": 1342.0,
            "duration_beat": 0.497916666666697,
            "velocity": 127,
            "track": 0
        },
        {
            "pitch": 48,
            "start_beat": 1342.0,
            "duration_beat": 0.497916666666697,
            "velocity": 127,
            "track": 1
        },
        {
            "pitch": 60,
            "start_beat": 1342.0,
            "duration_beat": 0.497916666666697,
            "velocity": 127,
            "track": 1
        },
        {
            "pitch": 82,
            "start_beat": 1342.5,
            "duration_beat": 0.497916666666697,
            "velocity": 127,
            "track": 0
        },
        {
            "pitch": 84,
            "start_beat": 1343.0,
            "duration_beat": 0.497916666666697,
            "velocity": 127,
            "track": 0
        },
        {
            "pitch": 93,
            "start_beat": 1343.0,
            "duration_beat": 0.497916666666697,
            "velocity": 127,
            "track": 0
        },
        {
            "pitch": 57,
            "start_beat": 1343.0,
            "duration_beat": 0.9479166666667425,
            "velocity": 127,
            "track": 1
        },
        {
            "pitch": 63,
            "start_beat": 1343.0,
            "duration_beat": 0.9479166666667425,
            "velocity": 127,
            "track": 1
        },
        {
            "pitch": 67,
            "start_beat": 1343.0,
            "duration_beat": 0.9479166666667425,
            "velocity": 127,
            "track": 1
        },
        {
            "pitch": 81,
            "start_beat": 1343.5,
            "duration_beat": 0.497916666666697,
            "velocity": 127,
            "track": 0
        },
        {
            "pitch": 84,
            "start_beat": 1344.0,
            "duration_beat": 0.497916666666697,
            "velocity": 127,
            "track": 0
        },
        {
            "pitch": 93,
            "start_beat": 1344.0,
            "duration_beat": 0.497916666666697,
            "velocity": 127,
            "track": 0
        },
        {
            "pitch": 50,
            "start_beat": 1344.0,
            "duration_beat": 0.497916666666697,
            "velocity": 127,
            "track": 1
        },
        {
            "pitch": 62,
            "start_beat": 1344.0,
            "duration_beat": 0.497916666666697,
            "velocity": 127,
            "track": 1
        },
        {
            "pitch": 81,
            "start_beat": 1344.5,
            "duration_beat": 0.497916666666697,
            "velocity": 127,
            "track": 0
        },
        {
            "pitch": 82,
            "start_beat": 1345.0,
            "duration_beat": 0.497916666666697,
            "velocity": 127,
            "track": 0
        },
        {
            "pitch": 91,
            "start_beat": 1345.0,
            "duration_beat": 0.497916666666697,
            "velocity": 127,
            "track": 0
        },
        {
            "pitch": 62,
            "start_beat": 1345.0,
            "duration_beat": 0.9479166666667425,
            "velocity": 127,
            "track": 1
        },
        {
            "pitch": 67,
            "start_beat": 1345.0,
            "duration_beat": 0.9479166666667425,
            "velocity": 127,
            "track": 1
        },
        {
            "pitch": 70,
            "start_beat": 1345.0,
            "duration_beat": 0.9479166666667425,
            "velocity": 127,
            "track": 1
        },
        {
            "pitch": 79,
            "start_beat": 1345.5,
            "duration_beat": 0.497916666666697,
            "velocity": 127,
            "track": 0
        },
        {
            "pitch": 82,
            "start_beat": 1346.0,
            "duration_beat": 0.497916666666697,
            "velocity": 127,
            "track": 0
        },
        {
            "pitch": 91,
            "start_beat": 1346.0,
            "duration_beat": 0.497916666666697,
            "velocity": 127,
            "track": 0
        },
        {
            "pitch": 48,
            "start_beat": 1346.0,
            "duration_beat": 0.497916666666697,
            "velocity": 127,
            "track": 1
        },
        {
            "pitch": 60,
            "start_beat": 1346.0,
            "duration_beat": 0.497916666666697,
            "velocity": 127,
            "track": 1
        },
        {
            "pitch": 79,
            "start_beat": 1346.5,
            "duration_beat": 0.497916666666697,
            "velocity": 127,
            "track": 0
        },
        {
            "pitch": 78,
            "start_beat": 1347.0,
            "duration_beat": 0.497916666666697,
            "velocity": 127,
            "track": 0
        },
        {
            "pitch": 86,
            "start_beat": 1347.0,
            "duration_beat": 0.497916666666697,
            "velocity": 127,
            "track": 0
        },
        {
            "pitch": 60,
            "start_beat": 1347.0,
            "duration_beat": 0.9479166666667425,
            "velocity": 127,
            "track": 1
        },
        {
            "pitch": 62,
            "start_beat": 1347.0,
            "duration_beat": 0.9479166666667425,
            "velocity": 127,
            "track": 1
        },
        {
            "pitch": 66,
            "start_beat": 1347.0,
            "duration_beat": 0.9479166666667425,
            "velocity": 127,
            "track": 1
        },
        {
            "pitch": 69,
            "start_beat": 1347.0,
            "duration_beat": 0.9479166666667425,
            "velocity": 127,
            "track": 1
        },
        {
            "pitch": 74,
            "start_beat": 1347.5,
            "duration_beat": 0.47291666666660603,
            "velocity": 127,
            "track": 0
        },
        {
            "pitch": 46,
            "start_beat": 1348.0,
            "duration_beat": 0.497916666666697,
            "velocity": 127,
            "track": 1
        },
        {
            "pitch": 58,
            "start_beat": 1348.0,
            "duration_beat": 0.497916666666697,
            "velocity": 127,
            "track": 1
        },
        {
            "pitch": 86,
            "start_beat": 1348.5,
            "duration_beat": 0.47291666666660603,
            "velocity": 127,
            "track": 0
        },
        {
            "pitch": 91,
            "start_beat": 1349.0,
            "duration_beat": 0.47291666666660603,
            "velocity": 127,
            "track": 0
        },
        {
            "pitch": 94,
            "start_beat": 1349.0,
            "duration_beat": 0.47291666666660603,
            "velocity": 127,
            "track": 0
        },
        {
            "pitch": 98,
            "start_beat": 1349.0,
            "duration_beat": 0.47291666666660603,
            "velocity": 127,
            "track": 0
        },
        {
            "pitch": 86,
            "start_beat": 1349.5,
            "duration_beat": 0.47291666666660603,
            "velocity": 127,
            "track": 0
        },
        {
            "pitch": 79,
            "start_beat": 1350.0,
            "duration_beat": 0.497916666666697,
            "velocity": 127,
            "track": 1
        },
        {
            "pitch": 82,
            "start_beat": 1350.0,
            "duration_beat": 0.497916666666697,
            "velocity": 127,
            "track": 1
        },
        {
            "pitch": 86,
            "start_beat": 1350.0,
            "duration_beat": 0.497916666666697,
            "velocity": 127,
            "track": 1
        },
        {
            "pitch": 74,
            "start_beat": 1350.5,
            "duration_beat": 0.47291666666660603,
            "velocity": 127,
            "track": 1
        },
        {
            "pitch": 79,
            "start_beat": 1351.0,
            "duration_beat": 0.497916666666697,
            "velocity": 127,
            "track": 0
        },
        {
            "pitch": 82,
            "start_beat": 1351.0,
            "duration_beat": 0.497916666666697,
            "velocity": 127,
            "track": 0
        },
        {
            "pitch": 86,
            "start_beat": 1351.0,
            "duration_beat": 0.497916666666697,
            "velocity": 127,
            "track": 0
        },
        {
            "pitch": 74,
            "start_beat": 1351.5,
            "duration_beat": 0.47291666666660603,
            "velocity": 127,
            "track": 0
        },
        {
            "pitch": 67,
            "start_beat": 1352.0,
            "duration_beat": 0.497916666666697,
            "velocity": 127,
            "track": 1
        },
        {
            "pitch": 70,
            "start_beat": 1352.0,
            "duration_beat": 0.497916666666697,
            "velocity": 127,
            "track": 1
        },
        {
            "pitch": 74,
            "start_beat": 1352.0,
            "duration_beat": 0.497916666666697,
            "velocity": 127,
            "track": 1
        },
        {
            "pitch": 62,
            "start_beat": 1352.5,
            "duration_beat": 0.47291666666660603,
            "velocity": 127,
            "track": 1
        },
        {
            "pitch": 67,
            "start_beat": 1353.0,
            "duration_beat": 0.497916666666697,
            "velocity": 127,
            "track": 0
        },
        {
            "pitch": 70,
            "start_beat": 1353.0,
            "duration_beat": 0.497916666666697,
            "velocity": 127,
            "track": 0
        },
        {
            "pitch": 74,
            "start_beat": 1353.0,
            "duration_beat": 0.497916666666697,
            "velocity": 127,
            "track": 0
        },
        {
            "pitch": 62,
            "start_beat": 1353.5,
            "duration_beat": 0.47291666666660603,
            "velocity": 127,
            "track": 0
        },
        {
            "pitch": 55,
            "start_beat": 1354.0,
            "duration_beat": 0.497916666666697,
            "velocity": 127,
            "track": 1
        },
        {
            "pitch": 58,
            "start_beat": 1354.0,
            "duration_beat": 0.497916666666697,
            "velocity": 127,
            "track": 1
        },
        {
            "pitch": 62,
            "start_beat": 1354.0,
            "duration_beat": 0.497916666666697,
            "velocity": 127,
            "track": 1
        },
        {
            "pitch": 50,
            "start_beat": 1354.5,
            "duration_beat": 0.47291666666660603,
            "velocity": 127,
            "track": 1
        },
        {
            "pitch": 55,
            "start_beat": 1355.0,
            "duration_beat": 0.497916666666697,
            "velocity": 127,
            "track": 0
        },
        {
            "pitch": 58,
            "start_beat": 1355.0,
            "duration_beat": 0.497916666666697,
            "velocity": 127,
            "track": 0
        },
        {
            "pitch": 62,
            "start_beat": 1355.0,
            "duration_beat": 0.497916666666697,
            "velocity": 127,
            "track": 0
        },
        {
            "pitch": 50,
            "start_beat": 1355.5,
            "duration_beat": 0.47291666666660603,
            "velocity": 127,
            "track": 0
        },
        {
            "pitch": 30,
            "start_beat": 1356.0,
            "duration_beat": 0.497916666666697,
            "velocity": 127,
            "track": 1
        },
        {
            "pitch": 42,
            "start_beat": 1356.0,
            "duration_beat": 0.497916666666697,
            "velocity": 127,
            "track": 1
        },
        {
            "pitch": 31,
            "start_beat": 1356.5,
            "duration_beat": 0.47291666666660603,
            "velocity": 127,
            "track": 1
        },
        {
            "pitch": 43,
            "start_beat": 1356.5,
            "duration_beat": 0.47291666666660603,
            "velocity": 127,
            "track": 1
        },
        {
            "pitch": 55,
            "start_beat": 1357.0,
            "duration_beat": 0.497916666666697,
            "velocity": 112,
            "track": 0
        },
        {
            "pitch": 58,
            "start_beat": 1357.0,
            "duration_beat": 0.497916666666697,
            "velocity": 112,
            "track": 0
        },
        {
            "pitch": 64,
            "start_beat": 1357.0,
            "duration_beat": 0.497916666666697,
            "velocity": 112,
            "track": 0
        },
        {
            "pitch": 50,
            "start_beat": 1357.5,
            "duration_beat": 0.47291666666660603,
            "velocity": 112,
            "track": 0
        },
        {
            "pitch": 37,
            "start_beat": 1358.0,
            "duration_beat": 0.497916666666697,
            "velocity": 112,
            "track": 1
        },
        {
            "pitch": 49,
            "start_beat": 1358.0,
            "duration_beat": 0.497916666666697,
            "velocity": 112,
            "track": 1
        },
        {
            "pitch": 38,
            "start_beat": 1358.5,
            "duration_beat": 0.47291666666660603,
            "velocity": 112,
            "track": 1
        },
        {
            "pitch": 50,
            "start_beat": 1358.5,
            "duration_beat": 0.47291666666660603,
            "velocity": 112,
            "track": 1
        },
        {
            "pitch": 55,
            "start_beat": 1359.0,
            "duration_beat": 0.497916666666697,
            "velocity": 112,
            "track": 0
        },
        {
            "pitch": 58,
            "start_beat": 1359.0,
            "duration_beat": 0.497916666666697,
            "velocity": 112,
            "track": 0
        },
        {
            "pitch": 64,
            "start_beat": 1359.0,
            "duration_beat": 0.497916666666697,
            "velocity": 112,
            "track": 0
        },
        {
            "pitch": 50,
            "start_beat": 1359.5,
            "duration_beat": 0.47291666666660603,
            "velocity": 112,
            "track": 0
        },
        {
            "pitch": 30,
            "start_beat": 1360.0,
            "duration_beat": 0.497916666666697,
            "velocity": 112,
            "track": 1
        },
        {
            "pitch": 42,
            "start_beat": 1360.0,
            "duration_beat": 0.497916666666697,
            "velocity": 112,
            "track": 1
        },
        {
            "pitch": 31,
            "start_beat": 1360.5,
            "duration_beat": 0.47291666666660603,
            "velocity": 112,
            "track": 1
        },
        {
            "pitch": 43,
            "start_beat": 1360.5,
            "duration_beat": 0.47291666666660603,
            "velocity": 112,
            "track": 1
        },
        {
            "pitch": 55,
            "start_beat": 1361.0,
            "duration_beat": 0.497916666666697,
            "velocity": 112,
            "track": 0
        },
        {
            "pitch": 58,
            "start_beat": 1361.0,
            "duration_beat": 0.497916666666697,
            "velocity": 112,
            "track": 0
        },
        {
            "pitch": 64,
            "start_beat": 1361.0,
            "duration_beat": 0.497916666666697,
            "velocity": 112,
            "track": 0
        },
        {
            "pitch": 50,
            "start_beat": 1361.5,
            "duration_beat": 0.47291666666660603,
            "velocity": 112,
            "track": 0
        },
        {
            "pitch": 37,
            "start_beat": 1362.0,
            "duration_beat": 0.497916666666697,
            "velocity": 112,
            "track": 1
        },
        {
            "pitch": 49,
            "start_beat": 1362.0,
            "duration_beat": 0.497916666666697,
            "velocity": 112,
            "track": 1
        },
        {
            "pitch": 38,
            "start_beat": 1362.5,
            "duration_beat": 0.47291666666660603,
            "velocity": 112,
            "track": 1
        },
        {
            "pitch": 50,
            "start_beat": 1362.5,
            "duration_beat": 0.47291666666660603,
            "velocity": 112,
            "track": 1
        },
        {
            "pitch": 55,
            "start_beat": 1363.0,
            "duration_beat": 0.497916666666697,
            "velocity": 112,
            "track": 0
        },
        {
            "pitch": 58,
            "start_beat": 1363.0,
            "duration_beat": 0.497916666666697,
            "velocity": 112,
            "track": 0
        },
        {
            "pitch": 64,
            "start_beat": 1363.0,
            "duration_beat": 0.497916666666697,
            "velocity": 112,
            "track": 0
        },
        {
            "pitch": 50,
            "start_beat": 1363.5,
            "duration_beat": 0.47291666666660603,
            "velocity": 112,
            "track": 0
        },
        {
            "pitch": 26,
            "start_beat": 1364.0,
            "duration_beat": 1.8979166666665606,
            "velocity": 112,
            "track": 1
        },
        {
            "pitch": 38,
            "start_beat": 1364.0,
            "duration_beat": 1.8979166666665606,
            "velocity": 112,
            "track": 1
        },
        {
            "pitch": 55,
            "start_beat": 1366.0,
            "duration_beat": 0.3312499999999545,
            "velocity": 112,
            "track": 0
        },
        {
            "pitch": 56,
            "start_beat": 1366.3333333333333,
            "duration_beat": 0.3312500000001819,
            "velocity": 112,
            "track": 0
        },
        {
            "pitch": 57,
            "start_beat": 1366.6666666666667,
            "duration_beat": 0.3312499999999545,
            "velocity": 112,
            "track": 0
        },
        {
            "pitch": 58,
            "start_beat": 1367.0,
            "duration_beat": 0.3312499999999545,
            "velocity": 112,
            "track": 0
        },
        {
            "pitch": 59,
            "start_beat": 1367.3333333333333,
            "duration_beat": 0.3312500000001819,
            "velocity": 112,
            "track": 0
        },
        {
            "pitch": 60,
            "start_beat": 1367.6666666666667,
            "duration_beat": 0.3312499999999545,
            "velocity": 112,
            "track": 0
        },
        {
            "pitch": 61,
            "start_beat": 1368.0,
            "duration_beat": 0.3312499999999545,
            "velocity": 112,
            "track": 0
        },
        {
            "pitch": 62,
            "start_beat": 1368.3333333333333,
            "duration_beat": 0.3312500000001819,
            "velocity": 112,
            "track": 0
        },
        {
            "pitch": 63,
            "start_beat": 1368.6666666666667,
            "duration_beat": 0.3312499999999545,
            "velocity": 112,
            "track": 0
        },
        {
            "pitch": 64,
            "start_beat": 1369.0,
            "duration_beat": 0.3312499999999545,
            "velocity": 112,
            "track": 0
        },
        {
            "pitch": 65,
            "start_beat": 1369.3333333333333,
            "duration_beat": 0.3312500000001819,
            "velocity": 112,
            "track": 0
        },
        {
            "pitch": 66,
            "start_beat": 1369.6666666666667,
            "duration_beat": 0.3312499999999545,
            "velocity": 112,
            "track": 0
        },
        {
            "pitch": 67,
            "start_beat": 1370.0,
            "duration_beat": 0.3312499999999545,
            "velocity": 112,
            "track": 0
        },
        {
            "pitch": 55,
            "start_beat": 1370.0,
            "duration_beat": 1.4229166666666515,
            "velocity": 112,
            "track": 1
        },
        {
            "pitch": 58,
            "start_beat": 1370.0,
            "duration_beat": 1.4229166666666515,
            "velocity": 112,
            "track": 1
        },
        {
            "pitch": 61,
            "start_beat": 1370.0,
            "duration_beat": 1.4229166666666515,
            "velocity": 112,
            "track": 1
        },
        {
            "pitch": 64,
            "start_beat": 1370.0,
            "duration_beat": 1.4229166666666515,
            "velocity": 112,
            "track": 1
        },
        {
            "pitch": 68,
            "start_beat": 1370.3333333333333,
            "duration_beat": 0.3312500000001819,
            "velocity": 113,
            "track": 0
        },
        {
            "pitch": 69,
            "start_beat": 1370.6666666666667,
            "duration_beat": 0.3312499999999545,
            "velocity": 114,
            "track": 0
        },
        {
            "pitch": 70,
            "start_beat": 1371.0,
            "duration_beat": 0.3312499999999545,
            "velocity": 115,
            "track": 0
        },
        {
            "pitch": 71,
            "start_beat": 1371.3333333333333,
            "duration_beat": 0.3312500000001819,
            "velocity": 117,
            "track": 0
        },
        {
            "pitch": 55,
            "start_beat": 1371.5,
            "duration_beat": 0.47291666666660603,
            "velocity": 117,
            "track": 1
        },
        {
            "pitch": 58,
            "start_beat": 1371.5,
            "duration_beat": 0.47291666666660603,
            "velocity": 117,
            "track": 1
        },
        {
            "pitch": 61,
            "start_beat": 1371.5,
            "duration_beat": 0.47291666666660603,
            "velocity": 117,
            "track": 1
        },
        {
            "pitch": 64,
            "start_beat": 1371.5,
            "duration_beat": 0.47291666666660603,
            "velocity": 117,
            "track": 1
        },
        {
            "pitch": 72,
            "start_beat": 1371.6666666666667,
            "duration_beat": 0.3312499999999545,
            "velocity": 118,
            "track": 0
        },
        {
            "pitch": 73,
            "start_beat": 1372.0,
            "duration_beat": 0.3312499999999545,
            "velocity": 119,
            "track": 0
        },
        {
            "pitch": 55,
            "start_beat": 1372.0,
            "duration_beat": 1.8979166666665606,
            "velocity": 119,
            "track": 1
        },
        {
            "pitch": 58,
            "start_beat": 1372.0,
            "duration_beat": 1.8979166666665606,
            "velocity": 119,
            "track": 1
        },
        {
            "pitch": 61,
            "start_beat": 1372.0,
            "duration_beat": 1.8979166666665606,
            "velocity": 119,
            "track": 1
        },
        {
            "pitch": 66,
            "start_beat": 1372.0,
            "duration_beat": 1.8979166666665606,
            "velocity": 119,
            "track": 1
        },
        {
            "pitch": 74,
            "start_beat": 1372.3333333333333,
            "duration_beat": 0.3312500000001819,
            "velocity": 120,
            "track": 0
        },
        {
            "pitch": 75,
            "start_beat": 1372.6666666666667,
            "duration_beat": 0.3312499999999545,
            "velocity": 122,
            "track": 0
        },
        {
            "pitch": 76,
            "start_beat": 1373.0,
            "duration_beat": 0.3312499999999545,
            "velocity": 123,
            "track": 0
        },
        {
            "pitch": 77,
            "start_beat": 1373.3333333333333,
            "duration_beat": 0.3312500000001819,
            "velocity": 124,
            "track": 0
        },
        {
            "pitch": 78,
            "start_beat": 1373.6666666666667,
            "duration_beat": 0.3312499999999545,
            "velocity": 125,
            "track": 0
        },
        {
            "pitch": 79,
            "start_beat": 1374.0,
            "duration_beat": 0.3312499999999545,
            "velocity": 127,
            "track": 0
        },
        {
            "pitch": 55,
            "start_beat": 1374.0,
            "duration_beat": 1.4229166666666515,
            "velocity": 127,
            "track": 1
        },
        {
            "pitch": 58,
            "start_beat": 1374.0,
            "duration_beat": 1.4229166666666515,
            "velocity": 127,
            "track": 1
        },
        {
            "pitch": 61,
            "start_beat": 1374.0,
            "duration_beat": 1.4229166666666515,
            "velocity": 127,
            "track": 1
        },
        {
            "pitch": 64,
            "start_beat": 1374.0,
            "duration_beat": 1.4229166666666515,
            "velocity": 127,
            "track": 1
        },
        {
            "pitch": 80,
            "start_beat": 1374.3333333333333,
            "duration_beat": 0.3312500000001819,
            "velocity": 127,
            "track": 0
        },
        {
            "pitch": 81,
            "start_beat": 1374.6666666666667,
            "duration_beat": 0.3312499999999545,
            "velocity": 127,
            "track": 0
        },
        {
            "pitch": 82,
            "start_beat": 1375.0,
            "duration_beat": 0.3312499999999545,
            "velocity": 127,
            "track": 0
        },
        {
            "pitch": 83,
            "start_beat": 1375.3333333333333,
            "duration_beat": 0.3312500000001819,
            "velocity": 127,
            "track": 0
        },
        {
            "pitch": 55,
            "start_beat": 1375.5,
            "duration_beat": 0.47291666666660603,
            "velocity": 127,
            "track": 1
        },
        {
            "pitch": 58,
            "start_beat": 1375.5,
            "duration_beat": 0.47291666666660603,
            "velocity": 127,
            "track": 1
        },
        {
            "pitch": 61,
            "start_beat": 1375.5,
            "duration_beat": 0.47291666666660603,
            "velocity": 127,
            "track": 1
        },
        {
            "pitch": 64,
            "start_beat": 1375.5,
            "duration_beat": 0.47291666666660603,
            "velocity": 127,
            "track": 1
        },
        {
            "pitch": 84,
            "start_beat": 1375.6666666666667,
            "duration_beat": 0.3312499999999545,
            "velocity": 127,
            "track": 0
        },
        {
            "pitch": 85,
            "start_beat": 1376.0,
            "duration_beat": 0.3312499999999545,
            "velocity": 127,
            "track": 0
        },
        {
            "pitch": 55,
            "start_beat": 1376.0,
            "duration_beat": 1.8979166666665606,
            "velocity": 127,
            "track": 1
        },
        {
            "pitch": 58,
            "start_beat": 1376.0,
            "duration_beat": 1.8979166666665606,
            "velocity": 127,
            "track": 1
        },
        {
            "pitch": 61,
            "start_beat": 1376.0,
            "duration_beat": 1.8979166666665606,
            "velocity": 127,
            "track": 1
        },
        {
            "pitch": 66,
            "start_beat": 1376.0,
            "duration_beat": 1.8979166666665606,
            "velocity": 127,
            "track": 1
        },
        {
            "pitch": 86,
            "start_beat": 1376.3333333333333,
            "duration_beat": 0.3312500000001819,
            "velocity": 127,
            "track": 0
        },
        {
            "pitch": 87,
            "start_beat": 1376.6666666666667,
            "duration_beat": 0.3312499999999545,
            "velocity": 127,
            "track": 0
        },
        {
            "pitch": 88,
            "start_beat": 1377.0,
            "duration_beat": 0.3312499999999545,
            "velocity": 127,
            "track": 0
        },
        {
            "pitch": 89,
            "start_beat": 1377.3333333333333,
            "duration_beat": 0.3312500000001819,
            "velocity": 127,
            "track": 0
        },
        {
            "pitch": 90,
            "start_beat": 1377.6666666666667,
            "duration_beat": 0.3312499999999545,
            "velocity": 127,
            "track": 0
        },
        {
            "pitch": 91,
            "start_beat": 1378.0,
            "duration_beat": 0.3312499999999545,
            "velocity": 127,
            "track": 0
        },
        {
            "pitch": 55,
            "start_beat": 1378.0,
            "duration_beat": 1.8979166666665606,
            "velocity": 127,
            "track": 1
        },
        {
            "pitch": 58,
            "start_beat": 1378.0,
            "duration_beat": 1.8979166666665606,
            "velocity": 127,
            "track": 1
        },
        {
            "pitch": 61,
            "start_beat": 1378.0,
            "duration_beat": 1.8979166666665606,
            "velocity": 127,
            "track": 1
        },
        {
            "pitch": 64,
            "start_beat": 1378.0,
            "duration_beat": 1.8979166666665606,
            "velocity": 127,
            "track": 1
        },
        {
            "pitch": 92,
            "start_beat": 1378.3333333333333,
            "duration_beat": 0.3312500000001819,
            "velocity": 127,
            "track": 0
        },
        {
            "pitch": 93,
            "start_beat": 1378.6666666666667,
            "duration_beat": 0.3312499999999545,
            "velocity": 127,
            "track": 0
        },
        {
            "pitch": 94,
            "start_beat": 1379.0,
            "duration_beat": 0.3312499999999545,
            "velocity": 127,
            "track": 0
        },
        {
            "pitch": 95,
            "start_beat": 1379.3333333333333,
            "duration_beat": 0.3312500000001819,
            "velocity": 127,
            "track": 0
        },
        {
            "pitch": 97,
            "start_beat": 1379.6666666666667,
            "duration_beat": 0.314583333333303,
            "velocity": 127,
            "track": 0
        },
        {
            "pitch": 99,
            "start_beat": 1380.0,
            "duration_beat": 0.27291666666656056,
            "velocity": 112,
            "track": 0
        },
        {
            "pitch": 50,
            "start_beat": 1380.0,
            "duration_beat": 11.797916666666652,
            "velocity": 112,
            "track": 1
        },
        {
            "pitch": 57,
            "start_beat": 1380.1020833333334,
            "duration_beat": 11.693749999999909,
            "velocity": 111,
            "track": 1
        },
        {
            "pitch": 60,
            "start_beat": 1380.2145833333334,
            "duration_beat": 11.581249999999955,
            "velocity": 110,
            "track": 1
        },
        {
            "pitch": 98,
            "start_beat": 1380.275,
            "duration_beat": 0.27291666666656056,
            "velocity": 109,
            "track": 0
        },
        {
            "pitch": 67,
            "start_beat": 1380.33125,
            "duration_beat": 7.664583333333439,
            "velocity": 108,
            "track": 1
        },
        {
            "pitch": 101,
            "start_beat": 1380.5520833333333,
            "duration_beat": 0.27291666666678793,
            "velocity": 105,
            "track": 0
        },
        {
            "pitch": 99,
            "start_beat": 1380.8270833333333,
            "duration_beat": 0.27291666666656056,
            "velocity": 101,
            "track": 0
        },
        {
            "pitch": 98,
            "start_beat": 1381.1041666666667,
            "duration_beat": 0.27291666666656056,
            "velocity": 98,
            "track": 0
        },
        {
            "pitch": 96,
            "start_beat": 1381.3791666666666,
            "duration_beat": 0.27291666666678793,
            "velocity": 94,
            "track": 0
        },
        {
            "pitch": 95,
            "start_beat": 1381.6541666666667,
            "duration_beat": 0.27291666666656056,
            "velocity": 94,
            "track": 0
        },
        {
            "pitch": 98,
            "start_beat": 1381.93125,
            "duration_beat": 0.27291666666656056,
            "velocity": 94,
            "track": 0
        },
        {
            "pitch": 96,
            "start_beat": 1382.20625,
            "duration_beat": 0.27291666666678793,
            "velocity": 94,
            "track": 0
        },
        {
            "pitch": 94,
            "start_beat": 1382.4833333333333,
            "duration_beat": 0.27291666666656056,
            "velocity": 94,
            "track": 0
        },
        {
            "pitch": 93,
            "start_beat": 1382.7583333333334,
            "duration_beat": 0.27291666666656056,
            "velocity": 94,
            "track": 0
        },
        {
            "pitch": 91,
            "start_beat": 1383.0354166666666,
            "duration_beat": 0.27291666666678793,
            "velocity": 94,
            "track": 0
        },
        {
            "pitch": 90,
            "start_beat": 1383.3104166666667,
            "duration_beat": 0.27291666666656056,
            "velocity": 94,
            "track": 0
        },
        {
            "pitch": 93,
            "start_beat": 1383.5854166666666,
            "duration_beat": 0.27291666666678793,
            "velocity": 94,
            "track": 0
        },
        {
            "pitch": 91,
            "start_beat": 1383.8625,
            "duration_beat": 0.27291666666678793,
            "velocity": 94,
            "track": 0
        },
        {
            "pitch": 90,
            "start_beat": 1384.1375,
            "duration_beat": 0.27291666666656056,
            "velocity": 94,
            "track": 0
        },
        {
            "pitch": 87,
            "start_beat": 1384.4145833333334,
            "duration_beat": 0.27291666666656056,
            "velocity": 94,
            "track": 0
        },
        {
            "pitch": 86,
            "start_beat": 1384.6895833333333,
            "duration_beat": 0.27291666666678793,
            "velocity": 94,
            "track": 0
        },
        {
            "pitch": 87,
            "start_beat": 1384.9645833333334,
            "duration_beat": 0.27291666666656056,
            "velocity": 94,
            "track": 0
        },
        {
            "pitch": 86,
            "start_beat": 1385.2416666666666,
            "duration_beat": 0.27291666666678793,
            "velocity": 94,
            "track": 0
        },
        {
            "pitch": 89,
            "start_beat": 1385.5166666666667,
            "duration_beat": 0.27291666666678793,
            "velocity": 94,
            "track": 0
        },
        {
            "pitch": 87,
            "start_beat": 1385.79375,
            "duration_beat": 0.27291666666656056,
            "velocity": 94,
            "track": 0
        },
        {
            "pitch": 86,
            "start_beat": 1386.06875,
            "duration_beat": 0.27291666666678793,
            "velocity": 94,
            "track": 0
        },
        {
            "pitch": 84,
            "start_beat": 1386.3458333333333,
            "duration_beat": 0.27291666666678793,
            "velocity": 94,
            "track": 0
        },
        {
            "pitch": 83,
            "start_beat": 1386.6208333333334,
            "duration_beat": 0.27291666666656056,
            "velocity": 94,
            "track": 0
        },
        {
            "pitch": 86,
            "start_beat": 1386.8958333333333,
            "duration_beat": 0.27291666666678793,
            "velocity": 94,
            "track": 0
        },
        {
            "pitch": 84,
            "start_beat": 1387.1729166666667,
            "duration_beat": 0.27291666666678793,
            "velocity": 94,
            "track": 0
        },
        {
            "pitch": 82,
            "start_beat": 1387.4479166666667,
            "duration_beat": 0.27291666666656056,
            "velocity": 94,
            "track": 0
        },
        {
            "pitch": 81,
            "start_beat": 1387.725,
            "duration_beat": 0.27291666666678793,
            "velocity": 94,
            "track": 0
        },
        {
            "pitch": 79,
            "start_beat": 1388.0,
            "duration_beat": 0.2020833333333485,
            "velocity": 94,
            "track": 0
        },
        {
            "pitch": 66,
            "start_beat": 1388.0,
            "duration_beat": 3.7979166666666515,
            "velocity": 94,
            "track": 1
        },
        {
            "pitch": 78,
            "start_beat": 1388.2041666666667,
            "duration_beat": 0.2020833333333485,
            "velocity": 94,
            "track": 0
        },
        {
            "pitch": 81,
            "start_beat": 1388.4104166666666,
            "duration_beat": 0.2020833333333485,
            "velocity": 94,
            "track": 0
        },
        {
            "pitch": 79,
            "start_beat": 1388.6145833333333,
            "duration_beat": 0.2020833333333485,
            "velocity": 94,
            "track": 0
        },
        {
            "pitch": 78,
            "start_beat": 1388.8208333333334,
            "duration_beat": 0.20208333333312112,
            "velocity": 94,
            "track": 0
        },
        {
            "pitch": 75,
            "start_beat": 1389.025,
            "duration_beat": 0.2020833333333485,
            "velocity": 94,
            "track": 0
        },
        {
            "pitch": 74,
            "start_beat": 1389.23125,
            "duration_beat": 0.2020833333333485,
            "velocity": 94,
            "track": 0
        },
        {
            "pitch": 75,
            "start_beat": 1389.4354166666667,
            "duration_beat": 0.2020833333333485,
            "velocity": 94,
            "track": 0
        },
        {
            "pitch": 74,
            "start_beat": 1389.6416666666667,
            "duration_beat": 0.2020833333333485,
            "velocity": 94,
            "track": 0
        },
        {
            "pitch": 77,
            "start_beat": 1389.8458333333333,
            "duration_beat": 0.2020833333333485,
            "velocity": 94,
            "track": 0
        },
        {
            "pitch": 75,
            "start_beat": 1390.0520833333333,
            "duration_beat": 0.2020833333333485,
            "velocity": 94,
            "track": 0
        },
        {
            "pitch": 74,
            "start_beat": 1390.25625,
            "duration_beat": 0.2020833333333485,
            "velocity": 94,
            "track": 0
        },
        {
            "pitch": 72,
            "start_beat": 1390.4625,
            "duration_beat": 0.2020833333333485,
            "velocity": 94,
            "track": 0
        },
        {
            "pitch": 71,
            "start_beat": 1390.6666666666667,
            "duration_beat": 0.2020833333333485,
            "velocity": 94,
            "track": 0
        },
        {
            "pitch": 74,
            "start_beat": 1390.8708333333334,
            "duration_beat": 0.2020833333333485,
            "velocity": 94,
            "track": 0
        },
        {
            "pitch": 72,
            "start_beat": 1391.0770833333333,
            "duration_beat": 0.2020833333333485,
            "velocity": 94,
            "track": 0
        },
        {
            "pitch": 70,
            "start_beat": 1391.28125,
            "duration_beat": 0.2020833333333485,
            "velocity": 94,
            "track": 0
        },
        {
            "pitch": 69,
            "start_beat": 1391.4875,
            "duration_beat": 0.2020833333333485,
            "velocity": 94,
            "track": 0
        },
        {
            "pitch": 67,
            "start_beat": 1391.6916666666666,
            "duration_beat": 0.2020833333333485,
            "velocity": 94,
            "track": 0
        },
        {
            "pitch": 66,
            "start_beat": 1391.8979166666666,
            "duration_beat": 0.2020833333333485,
            "velocity": 94,
            "track": 0
        },
        {
            "pitch": 63,
            "start_beat": 1392.1020833333334,
            "duration_beat": 0.20208333333312112,
            "velocity": 94,
            "track": 0
        },
        {
            "pitch": 62,
            "start_beat": 1392.3083333333334,
            "duration_beat": 0.2020833333333485,
            "velocity": 94,
            "track": 0
        },
        {
            "pitch": 60,
            "start_beat": 1392.5125,
            "duration_beat": 0.2020833333333485,
            "velocity": 94,
            "track": 0
        },
        {
            "pitch": 58,
            "start_beat": 1392.71875,
            "duration_beat": 0.2020833333333485,
            "velocity": 94,
            "track": 0
        },
        {
            "pitch": 57,
            "start_beat": 1392.9229166666667,
            "duration_beat": 0.2020833333333485,
            "velocity": 94,
            "track": 0
        },
        {
            "pitch": 55,
            "start_beat": 1393.1291666666666,
            "duration_beat": 0.2020833333333485,
            "velocity": 94,
            "track": 0
        },
        {
            "pitch": 54,
            "start_beat": 1393.3333333333333,
            "duration_beat": 0.2020833333333485,
            "velocity": 94,
            "track": 0
        },
        {
            "pitch": 51,
            "start_beat": 1393.5375,
            "duration_beat": 0.2020833333333485,
            "velocity": 94,
            "track": 0
        },
        {
            "pitch": 50,
            "start_beat": 1393.74375,
            "duration_beat": 0.2020833333333485,
            "velocity": 94,
            "track": 0
        },
        {
            "pitch": 48,
            "start_beat": 1393.9479166666667,
            "duration_beat": 0.2020833333333485,
            "velocity": 94,
            "track": 0
        },
        {
            "pitch": 46,
            "start_beat": 1394.1541666666667,
            "duration_beat": 0.2020833333333485,
            "velocity": 94,
            "track": 0
        },
        {
            "pitch": 45,
            "start_beat": 1394.3583333333333,
            "duration_beat": 0.2020833333333485,
            "velocity": 94,
            "track": 0
        },
        {
            "pitch": 43,
            "start_beat": 1394.5645833333333,
            "duration_beat": 0.2020833333333485,
            "velocity": 94,
            "track": 0
        },
        {
            "pitch": 42,
            "start_beat": 1394.76875,
            "duration_beat": 0.2020833333333485,
            "velocity": 94,
            "track": 0
        },
        {
            "pitch": 39,
            "start_beat": 1394.975,
            "duration_beat": 0.2020833333333485,
            "velocity": 94,
            "track": 0
        },
        {
            "pitch": 38,
            "start_beat": 1395.1791666666666,
            "duration_beat": 0.2020833333333485,
            "velocity": 94,
            "track": 0
        },
        {
            "pitch": 36,
            "start_beat": 1395.3854166666667,
            "duration_beat": 0.2020833333333485,
            "velocity": 94,
            "track": 0
        },
        {
            "pitch": 34,
            "start_beat": 1395.5895833333334,
            "duration_beat": 0.2020833333333485,
            "velocity": 94,
            "track": 0
        },
        {
            "pitch": 33,
            "start_beat": 1395.7958333333333,
            "duration_beat": 0.2020833333333485,
            "velocity": 94,
            "track": 0
        },
        {
            "pitch": 31,
            "start_beat": 1396.0,
            "duration_beat": 4.1875,
            "velocity": 94,
            "track": 1
        },
        {
            "pitch": 45,
            "start_beat": 1400.1895833333333,
            "duration_beat": 0.1875,
            "velocity": 94,
            "track": 0
        },
        {
            "pitch": 33,
            "start_beat": 1400.1895833333333,
            "duration_beat": 0.1875,
            "velocity": 94,
            "track": 1
        },
        {
            "pitch": 46,
            "start_beat": 1400.38125,
            "duration_beat": 0.1875,
            "velocity": 95,
            "track": 0
        },
        {
            "pitch": 34,
            "start_beat": 1400.38125,
            "duration_beat": 0.1875,
            "velocity": 95,
            "track": 1
        },
        {
            "pitch": 48,
            "start_beat": 1400.5708333333334,
            "duration_beat": 0.1875,
            "velocity": 97,
            "track": 0
        },
        {
            "pitch": 36,
            "start_beat": 1400.5708333333334,
            "duration_beat": 0.1875,
            "velocity": 97,
            "track": 1
        },
        {
            "pitch": 50,
            "start_beat": 1400.7625,
            "duration_beat": 0.1875,
            "velocity": 98,
            "track": 0
        },
        {
            "pitch": 38,
            "start_beat": 1400.7625,
            "duration_beat": 0.1875,
            "velocity": 98,
            "track": 1
        },
        {
            "pitch": 52,
            "start_beat": 1400.9520833333333,
            "duration_beat": 0.1875,
            "velocity": 100,
            "track": 0
        },
        {
            "pitch": 40,
            "start_beat": 1400.9520833333333,
            "duration_beat": 0.1875,
            "velocity": 100,
            "track": 1
        },
        {
            "pitch": 54,
            "start_beat": 1401.14375,
            "duration_beat": 0.1875,
            "velocity": 102,
            "track": 0
        },
        {
            "pitch": 42,
            "start_beat": 1401.14375,
            "duration_beat": 0.1875,
            "velocity": 102,
            "track": 1
        },
        {
            "pitch": 55,
            "start_beat": 1401.3333333333333,
            "duration_beat": 0.1875,
            "velocity": 103,
            "track": 0
        },
        {
            "pitch": 43,
            "start_beat": 1401.3333333333333,
            "duration_beat": 0.1875,
            "velocity": 103,
            "track": 1
        },
        {
            "pitch": 57,
            "start_beat": 1401.5229166666666,
            "duration_beat": 0.1875,
            "velocity": 105,
            "track": 0
        },
        {
            "pitch": 45,
            "start_beat": 1401.5229166666666,
            "duration_beat": 0.1875,
            "velocity": 105,
            "track": 1
        },
        {
            "pitch": 58,
            "start_beat": 1401.7145833333334,
            "duration_beat": 0.1875,
            "velocity": 107,
            "track": 0
        },
        {
            "pitch": 46,
            "start_beat": 1401.7145833333334,
            "duration_beat": 0.1875,
            "velocity": 107,
            "track": 1
        },
        {
            "pitch": 60,
            "start_beat": 1401.9041666666667,
            "duration_beat": 0.1875,
            "velocity": 108,
            "track": 0
        },
        {
            "pitch": 48,
            "start_beat": 1401.9041666666667,
            "duration_beat": 0.1875,
            "velocity": 108,
            "track": 1
        },
        {
            "pitch": 62,
            "start_beat": 1402.0958333333333,
            "duration_beat": 0.1875,
            "velocity": 110,
            "track": 0
        },
        {
            "pitch": 50,
            "start_beat": 1402.0958333333333,
            "duration_beat": 0.1875,
            "velocity": 110,
            "track": 1
        },
        {
            "pitch": 64,
            "start_beat": 1402.2854166666666,
            "duration_beat": 0.1875,
            "velocity": 112,
            "track": 0
        },
        {
            "pitch": 52,
            "start_beat": 1402.2854166666666,
            "duration_beat": 0.1875,
            "velocity": 112,
            "track": 1
        },
        {
            "pitch": 66,
            "start_beat": 1402.4770833333334,
            "duration_beat": 0.1875,
            "velocity": 113,
            "track": 0
        },
        {
            "pitch": 54,
            "start_beat": 1402.4770833333334,
            "duration_beat": 0.1875,
            "velocity": 113,
            "track": 1
        },
        {
            "pitch": 67,
            "start_beat": 1402.6666666666667,
            "duration_beat": 0.1875,
            "velocity": 115,
            "track": 0
        },
        {
            "pitch": 55,
            "start_beat": 1402.6666666666667,
            "duration_beat": 0.1875,
            "velocity": 115,
            "track": 1
        },
        {
            "pitch": 69,
            "start_beat": 1402.85625,
            "duration_beat": 0.1875,
            "velocity": 117,
            "track": 0
        },
        {
            "pitch": 57,
            "start_beat": 1402.85625,
            "duration_beat": 0.1875,
            "velocity": 117,
            "track": 1
        },
        {
            "pitch": 70,
            "start_beat": 1403.0479166666667,
            "duration_beat": 0.1875,
            "velocity": 118,
            "track": 0
        },
        {
            "pitch": 58,
            "start_beat": 1403.0479166666667,
            "duration_beat": 0.1875,
            "velocity": 118,
            "track": 1
        },
        {
            "pitch": 72,
            "start_beat": 1403.2375,
            "duration_beat": 0.1875,
            "velocity": 120,
            "track": 0
        },
        {
            "pitch": 60,
            "start_beat": 1403.2375,
            "duration_beat": 0.1875,
            "velocity": 120,
            "track": 1
        },
        {
            "pitch": 74,
            "start_beat": 1403.4291666666666,
            "duration_beat": 0.1875,
            "velocity": 122,
            "track": 0
        },
        {
            "pitch": 62,
            "start_beat": 1403.4291666666666,
            "duration_beat": 0.1875,
            "velocity": 122,
            "track": 1
        },
        {
            "pitch": 76,
            "start_beat": 1403.61875,
            "duration_beat": 0.1875,
            "velocity": 123,
            "track": 0
        },
        {
            "pitch": 64,
            "start_beat": 1403.61875,
            "duration_beat": 0.1875,
            "velocity": 123,
            "track": 1
        },
        {
            "pitch": 78,
            "start_beat": 1403.8104166666667,
            "duration_beat": 0.1875,
            "velocity": 125,
            "track": 0
        },
        {
            "pitch": 66,
            "start_beat": 1403.8104166666667,
            "duration_beat": 0.1875,
            "velocity": 125,
            "track": 1
        },
        {
            "pitch": 79,
            "start_beat": 1404.0,
            "duration_beat": 0.24791666666669698,
            "velocity": 127,
            "track": 0
        },
        {
            "pitch": 67,
            "start_beat": 1404.0,
            "duration_beat": 0.24791666666669698,
            "velocity": 127,
            "track": 1
        },
        {
            "pitch": 50,
            "start_beat": 1406.0,
            "duration_beat": 1.497916666666697,
            "velocity": 49,
            "track": 0
        },
        {
            "pitch": 55,
            "start_beat": 1406.0,
            "duration_beat": 1.497916666666697,
            "velocity": 49,
            "track": 0
        },
        {
            "pitch": 58,
            "start_beat": 1406.0,
            "duration_beat": 1.497916666666697,
            "velocity": 49,
            "track": 0
        },
        {
            "pitch": 31,
            "start_beat": 1406.0,
            "duration_beat": 1.497916666666697,
            "velocity": 49,
            "track": 1
        },
        {
            "pitch": 43,
            "start_beat": 1406.0,
            "duration_beat": 1.497916666666697,
            "velocity": 49,
            "track": 1
        },
        {
            "pitch": 50,
            "start_beat": 1407.5,
            "duration_beat": 0.497916666666697,
            "velocity": 49,
            "track": 0
        },
        {
            "pitch": 55,
            "start_beat": 1407.5,
            "duration_beat": 0.497916666666697,
            "velocity": 49,
            "track": 0
        },
        {
            "pitch": 58,
            "start_beat": 1407.5,
            "duration_beat": 0.497916666666697,
            "velocity": 49,
            "track": 0
        },
        {
            "pitch": 31,
            "start_beat": 1407.5,
            "duration_beat": 0.497916666666697,
            "velocity": 49,
            "track": 1
        },
        {
            "pitch": 43,
            "start_beat": 1407.5,
            "duration_beat": 0.497916666666697,
            "velocity": 49,
            "track": 1
        },
        {
            "pitch": 50,
            "start_beat": 1408.0,
            "duration_beat": 1.8979166666665606,
            "velocity": 49,
            "track": 0
        },
        {
            "pitch": 55,
            "start_beat": 1408.0,
            "duration_beat": 1.8979166666665606,
            "velocity": 49,
            "track": 0
        },
        {
            "pitch": 58,
            "start_beat": 1408.0,
            "duration_beat": 1.8979166666665606,
            "velocity": 49,
            "track": 0
        },
        {
            "pitch": 31,
            "start_beat": 1408.0,
            "duration_beat": 1.8979166666665606,
            "velocity": 49,
            "track": 1
        },
        {
            "pitch": 43,
            "start_beat": 1408.0,
            "duration_beat": 1.8979166666665606,
            "velocity": 49,
            "track": 1
        },
        {
            "pitch": 50,
            "start_beat": 1410.3333333333333,
            "duration_beat": 0.314583333333303,
            "velocity": 96,
            "track": 0
        },
        {
            "pitch": 38,
            "start_beat": 1410.3333333333333,
            "duration_beat": 0.314583333333303,
            "velocity": 96,
            "track": 1
        },
        {
            "pitch": 55,
            "start_beat": 1410.6666666666667,
            "duration_beat": 0.314583333333303,
            "velocity": 96,
            "track": 0
        },
        {
            "pitch": 43,
            "start_beat": 1410.6666666666667,
            "duration_beat": 0.314583333333303,
            "velocity": 96,
            "track": 1
        },
        {
            "pitch": 57,
            "start_beat": 1411.0,
            "duration_beat": 0.314583333333303,
            "velocity": 96,
            "track": 0
        },
        {
            "pitch": 45,
            "start_beat": 1411.0,
            "duration_beat": 0.314583333333303,
            "velocity": 96,
            "track": 1
        },
        {
            "pitch": 60,
            "start_beat": 1411.3333333333333,
            "duration_beat": 0.314583333333303,
            "velocity": 96,
            "track": 0
        },
        {
            "pitch": 48,
            "start_beat": 1411.3333333333333,
            "duration_beat": 0.314583333333303,
            "velocity": 96,
            "track": 1
        },
        {
            "pitch": 58,
            "start_beat": 1411.6666666666667,
            "duration_beat": 0.314583333333303,
            "velocity": 96,
            "track": 0
        },
        {
            "pitch": 46,
            "start_beat": 1411.6666666666667,
            "duration_beat": 0.314583333333303,
            "velocity": 96,
            "track": 1
        },
        {
            "pitch": 58,
            "start_beat": 1412.0,
            "duration_beat": 0.24791666666669698,
            "velocity": 96,
            "track": 0
        },
        {
            "pitch": 46,
            "start_beat": 1412.0,
            "duration_beat": 0.47291666666660603,
            "velocity": 96,
            "track": 1
        },
        {
            "pitch": 46,
            "start_beat": 1414.0,
            "duration_beat": 2.1416666666666515,
            "velocity": 112,
            "track": 0
        },
        {
            "pitch": 31,
            "start_beat": 1414.0,
            "duration_beat": 2.1416666666666515,
            "velocity": 112,
            "track": 1
        },
        {
            "pitch": 48,
            "start_beat": 1416.14375,
            "duration_beat": 0.1416666666666515,
            "velocity": 94,
            "track": 0
        },
        {
            "pitch": 33,
            "start_beat": 1416.14375,
            "duration_beat": 0.1416666666666515,
            "velocity": 94,
            "track": 1
        },
        {
            "pitch": 50,
            "start_beat": 1416.2854166666666,
            "duration_beat": 0.1416666666666515,
            "velocity": 94,
            "track": 0
        },
        {
            "pitch": 34,
            "start_beat": 1416.2854166666666,
            "duration_beat": 0.1416666666666515,
            "velocity": 94,
            "track": 1
        },
        {
            "pitch": 52,
            "start_beat": 1416.4291666666666,
            "duration_beat": 0.14166666666687888,
            "velocity": 94,
            "track": 0
        },
        {
            "pitch": 36,
            "start_beat": 1416.4291666666666,
            "duration_beat": 0.14166666666687888,
            "velocity": 94,
            "track": 1
        },
        {
            "pitch": 54,
            "start_beat": 1416.5708333333334,
            "duration_beat": 0.1416666666666515,
            "velocity": 94,
            "track": 0
        },
        {
            "pitch": 38,
            "start_beat": 1416.5708333333334,
            "duration_beat": 0.1416666666666515,
            "velocity": 94,
            "track": 1
        },
        {
            "pitch": 55,
            "start_beat": 1416.7145833333334,
            "duration_beat": 0.1416666666666515,
            "velocity": 94,
            "track": 0
        },
        {
            "pitch": 40,
            "start_beat": 1416.7145833333334,
            "duration_beat": 0.1416666666666515,
            "velocity": 94,
            "track": 1
        },
        {
            "pitch": 57,
            "start_beat": 1416.85625,
            "duration_beat": 0.1416666666666515,
            "velocity": 94,
            "track": 0
        },
        {
            "pitch": 42,
            "start_beat": 1416.85625,
            "duration_beat": 0.1416666666666515,
            "velocity": 94,
            "track": 1
        },
        {
            "pitch": 58,
            "start_beat": 1417.0,
            "duration_beat": 0.1416666666666515,
            "velocity": 94,
            "track": 0
        },
        {
            "pitch": 43,
            "start_beat": 1417.0,
            "duration_beat": 0.1416666666666515,
            "velocity": 94,
            "track": 1
        },
        {
            "pitch": 60,
            "start_beat": 1417.1416666666667,
            "duration_beat": 0.1416666666666515,
            "velocity": 94,
            "track": 0
        },
        {
            "pitch": 45,
            "start_beat": 1417.1416666666667,
            "duration_beat": 0.1416666666666515,
            "velocity": 94,
            "track": 1
        },
        {
            "pitch": 62,
            "start_beat": 1417.2854166666666,
            "duration_beat": 0.1416666666666515,
            "velocity": 94,
            "track": 0
        },
        {
            "pitch": 46,
            "start_beat": 1417.2854166666666,
            "duration_beat": 0.1416666666666515,
            "velocity": 94,
            "track": 1
        },
        {
            "pitch": 64,
            "start_beat": 1417.4270833333333,
            "duration_beat": 0.1416666666666515,
            "velocity": 94,
            "track": 0
        },
        {
            "pitch": 48,
            "start_beat": 1417.4270833333333,
            "duration_beat": 0.1416666666666515,
            "velocity": 94,
            "track": 1
        },
        {
            "pitch": 66,
            "start_beat": 1417.5708333333334,
            "duration_beat": 0.1416666666666515,
            "velocity": 94,
            "track": 0
        },
        {
            "pitch": 50,
            "start_beat": 1417.5708333333334,
            "duration_beat": 0.1416666666666515,
            "velocity": 94,
            "track": 1
        },
        {
            "pitch": 67,
            "start_beat": 1417.7125,
            "duration_beat": 0.1416666666666515,
            "velocity": 94,
            "track": 0
        },
        {
            "pitch": 52,
            "start_beat": 1417.7125,
            "duration_beat": 0.1416666666666515,
            "velocity": 94,
            "track": 1
        },
        {
            "pitch": 69,
            "start_beat": 1417.85625,
            "duration_beat": 0.1416666666666515,
            "velocity": 94,
            "track": 0
        },
        {
            "pitch": 54,
            "start_beat": 1417.85625,
            "duration_beat": 0.1416666666666515,
            "velocity": 94,
            "track": 1
        },
        {
            "pitch": 70,
            "start_beat": 1417.9979166666667,
            "duration_beat": 0.1416666666666515,
            "velocity": 94,
            "track": 0
        },
        {
            "pitch": 55,
            "start_beat": 1417.9979166666667,
            "duration_beat": 0.1416666666666515,
            "velocity": 94,
            "track": 1
        },
        {
            "pitch": 72,
            "start_beat": 1418.1416666666667,
            "duration_beat": 0.1416666666666515,
            "velocity": 94,
            "track": 0
        },
        {
            "pitch": 57,
            "start_beat": 1418.1416666666667,
            "duration_beat": 0.1416666666666515,
            "velocity": 94,
            "track": 1
        },
        {
            "pitch": 74,
            "start_beat": 1418.2833333333333,
            "duration_beat": 0.1416666666666515,
            "velocity": 94,
            "track": 0
        },
        {
            "pitch": 58,
            "start_beat": 1418.2833333333333,
            "duration_beat": 0.1416666666666515,
            "velocity": 94,
            "track": 1
        },
        {
            "pitch": 76,
            "start_beat": 1418.4270833333333,
            "duration_beat": 0.1416666666666515,
            "velocity": 94,
            "track": 0
        },
        {
            "pitch": 60,
            "start_beat": 1418.4270833333333,
            "duration_beat": 0.1416666666666515,
            "velocity": 94,
            "track": 1
        },
        {
            "pitch": 78,
            "start_beat": 1418.56875,
            "duration_beat": 0.1416666666666515,
            "velocity": 94,
            "track": 0
        },
        {
            "pitch": 62,
            "start_beat": 1418.56875,
            "duration_beat": 0.1416666666666515,
            "velocity": 94,
            "track": 1
        },
        {
            "pitch": 79,
            "start_beat": 1418.7125,
            "duration_beat": 0.1416666666666515,
            "velocity": 94,
            "track": 0
        },
        {
            "pitch": 64,
            "start_beat": 1418.7125,
            "duration_beat": 0.1416666666666515,
            "velocity": 94,
            "track": 1
        },
        {
            "pitch": 81,
            "start_beat": 1418.8541666666667,
            "duration_beat": 0.1416666666666515,
            "velocity": 94,
            "track": 0
        },
        {
            "pitch": 66,
            "start_beat": 1418.8541666666667,
            "duration_beat": 0.1416666666666515,
            "velocity": 94,
            "track": 1
        },
        {
            "pitch": 82,
            "start_beat": 1418.9979166666667,
            "duration_beat": 0.1416666666666515,
            "velocity": 94,
            "track": 0
        },
        {
            "pitch": 67,
            "start_beat": 1418.9979166666667,
            "duration_beat": 0.1416666666666515,
            "velocity": 94,
            "track": 1
        },
        {
            "pitch": 84,
            "start_beat": 1419.1395833333333,
            "duration_beat": 0.1416666666666515,
            "velocity": 94,
            "track": 0
        },
        {
            "pitch": 69,
            "start_beat": 1419.1395833333333,
            "duration_beat": 0.1416666666666515,
            "velocity": 94,
            "track": 1
        },
        {
            "pitch": 86,
            "start_beat": 1419.2833333333333,
            "duration_beat": 0.1416666666666515,
            "velocity": 94,
            "track": 0
        },
        {
            "pitch": 70,
            "start_beat": 1419.2833333333333,
            "duration_beat": 0.1416666666666515,
            "velocity": 94,
            "track": 1
        },
        {
            "pitch": 88,
            "start_beat": 1419.425,
            "duration_beat": 0.1416666666666515,
            "velocity": 94,
            "track": 0
        },
        {
            "pitch": 72,
            "start_beat": 1419.425,
            "duration_beat": 0.1416666666666515,
            "velocity": 94,
            "track": 1
        },
        {
            "pitch": 90,
            "start_beat": 1419.56875,
            "duration_beat": 0.1416666666666515,
            "velocity": 94,
            "track": 0
        },
        {
            "pitch": 74,
            "start_beat": 1419.56875,
            "duration_beat": 0.1416666666666515,
            "velocity": 94,
            "track": 1
        },
        {
            "pitch": 91,
            "start_beat": 1419.7104166666666,
            "duration_beat": 0.14166666666687888,
            "velocity": 94,
            "track": 0
        },
        {
            "pitch": 76,
            "start_beat": 1419.7104166666666,
            "duration_beat": 0.14166666666687888,
            "velocity": 94,
            "track": 1
        },
        {
            "pitch": 93,
            "start_beat": 1419.8541666666667,
            "duration_beat": 0.1416666666666515,
            "velocity": 94,
            "track": 0
        },
        {
            "pitch": 78,
            "start_beat": 1419.8541666666667,
            "duration_beat": 0.1416666666666515,
            "velocity": 94,
            "track": 1
        },
        {
            "pitch": 94,
            "start_beat": 1420.0,
            "duration_beat": 0.24791666666669698,
            "velocity": 94,
            "track": 0
        },
        {
            "pitch": 79,
            "start_beat": 1420.0,
            "duration_beat": 0.24791666666669698,
            "velocity": 94,
            "track": 1
        },
        {
            "pitch": 50,
            "start_beat": 1422.0,
            "duration_beat": 1.497916666666697,
            "velocity": 49,
            "track": 0
        },
        {
            "pitch": 55,
            "start_beat": 1422.0,
            "duration_beat": 1.497916666666697,
            "velocity": 49,
            "track": 0
        },
        {
            "pitch": 58,
            "start_beat": 1422.0,
            "duration_beat": 1.497916666666697,
            "velocity": 49,
            "track": 0
        },
        {
            "pitch": 62,
            "start_beat": 1422.0,
            "duration_beat": 1.497916666666697,
            "velocity": 49,
            "track": 0
        },
        {
            "pitch": 31,
            "start_beat": 1422.0,
            "duration_beat": 1.497916666666697,
            "velocity": 49,
            "track": 1
        },
        {
            "pitch": 43,
            "start_beat": 1422.0,
            "duration_beat": 1.497916666666697,
            "velocity": 49,
            "track": 1
        },
        {
            "pitch": 50,
            "start_beat": 1423.5,
            "duration_beat": 0.497916666666697,
            "velocity": 49,
            "track": 0
        },
        {
            "pitch": 55,
            "start_beat": 1423.5,
            "duration_beat": 0.497916666666697,
            "velocity": 49,
            "track": 0
        },
        {
            "pitch": 58,
            "start_beat": 1423.5,
            "duration_beat": 0.497916666666697,
            "velocity": 49,
            "track": 0
        },
        {
            "pitch": 62,
            "start_beat": 1423.5,
            "duration_beat": 0.497916666666697,
            "velocity": 49,
            "track": 0
        },
        {
            "pitch": 31,
            "start_beat": 1423.5,
            "duration_beat": 0.497916666666697,
            "velocity": 49,
            "track": 1
        },
        {
            "pitch": 43,
            "start_beat": 1423.5,
            "duration_beat": 0.497916666666697,
            "velocity": 49,
            "track": 1
        },
        {
            "pitch": 50,
            "start_beat": 1424.0,
            "duration_beat": 1.8979166666665606,
            "velocity": 49,
            "track": 0
        },
        {
            "pitch": 55,
            "start_beat": 1424.0,
            "duration_beat": 1.8979166666665606,
            "velocity": 49,
            "track": 0
        },
        {
            "pitch": 58,
            "start_beat": 1424.0,
            "duration_beat": 1.8979166666665606,
            "velocity": 49,
            "track": 0
        },
        {
            "pitch": 62,
            "start_beat": 1424.0,
            "duration_beat": 1.8979166666665606,
            "velocity": 49,
            "track": 0
        },
        {
            "pitch": 31,
            "start_beat": 1424.0,
            "duration_beat": 1.8979166666665606,
            "velocity": 49,
            "track": 1
        },
        {
            "pitch": 43,
            "start_beat": 1424.0,
            "duration_beat": 1.8979166666665606,
            "velocity": 49,
            "track": 1
        },
        {
            "pitch": 62,
            "start_beat": 1426.3333333333333,
            "duration_beat": 0.3312500000001819,
            "velocity": 96,
            "track": 0
        },
        {
            "pitch": 50,
            "start_beat": 1426.3333333333333,
            "duration_beat": 0.3312500000001819,
            "velocity": 96,
            "track": 1
        },
        {
            "pitch": 67,
            "start_beat": 1426.6666666666667,
            "duration_beat": 0.3312499999999545,
            "velocity": 96,
            "track": 0
        },
        {
            "pitch": 55,
            "start_beat": 1426.6666666666667,
            "duration_beat": 0.3312499999999545,
            "velocity": 96,
            "track": 1
        },
        {
            "pitch": 70,
            "start_beat": 1427.0,
            "duration_beat": 0.3312499999999545,
            "velocity": 96,
            "track": 0
        },
        {
            "pitch": 58,
            "start_beat": 1427.0,
            "duration_beat": 0.3312499999999545,
            "velocity": 96,
            "track": 1
        },
        {
            "pitch": 75,
            "start_beat": 1427.3333333333333,
            "duration_beat": 0.3312500000001819,
            "velocity": 96,
            "track": 0
        },
        {
            "pitch": 63,
            "start_beat": 1427.3333333333333,
            "duration_beat": 0.3312500000001819,
            "velocity": 96,
            "track": 1
        },
        {
            "pitch": 74,
            "start_beat": 1427.6666666666667,
            "duration_beat": 0.3312499999999545,
            "velocity": 96,
            "track": 0
        },
        {
            "pitch": 62,
            "start_beat": 1427.6666666666667,
            "duration_beat": 0.3312499999999545,
            "velocity": 96,
            "track": 1
        },
        {
            "pitch": 74,
            "start_beat": 1428.0,
            "duration_beat": 0.12291666666669698,
            "velocity": 96,
            "track": 0
        },
        {
            "pitch": 62,
            "start_beat": 1428.0,
            "duration_beat": 0.12291666666669698,
            "velocity": 96,
            "track": 1
        },
        {
            "pitch": 100,
            "start_beat": 1429.5,
            "duration_beat": 0.720833333333303,
            "velocity": 127,
            "track": 0
        },
        {
            "pitch": 34,
            "start_beat": 1429.5,
            "duration_beat": 0.720833333333303,
            "velocity": 127,
            "track": 1
        },
        {
            "pitch": 88,
            "start_beat": 1430.0,
            "duration_beat": 0.22083333333330302,
            "velocity": 127,
            "track": 0
        },
        {
            "pitch": 46,
            "start_beat": 1430.0,
            "duration_beat": 0.22083333333330302,
            "velocity": 127,
            "track": 1
        },
        {
            "pitch": 99,
            "start_beat": 1430.1666666666667,
            "duration_beat": 0.720833333333303,
            "velocity": 127,
            "track": 0
        },
        {
            "pitch": 35,
            "start_beat": 1430.1666666666667,
            "duration_beat": 0.720833333333303,
            "velocity": 127,
            "track": 1
        },
        {
            "pitch": 87,
            "start_beat": 1430.6666666666667,
            "duration_beat": 0.22083333333330302,
            "velocity": 127,
            "track": 0
        },
        {
            "pitch": 47,
            "start_beat": 1430.6666666666667,
            "duration_beat": 0.22083333333330302,
            "velocity": 127,
            "track": 1
        },
        {
            "pitch": 98,
            "start_beat": 1430.8333333333333,
            "duration_beat": 0.720833333333303,
            "velocity": 127,
            "track": 0
        },
        {
            "pitch": 36,
            "start_beat": 1430.8333333333333,
            "duration_beat": 0.720833333333303,
            "velocity": 127,
            "track": 1
        },
        {
            "pitch": 86,
            "start_beat": 1431.3333333333333,
            "duration_beat": 0.22083333333330302,
            "velocity": 127,
            "track": 0
        },
        {
            "pitch": 48,
            "start_beat": 1431.3333333333333,
            "duration_beat": 0.22083333333330302,
            "velocity": 127,
            "track": 1
        },
        {
            "pitch": 97,
            "start_beat": 1431.5,
            "duration_beat": 0.720833333333303,
            "velocity": 127,
            "track": 0
        },
        {
            "pitch": 37,
            "start_beat": 1431.5,
            "duration_beat": 0.720833333333303,
            "velocity": 127,
            "track": 1
        },
        {
            "pitch": 85,
            "start_beat": 1432.0,
            "duration_beat": 0.22083333333330302,
            "velocity": 127,
            "track": 0
        },
        {
            "pitch": 49,
            "start_beat": 1432.0,
            "duration_beat": 0.22083333333330302,
            "velocity": 127,
            "track": 1
        },
        {
            "pitch": 96,
            "start_beat": 1432.1666666666667,
            "duration_beat": 0.720833333333303,
            "velocity": 127,
            "track": 0
        },
        {
            "pitch": 38,
            "start_beat": 1432.1666666666667,
            "duration_beat": 0.720833333333303,
            "velocity": 127,
            "track": 1
        },
        {
            "pitch": 84,
            "start_beat": 1432.6666666666667,
            "duration_beat": 0.22083333333330302,
            "velocity": 127,
            "track": 0
        },
        {
            "pitch": 50,
            "start_beat": 1432.6666666666667,
            "duration_beat": 0.22083333333330302,
            "velocity": 127,
            "track": 1
        },
        {
            "pitch": 95,
            "start_beat": 1432.8333333333333,
            "duration_beat": 0.9437500000001364,
            "velocity": 127,
            "track": 0
        },
        {
            "pitch": 39,
            "start_beat": 1432.8333333333333,
            "duration_beat": 0.9437500000001364,
            "velocity": 127,
            "track": 1
        },
        {
            "pitch": 83,
            "start_beat": 1433.3333333333333,
            "duration_beat": 0.4437500000001364,
            "velocity": 127,
            "track": 0
        },
        {
            "pitch": 51,
            "start_beat": 1433.3333333333333,
            "duration_beat": 0.4437500000001364,
            "velocity": 127,
            "track": 1
        },
        {
            "pitch": 82,
            "start_beat": 1434.0,
            "duration_beat": 0.3312499999999545,
            "velocity": 126,
            "track": 0
        },
        {
            "pitch": 94,
            "start_beat": 1434.0,
            "duration_beat": 0.3312499999999545,
            "velocity": 126,
            "track": 0
        },
        {
            "pitch": 40,
            "start_beat": 1434.0,
            "duration_beat": 0.3312499999999545,
            "velocity": 126,
            "track": 1
        },
        {
            "pitch": 52,
            "start_beat": 1434.0,
            "duration_beat": 0.3312499999999545,
            "velocity": 126,
            "track": 1
        },
        {
            "pitch": 81,
            "start_beat": 1434.6666666666667,
            "duration_beat": 0.3312499999999545,
            "velocity": 126,
            "track": 0
        },
        {
            "pitch": 93,
            "start_beat": 1434.6666666666667,
            "duration_beat": 0.3312499999999545,
            "velocity": 126,
            "track": 0
        },
        {
            "pitch": 41,
            "start_beat": 1434.6666666666667,
            "duration_beat": 0.3312499999999545,
            "velocity": 126,
            "track": 1
        },
        {
            "pitch": 53,
            "start_beat": 1434.6666666666667,
            "duration_beat": 0.3312499999999545,
            "velocity": 126,
            "track": 1
        },
        {
            "pitch": 80,
            "start_beat": 1435.3333333333333,
            "duration_beat": 0.3312500000001819,
            "velocity": 126,
            "track": 0
        },
        {
            "pitch": 92,
            "start_beat": 1435.3333333333333,
            "duration_beat": 0.3312500000001819,
            "velocity": 126,
            "track": 0
        },
        {
            "pitch": 42,
            "start_beat": 1435.3333333333333,
            "duration_beat": 0.3312500000001819,
            "velocity": 126,
            "track": 1
        },
        {
            "pitch": 54,
            "start_beat": 1435.3333333333333,
            "duration_beat": 0.3312500000001819,
            "velocity": 126,
            "track": 1
        },
        {
            "pitch": 79,
            "start_beat": 1436.0,
            "duration_beat": 0.3312499999999545,
            "velocity": 126,
            "track": 0
        },
        {
            "pitch": 91,
            "start_beat": 1436.0,
            "duration_beat": 0.3312499999999545,
            "velocity": 126,
            "track": 0
        },
        {
            "pitch": 43,
            "start_beat": 1436.0,
            "duration_beat": 0.3312499999999545,
            "velocity": 126,
            "track": 1
        },
        {
            "pitch": 55,
            "start_beat": 1436.0,
            "duration_beat": 0.3312499999999545,
            "velocity": 126,
            "track": 1
        },
        {
            "pitch": 78,
            "start_beat": 1436.6666666666667,
            "duration_beat": 0.3312499999999545,
            "velocity": 126,
            "track": 0
        },
        {
            "pitch": 90,
            "start_beat": 1436.6666666666667,
            "duration_beat": 0.3312499999999545,
            "velocity": 126,
            "track": 0
        },
        {
            "pitch": 42,
            "start_beat": 1436.6666666666667,
            "duration_beat": 0.3312499999999545,
            "velocity": 126,
            "track": 1
        },
        {
            "pitch": 54,
            "start_beat": 1436.6666666666667,
            "duration_beat": 0.3312499999999545,
            "velocity": 126,
            "track": 1
        },
        {
            "pitch": 77,
            "start_beat": 1437.3333333333333,
            "duration_beat": 0.3312500000001819,
            "velocity": 126,
            "track": 0
        },
        {
            "pitch": 89,
            "start_beat": 1437.3333333333333,
            "duration_beat": 0.3312500000001819,
            "velocity": 126,
            "track": 0
        },
        {
            "pitch": 41,
            "start_beat": 1437.3333333333333,
            "duration_beat": 0.3312500000001819,
            "velocity": 126,
            "track": 1
        },
        {
            "pitch": 53,
            "start_beat": 1437.3333333333333,
            "duration_beat": 0.3312500000001819,
            "velocity": 126,
            "track": 1
        },
        {
            "pitch": 76,
            "start_beat": 1438.0,
            "duration_beat": 0.3312499999999545,
            "velocity": 126,
            "track": 0
        },
        {
            "pitch": 88,
            "start_beat": 1438.0,
            "duration_beat": 0.3312499999999545,
            "velocity": 126,
            "track": 0
        },
        {
            "pitch": 40,
            "start_beat": 1438.0,
            "duration_beat": 0.3312499999999545,
            "velocity": 126,
            "track": 1
        },
        {
            "pitch": 52,
            "start_beat": 1438.0,
            "duration_beat": 0.3312499999999545,
            "velocity": 126,
            "track": 1
        },
        {
            "pitch": 75,
            "start_beat": 1438.6666666666667,
            "duration_beat": 0.3312499999999545,
            "velocity": 126,
            "track": 0
        },
        {
            "pitch": 87,
            "start_beat": 1438.6666666666667,
            "duration_beat": 0.3312499999999545,
            "velocity": 126,
            "track": 0
        },
        {
            "pitch": 39,
            "start_beat": 1438.6666666666667,
            "duration_beat": 0.3312499999999545,
            "velocity": 126,
            "track": 1
        },
        {
            "pitch": 51,
            "start_beat": 1438.6666666666667,
            "duration_beat": 0.3312499999999545,
            "velocity": 126,
            "track": 1
        },
        {
            "pitch": 74,
            "start_beat": 1439.3333333333333,
            "duration_beat": 0.3312500000001819,
            "velocity": 126,
            "track": 0
        },
        {
            "pitch": 86,
            "start_beat": 1439.3333333333333,
            "duration_beat": 0.3312500000001819,
            "velocity": 126,
            "track": 0
        },
        {
            "pitch": 38,
            "start_beat": 1439.3333333333333,
            "duration_beat": 0.3312500000001819,
            "velocity": 126,
            "track": 1
        },
        {
            "pitch": 50,
            "start_beat": 1439.3333333333333,
            "duration_beat": 0.3312500000001819,
            "velocity": 126,
            "track": 1
        },
        {
            "pitch": 73,
            "start_beat": 1440.0,
            "duration_beat": 0.3312499999999545,
            "velocity": 126,
            "track": 0
        },
        {
            "pitch": 85,
            "start_beat": 1440.0,
            "duration_beat": 0.3312499999999545,
            "velocity": 126,
            "track": 0
        },
        {
            "pitch": 37,
            "start_beat": 1440.0,
            "duration_beat": 0.3312499999999545,
            "velocity": 126,
            "track": 1
        },
        {
            "pitch": 49,
            "start_beat": 1440.0,
            "duration_beat": 0.3312499999999545,
            "velocity": 126,
            "track": 1
        },
        {
            "pitch": 72,
            "start_beat": 1440.6666666666667,
            "duration_beat": 0.3312499999999545,
            "velocity": 126,
            "track": 0
        },
        {
            "pitch": 84,
            "start_beat": 1440.6666666666667,
            "duration_beat": 0.3312499999999545,
            "velocity": 126,
            "track": 0
        },
        {
            "pitch": 36,
            "start_beat": 1440.6666666666667,
            "duration_beat": 0.3312499999999545,
            "velocity": 126,
            "track": 1
        },
        {
            "pitch": 48,
            "start_beat": 1440.6666666666667,
            "duration_beat": 0.3312499999999545,
            "velocity": 126,
            "track": 1
        },
        {
            "pitch": 71,
            "start_beat": 1441.3333333333333,
            "duration_beat": 0.3312500000001819,
            "velocity": 126,
            "track": 0
        },
        {
            "pitch": 83,
            "start_beat": 1441.3333333333333,
            "duration_beat": 0.3312500000001819,
            "velocity": 126,
            "track": 0
        },
        {
            "pitch": 35,
            "start_beat": 1441.3333333333333,
            "duration_beat": 0.3312500000001819,
            "velocity": 126,
            "track": 1
        },
        {
            "pitch": 47,
            "start_beat": 1441.3333333333333,
            "duration_beat": 0.3312500000001819,
            "velocity": 126,
            "track": 1
        },
        {
            "pitch": 70,
            "start_beat": 1442.0,
            "duration_beat": 0.3312499999999545,
            "velocity": 126,
            "track": 0
        },
        {
            "pitch": 82,
            "start_beat": 1442.0,
            "duration_beat": 0.3312499999999545,
            "velocity": 126,
            "track": 0
        },
        {
            "pitch": 34,
            "start_beat": 1442.0,
            "duration_beat": 0.3312499999999545,
            "velocity": 126,
            "track": 1
        },
        {
            "pitch": 46,
            "start_beat": 1442.0,
            "duration_beat": 0.3312499999999545,
            "velocity": 126,
            "track": 1
        },
        {
            "pitch": 69,
            "start_beat": 1442.6666666666667,
            "duration_beat": 0.3312499999999545,
            "velocity": 126,
            "track": 0
        },
        {
            "pitch": 81,
            "start_beat": 1442.6666666666667,
            "duration_beat": 0.3312499999999545,
            "velocity": 126,
            "track": 0
        },
        {
            "pitch": 33,
            "start_beat": 1442.6666666666667,
            "duration_beat": 0.3312499999999545,
            "velocity": 126,
            "track": 1
        },
        {
            "pitch": 45,
            "start_beat": 1442.6666666666667,
            "duration_beat": 0.3312499999999545,
            "velocity": 126,
            "track": 1
        },
        {
            "pitch": 68,
            "start_beat": 1443.3333333333333,
            "duration_beat": 0.3312500000001819,
            "velocity": 126,
            "track": 0
        },
        {
            "pitch": 80,
            "start_beat": 1443.3333333333333,
            "duration_beat": 0.3312500000001819,
            "velocity": 126,
            "track": 0
        },
        {
            "pitch": 32,
            "start_beat": 1443.3333333333333,
            "duration_beat": 0.3312500000001819,
            "velocity": 126,
            "track": 1
        },
        {
            "pitch": 44,
            "start_beat": 1443.3333333333333,
            "duration_beat": 0.3312500000001819,
            "velocity": 126,
            "track": 1
        },
        {
            "pitch": 67,
            "start_beat": 1444.0,
            "duration_beat": 0.997916666666697,
            "velocity": 127,
            "track": 0
        },
        {
            "pitch": 79,
            "start_beat": 1444.0,
            "duration_beat": 0.997916666666697,
            "velocity": 127,
            "track": 0
        },
        {
            "pitch": 31,
            "start_beat": 1444.0,
            "duration_beat": 0.997916666666697,
            "velocity": 127,
            "track": 1
        },
        {
            "pitch": 43,
            "start_beat": 1444.0,
            "duration_beat": 0.997916666666697,
            "velocity": 127,
            "track": 1
        },
        {
            "pitch": 82,
            "start_beat": 1448.0,
            "duration_beat": 2.6770833333332575,
            "velocity": 127,
            "track": 0
        },
        {
            "pitch": 86,
            "start_beat": 1448.0,
            "duration_beat": 2.6770833333332575,
            "velocity": 127,
            "track": 0
        },
        {
            "pitch": 91,
            "start_beat": 1448.0,
            "duration_beat": 2.6770833333332575,
            "velocity": 127,
            "track": 0
        },
        {
            "pitch": 94,
            "start_beat": 1448.0,
            "duration_beat": 2.6770833333332575,
            "velocity": 127,
            "track": 0
        },
        {
            "pitch": 55,
            "start_beat": 1448.0,
            "duration_beat": 3.7979166666666515,
            "velocity": 127,
            "track": 1
        },
        {
            "pitch": 62,
            "start_beat": 1448.0,
            "duration_beat": 3.7979166666666515,
            "velocity": 127,
            "track": 1
        },
        {
            "pitch": 67,
            "start_beat": 1448.0,
            "duration_beat": 3.7979166666666515,
            "velocity": 127,
            "track": 1
        },
        {
            "pitch": 55,
            "start_beat": 1452.0,
            "duration_beat": 3.7979166666666515,
            "velocity": 127,
            "track": 0
        },
        {
            "pitch": 31,
            "start_beat": 1452.0,
            "duration_beat": 3.7979166666666515,
            "velocity": 127,
            "track": 1
        },
        {
            "pitch": 43,
            "start_beat": 1452.0,
            "duration_beat": 3.7979166666666515,
            "velocity": 127,
            "track": 1
        }
    ]
}