{
    "resolution": 480,
    "tempo_map": [
        {
            "beat": 0.0,
            "bpm": 72.00002880001152
        },
        {
            "beat": 185.75,
            "bpm": 65.99999340000066
        },
        {
            "beat": 186.0,
            "bpm": 60.0
        },
        {
            "beat": 186.25,
            "bpm": 48.0
        }
    ],
    "notes": [
        {
            "pitch": 76,
            "start_beat": 0.0,
            "duration_beat": 0.23541666666666666,
            "velocity": 33,
            "track": 0
        },
        {
            "pitch": 75,
            "start_beat": 0.25,
            "duration_beat": 0.23541666666666666,
            "velocity": 33,
            "track": 0
        },
        {
            "pitch": 76,
            "start_beat": 0.5,
            "duration_beat": 0.23541666666666672,
            "velocity": 33,
            "track": 0
        },
        {
            "pitch": 75,
            "start_beat": 0.75,
            "duration_beat": 0.23541666666666672,
            "velocity": 33,
            "track": 0
        },
        {
            "pitch": 76,
            "start_beat": 1.0,
            "duration_beat": 0.2354166666666666,
            "velocity": 33,
            "track": 0
        },
        {
            "pitch": 71,
            "start_beat": 1.25,
            "duration_beat": 0.2354166666666666,
            "velocity": 33,
            "track": 0
        },
        {
            "pitch": 74,
            "start_beat": 1.5,
            "duration_beat": 0.2354166666666666,
            "velocity": 33,
            "track": 0
        },
        {
            "pitch": 72,
            "start_beat": 1.75,
            "duration_beat": 0.2354166666666666,
            "velocity": 33,
            "track": 0
        },
        {
            "pitch": 69,
            "start_beat": 2.0,
            "duration_beat": 0.4729166666666669,
            "velocity": 33,
            "track": 0
        },
        {
            "pitch": 45,
            "start_beat": 2.0,
            "duration_beat": 0.2354166666666666,
            "velocity": 33,
            "track": 1
        },
        {
            "pitch": 52,
            "start_beat": 2.25,
            "duration_beat": 0.2354166666666666,
            "velocity": 33,
            "track": 1
        },
        {
            "pitch": 57,
            "start_beat": 2.5,
            "duration_beat": 0.2354166666666666,
            "velocity": 33,
            "track": 1
        },
        {
            "pitch": 60,
            "start_beat": 2.75,
            "duration_beat": 0.2354166666666666,
            "velocity": 33,
            "track": 0
        },
        {
            "pitch": 64,
            "start_beat": 3.0,
            "duration_beat": 0.2354166666666666,
            "velocity": 33,
            "track": 0
        },
        {
            "pitch": 69,
            "start_beat": 3.25,
            "duration_beat": 0.2354166666666666,
            "velocity": 33,
            "track": 0
        },
        {
            "pitch": 71,
            "start_beat": 3.5,
            "duration_beat": 0.4729166666666669,
            "velocity": 33,
            "track": 0
        },
        {
            "pitch": 40,
            "start_beat": 3.5,
            "duration_beat": 0.2354166666666666,
            "velocity": 33,
            "track": 1
        },
        {
            "pitch": 52,
            "start_beat": 3.75,
            "duration_beat": 0.2354166666666666,
            "velocity": 33,
            "track": 1
        },
        {
            "pitch": 56,
            "start_beat": 4.0,
            "duration_beat": 0.2354166666666666,
            "velocity": 33,
            "track": 1
        },
        {
            "pitch": 64,
            "start_beat": 4.25,
            "duration_beat": 0.2354166666666666,
            "velocity": 33,
            "track": 0
        },
        {
            "pitch": 68,
            "start_beat": 4.5,
            "duration_beat": 0.2354166666666666,
            "velocity": 33,
            "track": 0
        },
        {
            "pitch": 71,
            "start_beat": 4.75,
            "duration_beat": 0.2354166666666666,
            "velocity": 33,
            "track": 0
        },
        {
            "pitch": 72,
            "start_beat": 5.0,
            "duration_beat": 0.47291666666666643,
            "velocity": 33,
            "track": 0
        },
        {
            "pitch": 45,
            "start_beat": 5.0,
            "duration_beat": 0.2354166666666666,
            "velocity": 33,
            "track": 1
        },
        {
            "pitch": 52,
            "start_beat": 5.25,
            "duration_beat": 0.2354166666666666,
            "velocity": 33,
            "track": 1
        },
        {
            "pitch": 57,
            "start_beat": 5.5,
            "duration_beat": 0.2354166666666666,
            "velocity": 33,
            "track": 1
        },
        {
            "pitch": 64,
            "start_beat": 5.75,
            "duration_beat": 0.2354166666666666,
            "velocity": 33,
            "track": 0
        },
        {
            "pitch": 76,
            "start_beat": 6.0,
            "duration_beat": 0.2354166666666666,
            "velocity": 33,
            "track": 0
        },
        {
            "pitch": 75,
            "start_beat": 6.25,
            "duration_beat": 0.2354166666666666,
            "velocity": 33,
            "track": 0
        },
        {
            "pitch": 76,
            "start_beat": 6.5,
            "duration_beat": 0.2354166666666666,
            "velocity": 33,
            "track": 0
        },
        {
            "pitch": 75,
            "start_beat": 6.75,
            "duration_beat": 0.2354166666666666,
            "velocity": 33,
            "track": 0
        },
        {
            "pitch": 76,
            "start_beat": 7.0,
            "duration_beat": 0.2354166666666666,
            "velocity": 33,
            "track": 0
        },
        {
            "pitch": 71,
            "start_beat": 7.25,
            "duration_beat": 0.2354166666666666,
            "velocity": 33,
            "track": 0
        },
        {
            "pitch": 74,
            "start_beat": 7.5,
            "duration_beat": 0.2354166666666666,
            "velocity": 33,
            "track": 0
        },
        {
            "pitch": 72,
            "start_beat": 7.75,
            "duration_beat": 0.2354166666666666,
            "velocity": 33,
            "track": 0
        },
        {
            "pitch": 69,
            "start_beat": 8.0,
            "duration_beat": 0.47291666666666643,
            "velocity": 33,
            "track": 0
        },
        {
            "pitch": 45,
            "start_beat": 8.0,
            "duration_beat": 0.2354166666666675,
            "velocity": 33,
            "track": 1
        },
        {
            "pitch": 52,
            "start_beat": 8.25,
            "duration_beat": 0.2354166666666675,
            "velocity": 33,
            "track": 1
        },
        {
            "pitch": 57,
            "start_beat": 8.5,
            "duration_beat": 0.2354166666666675,
            "velocity": 33,
            "track": 1
        },
        {
            "pitch": 60,
            "start_beat": 8.75,
            "duration_beat": 0.2354166666666675,
            "velocity": 33,
            "track": 0
        },
        {
            "pitch": 64,
            "start_beat": 9.0,
            "duration_beat": 0.2354166666666675,
            "velocity": 33,
            "track": 0
        },
        {
            "pitch": 69,
            "start_beat": 9.25,
            "duration_beat": 0.2354166666666675,
            "velocity": 33,
            "track": 0
        },
        {
            "pitch": 71,
            "start_beat": 9.5,
            "duration_beat": 0.47291666666666643,
            "velocity": 33,
            "track": 0
        },
        {
            "pitch": 40,
            "start_beat": 9.5,
            "duration_beat": 0.2354166666666675,
            "velocity": 33,
            "track": 1
        },
        {
            "pitch": 52,
            "start_beat": 9.75,
            "duration_beat": 0.2354166666666675,
            "velocity": 33,
            "track": 1
        },
        {
            "pitch": 56,
            "start_beat": 10.0,
            "duration_beat": 0.2354166666666675,
            "velocity": 33,
            "track": 1
        },
        {
            "pitch": 62,
            "start_beat": 10.25,
            "duration_beat": 0.2354166666666675,
            "velocity": 33,
            "track": 0
        },
        {
            "pitch": 72,
            "start_beat": 10.5,
            "duration_beat": 0.2354166666666675,
            "velocity": 33,
            "track": 0
        },
        {
            "pitch": 71,
            "start_beat": 10.75,
            "duration_beat": 0.2354166666666675,
            "velocity": 33,
            "track": 0
        },
        {
            "pitch": 69,
            "start_beat": 11.0,
            "duration_beat": 0.9479166666666661,
            "velocity": 33,
            "track": 0
        },
        {
            "pitch": 45,
            "start_beat": 11.0,
            "duration_beat": 0.2354166666666675,
            "velocity": 33,
            "track": 1
        },
        {
            "pitch": 52,
            "start_beat": 11.25,
            "duration_beat": 0.2354166666666675,
            "velocity": 33,
            "track": 1
        },
        {
            "pitch": 57,
            "start_beat": 11.5,
            "duration_beat": 0.2354166666666675,
            "velocity": 33,
            "track": 1
        },
        {
            "pitch": 76,
            "start_beat": 12.0,
            "duration_beat": 0.2354166666666675,
            "velocity": 33,
            "track": 0
        },
        {
            "pitch": 75,
            "start_beat": 12.25,
            "duration_beat": 0.2354166666666675,
            "velocity": 33,
            "track": 0
        },
        {
            "pitch": 76,
            "start_beat": 12.5,
            "duration_beat": 0.2354166666666675,
            "velocity": 33,
            "track": 0
        },
        {
            "pitch": 75,
            "start_beat": 12.75,
            "duration_beat": 0.2354166666666675,
            "velocity": 33,
            "track": 0
        },
        {
            "pitch": 76,
            "start_beat": 13.0,
            "duration_beat": 0.2354166666666675,
            "velocity": 33,
            "track": 0
        },
        {
            "pitch": 71,
            "start_beat": 13.25,
            "duration_beat": 0.2354166666666675,
            "velocity": 33,
            "track": 0
        },
        {
            "pitch": 74,
            "start_beat": 13.5,
            "duration_beat": 0.2354166666666675,
            "velocity": 33,
            "track": 0
        },
        {
            "pitch": 72,
            "start_beat": 13.75,
            "duration_beat": 0.2354166666666675,
            "velocity": 33,
            "track": 0
        },
        {
            "pitch": 69,
            "start_beat": 14.0,
            "duration_beat": 0.47291666666666643,
            "velocity": 33,
            "track": 0
        },
        {
            "pitch": 45,
            "start_beat": 14.0,
            "duration_beat": 0.2354166666666675,
            "velocity": 33,
            "track": 1
        },
        {
            "pitch": 52,
            "start_beat": 14.25,
            "duration_beat": 0.2354166666666675,
            "velocity": 33,
            "track": 1
        },
        {
            "pitch": 57,
            "start_beat": 14.5,
            "duration_beat": 0.2354166666666675,
            "velocity": 33,
            "track": 1
        },
        {
            "pitch": 60,
            "start_beat": 14.75,
            "duration_beat": 0.2354166666666675,
            "velocity": 33,
            "track": 0
        },
        {
            "pitch": 64,
            "start_beat": 15.0,
            "duration_beat": 0.2354166666666675,
            "velocity": 33,
            "track": 0
        },
        {
            "pitch": 69,
            "start_beat": 15.25,
            "duration_beat": 0.2354166666666675,
            "velocity": 33,
            "track": 0
        },
        {
            "pitch": 71,
            "start_beat": 15.5,
            "duration_beat": 0.47291666666666643,
            "velocity": 33,
            "track": 0
        },
        {
            "pitch": 40,
            "start_beat": 15.5,
            "duration_beat": 0.2354166666666675,
            "velocity": 33,
            "track": 1
        },
        {
            "pitch": 52,
            "start_beat": 15.75,
            "duration_beat": 0.2354166666666675,
            "velocity": 33,
            "track": 1
        },
        {
            "pitch": 56,
            "start_beat": 16.0,
            "duration_beat": 0.23541666666666572,
            "velocity": 33,
            "track": 1
        },
        {
            "pitch": 64,
            "start_beat": 16.25,
            "duration_beat": 0.23541666666666572,
            "velocity": 33,
            "track": 0
        },
        {
            "pitch": 68,
            "start_beat": 16.5,
            "duration_beat": 0.23541666666666572,
            "velocity": 33,
            "track": 0
        },
        {
            "pitch": 71,
            "start_beat": 16.75,
            "duration_beat": 0.23541666666666572,
            "velocity": 33,
            "track": 0
        },
        {
            "pitch": 72,
            "start_beat": 17.0,
            "duration_beat": 0.47291666666666643,
            "velocity": 33,
            "track": 0
        },
        {
            "pitch": 45,
            "start_beat": 17.0,
            "duration_beat": 0.23541666666666572,
            "velocity": 33,
            "track": 1
        },
        {
            "pitch": 52,
            "start_beat": 17.25,
            "duration_beat": 0.23541666666666572,
            "velocity": 33,
            "track": 1
        },
        {
            "pitch": 57,
            "start_beat": 17.5,
            "duration_beat": 0.23541666666666572,
            "velocity": 33,
            "track": 1
        },
        {
            "pitch": 64,
            "start_beat": 17.75,
            "duration_beat": 0.23541666666666572,
            "velocity": 33,
            "track": 0
        },
        {
            "pitch": 76,
            "start_beat": 18.0,
            "duration_beat": 0.23541666666666572,
            "velocity": 33,
            "track": 0
        },
        {
            "pitch": 75,
            "start_beat": 18.25,
            "duration_beat": 0.23541666666666572,
            "velocity": 33,
            "track": 0
        },
        {
            "pitch": 76,
            "start_beat": 18.5,
            "duration_beat": 0.23541666666666572,
            "velocity": 33,
            "track": 0
        },
        {
            "pitch": 75,
            "start_beat": 18.75,
            "duration_beat": 0.23541666666666572,
            "velocity": 33,
            "track": 0
        },
        {
            "pitch": 76,
            "start_beat": 19.0,
            "duration_beat": 0.23541666666666572,
            "velocity": 33,
            "track": 0
        },
        {
            "pitch": 71,
            "start_beat": 19.25,
            "duration_beat": 0.23541666666666572,
            "velocity": 33,
            "track": 0
        },
        {
            "pitch": 74,
            "start_beat": 19.5,
            "duration_beat": 0.23541666666666572,
            "velocity": 33,
            "track": 0
        },
        {
            "pitch": 72,
            "start_beat": 19.75,
            "duration_beat": 0.23541666666666572,
            "velocity": 33,
            "track": 0
        },
        {
            "pitch": 69,
            "start_beat": 20.0,
            "duration_beat": 0.47291666666666643,
            "velocity": 33,
            "track": 0
        },
        {
            "pitch": 45,
            "start_beat": 20.0,
            "duration_beat": 0.23541666666666572,
            "velocity": 33,
            "track": 1
        },
        {
            "pitch": 52,
            "start_beat": 20.25,
            "duration_beat": 0.23541666666666572,
            "velocity": 33,
            "track": 1
        },
        {
            "pitch": 57,
            "start_beat": 20.5,
            "duration_beat": 0.23541666666666572,
            "velocity": 33,
            "track": 1
        },
        {
            "pitch": 60,
            "start_beat": 20.75,
            "duration_beat": 0.23541666666666572,
            "velocity": 33,
            "track": 0
        },
        {
            "pitch": 64,
            "start_beat": 21.0,
            "duration_beat": 0.23541666666666572,
            "velocity": 33,
            "track": 0
        },
        {
            "pitch": 69,
            "start_beat": 21.25,
            "duration_beat": 0.23541666666666572,
            "velocity": 33,
            "track": 0
        },
        {
            "pitch": 71,
            "start_beat": 21.5,
            "duration_beat": 0.47291666666666643,
            "velocity": 33,
            "track": 0
        },
        {
            "pitch": 40,
            "start_beat": 21.5,
            "duration_beat": 0.23541666666666572,
            "velocity": 33,
            "track": 1
        },
        {
            "pitch": 52,
            "start_beat": 21.75,
            "duration_beat": 0.23541666666666572,
            "velocity": 33,
            "track": 1
        },
        {
            "pitch": 56,
            "start_beat": 22.0,
            "duration_beat": 0.23541666666666572,
            "velocity": 33,
            "track": 1
        },
        {
            "pitch": 62,
            "start_beat": 22.25,
            "duration_beat": 0.23541666666666572,
            "velocity": 33,
            "track": 0
        },
        {
            "pitch": 72,
            "start_beat": 22.5,
            "duration_beat": 0.23541666666666572,
            "velocity": 33,
            "track": 0
        },
        {
            "pitch": 71,
            "start_beat": 22.75,
            "duration_beat": 0.23541666666666572,
            "velocity": 33,
            "track": 0
        },
        {
            "pitch": 69,
            "start_beat": 23.0,
            "duration_beat": 0.47291666666666643,
            "velocity": 33,
            "track": 0
        },
        {
            "pitch": 45,
            "start_beat": 23.0,
            "duration_beat": 0.23541666666666572,
            "velocity": 33,
            "track": 1
        },
        {
            "pitch": 52,
            "start_beat": 23.25,
            "duration_beat": 0.23541666666666572,
            "velocity": 33,
            "track": 1
        },
        {
            "pitch": 57,
            "start_beat": 23.5,
            "duration_beat": 0.23541666666666572,
            "velocity": 33,
            "track": 1
        },
        {
            "pitch": 71,
            "start_beat": 23.75,
            "duration_beat": 0.23541666666666572,
            "velocity": 33,
            "track": 0
        },
        {
            "pitch": 72,
            "start_beat": 24.0,
            "duration_beat": 0.23541666666666572,
            "velocity": 33,
            "track": 0
        },
        {
            "pitch": 74,
            "start_beat": 24.25,
            "duration_beat": 0.23541666666666572,
            "velocity": 33,
            "track": 0
        },
        {
            "pitch": 76,
            "start_beat": 24.5,
            "duration_beat": 0.7104166666666671,
            "velocity": 33,
            "track": 0
        },
        {
            "pitch": 48,
            "start_beat": 24.5,
            "duration_beat": 0.23541666666666572,
            "velocity": 33,
            "track": 1
        },
        {
            "pitch": 55,
            "start_beat": 24.75,
            "duration_beat": 0.23541666666666572,
            "velocity": 33,
            "track": 1
        },
        {
            "pitch": 60,
            "start_beat": 25.0,
            "duration_beat": 0.23541666666666572,
            "velocity": 33,
            "track": 1
        },
        {
            "pitch": 67,
            "start_beat": 25.25,
            "duration_beat": 0.23541666666666572,
            "velocity": 33,
            "track": 0
        },
        {
            "pitch": 77,
            "start_beat": 25.5,
            "duration_beat": 0.23541666666666572,
            "velocity": 33,
            "track": 0
        },
        {
            "pitch": 76,
            "start_beat": 25.75,
            "duration_beat": 0.23541666666666572,
            "velocity": 33,
            "track": 0
        },
        {
            "pitch": 74,
            "start_beat": 26.0,
            "duration_beat": 0.7104166666666671,
            "velocity": 33,
            "track": 0
        },
        {
            "pitch": 43,
            "start_beat": 26.0,
            "duration_beat": 0.23541666666666572,
            "velocity": 33,
            "track": 1
        },
        {
            "pitch": 55,
            "start_beat": 26.25,
            "duration_beat": 0.23541666666666572,
            "velocity": 33,
            "track": 1
        },
        {
            "pitch": 59,
            "start_beat": 26.5,
            "duration_beat": 0.23541666666666572,
            "velocity": 33,
            "track": 1
        },
        {
            "pitch": 65,
            "start_beat": 26.75,
            "duration_beat": 0.23541666666666572,
            "velocity": 33,
            "track": 0
        },
        {
            "pitch": 76,
            "start_beat": 27.0,
            "duration_beat": 0.23541666666666572,
            "velocity": 33,
            "track": 0
        },
        {
            "pitch": 74,
            "start_beat": 27.25,
            "duration_beat": 0.23541666666666572,
            "velocity": 33,
            "track": 0
        },
        {
            "pitch": 72,
            "start_beat": 27.5,
            "duration_beat": 0.7104166666666671,
            "velocity": 33,
            "track": 0
        },
        {
            "pitch": 45,
            "start_beat": 27.5,
            "duration_beat": 0.23541666666666572,
            "velocity": 33,
            "track": 1
        },
        {
            "pitch": 52,
            "start_beat": 27.75,
            "duration_beat": 0.23541666666666572,
            "velocity": 33,
            "track": 1
        },
        {
            "pitch": 57,
            "start_beat": 28.0,
            "duration_beat": 0.23541666666666572,
            "velocity": 33,
            "track": 1
        },
        {
            "pitch": 64,
            "start_beat": 28.25,
            "duration_beat": 0.23541666666666572,
            "velocity": 33,
            "track": 0
        },
        {
            "pitch": 74,
            "start_beat": 28.5,
            "duration_beat": 0.23541666666666572,
            "velocity": 33,
            "track": 0
        },
        {
            "pitch": 72,
            "start_beat": 28.75,
            "duration_beat": 0.23541666666666572,
            "velocity": 33,
            "track": 0
        },
        {
            "pitch": 71,
            "start_beat": 29.0,
            "duration_beat": 0.47291666666666643,
            "velocity": 33,
            "track": 0
        },
        {
            "pitch": 40,
            "start_beat": 29.0,
            "duration_beat": 0.23541666666666572,
            "velocity": 33,
            "track": 1
        },
        {
            "pitch": 52,
            "start_beat": 29.25,
            "duration_beat": 0.23541666666666572,
            "velocity": 33,
            "track": 1
        },
        {
            "pitch": 64,
            "start_beat": 29.5,
            "duration_beat": 0.23541666666666572,
            "velocity": 33,
            "track": 1
        },
        {
            "pitch": 64,
            "start_beat": 29.75,
            "duration_beat": 0.247916666666665,
            "velocity": 33,
            "track": 0
        },
        {
            "pitch": 76,
            "start_beat": 30.0,
            "duration_beat": 0.23541666666666572,
            "velocity": 33,
            "track": 0
        },
        {
            "pitch": 64,
            "start_beat": 30.25,
            "duration_beat": 0.247916666666665,
            "velocity": 33,
            "track": 1
        },
        {
            "pitch": 76,
            "start_beat": 30.5,
            "duration_beat": 0.23541666666666572,
            "velocity": 33,
            "track": 1
        },
        {
            "pitch": 76,
            "start_beat": 30.75,
            "duration_beat": 0.247916666666665,
            "velocity": 33,
            "track": 0
        },
        {
            "pitch": 88,
            "start_beat": 31.0,
            "duration_beat": 0.23541666666666572,
            "velocity": 33,
            "track": 0
        },
        {
            "pitch": 75,
            "start_beat": 31.25,
            "duration_beat": 0.247916666666665,
            "velocity": 33,
            "track": 1
        },
        {
            "pitch": 76,
            "start_beat": 31.5,
            "duration_beat": 0.23541666666666572,
            "velocity": 33,
            "track": 1
        },
        {
            "pitch": 75,
            "start_beat": 31.75,
            "duration_beat": 0.247916666666665,
            "velocity": 33,
            "track": 0
        },
        {
            "pitch": 76,
            "start_beat": 32.0,
            "duration_beat": 0.47291666666667,
            "velocity": 33,
            "track": 0
        },
        {
            "pitch": 75,
            "start_beat": 32.25,
            "duration_beat": 0.24791666666666856,
            "velocity": 33,
            "track": 1
        },
        {
            "pitch": 76,
            "start_beat": 32.5,
            "duration_beat": 0.23541666666666572,
            "velocity": 33,
            "track": 1
        },
        {
            "pitch": 75,
            "start_beat": 32.75,
            "duration_beat": 0.23541666666666572,
            "velocity": 33,
            "track": 0
        },
        {
            "pitch": 76,
            "start_beat": 33.0,
            "duration_beat": 0.23541666666666572,
            "velocity": 33,
            "track": 0
        },
        {
            "pitch": 75,
            "start_beat": 33.25,
            "duration_beat": 0.23541666666666572,
            "velocity": 33,
            "track": 0
        },
        {
            "pitch": 76,
            "start_beat": 33.5,
            "duration_beat": 0.23541666666666572,
            "velocity": 33,
            "track": 0
        },
        {
            "pitch": 75,
            "start_beat": 33.75,
            "duration_beat": 0.23541666666666572,
            "velocity": 33,
            "track": 0
        },
        {
            "pitch": 76,
            "start_beat": 34.0,
            "duration_beat": 0.23541666666666572,
            "velocity": 33,
            "track": 0
        },
        {
            "pitch": 71,
            "start_beat": 34.25,
            "duration_beat": 0.23541666666666572,
            "velocity": 33,
            "track": 0
        },
        {
            "pitch": 74,
            "start_beat": 34.5,
            "duration_beat": 0.23541666666666572,
            "velocity": 33,
            "track": 0
        },
        {
            "pitch": 72,
            "start_beat": 34.75,
            "duration_beat": 0.23541666666666572,
            "velocity": 33,
            "track": 0
        },
        {
            "pitch": 69,
            "start_beat": 35.0,
            "duration_beat": 0.47291666666667,
            "velocity": 33,
            "track": 0
        },
        {
            "pitch": 45,
            "start_beat": 35.0,
            "duration_beat": 0.23541666666666572,
            "velocity": 33,
            "track": 1
        },
        {
            "pitch": 52,
            "start_beat": 35.25,
            "duration_beat": 0.23541666666666572,
            "velocity": 33,
            "track": 1
        },
        {
            "pitch": 57,
            "start_beat": 35.5,
            "duration_beat": 0.23541666666666572,
            "velocity": 33,
            "track": 1
        },
        {
            "pitch": 60,
            "start_beat": 35.75,
            "duration_beat": 0.23541666666666572,
            "velocity": 33,
            "track": 0
        },
        {
            "pitch": 64,
            "start_beat": 36.0,
            "duration_beat": 0.23541666666666572,
            "velocity": 33,
            "track": 0
        },
        {
            "pitch": 69,
            "start_beat": 36.25,
            "duration_beat": 0.23541666666666572,
            "velocity": 33,
            "track": 0
        },
        {
            "pitch": 71,
            "start_beat": 36.5,
            "duration_beat": 0.47291666666667,
            "velocity": 33,
            "track": 0
        },
        {
            "pitch": 40,
            "start_beat": 36.5,
            "duration_beat": 0.23541666666666572,
            "velocity": 33,
            "track": 1
        },
        {
            "pitch": 52,
            "start_beat": 36.75,
            "duration_beat": 0.23541666666666572,
            "velocity": 33,
            "track": 1
        },
        {
            "pitch": 56,
            "start_beat": 37.0,
            "duration_beat": 0.23541666666666572,
            "velocity": 33,
            "track": 1
        },
        {
            "pitch": 64,
            "start_beat": 37.25,
            "duration_beat": 0.23541666666666572,
            "velocity": 33,
            "track": 0
        },
        {
            "pitch": 68,
            "start_beat": 37.5,
            "duration_beat": 0.23541666666666572,
            "velocity": 33,
            "track": 0
        },
        {
            "pitch": 71,
            "start_beat": 37.75,
            "duration_beat": 0.23541666666666572,
            "velocity": 33,
            "track": 0
        },
        {
            "pitch": 72,
            "start_beat": 38.0,
            "duration_beat": 0.47291666666667,
            "velocity": 33,
            "track": 0
        },
        {
            "pitch": 45,
            "start_beat": 38.0,
            "duration_beat": 0.23541666666666572,
            "velocity": 33,
            "track": 1
        },
        {
            "pitch": 52,
            "start_beat": 38.25,
            "duration_beat": 0.23541666666666572,
            "velocity": 33,
            "track": 1
        },
        {
            "pitch": 57,
            "start_beat": 38.5,
            "duration_beat": 0.23541666666666572,
            "velocity": 33,
            "track": 1
        },
        {
            "pitch": 64,
            "start_beat": 38.75,
            "duration_beat": 0.23541666666666572,
            "velocity": 33,
            "track": 0
        },
        {
            "pitch": 76,
            "start_beat": 39.0,
            "duration_beat": 0.23541666666666572,
            "velocity": 33,
            "track": 0
        },
        {
            "pitch": 75,
            "start_beat": 39.25,
            "duration_beat": 0.23541666666666572,
            "velocity": 33,
            "track": 0
        },
        {
            "pitch": 76,
            "start_beat": 39.5,
            "duration_beat": 0.23541666666666572,
            "velocity": 33,
            "track": 0
        },
        {
            "pitch": 75,
            "start_beat": 39.75,
            "duration_beat": 0.23541666666666572,
            "velocity": 33,
            "track": 0
        },
        {
            "pitch": 76,
            "start_beat": 40.0,
            "duration_beat": 0.23541666666666572,
            "velocity": 33,
            "track": 0
        },
        {
            "pitch": 71,
            "start_beat": 40.25,
            "duration_beat": 0.23541666666666572,
            "velocity": 33,
            "track": 0
        },
        {
            "pitch": 74,
            "start_beat": 40.5,
            "duration_beat": 0.23541666666666572,
            "velocity": 33,
            "track": 0
        },
        {
            "pitch": 72,
            "start_beat": 40.75,
            "duration_beat": 0.23541666666666572,
            "velocity": 33,
            "track": 0
        },
        {
            "pitch": 69,
            "start_beat": 41.0,
            "duration_beat": 0.47291666666667,
            "velocity": 33,
            "track": 0
        },
        {
            "pitch": 45,
            "start_beat": 41.0,
            "duration_beat": 0.23541666666666572,
            "velocity": 33,
            "track": 1
        },
        {
            "pitch": 52,
            "start_beat": 41.25,
            "duration_beat": 0.23541666666666572,
            "velocity": 33,
            "track": 1
        },
        {
            "pitch": 57,
            "start_beat": 41.5,
            "duration_beat": 0.23541666666666572,
            "velocity": 33,
            "track": 1
        },
        {
            "pitch": 60,
            "start_beat": 41.75,
            "duration_beat": 0.23541666666666572,
            "velocity": 33,
            "track": 0
        },
        {
            "pitch": 64,
            "start_beat": 42.0,
            "duration_beat": 0.23541666666666572,
            "velocity": 33,
            "track": 0
        },
        {
            "pitch": 69,
            "start_beat": 42.25,
            "duration_beat": 0.23541666666666572,
            "velocity": 33,
            "track": 0
        },
        {
            "pitch": 71,
            "start_beat": 42.5,
            "duration_beat": 0.47291666666667,
            "velocity": 33,
            "track": 0
        },
        {
            "pitch": 40,
            "start_beat": 42.5,
            "duration_beat": 0.23541666666666572,
            "velocity": 33,
            "track": 1
        },
        {
            "pitch": 52,
            "start_beat": 42.75,
            "duration_beat": 0.23541666666666572,
            "velocity": 33,
            "track": 1
        },
        {
            "pitch": 56,
            "start_beat": 43.0,
            "duration_beat": 0.23541666666666572,
            "velocity": 33,
            "track": 1
        },
        {
            "pitch": 62,
            "start_beat": 43.25,
            "duration_beat": 0.23541666666666572,
            "velocity": 33,
            "track": 0
        },
        {
            "pitch": 72,
            "start_beat": 43.5,
            "duration_beat": 0.23541666666666572,
            "velocity": 33,
            "track": 0
        },
        {
            "pitch": 71,
            "start_beat": 43.75,
            "duration_beat": 0.23541666666666572,
            "velocity": 33,
            "track": 0
        },
        {
            "pitch": 69,
            "start_beat": 44.0,
            "duration_beat": 0.47291666666667,
            "velocity": 33,
            "track": 0
        },
        {
            "pitch": 45,
            "start_beat": 44.0,
            "duration_beat": 0.23541666666666572,
            "velocity": 33,
            "track": 1
        },
        {
            "pitch": 52,
            "start_beat": 44.25,
            "duration_beat": 0.23541666666666572,
            "velocity": 33,
            "track": 1
        },
        {
            "pitch": 57,
            "start_beat": 44.5,
            "duration_beat": 0.23541666666666572,
            "velocity": 33,
            "track": 1
        },
        {
            "pitch": 71,
            "start_beat": 44.75,
            "duration_beat": 0.23541666666666572,
            "velocity": 33,
            "track": 0
        },
        {
            "pitch": 72,
            "start_beat": 45.0,
            "duration_beat": 0.23541666666666572,
            "velocity": 33,
            "track": 0
        },
        {
            "pitch": 74,
            "start_beat": 45.25,
            "duration_beat": 0.23541666666666572,
            "velocity": 33,
            "track": 0
        },
        {
            "pitch": 76,
            "start_beat": 45.5,
            "duration_beat": 0.7104166666666671,
            "velocity": 33,
            "track": 0
        },
        {
            "pitch": 48,
            "start_beat": 45.5,
            "duration_beat": 0.23541666666666572,
            "velocity": 33,
            "track": 1
        },
        {
            "pitch": 55,
            "start_beat": 45.75,
            "duration_beat": 0.23541666666666572,
            "velocity": 33,
            "track": 1
        },
        {
            "pitch": 60,
            "start_beat": 46.0,
            "duration_beat": 0.23541666666666572,
            "velocity": 33,
            "track": 1
        },
        {
            "pitch": 67,
            "start_beat": 46.25,
            "duration_beat": 0.23541666666666572,
            "velocity": 33,
            "track": 0
        },
        {
            "pitch": 77,
            "start_beat": 46.5,
            "duration_beat": 0.23541666666666572,
            "velocity": 33,
            "track": 0
        },
        {
            "pitch": 76,
            "start_beat": 46.75,
            "duration_beat": 0.23541666666666572,
            "velocity": 33,
            "track": 0
        },
        {
            "pitch": 74,
            "start_beat": 47.0,
            "duration_beat": 0.7104166666666671,
            "velocity": 33,
            "track": 0
        },
        {
            "pitch": 43,
            "start_beat": 47.0,
            "duration_beat": 0.23541666666666572,
            "velocity": 33,
            "track": 1
        },
        {
            "pitch": 55,
            "start_beat": 47.25,
            "duration_beat": 0.23541666666666572,
            "velocity": 33,
            "track": 1
        },
        {
            "pitch": 59,
            "start_beat": 47.5,
            "duration_beat": 0.23541666666666572,
            "velocity": 33,
            "track": 1
        },
        {
            "pitch": 65,
            "start_beat": 47.75,
            "duration_beat": 0.23541666666666572,
            "velocity": 33,
            "track": 0
        },
        {
            "pitch": 76,
            "start_beat": 48.0,
            "duration_beat": 0.23541666666666572,
            "velocity": 33,
            "track": 0
        },
        {
            "pitch": 74,
            "start_beat": 48.25,
            "duration_beat": 0.23541666666666572,
            "velocity": 33,
            "track": 0
        },
        {
            "pitch": 72,
            "start_beat": 48.5,
            "duration_beat": 0.7104166666666671,
            "velocity": 33,
            "track": 0
        },
        {
            "pitch": 45,
            "start_beat": 48.5,
            "duration_beat": 0.23541666666666572,
            "velocity": 33,
            "track": 1
        },
        {
            "pitch": 52,
            "start_beat": 48.75,
            "duration_beat": 0.23541666666666572,
            "velocity": 33,
            "track": 1
        },
        {
            "pitch": 57,
            "start_beat": 49.0,
            "duration_beat": 0.23541666666666572,
            "velocity": 33,
            "track": 1
        },
        {
            "pitch": 64,
            "start_beat": 49.25,
            "duration_beat": 0.23541666666666572,
            "velocity": 33,
            "track": 0
        },
        {
            "pitch": 74,
            "start_beat": 49.5,
            "duration_beat": 0.23541666666666572,
            "velocity": 33,
            "track": 0
        },
        {
            "pitch": 72,
            "start_beat": 49.75,
            "duration_beat": 0.23541666666666572,
            "velocity": 33,
            "track": 0
        },
        {
            "pitch": 71,
            "start_beat": 50.0,
            "duration_beat": 0.47291666666667,
            "velocity": 33,
            "track": 0
        },
        {
            "pitch": 40,
            "start_beat": 50.0,
            "duration_beat": 0.23541666666666572,
            "velocity": 33,
            "track": 1
        },
        {
            "pitch": 52,
            "start_beat": 50.25,
            "duration_beat": 0.23541666666666572,
            "velocity": 33,
            "track": 1
        },
        {
            "pitch": 64,
            "start_beat": 50.5,
            "duration_beat": 0.23541666666666572,
            "velocity": 33,
            "track": 1
        },
        {
            "pitch": 64,
            "start_beat": 50.75,
            "duration_beat": 0.24791666666666856,
            "velocity": 33,
            "track": 0
        },
        {
            "pitch": 76,
            "start_beat": 51.0,
            "duration_beat": 0.23541666666666572,
            "velocity": 33,
            "track": 0
        },
        {
            "pitch": 64,
            "start_beat": 51.25,
            "duration_beat": 0.24791666666666856,
            "velocity": 33,
            "track": 1
        },
        {
            "pitch": 76,
            "start_beat": 51.5,
            "duration_beat": 0.23541666666666572,
            "velocity": 33,
            "track": 1
        },
        {
            "pitch": 76,
            "start_beat": 51.75,
            "duration_beat": 0.24791666666666856,
            "velocity": 33,
            "track": 0
        },
        {
            "pitch": 88,
            "start_beat": 52.0,
            "duration_beat": 0.23541666666666572,
            "velocity": 33,
            "track": 0
        },
        {
            "pitch": 75,
            "start_beat": 52.25,
            "duration_beat": 0.24791666666666856,
            "velocity": 33,
            "track": 1
        },
        {
            "pitch": 76,
            "start_beat": 52.5,
            "duration_beat": 0.23541666666666572,
            "velocity": 33,
            "track": 1
        },
        {
            "pitch": 75,
            "start_beat": 52.75,
            "duration_beat": 0.24791666666666856,
            "velocity": 33,
            "track": 0
        },
        {
            "pitch": 76,
            "start_beat": 53.0,
            "duration_beat": 0.47291666666667,
            "velocity": 33,
            "track": 0
        },
        {
            "pitch": 75,
            "start_beat": 53.25,
            "duration_beat": 0.24791666666666856,
            "velocity": 33,
            "track": 1
        },
        {
            "pitch": 76,
            "start_beat": 53.5,
            "duration_beat": 0.23541666666666572,
            "velocity": 33,
            "track": 1
        },
        {
            "pitch": 75,
            "start_beat": 53.75,
            "duration_beat": 0.23541666666666572,
            "velocity": 33,
            "track": 0
        },
        {
            "pitch": 76,
            "start_beat": 54.0,
            "duration_beat": 0.23541666666666572,
            "velocity": 33,
            "track": 0
        },
        {
            "pitch": 75,
            "start_beat": 54.25,
            "duration_beat": 0.23541666666666572,
            "velocity": 33,
            "track": 0
        },
        {
            "pitch": 76,
            "start_beat": 54.5,
            "duration_beat": 0.23541666666666572,
            "velocity": 33,
            "track": 0
        },
        {
            "pitch": 75,
            "start_beat": 54.75,
            "duration_beat": 0.23541666666666572,
            "velocity": 33,
            "track": 0
        },
        {
            "pitch": 76,
            "start_beat": 55.0,
            "duration_beat": 0.23541666666666572,
            "velocity": 33,
            "track": 0
        },
        {
            "pitch": 71,
            "start_beat": 55.25,
            "duration_beat": 0.23541666666666572,
            "velocity": 33,
            "track": 0
        },
        {
            "pitch": 74,
            "start_beat": 55.5,
            "duration_beat": 0.23541666666666572,
            "velocity": 33,
            "track": 0
        },
        {
            "pitch": 72,
            "start_beat": 55.75,
            "duration_beat": 0.23541666666666572,
            "velocity": 33,
            "track": 0
        },
        {
            "pitch": 69,
            "start_beat": 56.0,
            "duration_beat": 0.47291666666667,
            "velocity": 33,
            "track": 0
        },
        {
            "pitch": 45,
            "start_beat": 56.0,
            "duration_beat": 0.23541666666666572,
            "velocity": 33,
            "track": 1
        },
        {
            "pitch": 52,
            "start_beat": 56.25,
            "duration_beat": 0.23541666666666572,
            "velocity": 33,
            "track": 1
        },
        {
            "pitch": 57,
            "start_beat": 56.5,
            "duration_beat": 0.23541666666666572,
            "velocity": 33,
            "track": 1
        },
        {
            "pitch": 60,
            "start_beat": 56.75,
            "duration_beat": 0.23541666666666572,
            "velocity": 33,
            "track": 0
        },
        {
            "pitch": 64,
            "start_beat": 57.0,
            "duration_beat": 0.23541666666666572,
            "velocity": 33,
            "track": 0
        },
        {
            "pitch": 69,
            "start_beat": 57.25,
            "duration_beat": 0.23541666666666572,
            "velocity": 33,
            "track": 0
        },
        {
            "pitch": 71,
            "start_beat": 57.5,
            "duration_beat": 0.47291666666667,
            "velocity": 33,
            "track": 0
        },
        {
            "pitch": 40,
            "start_beat": 57.5,
            "duration_beat": 0.23541666666666572,
            "velocity": 33,
            "track": 1
        },
        {
            "pitch": 52,
            "start_beat": 57.75,
            "duration_beat": 0.23541666666666572,
            "velocity": 33,
            "track": 1
        },
        {
            "pitch": 56,
            "start_beat": 58.0,
            "duration_beat": 0.23541666666666572,
            "velocity": 33,
            "track": 1
        },
        {
            "pitch": 64,
            "start_beat": 58.25,
            "duration_beat": 0.23541666666666572,
            "velocity": 33,
            "track": 0
        },
        {
            "pitch": 68,
            "start_beat": 58.5,
            "duration_beat": 0.23541666666666572,
            "velocity": 33,
            "track": 0
        },
        {
            "pitch": 71,
            "start_beat": 58.75,
            "duration_beat": 0.23541666666666572,
            "velocity": 33,
            "track": 0
        },
        {
            "pitch": 72,
            "start_beat": 59.0,
            "duration_beat": 0.47291666666667,
            "velocity": 33,
            "track": 0
        },
        {
            "pitch": 45,
            "start_beat": 59.0,
            "duration_beat": 0.23541666666666572,
            "velocity": 33,
            "track": 1
        },
        {
            "pitch": 52,
            "start_beat": 59.25,
            "duration_beat": 0.23541666666666572,
            "velocity": 33,
            "track": 1
        },
        {
            "pitch": 57,
            "start_beat": 59.5,
            "duration_beat": 0.23541666666666572,
            "velocity": 33,
            "track": 1
        },
        {
            "pitch": 64,
            "start_beat": 59.75,
            "duration_beat": 0.23541666666666572,
            "velocity": 33,
            "track": 0
        },
        {
            "pitch": 76,
            "start_beat": 60.0,
            "duration_beat": 0.23541666666666572,
            "velocity": 33,
            "track": 0
        },
        {
            "pitch": 75,
            "start_beat": 60.25,
            "duration_beat": 0.23541666666666572,
            "velocity": 33,
            "track": 0
        },
        {
            "pitch": 76,
            "start_beat": 60.5,
            "duration_beat": 0.23541666666666572,
            "velocity": 33,
            "track": 0
        },
        {
            "pitch": 75,
            "start_beat": 60.75,
            "duration_beat": 0.23541666666666572,
            "velocity": 33,
            "track": 0
        },
        {
            "pitch": 76,
            "start_beat": 61.0,
            "duration_beat": 0.23541666666666572,
            "velocity": 33,
            "track": 0
        },
        {
            "pitch": 71,
            "start_beat": 61.25,
            "duration_beat": 0.23541666666666572,
            "velocity": 33,
            "track": 0
        },
        {
            "pitch": 74,
            "start_beat": 61.5,
            "duration_beat": 0.23541666666666572,
            "velocity": 33,
            "track": 0
        },
        {
            "pitch": 72,
            "start_beat": 61.75,
            "duration_beat": 0.23541666666666572,
            "velocity": 33,
            "track": 0
        },
        {
            "pitch": 69,
            "start_beat": 62.0,
            "duration_beat": 0.47291666666667,
            "velocity": 33,
            "track": 0
        },
        {
            "pitch": 45,
            "start_beat": 62.0,
            "duration_beat": 0.23541666666666572,
            "velocity": 33,
            "track": 1
        },
        {
            "pitch": 52,
            "start_beat": 62.25,
            "duration_beat": 0.23541666666666572,
            "velocity": 33,
            "track": 1
        },
        {
            "pitch": 57,
            "start_beat": 62.5,
            "duration_beat": 0.23541666666666572,
            "velocity": 33,
            "track": 1
        },
        {
            "pitch": 60,
            "start_beat": 62.75,
            "duration_beat": 0.23541666666666572,
            "velocity": 33,
            "track": 0
        },
        {
            "pitch": 64,
            "start_beat": 63.0,
            "duration_beat": 0.23541666666666572,
            "velocity": 33,
            "track": 0
        },
        {
            "pitch": 69,
            "start_beat": 63.25,
            "duration_beat": 0.23541666666666572,
            "velocity": 33,
            "track": 0
        },
        {
            "pitch": 71,
            "start_beat": 63.5,
            "duration_beat": 0.47291666666667,
            "velocity": 33,
            "track": 0
        },
        {
            "pitch": 40,
            "start_beat": 63.5,
            "duration_beat": 0.23541666666666572,
            "velocity": 33,
            "track": 1
        },
        {
            "pitch": 52,
            "start_beat": 63.75,
            "duration_beat": 0.23541666666666572,
            "velocity": 33,
            "track": 1
        },
        {
            "pitch": 56,
            "start_beat": 64.0,
            "duration_beat": 0.23541666666666572,
            "velocity": 33,
            "track": 1
        },
        {
            "pitch": 62,
            "start_beat": 64.25,
            "duration_beat": 0.23541666666666572,
            "velocity": 33,
            "track": 0
        },
        {
            "pitch": 72,
            "start_beat": 64.5,
            "duration_beat": 0.23541666666666572,
            "velocity": 33,
            "track": 0
        },
        {
            "pitch": 71,
            "start_beat": 64.75,
            "duration_beat": 0.23541666666666572,
            "velocity": 33,
            "track": 0
        },
        {
            "pitch": 69,
            "start_beat": 65.0,
            "duration_beat": 0.23541666666666572,
            "velocity": 33,
            "track": 0
        },
        {
            "pitch": 45,
            "start_beat": 65.0,
            "duration_beat": 0.23541666666666572,
            "velocity": 33,
            "track": 1
        },
        {
            "pitch": 52,
            "start_beat": 65.25,
            "duration_beat": 0.23541666666666572,
            "velocity": 33,
            "track": 1
        },
        {
            "pitch": 57,
            "start_beat": 65.5,
            "duration_beat": 0.23541666666666572,
            "velocity": 33,
            "track": 1
        },
        {
            "pitch": 64,
            "start_beat": 65.75,
            "duration_beat": 0.23541666666666572,
            "velocity": 33,
            "track": 0
        },
        {
            "pitch": 72,
            "start_beat": 65.75,
            "duration_beat": 0.23541666666666572,
            "velocity": 33,
            "track": 0
        },
        {
            "pitch": 58,
            "start_beat": 65.75,
            "duration_beat": 0.23541666666666572,
            "velocity": 33,
            "track": 1
        },
        {
            "pitch": 60,
            "start_beat": 65.75,
            "duration_beat": 0.23541666666666572,
            "velocity": 33,
            "track": 1
        },
        {
            "pitch": 65,
            "start_beat": 66.0,
            "duration_beat": 0.23541666666666572,
            "velocity": 33,
            "track": 0
        },
        {
            "pitch": 72,
            "start_beat": 66.0,
            "duration_beat": 0.23541666666666572,
            "velocity": 33,
            "track": 0
        },
        {
            "pitch": 57,
            "start_beat": 66.0,
            "duration_beat": 0.23541666666666572,
            "velocity": 33,
            "track": 1
        },
        {
            "pitch": 60,
            "start_beat": 66.0,
            "duration_beat": 0.23541666666666572,
            "velocity": 33,
            "track": 1
        },
        {
            "pitch": 64,
            "start_beat": 66.25,
            "duration_beat": 0.11666666666666003,
            "velocity": 33,
            "track": 0
        },
        {
            "pitch": 67,
            "start_beat": 66.25,
            "duration_beat": 0.11666666666666003,
            "velocity": 33,
            "track": 0
        },
        {
            "pitch": 72,
            "start_beat": 66.25,
            "duration_beat": 0.11666666666666003,
            "velocity": 33,
            "track": 0
        },
        {
            "pitch": 55,
            "start_beat": 66.25,
            "duration_beat": 0.23541666666666572,
            "velocity": 33,
            "track": 1
        },
        {
            "pitch": 58,
            "start_beat": 66.25,
            "duration_beat": 0.23541666666666572,
            "velocity": 33,
            "track": 1
        },
        {
            "pitch": 60,
            "start_beat": 66.25,
            "duration_beat": 0.23541666666666572,
            "velocity": 33,
            "track": 1
        },
        {
            "pitch": 65,
            "start_beat": 66.375,
            "duration_beat": 0.06041666666666856,
            "velocity": 33,
            "track": 0
        },
        {
            "pitch": 69,
            "start_beat": 66.4375,
            "duration_beat": 0.06041666666666856,
            "velocity": 33,
            "track": 0
        },
        {
            "pitch": 72,
            "start_beat": 66.5,
            "duration_beat": 0.9479166666666714,
            "velocity": 33,
            "track": 0
        },
        {
            "pitch": 53,
            "start_beat": 66.5,
            "duration_beat": 0.23541666666666572,
            "velocity": 33,
            "track": 1
        },
        {
            "pitch": 57,
            "start_beat": 66.75,
            "duration_beat": 0.23541666666666572,
            "velocity": 33,
            "track": 1
        },
        {
            "pitch": 60,
            "start_beat": 67.0,
            "duration_beat": 0.23541666666666572,
            "velocity": 33,
            "track": 1
        },
        {
            "pitch": 57,
            "start_beat": 67.25,
            "duration_beat": 0.23541666666666572,
            "velocity": 33,
            "track": 1
        },
        {
            "pitch": 77,
            "start_beat": 67.5,
            "duration_beat": 0.3541666666666714,
            "velocity": 33,
            "track": 0
        },
        {
            "pitch": 60,
            "start_beat": 67.5,
            "duration_beat": 0.23541666666666572,
            "velocity": 33,
            "track": 1
        },
        {
            "pitch": 57,
            "start_beat": 67.75,
            "duration_beat": 0.23541666666666572,
            "velocity": 33,
            "track": 1
        },
        {
            "pitch": 76,
            "start_beat": 67.875,
            "duration_beat": 0.11666666666666003,
            "velocity": 33,
            "track": 0
        },
        {
            "pitch": 76,
            "start_beat": 68.0,
            "duration_beat": 0.49791666666666856,
            "velocity": 33,
            "track": 0
        },
        {
            "pitch": 53,
            "start_beat": 68.0,
            "duration_beat": 0.23541666666666572,
            "velocity": 33,
            "track": 1
        },
        {
            "pitch": 58,
            "start_beat": 68.25,
            "duration_beat": 0.23541666666666572,
            "velocity": 33,
            "track": 1
        },
        {
            "pitch": 74,
            "start_beat": 68.5,
            "duration_beat": 0.4729166666666629,
            "velocity": 33,
            "track": 0
        },
        {
            "pitch": 62,
            "start_beat": 68.5,
            "duration_beat": 0.23541666666666572,
            "velocity": 33,
            "track": 1
        },
        {
            "pitch": 58,
            "start_beat": 68.75,
            "duration_beat": 0.23541666666666572,
            "velocity": 33,
            "track": 1
        },
        {
            "pitch": 82,
            "start_beat": 69.0,
            "duration_beat": 0.3541666666666714,
            "velocity": 33,
            "track": 0
        },
        {
            "pitch": 62,
            "start_beat": 69.0,
            "duration_beat": 0.23541666666666572,
            "velocity": 33,
            "track": 1
        },
        {
            "pitch": 58,
            "start_beat": 69.25,
            "duration_beat": 0.23541666666666572,
            "velocity": 33,
            "track": 1
        },
        {
            "pitch": 81,
            "start_beat": 69.375,
            "duration_beat": 0.11666666666666003,
            "velocity": 33,
            "track": 0
        },
        {
            "pitch": 81,
            "start_beat": 69.5,
            "duration_beat": 0.24791666666666856,
            "velocity": 33,
            "track": 0
        },
        {
            "pitch": 53,
            "start_beat": 69.5,
            "duration_beat": 0.23541666666666572,
            "velocity": 33,
            "track": 1
        },
        {
            "pitch": 79,
            "start_beat": 69.75,
            "duration_beat": 0.24791666666666856,
            "velocity": 33,
            "track": 0
        },
        {
            "pitch": 64,
            "start_beat": 69.75,
            "duration_beat": 0.23541666666666572,
            "velocity": 33,
            "track": 1
        },
        {
            "pitch": 77,
            "start_beat": 70.0,
            "duration_beat": 0.24791666666666856,
            "velocity": 33,
            "track": 0
        },
        {
            "pitch": 53,
            "start_beat": 70.0,
            "duration_beat": 0.23541666666666572,
            "velocity": 33,
            "track": 1
        },
        {
            "pitch": 55,
            "start_beat": 70.0,
            "duration_beat": 0.23541666666666572,
            "velocity": 33,
            "track": 1
        },
        {
            "pitch": 58,
            "start_beat": 70.0,
            "duration_beat": 0.23541666666666572,
            "velocity": 33,
            "track": 1
        },
        {
            "pitch": 76,
            "start_beat": 70.25,
            "duration_beat": 0.24791666666666856,
            "velocity": 33,
            "track": 0
        },
        {
            "pitch": 64,
            "start_beat": 70.25,
            "duration_beat": 0.23541666666666572,
            "velocity": 33,
            "track": 1
        },
        {
            "pitch": 74,
            "start_beat": 70.5,
            "duration_beat": 0.24791666666666856,
            "velocity": 33,
            "track": 0
        },
        {
            "pitch": 53,
            "start_beat": 70.5,
            "duration_beat": 0.23541666666666572,
            "velocity": 33,
            "track": 1
        },
        {
            "pitch": 55,
            "start_beat": 70.5,
            "duration_beat": 0.23541666666666572,
            "velocity": 33,
            "track": 1
        },
        {
            "pitch": 58,
            "start_beat": 70.5,
            "duration_beat": 0.23541666666666572,
            "velocity": 33,
            "track": 1
        },
        {
            "pitch": 72,
            "start_beat": 70.75,
            "duration_beat": 0.23541666666666572,
            "velocity": 33,
            "track": 0
        },
        {
            "pitch": 64,
            "start_beat": 70.75,
            "duration_beat": 0.23541666666666572,
            "velocity": 33,
            "track": 1
        },
        {
            "pitch": 70,
            "start_beat": 71.0,
            "duration_beat": 0.4729166666666629,
            "velocity": 33,
            "track": 0
        },
        {
            "pitch": 53,
            "start_beat": 71.0,
            "duration_beat": 0.23541666666666572,
            "velocity": 33,
            "track": 1
        },
        {
            "pitch": 57,
            "start_beat": 71.25,
            "duration_beat": 0.23541666666666572,
            "velocity": 33,
            "track": 1
        },
        {
            "pitch": 69,
            "start_beat": 71.5,
            "duration_beat": 0.4729166666666629,
            "velocity": 33,
            "track": 0
        },
        {
            "pitch": 70,
            "start_beat": 71.5,
            "duration_beat": 0.49791666666666856,
            "velocity": 33,
            "track": 0
        },
        {
            "pitch": 60,
            "start_beat": 71.5,
            "duration_beat": 0.23541666666666572,
            "velocity": 33,
            "track": 1
        },
        {
            "pitch": 57,
            "start_beat": 71.75,
            "duration_beat": 0.23541666666666572,
            "velocity": 33,
            "track": 1
        },
        {
            "pitch": 69,
            "start_beat": 72.0,
            "duration_beat": 0.11666666666666003,
            "velocity": 33,
            "track": 0
        },
        {
            "pitch": 60,
            "start_beat": 72.0,
            "duration_beat": 0.23541666666666572,
            "velocity": 33,
            "track": 1
        },
        {
            "pitch": 67,
            "start_beat": 72.125,
            "duration_beat": 0.11666666666666003,
            "velocity": 33,
            "track": 0
        },
        {
            "pitch": 69,
            "start_beat": 72.25,
            "duration_beat": 0.11666666666666003,
            "velocity": 33,
            "track": 0
        },
        {
            "pitch": 57,
            "start_beat": 72.25,
            "duration_beat": 0.23541666666666572,
            "velocity": 33,
            "track": 1
        },
        {
            "pitch": 70,
            "start_beat": 72.375,
            "duration_beat": 0.11666666666666003,
            "velocity": 33,
            "track": 0
        },
        {
            "pitch": 72,
            "start_beat": 72.5,
            "duration_beat": 0.9479166666666714,
            "velocity": 33,
            "track": 0
        },
        {
            "pitch": 53,
            "start_beat": 72.5,
            "duration_beat": 0.23541666666666572,
            "velocity": 33,
            "track": 1
        },
        {
            "pitch": 57,
            "start_beat": 72.75,
            "duration_beat": 0.23541666666666572,
            "velocity": 33,
            "track": 1
        },
        {
            "pitch": 60,
            "start_beat": 73.0,
            "duration_beat": 0.23541666666666572,
            "velocity": 33,
            "track": 1
        },
        {
            "pitch": 57,
            "start_beat": 73.25,
            "duration_beat": 0.23541666666666572,
            "velocity": 33,
            "track": 1
        },
        {
            "pitch": 74,
            "start_beat": 73.5,
            "duration_beat": 0.23541666666666572,
            "velocity": 33,
            "track": 0
        },
        {
            "pitch": 60,
            "start_beat": 73.5,
            "duration_beat": 0.23541666666666572,
            "velocity": 33,
            "track": 1
        },
        {
            "pitch": 75,
            "start_beat": 73.75,
            "duration_beat": 0.23541666666666572,
            "velocity": 33,
            "track": 0
        },
        {
            "pitch": 57,
            "start_beat": 73.75,
            "duration_beat": 0.23541666666666572,
            "velocity": 33,
            "track": 1
        },
        {
            "pitch": 76,
            "start_beat": 74.0,
            "duration_beat": 0.71041666666666,
            "velocity": 33,
            "track": 0
        },
        {
            "pitch": 52,
            "start_beat": 74.0,
            "duration_beat": 0.23541666666666572,
            "velocity": 33,
            "track": 1
        },
        {
            "pitch": 57,
            "start_beat": 74.25,
            "duration_beat": 0.23541666666666572,
            "velocity": 33,
            "track": 1
        },
        {
            "pitch": 60,
            "start_beat": 74.5,
            "duration_beat": 0.23541666666666572,
            "velocity": 33,
            "track": 1
        },
        {
            "pitch": 76,
            "start_beat": 74.75,
            "duration_beat": 0.23541666666666572,
            "velocity": 33,
            "track": 0
        },
        {
            "pitch": 57,
            "start_beat": 74.75,
            "duration_beat": 0.23541666666666572,
            "velocity": 33,
            "track": 1
        },
        {
            "pitch": 77,
            "start_beat": 75.0,
            "duration_beat": 0.23541666666666572,
            "velocity": 33,
            "track": 0
        },
        {
            "pitch": 50,
            "start_beat": 75.0,
            "duration_beat": 0.23541666666666572,
            "velocity": 33,
            "track": 1
        },
        {
            "pitch": 62,
            "start_beat": 75.0,
            "duration_beat": 0.23541666666666572,
            "velocity": 33,
            "track": 1
        },
        {
            "pitch": 69,
            "start_beat": 75.25,
            "duration_beat": 0.23541666666666572,
            "velocity": 33,
            "track": 0
        },
        {
            "pitch": 53,
            "start_beat": 75.25,
            "duration_beat": 0.23541666666666572,
            "velocity": 33,
            "track": 1
        },
        {
            "pitch": 72,
            "start_beat": 75.5,
            "duration_beat": 0.9479166666666714,
            "velocity": 33,
            "track": 0
        },
        {
            "pitch": 55,
            "start_beat": 75.5,
            "duration_beat": 0.23541666666666572,
            "velocity": 33,
            "track": 1
        },
        {
            "pitch": 64,
            "start_beat": 75.75,
            "duration_beat": 0.23541666666666572,
            "velocity": 33,
            "track": 1
        },
        {
            "pitch": 55,
            "start_beat": 76.0,
            "duration_beat": 0.23541666666666572,
            "velocity": 33,
            "track": 1
        },
        {
            "pitch": 65,
            "start_beat": 76.25,
            "duration_beat": 0.23541666666666572,
            "velocity": 33,
            "track": 1
        },
        {
            "pitch": 74,
            "start_beat": 76.5,
            "duration_beat": 0.3541666666666714,
            "velocity": 33,
            "track": 0
        },
        {
            "pitch": 55,
            "start_beat": 76.5,
            "duration_beat": 0.23541666666666572,
            "velocity": 33,
            "track": 1
        },
        {
            "pitch": 65,
            "start_beat": 76.75,
            "duration_beat": 0.23541666666666572,
            "velocity": 33,
            "track": 1
        },
        {
            "pitch": 71,
            "start_beat": 76.875,
            "duration_beat": 0.11666666666666003,
            "velocity": 33,
            "track": 0
        },
        {
            "pitch": 72,
            "start_beat": 77.0,
            "duration_beat": 0.11666666666666003,
            "velocity": 33,
            "track": 0
        },
        {
            "pitch": 60,
            "start_beat": 77.0,
            "duration_beat": 0.4729166666666629,
            "velocity": 33,
            "track": 1
        },
        {
            "pitch": 64,
            "start_beat": 77.0,
            "duration_beat": 0.4729166666666629,
            "velocity": 33,
            "track": 1
        },
        {
            "pitch": 79,
            "start_beat": 77.125,
            "duration_beat": 0.11666666666666003,
            "velocity": 33,
            "track": 0
        },
        {
            "pitch": 67,
            "start_beat": 77.25,
            "duration_beat": 0.11666666666666003,
            "velocity": 33,
            "track": 0
        },
        {
            "pitch": 79,
            "start_beat": 77.375,
            "duration_beat": 0.11666666666666003,
            "velocity": 33,
            "track": 0
        },
        {
            "pitch": 69,
            "start_beat": 77.5,
            "duration_beat": 0.11666666666666003,
            "velocity": 33,
            "track": 0
        },
        {
            "pitch": 79,
            "start_beat": 77.625,
            "duration_beat": 0.11666666666666003,
            "velocity": 33,
            "track": 0
        },
        {
            "pitch": 71,
            "start_beat": 77.75,
            "duration_beat": 0.11666666666666003,
            "velocity": 33,
            "track": 0
        },
        {
            "pitch": 65,
            "start_beat": 77.75,
            "duration_beat": 0.23541666666666572,
            "velocity": 33,
            "track": 1
        },
        {
            "pitch": 67,
            "start_beat": 77.75,
            "duration_beat": 0.23541666666666572,
            "velocity": 33,
            "track": 1
        },
        {
            "pitch": 79,
            "start_beat": 77.875,
            "duration_beat": 0.11666666666666003,
            "velocity": 33,
            "track": 0
        },
        {
            "pitch": 72,
            "start_beat": 78.0,
            "duration_beat": 0.11666666666666003,
            "velocity": 33,
            "track": 0
        },
        {
            "pitch": 64,
            "start_beat": 78.0,
            "duration_beat": 0.23541666666666572,
            "velocity": 33,
            "track": 1
        },
        {
            "pitch": 67,
            "start_beat": 78.0,
            "duration_beat": 0.23541666666666572,
            "velocity": 33,
            "track": 1
        },
        {
            "pitch": 79,
            "start_beat": 78.125,
            "duration_beat": 0.11666666666666003,
            "velocity": 33,
            "track": 0
        },
        {
            "pitch": 74,
            "start_beat": 78.25,
            "duration_beat": 0.11666666666666003,
            "velocity": 33,
            "track": 0
        },
        {
            "pitch": 62,
            "start_beat": 78.25,
            "duration_beat": 0.23541666666666572,
            "velocity": 33,
            "track": 1
        },
        {
            "pitch": 65,
            "start_beat": 78.25,
            "duration_beat": 0.23541666666666572,
            "velocity": 33,
            "track": 1
        },
        {
            "pitch": 67,
            "start_beat": 78.25,
            "duration_beat": 0.23541666666666572,
            "velocity": 33,
            "track": 1
        },
        {
            "pitch": 79,
            "start_beat": 78.375,
            "duration_beat": 0.11666666666666003,
            "velocity": 33,
            "track": 0
        },
        {
            "pitch": 76,
            "start_beat": 78.5,
            "duration_beat": 0.11666666666666003,
            "velocity": 33,
            "track": 0
        },
        {
            "pitch": 60,
            "start_beat": 78.5,
            "duration_beat": 0.4729166666666629,
            "velocity": 33,
            "track": 1
        },
        {
            "pitch": 64,
            "start_beat": 78.5,
            "duration_beat": 0.4729166666666629,
            "velocity": 33,
            "track": 1
        },
        {
            "pitch": 67,
            "start_beat": 78.5,
            "duration_beat": 0.4729166666666629,
            "velocity": 33,
            "track": 1
        },
        {
            "pitch": 79,
            "start_beat": 78.625,
            "duration_beat": 0.11666666666666003,
            "velocity": 33,
            "track": 0
        },
        {
            "pitch": 84,
            "start_beat": 78.75,
            "duration_beat": 0.11666666666666003,
            "velocity": 33,
            "track": 0
        },
        {
            "pitch": 83,
            "start_beat": 78.875,
            "duration_beat": 0.11666666666666003,
            "velocity": 33,
            "track": 0
        },
        {
            "pitch": 81,
            "start_beat": 79.0,
            "duration_beat": 0.11666666666666003,
            "velocity": 33,
            "track": 0
        },
        {
            "pitch": 53,
            "start_beat": 79.0,
            "duration_beat": 0.4729166666666629,
            "velocity": 33,
            "track": 1
        },
        {
            "pitch": 57,
            "start_beat": 79.0,
            "duration_beat": 0.4729166666666629,
            "velocity": 33,
            "track": 1
        },
        {
            "pitch": 79,
            "start_beat": 79.125,
            "duration_beat": 0.11666666666666003,
            "velocity": 33,
            "track": 0
        },
        {
            "pitch": 77,
            "start_beat": 79.25,
            "duration_beat": 0.11666666666666003,
            "velocity": 33,
            "track": 0
        },
        {
            "pitch": 76,
            "start_beat": 79.375,
            "duration_beat": 0.11666666666666003,
            "velocity": 33,
            "track": 0
        },
        {
            "pitch": 74,
            "start_beat": 79.5,
            "duration_beat": 0.11666666666666003,
            "velocity": 33,
            "track": 0
        },
        {
            "pitch": 55,
            "start_beat": 79.5,
            "duration_beat": 0.4729166666666629,
            "velocity": 33,
            "track": 1
        },
        {
            "pitch": 59,
            "start_beat": 79.5,
            "duration_beat": 0.4729166666666629,
            "velocity": 33,
            "track": 1
        },
        {
            "pitch": 79,
            "start_beat": 79.625,
            "duration_beat": 0.11666666666666003,
            "velocity": 33,
            "track": 0
        },
        {
            "pitch": 77,
            "start_beat": 79.75,
            "duration_beat": 0.11666666666666003,
            "velocity": 33,
            "track": 0
        },
        {
            "pitch": 74,
            "start_beat": 79.875,
            "duration_beat": 0.11666666666666003,
            "velocity": 33,
            "track": 0
        },
        {
            "pitch": 72,
            "start_beat": 80.0,
            "duration_beat": 0.11666666666666003,
            "velocity": 33,
            "track": 0
        },
        {
            "pitch": 60,
            "start_beat": 80.0,
            "duration_beat": 0.4729166666666629,
            "velocity": 33,
            "track": 1
        },
        {
            "pitch": 79,
            "start_beat": 80.125,
            "duration_beat": 0.11666666666666003,
            "velocity": 33,
            "track": 0
        },
        {
            "pitch": 67,
            "start_beat": 80.25,
            "duration_beat": 0.11666666666666003,
            "velocity": 33,
            "track": 0
        },
        {
            "pitch": 79,
            "start_beat": 80.375,
            "duration_beat": 0.11666666666666003,
            "velocity": 33,
            "track": 0
        },
        {
            "pitch": 69,
            "start_beat": 80.5,
            "duration_beat": 0.11666666666666003,
            "velocity": 33,
            "track": 0
        },
        {
            "pitch": 79,
            "start_beat": 80.625,
            "duration_beat": 0.11666666666666003,
            "velocity": 33,
            "track": 0
        },
        {
            "pitch": 71,
            "start_beat": 80.75,
            "duration_beat": 0.11666666666666003,
            "velocity": 33,
            "track": 0
        },
        {
            "pitch": 65,
            "start_beat": 80.75,
            "duration_beat": 0.23541666666666572,
            "velocity": 33,
            "track": 1
        },
        {
            "pitch": 67,
            "start_beat": 80.75,
            "duration_beat": 0.23541666666666572,
            "velocity": 33,
            "track": 1
        },
        {
            "pitch": 79,
            "start_beat": 80.875,
            "duration_beat": 0.11666666666666003,
            "velocity": 33,
            "track": 0
        },
        {
            "pitch": 72,
            "start_beat": 81.0,
            "duration_beat": 0.11666666666666003,
            "velocity": 33,
            "track": 0
        },
        {
            "pitch": 64,
            "start_beat": 81.0,
            "duration_beat": 0.23541666666666572,
            "velocity": 33,
            "track": 1
        },
        {
            "pitch": 67,
            "start_beat": 81.0,
            "duration_beat": 0.23541666666666572,
            "velocity": 33,
            "track": 1
        },
        {
            "pitch": 79,
            "start_beat": 81.125,
            "duration_beat": 0.11666666666666003,
            "velocity": 33,
            "track": 0
        },
        {
            "pitch": 74,
            "start_beat": 81.25,
            "duration_beat": 0.11666666666666003,
            "velocity": 33,
            "track": 0
        },
        {
            "pitch": 62,
            "start_beat": 81.25,
            "duration_beat": 0.23541666666666572,
            "velocity": 33,
            "track": 1
        },
        {
            "pitch": 65,
            "start_beat": 81.25,
            "duration_beat": 0.23541666666666572,
            "velocity": 33,
            "track": 1
        },
        {
            "pitch": 67,
            "start_beat": 81.25,
            "duration_beat": 0.23541666666666572,
            "velocity": 33,
            "track": 1
        },
        {
            "pitch": 79,
            "start_beat": 81.375,
            "duration_beat": 0.11666666666666003,
            "velocity": 33,
            "track": 0
        },
        {
            "pitch": 76,
            "start_beat": 81.5,
            "duration_beat": 0.11666666666666003,
            "velocity": 33,
            "track": 0
        },
        {
            "pitch": 60,
            "start_beat": 81.5,
            "duration_beat": 0.4729166666666629,
            "velocity": 33,
            "track": 1
        },
        {
            "pitch": 64,
            "start_beat": 81.5,
            "duration_beat": 0.4729166666666629,
            "velocity": 33,
            "track": 1
        },
        {
            "pitch": 79,
            "start_beat": 81.625,
            "duration_beat": 0.11666666666666003,
            "velocity": 33,
            "track": 0
        },
        {
            "pitch": 84,
            "start_beat": 81.75,
            "duration_beat": 0.11666666666666003,
            "velocity": 33,
            "track": 0
        },
        {
            "pitch": 83,
            "start_beat": 81.875,
            "duration_beat": 0.11666666666666003,
            "velocity": 33,
            "track": 0
        },
        {
            "pitch": 81,
            "start_beat": 82.0,
            "duration_beat": 0.11666666666666003,
            "velocity": 33,
            "track": 0
        },
        {
            "pitch": 53,
            "start_beat": 82.0,
            "duration_beat": 0.4729166666666629,
            "velocity": 33,
            "track": 1
        },
        {
            "pitch": 57,
            "start_beat": 82.0,
            "duration_beat": 0.4729166666666629,
            "velocity": 33,
            "track": 1
        },
        {
            "pitch": 79,
            "start_beat": 82.125,
            "duration_beat": 0.11666666666666003,
            "velocity": 33,
            "track": 0
        },
        {
            "pitch": 77,
            "start_beat": 82.25,
            "duration_beat": 0.11666666666666003,
            "velocity": 33,
            "track": 0
        },
        {
            "pitch": 76,
            "start_beat": 82.375,
            "duration_beat": 0.11666666666666003,
            "velocity": 33,
            "track": 0
        },
        {
            "pitch": 74,
            "start_beat": 82.5,
            "duration_beat": 0.11666666666666003,
            "velocity": 33,
            "track": 0
        },
        {
            "pitch": 55,
            "start_beat": 82.5,
            "duration_beat": 0.4729166666666629,
            "velocity": 33,
            "track": 1
        },
        {
            "pitch": 59,
            "start_beat": 82.5,
            "duration_beat": 0.4729166666666629,
            "velocity": 33,
            "track": 1
        },
        {
            "pitch": 79,
            "start_beat": 82.625,
            "duration_beat": 0.11666666666666003,
            "velocity": 33,
            "track": 0
        },
        {
            "pitch": 77,
            "start_beat": 82.75,
            "duration_beat": 0.11666666666666003,
            "velocity": 33,
            "track": 0
        },
        {
            "pitch": 74,
            "start_beat": 82.875,
            "duration_beat": 0.11666666666666003,
            "velocity": 33,
            "track": 0
        },
        {
            "pitch": 76,
            "start_beat": 83.0,
            "duration_beat": 0.11666666666666003,
            "velocity": 33,
            "track": 0
        },
        {
            "pitch": 56,
            "start_beat": 83.0,
            "duration_beat": 0.4729166666666629,
            "velocity": 33,
            "track": 1
        },
        {
            "pitch": 59,
            "start_beat": 83.0,
            "duration_beat": 0.4729166666666629,
            "velocity": 33,
            "track": 1
        },
        {
            "pitch": 77,
            "start_beat": 83.125,
            "duration_beat": 0.11666666666666003,
            "velocity": 33,
            "track": 0
        },
        {
            "pitch": 76,
            "start_beat": 83.25,
            "duration_beat": 0.11666666666666003,
            "velocity": 33,
            "track": 0
        },
        {
            "pitch": 75,
            "start_beat": 83.375,
            "duration_beat": 0.11666666666666003,
            "velocity": 33,
            "track": 0
        },
        {
            "pitch": 76,
            "start_beat": 83.5,
            "duration_beat": 0.11666666666666003,
            "velocity": 33,
            "track": 0
        },
        {
            "pitch": 71,
            "start_beat": 83.625,
            "duration_beat": 0.11666666666666003,
            "velocity": 33,
            "track": 0
        },
        {
            "pitch": 76,
            "start_beat": 83.75,
            "duration_beat": 0.11666666666666003,
            "velocity": 33,
            "track": 0
        },
        {
            "pitch": 75,
            "start_beat": 83.875,
            "duration_beat": 0.11666666666666003,
            "velocity": 33,
            "track": 0
        },
        {
            "pitch": 76,
            "start_beat": 84.0,
            "duration_beat": 0.11666666666666003,
            "velocity": 33,
            "track": 0
        },
        {
            "pitch": 71,
            "start_beat": 84.125,
            "duration_beat": 0.11666666666666003,
            "velocity": 33,
            "track": 0
        },
        {
            "pitch": 76,
            "start_beat": 84.25,
            "duration_beat": 0.11666666666666003,
            "velocity": 33,
            "track": 0
        },
        {
            "pitch": 75,
            "start_beat": 84.375,
            "duration_beat": 0.11666666666666003,
            "velocity": 33,
            "track": 0
        },
        {
            "pitch": 76,
            "start_beat": 84.5,
            "duration_beat": 0.71041666666666,
            "velocity": 33,
            "track": 0
        },
        {
            "pitch": 71,
            "start_beat": 85.25,
            "duration_beat": 0.23541666666666572,
            "velocity": 33,
            "track": 0
        },
        {
            "pitch": 76,
            "start_beat": 85.5,
            "duration_beat": 0.23541666666666572,
            "velocity": 33,
            "track": 0
        },
        {
            "pitch": 75,
            "start_beat": 85.75,
            "duration_beat": 0.23541666666666572,
            "velocity": 33,
            "track": 0
        },
        {
            "pitch": 76,
            "start_beat": 86.0,
            "duration_beat": 0.71041666666666,
            "velocity": 33,
            "track": 0
        },
        {
            "pitch": 71,
            "start_beat": 86.75,
            "duration_beat": 0.24791666666666856,
            "velocity": 33,
            "track": 0
        },
        {
            "pitch": 76,
            "start_beat": 87.0,
            "duration_beat": 0.23541666666666572,
            "velocity": 33,
            "track": 0
        },
        {
            "pitch": 75,
            "start_beat": 87.25,
            "duration_beat": 0.24791666666666856,
            "velocity": 33,
            "track": 0
        },
        {
            "pitch": 76,
            "start_beat": 87.5,
            "duration_beat": 0.23541666666666572,
            "velocity": 33,
            "track": 0
        },
        {
            "pitch": 75,
            "start_beat": 87.75,
            "duration_beat": 0.24791666666666856,
            "velocity": 33,
            "track": 0
        },
        {
            "pitch": 76,
            "start_beat": 88.0,
            "duration_beat": 0.23541666666666572,
            "velocity": 33,
            "track": 0
        },
        {
            "pitch": 75,
            "start_beat": 88.25,
            "duration_beat": 0.24791666666666856,
            "velocity": 33,
            "track": 0
        },
        {
            "pitch": 76,
            "start_beat": 88.5,
            "duration_beat": 0.23541666666666572,
            "velocity": 33,
            "track": 0
        },
        {
            "pitch": 75,
            "start_beat": 88.75,
            "duration_beat": 0.24791666666666856,
            "velocity": 33,
            "track": 0
        },
        {
            "pitch": 76,
            "start_beat": 89.0,
            "duration_beat": 0.23541666666666572,
            "velocity": 33,
            "track": 0
        },
        {
            "pitch": 75,
            "start_beat": 89.25,
            "duration_beat": 0.23541666666666572,
            "velocity": 33,
            "track": 0
        },
        {
            "pitch": 76,
            "start_beat": 89.5,
            "duration_beat": 0.23541666666666572,
            "velocity": 33,
            "track": 0
        },
        {
            "pitch": 71,
            "start_beat": 89.75,
            "duration_beat": 0.23541666666666572,
            "velocity": 33,
            "track": 0
        },
        {
            "pitch": 74,
            "start_beat": 90.0,
            "duration_beat": 0.23541666666666572,
            "velocity": 33,
            "track": 0
        },
        {
            "pitch": 72,
            "start_beat": 90.25,
            "duration_beat": 0.23541666666666572,
            "velocity": 33,
            "track": 0
        },
        {
            "pitch": 69,
            "start_beat": 90.5,
            "duration_beat": 0.4729166666666629,
            "velocity": 33,
            "track": 0
        },
        {
            "pitch": 45,
            "start_beat": 90.5,
            "duration_beat": 0.23541666666666572,
            "velocity": 33,
            "track": 1
        },
        {
            "pitch": 52,
            "start_beat": 90.75,
            "duration_beat": 0.23541666666666572,
            "velocity": 33,
            "track": 1
        },
        {
            "pitch": 57,
            "start_beat": 91.0,
            "duration_beat": 0.23541666666666572,
            "velocity": 33,
            "track": 1
        },
        {
            "pitch": 60,
            "start_beat": 91.25,
            "duration_beat": 0.23541666666666572,
            "velocity": 33,
            "track": 0
        },
        {
            "pitch": 64,
            "start_beat": 91.5,
            "duration_beat": 0.23541666666666572,
            "velocity": 33,
            "track": 0
        },
        {
            "pitch": 69,
            "start_beat": 91.75,
            "duration_beat": 0.23541666666666572,
            "velocity": 33,
            "track": 0
        },
        {
            "pitch": 71,
            "start_beat": 92.0,
            "duration_beat": 0.4729166666666629,
            "velocity": 33,
            "track": 0
        },
        {
            "pitch": 40,
            "start_beat": 92.0,
            "duration_beat": 0.23541666666666572,
            "velocity": 33,
            "track": 1
        },
        {
            "pitch": 52,
            "start_beat": 92.25,
            "duration_beat": 0.23541666666666572,
            "velocity": 33,
            "track": 1
        },
        {
            "pitch": 56,
            "start_beat": 92.5,
            "duration_beat": 0.23541666666666572,
            "velocity": 33,
            "track": 1
        },
        {
            "pitch": 64,
            "start_beat": 92.75,
            "duration_beat": 0.23541666666666572,
            "velocity": 33,
            "track": 0
        },
        {
            "pitch": 68,
            "start_beat": 93.0,
            "duration_beat": 0.23541666666666572,
            "velocity": 33,
            "track": 0
        },
        {
            "pitch": 71,
            "start_beat": 93.25,
            "duration_beat": 0.23541666666666572,
            "velocity": 33,
            "track": 0
        },
        {
            "pitch": 72,
            "start_beat": 93.5,
            "duration_beat": 0.4729166666666629,
            "velocity": 33,
            "track": 0
        },
        {
            "pitch": 45,
            "start_beat": 93.5,
            "duration_beat": 0.23541666666666572,
            "velocity": 33,
            "track": 1
        },
        {
            "pitch": 52,
            "start_beat": 93.75,
            "duration_beat": 0.23541666666666572,
            "velocity": 33,
            "track": 1
        },
        {
            "pitch": 57,
            "start_beat": 94.0,
            "duration_beat": 0.23541666666666572,
            "velocity": 33,
            "track": 1
        },
        {
            "pitch": 64,
            "start_beat": 94.25,
            "duration_beat": 0.23541666666666572,
            "velocity": 33,
            "track": 0
        },
        {
            "pitch": 76,
            "start_beat": 94.5,
            "duration_beat": 0.23541666666666572,
            "velocity": 33,
            "track": 0
        },
        {
            "pitch": 75,
            "start_beat": 94.75,
            "duration_beat": 0.23541666666666572,
            "velocity": 33,
            "track": 0
        },
        {
            "pitch": 76,
            "start_beat": 95.0,
            "duration_beat": 0.23541666666666572,
            "velocity": 33,
            "track": 0
        },
        {
            "pitch": 75,
            "start_beat": 95.25,
            "duration_beat": 0.23541666666666572,
            "velocity": 33,
            "track": 0
        },
        {
            "pitch": 76,
            "start_beat": 95.5,
            "duration_beat": 0.23541666666666572,
            "velocity": 33,
            "track": 0
        },
        {
            "pitch": 71,
            "start_beat": 95.75,
            "duration_beat": 0.23541666666666572,
            "velocity": 33,
            "track": 0
        },
        {
            "pitch": 74,
            "start_beat": 96.0,
            "duration_beat": 0.23541666666666572,
            "velocity": 33,
            "track": 0
        },
        {
            "pitch": 72,
            "start_beat": 96.25,
            "duration_beat": 0.23541666666666572,
            "velocity": 33,
            "track": 0
        },
        {
            "pitch": 69,
            "start_beat": 96.5,
            "duration_beat": 0.4729166666666629,
            "velocity": 33,
            "track": 0
        },
        {
            "pitch": 45,
            "start_beat": 96.5,
            "duration_beat": 0.23541666666666572,
            "velocity": 33,
            "track": 1
        },
        {
            "pitch": 52,
            "start_beat": 96.75,
            "duration_beat": 0.23541666666666572,
            "velocity": 33,
            "track": 1
        },
        {
            "pitch": 57,
            "start_beat": 97.0,
            "duration_beat": 0.23541666666666572,
            "velocity": 33,
            "track": 1
        },
        {
            "pitch": 60,
            "start_beat": 97.25,
            "duration_beat": 0.23541666666666572,
            "velocity": 33,
            "track": 0
        },
        {
            "pitch": 64,
            "start_beat": 97.5,
            "duration_beat": 0.23541666666666572,
            "velocity": 33,
            "track": 0
        },
        {
            "pitch": 69,
            "start_beat": 97.75,
            "duration_beat": 0.23541666666666572,
            "velocity": 33,
            "track": 0
        },
        {
            "pitch": 71,
            "start_beat": 98.0,
            "duration_beat": 0.4729166666666629,
            "velocity": 33,
            "track": 0
        },
        {
            "pitch": 40,
            "start_beat": 98.0,
            "duration_beat": 0.23541666666666572,
            "velocity": 33,
            "track": 1
        },
        {
            "pitch": 52,
            "start_beat": 98.25,
            "duration_beat": 0.23541666666666572,
            "velocity": 33,
            "track": 1
        },
        {
            "pitch": 56,
            "start_beat": 98.5,
            "duration_beat": 0.23541666666666572,
            "velocity": 33,
            "track": 1
        },
        {
            "pitch": 62,
            "start_beat": 98.75,
            "duration_beat": 0.23541666666666572,
            "velocity": 33,
            "track": 0
        },
        {
            "pitch": 72,
            "start_beat": 99.0,
            "duration_beat": 0.23541666666666572,
            "velocity": 33,
            "track": 0
        },
        {
            "pitch": 71,
            "start_beat": 99.25,
            "duration_beat": 0.23541666666666572,
            "velocity": 33,
            "track": 0
        },
        {
            "pitch": 69,
            "start_beat": 99.5,
            "duration_beat": 0.4729166666666629,
            "velocity": 33,
            "track": 0
        },
        {
            "pitch": 45,
            "start_beat": 99.5,
            "duration_beat": 0.23541666666666572,
            "velocity": 33,
            "track": 1
        },
        {
            "pitch": 52,
            "start_beat": 99.75,
            "duration_beat": 0.23541666666666572,
            "velocity": 33,
            "track": 1
        },
        {
            "pitch": 57,
            "start_beat": 100.0,
            "duration_beat": 0.23541666666666572,
            "velocity": 33,
            "track": 1
        },
        {
            "pitch": 71,
            "start_beat": 100.25,
            "duration_beat": 0.23541666666666572,
            "velocity": 33,
            "track": 0
        },
        {
            "pitch": 72,
            "start_beat": 100.5,
            "duration_beat": 0.23541666666666572,
            "velocity": 33,
            "track": 0
        },
        {
            "pitch": 74,
            "start_beat": 100.75,
            "duration_beat": 0.23541666666666572,
            "velocity": 33,
            "track": 0
        },
        {
            "pitch": 76,
            "start_beat": 101.0,
            "duration_beat": 0.71041666666666,
            "velocity": 33,
            "track": 0
        },
        {
            "pitch": 48,
            "start_beat": 101.0,
            "duration_beat": 0.23541666666666572,
            "velocity": 33,
            "track": 1
        },
        {
            "pitch": 55,
            "start_beat": 101.25,
            "duration_beat": 0.23541666666666572,
            "velocity": 33,
            "track": 1
        },
        {
            "pitch": 60,
            "start_beat": 101.5,
            "duration_beat": 0.23541666666666572,
            "velocity": 33,
            "track": 1
        },
        {
            "pitch": 67,
            "start_beat": 101.75,
            "duration_beat": 0.23541666666666572,
            "velocity": 33,
            "track": 0
        },
        {
            "pitch": 77,
            "start_beat": 102.0,
            "duration_beat": 0.23541666666666572,
            "velocity": 33,
            "track": 0
        },
        {
            "pitch": 76,
            "start_beat": 102.25,
            "duration_beat": 0.23541666666666572,
            "velocity": 33,
            "track": 0
        },
        {
            "pitch": 74,
            "start_beat": 102.5,
            "duration_beat": 0.71041666666666,
            "velocity": 33,
            "track": 0
        },
        {
            "pitch": 43,
            "start_beat": 102.5,
            "duration_beat": 0.23541666666666572,
            "velocity": 33,
            "track": 1
        },
        {
            "pitch": 55,
            "start_beat": 102.75,
            "duration_beat": 0.23541666666666572,
            "velocity": 33,
            "track": 1
        },
        {
            "pitch": 59,
            "start_beat": 103.0,
            "duration_beat": 0.23541666666666572,
            "velocity": 33,
            "track": 1
        },
        {
            "pitch": 65,
            "start_beat": 103.25,
            "duration_beat": 0.23541666666666572,
            "velocity": 33,
            "track": 0
        },
        {
            "pitch": 76,
            "start_beat": 103.5,
            "duration_beat": 0.23541666666666572,
            "velocity": 33,
            "track": 0
        },
        {
            "pitch": 74,
            "start_beat": 103.75,
            "duration_beat": 0.23541666666666572,
            "velocity": 33,
            "track": 0
        },
        {
            "pitch": 72,
            "start_beat": 104.0,
            "duration_beat": 0.71041666666666,
            "velocity": 33,
            "track": 0
        },
        {
            "pitch": 45,
            "start_beat": 104.0,
            "duration_beat": 0.23541666666666572,
            "velocity": 33,
            "track": 1
        },
        {
            "pitch": 52,
            "start_beat": 104.25,
            "duration_beat": 0.23541666666666572,
            "velocity": 33,
            "track": 1
        },
        {
            "pitch": 57,
            "start_beat": 104.5,
            "duration_beat": 0.23541666666666572,
            "velocity": 33,
            "track": 1
        },
        {
            "pitch": 64,
            "start_beat": 104.75,
            "duration_beat": 0.23541666666666572,
            "velocity": 33,
            "track": 0
        },
        {
            "pitch": 74,
            "start_beat": 105.0,
            "duration_beat": 0.23541666666666572,
            "velocity": 33,
            "track": 0
        },
        {
            "pitch": 72,
            "start_beat": 105.25,
            "duration_beat": 0.23541666666666572,
            "velocity": 33,
            "track": 0
        },
        {
            "pitch": 71,
            "start_beat": 105.5,
            "duration_beat": 0.4729166666666629,
            "velocity": 33,
            "track": 0
        },
        {
            "pitch": 40,
            "start_beat": 105.5,
            "duration_beat": 0.23541666666666572,
            "velocity": 33,
            "track": 1
        },
        {
            "pitch": 52,
            "start_beat": 105.75,
            "duration_beat": 0.23541666666666572,
            "velocity": 33,
            "track": 1
        },
        {
            "pitch": 64,
            "start_beat": 106.0,
            "duration_beat": 0.23541666666666572,
            "velocity": 33,
            "track": 1
        },
        {
            "pitch": 64,
            "start_beat": 106.25,
            "duration_beat": 0.24791666666666856,
            "velocity": 33,
            "track": 0
        },
        {
            "pitch": 76,
            "start_beat": 106.5,
            "duration_beat": 0.23541666666666572,
            "velocity": 33,
            "track": 0
        },
        {
            "pitch": 64,
            "start_beat": 106.75,
            "duration_beat": 0.24791666666666856,
            "velocity": 33,
            "track": 1
        },
        {
            "pitch": 76,
            "start_beat": 107.0,
            "duration_beat": 0.23541666666666572,
            "velocity": 33,
            "track": 1
        },
        {
            "pitch": 76,
            "start_beat": 107.25,
            "duration_beat": 0.24791666666666856,
            "velocity": 33,
            "track": 0
        },
        {
            "pitch": 88,
            "start_beat": 107.5,
            "duration_beat": 0.23541666666666572,
            "velocity": 33,
            "track": 0
        },
        {
            "pitch": 75,
            "start_beat": 107.75,
            "duration_beat": 0.24791666666666856,
            "velocity": 33,
            "track": 1
        },
        {
            "pitch": 76,
            "start_beat": 108.0,
            "duration_beat": 0.23541666666666572,
            "velocity": 33,
            "track": 1
        },
        {
            "pitch": 75,
            "start_beat": 108.25,
            "duration_beat": 0.24791666666666856,
            "velocity": 33,
            "track": 0
        },
        {
            "pitch": 76,
            "start_beat": 108.5,
            "duration_beat": 0.4729166666666629,
            "velocity": 33,
            "track": 0
        },
        {
            "pitch": 75,
            "start_beat": 108.75,
            "duration_beat": 0.24791666666666856,
            "velocity": 33,
            "track": 1
        },
        {
            "pitch": 76,
            "start_beat": 109.0,
            "duration_beat": 0.23541666666666572,
            "velocity": 33,
            "track": 1
        },
        {
            "pitch": 75,
            "start_beat": 109.25,
            "duration_beat": 0.23541666666666572,
            "velocity": 33,
            "track": 0
        },
        {
            "pitch": 76,
            "start_beat": 109.5,
            "duration_beat": 0.23541666666666572,
            "velocity": 33,
            "track": 0
        },
        {
            "pitch": 75,
            "start_beat": 109.75,
            "duration_beat": 0.23541666666666572,
            "velocity": 33,
            "track": 0
        },
        {
            "pitch": 76,
            "start_beat": 110.0,
            "duration_beat": 0.23541666666666572,
            "velocity": 33,
            "track": 0
        },
        {
            "pitch": 75,
            "start_beat": 110.25,
            "duration_beat": 0.23541666666666572,
            "velocity": 33,
            "track": 0
        },
        {
            "pitch": 76,
            "start_beat": 110.5,
            "duration_beat": 0.23541666666666572,
            "velocity": 33,
            "track": 0
        },
        {
            "pitch": 71,
            "start_beat": 110.75,
            "duration_beat": 0.23541666666666572,
            "velocity": 33,
            "track": 0
        },
        {
            "pitch": 74,
            "start_beat": 111.0,
            "duration_beat": 0.23541666666666572,
            "velocity": 33,
            "track": 0
        },
        {
            "pitch": 72,
            "start_beat": 111.25,
            "duration_beat": 0.23541666666666572,
            "velocity": 33,
            "track": 0
        },
        {
            "pitch": 69,
            "start_beat": 111.5,
            "duration_beat": 0.4729166666666629,
            "velocity": 33,
            "track": 0
        },
        {
            "pitch": 45,
            "start_beat": 111.5,
            "duration_beat": 0.23541666666666572,
            "velocity": 33,
            "track": 1
        },
        {
            "pitch": 52,
            "start_beat": 111.75,
            "duration_beat": 0.23541666666666572,
            "velocity": 33,
            "track": 1
        },
        {
            "pitch": 57,
            "start_beat": 112.0,
            "duration_beat": 0.23541666666666572,
            "velocity": 33,
            "track": 1
        },
        {
            "pitch": 60,
            "start_beat": 112.25,
            "duration_beat": 0.23541666666666572,
            "velocity": 33,
            "track": 0
        },
        {
            "pitch": 64,
            "start_beat": 112.5,
            "duration_beat": 0.23541666666666572,
            "velocity": 33,
            "track": 0
        },
        {
            "pitch": 69,
            "start_beat": 112.75,
            "duration_beat": 0.23541666666666572,
            "velocity": 33,
            "track": 0
        },
        {
            "pitch": 71,
            "start_beat": 113.0,
            "duration_beat": 0.4729166666666629,
            "velocity": 33,
            "track": 0
        },
        {
            "pitch": 40,
            "start_beat": 113.0,
            "duration_beat": 0.23541666666666572,
            "velocity": 33,
            "track": 1
        },
        {
            "pitch": 52,
            "start_beat": 113.25,
            "duration_beat": 0.23541666666666572,
            "velocity": 33,
            "track": 1
        },
        {
            "pitch": 56,
            "start_beat": 113.5,
            "duration_beat": 0.23541666666666572,
            "velocity": 33,
            "track": 1
        },
        {
            "pitch": 64,
            "start_beat": 113.75,
            "duration_beat": 0.23541666666666572,
            "velocity": 33,
            "track": 0
        },
        {
            "pitch": 68,
            "start_beat": 114.0,
            "duration_beat": 0.23541666666666572,
            "velocity": 33,
            "track": 0
        },
        {
            "pitch": 71,
            "start_beat": 114.25,
            "duration_beat": 0.23541666666666572,
            "velocity": 33,
            "track": 0
        },
        {
            "pitch": 72,
            "start_beat": 114.5,
            "duration_beat": 0.4729166666666629,
            "velocity": 33,
            "track": 0
        },
        {
            "pitch": 45,
            "start_beat": 114.5,
            "duration_beat": 0.23541666666666572,
            "velocity": 33,
            "track": 1
        },
        {
            "pitch": 52,
            "start_beat": 114.75,
            "duration_beat": 0.23541666666666572,
            "velocity": 33,
            "track": 1
        },
        {
            "pitch": 57,
            "start_beat": 115.0,
            "duration_beat": 0.23541666666666572,
            "velocity": 33,
            "track": 1
        },
        {
            "pitch": 64,
            "start_beat": 115.25,
            "duration_beat": 0.23541666666666572,
            "velocity": 33,
            "track": 0
        },
        {
            "pitch": 76,
            "start_beat": 115.5,
            "duration_beat": 0.23541666666666572,
            "velocity": 33,
            "track": 0
        },
        {
            "pitch": 75,
            "start_beat": 115.75,
            "duration_beat": 0.23541666666666572,
            "velocity": 33,
            "track": 0
        },
        {
            "pitch": 76,
            "start_beat": 116.0,
            "duration_beat": 0.23541666666666572,
            "velocity": 33,
            "track": 0
        },
        {
            "pitch": 75,
            "start_beat": 116.25,
            "duration_beat": 0.23541666666666572,
            "velocity": 33,
            "track": 0
        },
        {
            "pitch": 76,
            "start_beat": 116.5,
            "duration_beat": 0.23541666666666572,
            "velocity": 33,
            "track": 0
        },
        {
            "pitch": 71,
            "start_beat": 116.75,
            "duration_beat": 0.23541666666666572,
            "velocity": 33,
            "track": 0
        },
        {
            "pitch": 74,
            "start_beat": 117.0,
            "duration_beat": 0.23541666666666572,
            "velocity": 33,
            "track": 0
        },
        {
            "pitch": 72,
            "start_beat": 117.25,
            "duration_beat": 0.23541666666666572,
            "velocity": 33,
            "track": 0
        },
        {
            "pitch": 69,
            "start_beat": 117.5,
            "duration_beat": 0.4729166666666629,
            "velocity": 33,
            "track": 0
        },
        {
            "pitch": 45,
            "start_beat": 117.5,
            "duration_beat": 0.23541666666666572,
            "velocity": 33,
            "track": 1
        },
        {
            "pitch": 52,
            "start_beat": 117.75,
            "duration_beat": 0.23541666666666572,
            "velocity": 33,
            "track": 1
        },
        {
            "pitch": 57,
            "start_beat": 118.0,
            "duration_beat": 0.23541666666666572,
            "velocity": 33,
            "track": 1
        },
        {
            "pitch": 60,
            "start_beat": 118.25,
            "duration_beat": 0.23541666666666572,
            "velocity": 33,
            "track": 0
        },
        {
            "pitch": 64,
            "start_beat": 118.5,
            "duration_beat": 0.23541666666666572,
            "velocity": 33,
            "track": 0
        },
        {
            "pitch": 69,
            "start_beat": 118.75,
            "duration_beat": 0.23541666666666572,
            "velocity": 33,
            "track": 0
        },
        {
            "pitch": 71,
            "start_beat": 119.0,
            "duration_beat": 0.4729166666666629,
            "velocity": 33,
            "track": 0
        },
        {
            "pitch": 40,
            "start_beat": 119.0,
            "duration_beat": 0.23541666666666572,
            "velocity": 33,
            "track": 1
        },
        {
            "pitch": 52,
            "start_beat": 119.25,
            "duration_beat": 0.23541666666666572,
            "velocity": 33,
            "track": 1
        },
        {
            "pitch": 56,
            "start_beat": 119.5,
            "duration_beat": 0.23541666666666572,
            "velocity": 33,
            "track": 1
        },
        {
            "pitch": 62,
            "start_beat": 119.75,
            "duration_beat": 0.23541666666666572,
            "velocity": 33,
            "track": 0
        },
        {
            "pitch": 72,
            "start_beat": 120.0,
            "duration_beat": 0.23541666666666572,
            "velocity": 33,
            "track": 0
        },
        {
            "pitch": 71,
            "start_beat": 120.25,
            "duration_beat": 0.23541666666666572,
            "velocity": 33,
            "track": 0
        },
        {
            "pitch": 69,
            "start_beat": 120.5,
            "duration_beat": 0.4729166666666629,
            "velocity": 33,
            "track": 0
        },
        {
            "pitch": 45,
            "start_beat": 120.5,
            "duration_beat": 0.23541666666666572,
            "velocity": 33,
            "track": 1
        },
        {
            "pitch": 45,
            "start_beat": 120.75,
            "duration_beat": 0.23541666666666572,
            "velocity": 33,
            "track": 1
        },
        {
            "pitch": 45,
            "start_beat": 121.0,
            "duration_beat": 0.23541666666666572,
            "velocity": 33,
            "track": 1
        },
        {
            "pitch": 45,
            "start_beat": 121.25,
            "duration_beat": 0.23541666666666572,
            "velocity": 33,
            "track": 1
        },
        {
            "pitch": 45,
            "start_beat": 121.5,
            "duration_beat": 0.23541666666666572,
            "velocity": 33,
            "track": 1
        },
        {
            "pitch": 45,
            "start_beat": 121.75,
            "duration_beat": 0.23541666666666572,
            "velocity": 33,
            "track": 1
        },
        {
            "pitch": 64,
            "start_beat": 122.0,
            "duration_beat": 1.4229166666666657,
            "velocity": 33,
            "track": 0
        },
        {
            "pitch": 67,
            "start_beat": 122.0,
            "duration_beat": 1.4229166666666657,
            "velocity": 33,
            "track": 0
        },
        {
            "pitch": 70,
            "start_beat": 122.0,
            "duration_beat": 1.4229166666666657,
            "velocity": 33,
            "track": 0
        },
        {
            "pitch": 73,
            "start_beat": 122.0,
            "duration_beat": 1.4229166666666657,
            "velocity": 33,
            "track": 0
        },
        {
            "pitch": 45,
            "start_beat": 122.0,
            "duration_beat": 0.23541666666666572,
            "velocity": 33,
            "track": 1
        },
        {
            "pitch": 45,
            "start_beat": 122.25,
            "duration_beat": 0.23541666666666572,
            "velocity": 33,
            "track": 1
        },
        {
            "pitch": 45,
            "start_beat": 122.5,
            "duration_beat": 0.23541666666666572,
            "velocity": 33,
            "track": 1
        },
        {
            "pitch": 45,
            "start_beat": 122.75,
            "duration_beat": 0.23541666666666572,
            "velocity": 33,
            "track": 1
        },
        {
            "pitch": 45,
            "start_beat": 123.0,
            "duration_beat": 0.23541666666666572,
            "velocity": 33,
            "track": 1
        },
        {
            "pitch": 45,
            "start_beat": 123.25,
            "duration_beat": 0.23541666666666572,
            "velocity": 33,
            "track": 1
        },
        {
            "pitch": 65,
            "start_beat": 123.5,
            "duration_beat": 0.9479166666666714,
            "velocity": 33,
            "track": 0
        },
        {
            "pitch": 69,
            "start_beat": 123.5,
            "duration_beat": 0.9479166666666714,
            "velocity": 33,
            "track": 0
        },
        {
            "pitch": 74,
            "start_beat": 123.5,
            "duration_beat": 0.9479166666666714,
            "velocity": 33,
            "track": 0
        },
        {
            "pitch": 45,
            "start_beat": 123.5,
            "duration_beat": 0.23541666666666572,
            "velocity": 33,
            "track": 1
        },
        {
            "pitch": 45,
            "start_beat": 123.75,
            "duration_beat": 0.23541666666666572,
            "velocity": 33,
            "track": 1
        },
        {
            "pitch": 45,
            "start_beat": 124.0,
            "duration_beat": 0.23541666666666572,
            "velocity": 33,
            "track": 1
        },
        {
            "pitch": 45,
            "start_beat": 124.25,
            "duration_beat": 0.23541666666666572,
            "velocity": 33,
            "track": 1
        },
        {
            "pitch": 73,
            "start_beat": 124.5,
            "duration_beat": 0.23541666666666572,
            "velocity": 33,
            "track": 0
        },
        {
            "pitch": 76,
            "start_beat": 124.5,
            "duration_beat": 0.23541666666666572,
            "velocity": 33,
            "track": 0
        },
        {
            "pitch": 45,
            "start_beat": 124.5,
            "duration_beat": 0.23541666666666572,
            "velocity": 33,
            "track": 1
        },
        {
            "pitch": 74,
            "start_beat": 124.75,
            "duration_beat": 0.23541666666666572,
            "velocity": 33,
            "track": 0
        },
        {
            "pitch": 77,
            "start_beat": 124.75,
            "duration_beat": 0.23541666666666572,
            "velocity": 33,
            "track": 0
        },
        {
            "pitch": 45,
            "start_beat": 124.75,
            "duration_beat": 0.23541666666666572,
            "velocity": 33,
            "track": 1
        },
        {
            "pitch": 68,
            "start_beat": 125.0,
            "duration_beat": 0.9479166666666714,
            "velocity": 33,
            "track": 0
        },
        {
            "pitch": 74,
            "start_beat": 125.0,
            "duration_beat": 0.9479166666666714,
            "velocity": 33,
            "track": 0
        },
        {
            "pitch": 77,
            "start_beat": 125.0,
            "duration_beat": 0.9479166666666714,
            "velocity": 33,
            "track": 0
        },
        {
            "pitch": 45,
            "start_beat": 125.0,
            "duration_beat": 0.23541666666666572,
            "velocity": 33,
            "track": 1
        },
        {
            "pitch": 45,
            "start_beat": 125.25,
            "duration_beat": 0.23541666666666572,
            "velocity": 33,
            "track": 1
        },
        {
            "pitch": 45,
            "start_beat": 125.5,
            "duration_beat": 0.23541666666666572,
            "velocity": 33,
            "track": 1
        },
        {
            "pitch": 45,
            "start_beat": 125.75,
            "duration_beat": 0.23541666666666572,
            "velocity": 33,
            "track": 1
        },
        {
            "pitch": 68,
            "start_beat": 126.0,
            "duration_beat": 0.4729166666666629,
            "velocity": 33,
            "track": 0
        },
        {
            "pitch": 74,
            "start_beat": 126.0,
            "duration_beat": 0.4729166666666629,
            "velocity": 33,
            "track": 0
        },
        {
            "pitch": 77,
            "start_beat": 126.0,
            "duration_beat": 0.4729166666666629,
            "velocity": 33,
            "track": 0
        },
        {
            "pitch": 45,
            "start_beat": 126.0,
            "duration_beat": 0.23541666666666572,
            "velocity": 33,
            "track": 1
        },
        {
            "pitch": 45,
            "start_beat": 126.25,
            "duration_beat": 0.23541666666666572,
            "velocity": 33,
            "track": 1
        },
        {
            "pitch": 69,
            "start_beat": 126.5,
            "duration_beat": 1.4229166666666657,
            "velocity": 33,
            "track": 0
        },
        {
            "pitch": 72,
            "start_beat": 126.5,
            "duration_beat": 1.4229166666666657,
            "velocity": 33,
            "track": 0
        },
        {
            "pitch": 76,
            "start_beat": 126.5,
            "duration_beat": 1.4229166666666657,
            "velocity": 33,
            "track": 0
        },
        {
            "pitch": 45,
            "start_beat": 126.5,
            "duration_beat": 0.23541666666666572,
            "velocity": 33,
            "track": 1
        },
        {
            "pitch": 45,
            "start_beat": 126.75,
            "duration_beat": 0.23541666666666572,
            "velocity": 33,
            "track": 1
        },
        {
            "pitch": 45,
            "start_beat": 127.0,
            "duration_beat": 0.23541666666666572,
            "velocity": 33,
            "track": 1
        },
        {
            "pitch": 45,
            "start_beat": 127.25,
            "duration_beat": 0.23541666666666572,
            "velocity": 33,
            "track": 1
        },
        {
            "pitch": 45,
            "start_beat": 127.5,
            "duration_beat": 0.23541666666666572,
            "velocity": 33,
            "track": 1
        },
        {
            "pitch": 45,
            "start_beat": 127.75,
            "duration_beat": 0.23541666666666572,
            "velocity": 33,
            "track": 1
        },
        {
            "pitch": 65,
            "start_beat": 128.0,
            "duration_beat": 0.9479166666666572,
            "velocity": 33,
            "track": 0
        },
        {
            "pitch": 74,
            "start_beat": 128.0,
            "duration_beat": 0.9479166666666572,
            "velocity": 33,
            "track": 0
        },
        {
            "pitch": 38,
            "start_beat": 128.0,
            "duration_beat": 0.23541666666667993,
            "velocity": 33,
            "track": 1
        },
        {
            "pitch": 45,
            "start_beat": 128.0,
            "duration_beat": 0.23541666666667993,
            "velocity": 33,
            "track": 1
        },
        {
            "pitch": 38,
            "start_beat": 128.25,
            "duration_beat": 0.23541666666667993,
            "velocity": 33,
            "track": 1
        },
        {
            "pitch": 45,
            "start_beat": 128.25,
            "duration_beat": 0.23541666666667993,
            "velocity": 33,
            "track": 1
        },
        {
            "pitch": 38,
            "start_beat": 128.5,
            "duration_beat": 0.23541666666667993,
            "velocity": 33,
            "track": 1
        },
        {
            "pitch": 45,
            "start_beat": 128.5,
            "duration_beat": 0.23541666666667993,
            "velocity": 33,
            "track": 1
        },
        {
            "pitch": 38,
            "start_beat": 128.75,
            "duration_beat": 0.23541666666667993,
            "velocity": 33,
            "track": 1
        },
        {
            "pitch": 45,
            "start_beat": 128.75,
            "duration_beat": 0.23541666666667993,
            "velocity": 33,
            "track": 1
        },
        {
            "pitch": 64,
            "start_beat": 129.0,
            "duration_beat": 0.23541666666667993,
            "velocity": 33,
            "track": 0
        },
        {
            "pitch": 72,
            "start_beat": 129.0,
            "duration_beat": 0.23541666666667993,
            "velocity": 33,
            "track": 0
        },
        {
            "pitch": 38,
            "start_beat": 129.0,
            "duration_beat": 0.23541666666667993,
            "velocity": 33,
            "track": 1
        },
        {
            "pitch": 45,
            "start_beat": 129.0,
            "duration_beat": 0.23541666666667993,
            "velocity": 33,
            "track": 1
        },
        {
            "pitch": 62,
            "start_beat": 129.25,
            "duration_beat": 0.23541666666667993,
            "velocity": 33,
            "track": 0
        },
        {
            "pitch": 71,
            "start_beat": 129.25,
            "duration_beat": 0.23541666666667993,
            "velocity": 33,
            "track": 0
        },
        {
            "pitch": 38,
            "start_beat": 129.25,
            "duration_beat": 0.23541666666667993,
            "velocity": 33,
            "track": 1
        },
        {
            "pitch": 45,
            "start_beat": 129.25,
            "duration_beat": 0.23541666666667993,
            "velocity": 33,
            "track": 1
        },
        {
            "pitch": 60,
            "start_beat": 129.5,
            "duration_beat": 0.9479166666666572,
            "velocity": 33,
            "track": 0
        },
        {
            "pitch": 66,
            "start_beat": 129.5,
            "duration_beat": 0.9479166666666572,
            "velocity": 33,
            "track": 0
        },
        {
            "pitch": 69,
            "start_beat": 129.5,
            "duration_beat": 0.9479166666666572,
            "velocity": 33,
            "track": 0
        },
        {
            "pitch": 39,
            "start_beat": 129.5,
            "duration_beat": 0.23541666666667993,
            "velocity": 33,
            "track": 1
        },
        {
            "pitch": 45,
            "start_beat": 129.5,
            "duration_beat": 0.23541666666667993,
            "velocity": 33,
            "track": 1
        },
        {
            "pitch": 39,
            "start_beat": 129.75,
            "duration_beat": 0.23541666666667993,
            "velocity": 33,
            "track": 1
        },
        {
            "pitch": 45,
            "start_beat": 129.75,
            "duration_beat": 0.23541666666667993,
            "velocity": 33,
            "track": 1
        },
        {
            "pitch": 39,
            "start_beat": 130.0,
            "duration_beat": 0.23541666666667993,
            "velocity": 33,
            "track": 1
        },
        {
            "pitch": 45,
            "start_beat": 130.0,
            "duration_beat": 0.23541666666667993,
            "velocity": 33,
            "track": 1
        },
        {
            "pitch": 39,
            "start_beat": 130.25,
            "duration_beat": 0.23541666666667993,
            "velocity": 33,
            "track": 1
        },
        {
            "pitch": 45,
            "start_beat": 130.25,
            "duration_beat": 0.23541666666667993,
            "velocity": 33,
            "track": 1
        },
        {
            "pitch": 60,
            "start_beat": 130.5,
            "duration_beat": 0.4729166666666629,
            "velocity": 33,
            "track": 0
        },
        {
            "pitch": 69,
            "start_beat": 130.5,
            "duration_beat": 0.4729166666666629,
            "velocity": 33,
            "track": 0
        },
        {
            "pitch": 39,
            "start_beat": 130.5,
            "duration_beat": 0.23541666666667993,
            "velocity": 33,
            "track": 1
        },
        {
            "pitch": 45,
            "start_beat": 130.5,
            "duration_beat": 0.23541666666667993,
            "velocity": 33,
            "track": 1
        },
        {
            "pitch": 39,
            "start_beat": 130.75,
            "duration_beat": 0.23541666666667993,
            "velocity": 33,
            "track": 1
        },
        {
            "pitch": 45,
            "start_beat": 130.75,
            "duration_beat": 0.23541666666667993,
            "velocity": 33,
            "track": 1
        },
        {
            "pitch": 60,
            "start_beat": 131.0,
            "duration_beat": 0.4729166666666629,
            "velocity": 33,
            "track": 0
        },
        {
            "pitch": 69,
            "start_beat": 131.0,
            "duration_beat": 0.4729166666666629,
            "velocity": 33,
            "track": 0
        },
        {
            "pitch": 40,
            "start_beat": 131.0,
            "duration_beat": 0.23541666666667993,
            "velocity": 33,
            "track": 1
        },
        {
            "pitch": 45,
            "start_beat": 131.0,
            "duration_beat": 0.23541666666667993,
            "velocity": 33,
            "track": 1
        },
        {
            "pitch": 40,
            "start_beat": 131.25,
            "duration_beat": 0.23541666666667993,
            "velocity": 33,
            "track": 1
        },
        {
            "pitch": 45,
            "start_beat": 131.25,
            "duration_beat": 0.23541666666667993,
            "velocity": 33,
            "track": 1
        },
        {
            "pitch": 64,
            "start_beat": 131.5,
            "duration_beat": 0.4729166666666629,
            "velocity": 33,
            "track": 0
        },
        {
            "pitch": 72,
            "start_beat": 131.5,
            "duration_beat": 0.4729166666666629,
            "velocity": 33,
            "track": 0
        },
        {
            "pitch": 40,
            "start_beat": 131.5,
            "duration_beat": 0.23541666666667993,
            "velocity": 33,
            "track": 1
        },
        {
            "pitch": 45,
            "start_beat": 131.5,
            "duration_beat": 0.23541666666667993,
            "velocity": 33,
            "track": 1
        },
        {
            "pitch": 40,
            "start_beat": 131.75,
            "duration_beat": 0.23541666666667993,
            "velocity": 33,
            "track": 1
        },
        {
            "pitch": 45,
            "start_beat": 131.75,
            "duration_beat": 0.23541666666667993,
            "velocity": 33,
            "track": 1
        },
        {
            "pitch": 62,
            "start_beat": 132.0,
            "duration_beat": 0.4729166666666629,
            "velocity": 33,
            "track": 0
        },
        {
            "pitch": 71,
            "start_beat": 132.0,
            "duration_beat": 0.4729166666666629,
            "velocity": 33,
            "track": 0
        },
        {
            "pitch": 40,
            "start_beat": 132.0,
            "duration_beat": 0.23541666666667993,
            "velocity": 33,
            "track": 1
        },
        {
            "pitch": 44,
            "start_beat": 132.0,
            "duration_beat": 0.23541666666667993,
            "velocity": 33,
            "track": 1
        },
        {
            "pitch": 40,
            "start_beat": 132.25,
            "duration_beat": 0.23541666666667993,
            "velocity": 33,
            "track": 1
        },
        {
            "pitch": 44,
            "start_beat": 132.25,
            "duration_beat": 0.23541666666667993,
            "velocity": 33,
            "track": 1
        },
        {
            "pitch": 60,
            "start_beat": 132.5,
            "duration_beat": 1.42291666666668,
            "velocity": 33,
            "track": 0
        },
        {
            "pitch": 69,
            "start_beat": 132.5,
            "duration_beat": 1.42291666666668,
            "velocity": 33,
            "track": 0
        },
        {
            "pitch": 33,
            "start_beat": 132.5,
            "duration_beat": 0.23541666666667993,
            "velocity": 33,
            "track": 1
        },
        {
            "pitch": 45,
            "start_beat": 132.5,
            "duration_beat": 0.23541666666667993,
            "velocity": 33,
            "track": 1
        },
        {
            "pitch": 45,
            "start_beat": 132.75,
            "duration_beat": 0.23541666666667993,
            "velocity": 33,
            "track": 1
        },
        {
            "pitch": 45,
            "start_beat": 133.0,
            "duration_beat": 0.23541666666667993,
            "velocity": 33,
            "track": 1
        },
        {
            "pitch": 45,
            "start_beat": 133.25,
            "duration_beat": 0.23541666666667993,
            "velocity": 33,
            "track": 1
        },
        {
            "pitch": 45,
            "start_beat": 133.5,
            "duration_beat": 0.23541666666667993,
            "velocity": 33,
            "track": 1
        },
        {
            "pitch": 45,
            "start_beat": 133.75,
            "duration_beat": 0.23541666666667993,
            "velocity": 33,
            "track": 1
        },
        {
            "pitch": 64,
            "start_beat": 134.0,
            "duration_beat": 1.42291666666668,
            "velocity": 33,
            "track": 0
        },
        {
            "pitch": 67,
            "start_beat": 134.0,
            "duration_beat": 1.42291666666668,
            "velocity": 33,
            "track": 0
        },
        {
            "pitch": 70,
            "start_beat": 134.0,
            "duration_beat": 1.42291666666668,
            "velocity": 33,
            "track": 0
        },
        {
            "pitch": 73,
            "start_beat": 134.0,
            "duration_beat": 1.42291666666668,
            "velocity": 33,
            "track": 0
        },
        {
            "pitch": 45,
            "start_beat": 134.0,
            "duration_beat": 0.23541666666667993,
            "velocity": 33,
            "track": 1
        },
        {
            "pitch": 45,
            "start_beat": 134.25,
            "duration_beat": 0.23541666666667993,
            "velocity": 33,
            "track": 1
        },
        {
            "pitch": 45,
            "start_beat": 134.5,
            "duration_beat": 0.23541666666667993,
            "velocity": 33,
            "track": 1
        },
        {
            "pitch": 45,
            "start_beat": 134.75,
            "duration_beat": 0.23541666666667993,
            "velocity": 33,
            "track": 1
        },
        {
            "pitch": 45,
            "start_beat": 135.0,
            "duration_beat": 0.23541666666667993,
            "velocity": 33,
            "track": 1
        },
        {
            "pitch": 45,
            "start_beat": 135.25,
            "duration_beat": 0.23541666666667993,
            "velocity": 33,
            "track": 1
        },
        {
            "pitch": 65,
            "start_beat": 135.5,
            "duration_beat": 0.9479166666666572,
            "velocity": 33,
            "track": 0
        },
        {
            "pitch": 69,
            "start_beat": 135.5,
            "duration_beat": 0.9479166666666572,
            "velocity": 33,
            "track": 0
        },
        {
            "pitch": 74,
            "start_beat": 135.5,
            "duration_beat": 0.9479166666666572,
            "velocity": 33,
            "track": 0
        },
        {
            "pitch": 45,
            "start_beat": 135.5,
            "duration_beat": 0.23541666666667993,
            "velocity": 33,
            "track": 1
        },
        {
            "pitch": 45,
            "start_beat": 135.75,
            "duration_beat": 0.23541666666667993,
            "velocity": 33,
            "track": 1
        },
        {
            "pitch": 45,
            "start_beat": 136.0,
            "duration_beat": 0.23541666666667993,
            "velocity": 33,
            "track": 1
        },
        {
            "pitch": 45,
            "start_beat": 136.25,
            "duration_beat": 0.23541666666667993,
            "velocity": 33,
            "track": 1
        },
        {
            "pitch": 73,
            "start_beat": 136.5,
            "duration_beat": 0.23541666666667993,
            "velocity": 33,
            "track": 0
        },
        {
            "pitch": 76,
            "start_beat": 136.5,
            "duration_beat": 0.23541666666667993,
            "velocity": 33,
            "track": 0
        },
        {
            "pitch": 45,
            "start_beat": 136.5,
            "duration_beat": 0.23541666666667993,
            "velocity": 33,
            "track": 1
        },
        {
            "pitch": 74,
            "start_beat": 136.75,
            "duration_beat": 0.23541666666667993,
            "velocity": 33,
            "track": 0
        },
        {
            "pitch": 77,
            "start_beat": 136.75,
            "duration_beat": 0.23541666666667993,
            "velocity": 33,
            "track": 0
        },
        {
            "pitch": 45,
            "start_beat": 136.75,
            "duration_beat": 0.23541666666667993,
            "velocity": 33,
            "track": 1
        },
        {
            "pitch": 74,
            "start_beat": 137.0,
            "duration_beat": 0.9479166666666572,
            "velocity": 33,
            "track": 0
        },
        {
            "pitch": 77,
            "start_beat": 137.0,
            "duration_beat": 0.9479166666666572,
            "velocity": 33,
            "track": 0
        },
        {
            "pitch": 45,
            "start_beat": 137.0,
            "duration_beat": 0.23541666666667993,
            "velocity": 33,
            "track": 1
        },
        {
            "pitch": 45,
            "start_beat": 137.25,
            "duration_beat": 0.23541666666667993,
            "velocity": 33,
            "track": 1
        },
        {
            "pitch": 45,
            "start_beat": 137.5,
            "duration_beat": 0.23541666666667993,
            "velocity": 33,
            "track": 1
        },
        {
            "pitch": 45,
            "start_beat": 137.75,
            "duration_beat": 0.23541666666667993,
            "velocity": 33,
            "track": 1
        },
        {
            "pitch": 74,
            "start_beat": 138.0,
            "duration_beat": 0.4729166666666629,
            "velocity": 33,
            "track": 0
        },
        {
            "pitch": 77,
            "start_beat": 138.0,
            "duration_beat": 0.4729166666666629,
            "velocity": 33,
            "track": 0
        },
        {
            "pitch": 45,
            "start_beat": 138.0,
            "duration_beat": 0.23541666666667993,
            "velocity": 33,
            "track": 1
        },
        {
            "pitch": 45,
            "start_beat": 138.25,
            "duration_beat": 0.23541666666667993,
            "velocity": 33,
            "track": 1
        },
        {
            "pitch": 74,
            "start_beat": 138.5,
            "duration_beat": 1.42291666666668,
            "velocity": 33,
            "track": 0
        },
        {
            "pitch": 77,
            "start_beat": 138.5,
            "duration_beat": 1.42291666666668,
            "velocity": 33,
            "track": 0
        },
        {
            "pitch": 46,
            "start_beat": 138.5,
            "duration_beat": 0.23541666666667993,
            "velocity": 33,
            "track": 1
        },
        {
            "pitch": 46,
            "start_beat": 138.75,
            "duration_beat": 0.23541666666667993,
            "velocity": 33,
            "track": 1
        },
        {
            "pitch": 46,
            "start_beat": 139.0,
            "duration_beat": 0.23541666666667993,
            "velocity": 33,
            "track": 1
        },
        {
            "pitch": 46,
            "start_beat": 139.25,
            "duration_beat": 0.23541666666667993,
            "velocity": 33,
            "track": 1
        },
        {
            "pitch": 46,
            "start_beat": 139.5,
            "duration_beat": 0.23541666666667993,
            "velocity": 33,
            "track": 1
        },
        {
            "pitch": 46,
            "start_beat": 139.75,
            "duration_beat": 0.23541666666667993,
            "velocity": 33,
            "track": 1
        },
        {
            "pitch": 67,
            "start_beat": 140.0,
            "duration_beat": 0.9479166666666572,
            "velocity": 33,
            "track": 0
        },
        {
            "pitch": 75,
            "start_beat": 140.0,
            "duration_beat": 0.9479166666666572,
            "velocity": 33,
            "track": 0
        },
        {
            "pitch": 46,
            "start_beat": 140.0,
            "duration_beat": 0.23541666666667993,
            "velocity": 33,
            "track": 1
        },
        {
            "pitch": 46,
            "start_beat": 140.25,
            "duration_beat": 0.23541666666667993,
            "velocity": 33,
            "track": 1
        },
        {
            "pitch": 46,
            "start_beat": 140.5,
            "duration_beat": 0.23541666666667993,
            "velocity": 33,
            "track": 1
        },
        {
            "pitch": 46,
            "start_beat": 140.75,
            "duration_beat": 0.23541666666667993,
            "velocity": 33,
            "track": 1
        },
        {
            "pitch": 65,
            "start_beat": 141.0,
            "duration_beat": 0.23541666666667993,
            "velocity": 33,
            "track": 0
        },
        {
            "pitch": 74,
            "start_beat": 141.0,
            "duration_beat": 0.23541666666667993,
            "velocity": 33,
            "track": 0
        },
        {
            "pitch": 46,
            "start_beat": 141.0,
            "duration_beat": 0.23541666666667993,
            "velocity": 33,
            "track": 1
        },
        {
            "pitch": 63,
            "start_beat": 141.25,
            "duration_beat": 0.23541666666667993,
            "velocity": 33,
            "track": 0
        },
        {
            "pitch": 72,
            "start_beat": 141.25,
            "duration_beat": 0.23541666666667993,
            "velocity": 33,
            "track": 0
        },
        {
            "pitch": 46,
            "start_beat": 141.25,
            "duration_beat": 0.23541666666667993,
            "velocity": 33,
            "track": 1
        },
        {
            "pitch": 62,
            "start_beat": 141.5,
            "duration_beat": 0.9479166666666572,
            "velocity": 33,
            "track": 0
        },
        {
            "pitch": 65,
            "start_beat": 141.5,
            "duration_beat": 0.9479166666666572,
            "velocity": 33,
            "track": 0
        },
        {
            "pitch": 70,
            "start_beat": 141.5,
            "duration_beat": 0.9479166666666572,
            "velocity": 33,
            "track": 0
        },
        {
            "pitch": 46,
            "start_beat": 141.5,
            "duration_beat": 0.23541666666667993,
            "velocity": 33,
            "track": 1
        },
        {
            "pitch": 46,
            "start_beat": 141.75,
            "duration_beat": 0.23541666666667993,
            "velocity": 33,
            "track": 1
        },
        {
            "pitch": 46,
            "start_beat": 142.0,
            "duration_beat": 0.23541666666667993,
            "velocity": 33,
            "track": 1
        },
        {
            "pitch": 46,
            "start_beat": 142.25,
            "duration_beat": 0.23541666666667993,
            "velocity": 33,
            "track": 1
        },
        {
            "pitch": 62,
            "start_beat": 142.5,
            "duration_beat": 0.4729166666666629,
            "velocity": 33,
            "track": 0
        },
        {
            "pitch": 65,
            "start_beat": 142.5,
            "duration_beat": 0.4729166666666629,
            "velocity": 33,
            "track": 0
        },
        {
            "pitch": 69,
            "start_beat": 142.5,
            "duration_beat": 0.4729166666666629,
            "velocity": 33,
            "track": 0
        },
        {
            "pitch": 46,
            "start_beat": 142.5,
            "duration_beat": 0.23541666666667993,
            "velocity": 33,
            "track": 1
        },
        {
            "pitch": 46,
            "start_beat": 142.75,
            "duration_beat": 0.23541666666667993,
            "velocity": 33,
            "track": 1
        },
        {
            "pitch": 62,
            "start_beat": 143.0,
            "duration_beat": 0.9479166666666572,
            "velocity": 33,
            "track": 0
        },
        {
            "pitch": 65,
            "start_beat": 143.0,
            "duration_beat": 0.9479166666666572,
            "velocity": 33,
            "track": 0
        },
        {
            "pitch": 68,
            "start_beat": 143.0,
            "duration_beat": 0.9479166666666572,
            "velocity": 33,
            "track": 0
        },
        {
            "pitch": 47,
            "start_beat": 143.0,
            "duration_beat": 0.23541666666667993,
            "velocity": 33,
            "track": 1
        },
        {
            "pitch": 47,
            "start_beat": 143.25,
            "duration_beat": 0.23541666666667993,
            "velocity": 33,
            "track": 1
        },
        {
            "pitch": 47,
            "start_beat": 143.5,
            "duration_beat": 0.23541666666667993,
            "velocity": 33,
            "track": 1
        },
        {
            "pitch": 47,
            "start_beat": 143.75,
            "duration_beat": 0.23541666666667993,
            "velocity": 33,
            "track": 1
        },
        {
            "pitch": 62,
            "start_beat": 144.0,
            "duration_beat": 0.4729166666666629,
            "velocity": 33,
            "track": 0
        },
        {
            "pitch": 65,
            "start_beat": 144.0,
            "duration_beat": 0.4729166666666629,
            "velocity": 33,
            "track": 0
        },
        {
            "pitch": 68,
            "start_beat": 144.0,
            "duration_beat": 0.4729166666666629,
            "velocity": 33,
            "track": 0
        },
        {
            "pitch": 47,
            "start_beat": 144.0,
            "duration_beat": 0.23541666666667993,
            "velocity": 33,
            "track": 1
        },
        {
            "pitch": 47,
            "start_beat": 144.25,
            "duration_beat": 0.23541666666667993,
            "velocity": 33,
            "track": 1
        },
        {
            "pitch": 60,
            "start_beat": 144.5,
            "duration_beat": 0.9479166666666572,
            "velocity": 33,
            "track": 0
        },
        {
            "pitch": 64,
            "start_beat": 144.5,
            "duration_beat": 0.9479166666666572,
            "velocity": 33,
            "track": 0
        },
        {
            "pitch": 69,
            "start_beat": 144.5,
            "duration_beat": 0.9479166666666572,
            "velocity": 33,
            "track": 0
        },
        {
            "pitch": 48,
            "start_beat": 144.5,
            "duration_beat": 0.9479166666666572,
            "velocity": 33,
            "track": 1
        },
        {
            "pitch": 64,
            "start_beat": 146.0,
            "duration_beat": 0.4729166666666629,
            "velocity": 33,
            "track": 0
        },
        {
            "pitch": 71,
            "start_beat": 146.0,
            "duration_beat": 0.4729166666666629,
            "velocity": 33,
            "track": 0
        },
        {
            "pitch": 52,
            "start_beat": 146.0,
            "duration_beat": 0.4729166666666629,
            "velocity": 33,
            "track": 1
        },
        {
            "pitch": 56,
            "start_beat": 146.0,
            "duration_beat": 0.4729166666666629,
            "velocity": 33,
            "track": 1
        },
        {
            "pitch": 57,
            "start_beat": 147.5,
            "duration_beat": 0.15625,
            "velocity": 33,
            "track": 0
        },
        {
            "pitch": 33,
            "start_beat": 147.5,
            "duration_beat": 0.4729166666666629,
            "velocity": 33,
            "track": 1
        },
        {
            "pitch": 60,
            "start_beat": 147.66666666666666,
            "duration_beat": 0.15625,
            "velocity": 33,
            "track": 0
        },
        {
            "pitch": 64,
            "start_beat": 147.83333333333334,
            "duration_beat": 0.15625,
            "velocity": 33,
            "track": 0
        },
        {
            "pitch": 69,
            "start_beat": 148.0,
            "duration_beat": 0.15625,
            "velocity": 33,
            "track": 0
        },
        {
            "pitch": 72,
            "start_beat": 148.16666666666666,
            "duration_beat": 0.15625,
            "velocity": 33,
            "track": 0
        },
        {
            "pitch": 76,
            "start_beat": 148.33333333333334,
            "duration_beat": 0.15625,
            "velocity": 33,
            "track": 0
        },
        {
            "pitch": 74,
            "start_beat": 148.5,
            "duration_beat": 0.15625,
            "velocity": 33,
            "track": 0
        },
        {
            "pitch": 57,
            "start_beat": 148.5,
            "duration_beat": 0.4729166666666629,
            "velocity": 33,
            "track": 1
        },
        {
            "pitch": 60,
            "start_beat": 148.5,
            "duration_beat": 0.4729166666666629,
            "velocity": 33,
            "track": 1
        },
        {
            "pitch": 64,
            "start_beat": 148.5,
            "duration_beat": 0.4729166666666629,
            "velocity": 33,
            "track": 1
        },
        {
            "pitch": 72,
            "start_beat": 148.66666666666666,
            "duration_beat": 0.15625,
            "velocity": 33,
            "track": 0
        },
        {
            "pitch": 71,
            "start_beat": 148.83333333333334,
            "duration_beat": 0.15625,
            "velocity": 33,
            "track": 0
        },
        {
            "pitch": 69,
            "start_beat": 149.0,
            "duration_beat": 0.15625,
            "velocity": 33,
            "track": 0
        },
        {
            "pitch": 57,
            "start_beat": 149.0,
            "duration_beat": 0.4729166666666629,
            "velocity": 33,
            "track": 1
        },
        {
            "pitch": 60,
            "start_beat": 149.0,
            "duration_beat": 0.4729166666666629,
            "velocity": 33,
            "track": 1
        },
        {
            "pitch": 64,
            "start_beat": 149.0,
            "duration_beat": 0.4729166666666629,
            "velocity": 33,
            "track": 1
        },
        {
            "pitch": 72,
            "start_beat": 149.16666666666666,
            "duration_beat": 0.15625,
            "velocity": 33,
            "track": 0
        },
        {
            "pitch": 76,
            "start_beat": 149.33333333333334,
            "duration_beat": 0.15625,
            "velocity": 33,
            "track": 0
        },
        {
            "pitch": 81,
            "start_beat": 149.5,
            "duration_beat": 0.15625,
            "velocity": 33,
            "track": 0
        },
        {
            "pitch": 84,
            "start_beat": 149.66666666666666,
            "duration_beat": 0.15625,
            "velocity": 33,
            "track": 0
        },
        {
            "pitch": 88,
            "start_beat": 149.83333333333334,
            "duration_beat": 0.15625,
            "velocity": 33,
            "track": 0
        },
        {
            "pitch": 86,
            "start_beat": 150.0,
            "duration_beat": 0.15625,
            "velocity": 33,
            "track": 0
        },
        {
            "pitch": 57,
            "start_beat": 150.0,
            "duration_beat": 0.4729166666666629,
            "velocity": 33,
            "track": 1
        },
        {
            "pitch": 60,
            "start_beat": 150.0,
            "duration_beat": 0.4729166666666629,
            "velocity": 33,
            "track": 1
        },
        {
            "pitch": 64,
            "start_beat": 150.0,
            "duration_beat": 0.4729166666666629,
            "velocity": 33,
            "track": 1
        },
        {
            "pitch": 84,
            "start_beat": 150.16666666666666,
            "duration_beat": 0.15625,
            "velocity": 33,
            "track": 0
        },
        {
            "pitch": 83,
            "start_beat": 150.33333333333334,
            "duration_beat": 0.15625,
            "velocity": 33,
            "track": 0
        },
        {
            "pitch": 81,
            "start_beat": 150.5,
            "duration_beat": 0.15625,
            "velocity": 33,
            "track": 0
        },
        {
            "pitch": 57,
            "start_beat": 150.5,
            "duration_beat": 0.4729166666666629,
            "velocity": 33,
            "track": 1
        },
        {
            "pitch": 60,
            "start_beat": 150.5,
            "duration_beat": 0.4729166666666629,
            "velocity": 33,
            "track": 1
        },
        {
            "pitch": 64,
            "start_beat": 150.5,
            "duration_beat": 0.4729166666666629,
            "velocity": 33,
            "track": 1
        },
        {
            "pitch": 84,
            "start_beat": 150.66666666666666,
            "duration_beat": 0.15625,
            "velocity": 33,
            "track": 0
        },
        {
            "pitch": 88,
            "start_beat": 150.83333333333334,
            "duration_beat": 0.15625,
            "velocity": 33,
            "track": 0
        },
        {
            "pitch": 93,
            "start_beat": 151.0,
            "duration_beat": 0.15625,
            "velocity": 33,
            "track": 0
        },
        {
            "pitch": 96,
            "start_beat": 151.16666666666666,
            "duration_beat": 0.15625,
            "velocity": 33,
            "track": 0
        },
        {
            "pitch": 100,
            "start_beat": 151.33333333333334,
            "duration_beat": 0.15625,
            "velocity": 33,
            "track": 0
        },
        {
            "pitch": 98,
            "start_beat": 151.5,
            "duration_beat": 0.15625,
            "velocity": 33,
            "track": 0
        },
        {
            "pitch": 57,
            "start_beat": 151.5,
            "duration_beat": 0.4729166666666629,
            "velocity": 33,
            "track": 1
        },
        {
            "pitch": 60,
            "start_beat": 151.5,
            "duration_beat": 0.4729166666666629,
            "velocity": 33,
            "track": 1
        },
        {
            "pitch": 64,
            "start_beat": 151.5,
            "duration_beat": 0.4729166666666629,
            "velocity": 33,
            "track": 1
        },
        {
            "pitch": 96,
            "start_beat": 151.66666666666666,
            "duration_beat": 0.15625,
            "velocity": 33,
            "track": 0
        },
        {
            "pitch": 95,
            "start_beat": 151.83333333333334,
            "duration_beat": 0.15625,
            "velocity": 33,
            "track": 0
        },
        {
            "pitch": 94,
            "start_beat": 152.0,
            "duration_beat": 0.15625,
            "velocity": 33,
            "track": 0
        },
        {
            "pitch": 57,
            "start_beat": 152.0,
            "duration_beat": 0.4729166666666629,
            "velocity": 33,
            "track": 1
        },
        {
            "pitch": 60,
            "start_beat": 152.0,
            "duration_beat": 0.4729166666666629,
            "velocity": 33,
            "track": 1
        },
        {
            "pitch": 64,
            "start_beat": 152.0,
            "duration_beat": 0.4729166666666629,
            "velocity": 33,
            "track": 1
        },
        {
            "pitch": 93,
            "start_beat": 152.16666666666666,
            "duration_beat": 0.15625,
            "velocity": 33,
            "track": 0
        },
        {
            "pitch": 92,
            "start_beat": 152.33333333333334,
            "duration_beat": 0.15625,
            "velocity": 33,
            "track": 0
        },
        {
            "pitch": 91,
            "start_beat": 152.5,
            "duration_beat": 0.15625,
            "velocity": 33,
            "track": 0
        },
        {
            "pitch": 90,
            "start_beat": 152.66666666666666,
            "duration_beat": 0.15625,
            "velocity": 33,
            "track": 0
        },
        {
            "pitch": 89,
            "start_beat": 152.83333333333334,
            "duration_beat": 0.15625,
            "velocity": 33,
            "track": 0
        },
        {
            "pitch": 88,
            "start_beat": 153.0,
            "duration_beat": 0.15625,
            "velocity": 33,
            "track": 0
        },
        {
            "pitch": 87,
            "start_beat": 153.16666666666666,
            "duration_beat": 0.15625,
            "velocity": 33,
            "track": 0
        },
        {
            "pitch": 86,
            "start_beat": 153.33333333333334,
            "duration_beat": 0.15625,
            "velocity": 33,
            "track": 0
        },
        {
            "pitch": 85,
            "start_beat": 153.5,
            "duration_beat": 0.15625,
            "velocity": 33,
            "track": 0
        },
        {
            "pitch": 84,
            "start_beat": 153.66666666666666,
            "duration_beat": 0.15625,
            "velocity": 33,
            "track": 0
        },
        {
            "pitch": 83,
            "start_beat": 153.83333333333334,
            "duration_beat": 0.15625,
            "velocity": 33,
            "track": 0
        },
        {
            "pitch": 82,
            "start_beat": 154.0,
            "duration_beat": 0.15625,
            "velocity": 33,
            "track": 0
        },
        {
            "pitch": 81,
            "start_beat": 154.16666666666666,
            "duration_beat": 0.15625,
            "velocity": 33,
            "track": 0
        },
        {
            "pitch": 80,
            "start_beat": 154.33333333333334,
            "duration_beat": 0.15625,
            "velocity": 33,
            "track": 0
        },
        {
            "pitch": 79,
            "start_beat": 154.5,
            "duration_beat": 0.15625,
            "velocity": 33,
            "track": 0
        },
        {
            "pitch": 78,
            "start_beat": 154.66666666666666,
            "duration_beat": 0.15625,
            "velocity": 33,
            "track": 0
        },
        {
            "pitch": 77,
            "start_beat": 154.83333333333334,
            "duration_beat": 0.15625,
            "velocity": 33,
            "track": 0
        },
        {
            "pitch": 76,
            "start_beat": 155.0,
            "duration_beat": 0.23541666666667993,
            "velocity": 33,
            "track": 0
        },
        {
            "pitch": 75,
            "start_beat": 155.25,
            "duration_beat": 0.23541666666667993,
            "velocity": 33,
            "track": 0
        },
        {
            "pitch": 76,
            "start_beat": 155.5,
            "duration_beat": 0.23541666666667993,
            "velocity": 33,
            "track": 0
        },
        {
            "pitch": 71,
            "start_beat": 155.75,
            "duration_beat": 0.23541666666667993,
            "velocity": 33,
            "track": 0
        },
        {
            "pitch": 74,
            "start_beat": 156.0,
            "duration_beat": 0.23541666666667993,
            "velocity": 33,
            "track": 0
        },
        {
            "pitch": 72,
            "start_beat": 156.25,
            "duration_beat": 0.23541666666667993,
            "velocity": 33,
            "track": 0
        },
        {
            "pitch": 69,
            "start_beat": 156.5,
            "duration_beat": 0.4729166666666629,
            "velocity": 33,
            "track": 0
        },
        {
            "pitch": 45,
            "start_beat": 156.5,
            "duration_beat": 0.23541666666667993,
            "velocity": 33,
            "track": 1
        },
        {
            "pitch": 52,
            "start_beat": 156.75,
            "duration_beat": 0.23541666666667993,
            "velocity": 33,
            "track": 1
        },
        {
            "pitch": 57,
            "start_beat": 157.0,
            "duration_beat": 0.23541666666667993,
            "velocity": 33,
            "track": 1
        },
        {
            "pitch": 60,
            "start_beat": 157.25,
            "duration_beat": 0.23541666666667993,
            "velocity": 33,
            "track": 0
        },
        {
            "pitch": 64,
            "start_beat": 157.5,
            "duration_beat": 0.23541666666667993,
            "velocity": 33,
            "track": 0
        },
        {
            "pitch": 69,
            "start_beat": 157.75,
            "duration_beat": 0.23541666666667993,
            "velocity": 33,
            "track": 0
        },
        {
            "pitch": 71,
            "start_beat": 158.0,
            "duration_beat": 0.4729166666666629,
            "velocity": 33,
            "track": 0
        },
        {
            "pitch": 40,
            "start_beat": 158.0,
            "duration_beat": 0.23541666666667993,
            "velocity": 33,
            "track": 1
        },
        {
            "pitch": 52,
            "start_beat": 158.25,
            "duration_beat": 0.23541666666667993,
            "velocity": 33,
            "track": 1
        },
        {
            "pitch": 56,
            "start_beat": 158.5,
            "duration_beat": 0.23541666666667993,
            "velocity": 33,
            "track": 1
        },
        {
            "pitch": 64,
            "start_beat": 158.75,
            "duration_beat": 0.23541666666667993,
            "velocity": 33,
            "track": 0
        },
        {
            "pitch": 68,
            "start_beat": 159.0,
            "duration_beat": 0.23541666666667993,
            "velocity": 33,
            "track": 0
        },
        {
            "pitch": 71,
            "start_beat": 159.25,
            "duration_beat": 0.23541666666667993,
            "velocity": 33,
            "track": 0
        },
        {
            "pitch": 72,
            "start_beat": 159.5,
            "duration_beat": 0.4729166666666629,
            "velocity": 33,
            "track": 0
        },
        {
            "pitch": 45,
            "start_beat": 159.5,
            "duration_beat": 0.23541666666667993,
            "velocity": 33,
            "track": 1
        },
        {
            "pitch": 52,
            "start_beat": 159.75,
            "duration_beat": 0.23541666666667993,
            "velocity": 33,
            "track": 1
        },
        {
            "pitch": 57,
            "start_beat": 160.0,
            "duration_beat": 0.23541666666667993,
            "velocity": 33,
            "track": 1
        },
        {
            "pitch": 64,
            "start_beat": 160.25,
            "duration_beat": 0.23541666666667993,
            "velocity": 33,
            "track": 0
        },
        {
            "pitch": 76,
            "start_beat": 160.5,
            "duration_beat": 0.23541666666667993,
            "velocity": 33,
            "track": 0
        },
        {
            "pitch": 75,
            "start_beat": 160.75,
            "duration_beat": 0.23541666666667993,
            "velocity": 33,
            "track": 0
        },
        {
            "pitch": 76,
            "start_beat": 161.0,
            "duration_beat": 0.23541666666667993,
            "velocity": 33,
            "track": 0
        },
        {
            "pitch": 75,
            "start_beat": 161.25,
            "duration_beat": 0.23541666666667993,
            "velocity": 33,
            "track": 0
        },
        {
            "pitch": 76,
            "start_beat": 161.5,
            "duration_beat": 0.23541666666667993,
            "velocity": 33,
            "track": 0
        },
        {
            "pitch": 71,
            "start_beat": 161.75,
            "duration_beat": 0.23541666666667993,
            "velocity": 33,
            "track": 0
        },
        {
            "pitch": 74,
            "start_beat": 162.0,
            "duration_beat": 0.23541666666667993,
            "velocity": 33,
            "track": 0
        },
        {
            "pitch": 72,
            "start_beat": 162.25,
            "duration_beat": 0.23541666666667993,
            "velocity": 33,
            "track": 0
        },
        {
            "pitch": 69,
            "start_beat": 162.5,
            "duration_beat": 0.4729166666666629,
            "velocity": 33,
            "track": 0
        },
        {
            "pitch": 45,
            "start_beat": 162.5,
            "duration_beat": 0.23541666666667993,
            "velocity": 33,
            "track": 1
        },
        {
            "pitch": 52,
            "start_beat": 162.75,
            "duration_beat": 0.23541666666667993,
            "velocity": 33,
            "track": 1
        },
        {
            "pitch": 57,
            "start_beat": 163.0,
            "duration_beat": 0.23541666666667993,
            "velocity": 33,
            "track": 1
        },
        {
            "pitch": 60,
            "start_beat": 163.25,
            "duration_beat": 0.23541666666667993,
            "velocity": 33,
            "track": 0
        },
        {
            "pitch": 64,
            "start_beat": 163.5,
            "duration_beat": 0.23541666666667993,
            "velocity": 33,
            "track": 0
        },
        {
            "pitch": 69,
            "start_beat": 163.75,
            "duration_beat": 0.23541666666667993,
            "velocity": 33,
            "track": 0
        },
        {
            "pitch": 71,
            "start_beat": 164.0,
            "duration_beat": 0.4729166666666629,
            "velocity": 33,
            "track": 0
        },
        {
            "pitch": 40,
            "start_beat": 164.0,
            "duration_beat": 0.23541666666667993,
            "velocity": 33,
            "track": 1
        },
        {
            "pitch": 52,
            "start_beat": 164.25,
            "duration_beat": 0.23541666666667993,
            "velocity": 33,
            "track": 1
        },
        {
            "pitch": 56,
            "start_beat": 164.5,
            "duration_beat": 0.23541666666667993,
            "velocity": 33,
            "track": 1
        },
        {
            "pitch": 62,
            "start_beat": 164.75,
            "duration_beat": 0.23541666666667993,
            "velocity": 33,
            "track": 0
        },
        {
            "pitch": 72,
            "start_beat": 165.0,
            "duration_beat": 0.23541666666667993,
            "velocity": 33,
            "track": 0
        },
        {
            "pitch": 71,
            "start_beat": 165.25,
            "duration_beat": 0.23541666666667993,
            "velocity": 33,
            "track": 0
        },
        {
            "pitch": 69,
            "start_beat": 165.5,
            "duration_beat": 0.4729166666666629,
            "velocity": 33,
            "track": 0
        },
        {
            "pitch": 45,
            "start_beat": 165.5,
            "duration_beat": 0.23541666666667993,
            "velocity": 33,
            "track": 1
        },
        {
            "pitch": 52,
            "start_beat": 165.75,
            "duration_beat": 0.23541666666667993,
            "velocity": 33,
            "track": 1
        },
        {
            "pitch": 57,
            "start_beat": 166.0,
            "duration_beat": 0.23541666666667993,
            "velocity": 33,
            "track": 1
        },
        {
            "pitch": 71,
            "start_beat": 166.25,
            "duration_beat": 0.23541666666667993,
            "velocity": 33,
            "track": 0
        },
        {
            "pitch": 72,
            "start_beat": 166.5,
            "duration_beat": 0.23541666666667993,
            "velocity": 33,
            "track": 0
        },
        {
            "pitch": 74,
            "start_beat": 166.75,
            "duration_beat": 0.23541666666667993,
            "velocity": 33,
            "track": 0
        },
        {
            "pitch": 76,
            "start_beat": 167.0,
            "duration_beat": 0.7104166666666742,
            "velocity": 33,
            "track": 0
        },
        {
            "pitch": 48,
            "start_beat": 167.0,
            "duration_beat": 0.23541666666667993,
            "velocity": 33,
            "track": 1
        },
        {
            "pitch": 55,
            "start_beat": 167.25,
            "duration_beat": 0.23541666666667993,
            "velocity": 33,
            "track": 1
        },
        {
            "pitch": 60,
            "start_beat": 167.5,
            "duration_beat": 0.23541666666667993,
            "velocity": 33,
            "track": 1
        },
        {
            "pitch": 67,
            "start_beat": 167.75,
            "duration_beat": 0.23541666666667993,
            "velocity": 33,
            "track": 0
        },
        {
            "pitch": 77,
            "start_beat": 168.0,
            "duration_beat": 0.23541666666667993,
            "velocity": 33,
            "track": 0
        },
        {
            "pitch": 76,
            "start_beat": 168.25,
            "duration_beat": 0.23541666666667993,
            "velocity": 33,
            "track": 0
        },
        {
            "pitch": 74,
            "start_beat": 168.5,
            "duration_beat": 0.7104166666666742,
            "velocity": 33,
            "track": 0
        },
        {
            "pitch": 43,
            "start_beat": 168.5,
            "duration_beat": 0.23541666666667993,
            "velocity": 33,
            "track": 1
        },
        {
            "pitch": 55,
            "start_beat": 168.75,
            "duration_beat": 0.23541666666667993,
            "velocity": 33,
            "track": 1
        },
        {
            "pitch": 59,
            "start_beat": 169.0,
            "duration_beat": 0.23541666666667993,
            "velocity": 33,
            "track": 1
        },
        {
            "pitch": 65,
            "start_beat": 169.25,
            "duration_beat": 0.23541666666667993,
            "velocity": 33,
            "track": 0
        },
        {
            "pitch": 76,
            "start_beat": 169.5,
            "duration_beat": 0.23541666666667993,
            "velocity": 33,
            "track": 0
        },
        {
            "pitch": 74,
            "start_beat": 169.75,
            "duration_beat": 0.23541666666667993,
            "velocity": 33,
            "track": 0
        },
        {
            "pitch": 72,
            "start_beat": 170.0,
            "duration_beat": 0.7104166666666742,
            "velocity": 33,
            "track": 0
        },
        {
            "pitch": 45,
            "start_beat": 170.0,
            "duration_beat": 0.23541666666667993,
            "velocity": 33,
            "track": 1
        },
        {
            "pitch": 52,
            "start_beat": 170.25,
            "duration_beat": 0.23541666666667993,
            "velocity": 33,
            "track": 1
        },
        {
            "pitch": 57,
            "start_beat": 170.5,
            "duration_beat": 0.23541666666667993,
            "velocity": 33,
            "track": 1
        },
        {
            "pitch": 64,
            "start_beat": 170.75,
            "duration_beat": 0.23541666666667993,
            "velocity": 33,
            "track": 0
        },
        {
            "pitch": 74,
            "start_beat": 171.0,
            "duration_beat": 0.23541666666667993,
            "velocity": 33,
            "track": 0
        },
        {
            "pitch": 72,
            "start_beat": 171.25,
            "duration_beat": 0.23541666666667993,
            "velocity": 33,
            "track": 0
        },
        {
            "pitch": 71,
            "start_beat": 171.5,
            "duration_beat": 0.4729166666666629,
            "velocity": 33,
            "track": 0
        },
        {
            "pitch": 40,
            "start_beat": 171.5,
            "duration_beat": 0.23541666666667993,
            "velocity": 33,
            "track": 1
        },
        {
            "pitch": 52,
            "start_beat": 171.75,
            "duration_beat": 0.23541666666667993,
            "velocity": 33,
            "track": 1
        },
        {
            "pitch": 64,
            "start_beat": 172.0,
            "duration_beat": 0.23541666666667993,
            "velocity": 33,
            "track": 1
        },
        {
            "pitch": 64,
            "start_beat": 172.25,
            "duration_beat": 0.24791666666666856,
            "velocity": 33,
            "track": 0
        },
        {
            "pitch": 76,
            "start_beat": 172.5,
            "duration_beat": 0.23541666666667993,
            "velocity": 33,
            "track": 0
        },
        {
            "pitch": 64,
            "start_beat": 172.75,
            "duration_beat": 0.24791666666666856,
            "velocity": 33,
            "track": 1
        },
        {
            "pitch": 76,
            "start_beat": 173.0,
            "duration_beat": 0.23541666666667993,
            "velocity": 33,
            "track": 1
        },
        {
            "pitch": 76,
            "start_beat": 173.25,
            "duration_beat": 0.24791666666666856,
            "velocity": 33,
            "track": 0
        },
        {
            "pitch": 88,
            "start_beat": 173.5,
            "duration_beat": 0.23541666666667993,
            "velocity": 33,
            "track": 0
        },
        {
            "pitch": 75,
            "start_beat": 173.75,
            "duration_beat": 0.24791666666666856,
            "velocity": 33,
            "track": 1
        },
        {
            "pitch": 76,
            "start_beat": 174.0,
            "duration_beat": 0.23541666666667993,
            "velocity": 33,
            "track": 1
        },
        {
            "pitch": 75,
            "start_beat": 174.25,
            "duration_beat": 0.24791666666666856,
            "velocity": 33,
            "track": 0
        },
        {
            "pitch": 76,
            "start_beat": 174.5,
            "duration_beat": 0.4729166666666629,
            "velocity": 33,
            "track": 0
        },
        {
            "pitch": 75,
            "start_beat": 174.75,
            "duration_beat": 0.24791666666666856,
            "velocity": 33,
            "track": 1
        },
        {
            "pitch": 76,
            "start_beat": 175.0,
            "duration_beat": 0.23541666666667993,
            "velocity": 33,
            "track": 1
        },
        {
            "pitch": 75,
            "start_beat": 175.25,
            "duration_beat": 0.23541666666667993,
            "velocity": 33,
            "track": 0
        },
        {
            "pitch": 76,
            "start_beat": 175.5,
            "duration_beat": 0.23541666666667993,
            "velocity": 33,
            "track": 0
        },
        {
            "pitch": 75,
            "start_beat": 175.75,
            "duration_beat": 0.23541666666667993,
            "velocity": 33,
            "track": 0
        },
        {
            "pitch": 76,
            "start_beat": 176.0,
            "duration_beat": 0.23541666666667993,
            "velocity": 33,
            "track": 0
        },
        {
            "pitch": 75,
            "start_beat": 176.25,
            "duration_beat": 0.23541666666667993,
            "velocity": 33,
            "track": 0
        },
        {
            "pitch": 76,
            "start_beat": 176.5,
            "duration_beat": 0.23541666666667993,
            "velocity": 33,
            "track": 0
        },
        {
            "pitch": 71,
            "start_beat": 176.75,
            "duration_beat": 0.23541666666667993,
            "velocity": 33,
            "track": 0
        },
        {
            "pitch": 74,
            "start_beat": 177.0,
            "duration_beat": 0.23541666666667993,
            "velocity": 33,
            "track": 0
        },
        {
            "pitch": 72,
            "start_beat": 177.25,
            "duration_beat": 0.23541666666667993,
            "velocity": 33,
            "track": 0
        },
        {
            "pitch": 69,
            "start_beat": 177.5,
            "duration_beat": 0.4729166666666629,
            "velocity": 33,
            "track": 0
        },
        {
            "pitch": 45,
            "start_beat": 177.5,
            "duration_beat": 0.23541666666667993,
            "velocity": 33,
            "track": 1
        },
        {
            "pitch": 52,
            "start_beat": 177.75,
            "duration_beat": 0.23541666666667993,
            "velocity": 33,
            "track": 1
        },
        {
            "pitch": 57,
            "start_beat": 178.0,
            "duration_beat": 0.23541666666667993,
            "velocity": 33,
            "track": 1
        },
        {
            "pitch": 60,
            "start_beat": 178.25,
            "duration_beat": 0.23541666666667993,
            "velocity": 33,
            "track": 0
        },
        {
            "pitch": 64,
            "start_beat": 178.5,
            "duration_beat": 0.23541666666667993,
            "velocity": 33,
            "track": 0
        },
        {
            "pitch": 69,
            "start_beat": 178.75,
            "duration_beat": 0.23541666666667993,
            "velocity": 33,
            "track": 0
        },
        {
            "pitch": 71,
            "start_beat": 179.0,
            "duration_beat": 0.4729166666666629,
            "velocity": 33,
            "track": 0
        },
        {
            "pitch": 40,
            "start_beat": 179.0,
            "duration_beat": 0.23541666666667993,
            "velocity": 33,
            "track": 1
        },
        {
            "pitch": 52,
            "start_beat": 179.25,
            "duration_beat": 0.23541666666667993,
            "velocity": 33,
            "track": 1
        },
        {
            "pitch": 56,
            "start_beat": 179.5,
            "duration_beat": 0.23541666666667993,
            "velocity": 33,
            "track": 1
        },
        {
            "pitch": 64,
            "start_beat": 179.75,
            "duration_beat": 0.23541666666667993,
            "velocity": 33,
            "track": 0
        },
        {
            "pitch": 68,
            "start_beat": 180.0,
            "duration_beat": 0.23541666666667993,
            "velocity": 33,
            "track": 0
        },
        {
            "pitch": 71,
            "start_beat": 180.25,
            "duration_beat": 0.23541666666667993,
            "velocity": 33,
            "track": 0
        },
        {
            "pitch": 72,
            "start_beat": 180.5,
            "duration_beat": 0.4729166666666629,
            "velocity": 33,
            "track": 0
        },
        {
            "pitch": 45,
            "start_beat": 180.5,
            "duration_beat": 0.23541666666667993,
            "velocity": 33,
            "track": 1
        },
        {
            "pitch": 52,
            "start_beat": 180.75,
            "duration_beat": 0.23541666666667993,
            "velocity": 33,
            "track": 1
        },
        {
            "pitch": 57,
            "start_beat": 181.0,
            "duration_beat": 0.23541666666667993,
            "velocity": 33,
            "track": 1
        },
        {
            "pitch": 64,
            "start_beat": 181.25,
            "duration_beat": 0.23541666666667993,
            "velocity": 33,
            "track": 0
        },
        {
            "pitch": 76,
            "start_beat": 181.5,
            "duration_beat": 0.23541666666667993,
            "velocity": 33,
            "track": 0
        },
        {
            "pitch": 75,
            "start_beat": 181.75,
            "duration_beat": 0.23541666666667993,
            "velocity": 33,
            "track": 0
        },
        {
            "pitch": 76,
            "start_beat": 182.0,
            "duration_beat": 0.23541666666667993,
            "velocity": 33,
            "track": 0
        },
        {
            "pitch": 75,
            "start_beat": 182.25,
            "duration_beat": 0.23541666666667993,
            "velocity": 33,
            "track": 0
        },
        {
            "pitch": 76,
            "start_beat": 182.5,
            "duration_beat": 0.23541666666667993,
            "velocity": 33,
            "track": 0
        },
        {
            "pitch": 71,
            "start_beat": 182.75,
            "duration_beat": 0.23541666666667993,
            "velocity": 33,
            "track": 0
        },
        {
            "pitch": 74,
            "start_beat": 183.0,
            "duration_beat": 0.23541666666667993,
            "velocity": 33,
            "track": 0
        },
        {
            "pitch": 72,
            "start_beat": 183.25,
            "duration_beat": 0.23541666666667993,
            "velocity": 33,
            "track": 0
        },
        {
            "pitch": 69,
            "start_beat": 183.5,
            "duration_beat": 0.4729166666666629,
            "velocity": 33,
            "track": 0
        },
        {
            "pitch": 45,
            "start_beat": 183.5,
            "duration_beat": 0.23541666666667993,
            "velocity": 33,
            "track": 1
        },
        {
            "pitch": 52,
            "start_beat": 183.75,
            "duration_beat": 0.23541666666667993,
            "velocity": 33,
            "track": 1
        },
        {
            "pitch": 57,
            "start_beat": 184.0,
            "duration_beat": 0.23541666666667993,
            "velocity": 33,
            "track": 1
        },
        {
            "pitch": 60,
            "start_beat": 184.25,
            "duration_beat": 0.23541666666667993,
            "velocity": 33,
            "track": 0
        },
        {
            "pitch": 64,
            "start_beat": 184.5,
            "duration_beat": 0.23541666666667993,
            "velocity": 33,
            "track": 0
        },
        {
            "pitch": 69,
            "start_beat": 184.75,
            "duration_beat": 0.23541666666667993,
            "velocity": 33,
            "track": 0
        },
        {
            "pitch": 71,
            "start_beat": 185.0,
            "duration_beat": 0.4729166666666629,
            "velocity": 33,
            "track": 0
        },
        {
            "pitch": 40,
            "start_beat": 185.0,
            "duration_beat": 0.23541666666667993,
            "velocity": 33,
            "track": 1
        },
        {
            "pitch": 52,
            "start_beat": 185.25,
            "duration_beat": 0.23541666666667993,
            "velocity": 33,
            "track": 1
        },
        {
            "pitch": 56,
            "start_beat": 185.5,
            "duration_beat": 0.23541666666667993,
            "velocity": 33,
            "track": 1
        },
        {
            "pitch": 62,
            "start_beat": 185.75,
            "duration_beat": 0.23541666666667993,
            "velocity": 33,
            "track": 0
        },
        {
            "pitch": 72,
            "start_beat": 186.0,
            "duration_beat": 0.23541666666667993,
            "velocity": 33,
            "track": 0
        },
        {
            "pitch": 71,
            "start_beat": 186.25,
            "duration_beat": 0.23541666666667993,
            "velocity": 33,
            "track": 0
        },
        {
            "pitch": 69,
            "start_beat": 186.5,
            "duration_beat": 0.4729166666666629,
            "velocity": 33,
            "track": 0
        },
        {
            "pitch": 33,
            "start_beat": 186.5,
            "duration_beat": 0.4729166666666629,
            "velocity": 33,
            "track": 1
        },
        {
            "pitch": 45,
            "start_beat": 186.5,
            "duration_beat": 0.4729166666666629,
            "velocity": 33,
            "track": 1
        }
    ]
}