{
    "resolution": 480,
    "tempo_map": [
        {
            "beat": 0.0,
            "bpm": 162.000162000162
        }
    ],
    "notes": [
        {
            "pitch": 72,
            "start_beat": 0.0,
            "duration_beat": 0.4979166666666667,
            "velocity": 80,
            "track": 0
        },
        {
            "pitch": 44,
            "start_beat": 0.0,
            "duration_beat": 0.4979166666666667,
            "velocity": 80,
            "track": 1
        },
        {
            "pitch": 51,
            "start_beat": 0.0,
            "duration_beat": 0.4979166666666667,
            "velocity": 80,
            "track": 1
        },
        {
            "pitch": 56,
            "start_beat": 0.0,
            "duration_beat": 0.4979166666666667,
            "velocity": 80,
            "track": 1
        },
        {
            "pitch": 72,
            "start_beat": 0.5,
            "duration_beat": 0.4979166666666667,
            "velocity": 80,
            "track": 0
        },
        {
            "pitch": 72,
            "start_beat": 1.0,
            "duration_beat": 0.49791666666666656,
            "velocity": 80,
            "track": 0
        },
        {
            "pitch": 72,
            "start_beat": 1.5,
            "duration_beat": 0.49791666666666656,
            "velocity": 80,
            "track": 0
        },
        {
            "pitch": 72,
            "start_beat": 2.0,
            "duration_beat": 0.9979166666666668,
            "velocity": 80,
            "track": 0
        },
        {
            "pitch": 70,
            "start_beat": 3.0,
            "duration_beat": 0.9979166666666668,
            "velocity": 80,
            "track": 0
        },
        {
            "pitch": 72,
            "start_beat": 4.0,
            "duration_beat": 0.9979166666666668,
            "velocity": 80,
            "track": 0
        },
        {
            "pitch": 46,
            "start_beat": 4.0,
            "duration_beat": 0.9979166666666668,
            "velocity": 80,
            "track": 1
        },
        {
            "pitch": 53,
            "start_beat": 4.0,
            "duration_beat": 0.9979166666666668,
            "velocity": 80,
            "track": 1
        },
        {
            "pitch": 58,
            "start_beat": 4.0,
            "duration_beat": 0.9979166666666668,
            "velocity": 80,
            "track": 1
        },
        {
            "pitch": 70,
            "start_beat": 5.0,
            "duration_beat": 0.4979166666666668,
            "velocity": 80,
            "track": 0
        },
        {
            "pitch": 70,
            "start_beat": 5.5,
            "duration_beat": 0.9979166666666668,
            "velocity": 80,
            "track": 0
        },
        {
            "pitch": 67,
            "start_beat": 6.5,
            "duration_beat": 0.4979166666666668,
            "velocity": 80,
            "track": 0
        },
        {
            "pitch": 72,
            "start_beat": 7.0,
            "duration_beat": 0.9979166666666668,
            "velocity": 80,
            "track": 0
        },
        {
            "pitch": 48,
            "start_beat": 8.0,
            "duration_beat": 0.4979166666666668,
            "velocity": 80,
            "track": 1
        },
        {
            "pitch": 55,
            "start_beat": 8.0,
            "duration_beat": 0.4979166666666668,
            "velocity": 80,
            "track": 1
        },
        {
            "pitch": 60,
            "start_beat": 8.0,
            "duration_beat": 0.4979166666666668,
            "velocity": 80,
            "track": 1
        },
        {
            "pitch": 72,
            "start_beat": 8.5,
            "duration_beat": 0.4979166666666668,
            "velocity": 80,
            "track": 0
        },
        {
            "pitch": 77,
            "start_beat": 9.0,
            "duration_beat": 0.4979166666666668,
            "velocity": 80,
            "track": 0
        },
        {
            "pitch": 79,
            "start_beat": 9.5,
            "duration_beat": 0.9979166666666668,
            "velocity": 80,
            "track": 0
        },
        {
            "pitch": 82,
            "start_beat": 10.5,
            "duration_beat": 0.4979166666666668,
            "velocity": 80,
            "track": 0
        },
        {
            "pitch": 89,
            "start_beat": 11.0,
            "duration_beat": 0.4979166666666668,
            "velocity": 80,
            "track": 0
        },
        {
            "pitch": 91,
            "start_beat": 11.5,
            "duration_beat": 0.4979166666666668,
            "velocity": 80,
            "track": 0
        },
        {
            "pitch": 88,
            "start_beat": 12.0,
            "duration_beat": 1.9979166666666668,
            "velocity": 80,
            "track": 0
        },
        {
            "pitch": 80,
            "start_beat": 14.0,
            "duration_beat": 1.9979166666666668,
            "velocity": 80,
            "track": 0
        },
        {
            "pitch": 92,
            "start_beat": 14.0,
            "duration_beat": 1.9979166666666668,
            "velocity": 80,
            "track": 0
        },
        {
            "pitch": 79,
            "start_beat": 16.0,
            "duration_beat": 0.497916666666665,
            "velocity": 80,
            "track": 0
        },
        {
            "pitch": 91,
            "start_beat": 16.0,
            "duration_beat": 0.497916666666665,
            "velocity": 80,
            "track": 0
        },
        {
            "pitch": 37,
            "start_beat": 16.0,
            "duration_beat": 0.497916666666665,
            "velocity": 80,
            "track": 1
        },
        {
            "pitch": 49,
            "start_beat": 16.0,
            "duration_beat": 0.497916666666665,
            "velocity": 80,
            "track": 1
        },
        {
            "pitch": 56,
            "start_beat": 16.5,
            "duration_beat": 0.497916666666665,
            "velocity": 80,
            "track": 1
        },
        {
            "pitch": 61,
            "start_beat": 17.0,
            "duration_beat": 0.497916666666665,
            "velocity": 80,
            "track": 0
        },
        {
            "pitch": 75,
            "start_beat": 17.0,
            "duration_beat": 0.497916666666665,
            "velocity": 80,
            "track": 0
        },
        {
            "pitch": 87,
            "start_beat": 17.0,
            "duration_beat": 0.497916666666665,
            "velocity": 80,
            "track": 0
        },
        {
            "pitch": 65,
            "start_beat": 17.5,
            "duration_beat": 0.497916666666665,
            "velocity": 80,
            "track": 0
        },
        {
            "pitch": 68,
            "start_beat": 18.0,
            "duration_beat": 0.997916666666665,
            "velocity": 80,
            "track": 0
        },
        {
            "pitch": 77,
            "start_beat": 18.0,
            "duration_beat": 0.997916666666665,
            "velocity": 80,
            "track": 0
        },
        {
            "pitch": 89,
            "start_beat": 18.0,
            "duration_beat": 0.997916666666665,
            "velocity": 80,
            "track": 0
        },
        {
            "pitch": 65,
            "start_beat": 19.0,
            "duration_beat": 0.497916666666665,
            "velocity": 80,
            "track": 0
        },
        {
            "pitch": 72,
            "start_beat": 19.0,
            "duration_beat": 0.497916666666665,
            "velocity": 80,
            "track": 0
        },
        {
            "pitch": 84,
            "start_beat": 19.0,
            "duration_beat": 0.497916666666665,
            "velocity": 80,
            "track": 0
        },
        {
            "pitch": 68,
            "start_beat": 19.5,
            "duration_beat": 0.497916666666665,
            "velocity": 80,
            "track": 0
        },
        {
            "pitch": 75,
            "start_beat": 20.0,
            "duration_beat": 0.497916666666665,
            "velocity": 80,
            "track": 0
        },
        {
            "pitch": 87,
            "start_beat": 20.0,
            "duration_beat": 0.497916666666665,
            "velocity": 80,
            "track": 0
        },
        {
            "pitch": 39,
            "start_beat": 20.0,
            "duration_beat": 0.497916666666665,
            "velocity": 80,
            "track": 1
        },
        {
            "pitch": 51,
            "start_beat": 20.0,
            "duration_beat": 0.497916666666665,
            "velocity": 80,
            "track": 1
        },
        {
            "pitch": 58,
            "start_beat": 20.5,
            "duration_beat": 0.497916666666665,
            "velocity": 80,
            "track": 1
        },
        {
            "pitch": 63,
            "start_beat": 21.0,
            "duration_beat": 0.497916666666665,
            "velocity": 80,
            "track": 0
        },
        {
            "pitch": 77,
            "start_beat": 21.0,
            "duration_beat": 0.497916666666665,
            "velocity": 80,
            "track": 0
        },
        {
            "pitch": 89,
            "start_beat": 21.0,
            "duration_beat": 0.497916666666665,
            "velocity": 80,
            "track": 0
        },
        {
            "pitch": 67,
            "start_beat": 21.5,
            "duration_beat": 0.497916666666665,
            "velocity": 80,
            "track": 0
        },
        {
            "pitch": 70,
            "start_beat": 22.0,
            "duration_beat": 0.997916666666665,
            "velocity": 80,
            "track": 0
        },
        {
            "pitch": 67,
            "start_beat": 23.0,
            "duration_beat": 0.497916666666665,
            "velocity": 80,
            "track": 0
        },
        {
            "pitch": 72,
            "start_beat": 23.0,
            "duration_beat": 0.497916666666665,
            "velocity": 80,
            "track": 0
        },
        {
            "pitch": 84,
            "start_beat": 23.0,
            "duration_beat": 0.497916666666665,
            "velocity": 80,
            "track": 0
        },
        {
            "pitch": 70,
            "start_beat": 23.5,
            "duration_beat": 0.497916666666665,
            "velocity": 80,
            "track": 0
        },
        {
            "pitch": 70,
            "start_beat": 24.0,
            "duration_beat": 0.497916666666665,
            "velocity": 80,
            "track": 0
        },
        {
            "pitch": 82,
            "start_beat": 24.0,
            "duration_beat": 0.497916666666665,
            "velocity": 80,
            "track": 0
        },
        {
            "pitch": 41,
            "start_beat": 24.0,
            "duration_beat": 0.497916666666665,
            "velocity": 80,
            "track": 1
        },
        {
            "pitch": 48,
            "start_beat": 24.5,
            "duration_beat": 0.497916666666665,
            "velocity": 80,
            "track": 1
        },
        {
            "pitch": 65,
            "start_beat": 25.0,
            "duration_beat": 0.497916666666665,
            "velocity": 80,
            "track": 0
        },
        {
            "pitch": 77,
            "start_beat": 25.0,
            "duration_beat": 0.497916666666665,
            "velocity": 80,
            "track": 0
        },
        {
            "pitch": 53,
            "start_beat": 25.0,
            "duration_beat": 0.497916666666665,
            "velocity": 80,
            "track": 1
        },
        {
            "pitch": 68,
            "start_beat": 25.5,
            "duration_beat": 0.497916666666665,
            "velocity": 80,
            "track": 0
        },
        {
            "pitch": 80,
            "start_beat": 25.5,
            "duration_beat": 0.497916666666665,
            "velocity": 80,
            "track": 0
        },
        {
            "pitch": 56,
            "start_beat": 25.5,
            "duration_beat": 0.497916666666665,
            "velocity": 80,
            "track": 1
        },
        {
            "pitch": 60,
            "start_beat": 26.0,
            "duration_beat": 0.997916666666665,
            "velocity": 80,
            "track": 0
        },
        {
            "pitch": 72,
            "start_beat": 27.0,
            "duration_beat": 0.997916666666665,
            "velocity": 80,
            "track": 0
        },
        {
            "pitch": 84,
            "start_beat": 27.0,
            "duration_beat": 0.997916666666665,
            "velocity": 80,
            "track": 0
        },
        {
            "pitch": 70,
            "start_beat": 28.0,
            "duration_beat": 0.497916666666665,
            "velocity": 80,
            "track": 0
        },
        {
            "pitch": 82,
            "start_beat": 28.0,
            "duration_beat": 0.497916666666665,
            "velocity": 80,
            "track": 0
        },
        {
            "pitch": 41,
            "start_beat": 28.0,
            "duration_beat": 0.497916666666665,
            "velocity": 80,
            "track": 1
        },
        {
            "pitch": 48,
            "start_beat": 28.5,
            "duration_beat": 0.497916666666665,
            "velocity": 80,
            "track": 1
        },
        {
            "pitch": 65,
            "start_beat": 29.0,
            "duration_beat": 0.497916666666665,
            "velocity": 80,
            "track": 0
        },
        {
            "pitch": 77,
            "start_beat": 29.0,
            "duration_beat": 0.497916666666665,
            "velocity": 80,
            "track": 0
        },
        {
            "pitch": 53,
            "start_beat": 29.0,
            "duration_beat": 0.497916666666665,
            "velocity": 80,
            "track": 1
        },
        {
            "pitch": 68,
            "start_beat": 29.5,
            "duration_beat": 0.497916666666665,
            "velocity": 80,
            "track": 0
        },
        {
            "pitch": 80,
            "start_beat": 29.5,
            "duration_beat": 0.497916666666665,
            "velocity": 80,
            "track": 0
        },
        {
            "pitch": 56,
            "start_beat": 29.5,
            "duration_beat": 0.497916666666665,
            "velocity": 80,
            "track": 1
        },
        {
            "pitch": 60,
            "start_beat": 30.0,
            "duration_beat": 0.997916666666665,
            "velocity": 80,
            "track": 0
        },
        {
            "pitch": 63,
            "start_beat": 31.0,
            "duration_beat": 0.997916666666665,
            "velocity": 80,
            "track": 0
        },
        {
            "pitch": 65,
            "start_beat": 32.0,
            "duration_beat": 0.49791666666666856,
            "velocity": 80,
            "track": 0
        },
        {
            "pitch": 37,
            "start_beat": 32.0,
            "duration_beat": 0.49791666666666856,
            "velocity": 80,
            "track": 1
        },
        {
            "pitch": 65,
            "start_beat": 32.5,
            "duration_beat": 0.49791666666666856,
            "velocity": 80,
            "track": 0
        },
        {
            "pitch": 44,
            "start_beat": 32.5,
            "duration_beat": 0.49791666666666856,
            "velocity": 80,
            "track": 1
        },
        {
            "pitch": 65,
            "start_beat": 33.0,
            "duration_beat": 0.49791666666666856,
            "velocity": 80,
            "track": 0
        },
        {
            "pitch": 49,
            "start_beat": 33.0,
            "duration_beat": 0.49791666666666856,
            "velocity": 80,
            "track": 1
        },
        {
            "pitch": 65,
            "start_beat": 33.5,
            "duration_beat": 0.49791666666666856,
            "velocity": 80,
            "track": 0
        },
        {
            "pitch": 53,
            "start_beat": 33.5,
            "duration_beat": 0.49791666666666856,
            "velocity": 80,
            "track": 1
        },
        {
            "pitch": 65,
            "start_beat": 34.0,
            "duration_beat": 0.49791666666666856,
            "velocity": 80,
            "track": 0
        },
        {
            "pitch": 56,
            "start_beat": 34.0,
            "duration_beat": 0.49791666666666856,
            "velocity": 80,
            "track": 1
        },
        {
            "pitch": 65,
            "start_beat": 34.5,
            "duration_beat": 0.49791666666666856,
            "velocity": 80,
            "track": 0
        },
        {
            "pitch": 72,
            "start_beat": 35.0,
            "duration_beat": 0.49791666666666856,
            "velocity": 80,
            "track": 0
        },
        {
            "pitch": 53,
            "start_beat": 35.0,
            "duration_beat": 0.49791666666666856,
            "velocity": 80,
            "track": 1
        },
        {
            "pitch": 68,
            "start_beat": 35.5,
            "duration_beat": 0.49791666666666856,
            "velocity": 80,
            "track": 0
        },
        {
            "pitch": 56,
            "start_beat": 35.5,
            "duration_beat": 0.49791666666666856,
            "velocity": 80,
            "track": 1
        },
        {
            "pitch": 70,
            "start_beat": 36.0,
            "duration_beat": 0.49791666666666856,
            "velocity": 80,
            "track": 0
        },
        {
            "pitch": 39,
            "start_beat": 36.0,
            "duration_beat": 0.49791666666666856,
            "velocity": 80,
            "track": 1
        },
        {
            "pitch": 46,
            "start_beat": 36.5,
            "duration_beat": 0.49791666666666856,
            "velocity": 80,
            "track": 1
        },
        {
            "pitch": 51,
            "start_beat": 37.0,
            "duration_beat": 0.49791666666666856,
            "velocity": 80,
            "track": 1
        },
        {
            "pitch": 72,
            "start_beat": 37.5,
            "duration_beat": 0.49791666666666856,
            "velocity": 80,
            "track": 0
        },
        {
            "pitch": 55,
            "start_beat": 37.5,
            "duration_beat": 0.49791666666666856,
            "velocity": 80,
            "track": 1
        },
        {
            "pitch": 70,
            "start_beat": 38.0,
            "duration_beat": 0.49791666666666856,
            "velocity": 80,
            "track": 0
        },
        {
            "pitch": 58,
            "start_beat": 38.0,
            "duration_beat": 0.49791666666666856,
            "velocity": 80,
            "track": 1
        },
        {
            "pitch": 68,
            "start_beat": 38.5,
            "duration_beat": 0.49791666666666856,
            "velocity": 80,
            "track": 0
        },
        {
            "pitch": 67,
            "start_beat": 39.0,
            "duration_beat": 0.49791666666666856,
            "velocity": 80,
            "track": 0
        },
        {
            "pitch": 55,
            "start_beat": 39.0,
            "duration_beat": 0.49791666666666856,
            "velocity": 80,
            "track": 1
        },
        {
            "pitch": 68,
            "start_beat": 39.5,
            "duration_beat": 0.49791666666666856,
            "velocity": 80,
            "track": 0
        },
        {
            "pitch": 58,
            "start_beat": 39.5,
            "duration_beat": 0.49791666666666856,
            "velocity": 80,
            "track": 1
        },
        {
            "pitch": 70,
            "start_beat": 40.0,
            "duration_beat": 0.49791666666666856,
            "velocity": 80,
            "track": 0
        },
        {
            "pitch": 44,
            "start_beat": 40.0,
            "duration_beat": 0.49791666666666856,
            "velocity": 80,
            "track": 1
        },
        {
            "pitch": 51,
            "start_beat": 40.5,
            "duration_beat": 0.49791666666666856,
            "velocity": 80,
            "track": 1
        },
        {
            "pitch": 68,
            "start_beat": 41.0,
            "duration_beat": 0.49791666666666856,
            "velocity": 80,
            "track": 0
        },
        {
            "pitch": 56,
            "start_beat": 41.0,
            "duration_beat": 0.49791666666666856,
            "velocity": 80,
            "track": 1
        },
        {
            "pitch": 68,
            "start_beat": 41.5,
            "duration_beat": 0.49791666666666856,
            "velocity": 80,
            "track": 0
        },
        {
            "pitch": 75,
            "start_beat": 41.5,
            "duration_beat": 0.49791666666666856,
            "velocity": 80,
            "track": 0
        },
        {
            "pitch": 32,
            "start_beat": 41.5,
            "duration_beat": 0.49791666666666856,
            "velocity": 80,
            "track": 1
        },
        {
            "pitch": 44,
            "start_beat": 41.5,
            "duration_beat": 0.49791666666666856,
            "velocity": 80,
            "track": 1
        },
        {
            "pitch": 68,
            "start_beat": 42.5,
            "duration_beat": 0.49791666666666856,
            "velocity": 80,
            "track": 0
        },
        {
            "pitch": 73,
            "start_beat": 42.5,
            "duration_beat": 0.49791666666666856,
            "velocity": 80,
            "track": 0
        },
        {
            "pitch": 34,
            "start_beat": 42.5,
            "duration_beat": 0.49791666666666856,
            "velocity": 80,
            "track": 1
        },
        {
            "pitch": 46,
            "start_beat": 42.5,
            "duration_beat": 0.49791666666666856,
            "velocity": 80,
            "track": 1
        },
        {
            "pitch": 64,
            "start_beat": 43.5,
            "duration_beat": 0.7479166666666686,
            "velocity": 80,
            "track": 0
        },
        {
            "pitch": 72,
            "start_beat": 43.5,
            "duration_beat": 0.7479166666666686,
            "velocity": 80,
            "track": 0
        },
        {
            "pitch": 36,
            "start_beat": 43.5,
            "duration_beat": 0.7479166666666686,
            "velocity": 80,
            "track": 1
        },
        {
            "pitch": 48,
            "start_beat": 43.5,
            "duration_beat": 0.7479166666666686,
            "velocity": 80,
            "track": 1
        },
        {
            "pitch": 72,
            "start_beat": 44.25,
            "duration_beat": 0.12291666666666856,
            "velocity": 80,
            "track": 0
        },
        {
            "pitch": 76,
            "start_beat": 44.375,
            "duration_beat": 0.12291666666666856,
            "velocity": 80,
            "track": 0
        },
        {
            "pitch": 79,
            "start_beat": 44.5,
            "duration_beat": 0.12291666666666856,
            "velocity": 80,
            "track": 0
        },
        {
            "pitch": 84,
            "start_beat": 44.625,
            "duration_beat": 0.12291666666666856,
            "velocity": 80,
            "track": 0
        },
        {
            "pitch": 88,
            "start_beat": 44.75,
            "duration_beat": 0.12291666666666856,
            "velocity": 80,
            "track": 0
        },
        {
            "pitch": 91,
            "start_beat": 44.875,
            "duration_beat": 0.12291666666666856,
            "velocity": 80,
            "track": 0
        },
        {
            "pitch": 96,
            "start_beat": 45.0,
            "duration_beat": 0.12291666666666856,
            "velocity": 80,
            "track": 0
        },
        {
            "pitch": 100,
            "start_beat": 45.125,
            "duration_beat": 0.12291666666666856,
            "velocity": 80,
            "track": 0
        },
        {
            "pitch": 103,
            "start_beat": 45.25,
            "duration_beat": 0.12291666666666856,
            "velocity": 80,
            "track": 0
        },
        {
            "pitch": 108,
            "start_beat": 45.375,
            "duration_beat": 0.9979166666666686,
            "velocity": 80,
            "track": 0
        }
    ]
}